<?xml version="1.0" encoding="utf-8"?>
<!-- Generator: Adobe Illustrator 24.0.2, SVG Export Plug-In . SVG Version: 6.00 Build 0)  -->
<svg version="1.1" id="Слой_1" xmlns="http://www.w3.org/2000/svg" xmlns:xlink="http://www.w3.org/1999/xlink" x="0px" y="0px"
	 viewBox="0 0 283 283" style="enable-background:new 0 0 283 283;" xml:space="preserve">
<style type="text/css">
	.st0{fill:#263238;}
	.st1{opacity:0.1;}
	.st2{opacity:0.1;enable-background:new    ;}
	.st3{fill:#FFFFFF;}
	.st4{fill:#808080;}
	.st5{fill:#39515E;}
	.st6{fill:#ABABAB;}
	.st7{fill:#CCCCCC;}
</style>
<path class="st0" d="M235.5,66h-73c-0.2,0-0.4-0.1-0.5-0.3s0-0.4,0.1-0.5c0.6-0.6,1.5-1.7,1.7-2.2c0.3-1,2.8-1.4,4.9-1.5
	c0.7-0.2,1.3-0.6,1.8-1.1c0.5-0.5,0.9-1.1,1.2-1.8c0.8-2.1,4.2-2.5,6.7-2.7c0.8-0.1,1.4-0.1,1.9-0.2c0.6-0.2,1.3-0.5,1.8-0.9
	c0.2-0.2,0.5-0.1,0.7,0.1c0.2,0.2,0.1,0.5-0.1,0.7c-0.6,0.5-1.4,0.9-2.2,1.1c-0.5,0.1-1.2,0.2-2,0.3c-2.2,0.2-5.3,0.5-5.9,2.1
	c-0.3,0.8-0.8,1.5-1.4,2.1c-0.6,0.6-1.4,1-2.2,1.3c0,0-0.1,0-0.1,0c-1.9,0.1-3.8,0.5-4,0.8c-0.1,0.5-0.7,1.2-1.1,1.8h71.6
	c0.4-0.8,1.5-3.7-1.6-6.5c-1.5-1.4-3.8-1-5.8-0.8c-2.2,0.3-4.6,0.7-5.1-1.8c-0.1-0.3,0.1-0.5,0.4-0.6c0.3-0.1,0.5,0.1,0.6,0.4
	c0.3,1.4,1.4,1.4,4,1c2.1-0.3,4.8-0.7,6.6,1c4.3,3.8,1.7,8,1.7,8C235.8,65.9,235.6,66,235.5,66z"/>
<path class="st0" d="M184.2,53.5c-0.1,0-0.2,0-0.3-0.1c-0.2-0.2-0.3-0.5-0.1-0.7c0.6-1,1.2-2,1.6-3.1c0.6-1.5,1.7-2.6,3.1-3.1
	c2.3-0.8,5.4-0.2,8.7,1.7c2,1.1,3.4,1.5,4.3,1.2c1.1-0.4,1.7-1.8,2.4-3.6c0.8-2,2.6-3.7,4.8-4.7c1.7-0.7,4.5-1.3,7.9,0.2
	c3.6,1.5,5.4,5.6,6.3,8.7c0.1,0.3-0.1,0.5-0.3,0.6c-0.3,0.1-0.5-0.1-0.6-0.3c-0.8-2.9-2.5-6.7-5.7-8c-3.1-1.3-5.5-0.8-7.1-0.1
	c-2,0.8-3.6,2.4-4.3,4.1c-0.8,2-1.5,3.6-3,4.2c-1.2,0.4-2.8,0-5.1-1.2c-3.1-1.7-5.9-2.3-7.9-1.6c-1.2,0.4-2,1.3-2.5,2.5
	c-0.5,1.1-1,2.2-1.7,3.2C184.6,53.4,184.4,53.5,184.2,53.5z"/>
<path class="st0" d="M83.7,94.5H58.3c-0.3,0-0.5-0.2-0.5-0.5s0.2-0.5,0.5-0.5h25.1c0.3-0.6,0.7-2.1-1-3.6c-0.9-0.8-2.1-0.6-3.4-0.4
	c-1.1,0.2-2.2,0.3-2.8-0.3c-0.5-0.5-0.6-1.2-0.4-2.3c-0.1-0.6-0.8-5.4-3.7-6.7c-0.8-0.4-1.7-0.5-2.6-0.5c-0.9,0.1-1.8,0.4-2.5,0.9
	c-0.2,0.2-0.5,0.1-0.7-0.1c-0.2-0.2-0.1-0.5,0.1-0.7c0.9-0.6,1.9-1,3-1.1c1.1-0.1,2.1,0.1,3.1,0.5c3.7,1.6,4.3,7.3,4.3,7.6
	c0,0,0,0.1,0,0.1c-0.1,1,0,1.4,0.2,1.5c0.3,0.3,1.1,0.2,2,0.1c1.3-0.2,3-0.4,4.2,0.7c2.7,2.4,1,5.1,1,5.1
	C84,94.4,83.8,94.5,83.7,94.5z"/>
<path class="st0" d="M54.3,94.5H39.5c-0.2,0-0.4-0.1-0.5-0.3s0-0.4,0.1-0.5c0.4-0.4,0.7-0.8,1-1.3c0.1-0.3,0.4-0.8,3.1-1
	c0.4-0.1,0.7-0.3,1-0.6c0.3-0.3,0.5-0.6,0.7-1c0.5-1.4,2.7-1.6,4.2-1.8c0.4,0,0.8-0.1,1.1-0.1c1.1-0.2,2.2-1.5,3-3.5
	c0.4-1,1.1-1.7,2-2c1.4-0.5,3.4-0.1,5.4,1.1c1.1,0.6,1.9,0.9,2.4,0.7c0.6-0.2,0.9-1,1.3-2.1l0.9,0.4c-0.5,1.2-0.9,2.3-1.9,2.6
	c-0.8,0.3-1.8,0-3.2-0.8c-1.8-1-3.4-1.4-4.6-1c-0.7,0.2-1.2,0.7-1.4,1.4c-1.2,3-2.7,3.8-3.8,4.1c-0.3,0.1-0.7,0.1-1.2,0.2
	c-1.2,0.1-3.1,0.3-3.4,1.1c-0.2,0.5-0.5,1-0.9,1.4c-0.4,0.4-0.9,0.7-1.4,0.8c0,0-0.1,0-0.1,0c-1,0.1-2,0.2-2.3,0.4c0,0,0,0,0,0
	c-0.1,0.3-0.3,0.5-0.4,0.8h13.8c0.3,0,0.5,0.2,0.5,0.5S54.6,94.5,54.3,94.5z M41.1,92.7C41.1,92.7,41.1,92.7,41.1,92.7
	C41.1,92.7,41.1,92.7,41.1,92.7z"/>
<path class="st0" d="M197.2,94.5h-12c-0.3,0-0.5-0.2-0.5-0.5s0.2-0.5,0.5-0.5h11.7c0.3-0.6,0.7-2.1-1-3.6c-0.9-0.8-2.1-0.6-3.4-0.4
	c-1.1,0.2-2.2,0.3-2.8-0.3c-0.5-0.5-0.6-1.2-0.4-2.3c-0.1-0.6-0.7-5.4-3.7-6.7c-1.8-0.8-3.2-0.5-4.1-0.1c-1.2,0.5-2.1,1.4-2.5,2.4
	c-0.5,1.3-0.9,2.3-1.9,2.6c-0.8,0.3-1.8,0-3.2-0.8c-1.8-1-3.4-1.4-4.6-1c-0.7,0.2-1.2,0.7-1.4,1.4c-1.2,3-2.7,3.8-3.8,4.1
	c-0.3,0.1-0.7,0.1-1.2,0.2c-1.2,0.1-3.1,0.3-3.4,1.1c-0.2,0.5-0.5,1-0.9,1.4c-0.4,0.4-0.9,0.7-1.4,0.8c0,0-0.1,0-0.1,0
	c-1,0.1-2,0.2-2.3,0.4c0,0,0,0,0,0c-0.1,0.3-0.3,0.5-0.4,0.8h27.1c0.3,0,0.5,0.2,0.5,0.5s-0.2,0.5-0.5,0.5H153
	c-0.2,0-0.4-0.1-0.5-0.3c-0.1-0.2,0-0.4,0.1-0.5c0.4-0.4,0.7-0.8,1-1.3c0.1-0.3,0.4-0.8,3.1-1c0.4-0.1,0.7-0.3,1-0.6
	c0.3-0.3,0.5-0.6,0.7-1c0.5-1.4,2.7-1.6,4.2-1.8c0.4,0,0.8-0.1,1.1-0.1c1.1-0.2,2.2-1.5,3-3.5c0.4-1,1.1-1.7,2-2
	c1.4-0.5,3.4-0.1,5.4,1.1c1.1,0.6,1.9,0.9,2.4,0.7c0.6-0.2,0.9-1,1.3-2c0.5-1.3,1.7-2.4,3.1-3c1.1-0.4,2.8-0.8,4.9,0.1
	c3.7,1.6,4.3,7.3,4.4,7.6c0,0,0,0.1,0,0.1c-0.1,1,0,1.4,0.2,1.5c0.3,0.3,1.1,0.2,2,0.1c1.3-0.2,3-0.4,4.2,0.7c2.7,2.4,1,5.1,1,5.1
	C197.5,94.4,197.4,94.5,197.2,94.5z M154.6,92.7C154.6,92.7,154.6,92.7,154.6,92.7C154.6,92.7,154.6,92.7,154.6,92.7z"/>
<g class="st1">
	<path class="st2" d="M13.1,131.4c2.2,0.4,7.2-0.8,7.2-0.8s-1.8-3-1.9-3.2c-1.6-2-5.9-5.1-8.6-4.1c-0.4,0.2-0.9,0.4-1.2,0.8
		c-0.3,0.3-0.6,0.8-0.8,1.2c-0.2,0.5-0.2,0.9-0.2,1.4c0,0.5,0.2,0.9,0.4,1.4C8.9,130,11.3,131,13.1,131.4z"/>
	<path class="st2" d="M18,145.5c2.2-0.2,6.3-2.4,6.7-2.6c1.3,2.4,2.7,4.7,4.3,6.9c0.9,1.3,1.9,2.5,2.9,3.8c-0.5-0.5-1-1-1.1-1
		c-2.1-1.6-7-3.3-9.4-1.7c-0.4,0.3-0.7,0.7-0.9,1.1c-0.2,0.4-0.4,0.9-0.4,1.4c0,0.5,0,1,0.2,1.4c0.2,0.5,0.4,0.9,0.7,1.2
		c1.3,1.5,3.8,1.9,5.8,1.8c1.9-0.1,5.5-2,6.5-2.5c0.4,0.5,0.8,1,1.1,1.4c1.8,2.3,3.7,4.5,5.4,6.8c0.6,0.8,1.2,1.6,1.8,2.4
		c-0.5-0.4-0.9-0.8-0.9-0.9c-2.1-1.6-7-3.3-9.4-1.7c-0.4,0.3-0.7,0.7-0.9,1.1c-0.2,0.4-0.4,0.9-0.4,1.4c0,0.5,0,1,0.2,1.4
		c0.2,0.5,0.4,0.9,0.7,1.2c1.3,1.5,3.8,1.9,5.8,1.8c1.9-0.1,5.2-1.8,6.3-2.4c0.6,0.8,1.1,1.7,1.7,2.5c0.3,0.6,0.7,1.1,1,1.7l0.9,1.8
		c0.6,1.1,1.1,2.3,1.6,3.5c0.4,0.8,0.7,1.5,1,2.3c-0.6-0.8-1.8-2.4-1.9-2.5c-1.8-1.8-6.4-4.4-9-3.1c-0.4,0.2-0.8,0.5-1.1,0.9
		c-0.3,0.4-0.5,0.8-0.6,1.3c-0.1,0.5-0.1,1,0,1.4s0.3,0.9,0.5,1.3c1.1,1.7,3.5,2.5,5.4,2.6c2.1,0.2,6.4-1.3,6.9-1.5
		c0.6,1.3,1.1,2.5,1.6,3.7c0.4,0.9,0.7,1.7,1,2.5l1.8-0.4c-0.4-0.9-0.8-1.8-1.2-2.8c-0.6-1.3-1.2-2.6-1.8-4c1.2-0.8,2.4-1.7,3.5-2.7
		c1.8,1.3,5.9,2.3,6.4,2.4c-0.2,1.4-0.5,2.7-0.7,3.9c-0.1,0.7-0.3,1.3-0.4,1.9l1.9-0.4c0.1-0.4,0.1-0.8,0.2-1.2
		c0.2-1.4,0.5-2.8,0.7-4.4c0.6,0,5.1-0.1,7-1c1.8-0.8,3.8-2.3,4.2-4.4c0.1-0.5,0.1-1,0-1.4c-0.1-0.5-0.3-0.9-0.5-1.3
		c-0.3-0.4-0.6-0.7-1-1c-0.4-0.3-0.9-0.4-1.3-0.5c-2.9-0.3-6.3,3.6-7.4,6c-0.1,0.1-0.6,1.7-0.9,2.7c0.1-0.6,0.2-1.2,0.3-1.9
		c0.2-1.3,0.3-2.5,0.5-3.9c0.1-0.7,0.1-1.3,0.2-2c0.1-0.7,0.1-1.4,0.1-2.1c0-1.6,0-3.3-0.1-4.9c1.1,0.1,5,0.6,6.9,0.1
		c1.9-0.5,4.1-1.8,4.8-3.7c0.2-0.4,0.3-0.9,0.3-1.4c0-0.5-0.1-1-0.3-1.4c-0.2-0.4-0.5-0.8-0.9-1.1c-0.4-0.3-0.8-0.5-1.3-0.7
		c-2.8-0.8-6.8,2.6-8.2,4.8c-0.1,0.1-0.9,1.8-1.4,2.7c-0.1-1-0.1-2-0.2-3c-0.3-2.9-0.6-5.8-1-8.7c-0.1-0.9-0.2-1.8-0.3-2.7
		c0.4,0.1,5.1,0.7,7.1,0.1c1.9-0.6,4.1-1.8,4.8-3.7c0.2-0.4,0.3-0.9,0.3-1.4c0-0.5-0.1-1-0.3-1.4c-0.2-0.4-0.5-0.8-0.9-1.1
		c-0.4-0.3-0.8-0.5-1.3-0.7c-2.8-0.8-6.8,2.6-8.2,4.8c-0.1,0.2-1.3,2.6-1.6,3.2c-0.2-2-0.4-3.9-0.5-5.9c-0.2-2.6-0.2-5.2,0-7.8
		c0.2,0,5,0.7,7.2,0.1c1.9-0.6,4.1-1.7,4.8-3.7c0.2-0.4,0.3-0.9,0.3-1.4c0-0.5-0.1-1-0.3-1.4c-0.2-0.4-0.5-0.8-0.9-1.1
		c-0.4-0.3-0.8-0.5-1.3-0.7c-2.8-0.7-6.8,2.6-8.2,4.8c-0.1,0.2-1.4,2.8-1.6,3.3c0-0.2,0-0.3,0-0.5c0.2-2.6,0.7-5.2,1.4-7.7
		c0.4-1.4,0.8-2.7,1.3-4c0.9,0.2,5,1.2,7,0.9c2-0.4,4.2-1.3,5.2-3.1c0.2-0.4,0.4-0.9,0.4-1.4c0-0.5,0-1-0.2-1.4
		c-0.2-0.5-0.4-0.9-0.7-1.2c-0.3-0.4-0.7-0.6-1.2-0.8c-2.7-1.1-7,1.9-8.7,3.9c-0.1,0.1-0.9,1.3-1.4,2.2c0.2-0.6,0.4-1.2,0.6-1.7
		c0.8-2,1.7-3.9,2.4-5.5c0.4-0.9,0.9-1.7,1.3-2.5c1-0.2,5-1.2,6.6-2.4c1.6-1.2,3.2-3.1,3.2-5.2c0-0.5-0.1-1-0.3-1.4
		c-0.2-0.4-0.5-0.8-0.8-1.2s-0.8-0.6-1.2-0.7c-0.5-0.2-0.9-0.2-1.4-0.2c-2.9,0.3-5.4,4.9-5.9,7.4c0,0.2-0.4,3.7-0.3,3.7h0.1
		c-0.4,0.7-0.8,1.5-1.3,2.4c-0.8,1.6-1.7,3.4-2.5,5.4c-0.9,2.2-1.7,4.4-2.4,6.6c-0.8,2.5-1.3,5.2-1.6,7.8c0,0,0,0.1,0,0.1
		c-0.2-0.8-0.7-3.1-0.8-3.3c-0.9-2.4-4-6.6-6.9-6.5c-0.5,0-0.9,0.2-1.4,0.4c-0.4,0.2-0.8,0.5-1.1,0.9c-0.3,0.4-0.5,0.8-0.6,1.3
		c-0.1,0.5-0.1,1-0.1,1.4c0.3,2,2.2,3.7,3.8,4.7c1.9,1.1,6.6,1.5,7,1.5c-0.2,2.7-0.3,5.4-0.2,8.1c0.1,1.6,0.2,3.2,0.3,4.7
		c-0.2-0.7-0.3-1.4-0.4-1.4c-0.9-2.4-4-6.6-6.9-6.5c-0.5,0-1,0.2-1.4,0.4c-0.4,0.2-0.8,0.5-1.1,0.9c-0.3,0.4-0.5,0.8-0.6,1.3
		c-0.1,0.5-0.1,1-0.1,1.4c0.3,2,2.2,3.7,3.8,4.7c1.7,1,5.7,1.4,6.8,1.5c0.1,0.6,0.1,1.2,0.2,1.8c0.3,2.9,0.6,5.8,0.8,8.7
		c0.1,1,0.1,2,0.1,3c-0.2-0.6-0.3-1.2-0.3-1.2c-0.9-2.4-4-6.6-6.9-6.6c-0.5,0-1,0.2-1.4,0.4c-0.4,0.2-0.8,0.5-1.1,0.9
		c-0.3,0.4-0.5,0.8-0.6,1.3c-0.1,0.5-0.1,1-0.1,1.4c0.3,2,2.2,3.7,3.8,4.7c1.7,1,5.3,1.4,6.6,1.5c0,1,0,2,0,3c0,0.7,0,1.3-0.1,2
		c-0.1,0.7-0.1,1.3-0.2,2c-0.2,1.3-0.3,2.6-0.6,3.8c-0.1,0.9-0.3,1.7-0.4,2.5c-0.1-1-0.2-3-0.2-3.1c-0.5-2.2-1.6-4.3-3.2-6
		c0-0.3-0.1-0.5-0.2-0.7c-0.2-0.5-0.4-0.9-0.7-1.2c-0.3-0.3-0.7-0.6-1.2-0.8c-0.4-0.2-0.9-0.3-1.4-0.3c-0.5,0-1,0.1-1.4,0.3
		c-2.6,1.3-3.3,6.5-2.8,9.1c0,0.1,0.5,1.8,0.8,2.8c-0.3-0.6-0.5-1.1-0.8-1.7c-0.6-1.1-1.1-2.3-1.8-3.5l-1-1.7
		c-0.3-0.6-0.7-1.2-1.1-1.8c-0.9-1.4-1.8-2.7-2.8-4c1-0.5,4.5-2.3,5.8-3.7c1.3-1.5,2.4-3.7,2-5.7c-0.1-0.5-0.3-0.9-0.6-1.3
		c-0.3-0.4-0.6-0.7-1-1s-0.9-0.4-1.3-0.5c-0.5-0.1-1,0-1.4,0.1c-2.8,0.9-4.2,5.9-4.2,8.5c0,0.2,0.2,2,0.4,3
		c-0.6-0.8-1.2-1.6-1.8-2.4c-1.8-2.3-3.7-4.5-5.6-6.7c-0.6-0.7-1.1-1.4-1.7-2.1c0.4-0.2,4.6-2.2,6-3.9c1.3-1.5,2.4-3.7,2-5.7
		c-0.1-0.5-0.3-0.9-0.6-1.3c-0.3-0.4-0.6-0.7-1-1c-0.4-0.2-0.9-0.4-1.4-0.5c-0.5-0.1-1,0-1.4,0.1c-2.8,0.9-4.2,5.9-4.2,8.5
		c0,0.2,0.3,2.9,0.5,3.5c-1.3-1.5-2.5-3-3.7-4.6c-1.6-2.1-3-4.3-4.3-6.5c0.2-0.1,4.6-2.2,6.1-3.9c1.3-1.5,2.4-3.7,2-5.7
		c-0.1-0.5-0.3-0.9-0.6-1.3c-0.3-0.4-0.6-0.7-1-1c-0.4-0.2-0.9-0.4-1.4-0.5c-0.5-0.1-1,0-1.4,0.1c-2.8,0.9-4.2,5.9-4.2,8.5
		c0,0.2,0.4,3.1,0.5,3.6c-0.1-0.1-0.2-0.3-0.2-0.4c-1.2-2.3-2.3-4.7-3.1-7.2c-0.5-1.4-0.8-2.7-1.1-4c0.9-0.3,4.8-1.7,6.3-3.1
		c1.5-1.4,2.8-3.4,2.6-5.5c0-0.5-0.2-0.9-0.4-1.4c-0.2-0.4-0.5-0.8-0.9-1.1c-0.4-0.3-0.8-0.5-1.3-0.6c-0.5-0.1-1-0.1-1.4,0
		c-2.8,0.6-4.8,5.4-5.1,8c0,0.1,0,1.6,0,2.6c-0.1-0.6-0.3-1.2-0.4-1.8c-0.5-2.1-0.8-4.1-1-5.9c-0.1-1-0.2-1.9-0.3-2.8
		c0.7-0.7,3.5-3.8,4.1-5.7c0.7-1.9,0.9-4.3-0.2-6c-0.3-0.4-0.6-0.8-1-1c-0.4-0.3-0.9-0.5-1.3-0.5c-0.5-0.1-1-0.1-1.4,0
		c-0.5,0.1-0.9,0.3-1.3,0.6c-2.2,1.9-1.8,7.1-0.8,9.5c0.1,0.2,1.8,3.3,1.8,3.3l0,0c0.1,0.8,0.1,1.7,0.2,2.7c0.2,1.8,0.5,3.8,0.9,5.9
		c0.4,2.3,1,4.6,1.7,6.9c0.8,2.5,1.8,5,3,7.4c0,0,0,0.1,0,0.1c-0.6-0.6-2.3-2.2-2.5-2.3c-2.1-1.6-7-3.3-9.4-1.7
		c-0.4,0.3-0.7,0.7-0.9,1.1c-0.2,0.4-0.4,0.9-0.4,1.4c0,0.5,0,1,0.2,1.4c0.2,0.5,0.4,0.9,0.7,1.2C13.6,145.2,16.1,145.6,18,145.5z"
		/>
	<path class="st2" d="M63.7,121.5c0.1,0,0.2-3.5,0.2-3.7c-0.2-2.6-2.1-7.5-4.9-8.1c-0.5-0.1-1-0.1-1.4,0c-0.5,0.1-0.9,0.3-1.3,0.6
		c-0.4,0.3-0.7,0.6-1,1.1s-0.4,0.9-0.4,1.4c-0.3,2,1.1,4.1,2.5,5.5C58.9,119.8,63.7,121.5,63.7,121.5z"/>
</g>
<g class="st1">
	<path class="st2" d="M265.5,180.2c-1.9,0.1-5.9-1.6-5.9-1.6s1.9-2.3,2-2.4c1.6-1.5,5.5-3.4,7.7-2.3c0.3,0.2,0.6,0.5,0.9,0.8
		c0.2,0.3,0.4,0.7,0.5,1.1c0.1,0.4,0.1,0.8,0,1.2c-0.1,0.4-0.3,0.8-0.5,1.1C269.2,179.6,267.1,180.1,265.5,180.2z"/>
	<path class="st2" d="M259.6,191.2c-1.8-0.4-4.9-2.8-5.2-3c-1.4,1.8-2.9,3.5-4.5,5.1c-0.9,0.9-1.9,1.9-2.9,2.8c0.5-0.4,1-0.7,1-0.7
		c1.9-1,6.3-1.8,8-0.1c0.3,0.3,0.5,0.6,0.6,1c0.1,0.4,0.2,0.8,0.2,1.2s-0.1,0.8-0.3,1.2c-0.2,0.4-0.5,0.7-0.8,0.9
		c-1.3,1.1-3.4,1.1-5,0.7c-1.6-0.4-4.3-2.4-5.1-2.9c-0.4,0.3-0.8,0.7-1.1,1c-1.8,1.7-3.7,3.3-5.4,5c-0.6,0.6-1.2,1.2-1.8,1.8
		c0.5-0.3,0.8-0.6,0.9-0.6c1.9-1,6.3-1.8,8-0.1c0.3,0.3,0.5,0.6,0.6,1c0.1,0.4,0.2,0.8,0.2,1.2c0,0.4-0.1,0.8-0.3,1.2
		c-0.2,0.4-0.5,0.7-0.8,0.9c-1.3,1.1-3.4,1.1-5,0.7c-1.6-0.4-4.1-2.2-4.9-2.8c-0.6,0.6-1.2,1.3-1.7,1.9c-0.4,0.4-0.7,0.8-1.1,1.3
		l-1,1.3c-0.6,0.9-1.3,1.8-1.8,2.7c-0.4,0.6-0.8,1.2-1.2,1.8c0.6-0.6,1.8-1.7,1.9-1.8c1.8-1.3,5.9-2.8,7.9-1.3
		c0.3,0.2,0.6,0.6,0.8,0.9c0.2,0.4,0.3,0.7,0.3,1.2c0,0.4,0,0.8-0.2,1.2c-0.1,0.4-0.3,0.7-0.6,1c-1.1,1.3-3.2,1.6-4.9,1.5
		c-1.8-0.1-5.1-2-5.6-2.2c-0.6,1-1.2,1.9-1.8,2.8c-0.4,0.7-0.8,1.3-1.2,1.9l-1.4-0.6c0.4-0.7,0.9-1.4,1.4-2.2c0.6-1,1.3-2,2.1-3.1
		c-0.9-0.8-1.7-1.7-2.5-2.7c-1.7,0.8-5.2,1.1-5.7,1.1c0,1.1,0,2.3,0.1,3.3c0,0.6,0,1.1,0.1,1.6l-1.5-0.6c0-0.3,0-0.7,0-1
		c0-1.2,0-2.4,0-3.7c-0.5-0.1-4.2-0.7-5.7-1.7c-1.3-0.9-2.8-2.5-2.9-4.2c0-0.4,0-0.8,0.1-1.2c0.1-0.4,0.3-0.7,0.6-1
		c0.3-0.3,0.6-0.5,1-0.7c0.4-0.2,0.8-0.2,1.2-0.2c2.4,0.1,4.8,3.9,5.3,6c0,0.1,0.2,1.5,0.4,2.4c0-0.5,0-1,0-1.6
		c0-1.1,0.1-2.1,0.1-3.3c0.1-0.6,0.1-1.1,0.1-1.7c0-0.6,0.1-1.1,0.2-1.7c0.2-1.3,0.4-2.7,0.7-4.1c-0.9,0-4.3-0.2-5.8-0.9
		c-1.5-0.7-3.1-2-3.5-3.7c-0.1-0.4-0.1-0.8,0-1.2c0.1-0.4,0.2-0.8,0.5-1.1c0.2-0.3,0.5-0.6,0.9-0.8c0.3-0.2,0.7-0.3,1.1-0.4
		c2.4-0.2,5.3,3.1,6.2,5.1c0.1,0.1,0.5,1.6,0.8,2.5c0.2-0.8,0.4-1.6,0.6-2.4c0.6-2.4,1.3-4.7,2-7.1c0.2-0.7,0.4-1.5,0.6-2.2
		c-0.3,0-4.3-0.1-6-0.9c-1.5-0.7-3.2-2-3.5-3.7c-0.1-0.4-0.1-0.8,0-1.2c0.1-0.4,0.2-0.8,0.5-1.1c0.2-0.3,0.5-0.6,0.9-0.8
		c0.3-0.2,0.7-0.3,1.1-0.4c2.4-0.2,5.3,3.1,6.2,5.1c0.1,0.1,0.7,2.3,0.9,2.9c0.4-1.6,0.9-3.2,1.2-4.8c0.5-2.1,0.8-4.3,1-6.5
		c-0.2,0-4.3-0.1-6-0.9c-1.5-0.7-3.2-2-3.5-3.7c-0.1-0.4-0.1-0.8,0-1.2c0.1-0.4,0.2-0.8,0.5-1.1c0.2-0.3,0.5-0.6,0.9-0.8
		c0.3-0.2,0.7-0.3,1.1-0.4c2.4-0.2,5.3,3.1,6.2,5.1c0.1,0.2,0.8,2.5,0.9,2.9c0-0.1,0-0.3,0-0.4c0.1-2.2,0.1-4.4-0.2-6.6
		c-0.1-1.2-0.3-2.4-0.5-3.5c-0.8,0.1-4.3,0.3-5.9-0.2c-1.6-0.6-3.4-1.6-3.9-3.3c-0.1-0.4-0.2-0.8-0.2-1.2c0-0.4,0.1-0.8,0.3-1.2
		s0.5-0.7,0.8-0.9c0.3-0.2,0.7-0.4,1.1-0.5c2.4-0.5,5.6,2.5,6.7,4.4c0.1,0.1,0.6,1.2,0.9,2c-0.1-0.5-0.2-1-0.3-1.5
		c-0.4-1.8-0.9-3.4-1.3-4.9c-0.2-0.8-0.5-1.6-0.7-2.3c-0.8-0.3-4-1.7-5.1-2.9c-1.1-1.2-2.2-3-1.9-4.7c0.1-0.4,0.2-0.8,0.4-1.1
		c0.2-0.3,0.5-0.6,0.8-0.9c0.3-0.2,0.7-0.4,1.1-0.5c0.4-0.1,0.8-0.1,1.2,0c2.4,0.6,3.8,4.8,3.9,7c0,0.2-0.2,3.1-0.2,3.1h-0.1
		c0.2,0.7,0.5,1.4,0.7,2.1c0.5,1.4,1,3.1,1.4,4.9c0.5,1.9,0.9,3.9,1.1,5.9c0.3,2.2,0.4,4.5,0.3,6.7c0,0,0,0.1,0,0.1
		c0.2-0.7,1-2.5,1.1-2.7c1-1.9,4.2-5,6.6-4.5c0.4,0.1,0.8,0.3,1.1,0.5c0.3,0.2,0.6,0.5,0.8,0.9c0.2,0.4,0.3,0.7,0.4,1.1
		c0,0.4,0,0.8-0.1,1.2c-0.5,1.7-2.3,2.8-3.8,3.4c-1.7,0.6-5.7,0.4-6,0.3c-0.2,2.3-0.5,4.5-1,6.7c-0.3,1.3-0.6,2.6-0.9,3.9
		c0.2-0.6,0.4-1.1,0.5-1.1c1.1-1.9,4.2-5,6.6-4.5c0.4,0.1,0.8,0.3,1.1,0.5c0.3,0.2,0.6,0.6,0.8,0.9c0.2,0.4,0.3,0.7,0.4,1.1
		c0,0.4,0,0.8-0.1,1.2c-0.5,1.6-2.3,2.8-3.8,3.4c-1.5,0.6-4.9,0.4-5.8,0.3c-0.1,0.5-0.2,1-0.4,1.5c-0.6,2.4-1.3,4.8-1.8,7.1
		c-0.2,0.8-0.4,1.7-0.5,2.5c0.2-0.5,0.4-0.9,0.4-1c1.1-1.9,4.2-5,6.6-4.5c0.4,0.1,0.8,0.3,1.1,0.5c0.3,0.2,0.6,0.5,0.8,0.9
		c0.2,0.4,0.3,0.7,0.4,1.1c0,0.4,0,0.8-0.1,1.2c-0.5,1.6-2.3,2.8-3.8,3.4c-1.6,0.6-4.6,0.4-5.7,0.4c-0.1,0.8-0.3,1.7-0.4,2.5
		c-0.1,0.6-0.1,1.1-0.2,1.7l-0.1,1.7c0,1.1-0.1,2.2-0.1,3.2c0,0.7,0,1.4,0,2.1c0.2-0.8,0.6-2.4,0.6-2.6c0.7-1.8,1.9-3.3,3.4-4.5
		c0.1-0.2,0.2-0.4,0.3-0.6c0.2-0.4,0.5-0.7,0.8-0.9c0.3-0.2,0.7-0.4,1.1-0.5c0.4-0.1,0.8-0.1,1.2,0c0.4,0.1,0.8,0.2,1.1,0.5
		c2,1.4,1.9,5.9,1.1,7.9c0,0.1-0.6,1.4-1,2.2c0.3-0.4,0.6-0.9,0.9-1.3c0.6-0.9,1.2-1.7,1.9-2.7l1-1.3c0.3-0.4,0.8-0.9,1.1-1.3
		c0.9-1,1.9-2,2.9-3c-0.8-0.5-3.5-2.5-4.3-3.9c-0.8-1.4-1.5-3.4-0.9-5c0.1-0.4,0.4-0.7,0.6-1c0.3-0.3,0.6-0.5,1-0.7
		c0.4-0.2,0.8-0.2,1.2-0.2c0.4,0,0.8,0.1,1.2,0.3c2.2,1.1,2.7,5.5,2.3,7.7c0,0.1-0.5,1.6-0.7,2.5c0.6-0.6,1.2-1.2,1.8-1.7
		c1.8-1.6,3.7-3.2,5.6-4.8l1.7-1.5c-0.3-0.2-3.5-2.4-4.5-4c-0.8-1.4-1.5-3.4-0.9-5c0.1-0.4,0.4-0.7,0.6-1c0.3-0.3,0.6-0.5,1-0.7
		c0.4-0.2,0.8-0.2,1.2-0.2c0.4,0,0.8,0.1,1.2,0.3c2.2,1.1,2.7,5.5,2.3,7.7c0,0.2-0.7,2.3-0.8,2.9c1.3-1.1,2.5-2.2,3.7-3.3
		c1.6-1.5,3.1-3.2,4.5-4.9c-0.1-0.1-3.5-2.4-4.5-4c-0.8-1.4-1.5-3.4-0.9-5c0.1-0.4,0.4-0.7,0.6-1c0.3-0.3,0.6-0.5,1-0.7
		c0.4-0.2,0.8-0.2,1.2-0.2c0.4,0,0.8,0.1,1.2,0.3c2.2,1.1,2.7,5.5,2.3,7.7c0,0.2-0.7,2.5-0.9,2.9c0.1-0.1,0.2-0.2,0.2-0.3
		c1.3-1.8,2.5-3.6,3.5-5.6c0.6-1.1,1.1-2.1,1.5-3.2c-0.7-0.4-3.8-2.1-4.8-3.4s-1.9-3.2-1.4-4.9c0.1-0.4,0.3-0.8,0.5-1.1
		c0.2-0.3,0.6-0.6,0.9-0.8c0.4-0.2,0.8-0.3,1.2-0.3s0.8,0,1.2,0.2c2.3,0.9,3.3,5.2,3.2,7.4c0,0.1-0.2,1.3-0.4,2.2
		c0.2-0.5,0.4-1,0.6-1.4c0.7-1.7,1.2-3.3,1.6-4.8c0.2-0.8,0.4-1.6,0.6-2.3c-0.5-0.7-2.4-3.6-2.7-5.2c-0.3-1.6-0.2-3.7,1-5
		c0.3-0.3,0.6-0.6,1-0.7c0.4-0.2,0.8-0.3,1.2-0.3c0.4,0,0.8,0.1,1.2,0.2c0.4,0.2,0.7,0.4,1,0.7c1.6,1.8,0.6,6.1-0.6,8
		c-0.1,0.2-1.9,2.5-1.9,2.5l0,0c-0.2,0.7-0.3,1.4-0.6,2.2c-0.4,1.4-0.9,3.1-1.5,4.8c-0.7,1.9-1.4,3.7-2.3,5.5c-1,2-2.1,3.9-3.4,5.7
		c0,0,0,0-0.1,0.1c0.6-0.4,2.2-1.5,2.4-1.6c1.9-1,6.3-1.8,8-0.1c0.3,0.3,0.5,0.6,0.6,1c0.1,0.4,0.2,0.8,0.2,1.2
		c0,0.4-0.1,0.8-0.3,1.2c-0.2,0.4-0.5,0.7-0.8,0.9C263.3,191.6,261.2,191.5,259.6,191.2z"/>
	<path class="st2" d="M224.8,165.2c0,0,0.3-2.9,0.4-3.1c0.5-2.1,2.7-5.9,5.2-6.1c0.4,0,0.8,0,1.2,0.2c0.4,0.1,0.7,0.4,1,0.7
		c0.3,0.3,0.5,0.6,0.6,1c0.1,0.4,0.2,0.8,0.2,1.2c0,1.7-1.5,3.3-2.8,4.3C229,164.4,224.8,165.2,224.8,165.2z"/>
</g>
<path class="st0" d="M125.2,86.6c-0.3,0-0.5-0.2-0.5-0.4l-7.1-67.2c0-0.3,0.2-0.5,0.4-0.5c0.3,0,0.5,0.2,0.5,0.4l7.1,67.2
	C125.7,86.3,125.5,86.6,125.2,86.6C125.2,86.6,125.2,86.6,125.2,86.6z"/>
<g>
	<path class="st3" d="M139.3,33.2l-5.3,1.2l-4.8,9.5l-7.6-2.2l-0.2,2.1l9.5,3.9l3.4-4.7v8.2l10.2,0.4l2.1-9.3l3.7,3.3v8.7h2.2
		l1.3-10.9l-5.8-9.4L139.3,33.2z"/>
	<path class="st0" d="M152.5,54.9h-2.2c-0.3,0-0.5-0.2-0.5-0.5v-8.4l-2.9-2.6l-1.9,8.5c-0.1,0.2-0.3,0.4-0.5,0.4l-10.2-0.4
		c-0.3,0-0.5-0.2-0.5-0.5v-6.7l-2.5,3.5c-0.1,0.2-0.4,0.3-0.6,0.2l-9.5-3.9c-0.2-0.1-0.3-0.3-0.3-0.5l0.2-2.1c0-0.1,0.1-0.3,0.2-0.4
		c0.1-0.1,0.3-0.1,0.4-0.1l7.2,2.1l4.6-9.2c0.1-0.1,0.2-0.2,0.3-0.3l5.3-1.2c0.1,0,0.1,0,0.2,0l8.7,0.9c0.2,0,0.3,0.1,0.4,0.2
		l5.8,9.4c0.1,0.1,0.1,0.2,0.1,0.3L153,54.4C153,54.7,152.7,54.9,152.5,54.9z M150.8,53.9h1.3l1.2-10.3l-5.6-9.1l-8.3-0.9l-5,1.1
		l-4.7,9.3c-0.1,0.2-0.4,0.3-0.6,0.3l-7.1-2l-0.1,1.1l8.8,3.7l3.2-4.4c0.1-0.2,0.4-0.2,0.6-0.2s0.3,0.3,0.3,0.5v7.8l9.3,0.4l2-8.9
		c0-0.2,0.2-0.3,0.3-0.4c0.2-0.1,0.4,0,0.5,0.1l3.7,3.3c0.1,0.1,0.2,0.2,0.2,0.4V53.9z"/>
</g>
<path class="st0" d="M134.3,43.6c-0.3,0-0.5-0.2-0.5-0.5l-0.1-4.6c0-0.3,0.2-0.5,0.5-0.5c0.3,0,0.5,0.2,0.5,0.5l0.1,4.6
	C134.8,43.3,134.5,43.5,134.3,43.6C134.3,43.6,134.3,43.6,134.3,43.6z"/>
<g>
	<path d="M139.2,36.2l1.4,2.7c0,0,4,1.3,4.7,1.4c0.7,0.2,2.9-0.5,4.7-0.9c1.8-0.4,7.5,2.5,7.5,2.5l5,0.2l-2.7-3.2l-9.7-1.4l-5,1.6
		l-3.4-0.9l0.7-1.4l-1.6-2.5L139.2,36.2z"/>
	<path class="st0" d="M162.5,42.6C162.5,42.6,162.5,42.6,162.5,42.6l-5-0.2c-0.1,0-0.1,0-0.2-0.1c-2.2-1.1-6-2.7-7.2-2.5
		c-0.6,0.1-1.2,0.3-1.8,0.4c-1.5,0.4-2.5,0.6-3.1,0.5c-0.7-0.2-4.5-1.4-4.7-1.4c-0.1,0-0.2-0.1-0.3-0.2l-1.4-2.7
		c-0.1-0.2-0.1-0.4,0.1-0.6l1.6-1.9c0.1-0.1,0.2-0.2,0.4-0.2c0.2,0,0.3,0.1,0.4,0.2l1.6,2.5c0.1,0.2,0.1,0.3,0,0.5l-0.4,0.9l2.7,0.7
		L150,37c0.1,0,0.2,0,0.2,0l9.7,1.4c0.1,0,0.2,0.1,0.3,0.2l2.7,3.2c0.1,0.2,0.2,0.4,0.1,0.5C162.9,42.5,162.7,42.6,162.5,42.6z
		 M157.7,41.5l3.8,0.1l-1.8-2.2l-9.4-1.4l-4.9,1.6c-0.1,0-0.2,0-0.3,0l-3.4-0.9c-0.1,0-0.3-0.1-0.3-0.3s-0.1-0.3,0-0.4l0.6-1.1
		l-1.1-1.7l-1,1.2l1.2,2.2c0.8,0.3,3.8,1.2,4.4,1.4c0.3,0.1,1.6-0.2,2.6-0.5c0.6-0.2,1.3-0.3,1.9-0.4
		C151.7,38.6,156.7,41,157.7,41.5z"/>
</g>
<g>
	<path class="st3" d="M139.8,32.4c-0.3-0.1-0.6,0-0.8,0.2c-0.2,0.2-0.4,0.4-0.5,0.7c-0.2,1.1-0.4,3.8-0.4,3.8l2.6-0.8l3.1,1.3
		c0,0,1-2.9,0.4-3.8C143.6,32.8,141.1,31.5,139.8,32.4z"/>
	<path class="st0" d="M143.7,38.2c-0.1,0-0.1,0-0.2,0l-2.9-1.2l-2.5,0.7c-0.2,0-0.3,0-0.5-0.1c-0.1-0.1-0.2-0.3-0.2-0.4
		c0-0.1,0.2-2.8,0.4-3.9c0.1-0.4,0.3-0.8,0.7-1c0.3-0.2,0.6-0.3,1-0.3c0.6-0.3,1.3-0.4,2.1-0.2c1.2,0.3,2.4,1.1,2.9,1.9
		c0.6,1.1-0.2,3.7-0.4,4.2c0,0.1-0.1,0.2-0.3,0.3C143.8,38.2,143.8,38.2,143.7,38.2z M140.6,35.9c0.1,0,0.1,0,0.2,0l2.6,1.1
		c0.3-1.1,0.6-2.5,0.3-2.9c-0.3-0.5-1.2-1.1-2.2-1.4c-0.4-0.1-1-0.2-1.5,0.1c-0.1,0.1-0.2,0.1-0.4,0.1c-0.2,0-0.3,0-0.5,0.1
		c-0.1,0.1-0.2,0.2-0.3,0.4c-0.1,0.7-0.3,2.2-0.4,3.1l1.9-0.6C140.5,35.9,140.6,35.9,140.6,35.9z"/>
</g>
<g>
	<path class="st3" d="M139.2,30.9c0,0,0.3,3.1,0.4,4.2c0.1,1.1,0.8,2.7,1.2,2.4c0.4-0.3,2-3.4,2-3.4l0.8-2.1L139.2,30.9z"/>
	<path class="st0" d="M140.7,38c-0.1,0-0.2,0-0.3-0.1c-0.7-0.3-1.2-2-1.3-2.8c-0.1-1.1-0.4-4.2-0.4-4.2c0-0.2,0-0.3,0.2-0.4
		c0.1-0.1,0.3-0.1,0.5-0.1l4.4,1.1c0.1,0,0.3,0.1,0.3,0.3s0.1,0.3,0,0.4l-0.8,2.1c-0.6,1.2-1.7,3.3-2.1,3.6
		C141,37.9,140.9,38,140.7,38z M139.8,31.5c0.1,1,0.3,2.7,0.4,3.5c0.1,0.7,0.4,1.5,0.6,1.9c0.4-0.5,1.1-1.9,1.7-3l0.6-1.5
		L139.8,31.5z"/>
</g>
<g>
	<path class="st3" d="M139.2,26.4c0,0-1-0.1-1,1.5c0,1.6,0.7,1.7,0.7,1.7L139.2,26.4z"/>
	<path class="st0" d="M139,30C139,30,138.9,30,139,30c-0.2,0-1.2-0.2-1.2-2.2c0-0.7,0.2-1.3,0.6-1.6c0.4-0.4,0.9-0.3,0.9-0.3
		c0.3,0,0.5,0.3,0.5,0.5l-0.3,3.1c0,0.1-0.1,0.3-0.2,0.3C139.2,30,139.1,30,139,30z"/>
</g>
<g>
	<path class="st3" d="M145.7,27.7c0.1,0,0.2,0,0.4,0.1c0.1,0.1,0.2,0.1,0.3,0.2c0.1,0.1,0.1,0.2,0.2,0.3c0,0.1,0,0.2,0,0.4
		c-0.2,1-1.8,2.3-1.8,2.3L145.7,27.7z"/>
	<path class="st0" d="M144.6,31.5c-0.1,0-0.2,0-0.3-0.1c-0.2-0.1-0.3-0.4-0.2-0.6l1-3.3c0.1-0.2,0.3-0.4,0.5-0.3
		c0.2,0,0.4,0.1,0.6,0.2c0.2,0.1,0.3,0.2,0.4,0.4c0.1,0.2,0.2,0.3,0.2,0.5c0,0.2,0,0.4,0,0.6c-0.2,1.1-1.8,2.4-2,2.5
		C144.8,31.5,144.7,31.5,144.6,31.5z M146,28.4l-0.2,0.7c0.1-0.2,0.2-0.3,0.2-0.5C146,28.6,146,28.5,146,28.4
		C146,28.5,146,28.4,146,28.4z"/>
</g>
<g>
	<path class="st3" d="M142.5,23.2c0,0-1.8-0.4-2.7,1.6c-1,2.1-0.8,4.6-0.6,6c0.2,1.4,1.5,2.1,2.9,2.1s3.3-2.7,3.7-4.8
		C146.2,26.1,145.9,23.2,142.5,23.2z"/>
	<path class="st0" d="M142,33.5c-1.5,0-3.1-0.8-3.4-2.5c-0.4-2.6-0.2-4.7,0.6-6.3c0.9-1.9,2.5-2.1,3.3-1.9c1.3,0,2.4,0.4,3,1.3
		c1.1,1.4,0.8,3.5,0.7,4.3C145.8,30.3,143.8,33.5,142,33.5z M142.1,23.7c-0.5,0-1.3,0.2-1.9,1.4c-0.7,1.4-0.9,3.4-0.5,5.8
		c0.2,1.2,1.4,1.7,2.4,1.7c0.9,0,2.8-2.4,3.2-4.4c0.1-0.7,0.4-2.4-0.5-3.4c-0.5-0.6-1.3-0.9-2.3-0.9c0,0-0.1,0-0.1,0
		C142.3,23.7,142.2,23.7,142.1,23.7z"/>
</g>
<g>
	<path class="st3" d="M119.4,40.5l0.4,3.3l2,0.2l-0.3-3.7L119.4,40.5z"/>
	<path class="st0" d="M121.9,44.5C121.8,44.5,121.8,44.5,121.9,44.5l-2-0.2c-0.2,0-0.4-0.2-0.4-0.4l-0.4-3.3c0-0.1,0-0.3,0.1-0.4
		c0.1-0.1,0.2-0.2,0.3-0.2l2.1-0.2c0.1,0,0.3,0,0.4,0.1c0.1,0.1,0.2,0.2,0.2,0.3l0.3,3.7c0,0.1,0,0.3-0.1,0.4
		C122.1,44.5,122,44.5,121.9,44.5z M120.3,43.4l1,0.1l-0.2-2.6L120,41L120.3,43.4z"/>
</g>
<g>
	<path class="st3" d="M121.6,40.5l0.8-0.1l0.2,1.8l-0.8,0.1L121.6,40.5z"/>
	<path class="st0" d="M121.7,42.7c-0.1,0-0.2,0-0.3-0.1c-0.1-0.1-0.2-0.2-0.2-0.3l-0.2-1.8c0-0.3,0.2-0.5,0.4-0.5l0.8-0.1
		c0.1,0,0.3,0,0.4,0.1c0.1,0.1,0.2,0.2,0.2,0.3l0.2,1.8c0,0.3-0.2,0.5-0.4,0.5L121.7,42.7C121.8,42.7,121.7,42.7,121.7,42.7z"/>
</g>
<g>
	<path class="st3" d="M150.3,54.4l-1.2,1.9l0.3,1.9l1-0.1l1.8-0.6l0.3-3H150.3z"/>
	<path class="st0" d="M149.4,58.6c-0.2,0-0.5-0.2-0.5-0.4l-0.3-1.9c0-0.1,0-0.2,0.1-0.4l1.2-1.9c0.1-0.1,0.3-0.2,0.4-0.2h2.2
		c0.1,0,0.3,0.1,0.4,0.2s0.1,0.2,0.1,0.4l-0.3,3c0,0.2-0.1,0.4-0.3,0.4l-1.8,0.6c0,0-0.1,0-0.1,0L149.4,58.6
		C149.4,58.6,149.4,58.6,149.4,58.6z M149.6,56.3l0.2,1.2l0.5-0.1l1.4-0.5l0.2-2.2h-1.4L149.6,56.3z"/>
</g>
<g>
	<path class="st0" d="M134.3,51.3l-0.8,3.4L124.9,66l5.8,16.2l1.5-0.3l-1.3-15.5l7-7.4l0.8,0.5l0,8.3l8,13.6l1.7-0.4l-3.8-13.1
		l0.2-13.9l-0.4-2.2L134.3,51.3z"/>
	<path class="st0" d="M130.7,82.7c-0.2,0-0.4-0.1-0.5-0.3l-5.8-16.2c-0.1-0.2,0-0.3,0.1-0.5l8.5-11.2l0.8-3.3
		c0.1-0.2,0.2-0.4,0.5-0.4l10.2,0.4c0.2,0,0.4,0.2,0.5,0.4l0.4,2.2c0,0,0,0.1,0,0.1l-0.2,13.9l3.7,13c0,0.1,0,0.3,0,0.4
		c-0.1,0.1-0.2,0.2-0.3,0.2l-1.7,0.4c-0.2,0.1-0.4,0-0.6-0.2l-8-13.6c0-0.1-0.1-0.2-0.1-0.3l0-8l-0.3-0.2l-6.6,7l1.2,15.3
		c0,0.3-0.1,0.5-0.4,0.5l-1.5,0.3C130.7,82.7,130.7,82.7,130.7,82.7z M125.5,66.1l5.5,15.6l0.6-0.1l-1.2-15.1c0-0.1,0-0.3,0.1-0.4
		l7-7.4c0.2-0.2,0.4-0.2,0.6-0.1l0.8,0.5c0.1,0.1,0.2,0.3,0.2,0.4l0,8.2l7.8,13.2l0.8-0.2L144.2,68c0,0,0-0.1,0-0.1l0.2-13.9
		l-0.3-1.8l-9.4-0.4l-0.7,3c0,0.1,0,0.1-0.1,0.2L125.5,66.1z M133.5,54.7L133.5,54.7L133.5,54.7z"/>
</g>
<g>
	<path class="st3" d="M130.7,82.2l-1.3,1.8c0,0-2,0.9-2.3,1.5c-0.3,0.5,1.7,0.4,1.7,0.4l2.3-0.2l2.4-1.6l-1.4-2.2L130.7,82.2z"/>
	<path class="st0" d="M128.4,86.4c-1.4,0-1.6-0.4-1.7-0.5c-0.1-0.2-0.1-0.5,0-0.7c0.3-0.6,1.7-1.3,2.4-1.6l1.2-1.7
		c0.1-0.1,0.2-0.2,0.3-0.2l1.5-0.3c0.2,0,0.4,0,0.5,0.2l1.4,2.2c0.1,0.2,0.1,0.5-0.2,0.7l-2.4,1.6c-0.1,0-0.1,0.1-0.2,0.1l-2.3,0.2
		C128.7,86.4,128.5,86.4,128.4,86.4z M127.9,85.4c0.2,0,0.5,0,0.8,0l2.2-0.2l1.9-1.2l-0.9-1.5l-1,0.2l-1.1,1.6
		c0,0.1-0.1,0.1-0.2,0.2C129,84.7,128.3,85.1,127.9,85.4z M129.4,84L129.4,84L129.4,84z"/>
</g>
<g>
	<path d="M118.4,21.3c0,0-1.1,2.4-5.4,4c-4.3,1.6-10.6,2.5-12.3,6c-1.6,3.4-1.6,3.2-1.9,5.1c-0.2,1.1-0.7,2.2-1.5,3
		c0,0,1.5,0.2,2.3-0.9c0.8-1,1.1-4,2.3-4.5c1.2-0.5,3.4-1.2,3.4-1.2s-2.1,1.8-2.3,2.7c-0.2,0.9-0.3,3-0.6,4.3
		c-0.1,0.7-0.5,1.4-1,1.9c0,0,1.9,0,2.5-1.3s0-3.1,1.9-4.5c1.9-1.4,4-0.7,7.4-0.6c3.3,0.1,6.4-1.8,6.4-1.8L118.4,21.3z"/>
	<path class="st0" d="M101.3,42.3c-0.2,0-0.4-0.1-0.5-0.3c-0.1-0.2,0-0.4,0.1-0.5c0.5-0.5,0.8-1,0.9-1.7c0.2-0.8,0.3-1.8,0.4-2.8
		c0.1-0.6,0.1-1.2,0.2-1.6c0.1-0.4,0.4-0.9,0.9-1.4c-0.5,0.2-1,0.3-1.3,0.5c-0.5,0.2-0.9,1.4-1.2,2.3c-0.2,0.8-0.5,1.5-0.8,2
		c-0.9,1.3-2.6,1.1-2.7,1.1c-0.2,0-0.4-0.1-0.4-0.3s0-0.4,0.1-0.5c0.7-0.7,1.2-1.7,1.4-2.7c0.3-1.7,0.3-1.8,1.2-3.7
		c0.2-0.4,0.4-0.9,0.7-1.5c1.3-2.8,5.2-4,9-5.1c1.3-0.4,2.4-0.7,3.5-1.1c4.1-1.5,5.1-3.8,5.1-3.8c0.1-0.2,0.3-0.3,0.5-0.3
		c0.2,0,0.4,0.2,0.4,0.4l1.2,12.3c0,0.2-0.1,0.4-0.2,0.5c-0.1,0.1-3.3,2-6.7,1.9c-0.7,0-1.4-0.1-2.1-0.1c-2.2-0.2-3.6-0.3-5,0.7
		c-1.1,0.8-1.3,1.7-1.4,2.7c-0.1,0.5-0.1,1.1-0.4,1.6C103.6,42.3,101.4,42.3,101.3,42.3z M105.2,32.3c0.2,0,0.3,0.1,0.4,0.3
		c0.1,0.2,0.1,0.5-0.1,0.6c-0.9,0.8-2,2-2.1,2.4c-0.1,0.4-0.1,0.9-0.2,1.5c-0.1,0.9-0.2,2-0.4,2.8c-0.1,0.4-0.2,0.8-0.4,1.1
		c0.4-0.2,0.8-0.4,0.9-0.8c0.2-0.4,0.2-0.8,0.3-1.3c0.1-1.1,0.3-2.4,1.8-3.4c1.7-1.2,3.4-1,5.6-0.8c0.6,0.1,1.3,0.1,2,0.1
		c2.6,0.1,5.1-1.1,5.9-1.6L118,22.7c-0.8,0.9-2.3,2.1-4.9,3.1c-1.1,0.4-2.4,0.8-3.6,1.2c-3.6,1.1-7.3,2.2-8.4,4.6
		c-0.3,0.6-0.5,1.1-0.7,1.5c-0.9,1.9-0.9,1.9-1.2,3.4c-0.1,0.8-0.4,1.6-0.8,2.2c0.3-0.1,0.5-0.3,0.7-0.5c0.2-0.3,0.5-1,0.7-1.7
		c0.4-1.3,0.8-2.6,1.8-3c1.2-0.5,3.4-1.2,3.4-1.2C105.1,32.3,105.2,32.3,105.2,32.3z"/>
</g>
<g>
	<path class="st3" d="M146.8,81.4l-1.4,4.8l3.6-0.1l-0.5-5.1L146.8,81.4z"/>
	<path class="st0" d="M145.3,86.7c-0.2,0-0.3-0.1-0.4-0.2c-0.1-0.1-0.1-0.3-0.1-0.5l1.4-4.8c0.1-0.2,0.2-0.3,0.4-0.3l1.7-0.4
		c0.1,0,0.3,0,0.4,0.1c0.1,0.1,0.2,0.2,0.2,0.4l0.5,5.1c0,0.1,0,0.3-0.1,0.4c-0.1,0.1-0.2,0.2-0.4,0.2L145.3,86.7
		C145.4,86.7,145.4,86.7,145.3,86.7z M147.2,81.8l-1.2,3.9l2.4-0.1l-0.4-4L147.2,81.8z"/>
</g>
<path class="st0" d="M141.3,27.4c-0.1,0.3-0.3,0.5-0.5,0.4s-0.3-0.3-0.2-0.6c0.1-0.3,0.3-0.5,0.5-0.4
	C141.3,26.9,141.4,27.1,141.3,27.4z"/>
<path class="st0" d="M143.9,28c-0.1,0.3-0.3,0.5-0.5,0.4c-0.2,0-0.3-0.3-0.2-0.6c0.1-0.3,0.3-0.5,0.5-0.4
	C143.9,27.5,144,27.7,143.9,28z"/>
<path class="st0" d="M142.6,30.4h-1.1c-0.2,0-0.3-0.1-0.4-0.2c-0.1-0.1-0.1-0.3-0.1-0.4l0.7-2.1c0.1-0.3,0.4-0.4,0.6-0.3
	c0.3,0.1,0.4,0.4,0.3,0.6l-0.5,1.4h0.4c0.3,0,0.5,0.2,0.5,0.5S142.9,30.4,142.6,30.4z"/>
<path class="st0" d="M141.9,31.6c-0.9,0-1.5-0.5-1.7-0.9c-0.1-0.2-0.1-0.5,0.2-0.7c0.2-0.1,0.5-0.1,0.7,0.2c0,0.1,0.5,0.7,1.6,0.2
	c0.3-0.1,0.5,0,0.6,0.3c0.1,0.3,0,0.5-0.3,0.6C142.6,31.5,142.2,31.6,141.9,31.6z"/>
<path class="st0" d="M141.9,26.7c-0.1,0-0.3-0.1-0.4-0.2c-0.1-0.1-0.2-0.2-0.4-0.2c-0.1,0-0.3,0-0.4,0.1c-0.2,0.1-0.5,0-0.7-0.2
	c-0.1-0.2,0-0.5,0.2-0.7c0.3-0.2,0.7-0.2,1.1-0.2c0.4,0.1,0.7,0.3,0.9,0.5c0.2,0.2,0.2,0.5-0.1,0.7C142.1,26.7,142,26.7,141.9,26.7z
	"/>
<path class="st0" d="M145,27.7c-0.2,0-0.4-0.1-0.5-0.3c0-0.1-0.1-0.2-0.2-0.3c-0.1-0.1-0.2-0.1-0.3-0.2c-0.1,0-0.2-0.1-0.3,0
	c-0.1,0-0.2,0-0.3,0.1c-0.2,0.1-0.5,0-0.7-0.2c-0.1-0.2,0-0.5,0.2-0.7c0.2-0.1,0.5-0.2,0.7-0.2c0.3,0,0.5,0,0.7,0.1
	c0.2,0.1,0.4,0.2,0.6,0.4c0.2,0.2,0.3,0.4,0.4,0.6c0.1,0.3,0,0.5-0.3,0.7C145.1,27.7,145,27.7,145,27.7z"/>
<g>
	<path class="st0" d="M138.9,25.7l6.3-0.8c0,0-0.3,1,0.1,1.3c0.4,0.3,0.4,1.5,0.4,1.5l-0.3,1.4l1.4-2.4c0,0,0.4-1.9,0.1-2.5
		c-0.1-0.2-0.3-0.3-0.4-0.5c-0.2-0.1-0.4-0.2-0.6-0.2c-0.4-0.6-0.9-1-1.5-1.3c-0.6-0.3-1.3-0.4-2-0.3c-2.4,0.3-3.5,1.5-3.5,2.4V25.7
		z"/>
	<path class="st0" d="M145.4,29.6c-0.1,0-0.1,0-0.2,0c-0.2-0.1-0.4-0.3-0.3-0.6l0.2-1.3c0-0.5-0.2-1-0.2-1.1
		c-0.3-0.2-0.4-0.7-0.4-1.1l-5.6,0.7c-0.1,0-0.3,0-0.4-0.1c-0.1-0.1-0.2-0.2-0.2-0.4v-1.4c0-1.2,1.2-2.7,3.9-2.9
		c0.7-0.1,1.5,0,2.2,0.3c0.6,0.3,1.2,0.7,1.6,1.3c0.2,0.1,0.4,0.1,0.6,0.3c0.2,0.2,0.4,0.4,0.6,0.6c0.4,0.7,0.1,2.4,0,2.9
		c0,0,0,0.1-0.1,0.1l-1.4,2.4C145.8,29.5,145.6,29.6,145.4,29.6z M145.1,24.4c0.1,0,0.3,0.1,0.4,0.2c0.1,0.1,0.2,0.3,0.1,0.5
		c-0.1,0.3-0.1,0.7-0.1,0.8c0.3,0.2,0.4,0.6,0.5,1.1l0.3-0.5c0.2-0.8,0.3-1.9,0.1-2.1c-0.1-0.1-0.2-0.2-0.3-0.3
		c-0.1-0.1-0.3-0.1-0.4-0.2c-0.1,0-0.3-0.1-0.3-0.2c-0.3-0.5-0.8-0.9-1.3-1.1c-0.5-0.2-1.1-0.3-1.7-0.2c-2.3,0.2-3.1,1.3-3.1,2v0.8
		L145.1,24.4C145.1,24.4,145.1,24.4,145.1,24.4z"/>
</g>
<g>
	<path class="st4" d="M134.2,263.3l11.1-63.7l-41.9-38.4l15.2-51.8l-16.3,0.4l-6.9,6.1l-14.4-0.4l-1.9,7l-3.9-0.5l-1.4,2.5L67.2,138
		l-3.5,13.4l-13,16.3L49.2,206l-21,30.3l-6.6,27H134.2z"/>
	<path class="st5" d="M134.2,263.8H21.7c-0.2,0-0.3-0.1-0.4-0.2c-0.1-0.1-0.1-0.3-0.1-0.4l6.6-27c0-0.1,0-0.1,0.1-0.2l20.9-30.2
		l1.4-38.3c0-0.1,0-0.2,0.1-0.3l13-16.2l3.5-13.3c0,0,0-0.1,0-0.1l6.7-13.4l1.4-2.5c0.1-0.2,0.3-0.3,0.5-0.3l3.5,0.4l1.8-6.6
		c0.1-0.2,0.3-0.4,0.5-0.4l14.2,0.3l6.7-6c0.1-0.1,0.2-0.1,0.3-0.1l16.3-0.4c0.2,0,0.3,0.1,0.4,0.2s0.1,0.3,0.1,0.4L104,161.1
		l41.6,38.2c0.1,0.1,0.2,0.3,0.2,0.5l-11.1,63.7C134.7,263.6,134.5,263.8,134.2,263.8z M22.3,262.8h111.5l11-63l-41.7-38.2
		c-0.1-0.1-0.2-0.3-0.1-0.5l15-51.1l-15.4,0.3l-6.7,6c-0.1,0.1-0.2,0.1-0.3,0.1l-14-0.3l-1.8,6.6c-0.1,0.2-0.3,0.4-0.5,0.4l-3.6-0.5
		l-1.2,2.2l-6.7,13.3l-3.5,13.3c0,0.1,0,0.1-0.1,0.2l-12.9,16.1l-1.4,38.2c0,0.1,0,0.2-0.1,0.3l-20.9,30.2L22.3,262.8z"/>
</g>
<g>
	<path class="st6" d="M228.7,263.3l-13.9-30.5l22.6,15.1v-24.1L224.1,208l2-17.7l-20.2-38.4l-1-13.3l-6.9-6.4l-35.4,2.6l-2.5-12.4
		l-22.6-12.8l-13.6,32.9l-12.5,5.5l8.8,12.1l-1.4,9.6l2.9,14.8l-49.2,10.8c0,0-0.5,23.6-0.5,25.6s-9.9,13.3-9.9,13.3l-0.5,29.2
		H228.7z"/>
	<path class="st5" d="M228.7,263.8H61.6c-0.1,0-0.3-0.1-0.4-0.1c-0.1-0.1-0.1-0.2-0.1-0.4l0.5-29.2c0-0.1,0-0.2,0.1-0.3
		c4-4.6,9.7-11.7,9.7-13c0-2,0.5-25.4,0.5-25.6c0-0.2,0.2-0.4,0.4-0.5l48.8-10.7l-2.9-14.3c0-0.1,0-0.1,0-0.2l1.4-9.4l-8.7-11.9
		c-0.1-0.1-0.1-0.3-0.1-0.4c0-0.1,0.1-0.3,0.3-0.3l12.3-5.5l13.5-32.7c0.1-0.1,0.2-0.2,0.3-0.3c0.1,0,0.3,0,0.4,0l22.6,12.8
		c0.1,0.1,0.2,0.2,0.2,0.3l2.4,12l34.9-2.5c0.1,0,0.3,0,0.4,0.1l6.9,6.4c0.1,0.1,0.1,0.2,0.2,0.3l1,13.2l20.2,38.3
		c0,0.1,0.1,0.2,0.1,0.3l-1.9,17.5l13.2,15.6c0.1,0.1,0.1,0.2,0.1,0.3v24.1c0,0.2-0.1,0.4-0.3,0.4c-0.2,0.1-0.4,0.1-0.5,0L216,234.2
		l13.2,28.9c0.1,0.2,0.1,0.3,0,0.5C229,263.7,228.9,263.8,228.7,263.8z M62.1,262.8h165.8L214.3,233c-0.1-0.2,0-0.4,0.1-0.6
		c0.2-0.1,0.4-0.2,0.6,0l21.9,14.6v-23l-13.2-15.6c-0.1-0.1-0.1-0.2-0.1-0.4l2-17.6l-20.1-38.3c0-0.1-0.1-0.1-0.1-0.2l-1-13.1
		l-6.6-6.1l-35.2,2.5c-0.3,0-0.5-0.2-0.5-0.4l-2.5-12.2l-21.9-12.4l-13.4,32.4c0,0.1-0.1,0.2-0.3,0.3l-11.9,5.3l8.5,11.6
		c0.1,0.1,0.1,0.2,0.1,0.4l-1.4,9.5l2.9,14.7c0.1,0.3-0.1,0.5-0.4,0.6l-48.9,10.8c-0.1,3.1-0.5,23.4-0.5,25.2c0,2-7.9,11.3-9.9,13.5
		L62.1,262.8z"/>
</g>
<g>
	<path class="st7" d="M256.1,263.3l-5.9-2.6l-7.4-15.8l-8.9-6.4l-3.9-9.4l-3.9-7.4L205,211.5l3.3,51.8H256.1z"/>
	<path class="st5" d="M256.1,263.8h-47.8c-0.3,0-0.5-0.2-0.5-0.5l-3.3-51.8c0-0.2,0.1-0.3,0.2-0.4c0.1-0.1,0.3-0.1,0.5,0l21.1,10.3
		c0.1,0,0.2,0.1,0.2,0.2l3.9,7.4l3.9,9.3l8.8,6.3c0.1,0,0.1,0.1,0.2,0.2l7.3,15.6l5.7,2.5c0.2,0.1,0.3,0.3,0.3,0.6
		S256.4,263.8,256.1,263.8z M208.8,262.8h45l-3.7-1.6c-0.1,0-0.2-0.1-0.3-0.2l-7.3-15.6l-8.8-6.3c-0.1-0.1-0.1-0.1-0.2-0.2l-3.9-9.4
		l-3.8-7.2l-20.1-9.8L208.8,262.8z"/>
</g>
<g>
	<path class="st7" d="M35.7,263.2h26.3l0.5-15.3l-2.5-8.9v-23.6l-5.9-1l-4.9,5.4l-7.9,4.4l-17.1,39L35.7,263.2L35.7,263.2z"/>
	<path class="st5" d="M35.7,263.8H24.3c-0.2,0-0.3-0.1-0.4-0.2c-0.1-0.1-0.1-0.3,0-0.5l17.1-39c0-0.1,0.1-0.2,0.2-0.2l7.8-4.4
		l4.9-5.4c0.1-0.1,0.3-0.2,0.5-0.2l5.9,1c0.2,0,0.4,0.2,0.4,0.5V239l2.4,8.8c0,0,0,0.1,0,0.1l-0.5,15.3c0,0.3-0.2,0.5-0.5,0.5H36
		C35.9,263.8,35.8,263.8,35.7,263.8z M25.1,262.8h10.5c0.1,0,0.1-0.1,0.2-0.1h25.8L62,248l-2.4-8.8c0,0,0-0.1,0-0.1v-23.2l-5.2-0.9
		l-4.7,5.2c0,0-0.1,0.1-0.1,0.1l-7.7,4.4L25.1,262.8z"/>
</g>
<rect x="43.9" y="235.9" transform="matrix(0.2285 -0.9735 0.9735 0.2285 -195.2853 226.2974)" class="st5" width="2.5" height="1"/>
<polygon class="st5" points="36.2,263.4 35.3,263.2 38.8,249.1 42.1,247 44,239 45,239.2 43,247.6 39.7,249.8 "/>
<rect x="24.5" y="255" transform="matrix(0.332 -0.9433 0.9433 0.332 -219.1064 201.686)" class="st5" width="16.8" height="1"/>
<rect x="52.7" y="221.8" transform="matrix(0.207 -0.9783 0.9783 0.207 -174.6325 229.0563)" class="st5" width="2.6" height="1"/>
<rect x="52.5" y="216.9" transform="matrix(0.2051 -0.9787 0.9787 0.2051 -169.0704 226.6418)" class="st5" width="5" height="1"/>
<g>
	<path class="st3" d="M62.1,263.2l0.5-15.3l-2.5-8.9v-23.6l-4.9,31.5l-4.4,1.5l-1.5,8.9l-0.9,6H62.1z"/>
	<path class="st5" d="M62.1,263.7H48.3c-0.1,0-0.3-0.1-0.4-0.2c-0.1-0.1-0.1-0.3-0.1-0.4l0.9-6l1.5-8.9c0-0.2,0.2-0.3,0.3-0.4
		l4.1-1.4l4.9-31.2c0-0.3,0.3-0.5,0.5-0.4c0.3,0,0.5,0.2,0.5,0.5V239l2.4,8.8c0,0,0,0.1,0,0.1l-0.5,15.3
		C62.6,263.5,62.3,263.7,62.1,263.7z M48.9,262.7h12.7L62,248l-2.4-8.8c0,0,0-0.1,0-0.1v-17.2L55.6,247c0,0.2-0.2,0.3-0.3,0.4
		l-4.2,1.4l-1.4,8.6L48.9,262.7z"/>
</g>
<g>
	<path class="st3" d="M146.4,245.8c2.8-0.4,5.5-1.1,8.1-2.2c2.1-0.8,3.9-2.2,5.3-4c0.2-0.2,0.3-0.5,0.5-0.7l-3.9-17.5l-7.7-6.7
		l-1.3-5.7l-7.4-5.7l-2.5,8.9l-4.1,5.7l-0.3,21.1l4,7.6C140.2,246.5,143.3,246.2,146.4,245.8z"/>
	<path class="st5" d="M137.1,247c-0.2,0-0.4-0.1-0.4-0.3l-4-7.6c0-0.1-0.1-0.2-0.1-0.2l0.3-21c0-0.1,0-0.2,0.1-0.3l4.1-5.7l2.5-8.8
		c0-0.2,0.2-0.3,0.3-0.3c0.2-0.1,0.3,0,0.5,0.1l7.4,5.7c0.1,0.1,0.2,0.2,0.2,0.3l1.2,5.6l7.5,6.6c0.1,0.1,0.1,0.2,0.2,0.3l3.9,17.5
		c0,0.1,0,0.3-0.1,0.4c-0.2,0.2-0.3,0.5-0.5,0.7c-1.5,1.8-3.4,3.2-5.5,4.1c-2.6,1.1-5.4,1.9-8.3,2.3
		C143.3,246.7,140.2,247,137.1,247C137.1,247,137.1,247,137.1,247z M133.6,238.8l3.8,7.2c3,0,6-0.3,8.9-0.7c0,0,0,0,0,0
		c2.8-0.4,5.5-1.1,8-2.2c2-0.8,3.8-2.1,5.1-3.8c0.1-0.1,0.2-0.3,0.3-0.5l-3.8-17.2l-7.5-6.6c-0.1-0.1-0.1-0.2-0.2-0.3l-1.2-5.6
		l-6.6-5.2l-2.3,8.2c0,0.1,0,0.1-0.1,0.2l-4.1,5.6L133.6,238.8z"/>
</g>
<polygon class="st5" points="145.9,245.8 145.1,239.2 147.4,232.9 147.4,229.3 146.9,223.6 147.9,223.5 148.4,229.3 148.4,233.1 
	146.1,239.3 146.9,245.7 "/>
<polygon class="st5" points="154.5,242.1 153.6,239 154,233.6 151.8,233.2 150.5,225.9 151.5,225.8 152.7,232.3 155.1,232.8 
	154.6,238.9 155.5,241.8 "/>
<rect x="149.9" y="221" transform="matrix(0.9848 -0.1736 0.1736 0.9848 -36.2988 29.4907)" class="st5" width="1" height="2.3"/>
<rect x="143" y="206.3" transform="matrix(0.9953 -9.709997e-02 9.709997e-02 0.9953 -20.2715 14.9555)" class="st5" width="1" height="18.9"/>
<g>
	<path class="st7" d="M120.1,245.3c5.3,0.8,10.6,1.2,16,1.2c1.1,0,2.1,0,3.2-0.1l-0.1-5.9l-1.9-2.5v-18.2l3.2-3.2l-0.3-13.4l-3.8,7
		l-5.1,4.5l-3.2,9.2l-5.1,6.1l-1.3,6.4l-6.1,5.1l-2.4,2.6C115.5,244.5,117.8,244.9,120.1,245.3z"/>
	<path class="st5" d="M135.9,247c-5.3,0-10.6-0.4-15.8-1.2l0,0c-2.3-0.4-4.7-0.8-7-1.3c-0.2,0-0.3-0.2-0.4-0.3
		c-0.1-0.2,0-0.4,0.1-0.5l2.4-2.6l6-5l1.2-6.2c0-0.1,0.1-0.2,0.1-0.2l5-6l3.2-9.2c0-0.1,0.1-0.2,0.1-0.2l5-4.4l3.8-6.9
		c0.1-0.2,0.3-0.3,0.6-0.2c0.2,0.1,0.4,0.2,0.4,0.5l0.3,13.4c0,0.1,0,0.3-0.1,0.4l-3,3v17.8l1.8,2.4c0.1,0.1,0.1,0.2,0.1,0.3
		l0.1,5.9c0,0.3-0.2,0.5-0.5,0.5C138.2,247,137,247,135.9,247z M120.2,244.8c5.3,0.8,10.6,1.2,15.9,1.2c0.9,0,1.8,0,2.7,0l-0.1-5.3
		l-1.8-2.4c-0.1-0.1-0.1-0.2-0.1-0.3v-18.2c0-0.1,0.1-0.3,0.1-0.4l3-3l-0.3-11.3l-2.9,5.4c0,0.1-0.1,0.1-0.1,0.1l-5,4.4l-3.1,9.1
		c0,0.1-0.1,0.1-0.1,0.2l-5,6l-1.3,6.3c0,0.1-0.1,0.2-0.2,0.3l-6.1,5.1l-1.8,1.9C116.1,244.1,118.2,244.5,120.2,244.8L120.2,244.8z"
		/>
</g>
<g>
	<path class="st3" d="M212.3,263.3l26.7-0.1l-34.6-20.7l-8.4-20.2l-6.9-1l-5.9-7.9l-3,3l2,17.2l-7.4,12.3v7.9l-3.4,8.9l16.7,0.6
		H212.3z"/>
	<path class="st5" d="M212.3,263.8L212.3,263.8h-24.2l-16.7-0.6c-0.2,0-0.3-0.1-0.4-0.2c-0.1-0.1-0.1-0.3,0-0.5l3.4-8.8V246
		c0-0.1,0-0.2,0.1-0.3l7.3-12.2l-2-17.1c0-0.2,0-0.3,0.1-0.4l3-3c0.1-0.1,0.2-0.2,0.4-0.1c0.1,0,0.3,0.1,0.4,0.2l5.8,7.7l6.7,1
		c0.2,0,0.3,0.1,0.4,0.3l8.3,20l34.5,20.7c0.2,0.1,0.3,0.3,0.2,0.6c-0.1,0.2-0.3,0.4-0.5,0.4L212.3,263.8z M172.1,262.2l16,0.6h24.2
		l24.9,0l-33.1-19.8c-0.1-0.1-0.2-0.1-0.2-0.2l-8.3-19.9l-6.6-0.9c-0.1,0-0.3-0.1-0.3-0.2l-5.6-7.4l-2.4,2.4l1.9,17
		c0,0.1,0,0.2-0.1,0.3l-7.3,12.2v7.7c0,0.1,0,0.1,0,0.2L172.1,262.2z"/>
</g>
<g>
	<path class="st7" d="M198.9,263.3l-1.3-7l2-4.2l-0.5-8.1l1.6,1.6l11,17.7H198.9z"/>
	<path class="st5" d="M211.7,263.8h-12.8c-0.2,0-0.4-0.2-0.5-0.4l-1.3-7c0-0.1,0-0.2,0-0.3l1.9-4l-0.5-8c0-0.2,0.1-0.4,0.3-0.5
		c0.2-0.1,0.4,0,0.6,0.1l1.6,1.6c0,0,0.1,0.1,0.1,0.1l11,17.7c0.1,0.2,0.1,0.3,0,0.5C212.1,263.7,211.9,263.8,211.7,263.8z
		 M199.3,262.8h11.5l-10.5-16.9l-0.6-0.6l0.5,6.8c0,0.1,0,0.2,0,0.2l-1.9,4L199.3,262.8z"/>
</g>
<g>
	<path class="st3" d="M199.1,243.9l7.8,3.8l3.1,3.8l8.9,4.5l6.1,3.8l3.8,3.5l-17,0L199.1,243.9z"/>
	<path class="st5" d="M228.7,263.8L228.7,263.8l-17,0c-0.2,0-0.3-0.1-0.4-0.2l-12.7-19.3c-0.1-0.2-0.1-0.4,0-0.6
		c0.1-0.2,0.4-0.2,0.6-0.1l7.8,3.8c0.1,0,0.1,0.1,0.2,0.1l3,3.7l8.8,4.5l6.2,3.8l3.9,3.5c0.2,0.1,0.2,0.4,0.1,0.5
		S228.9,263.8,228.7,263.8z M212,262.8l15.4,0l-2.8-2.6l-6.1-3.7l-8.8-4.5c-0.1,0-0.1-0.1-0.2-0.1l-3-3.7l-6-3L212,262.8z"/>
</g>
<g>
	<path class="st7" d="M174.9,245.9v7.9l-3.7,9.3l14.1,0.2l-3-16.9l5.9-5.4l-7.9-24.6l2,17.2L174.9,245.9z"/>
	<path class="st5" d="M185.2,263.8C185.2,263.8,185.2,263.8,185.2,263.8l-14.1-0.2c-0.2,0-0.3-0.1-0.4-0.2c-0.1-0.1-0.1-0.3,0-0.5
		l3.7-9.2V246c0-0.1,0-0.2,0.1-0.3l7.3-12.2l-2-17.1c0-0.3,0.1-0.5,0.4-0.5c0.3,0,0.5,0.1,0.6,0.3l7.9,24.6c0.1,0.2,0,0.4-0.1,0.5
		l-5.7,5.2l2.9,16.6c0,0.1,0,0.3-0.1,0.4C185.5,263.8,185.4,263.8,185.2,263.8z M171.9,262.7l12.7,0.2l-2.9-16.3
		c0-0.2,0-0.3,0.2-0.5l5.7-5.2l-6.2-19.5l1.4,12.2c0,0.1,0,0.2-0.1,0.3l-7.3,12.2v7.7c0,0.1,0,0.1,0,0.2L171.9,262.7z M174.9,253.8
		L174.9,253.8L174.9,253.8z"/>
</g>
<polygon class="st5" points="198,238.2 196.3,233 194,232.8 188.7,221.5 189.6,221.1 194.7,231.8 197,232.1 199,237.9 "/>
<rect x="192.5" y="254.5" transform="matrix(0.9556 -0.2946 0.2946 0.9556 -66.8071 68.2169)" class="st5" width="1" height="2.7"/>
<polygon class="st5" points="191.6,252.9 190.1,248 193.2,245.3 190.6,241 189,234.7 190,234.5 191.6,240.6 194.5,245.5 
	191.2,248.4 192.5,252.6 "/>
<g>
	<path class="st7" d="M123.8,108.2l-11.5,12.6l-0.4-23.1l11.5-14L123.8,108.2z"/>
	<path class="st5" d="M112.3,121.4c-0.1,0-0.1,0-0.2,0c-0.2-0.1-0.3-0.3-0.3-0.5l-0.4-23.1c0-0.1,0-0.2,0.1-0.3l11.5-14
		c0.1-0.2,0.4-0.2,0.6-0.2c0.2,0.1,0.3,0.3,0.3,0.5l0.4,24.5c0,0.1,0,0.3-0.1,0.3l-11.5,12.6C112.5,121.3,112.4,121.4,112.3,121.4z
		 M112.4,97.9l0.4,21.7l10.6-11.6l-0.4-22.9L112.4,97.9z"/>
</g>
<g>
	<path class="st7" d="M115.8,158.8l11.8-10.4c0.8-0.7,1.8-1.4,2.8-1.8c1.3-0.6,2.6-1.1,4-1.4c1.8-0.4,3.5-0.7,5.3-0.9
		c2.3-0.2,4.5-0.3,6.8-0.2c5.5,0.1,10.9,0.6,16.4,1.4c4.5,0.7,8.9,1.8,13.3,3.1c3.9,1.2,7.4,2.4,10.3,3.6c3,1.2,5.4,2.2,7.4,3
		l-15.3,9.9c-1.9-0.7-4.2-1.7-7-2.8c-2.8-1.1-6-2.3-9.8-3.4c-4.1-1.2-8.3-2.2-12.6-2.9c-5.1-0.8-10.3-1.3-15.5-1.3
		c-2.1,0-4.3,0-6.4,0.2c-1.7,0.2-3.4,0.4-5,0.8c-1.3,0.3-2.6,0.8-3.8,1.3C117.5,157.5,116.6,158.1,115.8,158.8z"/>
	<path class="st5" d="M178.5,165.5c-0.1,0-0.1,0-0.2,0c-0.8-0.3-1.7-0.7-2.7-1.1c-1.3-0.5-2.7-1.1-4.2-1.7c-3.3-1.3-6.4-2.4-9.7-3.4
		c-4.1-1.2-8.3-2.2-12.5-2.9c-5.1-0.8-10.3-1.3-15.4-1.3c-2.1,0-4.3,0-6.4,0.2c-1.7,0.2-3.3,0.4-5,0.8c-1.3,0.3-2.5,0.8-3.7,1.3
		c-0.9,0.4-1.8,1-2.5,1.7c-0.2,0.2-0.5,0.2-0.7,0c-0.2-0.2-0.2-0.5,0-0.7l0,0c0,0,0,0,0,0l11.8-10.4c0.9-0.8,1.9-1.4,2.9-1.9
		c1.3-0.6,2.7-1.1,4.1-1.4c1.8-0.4,3.6-0.7,5.4-0.9c2.3-0.2,4.6-0.3,6.8-0.3c5.5,0.1,11,0.6,16.4,1.5c4.5,0.7,9,1.8,13.4,3.1
		c3.3,1,6.6,2.1,10.4,3.6c1.7,0.7,3.2,1.3,4.6,1.8c1,0.4,2,0.8,2.8,1.2c0.2,0.1,0.3,0.2,0.3,0.4c0,0.2-0.1,0.4-0.2,0.5l-15.3,9.9
		C178.7,165.5,178.6,165.5,178.5,165.5z M132.7,154.1c0.3,0,0.7,0,1,0c5.2,0.1,10.4,0.5,15.6,1.3c4.3,0.7,8.5,1.7,12.7,2.9
		c3.3,1,6.5,2.1,9.8,3.4c1.6,0.6,3,1.2,4.3,1.7c0.9,0.4,1.7,0.7,2.5,1l14.3-9.3c-0.6-0.2-1.3-0.5-2-0.8c-1.4-0.6-2.9-1.2-4.5-1.8
		c-3.7-1.5-7-2.6-10.3-3.6c-4.3-1.3-8.8-2.3-13.2-3.1c-5.4-0.9-10.8-1.4-16.3-1.4c-2.2,0-4.5,0-6.7,0.2c-1.8,0.2-3.5,0.5-5.2,0.9
		c-1.3,0.3-2.6,0.8-3.9,1.4c-1,0.5-1.9,1.1-2.7,1.8l-8.1,7.2c0.7-0.3,1.5-0.5,2.3-0.7c1.7-0.4,3.4-0.7,5.1-0.9
		C129,154.2,130.9,154.1,132.7,154.1z"/>
</g>
<g>
	<path class="st7" d="M153.4,244l-13.3,5.1c1.2-0.4,2.3-1,3.3-1.7c0.9-0.6,1.8-1.3,2.5-2.2c0.7-0.8,1.2-1.7,1.5-2.7
		c0.4-1,0.5-2.1,0.5-3.3c0-1.9-0.6-3.8-1.7-5.4c-1.4-1.9-3.2-3.4-5.3-4.5c-3-1.6-6.1-2.9-9.3-4c-3.8-1.3-8.5-2.6-14-3.9
		c-7.4-1.7-14.7-4.1-21.8-7c-6.4-2.6-12.4-6.1-17.8-10.3c-5-3.9-9.1-8.8-12-14.4c-3-5.9-4.5-12.5-4.5-19.1c0-2.7,0.2-5.4,0.6-8.1
		c0.4-2.6,1-5.1,1.8-7.6c0.8-2.4,1.8-4.8,3-7c1.2-2.2,2.6-4.4,4.2-6.4l9.2-11.5c-3.4,4.2-6,9-7.7,14.1c-0.9,2.6-1.5,5.3-1.9,8
		c-0.4,2.8-0.6,5.7-0.6,8.5c0,7,1.7,14,4.8,20.3c3.1,5.9,7.5,11.1,12.8,15.2c5.4,4.3,11.7,7.9,18.8,10.9c7.5,3.1,15.2,5.6,23,7.4
		c5.8,1.4,10.7,2.8,14.8,4.2c3.4,1.1,6.7,2.5,9.9,4.2c2.5,1.5,4.4,3,5.6,4.8c1.2,1.7,1.8,3.7,1.8,5.7c0,1.2-0.1,2.3-0.5,3.4
		c-0.4,1-0.9,2-1.6,2.8c-0.8,0.9-1.6,1.6-2.6,2.3C155.8,242.9,154.6,243.5,153.4,244z"/>
	<path class="st5" d="M140.1,249.6c-0.2,0-0.4-0.1-0.5-0.3c-0.1-0.3,0-0.5,0.3-0.6l0.3-0.1c1-0.4,2-0.9,2.9-1.5
		c0.9-0.6,1.7-1.3,2.4-2.1c0.6-0.7,1.1-1.6,1.4-2.5c0.3-1,0.5-2,0.5-3.1c0-1.8-0.6-3.6-1.6-5.1c-1.3-1.8-3.1-3.3-5.1-4.3
		c-2.9-1.6-6-2.9-9.2-3.9c-3.7-1.2-8.2-2.5-13.9-3.9c-7.4-1.7-14.8-4.1-21.9-7c-6.4-2.6-12.4-6.1-17.9-10.4
		c-5.1-4-9.2-8.8-12.2-14.5c-3-6-4.6-12.7-4.6-19.4c0-2.7,0.2-5.5,0.6-8.1c0.4-2.6,1-5.2,1.8-7.6c0.8-2.4,1.8-4.8,3.1-7.1
		c1.2-2.3,2.7-4.4,4.3-6.4l8.9-11.2c0.1-0.1,0.2-0.2,0.2-0.3c0.2-0.2,0.5-0.2,0.7-0.1c0.2,0.2,0.3,0.5,0.1,0.7l-0.2,0.3
		c-3.2,4.1-5.7,8.7-7.4,13.7c-0.9,2.6-1.5,5.2-1.9,7.9c-0.4,2.8-0.6,5.6-0.6,8.5c0,6.9,1.7,13.9,4.8,20.1c3.1,5.9,7.4,11,12.6,15.1
		c5.1,4.1,11.4,7.8,18.7,10.9c7.4,3.1,15.1,5.6,23,7.4c6,1.5,10.8,2.8,14.8,4.2c3.4,1.1,6.8,2.5,9.9,4.3c2.6,1.5,4.5,3.1,5.7,4.9
		c1.2,1.8,1.9,3.8,1.9,6c0,1.2-0.1,2.4-0.5,3.6c-0.4,1.1-1,2.1-1.7,3c-0.8,0.9-1.7,1.7-2.7,2.4c-1.1,0.7-2.3,1.3-3.6,1.8l-13,5
		c-0.1,0-0.2,0.1-0.3,0.1C140.2,249.6,140.1,249.6,140.1,249.6z M74.7,138.1l-3.1,3.9c-1.6,2-3,4.1-4.2,6.3c-1.2,2.2-2.2,4.5-3,6.9
		c-0.8,2.4-1.4,4.9-1.8,7.5c-0.4,2.6-0.6,5.3-0.6,8c0,6.5,1.5,13.1,4.5,18.9c2.9,5.6,6.9,10.3,11.9,14.2c5.4,4.2,11.3,7.7,17.7,10.3
		c7,2.9,14.3,5.3,21.7,7c5.7,1.4,10.3,2.7,14,3.9c3.2,1,6.4,2.4,9.4,4c2.1,1.1,4,2.7,5.4,4.6c1.2,1.7,1.8,3.7,1.8,5.7
		c0,1.2-0.1,2.3-0.5,3.4c-0.4,1.1-0.9,2-1.6,2.9c-0.3,0.3-0.6,0.6-0.9,0.9l7.8-3c0,0,0,0,0,0c1.2-0.5,2.3-1,3.4-1.7
		c0.9-0.6,1.8-1.3,2.5-2.2c0.7-0.8,1.2-1.7,1.5-2.7c0.4-1.1,0.5-2.2,0.5-3.3c0-2-0.6-3.8-1.7-5.4c-1.2-1.7-2.9-3.2-5.4-4.6
		c-3.1-1.7-6.4-3.1-9.8-4.2c-4-1.3-8.8-2.7-14.7-4.1c-7.9-1.8-15.7-4.4-23.1-7.5c-7.4-3.2-13.8-6.9-19-11
		c-5.4-4.2-9.7-9.4-12.9-15.4c-3.2-6.3-4.9-13.4-4.9-20.5c0-2.9,0.1-5.8,0.6-8.6c0.4-2.7,1.1-5.5,2-8.1
		C72.9,142.1,73.7,140.1,74.7,138.1z"/>
</g>
<g>
	<path class="st3" d="M87.8,196.4c5.4,4.3,11.7,7.9,18.8,10.9c7.5,3.1,15.2,5.6,23,7.4c5.8,1.4,10.7,2.8,14.8,4.2
		c3.4,1.1,6.7,2.5,9.9,4.2c2.5,1.5,4.4,3,5.6,4.8c1.2,1.7,1.8,3.7,1.8,5.7c0.1,2.1-0.6,4.2-1.8,5.9c-1.4,1.8-3.2,3.1-5.3,4
		c-2.6,1.1-5.3,1.8-8.1,2.2c-3.4,0.5-6.8,0.7-10.3,0.7c-5.4,0-10.7-0.4-16-1.2c-5.1-0.8-10.1-1.8-15.1-3.2
		c-4.8-1.3-9.4-2.9-13.7-4.5c-4.3-1.6-8.2-3.4-11.8-5.1l-7.2,30.7h130c4.1-4.5,7.2-9.7,9.3-15.4c2.2-6.1,3.3-12.5,3-18.9
		c-0.2-6.9-1.2-13-3.3-18.5c-2-5.5-5.2-10.5-9.3-14.7c-4.2-4.3-9.6-8.2-16.3-11.6c-6.7-3.4-14.8-6.4-24.3-9.1
		c-6.1-1.8-11.5-3.5-16.1-5.2c-3.9-1.4-7.8-3-11.5-4.9c-3.1-1.6-5.3-3.2-6.9-4.8c-1.5-1.6-2.3-3.3-2.3-5c0-1.4,0.3-2.8,0.9-4.1
		c0.8-1.5,2-2.7,3.4-3.6c2.1-1.2,4.3-2.1,6.7-2.5c3.6-0.7,7.2-1,10.9-0.8c5.5,0.1,10.9,0.6,16.4,1.4c4.5,0.7,8.9,1.8,13.3,3.1
		c3.9,1.2,7.4,2.4,10.3,3.6c3,1.2,5.4,2.2,7.4,3l8.4-37.9c-2.6-1.1-5.5-2.3-8.6-3.3c-3.1-1.1-6.5-2.1-10.2-3
		c-3.7-0.9-7.8-1.7-12.3-2.4c-4.5-0.7-9.4-1.2-14.8-1.5l-0.5-22.4l-32.5-0.8l0.4,24.5c-7.9,1.1-15.6,3.3-22.9,6.5
		c-6.3,2.8-12,6.7-16.9,11.5c-4.5,4.4-8,9.8-10.4,15.6c-2.4,6.1-3.5,12.5-3.4,19.1c0,7,1.7,14,4.8,20.3
		C78.2,187.1,82.5,192.3,87.8,196.4z"/>
	<path class="st5" d="M202.4,263.7h-130c-0.2,0-0.3-0.1-0.4-0.2s-0.1-0.3-0.1-0.4l7.2-30.7c0-0.1,0.1-0.3,0.3-0.3
		c0.1-0.1,0.3-0.1,0.4,0c4.2,2,8,3.6,11.8,5.1c4.6,1.7,9.1,3.3,13.6,4.5c4.9,1.4,10,2.5,15,3.2c5.2,0.8,10.6,1.2,15.9,1.2
		c3.4,0,6.8-0.2,10.2-0.7c2.8-0.4,5.4-1.1,8-2.2c2-0.8,3.8-2.1,5.1-3.8c1.2-1.6,1.8-3.6,1.7-5.6c0-2-0.6-3.8-1.7-5.4
		c-1.2-1.7-2.9-3.2-5.4-4.6c-3.1-1.7-6.4-3.1-9.8-4.2c-4-1.3-8.8-2.7-14.7-4.1c-7.9-1.8-15.7-4.4-23.1-7.5c-7.4-3.2-13.8-6.9-19-11
		c-5.4-4.2-9.7-9.4-12.9-15.4c-3.2-6.3-4.9-13.4-4.9-20.5c-0.1-6.6,1-13.1,3.4-19.2c2.4-6,5.9-11.3,10.5-15.8
		c5-4.9,10.7-8.7,17.1-11.6c7.2-3.2,14.8-5.4,22.6-6.5l-0.4-24c0-0.1,0.1-0.3,0.1-0.4c0.1-0.1,0.2-0.1,0.4-0.1l32.5,0.8
		c0.3,0,0.5,0.2,0.5,0.5l0.5,22c5.3,0.3,10,0.8,14.4,1.5c4.6,0.7,8.6,1.5,12.3,2.4c3.6,0.9,7,1.9,10.3,3c2.8,1,5.6,2.1,8.6,3.4
		c0.2,0.1,0.3,0.3,0.3,0.6l-8.4,37.9c0,0.1-0.1,0.3-0.3,0.3c-0.1,0.1-0.3,0.1-0.4,0c-0.9-0.3-1.8-0.7-2.9-1.2
		c-1.3-0.6-2.8-1.2-4.5-1.8c-3.7-1.5-7-2.6-10.3-3.6c-4.3-1.3-8.8-2.3-13.2-3.1c-5.4-0.9-10.8-1.4-16.3-1.4
		c-3.6-0.1-7.2,0.2-10.8,0.8c-2.3,0.4-4.5,1.2-6.5,2.5c-1.4,0.8-2.5,2-3.2,3.4c-0.6,1.2-0.9,2.5-0.8,3.9c0,1.6,0.8,3.2,2.2,4.7
		c1.5,1.6,3.7,3.1,6.7,4.7c3.7,1.9,7.5,3.5,11.4,4.8c4.6,1.6,10,3.4,16.1,5.1c9.7,2.8,17.7,5.8,24.4,9.2c6.8,3.4,12.2,7.3,16.5,11.7
		c4.2,4.3,7.4,9.2,9.5,14.8c2,5.5,3.1,11.6,3.3,18.7c0.2,6.5-0.8,13-3.1,19.1c-2.2,5.8-5.3,11-9.4,15.6
		C202.7,263.6,202.5,263.7,202.4,263.7z M73,262.7h129.1c4-4.4,7-9.5,9.1-15.1c2.2-6,3.2-12.3,3-18.7c-0.2-7-1.3-13-3.3-18.4
		c-2-5.5-5.1-10.3-9.2-14.5c-4.2-4.3-9.5-8.1-16.2-11.5c-6.6-3.4-14.6-6.4-24.2-9.1c-6.1-1.8-11.6-3.5-16.1-5.2
		c-3.9-1.4-7.8-3-11.5-4.9c-3.2-1.7-5.5-3.3-7-4.9c-1.6-1.7-2.4-3.5-2.5-5.4c0-1.5,0.3-3,0.9-4.4c0.8-1.6,2.1-2.9,3.6-3.8
		c2.1-1.3,4.4-2.2,6.9-2.6c3.6-0.7,7.3-1,11-0.9c5.5,0.1,11,0.6,16.4,1.5c4.5,0.7,9,1.8,13.4,3.1c3.3,1,6.6,2.1,10.4,3.6
		c1.7,0.7,3.2,1.3,4.5,1.8c0.8,0.3,1.6,0.7,2.3,1l8.2-36.9c-2.9-1.2-5.5-2.2-8.2-3.2c-3.2-1.1-6.7-2.1-10.2-3
		c-3.7-0.9-7.7-1.7-12.2-2.4c-4.4-0.7-9.2-1.2-14.7-1.5c-0.3,0-0.5-0.2-0.5-0.5L155.4,85l-31.5-0.8l0.4,24c0,0.3-0.2,0.5-0.4,0.5
		c-7.9,1.1-15.5,3.3-22.8,6.5c-6.3,2.8-11.9,6.6-16.8,11.4c-4.5,4.4-7.9,9.6-10.3,15.5c-2.4,6-3.5,12.4-3.4,18.9
		c0,6.9,1.7,13.9,4.8,20.1c3.1,5.9,7.4,11,12.6,15.1c0,0,0,0,0,0c5.1,4.1,11.4,7.8,18.7,10.9c7.4,3.1,15.1,5.6,23,7.4
		c6,1.5,10.8,2.8,14.8,4.2c3.4,1.1,6.8,2.5,9.9,4.3c2.6,1.5,4.5,3.1,5.7,4.9c1.2,1.8,1.9,3.8,1.9,6c0.1,2.2-0.6,4.4-1.9,6.2
		c-1.5,1.8-3.4,3.2-5.5,4.1c-2.6,1.1-5.4,1.9-8.2,2.3c-3.4,0.5-6.9,0.7-10.3,0.7c-5.4,0-10.8-0.4-16.1-1.2
		c-5.1-0.8-10.2-1.9-15.1-3.2c-4.5-1.3-9.1-2.8-13.7-4.5c-3.6-1.4-7.3-3-11.3-4.8L73,262.7z"/>
</g>
<g>
	<path class="st7" d="M72.4,263.2l7.2-30.8l-9.3,5.8l-5.9,25H72.4z"/>
	<path class="st5" d="M72.4,263.7h-7.9c-0.2,0-0.3-0.1-0.4-0.2c-0.1-0.1-0.1-0.3-0.1-0.4l5.9-25c0-0.1,0.1-0.2,0.2-0.3l9.3-5.8
		c0.2-0.1,0.4-0.1,0.6,0c0.2,0.1,0.2,0.3,0.2,0.5l-7.2,30.8C72.8,263.5,72.6,263.7,72.4,263.7z M65.1,262.7H72l6.9-29.2l-8.1,5
		L65.1,262.7z"/>
</g>
<path class="st0" d="M228.8,255.8c-0.6-0.1-1.2,0-1.6,0.3l2.5,1.5c0.1-0.2,0.1-0.4,0.1-0.6c0-0.2-0.1-0.4-0.1-0.6
	c-0.1-0.2-0.2-0.3-0.3-0.5C229.1,255.9,228.9,255.8,228.8,255.8z"/>
<path class="st0" d="M229.5,235.7c0,0,0.3-1.4,0.4-1.5c0.1-1.1-0.3-3.2-1.4-3.7c-0.2-0.1-0.4-0.1-0.6-0.1c-0.2,0-0.4,0.1-0.6,0.1
	c-0.2,0.1-0.3,0.2-0.5,0.4c-0.1,0.2-0.2,0.3-0.3,0.5c-0.3,0.8,0.1,1.8,0.6,2.4C227.6,234.7,229.5,235.7,229.5,235.7z"/>
<path class="st0" d="M246.2,244.4c0.7-0.8,1.5-2.8,0.9-3.9c-0.1-0.2-0.3-0.3-0.4-0.4c-0.2-0.1-0.4-0.2-0.6-0.2c-0.2,0-0.4,0-0.6,0
	c-0.2,0.1-0.4,0.2-0.5,0.3c-0.3,0.3-0.5,0.7-0.7,1.1c-0.1,0.4-0.2,0.8-0.2,1.3c0,0.9,1,2.8,1,2.8
	C245.1,245.5,246.2,244.5,246.2,244.4z"/>
<path class="st0" d="M222.9,252.3c0.8,0.5,1.7,0.9,2.6,1.1c-0.1,0.4-0.1,0.8-0.2,1.2c0,0.1-0.1,0.2-0.1,0.3l0.5,0.3
	c0-0.2,0.1-0.3,0.1-0.5c0.1-0.7,0.2-1.3,0.3-2c0.9,0.3,1.9,0.5,2.8,0.6c0.4,0,0.9-0.1,1.3-0.3c0.4-0.2,0.7-0.5,1-0.8
	c0.1-0.2,0.2-0.4,0.2-0.6c0-0.2,0-0.4,0-0.6c-0.1-0.2-0.1-0.4-0.3-0.5c-0.1-0.2-0.3-0.3-0.5-0.4c-1.1-0.5-3,0.6-3.7,1.4
	c0,0.1-0.5,0.7-0.8,1c0.1-0.4,0.1-0.8,0.1-1.2c0.1-1.2,0.2-2.4,0.3-3.6c0-0.4,0.1-0.7,0.1-1.1c0.2,0.1,2,0.7,2.9,0.6
	c0.8-0.1,1.8-0.4,2.3-1.1c0.1-0.2,0.2-0.4,0.2-0.6c0-0.2,0-0.4,0-0.6c-0.1-0.2-0.1-0.4-0.3-0.5c-0.1-0.2-0.3-0.3-0.5-0.4
	c-1.1-0.5-3,0.6-3.7,1.4c-0.1,0.1-0.7,1-0.9,1.2c0.1-0.8,0.1-1.6,0.2-2.4c0.1-1.1,0.3-2.2,0.6-3.2c0.1,0,2,0.7,2.9,0.6
	c0.8-0.1,1.8-0.4,2.3-1.1c0.1-0.2,0.2-0.4,0.2-0.6s0-0.4,0-0.6c-0.1-0.2-0.1-0.4-0.3-0.5c-0.1-0.2-0.3-0.3-0.5-0.4
	c-1.1-0.5-3,0.6-3.7,1.4c-0.1,0.1-0.8,1-0.9,1.2c0-0.1,0-0.1,0-0.2c0.3-1.1,0.7-2.1,1.2-3.1c0.3-0.6,0.5-1.1,0.8-1.5
	c0.4,0.2,2,0.9,2.8,0.9c0.8,0,1.8-0.2,2.4-0.9c0.1-0.2,0.2-0.3,0.3-0.5c0.1-0.2,0.1-0.4,0-0.6c0-0.2-0.1-0.4-0.2-0.6
	c-0.1-0.2-0.3-0.3-0.4-0.4c-1-0.6-3,0.2-3.8,0.9c0,0-0.5,0.5-0.8,0.8c0.1-0.2,0.3-0.4,0.4-0.7c0.5-0.8,1-1.5,1.4-2.1
	c0.2-0.3,0.5-0.6,0.7-0.9c1,0,1.9-0.2,2.9-0.5c0.7-0.4,1.5-1,1.7-1.9c0-0.2,0-0.4,0-0.6c0-0.2-0.1-0.4-0.2-0.5
	c-0.1-0.2-0.3-0.3-0.4-0.4s-0.4-0.2-0.6-0.2c-1.2-0.1-2.6,1.6-3,2.6c0,0.1-0.4,1.5-0.4,1.5h0c-0.2,0.3-0.5,0.6-0.7,0.9
	c-0.5,0.6-1,1.3-1.5,2c-0.5,0.8-1,1.7-1.5,2.6c-0.5,1-0.9,2-1.2,3.1c0,0,0,0,0,0c0-0.4-0.1-1.3-0.1-1.4c-0.2-1.1-1.1-3-2.3-3.2
	c-0.2,0-0.4,0-0.6,0.1c-0.2,0.1-0.4,0.2-0.5,0.3c-0.2,0.1-0.3,0.3-0.4,0.5c-0.1,0.2-0.1,0.4-0.1,0.6c0,0.9,0.6,1.7,1.2,2.2
	c0.7,0.6,2.6,1.1,2.8,1.1c-0.3,1.1-0.5,2.2-0.7,3.3c-0.1,0.7-0.2,1.3-0.2,2c0-0.3,0-0.6,0-0.6c-0.2-1.1-1.1-3-2.3-3.2
	c-0.2,0-0.4,0-0.6,0.1c-0.2,0.1-0.4,0.2-0.5,0.3c-0.2,0.1-0.3,0.3-0.4,0.5c-0.1,0.2-0.1,0.4-0.1,0.6c0,0.8,0.6,1.7,1.2,2.2
	c0.8,0.5,1.7,0.9,2.7,1.1c0,0.2-0.1,0.5-0.1,0.8c-0.1,1.2-0.2,2.4-0.3,3.6c0,0.4-0.1,0.8-0.2,1.2c0-0.3,0-0.5,0-0.5
	c-0.2-1.1-1.1-3-2.3-3.2c-0.2,0-0.4,0-0.6,0.1c-0.2,0.1-0.4,0.2-0.5,0.3c-0.2,0.1-0.3,0.3-0.4,0.5c-0.1,0.2-0.1,0.4-0.1,0.6
	C221.7,251,222.3,251.8,222.9,252.3z"/>
<path class="st0" d="M254.5,242.3c-1-0.7-3-0.1-3.9,0.5c-0.1,0.1-1.2,1-1.2,1c-0.3,0.1-0.7,0.2-1.1,0.3c-0.7,0.2-1.5,0.5-2.3,0.9
	c-0.9,0.4-1.8,0.8-2.7,1.3c-1,0.5-1.9,1.2-2.7,1.9l0,0c0.2-0.3,0.7-1.1,0.7-1.2c0.4-1,0.7-3.1-0.2-4c-0.2-0.1-0.3-0.2-0.5-0.3
	c-0.2-0.1-0.4-0.1-0.6,0c-0.2,0-0.4,0.1-0.6,0.2c-0.2,0.1-0.3,0.2-0.4,0.4c-0.5,0.7-0.4,1.7-0.2,2.5c0.3,0.9,1.6,2.4,1.7,2.5
	c-0.9,0.7-1.7,1.5-2.4,2.4c-0.4,0.5-0.9,1-1.3,1.5c0.2-0.3,0.3-0.5,0.3-0.5c0.4-1,0.7-3.1-0.2-4c-0.2-0.1-0.3-0.2-0.5-0.3
	c-0.2-0.1-0.4-0.1-0.6,0c-0.2,0-0.4,0.1-0.6,0.2c-0.2,0.1-0.3,0.2-0.4,0.4c-0.5,0.7-0.4,1.7-0.2,2.5c0.4,0.9,0.9,1.7,1.6,2.4
	l-0.5,0.6c-0.8,1-1.5,1.9-2.3,2.8c-0.3,0.3-0.6,0.6-0.8,0.9l0.3-0.5c0.4-1,0.7-3.1-0.2-4c-0.2-0.1-0.3-0.2-0.5-0.3
	c-0.2-0.1-0.4-0.1-0.6,0c-0.2,0-0.4,0.1-0.6,0.2c-0.2,0.1-0.3,0.2-0.4,0.4c-0.5,0.7-0.4,1.7-0.2,2.5c0.4,0.9,0.9,1.7,1.5,2.4
	l-0.6,0.6l0.5,0.3c0.3-0.4,0.7-0.7,1-1.1c0.6,0.8,1.3,1.5,2,2c0.4,0.2,0.8,0.4,1.2,0.4c0.4,0,0.9,0,1.3-0.1c0.2-0.1,0.3-0.2,0.5-0.3
	c0.1-0.1,0.2-0.3,0.3-0.5c0.1-0.2,0.1-0.4,0.1-0.6c0-0.2-0.1-0.4-0.2-0.6c-0.6-1-2.8-1.2-3.8-0.9c-0.1,0-0.8,0.3-1.2,0.4
	c0.3-0.3,0.5-0.6,0.8-1c0.8-0.9,1.5-1.9,2.2-2.9l0.7-0.9c0.1,0.1,1.3,1.7,2.1,2.1c0.4,0.2,0.8,0.4,1.2,0.4c0.4,0,0.9,0,1.3-0.1
	c0.2-0.1,0.3-0.2,0.5-0.3c0.1-0.1,0.2-0.3,0.3-0.5c0.1-0.2,0.1-0.4,0.1-0.6c0-0.2-0.1-0.4-0.2-0.6c-0.6-1-2.8-1.2-3.8-0.9
	c-0.1,0-1.1,0.4-1.4,0.5c0.5-0.7,1-1.3,1.5-1.9c0.7-0.8,1.5-1.6,2.3-2.4c0,0.1,1.3,1.7,2.1,2.1c0.7,0.4,1.7,0.7,2.5,0.3
	c0.2-0.1,0.4-0.2,0.5-0.3c0.1-0.1,0.2-0.3,0.3-0.5c0.1-0.2,0.1-0.4,0.1-0.6c0-0.2-0.1-0.4-0.2-0.6c-0.6-1-2.8-1.2-3.8-0.9
	c-0.1,0-1.2,0.4-1.4,0.5l0.1-0.1c0.8-0.7,1.7-1.4,2.7-1.9c0.5-0.3,1-0.6,1.5-0.8c0.2,0.3,1.1,1.8,1.8,2.3c0.7,0.5,1.6,0.8,2.5,0.6
	c0.2-0.1,0.4-0.2,0.5-0.3s0.3-0.3,0.4-0.5c0.1-0.2,0.1-0.4,0.1-0.6c0-0.2,0-0.4-0.1-0.6c-0.5-1.1-2.7-1.5-3.7-1.3
	c-0.1,0-0.6,0.1-1.1,0.3c0.2-0.1,0.5-0.2,0.7-0.3c0.8-0.4,1.6-0.7,2.3-0.9l1.1-0.4c0.8,0.5,1.7,0.9,2.7,1.2c0.4,0.1,0.9,0.1,1.3-0.1
	c0.4-0.1,0.8-0.3,1.1-0.6c0.1-0.1,0.2-0.3,0.3-0.5c0.1-0.2,0.1-0.4,0.1-0.6c0-0.2-0.1-0.4-0.2-0.6
	C254.8,242.6,254.7,242.4,254.5,242.3z"/>
<path class="st0" d="M225.7,263.3l0.7,0.4l0.4-0.3l0.2-0.1L225.7,263.3z"/>
<path class="st0" d="M38.2,225.8c-0.2,0.1-0.3,0.3-0.4,0.4s-0.2,0.4-0.2,0.6c0,0.2,0,0.4,0,0.6c0.1,0.2,0.1,0.4,0.3,0.5
	c0.4,0.5,1,0.8,1.6,0.8l1.2-2.8C39.8,225.6,38.8,225.4,38.2,225.8z"/>
<path class="st0" d="M43.8,222.2c-0.4,0.3-0.7,0.7-0.8,1.2l2.1-1.2c-0.2-0.1-0.4-0.2-0.7-0.2C44.2,222,44,222.1,43.8,222.2z"/>
<path class="st0" d="M44.1,202c0.7,0.6,2.8,1.2,2.8,1.2s0-1.5-0.1-1.6c-0.2-1.1-1.1-3-2.3-3.2c-0.2,0-0.4,0-0.6,0
	c-0.2,0.1-0.4,0.2-0.5,0.3c-0.2,0.1-0.3,0.3-0.4,0.5c-0.1,0.2-0.1,0.4-0.1,0.6C42.9,200.6,43.6,201.4,44.1,202z"/>
<path class="st0" d="M29.2,208.4c0,0-0.8-1.2-0.9-1.3c-0.7-0.8-2.6-1.9-3.7-1.4c-0.2,0.1-0.3,0.2-0.5,0.4c-0.1,0.2-0.2,0.3-0.3,0.5
	c-0.1,0.2-0.1,0.4,0,0.6c0,0.2,0.1,0.4,0.2,0.6c0.4,0.7,1.4,1.1,2.2,1.2C27.2,209,29.2,208.4,29.2,208.4z"/>
<path class="st0" d="M28.2,203.9c0.1,0.3,0.1,0.7,0.2,1.1c0.1,0.7,0.3,1.6,0.6,2.4c0.3,1,0.6,1.9,0.9,2.8c0.4,1,0.9,2,1.5,3v0
	c-0.3-0.2-1-0.8-1.1-0.9c-0.9-0.6-3-1.1-4-0.4c-0.1,0.1-0.3,0.3-0.4,0.5s-0.1,0.4-0.1,0.6c0,0.2,0,0.4,0.1,0.6
	c0.1,0.2,0.2,0.3,0.4,0.5c0.6,0.6,1.7,0.7,2.5,0.6c0.9-0.1,2.5-1.2,2.7-1.3c0.6,0.9,1.3,1.8,2,2.7c0.4,0.5,0.9,1,1.3,1.5l-0.5-0.4
	c-0.9-0.6-3-1.1-4-0.4c-0.1,0.1-0.3,0.3-0.3,0.5s-0.1,0.4-0.1,0.6c0,0.2,0,0.4,0.1,0.6c0.1,0.2,0.2,0.3,0.3,0.5
	c0.3,0.3,0.7,0.4,1.2,0.5c0.4,0.1,0.9,0.1,1.3,0c0.9-0.3,1.8-0.7,2.6-1.3c0.2,0.2,0.3,0.4,0.5,0.6c0.8,0.9,1.7,1.8,2.5,2.6
	c0.3,0.3,0.6,0.6,0.8,0.9l-0.4-0.3c-0.9-0.6-3-1.1-4-0.4c-0.1,0.1-0.3,0.3-0.4,0.5s-0.1,0.4-0.1,0.6c0,0.2,0,0.4,0.1,0.6
	s0.2,0.3,0.4,0.5c0.6,0.6,1.7,0.7,2.5,0.6c0.9-0.3,1.8-0.7,2.5-1.2c0.3,0.3,0.5,0.7,0.8,1c0.2,0.2,0.3,0.4,0.5,0.7v0l0.2-0.5
	l0.1-0.1l-0.4-0.5c-0.4-0.5-0.8-1.1-1.3-1.6c0.8-0.5,1.6-1.1,2.3-1.7c0.3-0.3,0.5-0.7,0.6-1.2c0.1-0.4,0.1-0.9,0-1.3
	c-0.1-0.2-0.1-0.4-0.3-0.5c-0.1-0.2-0.3-0.3-0.5-0.4c-0.2-0.1-0.4-0.1-0.6-0.1c-0.2,0-0.4,0-0.6,0.1c-1.1,0.5-1.6,2.6-1.4,3.7
	c0,0.1,0.2,0.8,0.3,1.3c-0.3-0.3-0.6-0.6-0.8-0.9c-0.8-0.9-1.7-1.7-2.6-2.6l-0.8-0.8c0.1-0.1,1.8-1.1,2.4-1.8
	c0.3-0.3,0.5-0.7,0.7-1.2c0.1-0.4,0.2-0.9,0.1-1.3c-0.1-0.2-0.1-0.4-0.3-0.5c-0.1-0.2-0.3-0.3-0.5-0.4c-0.2-0.1-0.4-0.1-0.6-0.1
	c-0.2,0-0.4,0-0.6,0.1c-1.1,0.5-1.6,2.6-1.4,3.7c0,0.1,0.2,1.2,0.3,1.5c-0.6-0.6-1.1-1.2-1.7-1.8c-0.7-0.8-1.4-1.7-2-2.6
	c0.1,0,1.8-1.1,2.4-1.8c0.3-0.3,0.5-0.7,0.6-1.1c0.1-0.4,0.1-0.9,0-1.3c-0.1-0.2-0.1-0.4-0.3-0.5c-0.1-0.2-0.3-0.3-0.5-0.4
	c-0.2-0.1-0.4-0.1-0.6-0.2c-0.2,0-0.4,0-0.6,0.1c-1.1,0.5-1.6,2.6-1.4,3.7c0,0.1,0.3,1.3,0.3,1.5l-0.1-0.2c-0.6-0.9-1.1-1.9-1.5-2.9
	c-0.2-0.6-0.4-1.1-0.6-1.6c0.9-0.4,1.8-0.9,2.5-1.5c0.3-0.3,0.5-0.7,0.7-1.1c0.2-0.4,0.2-0.8,0.2-1.3c0-0.2-0.1-0.4-0.2-0.5
	c-0.1-0.2-0.3-0.3-0.4-0.4c-0.2-0.1-0.4-0.2-0.6-0.2c-0.2,0-0.4,0-0.6,0c-1.1,0.4-1.8,2.4-1.8,3.5c0,0.1,0.1,0.7,0.1,1.1
	c-0.1-0.2-0.2-0.5-0.2-0.7c-0.3-0.9-0.5-1.7-0.6-2.4C28.4,204.5,28.3,204.2,28.2,203.9c0.7-0.8,1.2-1.6,1.6-2.5
	c0.1-0.4,0.2-0.8,0.1-1.3c0-0.4-0.2-0.8-0.4-1.2c-0.1-0.2-0.3-0.3-0.4-0.4c-0.2-0.1-0.4-0.2-0.6-0.2c-0.2,0-0.4,0-0.6,0.1
	c-0.2,0.1-0.4,0.2-0.5,0.3c-0.9,0.8-0.5,3,0,4C27.4,202.6,28.2,203.9,28.2,203.9z"/>
<path class="st0" d="M43.1,208.1c0.8,0.4,2.8,0.4,3,0.4c0,1.1,0.1,2.3,0.2,3.4c0.1,0.6,0.2,1.3,0.3,2c-0.1-0.3-0.2-0.6-0.2-0.6
	c-0.4-1-1.9-2.6-3.1-2.5c-0.2,0-0.4,0.1-0.6,0.2c-0.2,0.1-0.3,0.2-0.4,0.4c-0.1,0.2-0.2,0.4-0.2,0.6c0,0.2,0,0.4,0,0.6
	c0.2,0.8,1,1.5,1.8,1.8c0.9,0.3,1.9,0.4,2.9,0.4c0,0.2,0.1,0.5,0.1,0.7c0.2,1.2,0.4,2.4,0.6,3.6c0.1,0.4,0.1,0.8,0.2,1.2l-0.2-0.5
	c-0.4-1-1.9-2.6-3.1-2.5c-0.2,0-0.4,0.1-0.6,0.2c-0.2,0.1-0.3,0.2-0.4,0.4c-0.1,0.2-0.2,0.3-0.2,0.5c0,0.2,0,0.4,0,0.6
	c0.2,0.8,1,1.5,1.7,1.8c0.6,0.2,1.3,0.3,1.9,0.4l1.3-0.7l1-0.6l2.8-3.1c-0.1,0-0.1,0-0.2-0.1c-1.2-0.2-2.7,1.3-3.2,2.3
	c0,0.1-0.3,0.8-0.5,1.2c-0.1-0.4-0.1-0.8-0.2-1.2c-0.2-1.2-0.5-2.4-0.7-3.6c-0.1-0.4-0.1-0.7-0.2-1.1c0.2,0,2.1,0.1,3-0.2
	c0.8-0.3,1.6-0.9,1.9-1.7c0.1-0.2,0.1-0.4,0.1-0.6c0-0.2-0.1-0.4-0.2-0.6c-0.1-0.2-0.2-0.3-0.4-0.4c-0.2-0.1-0.3-0.2-0.5-0.2
	c-1.2-0.2-2.7,1.3-3.2,2.3c0,0.1-0.5,1.1-0.6,1.4c-0.2-0.8-0.3-1.6-0.4-2.4c-0.2-1.1-0.2-2.2-0.3-3.3c0.1,0,2.1,0.1,3-0.2
	c0.4-0.1,0.8-0.4,1.1-0.6c0.3-0.3,0.6-0.7,0.7-1.1c0.1-0.2,0.1-0.4,0.1-0.6c0-0.2-0.1-0.4-0.2-0.6c-0.1-0.2-0.2-0.3-0.4-0.4
	c-0.2-0.1-0.3-0.2-0.5-0.2c-1.2-0.2-2.7,1.3-3.2,2.3c0,0.1-0.5,1.2-0.6,1.4c0-0.1,0-0.1,0-0.2c0-1.1,0.1-2.2,0.3-3.3
	c0.1-0.6,0.2-1.1,0.4-1.7c0.4,0.1,2.1,0.3,2.9,0.1c0.8-0.2,1.7-0.7,2-1.5c0.1-0.2,0.1-0.4,0.1-0.6c0-0.2,0-0.4-0.1-0.6
	c-0.1-0.2-0.2-0.3-0.3-0.5c-0.1-0.1-0.3-0.2-0.5-0.3c-1.1-0.3-2.8,1-3.5,1.9c0,0-0.3,0.6-0.5,1c0.1-0.2,0.1-0.5,0.2-0.7
	c0.3-0.9,0.6-1.7,0.8-2.4c0.2-0.4,0.3-0.7,0.4-1.1c0.4-0.1,2-0.7,2.6-1.2c0.6-0.6,1.2-1.4,1.1-2.3c0-0.2-0.1-0.4-0.2-0.6
	c-0.1-0.2-0.2-0.3-0.4-0.5c-0.2-0.1-0.3-0.2-0.5-0.3c-0.2-0.1-0.4-0.1-0.6,0c-1.2,0.2-2.1,2.2-2.2,3.3c0,0.1,0,1.6,0,1.6
	c-0.1,0.3-0.3,0.7-0.4,1c-0.3,0.7-0.6,1.5-0.9,2.3c-0.3,0.9-0.6,1.9-0.8,2.9c-0.2,1.1-0.3,2.2-0.4,3.3v0c-0.1-0.3-0.4-1.3-0.4-1.4
	c-0.4-1-1.9-2.6-3.1-2.5c-0.2,0-0.4,0.1-0.6,0.2c-0.2,0.1-0.3,0.2-0.4,0.4c-0.1,0.2-0.2,0.4-0.2,0.6c0,0.2,0,0.4,0,0.6
	C41.6,207.1,42.4,207.7,43.1,208.1z"/>
<path class="st0" d="M125.2,220.6c-0.2,0-0.4,0.1-0.6,0.2c-0.2,0.1-0.3,0.2-0.4,0.4c-0.1,0.2-0.2,0.4-0.2,0.6c0,0.2,0,0.4,0,0.6
	c0.1,0.4,0.4,0.8,0.7,1.1c0.3,0.3,0.7,0.6,1.1,0.7c0.6,0.2,1.1,0.3,1.7,0.3l0.5-0.6l0.3-0.8C127.8,222.1,126.4,220.5,125.2,220.6z"
	/>
<path class="st0" d="M119,229.2c-0.2,0.1-0.3,0.3-0.4,0.4s-0.2,0.4-0.2,0.6c0,0.2,0,0.4,0,0.6c0.1,0.2,0.1,0.4,0.3,0.5
	c0.5,0.7,1.5,0.9,2.3,0.9c0.5,0,1-0.2,1.5-0.4l0.3-1.7l0,0C122,229.4,120,228.5,119,229.2z"/>
<path class="st0" d="M124.6,225.5c-0.9,0.6-1.1,2.4-0.9,3.5l2.7-3.2c-0.2-0.3-0.5-0.4-0.8-0.5C125.2,225.3,124.9,225.4,124.6,225.5z
	"/>
<path class="st0" d="M116.3,221.5c0.2,0.2,0.3,0.4,0.5,0.6c0.8,0.9,1.7,1.8,2.5,2.6c0.3,0.3,0.6,0.6,0.8,0.9l-0.4-0.3
	c-0.9-0.6-3-1.1-4-0.4c-0.1,0.1-0.3,0.3-0.3,0.5c-0.1,0.2-0.1,0.4-0.1,0.6c0,0.2,0,0.4,0.1,0.6c0.1,0.2,0.2,0.3,0.3,0.5
	c0.6,0.6,1.7,0.7,2.5,0.6c0.9-0.3,1.8-0.7,2.5-1.2c0.3,0.3,0.5,0.7,0.8,1c0.2,0.2,0.3,0.4,0.5,0.7l0.4,0.7c0.2,0.4,0.4,0.7,0.6,1
	l0.4-0.5c-0.2-0.3-0.3-0.6-0.5-0.9l-0.5-0.7c-0.1-0.2-0.3-0.5-0.5-0.7c-0.4-0.6-0.8-1.1-1.3-1.6c0.8-0.5,1.6-1.1,2.3-1.7
	c0.3-0.3,0.5-0.7,0.6-1.2c0.1-0.4,0.1-0.9,0-1.3c0-0.2-0.1-0.4-0.3-0.5c-0.1-0.2-0.3-0.3-0.5-0.4c-0.2-0.1-0.4-0.1-0.6-0.2
	s-0.4,0-0.6,0.1c-1.1,0.5-1.6,2.6-1.4,3.7c0,0.1,0.2,0.8,0.3,1.3c-0.3-0.3-0.6-0.6-0.8-0.9c-0.8-0.9-1.7-1.7-2.6-2.6l-0.8-0.8
	c0.1-0.1,1.8-1.1,2.4-1.8c0.3-0.3,0.5-0.7,0.6-1.1c0.1-0.4,0.1-0.9,0-1.3c-0.1-0.2-0.1-0.4-0.3-0.5c-0.1-0.2-0.3-0.3-0.5-0.4
	c-0.2-0.1-0.4-0.1-0.6-0.1c-0.2,0-0.4,0-0.6,0.1c-1.1,0.5-1.6,2.6-1.4,3.7c0,0.1,0.2,1.2,0.3,1.5c-0.6-0.6-1.1-1.2-1.7-1.8
	c-0.7-0.8-1.4-1.7-2-2.6c0.1,0,1.8-1.1,2.4-1.8c0.3-0.3,0.5-0.7,0.6-1.1c0.1-0.4,0.1-0.9,0-1.3c-0.1-0.2-0.1-0.4-0.3-0.5
	c-0.1-0.2-0.3-0.3-0.5-0.4c-0.2-0.1-0.4-0.1-0.6-0.1c-0.2,0-0.4,0-0.6,0.1c-1.1,0.5-1.6,2.6-1.4,3.7c0,0.1,0.3,1.3,0.3,1.5l-0.1-0.2
	c-0.6-0.9-1.1-1.9-1.5-2.9c-0.2-0.6-0.4-1.1-0.6-1.6c0.9-0.4,1.8-0.9,2.5-1.5c0.5-0.6,1.1-1.5,0.9-2.4c0-0.2-0.1-0.4-0.2-0.5
	c-0.1-0.2-0.3-0.3-0.4-0.4c-0.2-0.1-0.4-0.2-0.6-0.2c-0.2,0-0.4,0-0.6,0c-1.1,0.4-1.8,2.4-1.8,3.5c0,0.1,0.1,0.7,0.1,1.1
	c-0.1-0.2-0.2-0.5-0.2-0.7c-0.3-0.9-0.5-1.7-0.6-2.4c-0.1-0.4-0.2-0.8-0.2-1.1c0.6-0.7,1.1-1.6,1.5-2.5c0.1-0.4,0.2-0.8,0.1-1.3
	c-0.1-0.4-0.2-0.8-0.4-1.2c-0.1-0.2-0.3-0.3-0.4-0.4c-0.2-0.1-0.4-0.2-0.6-0.2c-0.2,0-0.4,0-0.6,0.1c-0.2,0.1-0.4,0.2-0.5,0.3
	c-0.9,0.8-0.5,3,0,4c0,0.1,0.8,1.3,0.9,1.3c0.1,0.3,0.1,0.7,0.2,1.1c0.1,0.7,0.3,1.6,0.6,2.4c0.3,1,0.6,1.9,0.9,2.8
	c0.4,1,0.9,2,1.5,3c0,0,0,0,0,0c-0.3-0.2-1-0.8-1.1-0.9c-0.9-0.6-3-1.1-4-0.4c-0.1,0.1-0.3,0.3-0.3,0.5c-0.1,0.2-0.1,0.4-0.1,0.6
	c0,0.2,0,0.4,0.1,0.6c0.1,0.2,0.2,0.3,0.3,0.5c0.6,0.6,1.7,0.7,2.5,0.6c0.9-0.1,2.5-1.2,2.7-1.3c0.6,0.9,1.3,1.8,2,2.7
	c0.4,0.5,0.9,1,1.3,1.5l-0.5-0.4c-0.9-0.6-3-1.1-4-0.4c-0.2,0.1-0.3,0.3-0.4,0.5s-0.1,0.4-0.1,0.6c0,0.2,0,0.4,0.1,0.6
	s0.2,0.3,0.4,0.5c0.6,0.6,1.7,0.7,2.5,0.5C114.6,222.5,115.5,222.1,116.3,221.5z"/>
<path class="st0" d="M125,205.3c0.7,0.6,2.8,1.2,2.8,1.2s0-1.5-0.1-1.6c-0.2-1.1-1.1-3-2.3-3.2c-0.2,0-0.4,0-0.6,0s-0.4,0.2-0.5,0.3
	c-0.2,0.1-0.3,0.3-0.4,0.5c-0.1,0.2-0.1,0.4-0.1,0.6C123.8,204,124.4,204.8,125,205.3z"/>
<path class="st0" d="M110.1,211.7c0,0-0.8-1.2-0.9-1.3c-0.7-0.8-2.6-1.9-3.7-1.4c-0.2,0.1-0.3,0.2-0.5,0.4c-0.1,0.2-0.2,0.3-0.3,0.5
	c-0.1,0.2-0.1,0.4,0,0.6c0,0.2,0.1,0.4,0.2,0.6c0.4,0.7,1.4,1.1,2.2,1.2C108.1,212.4,110.1,211.7,110.1,211.7z"/>
<path class="st0" d="M124,211.4c0.8,0.4,2.8,0.4,3,0.4c0,1.1,0.1,2.3,0.2,3.4c0.1,0.7,0.2,1.3,0.3,2c-0.1-0.3-0.2-0.6-0.2-0.6
	c-0.4-1-1.9-2.6-3.1-2.5c-0.2,0-0.4,0.1-0.6,0.2c-0.2,0.1-0.3,0.2-0.4,0.4c-0.1,0.2-0.2,0.4-0.2,0.6c0,0.2,0,0.4,0,0.6
	c0.2,0.8,1,1.5,1.8,1.8c0.9,0.3,1.9,0.4,2.9,0.4c0,0.2,0.1,0.5,0.1,0.7c0.2,1.2,0.4,2.4,0.6,3.6c0,0.2,0,0.4,0.1,0.5l0.4-1
	c-0.2-1.1-0.4-2.1-0.6-3.2c-0.1-0.4-0.1-0.7-0.2-1.1c0.8,0,1.5,0,2.3-0.1l1-2.9l0.8-0.7c-0.1-0.1-0.2-0.1-0.3-0.1
	c-1.2-0.2-2.7,1.3-3.2,2.3c0,0.1-0.5,1.1-0.6,1.4c-0.2-0.8-0.3-1.6-0.4-2.4c-0.2-1.1-0.2-2.2-0.3-3.3c0.1,0,2.1,0.1,3-0.2
	c0.4-0.1,0.8-0.4,1.1-0.6c0.3-0.3,0.6-0.7,0.7-1.1c0.1-0.2,0.1-0.4,0.1-0.6c0-0.2-0.1-0.4-0.2-0.6c-0.1-0.2-0.2-0.3-0.4-0.4
	c-0.2-0.1-0.3-0.2-0.5-0.2c-1.2-0.2-2.7,1.3-3.2,2.3c0,0.1-0.5,1.2-0.6,1.4c0-0.1,0-0.1,0-0.2c0-1.1,0.1-2.2,0.3-3.3
	c0.1-0.6,0.2-1.1,0.4-1.7c0.4,0.1,2.1,0.3,2.9,0.1c0.8-0.2,1.7-0.7,2-1.5c0.1-0.2,0.1-0.4,0.1-0.6c0-0.2,0-0.4-0.1-0.6
	c-0.1-0.2-0.2-0.3-0.3-0.5c-0.1-0.1-0.3-0.2-0.5-0.3c-1.1-0.3-2.8,1-3.5,1.9c0,0-0.3,0.6-0.5,1c0.1-0.2,0.1-0.5,0.2-0.7
	c0.3-0.9,0.6-1.7,0.8-2.4c0.2-0.4,0.3-0.7,0.4-1.1c0.4-0.1,2-0.7,2.6-1.2c0.6-0.6,1.2-1.4,1.1-2.3c0-0.2-0.1-0.4-0.2-0.6
	c-0.1-0.2-0.2-0.3-0.4-0.5c-0.2-0.1-0.3-0.2-0.5-0.3c-0.2-0.1-0.4-0.1-0.6,0c-1.2,0.2-2.1,2.2-2.2,3.3c0,0.1,0,1.6,0,1.6
	c-0.1,0.3-0.3,0.7-0.4,1c-0.3,0.7-0.6,1.5-0.9,2.3c-0.3,0.9-0.6,1.9-0.8,2.9c-0.2,1.1-0.4,2.2-0.4,3.3v0.1c-0.1-0.3-0.4-1.3-0.4-1.4
	c-0.4-1-1.9-2.6-3.1-2.5c-0.2,0-0.4,0.1-0.6,0.2c-0.2,0.1-0.3,0.2-0.4,0.4c-0.1,0.2-0.2,0.4-0.2,0.6c0,0.2,0,0.4,0,0.6
	C122.4,210.4,123.2,211.1,124,211.4z"/>
<path class="st3" d="M209.8,162l-2.3-2.8l2-1.6l1.4,1.7l-0.5,1.1l0.4,0.9l-0.8,0.6"/>
<path class="st0" d="M209.8,162.5c-0.1,0-0.3-0.1-0.4-0.2l-2.3-2.8c-0.1-0.1-0.1-0.2-0.1-0.4c0-0.1,0.1-0.3,0.2-0.3l2-1.6
	c0.2-0.2,0.5-0.1,0.7,0.1l1.4,1.7c0.1,0.1,0.1,0.3,0.1,0.5l-0.4,0.9l0.3,0.7c0.1,0.2,0,0.5-0.2,0.6l-0.8,0.6c0,0-0.1,0.1-0.1,0.1
	c0,0-0.1,0.1-0.1,0.1C210,162.4,209.9,162.5,209.8,162.5z M208.2,159.2l1.6,2l0.3-0.2l-0.2-0.5c-0.1-0.1-0.1-0.3,0-0.4l0.3-0.8
	l-0.9-1.1L208.2,159.2z"/>
<g>
	<path d="M228.1,166.8c0,0-1.5-1.4-2.1-1.3c-0.6,0.1-8.2,1.4-8.2,1.4l-7-5.7l-1.1,0.8l6.7,8.4l7.2-0.5l-1.6,7.9l-6.6,5l10.8,6.4
		l2.2-6.8l8.6-8.4l-3.3-4.2L228.1,166.8z"/>
	<path class="st0" d="M226.3,189.7c-0.1,0-0.2,0-0.3-0.1l-10.8-6.4c-0.1-0.1-0.2-0.2-0.2-0.4c0-0.2,0.1-0.3,0.2-0.4l6.4-4.9l1.4-7.1
		l-6.6,0.4c-0.2,0-0.3-0.1-0.4-0.2l-6.7-8.4c-0.1-0.1-0.1-0.2-0.1-0.4c0-0.1,0.1-0.3,0.2-0.3l1.1-0.8c0.2-0.1,0.4-0.1,0.6,0l6.8,5.5
		c1.3-0.2,7.4-1.2,7.9-1.3c0.7-0.1,1.8,0.8,2.5,1.4l5.6,2.9c0.1,0,0.1,0.1,0.2,0.1l3.3,4.2c0.2,0.2,0.1,0.5,0,0.7l-8.5,8.3l-2.1,6.7
		c0,0.1-0.2,0.3-0.3,0.3C226.4,189.7,226.4,189.7,226.3,189.7z M216.4,182.8l9.6,5.7l2-6.2c0-0.1,0.1-0.1,0.1-0.2l8.2-8.1l-3-3.7
		l-5.5-2.9c0,0-0.1,0-0.1-0.1c-0.7-0.6-1.5-1.2-1.7-1.2c-0.6,0.1-8.1,1.4-8.1,1.4c-0.1,0-0.3,0-0.4-0.1l-6.7-5.4l-0.3,0.2l6.2,7.7
		l7-0.4c0.2,0,0.3,0.1,0.4,0.2c0.1,0.1,0.1,0.3,0.1,0.4l-1.6,7.9c0,0.1-0.1,0.2-0.2,0.3L216.4,182.8z"/>
</g>
<g>
	<path class="st3" d="M230.3,165l-1.2,2.6l-0.4-0.4l-0.9,6.2l5.9-3.6l-0.6-0.9l0.1-1.9L230.3,165z"/>
	<path class="st0" d="M227.8,173.9c-0.1,0-0.2,0-0.3-0.1c-0.2-0.1-0.2-0.3-0.2-0.5l0.9-6.2c0-0.2,0.2-0.3,0.3-0.4
		c0.2-0.1,0.3,0,0.5,0.1l0.9-2c0.1-0.1,0.2-0.2,0.3-0.3c0.1,0,0.3,0,0.4,0.1l3,1.9c0.2,0.1,0.2,0.3,0.2,0.5l-0.1,1.8l0.5,0.8
		c0.1,0.1,0.1,0.3,0.1,0.4c0,0.1-0.1,0.2-0.2,0.3l-5.9,3.6C228,173.8,227.9,173.9,227.8,173.9z M229,168.1l-0.6,4.3l4.6-2.8
		l-0.3-0.5c-0.1-0.1-0.1-0.2-0.1-0.3l0.1-1.6l-2.2-1.4l-1,2c-0.1,0.1-0.2,0.2-0.4,0.3C229.1,168.1,229.1,168.1,229,168.1z"/>
</g>
<g>
	<path class="st3" d="M227.8,173.4l3.5-2.1l-2.9-2L227.8,173.4z"/>
	<path class="st0" d="M227.8,173.9c-0.1,0-0.2,0-0.3-0.1c-0.2-0.1-0.2-0.3-0.2-0.5l0.6-4.1c0-0.2,0.1-0.3,0.3-0.4
		c0.2-0.1,0.3-0.1,0.5,0l2.9,2c0.1,0.1,0.2,0.3,0.2,0.4c0,0.2-0.1,0.3-0.2,0.4l-3.5,2.1C228,173.8,227.9,173.9,227.8,173.9z
		 M228.7,170.1l-0.3,2.3l1.9-1.2L228.7,170.1z"/>
</g>
<g>
	<path class="st0" d="M237.2,158.9c0,0,2.6-3.1,5.3-1.1c2.7,1.9,1.9,3.8,3.8,2.8c1.9-1,5.5-3.7,7.6-0.3c2.2,3.4,0.5,6.9-0.9,7.7
		c-1.4,0.8-1-0.7-1-1.5s-2.2-1.7-2.7-0.2c-0.5,1.5-3.1,3.9-6.4,3.7c-3.3-0.2-3.9-4.3-3.8-6.6c0-0.7-0.2-1.4-0.5-2
		c-0.4-0.6-0.9-1.1-1.5-1.5L237.2,158.9z"/>
	<path class="st0" d="M243.4,170.4c-0.1,0-0.3,0-0.4,0c-3.3-0.2-4.4-4-4.3-7.1c0-0.6-0.2-1.2-0.5-1.8c-0.3-0.5-0.8-1-1.3-1.3
		c-0.2-0.1-0.2-0.3-0.2-0.4l0-0.9c0-0.1,0-0.2,0.1-0.3c1-1.2,3.6-3,6-1.2c1.2,0.9,1.8,1.8,2.2,2.4c0.5,0.7,0.5,0.7,1.1,0.4
		c0.2-0.1,0.4-0.2,0.7-0.4c1.9-1.1,5.4-3.2,7.6,0.2c1,1.6,1.4,3.5,0.9,5.2c-0.3,1.4-1.1,2.6-2,3.1c-0.2,0.1-0.8,0.5-1.3,0.2
		c-0.5-0.3-0.5-1.1-0.4-1.7c0-0.1,0-0.2,0-0.3c0-0.1-0.5-0.5-1-0.5c0,0,0,0,0,0c-0.5,0-0.6,0.3-0.7,0.5
		C249.3,168.2,246.6,170.4,243.4,170.4z M237.7,159.5c0.6,0.4,1.1,0.9,1.4,1.5c0.4,0.7,0.6,1.5,0.6,2.3c0,0.6-0.1,5.9,3.4,6.1
		c3.1,0.2,5.4-2,5.9-3.3c0.3-0.9,1-1.3,2-1.1c0.8,0.1,1.7,0.7,1.7,1.5c0,0.1,0,0.3,0,0.4c0,0.2-0.1,0.6,0,0.8c0.1,0,0.1-0.1,0.3-0.1
		c0.5-0.3,1.2-1.2,1.5-2.5c0.3-1.1,0.3-2.7-0.8-4.5c-1.5-2.4-3.8-1.3-6.3,0.1c-0.2,0.1-0.5,0.3-0.7,0.4c-1.5,0.8-2,0.1-2.5-0.7
		c-0.4-0.6-0.8-1.3-1.9-2.1c-2-1.4-4,0.4-4.5,0.9L237.7,159.5z"/>
</g>
<g>
	<path class="st3" d="M230.9,158.3c0,0-1.6,3.7-1.3,5.8c0.3,2.2,0.2,3.8,1.3,4.2c1.1,0.4,4.7-1.8,5.5-3.2c0.8-1.5,2-3.6,1.6-5.6
		S233.8,154.6,230.9,158.3z"/>
	<path class="st0" d="M231.1,168.9c-0.2,0-0.3,0-0.5-0.1c-1.1-0.4-1.2-1.7-1.4-3.1c0-0.5-0.1-1-0.2-1.5c-0.4-2.3,1.3-5.9,1.3-6.1
		c0,0,0-0.1,0.1-0.1c1.8-2.2,3.7-2.1,4.7-1.8c1.8,0.5,3.1,2.1,3.3,3.3c0.3,2.2-0.9,4.4-1.7,5.9C236.1,166.6,232.8,168.9,231.1,168.9
		z M231.3,158.5c-0.2,0.5-1.5,3.6-1.2,5.5c0.1,0.5,0.1,1.1,0.2,1.5c0.1,1.3,0.2,2.1,0.8,2.3c0.8,0.3,4.2-1.7,4.9-3
		c0.7-1.3,1.9-3.4,1.6-5.3c-0.1-0.9-1.2-2.1-2.6-2.5C234,156.9,232.6,156.9,231.3,158.5z"/>
</g>
<path class="st0" d="M231.5,162.1c-0.1,0.3-0.3,0.5-0.4,0.4c-0.1,0-0.2-0.3-0.1-0.6c0.1-0.3,0.3-0.5,0.4-0.4
	C231.5,161.6,231.6,161.8,231.5,162.1z"/>
<path class="st0" d="M234.1,163.2c-0.1,0.3-0.3,0.5-0.4,0.4c-0.1,0-0.2-0.3-0.1-0.6c0.1-0.3,0.3-0.5,0.4-0.4
	C234.1,162.7,234.2,162.9,234.1,163.2z"/>
<path class="st0" d="M232.1,164.9c0,0-0.1,0-0.1,0c-0.2-0.1-1-0.3-1.1-1c-0.1-0.6,0.4-0.8,0.6-0.9c0.1-0.1,0.2-0.1,0.2-0.1
	c0-0.1,0-0.1,0.1-0.1c-0.1-0.2-0.1-0.4,0.1-0.5c0.2-0.2,0.5-0.3,0.7-0.1c0.1,0.1,0.5,0.4,0.1,1.2c-0.1,0.2-0.3,0.4-0.4,0.5
	c0.1,0,0.1,0,0.2,0.1c0.3,0.1,0.4,0.3,0.4,0.6C232.5,164.7,232.3,164.9,232.1,164.9z M231.9,163L231.9,163L231.9,163z M231.9,163
	C231.9,163,231.9,163,231.9,163S231.9,163,231.9,163z"/>
<path class="st0" d="M232.3,166.2c-0.9,0-1.7-0.7-1.8-0.8c-0.2-0.2-0.2-0.5,0-0.7c0.2-0.2,0.5-0.2,0.7,0c0.2,0.2,0.8,0.6,1.3,0.5
	c0.3-0.1,0.5,0.1,0.6,0.4s-0.1,0.5-0.4,0.6C232.6,166.2,232.4,166.2,232.3,166.2z"/>
<path class="st0" d="M235,162.8c0,0-0.1,0-0.1,0l-1.7-0.4c-0.3-0.1-0.4-0.3-0.4-0.6s0.3-0.4,0.6-0.4l1.7,0.4
	c0.3,0.1,0.4,0.3,0.4,0.6C235.4,162.6,235.2,162.8,235,162.8z"/>
<path class="st0" d="M231.9,161.7c-0.1,0-0.2,0-0.3-0.1l-0.8-0.7c-0.2-0.2-0.2-0.5,0-0.7s0.5-0.2,0.7,0l0.8,0.7
	c0.2,0.2,0.2,0.5,0,0.7C232.2,161.7,232.1,161.7,231.9,161.7z"/>
<g>
	<path class="st0" d="M230.9,158.3c0,0-0.2,0.6-0.5,1.3c1-0.5,2.6-1.1,4.1-0.1c1.5,0.9,2.3,3.1,2.6,4.4c0.6-1.3,1.2-2.8,1-4.3
		C237.7,157.5,233.8,154.6,230.9,158.3z"/>
	<path class="st0" d="M237,164.4C237,164.4,237,164.3,237,164.4c-0.3,0-0.4-0.2-0.5-0.4c-0.2-0.9-0.9-3.2-2.3-4.1
		c-1.3-0.8-2.7-0.3-3.6,0.1c-0.2,0.1-0.4,0.1-0.6-0.1c-0.2-0.1-0.2-0.4-0.1-0.5c0.3-0.8,0.5-1.4,0.5-1.4c0,0,0-0.1,0.1-0.1
		c1.8-2.2,3.7-2.1,4.7-1.8c1.8,0.5,3.1,2.1,3.3,3.3c0.3,1.8-0.5,3.5-1,4.6C237.4,164.2,237.2,164.4,237,164.4z M232.7,158.5
		c0.7,0,1.4,0.2,2,0.6c1.2,0.8,2,2.2,2.4,3.3c0.3-0.9,0.5-1.9,0.4-2.8c-0.1-0.9-1.2-2.1-2.6-2.5c-0.9-0.2-2.3-0.2-3.6,1.4
		c0,0,0,0.1-0.1,0.2C231.7,158.6,232.2,158.5,232.7,158.5z"/>
</g>
<path class="st3" d="M236.6,163.8c0,0,1.2-1.1,1.1-0.1c0,1-1.4,1.6-1.7,1.6c-0.3,0-0.3-0.3-0.3-0.3"/>
<path class="st0" d="M236,165.8c-0.2,0-0.3-0.1-0.5-0.2c-0.3-0.2-0.3-0.6-0.3-0.7c0-0.3,0.3-0.5,0.5-0.5c0.2,0,0.3,0.1,0.4,0.3
	c0.3-0.1,0.7-0.4,0.9-0.7c-0.1,0-0.1,0.1-0.2,0.2c-0.2,0.2-0.5,0.2-0.7,0c-0.2-0.2-0.2-0.5,0-0.7c0.3-0.3,1-0.8,1.5-0.6
	c0.2,0.1,0.5,0.3,0.4,0.9c-0.1,1.3-1.7,2-2.1,2.1C236.1,165.8,236.1,165.8,236,165.8z"/>
<g>
	<path d="M237,174l-1.8,12.9c0,0.3-0.2,0.5-0.4,0.7c-0.2,0.2-0.5,0.3-0.8,0.3h-0.4c-0.3,0-0.6-0.1-0.8-0.3s-0.4-0.5-0.4-0.8
		l-0.7-7.8L237,174z"/>
	<path class="st0" d="M233.6,188.4c-0.4,0-0.8-0.1-1.1-0.4c-0.3-0.3-0.5-0.7-0.6-1.1l-0.7-7.8c0-0.2,0-0.3,0.2-0.4l5.3-5.1
		c0.2-0.1,0.4-0.2,0.6-0.1c0.2,0.1,0.3,0.3,0.3,0.5l-1.8,12.9c-0.1,0.4-0.3,0.8-0.5,1s-0.7,0.4-1.1,0.4L233.6,188.4
		C233.7,188.4,233.7,188.4,233.6,188.4z M232.3,179.3l0.7,7.5c0,0.2,0.1,0.3,0.2,0.4c0.1,0.1,0.3,0.2,0.5,0.2h0.4
		c0.1,0,0.3-0.1,0.4-0.2c0.1-0.1,0.2-0.3,0.2-0.4l1.6-11.5L232.3,179.3z"/>
</g>
<path d="M233.8,185.1l-5.8-5.1l-1.3,1.1l5.6,6.5c0.1,0.1,0.3,0.2,0.4,0.3c0.2,0.1,0.3,0.1,0.5,0.1h0.5c0.2,0,0.3-0.1,0.5-0.1
	c0.2-0.1,0.3-0.2,0.4-0.3c0.1-0.1,0.2-0.3,0.2-0.5c0-0.2,0-0.4,0-0.5"/>
<path class="st0" d="M233.1,188.4c-0.2,0-0.4,0-0.6-0.1c-0.2-0.1-0.5-0.2-0.6-0.4l-5.6-6.5c-0.1-0.1-0.1-0.2-0.1-0.4
	s0.1-0.3,0.2-0.3l1.3-1.1c0.2-0.2,0.5-0.2,0.7,0l5.8,5.1c0.2,0.2,0.2,0.5,0,0.7s-0.5,0.2-0.7,0l-5.5-4.8l-0.6,0.5l5.2,6.1
	c0.1,0.1,0.1,0.1,0.2,0.2c0.1,0,0.2,0.1,0.3,0l0.5,0c0.1,0,0.2,0,0.3-0.1c0.1,0,0.2-0.1,0.2-0.2c0.1-0.1,0.1-0.2,0.1-0.3
	c0-0.1,0-0.2,0-0.3c-0.1-0.3,0.1-0.5,0.4-0.6c0.3-0.1,0.5,0.1,0.6,0.4c0.1,0.2,0.1,0.5,0,0.7c-0.1,0.3-0.2,0.5-0.3,0.7
	c-0.1,0.2-0.3,0.4-0.6,0.5c-0.2,0.1-0.5,0.2-0.7,0.2h-0.5C233.2,188.4,233.1,188.4,233.1,188.4z"/>
<g>
	<path class="st3" d="M227.9,180l-1.4-2.2l-3.1-0.3l0,1.8l1.5,1.2l0.9,0.1l0.7,0.4L227.9,180z"/>
	<path class="st0" d="M226.6,181.6c-0.1,0-0.2,0-0.3-0.1l-0.6-0.4l-0.8-0.1c-0.1,0-0.2-0.1-0.3-0.1l-1.5-1.2
		c-0.1-0.1-0.2-0.2-0.2-0.4l0-1.8c0-0.1,0.1-0.3,0.2-0.4c0.1-0.1,0.3-0.1,0.4-0.1l3.1,0.3c0.2,0,0.3,0.1,0.4,0.2l1.4,2.2
		c0.1,0.2,0.1,0.5-0.1,0.6l-1.3,1.1C226.9,181.5,226.8,181.6,226.6,181.6z M225.2,180l0.8,0.1c0.1,0,0.1,0,0.2,0.1l0.4,0.2l0.7-0.6
		l-1-1.6L224,178l0,1L225.2,180z"/>
</g>
<g>
	<path class="st3" d="M211.5,186.8c0,0-6.4,8.3-6.1,9.7s9.7,16,9.7,16l1.3-0.9l-5.1-16.1l10.3-4.1L211.5,186.8z"/>
	<path class="st0" d="M215.2,213c0,0-0.1,0-0.1,0c-0.1,0-0.2-0.1-0.3-0.2c-1-1.5-9.4-14.7-9.8-16.1c-0.4-1.5,4.2-7.6,6.1-10.1
		c0.1-0.2,0.4-0.2,0.6-0.1l10.2,4.7c0.2,0.1,0.3,0.3,0.3,0.5c0,0.2-0.1,0.4-0.3,0.5l-9.9,3.9l5,15.6c0.1,0.2,0,0.4-0.2,0.6l-1.3,0.9
		C215.4,213,215.3,213,215.2,213z M211.7,187.4c-2.9,3.8-5.8,8.2-5.7,9c0.2,0.9,5.8,9.8,9.4,15.4l0.6-0.4l-5-15.7
		c-0.1-0.3,0-0.5,0.3-0.6l9.3-3.7L211.7,187.4z"/>
</g>
<g>
	<path class="st0" d="M216.7,189.9l0.8,3.3l3.4-1.3L216.7,189.9z"/>
	<path class="st0" d="M217.1,193.9L216,189l6.2,3L217.1,193.9z M217.4,190.8l0.4,1.8l1.8-0.7L217.4,190.8z"/>
</g>
<g>
	<path class="st3" d="M215.2,212.5l-1.7,2.8c0,0-1.4,2-1,2.2c0.9,0.3,3.1-1.2,3.7-1.6c0.6-0.5,1.3-0.8,1.7-1.1
		c0.4-0.3,1.3-0.5,0.1-1.6c-0.4-0.4-1.6-1.6-1.6-1.6L215.2,212.5z"/>
	<path class="st0" d="M212.8,218c-0.1,0-0.3,0-0.4-0.1c-0.1,0-0.3-0.2-0.4-0.4c-0.1-0.2-0.2-0.6,1.1-2.5l1.7-2.8
		c0-0.1,0.1-0.1,0.2-0.2l1.3-0.9c0.2-0.1,0.5-0.1,0.6,0.1c0,0,1.2,1.2,1.6,1.6c0.6,0.5,0.8,0.9,0.7,1.4c-0.1,0.5-0.5,0.7-0.7,0.9
		c-0.1,0-0.1,0.1-0.2,0.1c-0.2,0.1-0.5,0.3-0.7,0.4c-0.3,0.2-0.7,0.4-1,0.6C215.8,216.8,213.9,218,212.8,218z M212.7,217
		C212.7,217,212.7,217,212.7,217C212.7,217,212.7,217,212.7,217z M215.5,212.8l-1.6,2.7c-0.3,0.5-0.6,1-0.8,1.4
		c0.7-0.2,1.8-0.8,2.9-1.5c0.4-0.3,0.8-0.5,1.1-0.7c0.2-0.1,0.5-0.3,0.7-0.4c0.1-0.1,0.2-0.1,0.3-0.2c0.1,0,0.2-0.1,0.2-0.2
		c0,0-0.1-0.2-0.4-0.5c-0.3-0.3-1-0.9-1.4-1.3L215.5,212.8z"/>
</g>
<path class="st0" d="M225.8,184.1c-2.9-1.2-5.8-2.1-8.8-2.9c-5.2-1.4-9-2.5-9-1.2c0.1,1.3,9.5,22.2,9.5,22.2l1.6-0.5l-2.5-11.5
	c0,0,4,2.8,6.9,1.4c2.9-1.4,4-5.1,3.8-6.4"/>
<path class="st0" d="M217.5,202.7c-0.2,0-0.4-0.1-0.5-0.3c-1.6-3.5-9.5-21-9.6-22.4c0-0.3,0.1-0.6,0.3-0.8c0.9-0.7,3.5-0.1,8.7,1.3
	l0.6,0.2c3,0.8,6,1.8,8.9,2.9c0.3,0.1,0.4,0.4,0.3,0.6c-0.1,0.3-0.4,0.4-0.6,0.3c-2.9-1.1-5.8-2.1-8.8-2.9l-0.6-0.2
	c-3.4-0.9-7.2-2-7.8-1.5c0.1,1,5.6,13.3,9.3,21.6l0.8-0.2l-2.4-11.1c0-0.2,0-0.4,0.2-0.5c0.2-0.1,0.4-0.1,0.6,0c0,0,3.8,2.6,6.4,1.4
	c2.7-1.3,3.7-4.8,3.6-5.8c0-0.3,0.1-0.5,0.4-0.6c0.3,0,0.5,0.1,0.6,0.4c0.2,1.4-0.9,5.4-4.1,6.9c-2.2,1.1-4.9-0.1-6.4-0.8l2.2,10.4
	c0.1,0.3-0.1,0.5-0.3,0.6l-1.6,0.5C217.6,202.7,217.5,202.7,217.5,202.7z"/>
<g>
	<path class="st3" d="M215.8,180.9c-4.6-1.3-7.9-2.1-7.9-0.9c0.1,1.3,9.5,22.2,9.5,22.2l1.6-0.5l-2.5-11.5
		C217.5,188.1,216.6,183.8,215.8,180.9z"/>
	<path class="st0" d="M217.5,202.7c-0.2,0-0.4-0.1-0.5-0.3c-1.6-3.5-9.5-21-9.6-22.4c0-0.3,0.1-0.6,0.3-0.8c0.8-0.7,3-0.2,8.1,1.2
		c0.2,0,0.3,0.2,0.4,0.4c0.8,3.1,1.6,7.2,0.9,9.4l2.4,11.4c0.1,0.3-0.1,0.5-0.3,0.6l-1.6,0.5C217.6,202.7,217.5,202.7,217.5,202.7z
		 M208.9,179.9c-0.2,0-0.4,0-0.5,0.1c0.1,1,5.6,13.3,9.3,21.6l0.8-0.2l-2.4-11.1c0-0.1,0-0.2,0-0.3c0.6-1.4,0.3-4.5-0.8-8.6
		C213.2,180.7,210.2,179.9,208.9,179.9z"/>
</g>
<path class="st0" d="M216.6,190.6c-0.2,0-0.3-0.1-0.4-0.2l-4.1-5.9c-0.2-0.2-0.1-0.5,0.1-0.7c0.2-0.2,0.5-0.1,0.7,0.1l4.1,5.9
	c0.2,0.2,0.1,0.5-0.1,0.7C216.8,190.6,216.7,190.6,216.6,190.6z"/>
<g>
	<path class="st3" d="M217.5,202.2L216,205c0,0-3.1,3-2.4,3.1s6.4-2.3,6.9-2.9c0.4-0.6-1.3-3.6-1.3-3.6L217.5,202.2z"/>
	<path class="st0" d="M213.6,208.6c-0.1,0-0.1,0-0.1,0c-0.2-0.1-0.4-0.2-0.5-0.4c-0.1-0.2-0.2-0.8,2.6-3.5l1.5-2.8
		c0.1-0.1,0.2-0.2,0.3-0.2l1.6-0.5c0.2-0.1,0.5,0,0.6,0.2c1.3,2.2,1.7,3.6,1.3,4.1C220.4,206.2,214.9,208.6,213.6,208.6z
		 M217.8,202.6l-1.4,2.7c0,0-0.1,0.1-0.1,0.1c-0.7,0.7-1.5,1.5-2,2.1c1.6-0.5,5.3-2.1,5.7-2.6c0-0.2-0.5-1.5-1.2-2.7L217.8,202.6z
		 M216,205L216,205L216,205z"/>
</g>
<rect x="217.1" y="158" transform="matrix(0.7658 -0.6431 0.6431 0.7658 -57.7771 179.5293)" class="st0" width="1" height="22.2"/>
<rect x="187" y="100.3" transform="matrix(0.7673 -0.6413 0.6413 0.7673 -41.6759 151.1629)" class="st0" width="1" height="65.3"/>
<rect x="225.4" y="180.6" class="st0" width="1" height="82.6"/>
<path class="st0" d="M78.4,262.7h-1v-81.1l0.7,0.4c0.1,0,7.8,3.7,10.8-1.4c3.1-5.4,0.2-22.7,0.2-22.9l1-0.2c0.1,0.7,3,17.9-0.3,23.5
	c-2.9,4.9-9.3,2.9-11.4,2.1V262.7z"/>
<g>
	<path class="st3" d="M71.5,164.3c0,0,2.7-0.3,2.9,0.3c0.1,0.5,0.1,1,0,1.5c0,0,1.5,1.6,1.5,2.8c0,1.1-1.6,1.6-1.6,1.6l-0.3,2.7
		l-4.1,0.2l-0.5-3.2C69.4,170.2,67.8,164.2,71.5,164.3z"/>
	<path class="st0" d="M69.9,173.9c-0.2,0-0.5-0.2-0.5-0.4l-0.5-3.2c0-0.1-1-3.8,0.5-5.6c0.5-0.6,1.2-0.9,2.2-0.9
		c2-0.2,3.1,0,3.4,0.7c0.1,0.5,0.1,1,0.1,1.5c0.4,0.5,1.5,1.8,1.5,2.9c0,1.1-1.1,1.8-1.7,2l-0.3,2.4c0,0.2-0.2,0.4-0.5,0.4
		L69.9,173.9C69.9,173.9,69.9,173.9,69.9,173.9z M71.4,164.8c-0.6,0-1,0.2-1.3,0.6c-0.9,1.2-0.5,3.8-0.3,4.8l0.5,2.8l3.2-0.2
		l0.3-2.2c0-0.2,0.2-0.4,0.3-0.4c0.3-0.1,1.3-0.6,1.3-1.2c0-0.7-0.9-1.8-1.4-2.4c-0.1-0.1-0.2-0.3-0.1-0.5c0.1-0.4,0.1-0.8,0-1.2
		c-0.3-0.1-1.4-0.2-2.3,0C71.6,164.8,71.5,164.8,71.4,164.8C71.5,164.8,71.5,164.8,71.4,164.8z"/>
</g>
<g>
	<path class="st0" d="M72.4,168.7l-1.1-1.6c0.4-0.6,0.6-1.3,0.6-2c0-1.1-0.1-3.2-2.5-3.2c-2.4,0-3.9,1.8-4.4,5.8s1.8,5.9,5.2,5.2
		C73.6,172.1,72.4,168.7,72.4,168.7z"/>
	<path class="st0" d="M68.9,173.5c-1.2,0-2.3-0.4-3.1-1.1c-0.8-0.7-1.7-2.2-1.3-4.8c0.5-4.2,2.2-6.3,4.9-6.3c3,0,3,2.8,3,3.7
		c0,0.7-0.2,1.4-0.5,2l1,1.4c0,0,0,0.1,0.1,0.1c0,0.1,0.6,1.8-0.2,3.3c-0.5,0.8-1.2,1.3-2.4,1.6C69.8,173.5,69.3,173.5,68.9,173.5z
		 M69.4,162.3c-2.1,0-3.5,1.8-3.9,5.4c-0.2,1.8,0.1,3.2,1,4c0.8,0.8,2.1,1,3.6,0.7c0.8-0.2,1.4-0.5,1.7-1.1c0.5-0.9,0.2-2.1,0.1-2.4
		l-1.1-1.6c-0.1-0.2-0.1-0.4,0-0.5c0.3-0.5,0.5-1.2,0.5-1.8C71.3,163.4,71,162.3,69.4,162.3z"/>
</g>
<path class="st3" d="M72.3,168c0,0-1.7-0.2-1.6,1.1c0,0.3,0.1,0.6,0.3,0.8c0.2,0.2,0.4,0.4,0.7,0.5c0.3,0.1,0.6,0.1,0.8,0
	c0.3-0.1,0.5-0.3,0.7-0.5"/>
<path class="st0" d="M72,170.9c-0.2,0-0.3,0-0.5-0.1c-0.4-0.1-0.7-0.3-1-0.6c-0.3-0.3-0.4-0.7-0.4-1.1c0-0.6,0.2-1,0.4-1.2
	c0.6-0.6,1.7-0.5,1.8-0.5c0.3,0,0.5,0.3,0.4,0.6c0,0.3-0.3,0.5-0.6,0.4c-0.2,0-0.8,0-1,0.2c-0.1,0.1-0.1,0.2-0.1,0.4
	c0,0.2,0.1,0.4,0.2,0.5s0.3,0.2,0.5,0.3c0.2,0,0.4,0,0.5,0c0.2-0.1,0.3-0.2,0.4-0.3c0.2-0.2,0.5-0.3,0.7-0.1
	c0.2,0.2,0.3,0.5,0.1,0.7c-0.2,0.3-0.6,0.5-0.9,0.7C72.5,170.9,72.2,170.9,72,170.9z"/>
<g>
	<path class="st0" d="M69.8,174.4l-3.8,1.1c0,0-0.3,0.7-0.7,1.7c-0.6,1.3-2.2,4-2.2,4l-7.6,2.2l-2.4,7.8l-0.5,3.2l4.3-2.2l0.3-7.6
		l6.8-1l2.9-7.4L69.8,174.4z"/>
	<path class="st0" d="M52.6,194.8c-0.1,0-0.2,0-0.3-0.1c-0.2-0.1-0.2-0.3-0.2-0.5l0.5-3.2l2.4-7.9c0-0.2,0.2-0.3,0.3-0.3l7.4-2.1
		c0.4-0.6,1.6-2.7,2.1-3.7c0.4-0.9,0.7-1.7,0.7-1.7c0.1-0.1,0.2-0.3,0.3-0.3l3.8-1.1c0.2-0.1,0.5,0.1,0.6,0.3c0.1,0.2,0,0.5-0.2,0.6
		l-2.8,1.7l-2.9,7.2c-0.1,0.2-0.2,0.3-0.4,0.3l-6.4,1l-0.3,7.1c0,0.2-0.1,0.3-0.3,0.4l-4.3,2.2C52.7,194.8,52.6,194.8,52.6,194.8z
		 M55.9,183.7l-2.3,7.6l-0.4,2.2l3.2-1.6l0.3-7.3c0-0.2,0.2-0.4,0.4-0.5l6.5-1l2.8-7.1c0-0.1,0.1-0.1,0.1-0.2l-0.1,0
		c-0.1,0.3-0.4,0.8-0.7,1.5c-0.6,1.3-2.2,3.9-2.3,4c-0.1,0.1-0.2,0.2-0.3,0.2L55.9,183.7z"/>
</g>
<g>
	<path d="M75.8,173.3c0,0-3-1.3-5.2-1c-2.3,0.3-2,1.4-2,1.4l0.1,1.5C68.7,175.2,72.4,174.1,75.8,173.3z"/>
	<path class="st0" d="M68.7,175.7c-0.1,0-0.2,0-0.3-0.1c-0.1-0.1-0.2-0.2-0.2-0.4l-0.1-1.5c0,0-0.1-0.5,0.3-0.9
		c0.4-0.5,1.1-0.9,2.2-1c2.4-0.3,5.4,1,5.5,1.1c0.2,0.1,0.3,0.3,0.3,0.5s-0.2,0.4-0.4,0.4c-3.3,0.8-7.1,1.9-7.1,1.9
		C68.8,175.7,68.7,175.7,68.7,175.7z M71.3,172.7c-0.2,0-0.4,0-0.7,0c-1.3,0.2-1.6,0.7-1.6,0.9l0.1,0.9c1-0.3,2.9-0.8,5-1.4
		C73.3,173,72.3,172.7,71.3,172.7z"/>
</g>
<g>
	<path d="M65.7,180.8l2.1,9.8c0,0.1,0.1,0.2,0.1,0.3c0.1,0.1,0.2,0.2,0.3,0.2c0.1,0.1,0.2,0.1,0.3,0.1c0.1,0,0.2,0,0.3-0.1l4.8-2.4
		L65.7,180.8z"/>
	<path class="st0" d="M68.6,191.7C68.6,191.7,68.5,191.7,68.6,191.7c-0.2,0-0.4-0.1-0.6-0.1c-0.2-0.1-0.3-0.2-0.4-0.4
		c-0.1-0.2-0.2-0.3-0.2-0.5l-2.1-9.8c0-0.2,0.1-0.4,0.2-0.5c0.2-0.1,0.4-0.1,0.6,0.1l8,8c0.1,0.1,0.2,0.3,0.1,0.4s-0.1,0.3-0.3,0.4
		l-4.8,2.4C68.9,191.7,68.8,191.7,68.6,191.7z M66.5,182.3l1.8,8.2c0,0.1,0,0.1,0,0.1c0,0,0.1,0.1,0.1,0.1c0,0,0.1,0,0.1,0
		c0,0,0.1,0,0.1,0l4.2-2.1L66.5,182.3z"/>
</g>
<path class="st0" d="M69.9,188.8c-0.1,0-0.2,0-0.2-0.1c-0.2-0.1-0.3-0.4-0.2-0.7l1.1-2.3c0.1-0.2,0.4-0.3,0.7-0.2
	c0.2,0.1,0.3,0.4,0.2,0.7l-1.1,2.3C70.3,188.7,70.1,188.8,69.9,188.8z"/>
<g>
	<path class="st0" d="M81,195.9l6.2,10.2L86.3,220l3-0.1l3-16.5l-4.3-11.6L81,195.9z"/>
	<path class="st0" d="M86.3,220.5c-0.1,0-0.3-0.1-0.4-0.2c-0.1-0.1-0.1-0.2-0.1-0.4l0.8-13.7l-6.1-10.1c-0.1-0.1-0.1-0.3-0.1-0.4
		c0-0.1,0.1-0.2,0.2-0.3l7-4.1c0.1-0.1,0.3-0.1,0.4,0c0.1,0,0.2,0.2,0.3,0.3l4.3,11.6c0,0.1,0,0.2,0,0.3l-3,16.5
		c0,0.2-0.2,0.4-0.5,0.4L86.3,220.5C86.3,220.5,86.3,220.5,86.3,220.5z M81.6,196.1l5.9,9.8c0.1,0.1,0.1,0.2,0.1,0.3l-0.8,13.3
		l2-0.1l2.9-16l-4.1-10.9L81.6,196.1z"/>
</g>
<g>
	<path d="M68.7,175.2c0,0-3,5.1-3,5.5c0,0.4,11.6,11.6,11.6,11.6l8.8-5.8l-5.5-9.6l8-7.8l0.6-10.6l-1.4-0.1l-2.6,7.7l-8.5,6.7
		L68.7,175.2z"/>
	<path class="st0" d="M77.3,192.8c-0.1,0-0.3,0-0.3-0.1c-11.7-11.3-11.7-11.7-11.7-11.9c0-0.1,0-0.5,3-5.8c0.1-0.1,0.2-0.2,0.3-0.2
		l7.9-2.4l8.3-6.5l2.5-7.5c0.1-0.2,0.3-0.4,0.5-0.3l1.4,0.1c0.3,0,0.5,0.3,0.5,0.5L89,169.1c0,0.1-0.1,0.2-0.1,0.3l-7.7,7.6l5.3,9.3
		c0.1,0.2,0.1,0.5-0.2,0.7l-8.8,5.8C77.5,192.8,77.4,192.8,77.3,192.8z M66.2,180.7c0.9,1.1,7.1,7.1,11.1,11l8.1-5.4l-5.3-9.2
		c-0.1-0.2-0.1-0.4,0.1-0.6l7.8-7.7l0.6-9.9l-0.6,0l-2.4,7.3c0,0.1-0.1,0.2-0.2,0.2l-8.5,6.7c0,0-0.1,0.1-0.2,0.1l-7.8,2.4
		C67.8,177.7,66.5,180,66.2,180.7z M66.1,180.6L66.1,180.6z"/>
</g>
<g>
	<path class="st3" d="M87.7,158.4l0.1-2.4l2.6-1.9l0.2,0.5v1.5l0.1,1.2l-1.5,1.1L87.7,158.4z"/>
	<path class="st0" d="M89.1,159C89.1,159,89.1,159,89.1,159l-1.5-0.1c-0.3,0-0.5-0.3-0.5-0.5l0.1-2.4c0-0.1,0.1-0.3,0.2-0.4l2.6-1.9
		c0.1-0.1,0.3-0.1,0.4-0.1c0.1,0,0.3,0.1,0.3,0.3l0.2,0.5c0,0.1,0,0.1,0,0.2v1.5l0.1,1.2c0,0.2-0.1,0.3-0.2,0.4l-1.5,1.1
		C89.3,159,89.2,159,89.1,159z M88.2,157.9L89,158l1.2-0.9l-0.1-0.9l0-1.2l-1.8,1.4L88.2,157.9z"/>
</g>
<g>
	<path class="st0" d="M77.3,192.4c0,0,1.9,3.3,3.4,4.3c1.4,1,5.9-2.2,7.1-3.1c1.1-0.9,5.4-6.5,5.4-6.5l4,17l2.5-1
		c0,0-1.4-22.6-2.2-23.3c-0.7-0.6-11.8,6.6-11.8,6.6L77.3,192.4z"/>
	<path class="st0" d="M97.2,204.6c-0.1,0-0.2,0-0.2-0.1c-0.1-0.1-0.2-0.2-0.3-0.3l-3.8-16c-1.3,1.6-4,5-4.9,5.7
		c-0.1,0-5.6,4.5-7.7,3.1c-1.5-1.1-3.5-4.3-3.5-4.5c-0.1-0.2-0.1-0.5,0.1-0.7l8.4-5.9c11.4-7.4,12.1-6.8,12.4-6.5
		c0.6,0.5,1.4,8.5,2.3,23.6c0,0.2-0.1,0.4-0.3,0.5l-2.5,1C97.3,204.6,97.2,204.6,97.2,204.6z M93.2,186.6c0,0,0.1,0,0.1,0
		c0.2,0,0.3,0.2,0.4,0.4l3.9,16.5l1.6-0.7c-0.5-8-1.5-20.5-2-22.5c-1.3,0.3-6.5,3.5-11.2,6.5l-8,5.7c0.6,0.9,2,3,3,3.8
		c0.9,0.6,4.4-1.4,6.5-3.1c0.9-0.7,4.2-4.8,5.4-6.4C92.9,186.7,93,186.6,93.2,186.6z"/>
</g>
<g>
	<path class="st3" d="M99.6,203.1h3.5c0.6,0,2.2-0.9,2.3-0.2c0.1,0.7-3,2.7-4.2,3.3c-1.2,0.5-2.4,0.8-3.7,0.9l-0.3-3L99.6,203.1z"/>
	<path class="st0" d="M97.5,207.6c-0.1,0-0.2,0-0.3-0.1c-0.1-0.1-0.2-0.2-0.2-0.3l-0.3-3c0-0.2,0.1-0.4,0.3-0.5l2.5-1
		c0.1,0,0.1,0,0.2,0h3.5c0.1,0,0.5-0.1,0.7-0.2c0.6-0.2,1.2-0.4,1.7-0.2c0.2,0.1,0.3,0.3,0.4,0.6c0.2,1.4-4.4,3.8-4.5,3.8
		C100.1,207.1,98.8,207.5,97.5,207.6C97.5,207.6,97.5,207.6,97.5,207.6z M97.7,204.5l0.2,2.1c1-0.2,2.1-0.4,3.1-0.8
		c1.2-0.6,3.1-1.9,3.7-2.5c-0.2,0-0.4,0.1-0.5,0.2c-0.4,0.1-0.7,0.3-1,0.3h-3.4L97.7,204.5z"/>
</g>
<g>
	<path class="st3" d="M89.3,219.9l1.7,3.2c0,0,2.2,0.9,2.2,1.3c0,0.4-3.5,0.2-3.8,0.2c-0.3,0-3.8-3.4-3.8-3.4l0.7-1.2L89.3,219.9z"
		/>
	<path class="st0" d="M91.5,225.2c-0.5,0-1,0-1.8,0c-0.2,0-0.3,0-0.3,0c-0.2,0-0.5,0-4.1-3.5c-0.2-0.2-0.2-0.4-0.1-0.6l0.7-1.2
		c0.1-0.2,0.2-0.2,0.4-0.3l3-0.1c0.2,0,0.4,0.1,0.5,0.3l1.7,3c2.3,1,2.3,1.5,2.3,1.7c0,0.1-0.1,0.3-0.2,0.4
		C93.3,225.1,92.9,225.2,91.5,225.2z M89.5,224.1c0.1,0,0.1,0,0.2,0c1.2,0,1.9,0,2.4,0c-0.4-0.2-0.8-0.4-1.3-0.6
		c-0.1,0-0.2-0.1-0.2-0.2l-1.6-2.9l-2.4,0.1l-0.4,0.7C87.6,222.5,89.1,223.9,89.5,224.1z"/>
</g>
<rect x="78.7" y="130.7" transform="matrix(0.5898 -0.8076 0.8076 0.5898 -62.0059 140.2849)" class="st0" width="56.8" height="1"/>
<path class="st0" d="M275.1,263.8H6.8c-0.3,0-0.5-0.2-0.5-0.5s0.2-0.5,0.5-0.5h268.3c0.3,0,0.5,0.2,0.5,0.5S275.4,263.8,275.1,263.8
	z"/>
</svg>
