<?xml version="1.0" encoding="utf-8"?>
<!-- Generator: Adobe Illustrator 24.0.2, SVG Export Plug-In . SVG Version: 6.00 Build 0)  -->
<svg version="1.1" id="Слой_1" xmlns="http://www.w3.org/2000/svg" xmlns:xlink="http://www.w3.org/1999/xlink" x="0px" y="0px"
	 viewBox="0 0 253 228" style="enable-background:new 0 0 253 228;" xml:space="preserve">
<style type="text/css">
	.st0{fill:#263238;}
	.st1{fill:#FFFFFF;}
	.st2{fill:#E8E8E8;}
	.st3{fill:#D9D9D9;}
	.st4{fill:#9E9E9E;}
</style>
<path class="st0" d="M113.5,109.7c-5.2,0.3-10.3-1.9-12.2-3h-0.9l-0.9,4.8v5.2l2.2,5.7c0,0,1.7,2.2,2.2,2.2c0.4,0-6.1,13.5-6.1,13.5
	v24.4l-1.3,11.8l1.7,4.8c-1.6-0.4-2.3-0.5,7.4,2.6c9.7,3.1,14.2-6.5,15.2-11.8c0.4-5.8,1.3-17.1,1.3-15.7c0,1.4,6.1,4.1,9.1,5.2
	c7.2,2.3,22.4,7,25.2,7s6.1-1.2,7.4-1.7c4.3-3.9,1.7-14.8,1.3-16.1c-0.3-1-2.5-2.8-3.5-3.5c-1.4-0.8-2.4-1.3-5.2-2.2l-11.7-3
	l-0.9,2.2c0-0.4-0.3-0.7-1.3-1.3l-1.7-3l-1.7,2.2l-1.7,0.9v-1.3l0.9-2.6l-0.9-1.3c-0.3-0.1-1-0.5-1.3-0.9c-0.3-0.3-0.7-1-0.9-1.3
	l-0.4-3.9c1.1-2,3.3-7,4.8-10.5c1.5-3.4,1.7-10.3,1.3-13.5l-3.5-4.8C123,110.6,120,109.3,113.5,109.7z"/>
<path class="st0" d="M103.2,125.3c-0.1,0-0.2,0-0.2-0.1c-0.1,0-0.1-0.1-0.2-0.2c-1.4-1.9-3.9-7.5-4.1-10.1c-0.3-2.6,1.2-8.7,1.3-9
	c0-0.1,0.1-0.2,0.2-0.3c0.1-0.1,0.2-0.1,0.4-0.1c0.1,0,0.2,0.1,0.3,0.2c0.1,0.1,0.1,0.2,0.1,0.4c0,0.1-1.5,6.3-1.3,8.7
	c0.2,2.5,2.7,7.8,3.9,9.6c0,0.1,0.1,0.1,0.1,0.2c0,0.1,0,0.1,0,0.2c0,0.1,0,0.1-0.1,0.2c0,0.1-0.1,0.1-0.1,0.1
	C103.4,125.3,103.3,125.3,103.2,125.3z"/>
<path class="st1" d="M110.4,182.3l-3.3-0.2c3.6-1,5.8-6.8,7.2-10.7c0.3-0.7,0.5-1.5,0.8-2.1c1.2-3.2,1.3-13.3,1.3-17.2
	c-0.5-1.8-1.9-6.3-2.9-7.7c-0.2-0.3-0.3-0.6-0.4-1s-0.1-0.7,0-1.1c0.3-1.5,1.8-2.4,3.1-3.2c0.4-0.3,0.9-0.6,1.3-0.9
	c0.3-1.9,2.5-2.4,4.1-2.9c0.5-0.1,1-0.3,1.4-0.4c1.6-1.4,8.4-14.5,9.9-21.5c1.3-5.9-0.9-8-0.9-8l2-2.3c0.4,0.3,3.5,3.2,1.9,11
	c-1.3,6-8.7,22.5-11.6,23.6c-0.6,0.2-1.2,0.4-1.8,0.6c-0.6,0.1-1.3,0.4-1.9,0.6c-0.2,1.2-1.4,2-2.6,2.8c-0.6,0.3-1.2,0.7-1.7,1.2
	c1.4,2.3,3,7.9,3.2,8.6l0.1,0.4c0,1.4,0.2,14.1-1.5,18.5c-0.2,0.6-0.5,1.3-0.7,2C115.6,176.8,115.5,180.9,110.4,182.3z"/>
<path class="st1" d="M166.4,152.1c-2.4-1.2-8.6-2.4-12.3-3.2c-1.6-0.3-2.9-0.6-4-0.9c-1.7-0.4-3.5-0.2-5.1,0.6
	c-0.5,0.2-0.9,0.4-1.4,0.5c-1.9,0.5-3.2-1.4-4.1-2.7c-0.1-0.1-0.2-0.3-0.3-0.5c-1.2,0.7-2.8,1.6-4.3,1.2c-0.4-0.1-0.7-0.3-1-0.5
	c-0.3-0.2-0.5-0.5-0.7-0.9c-0.4-0.9-0.7-1.8-0.9-2.7c-0.3-1.2-0.5-2-1.1-2.5c-2.1-1.6-2-2.4-2.1-2.6l1.5-2.5c0.7,1,1.5,2,2.4,2.8
	c1.2,1.1,1.9,2.5,2.1,4.1c0.1,0.6,0.3,1.3,0.6,1.9c0.6-0.2,1.3-0.5,1.8-0.9c0.4-0.3,0.9-0.5,1.4-0.7c1.4-0.3,2.2,0.9,3,2
	c0.3,0.5,0.7,1,1.1,1.4c0.2-0.1,0.5-0.2,0.8-0.3c2.2-1.1,4.6-1.3,7-0.7c1,0.2,2.3,0.5,3.9,0.9c3.7,0.7,7.3,1.8,10.7,3.3L166.4,152.1
	z"/>
<path class="st0" d="M183.5,168.5c-0.1,0-0.2,0-0.3-0.1c-5.6-3.7-18.3-4.7-18.4-4.7c-0.1,0-0.1,0-0.2,0c-0.1,0-0.1-0.1-0.2-0.1
	c0-0.1-0.1-0.1-0.1-0.2c0-0.1,0-0.1,0-0.2c0-0.1,0-0.1,0.1-0.2c0-0.1,0.1-0.1,0.1-0.2c0.1,0,0.1-0.1,0.2-0.1c0.1,0,0.1,0,0.2,0
	c0.5,0,13,1.1,18.9,4.9c0.1,0,0.1,0.1,0.1,0.1c0,0.1,0.1,0.1,0.1,0.2c0,0.1,0,0.1,0,0.2c0,0.1,0,0.1-0.1,0.2c0,0.1-0.1,0.1-0.2,0.2
	C183.7,168.4,183.6,168.5,183.5,168.5z"/>
<path class="st0" d="M179,158.5c-0.4,0-0.8-0.1-1.2-0.2c-1.8-0.5-11.3-5.6-11.7-5.8c-0.1-0.1-0.2-0.2-0.2-0.3s0-0.3,0-0.4
	c0.1-0.1,0.2-0.2,0.3-0.2c0.1,0,0.3,0,0.4,0c3.4,1.8,10.1,5.4,11.5,5.8c0.4,0.1,0.8,0.2,1.1,0.1c0-0.1,0.1-0.2,0.2-0.3
	c0.1-0.1,0.2-0.1,0.3-0.1c0.1,0,0.2,0.1,0.3,0.2s0.1,0.2,0.1,0.3c0,0.1,0,0.3-0.1,0.4c-0.1,0.1-0.2,0.2-0.3,0.3
	C179.6,158.5,179.3,158.6,179,158.5z"/>
<path class="st0" d="M184.3,151.8c0,0-4.8,4.7-4.8,5.2s3.4,3.5,3.7,4.5c0.3,1,2.5-0.3,3.1,0c0.6,0.3,0.5,2-1.3,2.4
	c-1.8,0.4-1.6,4.9-1,5.5c0.6,0.6,6.1,3.4,9.1,6.6c3,3.2,4.7,6.3,5.9,6.8c1.3,0.5,2.5,0.9,2.9-1.6c0.4-2.5,0.8-7.9-2.5-11.9
	s-4.7-4.3-5.7-4.3c-1,0-2.6,0.1-2-1.3c0.6-1.4,2-2.6,1.5-3.8C192.8,158.8,188.8,151.4,184.3,151.8z"/>
<path class="st0" d="M201.8,184.7c-0.4,0-0.7-0.1-1.1-0.2c-0.3-0.2-0.6-0.4-0.8-0.8c0-0.1,0-0.1-0.1-0.2c0-0.1,0-0.1,0-0.2
	c0-0.1,0.1-0.1,0.1-0.2c0,0,0.1-0.1,0.2-0.1c0.1-0.1,0.3-0.1,0.4,0s0.2,0.1,0.3,0.2c0,0.1,0.4,0.6,1.4,0.4c1.5-0.4,2.6-0.8,2.9-2.5
	c0.4-3.8-0.4-7.6-2.2-10.9c-1.1-1.7-2.5-3.2-4-4.5c-1.4-1.3-2.4-2.3-2.5-3.4c0-0.4,0-0.8,0-1.2c0.1-1.6-0.2-3.1-0.9-4.5
	c-1.1-2.3-3.8-5.2-6.4-6.3c-2.4-1-3.4-0.5-4.3,1.7c-0.1,0.1-0.1,0.2-0.3,0.3c-0.1,0.1-0.3,0.1-0.4,0c-0.1-0.1-0.2-0.2-0.3-0.3
	c-0.1-0.1-0.1-0.3,0-0.4c1.2-2.8,2.8-3.5,5.7-2.3c2.9,1.2,5.7,4.4,7,6.8c0.7,1.6,1.1,3.3,1,5c0,0.4,0,0.8,0.1,1.1
	c0,0.7,1,1.6,2.2,2.7c1.6,1.4,3,3,4.2,4.8c2,3.5,2.8,7.6,2.3,11.6c-0.4,2.3-2,2.9-3.7,3.3C202.3,184.7,202.1,184.7,201.8,184.7z"/>
<path class="st0" d="M112.2,105.7c-2.5,0-7-0.3-9.3-2.5c-0.9-0.9-1.8-1.8-2.4-2.9c-0.5-0.7-1-1.4-1.6-2c-0.6-0.5-1-1.1-1.2-1.8
	c-0.2-0.7-0.2-1.5,0.1-2.2c0.1-0.1,0.1-0.2,0.3-0.3c0.1-0.1,0.3-0.1,0.4,0c0.1,0,0.1,0.1,0.2,0.1c0,0,0.1,0.1,0.1,0.2
	c0,0.1,0,0.1,0,0.2c0,0.1,0,0.1,0,0.2c-0.2,0.5-0.2,1.1,0,1.6c0.2,0.5,0.5,1,0.9,1.3c0.7,0.7,1.3,1.4,1.7,2.2c0.6,1,1.4,1.9,2.3,2.7
	c2.4,2.2,7.8,2.3,9.4,2.2c0.1,0,0.3,0.1,0.4,0.1c0.1,0.1,0.1,0.2,0.1,0.4c0,0.1-0.1,0.3-0.1,0.4c-0.1,0.1-0.2,0.1-0.4,0.1
	L112.2,105.7z"/>
<path class="st0" d="M115.9,110.2c-4.2,0-8.4-0.6-12.3-1.9c-5.3-2.1-5.2-4.4-5-5c0.1-0.2,0.1-0.5,0.2-0.7c0.2-0.5,0.3-0.7,0-1.2
	c-0.7-1.1-0.1-3.4-0.1-3.7c0-0.1,0.1-0.2,0.2-0.3c0.1-0.1,0.3-0.1,0.4-0.1c0.1,0,0.2,0.1,0.3,0.2c0.1,0.1,0.1,0.3,0.1,0.4
	c-0.2,0.9-0.4,2.4-0.1,2.9c0.2,0.3,0.4,0.7,0.4,1c0,0.4-0.1,0.8-0.2,1.1c-0.1,0.2-0.1,0.4-0.2,0.6c-0.2,0.9,0.8,2.3,4.3,3.8
	c4.3,1.7,15.4,3.2,22,0c10.7-5.1,11.4-7,11.4-7.5c0-0.5-0.1-0.9-0.1-1.4c-0.3-1.4-0.2-2.8,0.2-4.2c0.6-1.5,1.2-3.1,0.6-5
	c-0.4-1.7-0.6-3.5-0.6-5.3c-0.1-1.2-0.1-2.3-0.2-3.2c-0.1-1.5-0.6-3-1.4-4.4c-0.1,0-0.1-0.1-0.1-0.2c0-0.1,0-0.1-0.1-0.2
	c0-0.1,0-0.1,0-0.2c0-0.1,0.1-0.1,0.1-0.2c0.1-0.1,0.2-0.2,0.3-0.2c0.1,0,0.3,0,0.4,0.1c0.7,0.6,1.5,3,1.7,5c0.1,0.9,0.2,2,0.3,3.3
	c0,1.7,0.2,3.4,0.6,5.1c0.7,2.2,0,4-0.6,5.6c-0.3,1.2-0.4,2.5-0.1,3.8c0.1,0.5,0.1,1,0.1,1.4c0.1,1.1-1.1,3.2-12,8.5
	C123.4,109.6,119.6,110.2,115.9,110.2z"/>
<path class="st0" d="M161.2,111c-2.3-0.1-4.5-0.3-6.7-0.9c-2-0.5-2.4-3.1-2.7-5.1c-0.1-0.7-0.2-1.3-0.5-2c-1.2-0.8-1.4-1.5-1.4-3.4
	c-0.1-1-0.5-1.8-1.2-2.5c-0.4-0.5-0.8-1.1-1.1-1.7c-0.7-1.4-3.1-8.3-2.6-10.3c0.4-1.4-1.3-4.5-4.1-5.6c-3-1.2-9.1-4.9-9.3-5.1
	c-0.1,0-0.1-0.1-0.1-0.1s-0.1-0.1-0.1-0.2c0-0.1,0-0.1,0-0.2c0-0.1,0-0.1,0.1-0.2c0.1-0.1,0.2-0.2,0.3-0.2c0.1,0,0.3,0,0.4,0.1
	c0.1,0,6.2,3.9,9.2,5c3.2,1.2,5.2,4.9,4.7,6.8c-0.4,1.4,1.6,7.8,2.5,9.6c0.3,0.6,0.7,1.1,1.1,1.6c0.8,0.9,1.3,2,1.4,3.1
	c0,1.7,0.2,2,0.9,2.5c0.6,0.4,0.7,1.3,0.9,2.6c0.3,1.7,0.6,3.9,1.9,4.2c4.7,1.1,9.9,1.3,10.5-0.5c0.5-1.6,0.3-4.1,0.1-6.3
	c-0.2-1.4-0.2-2.8-0.1-4.2c0.2-1.5-2.6-12.3-4.3-18.7c-0.8-3.1-1.5-5.6-1.7-6.5c-0.6-2.9-18.2-15.6-22.7-17.4
	c-3.9-1.6-9.7-3.6-15.2-3.5c-0.1,0-0.1,0-0.2,0c-0.1,0-0.1-0.1-0.2-0.1c-0.8-1-1.8-1.9-2.8-2.7l-0.3,0.3c-1.2,1.3-4,4.4-8,3.8
	c-2.2-0.2-4.4-0.8-6.4-1.7c0,0.5-0.1,0.9-0.5,1.3l-0.1,0.1c-0.1,0.1-2.1,1.3-7.8,0.9c-5.5-0.5-8.5-0.8-13.7-6
	c-1.5-1.5-3.2-3.3-5-5.2c-4.2-4.5-9-9.5-10.8-10.4c-2.1-1-5.8-1.5-7.2-1.6c-0.1,1.6-0.9,6.2-4.9,7.8c0,0.6,0.3,2.5,2.7,5.6l1.3,1.7
	c4.1,5.4,13.6,18,16.6,19.3c1,0.4,2.6,1,4.5,1.7c5.1,1.8,11.4,4.1,13.3,6c1.6,1.6,3,7.7,4.2,13.1c0.7,3.1,1.5,6.4,1.9,6.9
	c0.9,0.8,1.9,1.5,3.1,2c0.8,0.3,1.4,0.7,2,1.3c0.1,0.1,0.1,0.2,0.1,0.4c0,0.1-0.1,0.2-0.2,0.3c-0.1,0.1-0.2,0.1-0.4,0.1
	c-0.1,0-0.2-0.1-0.3-0.2c-0.5-0.4-1-0.7-1.6-1c-1.3-0.5-2.4-1.3-3.4-2.3c-0.6-0.7-1.1-3.1-2.1-7.3c-1-4.8-2.5-11.2-3.9-12.6
	c-1.7-1.7-8.2-4.1-12.9-5.8c-1.9-0.7-3.5-1.3-4.5-1.7c-3.3-1.4-12.5-13.7-17-19.6l-1.3-1.7c-3.3-4.4-2.9-6.5-2.9-6.7
	c0-0.1,0.1-0.2,0.1-0.2c0.1-0.1,0.1-0.1,0.2-0.1c4.3-1.5,4.5-7.5,4.5-7.5c0-0.1,0-0.1,0-0.2c0-0.1,0.1-0.1,0.1-0.2
	c0,0,0.1-0.1,0.2-0.1c0.1,0,0.1,0,0.2,0c0.2,0,5.3,0.4,8.1,1.7c2,1,6.6,5.9,11.1,10.6c1.8,1.9,3.5,3.7,5,5.2c5,5,7.7,5.2,13.1,5.7
	c4.8,0.4,6.8-0.5,7.1-0.7c0.1-0.2,0.1-0.5,0.1-0.8c0-0.3,0-0.9,0.6-0.9c0.2,0,0.4,0.1,0.6,0.2c2,0.9,4.1,1.4,6.3,1.7
	c3.5,0.4,6.1-2.3,7.2-3.5c0.2-0.2,0.4-0.5,0.7-0.6c0.3-0.1,0.9-0.4,3.7,2.8c5.7-0.1,11.5,2,15.4,3.6c4.5,1.9,22.5,14.6,23.3,18.2
	c0.2,0.9,0.9,3.4,1.7,6.5c2.5,9.5,4.6,17.4,4.3,19.1c-0.1,1.3,0,2.6,0.1,4c0.2,2.3,0.4,4.9-0.1,6.7C165.6,110.6,163.5,111,161.2,111
	z"/>
<path class="st0" d="M109.6,57.5c-1.6,0-3.1-0.2-4.6-0.7c-5-1.7-5-3.4-4.9-3.8c0-0.1,0.1-0.3,0.2-0.3c0.1-0.1,0.2-0.1,0.4-0.1
	c0.1,0,0.3,0.1,0.3,0.2c0.1,0.1,0.1,0.2,0.1,0.4c0,0.1,0.2,1.3,4.2,2.6c2.7,0.9,5.7,0.9,8.4,0.1c2.8-0.8,5.2-2.5,7-4.8
	c0-0.1,0.1-0.1,0.1-0.1s0.1-0.1,0.2-0.1c0.1,0,0.1,0,0.2,0c0.1,0,0.1,0,0.2,0.1c0.1,0.1,0.2,0.2,0.2,0.3c0,0.1,0,0.3-0.1,0.4
	c-1.4,1.8-3.2,3.3-5.3,4.3C114.2,57,111.9,57.5,109.6,57.5z"/>
<path class="st2" d="M65.6,17.7L3.3,6.7l57.6,2L65.6,17.7z"/>
<path class="st3" d="M55.4,8.5V5.7l-52,1L55.4,8.5z"/>
<path class="st2" d="M58.7,5.7L48,0L3.3,6.7L58.7,5.7z"/>
<path class="st0" d="M52.9,38.6c-0.1,0-0.1,0-0.2,0s-0.1-0.1-0.2-0.1c-0.1-0.1-7.7-9-10-10.8c-0.5-0.4-1-0.8-1.5-1.2
	c-2-1.8-4.3-3.4-6.7-4.6c-3.1-1.3-7.1-7.8-7.3-8c0-0.1-0.1-0.1-0.1-0.2s0-0.1,0-0.2c0-0.1,0-0.1,0.1-0.2c0-0.1,0.1-0.1,0.1-0.1
	s0.1-0.1,0.2-0.1c0.1,0,0.1,0,0.2,0c0.1,0,0.1,0,0.2,0.1c0.1,0,0.1,0.1,0.1,0.1c0,0.1,4,6.4,6.8,7.6c2.5,1.1,4.9,3,7,4.7l1.4,1.2
	c2.4,1.9,9.8,10.5,10.1,10.9c0,0,0.1,0.1,0.1,0.2c0,0.1,0,0.1,0,0.2c0,0.1,0,0.1-0.1,0.2s-0.1,0.1-0.1,0.2
	C53.1,38.5,53,38.6,52.9,38.6z"/>
<path class="st4" d="M37.6,12.7L4.7,6.7L38.8,17L37.6,12.7z"/>
<path class="st4" d="M43.8,18.5l12.2,3.7l0.9-6.1l-14.5-2.6c0,0,0.3,1.9,0.5,2.6C43.1,16.9,43.5,17.7,43.8,18.5z"/>
<path class="st0" d="M105.2,52.3h-0.1c-0.1,0-0.1,0-0.2-0.1c-0.1,0-0.1-0.1-0.1-0.2c0-0.1-0.1-0.1-0.1-0.2c0-0.1,0-0.1,0-0.2
	c0,0,0.9-3.4,0-5.7c0-0.1-0.1-0.1-0.1-0.2c0-0.1,0-0.1,0-0.2c0-0.1,0.1-0.1,0.1-0.2c0-0.1,0.1-0.1,0.2-0.1c0.1,0,0.1,0,0.2,0
	c0.1,0,0.1,0,0.2,0.1c0.1,0,0.1,0.1,0.2,0.1c0,0.1,0.1,0.1,0.1,0.2c1.1,2.6,0.1,6.2,0,6.3c0,0.1-0.1,0.2-0.2,0.2
	C105.4,52.3,105.3,52.3,105.2,52.3z"/>
<path class="st0" d="M116.4,50.6c-0.1,0-0.2,0-0.2-0.1s-0.1-0.1-0.2-0.2c-1.4-1.9-3.7-5.2-3.6-6.2c0-0.1,0.1-0.3,0.2-0.3
	s0.2-0.1,0.4-0.1c0.1,0,0.3,0.1,0.3,0.2c0.1,0.1,0.1,0.2,0.1,0.4c0,0.5,1.7,3.3,3.4,5.5c0,0.1,0.1,0.1,0.1,0.2c0,0.1,0,0.1,0,0.2
	c0,0.1,0,0.1-0.1,0.2c0,0.1-0.1,0.1-0.1,0.1C116.6,50.5,116.5,50.6,116.4,50.6z"/>
<path class="st0" d="M172.7,129c-0.1,0-0.2,0-0.4,0c-1.4-0.3-6.8-5.9-7.8-7.2c-0.8-1-1.7-1.8-2.9-2.3c-0.6,0.8-0.9,1.7-1,2.6
	c-0.1,1.3-0.3,2.6-1.1,3.1c-0.2,0.1-0.4,0.2-0.6,0.2c-0.2,0-0.4,0-0.6-0.1c-1.5-0.5-1.3-1.9-1-3.9l0.1-0.7c0.3-1.6,0.9-3,1.7-4.4
	c0.1-0.3,0.3-0.5,0.4-0.7c-0.4-0.7-2-3.4-3.2-5.2c-0.1-0.1-0.1-0.3-0.1-0.4c0-0.1,0.1-0.2,0.2-0.3c0.1,0,0.1-0.1,0.2-0.1
	c0.1,0,0.1,0,0.2,0c0.1,0,0.1,0,0.2,0.1s0.1,0.1,0.1,0.1c0.5,0.9,3.2,5.2,3.3,5.4c0.1,0.3,0,0.6-0.5,1.5c-0.8,1.3-1.3,2.7-1.6,4.1
	l-0.1,0.7c-0.3,2.1-0.4,2.6,0.3,2.8c0.2,0.1,0.3,0,0.4,0c0.5-0.3,0.6-1.8,0.6-2.3c0.1-1.3,0.6-2.5,1.5-3.5c0.1-0.1,0.2-0.1,0.3-0.1
	s0.2,0,0.3,0c1.4,0.6,2.6,1.5,3.5,2.7c1.3,1.7,6.4,6.7,7.3,6.9c0.1,0,0.3,0,0.3,0c0-0.1,0-0.8-0.7-1.5c-1-0.9-4.3-5.2-4-6.2
	c0-0.1,0.1-0.2,0.2-0.3c0.1-0.1,0.2-0.1,0.3-0.2c0.5-0.1,0.9,0.2,3.6,2.6c1.4,1.2,3.5,3.1,4,3.2c0.2,0,0.4,0.1,0.6,0.1
	c-0.1-0.2-0.2-0.4-0.4-0.6c-0.4-0.6-1.2-1.5-2-2.4c-1-1-1.9-2.1-2.7-3.2c-0.1-0.1-0.1-0.3,0-0.4c0-0.1,0.1-0.2,0.2-0.3
	c0.1-0.1,0.3-0.1,0.4,0c0.1,0,0.2,0.1,0.3,0.2c0.7,1.1,1.6,2.1,2.5,3c0.9,0.9,1.7,1.8,2.1,2.5s0.9,1.3,0.5,1.7
	c-0.4,0.5-1.1,0.4-1.7,0.3c-0.7-0.1-2.2-1.4-4.5-3.4c-0.6-0.5-1.3-1.2-1.9-1.7c0.9,1.5,2,2.9,3.2,4.2c1,0.9,1.4,2,1,2.7
	c-0.1,0.2-0.2,0.4-0.4,0.5C173.1,129,172.9,129,172.7,129z"/>
<path class="st0" d="M177.8,124.8c-0.7,0-1.4-0.2-2-0.6c-0.1-0.1-0.2-0.2-0.2-0.3c0-0.1,0-0.2,0.1-0.4c0.1-0.1,0.2-0.2,0.3-0.2
	c0.1,0,0.2,0,0.4,0c0.5,0.3,1.1,0.5,1.7,0.4l0-0.1c0,0,0-0.3-1-1.2c-1.6-1.6-3-3.4-4.3-5.2c-0.1-0.1-0.1-0.2-0.1-0.3
	c0-0.1,0-0.2,0.1-0.3c0.6-0.7,5.7,1.7,5.8,1.7c0,0,0.1,0,0.1,0c0,0,0-0.4-0.6-0.9c-0.8-0.7-5.3-2.3-12-4.4l-0.1,0
	c-1.4-0.4-2-2.5-2.1-2.7c0-0.1,0-0.2,0.1-0.4c0.1-0.1,0.2-0.2,0.3-0.2c0.1,0,0.2,0,0.4,0c0.1,0.1,0.2,0.1,0.2,0.3
	c0.1,0.5,0.7,1.7,1.4,2h0.1c5,1.6,11.2,3.6,12.3,4.6c1.2,1,1.1,1.8,0.9,2.3c-0.1,0.2-0.4,0.4-0.6,0.4c-0.3,0.1-0.5,0-0.7-0.1
	c-0.5-0.3-2.5-1-3.7-1.5c1.1,1.4,2.2,2.8,3.5,4c0.9,0.9,1.3,1.5,1.3,2c0,0.2-0.1,0.3-0.1,0.5c-0.1,0.1-0.2,0.3-0.3,0.4
	C178.4,124.8,178.1,124.8,177.8,124.8z"/>
<path class="st0" d="M98,8.6c0,0-6.2,1.6-7.1,5c-0.8,3.4,0,7,2.7,6.6c2.7-0.4,6.2-2.7,8.6-2.5c2.3,0.2,1.9,1.1,1,2.5
	c-0.8,1.5,0.7,4,4.9,2.8c4.2-1.2,4.3-3.4,7.4-2.5c3,0.8,0.3,7.7,1,8.7c0.7,1,0.9,2.4,2.5,0c1.6-2.4,4-5.5,6.5-4.7
	c2.5,0.8-2.3,5.7-4.9,6.7l-2.5,1c0,0-1,7.1-2.5,8.1c0,0,10.1-1.3,13.9-4.9c3.8-3.5,0.5-3.5,1.2-5.4c0.7-1.9,4.5-2,4.5-4.3
	s-0.5-2-4-3.6c-3.5-1.7-2.5-2.5-2-3.4c0.5-0.8,1-2.4-1.8-3.2c-2.9-0.8-9.6-2.9-8.3-4.7c1.2-1.8,1.9-5.5-2.5-5.2
	c-4.3,0.3-8.5,3.1-10.9,2.8C103,8.2,100.7,7.6,98,8.6z"/>
<path class="st0" d="M106.2,46.6h-0.1l-1.1-0.3c-2.9-0.6-9-2-12.3-4.3c-4-2.8-3.3-9.8-2.5-12.1c0.7-2.2,2.3-9.8,2.3-9.9
	c0-0.1,0-0.1,0.1-0.2c0-0.1,0.1-0.1,0.1-0.1c0.1,0,0.1-0.1,0.2-0.1c0.1,0,0.1,0,0.2,0c0.1,0,0.2,0,0.3,0c0.1,0,0.1,0,0.2-0.1
	c1.3-0.3,2.6-0.7,3.8-1.2c1.7-0.7,3.4-1.4,4.8-1.3c0.8,0.1,1.7,0.2,2.1,0.9c0.3,0.7-0.1,1.5-0.6,2.4c-0.1,0.2-0.2,0.5-0.1,0.8
	c0,0.3,0.1,0.5,0.3,0.7c0.7,0.9,2.2,1.1,4.1,0.6c1.3-0.4,2.5-0.9,3.6-1.7c1.2-0.8,2.1-1.4,4.1-0.9c2.4,0.7,1.9,4.1,1.5,6.7
	c-0.2,0.7-0.2,1.5-0.2,2.3c0.1,0.2,0.2,0.4,0.4,0.6c0.1,0.2,0.2,0.4,0.3,0.5c0.3-0.3,0.6-0.7,0.9-1.1c1.4-2.1,4.1-5.9,7.1-4.9
	c0.3,0.1,0.6,0.2,0.7,0.5c0.2,0.2,0.3,0.5,0.3,0.8c0.1,2-3.7,5.5-5.9,6.3l-2.3,0.9c-0.3,1.2-1.6,6.3-2.5,7.9l-0.2,0.3
	c-0.6,1.1-1.7,3.4-4,4.6c-0.1,0.1-0.3,0.1-0.4,0c-0.1,0-0.2-0.1-0.3-0.2c-0.1-0.1-0.1-0.3,0-0.4c0-0.1,0.1-0.2,0.2-0.3
	c2-1,3-3.1,3.5-4.1L115,40c0.9-1.7,2.5-7.8,2.5-7.9c0-0.1,0.1-0.1,0.1-0.2c0.1-0.1,0.1-0.1,0.2-0.1l2.5-1c1.9-0.8,5.3-4,5.2-5.4
	c0-0.1,0-0.3-0.4-0.4c-2-0.7-4,1.7-5.9,4.5c-0.8,1.1-1.3,1.5-1.8,1.5c-0.5,0-0.9-0.5-1.1-1c-0.1-0.2-0.2-0.3-0.3-0.5
	c-0.3-0.5-0.2-1.4,0-3c0.3-2.2,0.8-5.1-0.7-5.5c-1.5-0.4-2.1,0-3.3,0.7c-1.1,0.8-2.4,1.5-3.7,1.9c-3.3,0.9-4.7-0.3-5.2-0.9
	c-0.3-0.4-0.5-0.8-0.5-1.3c0-0.5,0-0.9,0.3-1.3c0.3-0.5,0.7-1.3,0.6-1.5c0,0-0.2-0.2-1.2-0.3c-1.1-0.1-2.8,0.6-4.3,1.2
	c-1.3,0.6-2.6,1-4,1.3c-0.1,0-0.3,0.1-0.4,0.1c-0.4,1.7-1.7,7.6-2.3,9.5c-0.6,1.9-1.3,8.5,2.2,11c3.1,2.2,9,3.5,11.9,4.1l1.2,0.3
	c0.1,0,0.1,0,0.2,0.1c0.1,0,0.1,0.1,0.1,0.1c0,0.1,0.1,0.1,0.1,0.2c0,0.1,0,0.1,0,0.2c0,0.1-0.1,0.2-0.2,0.3
	C106.5,46.5,106.3,46.6,106.2,46.6z"/>
<path class="st0" d="M91.4,27.6c-0.1,0-0.2,0-0.2-0.1c-1.1-0.7-2.2-1.6-2.9-2.6c-0.8-1.1-1.4-2.3-1.7-3.6c-0.3-0.8-0.3-1.6,0-2.3
	c0.1-0.2,0.3-0.3,0.5-0.4c0.2-0.1,0.5-0.1,0.7-0.1c0.9,0.1,2,0.9,2.8,2.7c0.5,1.2,1,2.3,1.7,3.3c0.1,0.1,0.1,0.2,0.1,0.4
	c0,0.1-0.1,0.3-0.2,0.3c-0.1,0.1-0.2,0.1-0.4,0.1c-0.1,0-0.3-0.1-0.3-0.2c-0.8-1.1-1.4-2.3-1.9-3.6c-0.7-1.6-1.6-2.1-2-2.1
	c-0.2,0-0.3,0.1-0.3,0.1c-0.3,0.6,0.7,5.2,4.3,7.1c0.1,0.1,0.2,0.1,0.2,0.2c0,0.1,0.1,0.2,0,0.3s-0.1,0.2-0.2,0.3
	C91.6,27.6,91.5,27.6,91.4,27.6L91.4,27.6z"/>
<path class="st0" d="M112,26.2h-0.3c-0.2,0-0.4-0.1-0.6-0.3c-0.2-0.2-0.3-0.4-0.3-0.6c-0.1-0.6-1.4-1.4-2.2-1.8
	c-0.1,0-0.1-0.1-0.2-0.1c0,0-0.1-0.1-0.1-0.2c0-0.1,0-0.1,0-0.2c0-0.1,0-0.1,0.1-0.2c0-0.1,0.1-0.1,0.1-0.2s0.1-0.1,0.2-0.1
	c0.1,0,0.1,0,0.2,0s0.1,0,0.2,0.1c0.4,0.2,2.5,1.3,2.8,2.5c0,0.1,0,0.1,0.1,0.1c0.1,0,0.2,0,0.3-0.1c0.1,0,0.2-0.1,0.2-0.2
	c0.1-0.1,0.1-0.2,0.1-0.3c0-0.1,0-0.2-0.1-0.3c-0.7-1.2-1.1-1.9-1.7-2.1c-0.1,0-0.1,0-0.2-0.1c-0.1,0-0.1-0.1-0.1-0.1
	c0-0.1-0.1-0.1-0.1-0.2c0-0.1,0-0.1,0-0.2c0-0.1,0-0.1,0.1-0.2c0-0.1,0.1-0.1,0.2-0.1c0.1,0,0.1-0.1,0.2-0.1s0.1,0,0.2,0
	c1,0.3,1.6,1.3,2.3,2.6c0.1,0.3,0.2,0.5,0.2,0.8c0,0.3-0.1,0.6-0.3,0.8c-0.1,0.2-0.3,0.4-0.6,0.5C112.5,26.1,112.2,26.2,112,26.2z"
	/>
<path class="st0" d="M93.9,22.7c-0.1,0-0.1,0-0.2,0c-0.3-0.1-0.5-0.2-0.7-0.4c-0.2-0.2-0.3-0.4-0.4-0.7c0-0.3,0-0.5,0-0.8
	c0.1-0.2,0.2-0.5,0.4-0.7c0.1-0.1,0.2-0.1,0.4-0.1c0.1,0,0.3,0.1,0.4,0.1c0.1,0.1,0.1,0.2,0.1,0.4c0,0.1-0.1,0.3-0.1,0.4
	c-0.1,0.1-0.2,0.4-0.2,0.5c0,0.1,0.1,0.2,0.3,0.3c0.9-0.4,1.9-0.7,2.9-0.7c0.1,0,0.3-0.1,0.4-0.1c0.1-0.1,0.2-0.2,0.3-0.4
	c0.1-0.3,0.2-0.6,0.1-0.9c-0.1,0-0.2,0-0.3-0.1c-0.1-0.1-0.2-0.1-0.2-0.3c0-0.1,0-0.3,0-0.4c0.1-0.1,0.1-0.2,0.3-0.3
	c0.2-0.1,0.3-0.1,0.5-0.1c0.2,0,0.3,0.1,0.4,0.2c0.2,0.3,0.3,0.6,0.4,1c0,0.4,0,0.7-0.2,1.1c-0.1,0.3-0.3,0.6-0.6,0.8
	c-0.3,0.2-0.6,0.3-1,0.4c-0.9,0.1-1.9,0.3-2.7,0.7C94,22.7,94,22.7,93.9,22.7z"/>
<path class="st0" d="M95.2,25.7c-0.5-0.2-1-0.4-1.6-0.5c-0.2-0.1-0.5-0.1-0.7-0.1C92.6,25,92.3,25,92,24.9c0.2-0.3,0.5-0.6,0.8-0.7
	c0.3-0.1,0.7-0.2,1.1-0.1c0.4,0.1,0.7,0.3,0.9,0.6C95,25,95.2,25.3,95.2,25.7z"/>
<path class="st0" d="M104.3,27.1c0.3-0.4,0.8-0.7,1.3-0.9c0.5-0.1,1.1-0.2,1.6-0.1c0.5,0.1,1,0.4,1.4,0.7c0.4,0.3,0.7,0.8,0.9,1.3
	c-0.5-0.2-0.9-0.4-1.3-0.5c-0.4-0.2-0.8-0.3-1.2-0.4c-0.4-0.1-0.8-0.2-1.2-0.2C105.3,27.1,104.8,27.1,104.3,27.1z"/>
<path class="st0" d="M98.1,33.1L98.1,33.1c-1-0.2-1.9-0.4-2.7-0.8c-0.2-0.1-0.3-0.2-0.4-0.3c-0.1-0.1-0.2-0.3-0.2-0.4
	c-0.1-0.6,0.1-1.2,0.4-1.7l2.5-4.9l0.1-0.1c0.2-0.2,0.4-0.3,0.6-0.4c0.2-0.1,0.5-0.1,0.7-0.1c0.3,0.1,0.5,0.2,0.7,0.3
	c0.2,0.2,0.4,0.4,0.5,0.6c0.1,0.1,0.1,0.2,0.1,0.3c0,0-0.6,3.7-0.6,5.2c0,0.5-0.1,1-0.4,1.4c-0.3,0.4-0.7,0.7-1.2,0.9H98.1z
	 M98.5,25.4L96,30.3c-0.2,0.3-0.3,0.6-0.3,1c0,0,0,0.1,0.1,0.1c0.7,0.3,1.5,0.5,2.3,0.7c0.2-0.1,0.4-0.3,0.6-0.6
	c0.1-0.2,0.2-0.5,0.2-0.8c0.1-1.4,0.5-4.4,0.6-5.1c-0.1-0.2-0.3-0.3-0.5-0.3c-0.1,0-0.2,0-0.2,0.1C98.6,25.3,98.6,25.4,98.5,25.4
	L98.5,25.4z"/>
<path class="st0" d="M92,27.1c0.2-0.1,0.4-0.1,0.6-0.1c0.2,0,0.4,0.1,0.6,0.2c0.6,0.3,1,0.8,1.3,1.4c0.3,0.6,0.3,1.2,0.2,1.8
	c-0.3,0.7-1.2-0.1-2.5-0.6c-0.4-0.2-0.5,0-0.9-0.1L92,27.1z"/>
<path class="st0" d="M102.3,31.9c-0.1,0.9,1.5,0.7,3.3,1c1.9,0.3,3.3,1,3.5,0.1c0.2-0.9-1.1-3.1-2.9-3.4
	C104.3,29.3,102.4,31,102.3,31.9z"/>
<path class="st0" d="M97.6,36.9c1.1-0.3,2.1-0.5,3-0.8c0.5-0.1,0.9-0.3,1.4-0.5c0.5-0.2,0.9-0.4,1.4-0.7c-0.1,0.6-0.4,1.1-0.9,1.6
	c-0.4,0.4-1,0.7-1.6,0.9c-0.6,0.2-1.2,0.2-1.7,0.1C98.6,37.4,98.1,37.2,97.6,36.9z"/>
<path class="st2" d="M119.7,79c0,4.8-2,8.7-9.2,8.7c-5.1,0-8.2-3.9-8.2-8.7c0-4.8,2.1-8.7,8.2-8.7S119.7,74.2,119.7,79z"/>
<path class="st0" d="M109.5,80.1h-0.2c-0.3,0-0.8,0-1-0.5c-0.2-0.5,0.2-0.7,0.4-0.9c0.1-0.1,0.2-0.2,0.3-0.3l-0.1-0.1
	c-0.7-0.5-5-0.3-8.9,0.1c-0.1,0-0.1,0-0.2,0c-0.1,0-0.1,0-0.2-0.1c-0.1,0-0.1-0.1-0.1-0.2c0-0.1-0.1-0.1-0.1-0.2
	c0-0.1,0-0.3,0.1-0.4c0.1-0.1,0.2-0.2,0.3-0.2c1.4-0.1,8.3-0.8,9.6,0.1c0.2,0.1,0.3,0.2,0.4,0.4c0.1,0.2,0.1,0.3,0.1,0.5
	c0,0.1,0,0.3-0.1,0.4c0,0.1-0.1,0.2-0.2,0.3c0.4,0,1-0.1,1.7-0.2c2.9-0.3,7.8-0.9,12.1,0.2c0.1,0,0.2,0.1,0.3,0.2
	c0.1,0.1,0.1,0.2,0,0.4c0,0.1-0.1,0.2-0.2,0.3c-0.1,0.1-0.2,0.1-0.4,0.1c-4.1-1.1-8.9-0.5-11.7-0.2C110.7,80,110,80.1,109.5,80.1z"
	/>
<path class="st0" d="M39.3,21.2c-0.1,0-0.2,0-0.3-0.1c-0.1-0.1-0.1-0.1-0.2-0.2c-0.4-1.2-0.5-2.5-0.5-3.8l-1.2-4.2
	c0-0.1,0-0.2,0-0.3c0-0.1,0.1-0.2,0.1-0.2c0.1-0.1,0.1-0.1,0.2-0.1c0.1,0,0.2,0,0.2,0l4.2,0.7c0.2,0,1.2,0.3,1.4,2.6
	c0.1,1,0.4,1.9,1,2.7c0,0.1,0.1,0.1,0.1,0.2c0,0.1,0,0.1,0,0.2c0,0.1,0,0.1-0.1,0.2c0,0.1-0.1,0.1-0.1,0.1C44,19,44,19,43.9,19
	c-0.1,0-0.1,0-0.2,0c-0.1,0-0.1,0-0.2-0.1c-0.1,0-0.1-0.1-0.1-0.1c-0.6-0.9-1-2-1.1-3.1c-0.1-1.5-0.6-1.7-0.6-1.7l-3.4-0.6l1,3.5
	c0,0,0,0.1,0,0.1c0,1.2,0.1,2.4,0.4,3.5c0.1,0.1,0.1,0.3,0,0.4c0,0.1-0.1,0.2-0.3,0.3C39.4,21.1,39.3,21.2,39.3,21.2z"/>
<path class="st0" d="M57.7,30.6c-0.1,0-0.2,0-0.3-0.1c-1.1-0.7-11.3-6.8-12.6-9.3c0-0.1-0.1-0.2-0.1-0.3c0-0.1,0-0.2,0.1-0.3
	c0.3-0.5,0.5-1.1,0.5-1.7c0-0.1,0-0.1,0.1-0.2c0-0.1,0.1-0.1,0.1-0.2c0.1,0,0.1-0.1,0.2-0.1c0.1,0,0.1,0,0.2,0c0.1,0,0.1,0,0.2,0.1
	c0.1,0,0.1,0.1,0.2,0.1c0,0.1,0.1,0.1,0.1,0.2c0,0.1,0,0.1,0,0.2c-0.1,0.6-0.2,1.2-0.5,1.8c1.5,2.1,9.2,6.9,12.1,8.7
	c0.1,0,0.1,0.1,0.1,0.1c0,0.1,0.1,0.1,0.1,0.2c0,0.1,0,0.1,0,0.2c0,0.1,0,0.1-0.1,0.2c0,0.1-0.1,0.1-0.2,0.1
	C57.9,30.6,57.8,30.6,57.7,30.6z"/>
<path class="st0" d="M108.9,203.2c0,0-0.5-7.4-0.9-7.7c-0.4-0.4-5.4,0.3-6.4-0.2c-1-0.5-1.6,2.3-2.3,2.6c-0.7,0.3-2.1-1-1.1-2.8
	c0.9-1.8-2.9-4.9-3.9-4.8c-1,0.1-7.2,2.6-12,2.9c-4.8,0.3-8.6-0.6-9.9,0.1c-1.3,0.7-2.5,1.5-0.7,3.6c1.8,2.1,6.1,6.3,11.7,6.4
	c5.6,0.1,7-0.9,7.7-1.7c0.7-0.8,1.7-2.3,2.5-0.8c0.8,1.5,0.8,3.6,2.1,4C96.9,205.2,105.9,207.3,108.9,203.2z"/>
<path class="st0" d="M100.5,210.8c-1.3,0-2.6-0.1-3.9-0.4c-1.8-0.5-3.5-1.4-4.9-2.7c-0.3-0.3-0.7-0.5-1-0.8
	c-0.6-0.5-2.1-0.3-3.9-0.1c-2.3,0.3-4.6,0.4-7,0.1c-4.3-0.9-8.3-3.1-11.3-6.3c-1.6-2-0.9-3.7-0.1-5.4c0.2-0.5,0.5-0.9,1-1.2
	c0.5-0.3,1-0.4,1.5-0.3c0.1,0,0.2,0.1,0.3,0.2c0.1,0.1,0.1,0.2,0,0.4c0,0.1-0.1,0.2-0.2,0.3c-0.1,0.1-0.2,0.1-0.3,0.1
	c-0.1,0-0.9-0.1-1.4,1c-0.7,1.5-1.2,2.8,0,4.3c2.9,3.1,6.6,5.1,10.7,6c2.2,0.3,4.5,0.2,6.7-0.1c2-0.2,3.6-0.4,4.6,0.3
	c0.3,0.3,0.7,0.5,1,0.8c1.3,1.2,2.8,2,4.5,2.5c2.7,0.7,7.2,0.5,9.9-0.9c2.5-1.3,2.9-2.5,1.7-5c0-0.1,0-0.2,0-0.3
	c0-0.1,0.1-0.2,0.2-0.2c0.1-0.1,0.2-0.1,0.3,0c0.1,0,0.2,0.1,0.3,0.2c1.5,3,0.9,4.8-2.1,6.3C105.1,210.3,102.8,210.8,100.5,210.8z"
	/>
<path class="st0" d="M96.1,193.8c-0.1,0-0.2,0-0.3-0.1c-0.1,0-0.1-0.1-0.2-0.2c0-0.1,0-0.1-0.1-0.2c0-0.1,0-0.1,0-0.2
	c0-0.1,0.1-0.1,0.1-0.2c0-0.1,0.1-0.1,0.2-0.1c0.1-0.1,2.3-1.6,4.8-11.8c0-0.1,0-0.1,0.1-0.2c0-0.1,0.1-0.1,0.1-0.2
	c0.1,0,0.1-0.1,0.2-0.1c0.1,0,0.1,0,0.2,0c0.1,0,0.1,0,0.2,0.1s0.1,0.1,0.1,0.2c0,0.1,0.1,0.1,0.1,0.2c0,0.1,0,0.1,0,0.2
	c-2.6,10.8-5.1,12.3-5.3,12.5C96.3,193.8,96.2,193.8,96.1,193.8z"/>
<path class="st0" d="M106.3,197.3c-0.1,0-0.2,0-0.3-0.1c-0.1-0.1-0.1-0.2-0.2-0.3c-0.2-3.8,4.8-14.3,5-14.8c0.1-0.1,0.2-0.1,0.3-0.2
	c0.1,0,0.2,0,0.3,0c0.1,0.1,0.2,0.1,0.2,0.2c0,0.1,0.1,0.2,0,0.3c-0.1,0.1-5.1,10.7-4.9,14.3c0,0.1,0,0.1,0,0.2
	c0,0.1-0.1,0.1-0.1,0.2c0,0.1-0.1,0.1-0.2,0.1C106.5,197.3,106.4,197.3,106.3,197.3z"/>
<path class="st0" d="M110.3,182.9c-3.3,0-9.2-1.7-12.1-3.4c-3-1.7-2.1-8.2-1.3-13.8c0.1-0.7,0.2-1.4,0.3-2c0.3-2.7,0.3-7.9,0.2-12.9
	c-0.1-5.9-0.2-11.5,0.3-13.9c1-4.4,9.7-20.4,10.1-21.1c0-0.1,0.1-0.1,0.1-0.2c0.1,0,0.1-0.1,0.2-0.1c0.1,0,0.1,0,0.2,0
	c0.1,0,0.1,0,0.2,0.1c0.1,0,0.1,0.1,0.2,0.1c0,0.1,0.1,0.1,0.1,0.2c0,0.1,0,0.1,0,0.2c0,0.1,0,0.1-0.1,0.2c-0.1,0.2-9,16.6-10,20.8
	c-0.5,2.2-0.4,8-0.3,13.6c0.1,5.1,0.2,10.3-0.2,13.1c-0.1,0.7-0.2,1.3-0.3,2c-0.7,5.1-1.6,11.4,0.8,12.8c3,1.7,9.9,3.7,12.5,3.2
	c1.3-0.2,5.5-1.5,7.9-7.8c1.9-5.1,2.5-22,2.5-23.8c-0.3-1-0.8-2-1.4-2.9c-1.2-2-1.7-3-1.3-3.6c0.5-0.6,1.1-0.1,1.4,0
	c1.1,0.6,2.1,1.2,3,2l0.6,0.5c0,0,0-0.1,0-0.1c-0.2-0.8-0.5-1.5-0.7-2.1c-0.4-1.2-0.7-1.9-0.3-2.4c0.1-0.1,0.3-0.2,0.5-0.3
	c0.2,0,0.4,0,0.5,0c1.3,0.3,2,0.2,2.6-0.4c0.7-0.7,12.6-20,13.5-24.2c1-4.6,0.9-9.8-0.2-11.5c-1.2-2-2.7-4-2.7-4
	c-0.1-0.1-0.1-0.2-0.1-0.4c0-0.1,0.1-0.3,0.2-0.3c0.1,0,0.1-0.1,0.2-0.1c0.1,0,0.1,0,0.2,0c0.1,0,0.1,0,0.2,0.1
	c0.1,0,0.1,0.1,0.1,0.1c0,0,1.5,2.1,2.8,4.1c1.4,2.2,1.2,8,0.3,12.2c-0.9,4.2-13.1,24-13.8,24.8c-1,1-2.2,0.9-3.5,0.6
	c0.1,0.4,0.2,0.9,0.4,1.3c0.2,0.6,0.5,1.3,0.7,2.1c0.2,0.7,0.3,1.3-0.2,1.6c-0.5,0.3-1-0.1-2-0.9c-0.9-0.8-1.8-1.4-2.8-1.9h-0.1
	c0.4,0.8,0.8,1.5,1.2,2.2c1,1.7,1.6,2.7,1.6,3.4c0,0.2-0.4,18.5-2.5,24.1c-2.6,6.8-7.3,8.1-8.7,8.4
	C111,182.9,110.6,182.9,110.3,182.9z"/>
<path class="st0" d="M156,167c-0.4,0-0.9,0-1.2-0.1c-2.1-0.2-9.3-2.5-15.7-4.6c-3.8-1.3-7.5-2.5-9.3-2.9c-3.1-0.9-5.9-2.7-8.1-5.2
	c0-0.1-0.1-0.1-0.1-0.2c0-0.1,0-0.1,0-0.2c0-0.1,0-0.1,0.1-0.2c0-0.1,0.1-0.1,0.1-0.2c0.1,0,0.1-0.1,0.2-0.1c0.1,0,0.1,0,0.2,0
	c0.1,0,0.1,0,0.2,0.1c0.1,0,0.1,0.1,0.1,0.2c2,2.3,4.6,4,7.5,4.9c1.8,0.5,5.5,1.7,9.3,3c6,2,13.5,4.5,15.5,4.6
	c2.9,0.2,7.9-0.4,9.6-3c1.6-2.6,1.9-9.1,1.5-10.7l-0.1-0.2c-0.5-1.9-1.8-6.4-5.9-7.8c-5.1-1.7-14.1-4.2-15.1-4
	c-0.2,0-0.4,0.5-0.5,0.8c-0.2,0.5-0.4,0.9-0.9,0.9c-0.5,0-0.8-0.5-0.9-0.8c-0.2-0.4-0.4-0.8-0.5-1.2c-0.3-0.7-0.9-2.1-1.2-2.1
	c-0.4,0.4-0.8,0.8-1.1,1.3c-0.8,1-1.3,1.7-1.9,1.5c-0.6-0.3-0.5-0.9-0.5-1.1c0-0.6,0.1-1.2,0.2-1.8c0.3-1.4,0.3-1.9-0.7-2.3
	c-2.2-0.9-2.7-4.5-2.7-5.9c0-0.1,0.1-0.3,0.1-0.4c0.1-0.1,0.2-0.1,0.4-0.1c0.1,0,0.3,0.1,0.4,0.1c0.1,0.1,0.1,0.2,0.1,0.4
	c0,0.9,0.4,4.3,2.1,4.9c1.7,0.6,1.5,2.1,1.3,3.4c-0.1,0.5-0.1,1-0.2,1.5c0.2-0.2,0.5-0.6,0.7-0.9c0.4-0.5,0.8-1,1.3-1.4
	c0.1-0.1,0.3-0.2,0.4-0.2c0.2,0,0.3,0,0.5,0c0.8,0.2,1.3,1.4,1.9,2.7c0.2,0.4,0.3,0.7,0.5,1.1c0.2-0.5,0.6-1.2,1.2-1.4
	c1.3-0.3,12.3,2.9,15.6,4.1c4.6,1.5,6,6.6,6.6,8.4l0.1,0.2c0.5,1.8,0.3,8.5-1.6,11.5C163.5,166.3,158.9,167,156,167z"/>
<path class="st0" d="M223.2,199.9c-0.2,0-0.4,0-0.5,0c-0.1,0-0.3-0.1-0.3-0.2c-0.1-0.1-0.1-0.2-0.1-0.4c0-0.1,0.1-0.3,0.2-0.3
	c0.1-0.1,0.2-0.1,0.4-0.1c0.1,0,6.1,0.7,11.4-9.4c4.6-8.7,4.8-11.3,4.7-12c-0.2,0.1-0.4,0.3-0.6,0.5c-0.5,0.5-1.1,1-1.8,1.3
	c-1,0.4-11.8,9.6-14,19.2c0,0.1,0,0.1-0.1,0.2s-0.1,0.1-0.1,0.1c-0.1,0-0.1,0.1-0.2,0.1c-0.1,0-0.1,0-0.2,0c-0.1,0-0.1,0-0.2-0.1
	c-0.1,0-0.1-0.1-0.1-0.1c0-0.1-0.1-0.1-0.1-0.2c0-0.1,0-0.1,0-0.2c2.3-10.1,13.4-19.5,14.6-20c0.6-0.3,1.1-0.6,1.5-1.1
	c0.3-0.4,0.8-0.7,1.3-0.9c0.1,0,0.3,0,0.4,0c0.1,0.1,0.3,0.1,0.3,0.3c1.2,1.6-2.4,9-4.6,13.2C230.2,199.2,224.9,199.9,223.2,199.9z"
	/>
<path class="st0" d="M224,198.8c-0.1,0-0.1,0-0.2,0c-0.1,0-0.1-0.1-0.2-0.1c0-0.1-0.1-0.1-0.1-0.2c0-0.1,0-0.1,0-0.2
	c0-0.1,0-0.1,0.1-0.2c0-0.1,0.1-0.1,0.1-0.2c0.1-0.1,6.9-5.8,9.8-12.1c0.1-0.1,0.2-0.2,0.3-0.2c0.1,0,0.3,0,0.4,0
	c0.1,0.1,0.2,0.2,0.3,0.3c0,0.1,0,0.3,0,0.4c-3,6.5-9.8,12.2-10.1,12.5C224.2,198.7,224.1,198.8,224,198.8z"/>
<path class="st0" d="M222.8,186.6L222.8,186.6c-0.1,0-0.2,0-0.2-0.1c-0.1,0-0.1-0.1-0.2-0.1s-0.1-0.1-0.1-0.2c0-0.1,0-0.1,0-0.2
	c0.7-8.3,4.7-16.8,12-25.4c0.3-0.4,0.5-0.6,0.6-0.7c0.2-0.3,0.3-0.6,0.5-0.9c0.6-1.1,1.1-2,1.7-1.8c0.7,0.2,0.9,0.9,0.7,4.4
	c-0.4,7-5.1,20.4-5.3,21c0,0.1,0,0.1-0.1,0.2c0,0.1-0.1,0.1-0.2,0.1c-0.1,0-0.1,0.1-0.2,0.1c-0.1,0-0.1,0-0.2,0
	c-0.1,0-0.1-0.1-0.2-0.1c-0.1,0-0.1-0.1-0.1-0.2c0-0.1,0-0.1,0-0.2c0-0.1,0-0.1,0-0.2c0.1-0.1,4.9-13.9,5.2-20.7c0.1-1,0.1-2,0-3
	c-0.2,0.3-0.4,0.7-0.5,1c-0.1,0.3-0.4,0.7-0.5,0.9c-0.2,0.2-0.3,0.4-0.7,0.8c-7.1,8.4-11.1,16.7-11.7,24.8c0,0.1-0.1,0.2-0.1,0.3
	C223,186.5,222.9,186.6,222.8,186.6z"/>
<path class="st0" d="M223,191.6h-0.1c-0.1,0-0.2-0.1-0.3-0.2c-0.1-0.1-0.1-0.3,0-0.4c2.9-10.1,9.8-22.6,9.8-22.8
	c0-0.1,0.1-0.1,0.1-0.2c0.1,0,0.1-0.1,0.2-0.1c0.1,0,0.1,0,0.2,0c0.1,0,0.1,0,0.2,0.1c0.1,0,0.1,0.1,0.2,0.1c0,0.1,0.1,0.1,0.1,0.2
	c0,0.1,0,0.1,0,0.2c0,0.1,0,0.1-0.1,0.2c-0.1,0.1-6.8,12.7-9.7,22.6c0,0.1-0.1,0.2-0.2,0.2C223.2,191.6,223.1,191.6,223,191.6z"/>
<path class="st0" d="M220,198.9c-0.1,0-0.3,0-0.3-0.1c-0.3-0.3-8.5-8.3-7.5-18.3c0.8-8.7,2.9-16.9,4.6-18c0.1-0.1,0.2-0.1,0.4-0.2
	s0.3,0,0.4,0c1,0.3,1.2,1.8,1.5,3.7c0.1,1.5,0.5,3,1,4.4c1.4,3.3,4.8,18.4,3,26.6c0,0.1-0.1,0.2-0.2,0.3c-0.1,0.1-0.2,0.1-0.4,0.1
	c-0.1,0-0.2-0.1-0.3-0.2c-0.1-0.1-0.1-0.2-0.1-0.4c1.7-8-1.5-22.8-2.9-26c-0.5-1.5-0.9-3-1.1-4.6c-0.2-1.2-0.4-2.6-0.7-2.8
	c-0.9,0.6-3.2,7.5-4.1,17.2c-0.9,9.5,7.2,17.4,7.2,17.4c0.1,0.1,0.1,0.2,0.2,0.3c0,0.1,0,0.2,0,0.3c0,0.1-0.1,0.2-0.2,0.2
	C220.2,198.9,220.1,198.9,220,198.9L220,198.9z"/>
<path class="st0" d="M220.7,197.7c-0.1,0-0.2,0-0.3-0.1c-0.1-0.1-0.1-0.1-0.2-0.2c-4.3-9.6-5.1-23.2-5.1-23.3c0-0.1,0-0.1,0-0.2
	c0-0.1,0.1-0.1,0.1-0.2c0,0,0.1-0.1,0.2-0.1c0.1,0,0.1,0,0.2,0c0.1,0,0.3,0,0.3,0.1c0.1,0.1,0.2,0.2,0.2,0.3c0,0.1,0.7,13.5,5,22.9
	c0.1,0.1,0.1,0.3,0,0.4c0,0.1-0.1,0.2-0.3,0.3C220.8,197.7,220.7,197.7,220.7,197.7z"/>
<path class="st0" d="M220.1,172.8c-0.1,0-0.3,0-0.3-0.1c-0.1-0.1-0.2-0.2-0.2-0.3c-0.8-13.3,4.7-24.8,7.4-30.3
	c0.5-1,0.9-1.9,1.3-2.9c0.6-2,1.3-2.3,1.8-2.2c0.8,0.1,1.8,1,2,7.8c0.2,8.5-2.2,23.4-2.3,23.5c0,0.1,0,0.1-0.1,0.2
	c0,0.1-0.1,0.1-0.1,0.1s-0.1,0.1-0.2,0.1c-0.1,0-0.1,0-0.2,0c-0.1,0-0.1,0-0.2-0.1c-0.1,0-0.1-0.1-0.1-0.1s-0.1-0.1-0.1-0.2
	c0-0.1,0-0.1,0-0.2c0-0.1,2.5-15,2.3-23.4c-0.2-6.3-1.1-6.8-1.1-6.8c-0.4,0.4-0.6,1-0.7,1.5c-0.4,1.1-0.8,2.1-1.4,3.1
	c-2.6,5.4-8,16.7-7.3,29.8c0,0.1,0,0.1,0,0.2c0,0.1-0.1,0.1-0.1,0.2c0,0-0.1,0.1-0.2,0.1C220.2,172.7,220.2,172.8,220.1,172.8
	L220.1,172.8z"/>
<path class="st0" d="M222.6,184.4c-0.1,0-0.2,0-0.3-0.1c-0.1-0.1-0.2-0.2-0.2-0.3c-0.2-1.5,0.4-3.8,1.4-8c0.5-2.1,1.1-4.7,1.8-8
	c1.5-7.5,2.5-15,3.2-22.6c0-0.1,0.1-0.3,0.2-0.3c0.1-0.1,0.2-0.1,0.4-0.1c0.1,0,0.1,0,0.2,0.1c0.1,0,0.1,0.1,0.2,0.1
	c0,0.1,0.1,0.1,0.1,0.2c0,0.1,0,0.1,0,0.2c-0.7,7.6-1.8,15.2-3.2,22.8c-0.7,3.2-1.3,5.9-1.8,8c-1,4.1-1.5,6.3-1.3,7.7
	c0,0.1,0,0.3-0.1,0.4C222.9,184.4,222.8,184.4,222.6,184.4L222.6,184.4z"/>
<path class="st0" d="M230.3,202.5c-0.1,0-0.2,0-0.3-0.1c-0.1-0.1-0.2-0.2-0.2-0.3c0-0.1,0-0.3,0-0.4c0.1-0.1,0.2-0.2,0.3-0.2l1-0.3
	c0,0-0.1-0.1-0.1-0.1c-0.1-0.1-0.2-0.2-0.2-0.3c0-0.1,0-0.3,0-0.4c0.2-0.5,0.4-1,0.8-1.4l0.1-0.2c-1.9,0.7-4.5,1.5-6.3,0.7
	c-0.1,0-0.1-0.1-0.2-0.1c0,0-0.1-0.1-0.1-0.2c0-0.1,0-0.1,0-0.2c0-0.1,0-0.1,0-0.2c0.1-0.1,0.2-0.2,0.3-0.3c0.1,0,0.3,0,0.4,0
	c1.7,0.7,4.7-0.4,5.7-0.8c0.4-0.1,1-0.4,1.4,0.1c0.3,0.4,0,1-0.5,1.7c-0.2,0.2-0.3,0.5-0.5,0.8c0.3-0.1,0.7-0.2,1-0.3
	c0.8-0.3,1.7-0.5,2.6-0.6c0.6,0,0.7,0.3,0.7,0.5c0.1,0.5,0.1,0.8-5.8,2.6L230.3,202.5z"/>
<path class="st0" d="M218.3,198.6c-0.1,0-0.2,0-0.2-0.1c-1.4-0.8-2.6-1.7-3.7-2.8c-0.8-0.9-1.4-1.1-1.7-1c-0.1,0-0.1,0.1-0.1,0.1
	c0,0-0.1,0.1-0.1,0.2c0,0.1-0.1,0.3-0.1,0.4c-0.1,0.1-0.2,0.2-0.3,0.2c-0.5,0.2-0.9-0.2-1.5-0.6l-0.1-0.1c0,0.1,0,0.1,0,0.2
	c0.1,1,0.2,2.6-0.9,3.1c-0.1,0-0.1,0-0.2,0c-0.1,0-0.1,0-0.2,0c-0.1,0-0.1-0.1-0.2-0.1c0,0-0.1-0.1-0.1-0.2c0-0.1,0-0.1,0-0.2
	c0-0.1,0-0.1,0-0.2c0-0.1,0.1-0.1,0.1-0.2c0,0,0.1-0.1,0.2-0.1c0.4-0.2,0.3-1.4,0.3-2s-0.1-1.2,0.3-1.5c0.4-0.2,0.9,0.1,1.5,0.5
	l0.4,0.3c0.1-0.2,0.2-0.3,0.3-0.5c0.1-0.1,0.3-0.2,0.5-0.3c0.4-0.1,1.4-0.1,2.7,1.3c1,1,2.2,1.9,3.4,2.6c0.1,0,0.1,0.1,0.2,0.1
	c0,0.1,0.1,0.1,0.1,0.2c0,0.1,0,0.1,0,0.2s0,0.1-0.1,0.2c0,0.1-0.1,0.1-0.2,0.2C218.5,198.6,218.4,198.6,218.3,198.6z"/>
<path class="st0" d="M43.9,198c-0.9,0-1.8-0.1-2.7-0.2c-3.9-0.5-9.7-2.6-14.7-9.3c-8.3-11.1-8.6-20.1-8.7-24c0-0.6,0-1-0.1-1.4
	c-0.2-1.7,0-3.8,1-4.2c0.3-0.1,0.8-0.2,1.4,0.5c0.4,0.5,0.6,1.1,0.6,1.7c0.2,1.1,0.4,2.4,2.9,3.8c5.1,3,22.3,14,27,30.4
	c0,0.1,0,0.1,0,0.2c0,0.1,0,0.1-0.1,0.2c0,0.1-0.1,0.1-0.1,0.2c-0.1,0-0.1,0.1-0.2,0.1c-0.1,0-0.1,0-0.2,0c-0.1,0-0.1,0-0.2-0.1
	c-0.1,0-0.1-0.1-0.2-0.1c0-0.1-0.1-0.1-0.1-0.2c-4.6-16-21.5-26.9-26.6-29.8c-2.9-1.7-3.1-3.3-3.3-4.5c0-0.4-0.2-0.9-0.4-1.2
	c-0.1-0.1-0.1-0.2-0.2-0.2c-0.2,0.1-0.6,1.2-0.4,3.2c0,0.3,0.1,0.9,0.1,1.5c0.1,3.8,0.4,12.6,8.5,23.4c4.7,6.4,10.2,8.3,14,8.9
	c2.4,0.3,4.8,0.2,7.1-0.4c0.1,0,0.3,0,0.4,0c0.1,0.1,0.2,0.2,0.3,0.3c0,0.1,0,0.1,0,0.2c0,0.1,0,0.1-0.1,0.2c0,0.1-0.1,0.1-0.1,0.2
	c-0.1,0-0.1,0.1-0.2,0.1C47.2,197.8,45.6,198.1,43.9,198z"/>
<path class="st0" d="M48.7,196.2L48.7,196.2c-0.4-0.1-8.1-1.4-16.4-8.8c-5.1-4.8-8.9-10.8-10.8-17.6c0-0.1,0-0.1,0-0.2
	c0-0.1,0-0.1,0.1-0.2c0-0.1,0.1-0.1,0.1-0.1c0.1,0,0.1-0.1,0.2-0.1c0.1,0,0.1,0,0.2,0s0.1,0,0.2,0.1c0.1,0,0.1,0.1,0.1,0.1
	c0,0.1,0.1,0.1,0.1,0.2c1.9,6.5,5.5,12.4,10.5,17.1c8.1,7.2,15.7,8.6,15.8,8.6c0.1,0,0.2,0.1,0.3,0.2c0.1,0.1,0.1,0.2,0.1,0.4
	c0,0.1-0.1,0.2-0.2,0.3C48.9,196.2,48.8,196.2,48.7,196.2z"/>
<path class="st0" d="M53.6,196.1c-0.1,0-0.3,0-0.4-0.1c-0.1-0.1-0.2-0.2-0.2-0.3c0-0.1,0-0.3,0.1-0.4c0.1-0.1,0.2-0.2,0.3-0.2
	c0.1,0,9.6-2,9.9-19.6c0.4-19.4-3.5-28.7-5.9-31.1c-0.5-0.5-0.9-0.8-1.2-0.7c-0.9,0.4-1,4.6-1.1,7.2c-0.1,3.4-1.7,6.7-4,11.3
	c-0.8,1.6-1.6,3.3-2.6,5.2c-3.4,7.3-1.6,20-1.6,20.1c0,0.1,0,0.1,0,0.2c0,0.1,0,0.1-0.1,0.2c0,0.1-0.1,0.1-0.1,0.1
	c-0.1,0-0.1,0.1-0.2,0.1c-0.1,0-0.1,0-0.2,0c-0.1,0-0.1-0.1-0.2-0.1c-0.1,0-0.1-0.1-0.1-0.2c0-0.1,0-0.1-0.1-0.2
	c-0.1-0.5-1.9-13.1,1.6-20.7c0.9-2,1.8-3.7,2.6-5.3c2.2-4.4,3.8-7.6,3.9-10.8c0.1-4.5,0.2-7.5,1.7-8.1c1-0.4,1.9,0.6,2.3,0.9
	c3.4,3.4,6.6,14.6,6.2,31.8c-0.4,18.5-10.3,20.5-10.7,20.5L53.6,196.1z"/>
<path class="st0" d="M41.9,200.6c-3-0.1-3.1-0.6-3.1-0.9c-0.1-0.2,0.2-0.7,0.7-0.9c0.7-0.3,1.5-0.4,2.3-0.4c0.6,0.1,1.2,0,1.7-0.2
	c1.3-0.4,1.5-0.9,1.5-0.9c0-0.1,0-0.1,0.1-0.2c0-0.1,0.1-0.1,0.1-0.1c0.1,0,0.1-0.1,0.2-0.1c0.1,0,0.1,0,0.2,0
	c0.1,0,0.2,0.1,0.3,0.2c0.1,0.1,0.1,0.3,0.1,0.4c0,0.2-0.3,1-2.2,1.6c-0.7,0.2-1.4,0.3-2.1,0.2c-0.4,0-0.7,0-1.1,0
	c0.4,0.1,0.9,0.1,1.4,0.1c0.1,0,0.3,0.1,0.4,0.1s0.1,0.2,0.1,0.4c0,0.1-0.1,0.3-0.1,0.4C42.1,200.5,42,200.6,41.9,200.6L41.9,200.6z
	"/>
<path class="st0" d="M57.1,197.7c-0.1,0-0.1,0-0.2,0c-0.1,0-0.1-0.1-0.2-0.1c-0.1-0.1-0.1-0.2-0.1-0.4s0.1-0.3,0.1-0.4
	c0.3-0.3,0.6-0.6,0.9-1l-0.1,0.1c-0.4,0.4-0.9,1.1-1.6,0.7c-0.3-0.2-0.5-0.4-0.7-0.7c-0.2-0.3-0.3-0.6-0.4-0.9c0-0.1,0-0.3,0.1-0.4
	c0.1-0.1,0.2-0.2,0.3-0.2c0.1,0,0.3,0,0.4,0.1c0.1,0.1,0.2,0.2,0.2,0.3c0.1,0.4,0.3,0.7,0.6,0.9c0.1-0.2,0.2-0.3,0.4-0.5
	c0.4-0.4,1-1.2,1.7-0.6c0.1,0.1,0.2,0.2,0.3,0.3c0.1,0.1,0.1,0.2,0.1,0.4c0.1,0.8-1,1.9-1.4,2.3C57.4,197.6,57.2,197.7,57.1,197.7z"
	/>
<path class="st0" d="M53.5,193.9c-0.1,0-0.1,0-0.2,0c-0.1,0-0.1-0.1-0.2-0.1c0,0-0.1-0.1-0.1-0.2c0-0.1,0-0.1,0-0.2
	c0-0.1,0-0.1,0-0.2c4.9-12.2,6.7-25.5,5.3-38.6c0-0.1,0-0.3,0.1-0.4c0.1-0.1,0.2-0.2,0.3-0.2c0.1,0,0.1,0,0.2,0c0.1,0,0.1,0,0.2,0.1
	c0.1,0,0.1,0.1,0.1,0.2c0,0.1,0.1,0.1,0.1,0.2c2.5,21.2-5.3,38.9-5.4,39.1c0,0.1-0.1,0.1-0.2,0.2C53.7,193.8,53.6,193.9,53.5,193.9z
	"/>
<path class="st0" d="M46.4,185.6c-0.1,0-0.2,0-0.3-0.1c-0.1,0-0.1-0.1-0.2-0.2c-0.1-0.1-6.6-13.2-4.5-32.9
	c0.9-8.5,2.8-16.9,5.9-24.9c1-2.8,1.7-4.6,1.5-5.8c-0.1-0.6-0.9-5.8,0.6-6.5c0.3-0.1,0.8-0.1,1.3,0.5c1.5,1.9,6.1,16,5.8,27.6
	c0,0.1,0,0.1,0,0.2c0,0.1-0.1,0.1-0.1,0.2s-0.1,0.1-0.2,0.1c-0.1,0-0.1,0-0.2,0s-0.1,0-0.2,0c-0.1,0-0.1-0.1-0.2-0.1
	c0,0-0.1-0.1-0.1-0.2c0-0.1,0-0.1,0-0.2c0.3-11.7-4.4-25.5-5.6-27l-0.1-0.1c-0.3,0.6-0.4,2.7,0.1,5.3c0.2,1.4-0.5,3.3-1.5,6.3
	c-3,7.9-5,16.2-5.8,24.7c-2.1,19.3,4.3,32.2,4.4,32.3c0,0.1,0.1,0.1,0.1,0.2c0,0.1,0,0.1,0,0.2c0,0.1-0.1,0.1-0.1,0.2
	c0,0.1-0.1,0.1-0.2,0.1C46.6,185.5,46.5,185.5,46.4,185.6z"/>
<path class="st0" d="M46.6,174.2c-0.1,0-0.3-0.1-0.4-0.1c-0.1-0.1-0.1-0.2-0.2-0.3c0-0.2-0.1-4.4,1.5-13.6
	c1.6-9.2,3.5-30.9,3.5-31.1c0-0.1,0.1-0.3,0.2-0.3c0.1-0.1,0.2-0.1,0.4-0.1c0.1,0,0.1,0,0.2,0.1c0.1,0,0.1,0.1,0.2,0.1
	c0,0.1,0.1,0.1,0.1,0.2c0,0.1,0,0.1,0,0.2c0,0.2-1.9,22.1-3.5,31.2c-1.6,9.1-1.5,13.3-1.5,13.4c0,0.1-0.1,0.3-0.1,0.4
	C46.9,174.2,46.7,174.2,46.6,174.2L46.6,174.2z"/>
<path class="st0" d="M34.2,173.6c-0.1,0-0.1,0-0.2,0c-0.1,0-0.1-0.1-0.2-0.1c-0.1-0.1-7.3-8.5-9.1-19.7c-1.8-11.3-2.5-15-3.7-16.6
	c-0.7-0.9-0.7-2-0.1-2.6c0.3-0.3,1.7-1.2,4.8,1.4c4.1,3.4,13.7,15.7,16.2,23.7c0,0.1,0,0.3-0.1,0.4c-0.1,0.1-0.2,0.2-0.3,0.2
	s-0.3,0-0.4,0c-0.1-0.1-0.2-0.2-0.2-0.3c-2.3-7.7-11.9-20-15.9-23.2c-2-1.6-3.2-1.7-3.5-1.4c-0.2,0.2-0.2,0.7,0.2,1.2
	c1.3,1.8,2,5.5,3.8,17.1c1.7,11,8.8,19.2,8.8,19.2c0,0.1,0.1,0.1,0.1,0.2c0,0.1,0,0.1,0,0.2c0,0.1,0,0.1-0.1,0.2
	c0,0.1-0.1,0.1-0.1,0.2C34.4,173.5,34.3,173.6,34.2,173.6z"/>
<path class="st0" d="M45.2,182.8c-0.1,0-0.1,0-0.2,0s-0.1-0.1-0.2-0.1c0-0.1-4.2-5.1-9.8-13.3c-5.6-8.1-8.6-22.9-8.7-23.5
	c0-0.1,0-0.1,0-0.2c0-0.1,0-0.1,0.1-0.2c0-0.1,0.1-0.1,0.1-0.1c0.1,0,0.1-0.1,0.2-0.1c0.1,0,0.3,0,0.4,0.1c0.1,0.1,0.2,0.2,0.2,0.3
	c0,0.2,3.1,15.1,8.6,23.1c5.5,8,9.7,13.1,9.8,13.2c0.1,0.1,0.1,0.2,0.1,0.4c0,0.1-0.1,0.3-0.2,0.3C45.4,182.7,45.3,182.8,45.2,182.8
	z"/>
<path class="st0" d="M30.5,142.1c-0.1,0-0.2,0-0.3-0.1c-0.1-0.1-0.1-0.2-0.2-0.3c0-0.1-3.2-10.8-4.2-17.7c-0.2-1.7-0.5-3.1-0.6-4.2
	c-0.5-3-0.7-4.1-0.1-4.6c0.2-0.1,0.3-0.2,0.5-0.3c0.2,0,0.4,0,0.6,0c1.6,0.3,15.4,10.8,18.7,23c0,0.1,0,0.1,0,0.2
	c0,0.1,0,0.1-0.1,0.2c0,0.1-0.1,0.1-0.1,0.2c-0.1,0-0.1,0.1-0.2,0.1c-0.1,0-0.1,0-0.2,0c-0.1,0-0.1,0-0.2-0.1s-0.1-0.1-0.1-0.1
	c0-0.1-0.1-0.1-0.1-0.2c-3.2-11.5-16.4-22-17.9-22.3c-0.1,0-0.2,0-0.3,0c-0.2,0.3,0.1,1.9,0.4,3.7c0.2,1.1,0.4,2.5,0.7,4.2
	c1,6.9,4.1,17.5,4.2,17.6c0,0.1,0,0.3,0,0.4c-0.1,0.1-0.2,0.2-0.3,0.2C30.6,142.1,30.6,142.1,30.5,142.1z"/>
<path class="st0" d="M41.6,157.1c-0.1,0-0.2,0-0.3-0.1c-0.1-0.1-0.2-0.2-0.2-0.3c-0.9-3.9-2.6-7.6-4.9-10.8c-4-5.9-6.5-19-6.6-19.6
	c0-0.1,0-0.1,0-0.2c0-0.1,0-0.1,0.1-0.2c0-0.1,0.1-0.1,0.1-0.1c0.1,0,0.1-0.1,0.2-0.1c0.1,0,0.3,0,0.4,0.1c0.1,0.1,0.2,0.2,0.2,0.3
	c0,0.1,2.5,13.5,6.4,19.2c2.4,3.4,4.1,7.2,5,11.2c0,0.1,0,0.1,0,0.2c0,0.1,0,0.1-0.1,0.2c0,0.1-0.1,0.1-0.1,0.1
	C41.8,157.1,41.8,157.1,41.6,157.1L41.6,157.1z"/>
<path class="st0" d="M47.6,128.8c-0.1,0-0.1,0-0.2,0c-0.1,0-0.1-0.1-0.2-0.1c0,0-0.1-0.1-0.1-0.2c0-0.1,0-0.1,0-0.2
	c0.2-4.8-0.4-8-2.1-11.3l-0.2-0.4c-3.4-6.6-7.3-14.6-7.9-17.3c-0.4-1.7-1-2.4-1.2-2.5c-0.1,0-0.8,0.1-1.7,3
	c-1.5,4.9,2,23.3,2.1,23.5c0,0.1,0,0.3-0.1,0.4c-0.1,0.1-0.2,0.2-0.3,0.2c-0.1,0-0.3,0-0.4-0.1c-0.1-0.1-0.2-0.2-0.2-0.3
	c-0.1-0.8-3.6-18.8-2-24c0.7-2.5,1.6-3.7,2.6-3.7h0c1.3,0.1,1.9,2.1,2.2,3.3c0.6,3,5.8,13.2,7.8,17.1l0.2,0.4
	c1.8,3.5,2.4,6.8,2.2,11.8c0,0.1-0.1,0.2-0.2,0.3C47.8,128.7,47.7,128.8,47.6,128.8z"/>
<path class="st0" d="M44,136.9c-0.1,0-0.2,0-0.3-0.1c-0.1-0.1-0.2-0.2-0.2-0.3c0-0.1-0.5-6.5-1-10.5c-0.5-4.1-5.2-11.6-5.3-11.7
	c-0.1-0.1-0.1-0.3-0.1-0.4c0-0.1,0.1-0.2,0.2-0.3c0.1-0.1,0.3-0.1,0.4-0.1c0.1,0,0.2,0.1,0.3,0.2c0.2,0.3,4.9,7.8,5.4,12.1
	c0.5,4.2,1,10.5,1,10.6c0,0.1,0,0.3-0.1,0.4C44.3,136.8,44.2,136.8,44,136.9L44,136.9z"/>
<ellipse class="st0" cx="137.8" cy="140.6" rx="0.4" ry="0.4"/>
<ellipse class="st0" cx="143.5" cy="142" rx="0.9" ry="0.9"/>
<ellipse class="st0" cx="137.4" cy="140.2" rx="0.9" ry="0.9"/>
<ellipse transform="matrix(0.4454 -0.8953 0.8953 0.4454 -61.4577 163.5765)" class="st0" cx="101.3" cy="131.4" rx="3.3" ry="0.7"/>
</svg>
