<?xml version="1.0" encoding="utf-8"?>
<!-- Generator: Adobe Illustrator 24.0.2, SVG Export Plug-In . SVG Version: 6.00 Build 0)  -->
<svg version="1.1" id="Слой_1" xmlns="http://www.w3.org/2000/svg" xmlns:xlink="http://www.w3.org/1999/xlink" x="0px" y="0px"
	 viewBox="0 0 83 83" style="enable-background:new 0 0 83 83;" xml:space="preserve">
<style type="text/css">
	.st0{clip-path:url(#SVGID_2_);}
</style>
<g>
	<defs>
		
			<rect id="SVGID_1_" x="11.9" y="11.9" transform="matrix(0.6217 -0.7832 0.7832 0.6217 -16.7006 47.9014)" width="58.7" height="58.7"/>
	</defs>
	<clipPath id="SVGID_2_">
		<use xlink:href="#SVGID_1_"  style="overflow:visible;"/>
	</clipPath>
	<g class="st0">
		<path d="M48.3,51.7c3.2-0.8,6-2.6,8-5.2c2.5-3.2,3.6-7.2,3.2-11.2c-0.5-4-2.5-7.6-5.8-10.1c-3.1-2.4-7-3.5-11-3
			c-3.9,0.5-7.5,2.4-10,5.5c-2.1,2.6-3.3,5.8-3.3,9.2c-0.1,5.5-2,10.8-5.3,14.9l-3.6,4.6c-1.6,2-1.3,5,0.8,6.6l3.4,2.7
			c2,1.6,5,1.3,6.6-0.8l3.6-4.6C38.3,56.1,42.9,53.1,48.3,51.7z M31.4,36.8c0.1-2.9,1.1-5.7,2.9-8c4.4-5.5,12.6-6.5,18.2-2.1
			c2.8,2.2,4.6,5.3,5,8.8c0.4,3.5-0.5,7-2.7,9.8c-1.8,2.3-4.2,3.8-7,4.6c-5.7,1.5-10.6,4.6-14.2,9l-7.7-6.1
			C29.3,48.2,31.3,42.6,31.4,36.8z M22.5,57l0.5-0.6l7,7l-0.2,0.2c-0.1,0.1-0.2,0.2-0.3,0.3L22.5,57z M24.1,54.8l0.5-0.7l7.7,6.1
			l-1.2,1.6L24.1,54.8z M22.5,61.4c-0.8-0.6-1.2-1.7-1-2.6l5.9,5.9c-0.5,0-1.1-0.2-1.5-0.6L22.5,61.4L22.5,61.4z"/>
		<path d="M36.1,32.3c0.3-0.4,0.5-0.9,0.9-1.3c0.3-0.4,0.3-1-0.1-1.4c-0.4-0.3-1-0.3-1.4,0.1c-0.4,0.5-0.7,1-1,1.5
			c-0.2,0.4-0.1,0.9,0.2,1.2c0,0,0.1,0.1,0.1,0.1C35.3,32.9,35.9,32.8,36.1,32.3z"/>
		<path d="M31.5,47.3c0.1,0.1,0.2,0.1,0.3,0.1c0.5,0.2,1.1-0.1,1.2-0.6c1.2-3.2,1.8-6.6,1.9-10c0-0.6,0.1-1.1,0.2-1.7
			c0.1-0.5-0.2-1-0.8-1.1c-0.5-0.1-1,0.2-1.1,0.8c-0.1,0.7-0.2,1.3-0.2,2c-0.1,3.2-0.7,6.4-1.8,9.4C31,46.6,31.2,47.1,31.5,47.3z"/>
		<path d="M50.4,46c-0.3-0.5-0.8-0.6-1.3-0.4c-0.7,0.4-1.4,0.7-2.2,0.8c-0.5,0.1-0.8,0.7-0.7,1.2c0.1,0.2,0.2,0.4,0.3,0.5
			c0.2,0.2,0.5,0.3,0.8,0.2c0.9-0.2,1.8-0.6,2.6-1C50.5,47.1,50.7,46.5,50.4,46z"/>
		<path d="M50.5,29.5c4.2,3.3,4.9,9.4,1.6,13.6c-0.2,0.2-0.4,0.5-0.6,0.7c-0.4,0.4-0.4,1,0,1.4c0,0,0,0,0.1,0.1
			c0.4,0.3,1,0.3,1.3-0.1c0.2-0.3,0.5-0.5,0.7-0.8c4-5,3.1-12.3-1.9-16.3c-0.4-0.3-1-0.3-1.4,0.2C50,28.6,50.1,29.2,50.5,29.5z"/>
		<path d="M54.9,24c0.4,0.3,1,0.3,1.4-0.2l3.4-4.2c0.3-0.4,0.3-1-0.2-1.4c-0.4-0.3-1-0.3-1.4,0.2l-3.4,4.2
			C54.4,23.1,54.5,23.7,54.9,24z"/>
		<path d="M46.1,19.4c-0.1,0.4,0.1,0.7,0.4,0.9c0.1,0.1,0.3,0.2,0.5,0.2c0.5,0.1,1-0.3,1.1-0.8l0.8-5.3c0.1-0.5-0.3-1-0.8-1.1
			c-0.5-0.1-1,0.3-1.1,0.8L46.1,19.4z"/>
		<path d="M53.9,58.5l-2-5c-0.2-0.5-0.8-0.7-1.3-0.5c-0.5,0.2-0.7,0.8-0.5,1.3l2,5c0.1,0.2,0.2,0.3,0.3,0.4c0.3,0.2,0.6,0.3,1,0.1
			C53.8,59.6,54.1,59,53.9,58.5z"/>
		<path d="M35,15.9l2,5c0.1,0.2,0.2,0.3,0.3,0.4c0.3,0.2,0.6,0.3,1,0.1c0.5-0.2,0.7-0.8,0.5-1.3l-2-5c-0.2-0.5-0.8-0.7-1.3-0.5
			C35,14.9,34.8,15.4,35,15.9z"/>
		<path d="M63.2,50.9L59,47.6c-0.4-0.3-1-0.3-1.4,0.2c-0.3,0.4-0.3,1,0.2,1.4l4.2,3.4c0.4,0.3,1,0.3,1.4-0.2
			C63.7,51.9,63.7,51.3,63.2,50.9z"/>
		<path d="M31.2,26.7c0.3-0.4,0.3-1-0.2-1.4L26.8,22c-0.4-0.3-1-0.3-1.4,0.2c-0.3,0.4-0.3,1,0.2,1.4l4.2,3.4
			C30.2,27.2,30.8,27.1,31.2,26.7z"/>
		<path d="M61.5,40.6c0.1,0.1,0.3,0.2,0.5,0.2l5.3,0.8c0.5,0.1,1-0.3,1.1-0.8c0.1-0.5-0.3-1-0.8-1.1l-5.3-0.8
			c-0.5-0.1-1,0.3-1.1,0.8C61.1,40.1,61.2,40.4,61.5,40.6z"/>
		<path d="M26.9,33.7l-5.3-0.8c-0.5-0.1-1,0.3-1.1,0.8c-0.1,0.4,0.1,0.7,0.4,0.9c0.1,0.1,0.3,0.2,0.5,0.2l5.3,0.8
			c0.5,0.1,1-0.3,1.1-0.8C27.8,34.2,27.4,33.7,26.9,33.7z"/>
		<path d="M60.1,31c0.1,0.2,0.2,0.3,0.3,0.4c0.3,0.2,0.6,0.3,1,0.1l5-2c0.5-0.2,0.7-0.8,0.5-1.3c-0.2-0.5-0.8-0.7-1.3-0.5l-5,2
			C60.2,30,59.9,30.5,60.1,31z"/>
	</g>
</g>
</svg>
