<?xml version="1.0" encoding="utf-8"?>
<!-- Generator: Adobe Illustrator 24.0.2, SVG Export Plug-In . SVG Version: 6.00 Build 0)  -->
<svg version="1.1" id="Слой_1" xmlns="http://www.w3.org/2000/svg" xmlns:xlink="http://www.w3.org/1999/xlink" x="0px" y="0px"
	 viewBox="0 0 232 154" style="enable-background:new 0 0 232 154;" xml:space="preserve">
<style type="text/css">
	.st0{fill:#263238;}
	.st1{fill:#E8E8E8;}
	.st2{fill:#FFFFFF;}
	.st3{opacity:0.1;}
	.st4{opacity:0.1;enable-background:new    ;}
	.st5{fill:#BFBFBF;}
	.st6{opacity:0.3;enable-background:new    ;}
	.st7{opacity:0.3;}
</style>
<path class="st0" d="M103,87.1c-0.2,0-0.3-0.1-0.4-0.2c-1.8-3-2.5-6.6-2-10c0.5-3.5,2.2-6.7,4.7-9.1c2.6-2.4,5.9-3.9,9.4-4.2
	c3.5-0.3,7,0.6,9.9,2.6c0.2,0.1,0.3,0.5,0.1,0.7c-0.1,0.2-0.5,0.3-0.7,0.1c-2.7-1.8-6-2.7-9.3-2.4c-3.3,0.3-6.4,1.7-8.8,3.9
	c-2.4,2.2-4,5.3-4.4,8.5c-0.5,3.2,0.2,6.6,1.9,9.4c0.1,0.2,0.1,0.5-0.2,0.7C103.2,87.1,103.1,87.1,103,87.1z"/>
<path class="st0" d="M129.7,73.4c-0.2,0-0.4-0.1-0.4-0.3c-0.3-0.6-0.6-1.3-1-1.8c-0.1-0.2-0.1-0.5,0.2-0.7c0.2-0.1,0.5-0.1,0.7,0.2
	c0.4,0.6,0.7,1.3,1,2c0.1,0.2,0,0.5-0.2,0.6C129.8,73.4,129.8,73.4,129.7,73.4z"/>
<path class="st0" d="M128.4,87.8c-0.1,0-0.2,0-0.3-0.1c-0.2-0.1-0.3-0.5-0.1-0.7c1.1-1.6,1.8-3.4,2.2-5.3c0.4-1.9,0.4-3.9,0-5.8
	c-0.1-0.3,0.1-0.5,0.4-0.6c0.3-0.1,0.5,0.1,0.6,0.4c0.4,2,0.4,4.1,0,6.1c-0.4,2-1.2,3.9-2.4,5.7C128.7,87.8,128.6,87.8,128.4,87.8z"
	/>
<path class="st0" d="M98.3,67.9c-0.1,0-0.2,0-0.3-0.1c-0.2-0.1-0.3-0.4-0.1-0.7c0.8-1.2,1.8-2.4,2.8-3.4c0.2-0.2,0.5-0.2,0.7,0
	s0.2,0.5,0,0.7c-1,1-1.9,2.1-2.7,3.3C98.6,67.9,98.4,67.9,98.3,67.9z"/>
<path class="st0" d="M132.6,92.3c-0.1,0-0.2,0-0.3-0.1c-0.2-0.2-0.2-0.5-0.1-0.7c3-3.8,4.5-8.5,4.3-13.3c-0.2-4.8-2.1-9.4-5.3-13
	c-3.2-3.6-7.6-5.9-12.4-6.6c-4.8-0.7-9.7,0.3-13.8,2.9c-0.2,0.1-0.5,0.1-0.7-0.2c-0.1-0.2-0.1-0.5,0.2-0.7c4.3-2.6,9.4-3.7,14.4-3
	c5,0.7,9.6,3.2,13,6.9c3.4,3.7,5.3,8.6,5.5,13.6c0.2,5-1.4,10-4.5,14C132.9,92.3,132.8,92.3,132.6,92.3z"/>
<path class="st0" d="M99.2,92.3c-0.1,0-0.3-0.1-0.4-0.2c-2.1-2.7-3.6-6-4.2-9.4c-0.6-3.4-0.4-7,0.7-10.3c0.1-0.3,0.4-0.4,0.6-0.3
	c0.3,0.1,0.4,0.4,0.3,0.6c-1,3.2-1.2,6.5-0.6,9.8c0.6,3.3,2,6.4,4,9c0.2,0.2,0.1,0.5-0.1,0.7C99.4,92.3,99.3,92.3,99.2,92.3z"/>
<path class="st0" d="M97,102.2c-0.1,0-0.2,0-0.3-0.1c-1.7-1.4-3.2-2.9-4.5-4.6c-0.2-0.2-0.1-0.5,0.1-0.7c0.2-0.2,0.5-0.1,0.7,0.1
	c1.3,1.6,2.8,3.1,4.4,4.5c0.2,0.2,0.2,0.5,0.1,0.7C97.3,102.2,97.2,102.2,97,102.2z"/>
<path class="st0" d="M88.6,91c-0.2,0-0.4-0.1-0.4-0.3c-2.5-5.9-3.1-12.7-1.5-18.9c1.5-6.3,5.2-12,10.2-16.1c5-4.1,11.3-6.5,17.8-6.8
	c6.5-0.3,13,1.6,18.3,5.2c0.2,0.2,0.3,0.5,0.1,0.7c-0.2,0.2-0.5,0.3-0.7,0.1c-5.2-3.5-11.5-5.3-17.7-5.1c-6.3,0.3-12.4,2.6-17.2,6.6
	c-4.9,4-8.4,9.5-9.8,15.5c-1.5,6.1-1,12.6,1.5,18.3c0.1,0.2,0,0.5-0.3,0.6C88.8,91,88.7,91,88.6,91z"/>
<path class="st0" d="M143.6,68.8c-0.2,0-0.4-0.1-0.5-0.3c-0.8-2-1.8-3.9-3-5.7c-0.2-0.2-0.1-0.5,0.1-0.7c0.2-0.2,0.5-0.1,0.7,0.1
	c1.3,1.9,2.3,3.8,3.1,5.9c0.1,0.2,0,0.5-0.3,0.6C143.7,68.8,143.7,68.8,143.6,68.8z"/>
<path class="st0" d="M136.4,100.8c-0.1,0-0.3,0-0.4-0.2c-0.2-0.2-0.2-0.5,0-0.7c2.9-2.7,5.1-5.9,6.7-9.6c1.6-3.6,2.3-7.5,2.3-11.4
	c0-0.3,0.2-0.5,0.5-0.5c0,0,0,0,0,0c0.3,0,0.5,0.2,0.5,0.5c0,4.1-0.8,8-2.4,11.8c-1.6,3.7-3.9,7.1-6.9,9.9
	C136.7,100.8,136.6,100.8,136.4,100.8z"/>
<path class="st0" d="M109.2,120.4C109.2,120.4,109.1,120.4,109.2,120.4c-9.9-1.7-18.8-6.7-25.2-14.3C77.5,98.5,74,88.9,74,79
	c0-0.3,0.2-0.5,0.5-0.5S75,78.7,75,79c0,9.7,3.5,19.1,9.7,26.5c6.3,7.4,15,12.3,24.6,14c0.3,0,0.4,0.3,0.4,0.6
	C109.6,120.2,109.4,120.4,109.2,120.4z"/>
<path class="st0" d="M149.4,104.1c-0.1,0-0.2,0-0.3-0.1c-0.2-0.2-0.3-0.5-0.1-0.7c5-6.8,7.8-14.8,8-23.3c0.2-8.4-2.1-16.6-6.8-23.7
	c-4.7-7-11.3-12.4-19.2-15.5c-7.9-3.1-16.4-3.7-24.7-1.8c-0.3,0.1-0.5-0.1-0.6-0.4c-0.1-0.3,0.1-0.5,0.4-0.6
	c8.4-2,17.2-1.4,25.2,1.8c8.1,3.2,14.9,8.7,19.6,15.9c4.8,7.2,7.2,15.6,7,24.2c-0.2,8.6-3.1,16.9-8.2,23.8
	C149.7,104.1,149.6,104.1,149.4,104.1z"/>
<path class="st0" d="M74.5,79.5L74.5,79.5c-0.3,0-0.5-0.2-0.5-0.5c0-9.4,3.2-18.6,9-25.9s14-12.6,23.2-14.8c0.3-0.1,0.5,0.1,0.6,0.4
	s-0.1,0.5-0.4,0.6c-8.9,2.2-17,7.3-22.6,14.5C78.1,60.8,75,69.8,75,79C75,79.2,74.8,79.5,74.5,79.5z"/>
<path class="st0" d="M140.6,112.9c-0.1,0-0.3-0.1-0.4-0.2c-0.2-0.2-0.1-0.5,0.1-0.7c1-0.8,2-1.6,3-2.4c0.2-0.2,0.5-0.2,0.7,0
	c0.2,0.2,0.2,0.5,0,0.7c-1,0.9-2,1.7-3.1,2.5C140.8,112.9,140.7,112.9,140.6,112.9z"/>
<path class="st0" d="M122.9,120.4c-0.2,0-0.4-0.2-0.5-0.4c0-0.3,0.1-0.5,0.4-0.6c4.7-0.8,9.2-2.4,13.3-4.7c0.2-0.1,0.5,0,0.7,0.2
	c0.1,0.2,0,0.5-0.2,0.7C132.3,117.9,127.8,119.6,122.9,120.4C122.9,120.4,122.9,120.4,122.9,120.4z"/>
<path class="st0" d="M115.9,116.2c-4.2,0-8.3-1.7-11.2-4.6c-3-3-4.7-7-4.7-11.2V95c0-0.2,0.1-0.4,0.3-0.6c0.2-0.2,0.4-0.3,0.6-0.3
	h2.2c0.2,0,0.5,0.1,0.6,0.3c0.2,0.2,0.3,0.4,0.3,0.6c0,0.2-0.1,0.4-0.3,0.6c-0.2,0.2-0.4,0.3-0.6,0.3h-1.3v4.5c0,3.7,1.5,7.3,4.2,10
	c2.7,2.6,6.3,4.1,10,4.1c3.8,0,7.4-1.5,10-4.1c2.7-2.6,4.2-6.2,4.2-10v-4.5h-1.3c-0.2,0-0.4-0.1-0.6-0.3c-0.2-0.2-0.3-0.4-0.3-0.6
	c0-0.2,0.1-0.4,0.3-0.6c0.2-0.2,0.4-0.3,0.6-0.3h2.2c0.2,0,0.5,0.1,0.6,0.3c0.2,0.2,0.3,0.4,0.3,0.6v5.3c0,4.2-1.7,8.2-4.7,11.2
	C124.2,114.5,120.2,116.2,115.9,116.2L115.9,116.2z"/>
<path class="st0" d="M132.7,129.4v-1.7c0-0.2,0-0.5-0.1-0.7c-0.1-0.2-0.2-0.4-0.4-0.6c-0.2-0.2-0.4-0.3-0.6-0.4
	c-0.2-0.1-0.4-0.1-0.7-0.1h-30.1c-0.2,0-0.5,0-0.7,0.1c-0.2,0.1-0.4,0.2-0.6,0.4c-0.2,0.2-0.3,0.4-0.4,0.6c-0.1,0.2-0.1,0.4-0.1,0.7
	v1.7H132.7z"/>
<path class="st0" d="M117.6,128.1c0-0.1,0-0.2,0-0.4v-12.4h-3.5v12.4c0,0.1,0,0.3,0,0.4H117.6z"/>
<path class="st0" d="M115.9,111.3c-3,0-5.7-1.1-7.9-3.2c-2.1-2.1-3.3-4.8-3.3-7.8V79c0-1.5,0.2-2.9,0.8-4.3c0.6-1.4,1.4-2.6,2.4-3.7
	c1-1.1,2.3-1.9,3.7-2.5c2.8-1.2,5.9-1.1,8.7,0c1.4,0.6,2.6,1.4,3.7,2.5c1,1.1,1.9,2.3,2.4,3.7c0.6,1.4,0.8,2.8,0.8,4.3v21.3
	c0,3-1.2,5.7-3.3,7.8C121.7,110.2,118.9,111.3,115.9,111.3z M115.9,68.6c-1.4,0-2.7,0.3-4,0.8c-1.3,0.5-2.4,1.3-3.3,2.3
	c-1,1-1.7,2.1-2.2,3.4c-0.5,1.3-0.8,2.6-0.7,4v21.3c0,2.7,1.1,5.2,3.1,7.1s4.5,2.9,7.2,2.9c2.7,0,5.2-1,7.2-2.9
	c1.9-1.9,3-4.4,3.1-7.1V79c0,0,0,0,0,0c0-1.4-0.2-2.7-0.7-4c-0.5-1.3-1.2-2.4-2.2-3.4c-1-1-2.1-1.7-3.3-2.3
	C118.6,68.9,117.3,68.6,115.9,68.6z"/>
<path class="st1" d="M126.7,79c0-1.4-0.2-2.8-0.8-4.1c-0.5-1.3-1.3-2.5-2.3-3.5c-1-1-2.2-1.8-3.5-2.4c-1.3-0.5-2.7-0.8-4.1-0.8
	c-1.4,0-2.8,0.3-4.1,0.8c-1.3,0.5-2.5,1.4-3.5,2.4c-1,1-1.8,2.2-2.3,3.5c-0.5,1.3-0.8,2.7-0.8,4.1v21.3c0,2.8,1.2,5.5,3.2,7.4
	c2,2,4.7,3.1,7.5,3.1c2.8,0,5.5-1.1,7.5-3.1c2-2,3.2-4.6,3.2-7.4V79z"/>
<path class="st2" d="M111.5,80.1h-6.3v2.6h6.3c0.3,0,0.7-0.1,0.9-0.4c0.2-0.2,0.4-0.6,0.4-0.9c0-0.3-0.1-0.7-0.4-0.9
	C112.2,80.2,111.8,80.1,111.5,80.1L111.5,80.1z"/>
<path class="st2" d="M126.7,80.1h-6.3c-0.3,0-0.7,0.1-0.9,0.4c-0.2,0.2-0.4,0.6-0.4,0.9c0,0.3,0.1,0.7,0.4,0.9
	c0.2,0.2,0.6,0.4,0.9,0.4h6.3V80.1z"/>
<path class="st2" d="M115.9,80.1c-0.3,0-0.5,0.1-0.7,0.2c-0.2,0.1-0.4,0.3-0.5,0.6c-0.1,0.2-0.1,0.5-0.1,0.7
	c0.1,0.3,0.2,0.5,0.4,0.7c0.2,0.2,0.4,0.3,0.7,0.4c0.3,0,0.5,0,0.8-0.1s0.4-0.3,0.6-0.5c0.1-0.2,0.2-0.5,0.2-0.7
	c0-0.3-0.1-0.7-0.4-0.9C116.6,80.2,116.3,80.1,115.9,80.1L115.9,80.1z"/>
<path class="st2" d="M115.9,85.3c-0.3,0-0.5,0.1-0.7,0.2c-0.2,0.1-0.4,0.3-0.5,0.6c-0.1,0.2-0.1,0.5-0.1,0.7
	c0.1,0.3,0.2,0.5,0.4,0.7c0.2,0.2,0.4,0.3,0.7,0.4c0.3,0.1,0.5,0,0.8-0.1s0.4-0.3,0.6-0.5c0.1-0.2,0.2-0.5,0.2-0.7
	c0-0.3-0.1-0.7-0.4-0.9C116.6,85.5,116.3,85.3,115.9,85.3L115.9,85.3z"/>
<path class="st2" d="M115.9,90.6c-0.3,0-0.5,0.1-0.7,0.2c-0.2,0.1-0.4,0.3-0.5,0.6c-0.1,0.2-0.1,0.5-0.1,0.7
	c0.1,0.3,0.2,0.5,0.4,0.7s0.4,0.3,0.7,0.4c0.3,0,0.5,0,0.8-0.1s0.4-0.3,0.6-0.5c0.1-0.2,0.2-0.5,0.2-0.7c0-0.3-0.1-0.7-0.4-0.9
	C116.6,90.7,116.3,90.6,115.9,90.6L115.9,90.6z"/>
<path class="st2" d="M111.5,85.3h-6.3v2.6h6.3c0.3,0,0.7-0.1,0.9-0.4c0.2-0.2,0.4-0.6,0.4-0.9s-0.1-0.7-0.4-0.9
	C112.2,85.5,111.8,85.3,111.5,85.3L111.5,85.3z"/>
<path class="st2" d="M126.7,85.3h-6.3c-0.3,0-0.7,0.1-0.9,0.4c-0.2,0.2-0.4,0.6-0.4,0.9c0,0.3,0.1,0.7,0.4,0.9
	c0.2,0.2,0.6,0.4,0.9,0.4h6.3V85.3z"/>
<path class="st2" d="M111.5,90.6h-6.3v2.6h6.3c0.3,0,0.7-0.1,0.9-0.4c0.2-0.2,0.4-0.6,0.4-0.9c0-0.3-0.1-0.7-0.4-0.9
	C112.2,90.7,111.8,90.6,111.5,90.6L111.5,90.6z"/>
<path class="st2" d="M126.7,90.6h-6.3c-0.3,0-0.7,0.1-0.9,0.4c-0.2,0.2-0.4,0.6-0.4,0.9c0,0.3,0.1,0.7,0.4,0.9
	c0.2,0.2,0.6,0.4,0.9,0.4h6.3V90.6z"/>
<path class="st0" d="M115.9,111.3c-3,0-5.7-1.1-7.9-3.2c-2.1-2.1-3.3-4.8-3.3-7.8V79c0-1.5,0.2-2.9,0.8-4.3c0.6-1.4,1.4-2.6,2.4-3.7
	c1-1.1,2.3-1.9,3.7-2.5c2.8-1.2,5.9-1.1,8.7,0c1.4,0.6,2.6,1.4,3.7,2.5c1,1.1,1.9,2.3,2.4,3.7c0.6,1.4,0.8,2.8,0.8,4.3v21.3
	c0,3-1.2,5.7-3.3,7.8C121.7,110.2,118.9,111.3,115.9,111.3z M115.9,68.6c-1.4,0-2.7,0.3-4,0.8c-1.3,0.5-2.4,1.3-3.3,2.3
	c-1,1-1.7,2.1-2.2,3.4c-0.5,1.3-0.8,2.6-0.7,4v21.3c0,2.7,1.1,5.2,3.1,7.1s4.5,2.9,7.2,2.9c2.7,0,5.2-1,7.2-2.9
	c1.9-1.9,3-4.4,3.1-7.1V79c0-1.4-0.2-2.7-0.7-4c-0.5-1.3-1.2-2.4-2.2-3.4c-1-1-2.1-1.7-3.3-2.3C118.6,68.9,117.3,68.6,115.9,68.6z"
	/>
<g>
	<path class="st0" d="M105.2,100.3c0,2.8,1.2,5.5,3.2,7.4c2,2,4.7,3.1,7.5,3.1c2.8,0,5.5-1.1,7.5-3.1c2-2,3.2-4.6,3.2-7.4H105.2z"/>
	<path class="st0" d="M115.9,111.3c-3,0-5.7-1.1-7.9-3.2c-2.1-2.1-3.3-4.8-3.3-7.8l0-0.5h22.4l0,0.5c0,2.9-1.2,5.7-3.3,7.8
		C121.7,110.2,118.9,111.3,115.9,111.3z M105.7,100.8c0.2,2.5,1.2,4.8,3,6.6c1.9,1.9,4.5,2.9,7.2,2.9c2.7,0,5.2-1,7.2-2.9
		c1.8-1.8,2.9-4.1,3-6.6H105.7z"/>
</g>
<path class="st1" d="M206.8,94.9c13.4-13.3,13.4-34.9,0-48.3c-13.4-13.3-35.1-13.3-48.5,0C145,60,145,81.6,158.4,94.9
	C171.8,108.3,193.5,108.3,206.8,94.9z"/>
<path class="st2" d="M177.7,56.7h-23.9c-1.2,0-2.2,1-2.2,2.2v23.8c0,1.2,1,2.2,2.2,2.2h23.9c1.2,0,2.2-1,2.2-2.2V58.9
	C179.9,57.7,178.9,56.7,177.7,56.7z"/>
<g class="st3">
	<path class="st4" d="M154.2,84.9h9.4l6-28.2h-9.8l-6,28.2C154,84.9,154.1,84.9,154.2,84.9L154.2,84.9z"/>
	<path class="st4" d="M173.7,56.7h-2.4l-6,28.2h2.4L173.7,56.7z"/>
</g>
<g>
	<path class="st2" d="M177.2,85.6h-23c-0.9,0-1.8-0.4-2.4-1c-0.6-0.6-1-1.5-1-2.4V59.4c0-0.9,0.4-1.7,1-2.4c0.6-0.6,1.5-1,2.4-1h23
		c0.9,0,1.8,0.4,2.4,1c0.6,0.6,1,1.5,1,2.4v22.9c0,0.9-0.4,1.7-1,2.4C179,85.2,178.1,85.6,177.2,85.6L177.2,85.6z M154.2,57.4
		c-0.5,0-1,0.2-1.4,0.6c-0.4,0.4-0.6,0.9-0.6,1.4v22.9c0,0.5,0.2,1,0.6,1.4c0.4,0.4,0.9,0.6,1.4,0.6h23c0.3,0,0.5-0.1,0.8-0.1
		c0.2-0.1,0.5-0.2,0.6-0.4c0.2-0.2,0.3-0.4,0.4-0.6c0.1-0.2,0.1-0.5,0.1-0.7V59.4c0-0.3-0.1-0.5-0.1-0.7c-0.1-0.2-0.2-0.5-0.4-0.6
		c-0.2-0.2-0.4-0.3-0.6-0.4c-0.2-0.1-0.5-0.1-0.8-0.1H154.2z"/>
	<path class="st0" d="M177.2,86.1h-23c-1,0-2-0.4-2.7-1.1c-0.7-0.7-1.1-1.7-1.1-2.7V59.4c0-1,0.4-2,1.1-2.7c0.7-0.7,1.7-1.1,2.7-1.1
		h23c1,0,2,0.4,2.7,1.1c0.7,0.7,1.1,1.7,1.1,2.7v22.9c0,1-0.4,2-1.1,2.7C179.2,85.7,178.2,86.1,177.2,86.1z M154.2,56.5
		c-0.8,0-1.5,0.3-2.1,0.9c-0.5,0.5-0.9,1.3-0.9,2v22.9c0,0.8,0.3,1.5,0.9,2c0.5,0.5,1.3,0.8,2.1,0.8h23c0.8,0,1.5-0.3,2.1-0.8
		c0.6-0.5,0.9-1.3,0.9-2V59.4c0-0.8-0.3-1.5-0.9-2c-0.5-0.5-1.3-0.8-2.1-0.8H154.2z M177.2,84.7h-23c-0.6,0-1.3-0.3-1.7-0.7
		c-0.5-0.5-0.7-1.1-0.7-1.7V59.4c0-0.6,0.3-1.3,0.7-1.7c0.5-0.4,1.1-0.7,1.7-0.7h23c0.3,0,0.6,0.1,0.9,0.2c0.3,0.1,0.6,0.3,0.8,0.5
		c0.2,0.2,0.4,0.5,0.5,0.8c0.1,0.3,0.2,0.6,0.2,0.9v22.9c0,0.3-0.1,0.6-0.2,0.9c-0.1,0.3-0.3,0.6-0.5,0.8c-0.2,0.2-0.5,0.4-0.8,0.5
		C177.8,84.6,177.5,84.7,177.2,84.7z M154.2,57.9c-0.4,0-0.8,0.2-1.1,0.4c-0.3,0.3-0.4,0.7-0.4,1.1v22.9c0,0.4,0.2,0.8,0.4,1.1
		c0.3,0.3,0.7,0.4,1.1,0.4h23c0.2,0,0.4,0,0.6-0.1c0.2-0.1,0.3-0.2,0.5-0.3c0.1-0.1,0.3-0.3,0.3-0.5c0.1-0.2,0.1-0.4,0.1-0.6V59.4
		c0-0.2,0-0.4-0.1-0.6c-0.1-0.2-0.2-0.3-0.3-0.5c-0.1-0.1-0.3-0.2-0.5-0.3c-0.2-0.1-0.4-0.1-0.6-0.1H154.2z"/>
</g>
<path class="st2" d="M211,56.7h-23.9c-1.2,0-2.2,1-2.2,2.2v23.8c0,1.2,1,2.2,2.2,2.2H211c1.2,0,2.2-1,2.2-2.2V58.9
	C213.2,57.7,212.2,56.7,211,56.7z"/>
<g class="st3">
	<path class="st4" d="M190,84.9h9.4l6-28.2h-9.8l-6,28.2C189.8,84.9,189.9,84.9,190,84.9L190,84.9z"/>
	<path class="st4" d="M209.5,56.7h-2.4l-6,28.2h2.4L209.5,56.7z"/>
</g>
<g>
	<path class="st2" d="M210.5,85.6h-23c-0.9,0-1.8-0.4-2.4-1c-0.6-0.6-1-1.5-1-2.4V59.4c0-0.9,0.4-1.7,1-2.4c0.6-0.6,1.5-1,2.4-1h23
		c0.9,0,1.8,0.4,2.4,1c0.6,0.6,1,1.5,1,2.4v22.9c0,0.9-0.4,1.7-1,2.4C212.3,85.2,211.4,85.6,210.5,85.6L210.5,85.6z M187.5,57.4
		c-0.5,0-1,0.2-1.4,0.6c-0.4,0.4-0.6,0.9-0.6,1.4v22.9c0,0.5,0.2,1,0.6,1.4c0.4,0.4,0.9,0.6,1.4,0.6h23c0.3,0,0.5-0.1,0.8-0.1
		c0.2-0.1,0.5-0.2,0.6-0.4c0.2-0.2,0.3-0.4,0.4-0.6c0.1-0.2,0.1-0.5,0.1-0.7V59.4c0-0.3-0.1-0.5-0.1-0.7c-0.1-0.2-0.2-0.5-0.4-0.6
		c-0.2-0.2-0.4-0.3-0.6-0.4c-0.2-0.1-0.5-0.1-0.8-0.1H187.5z"/>
	<path class="st0" d="M210.5,86.1h-23c-1,0-2-0.4-2.7-1.1c-0.7-0.7-1.1-1.7-1.1-2.7V59.4c0-1,0.4-2,1.1-2.7c0.7-0.7,1.7-1.1,2.7-1.1
		h23c1,0,2,0.4,2.7,1.1c0.7,0.7,1.1,1.7,1.1,2.7v22.9c0,1-0.4,2-1.1,2.7C212.5,85.7,211.5,86.1,210.5,86.1z M187.5,56.5
		c-0.8,0-1.5,0.3-2.1,0.9c-0.5,0.5-0.9,1.3-0.9,2v22.9c0,0.8,0.3,1.5,0.9,2c0.5,0.5,1.3,0.8,2.1,0.8h23c0.8,0,1.5-0.3,2.1-0.8
		c0.6-0.5,0.9-1.3,0.9-2V59.4c0-0.8-0.3-1.5-0.9-2c-0.5-0.5-1.3-0.8-2.1-0.8H187.5z M210.5,84.7h-23c-0.6,0-1.3-0.3-1.7-0.7
		c-0.5-0.5-0.7-1.1-0.7-1.7V59.4c0-0.6,0.3-1.3,0.7-1.7c0.5-0.5,1.1-0.7,1.7-0.7h23c0.3,0,0.6,0.1,0.9,0.2c0.3,0.1,0.6,0.3,0.8,0.5
		c0.2,0.2,0.4,0.5,0.5,0.8c0.1,0.3,0.2,0.6,0.2,0.9v22.9c0,0.3-0.1,0.6-0.2,0.9c-0.1,0.3-0.3,0.6-0.5,0.8c-0.2,0.2-0.5,0.4-0.8,0.5
		C211.1,84.6,210.8,84.7,210.5,84.7z M187.5,57.9c-0.4,0-0.8,0.2-1.1,0.4c-0.3,0.3-0.4,0.7-0.4,1.1v22.9c0,0.4,0.2,0.8,0.4,1.1
		c0.3,0.3,0.7,0.4,1.1,0.4h23c0.2,0,0.4,0,0.6-0.1c0.2-0.1,0.3-0.2,0.5-0.3c0.1-0.1,0.2-0.3,0.3-0.5c0.1-0.2,0.1-0.4,0.1-0.6V59.4
		c0-0.2,0-0.4-0.1-0.6c-0.1-0.2-0.2-0.3-0.3-0.5c-0.1-0.1-0.3-0.2-0.5-0.3c-0.2-0.1-0.4-0.1-0.6-0.1c0,0,0,0,0,0H187.5z"/>
</g>
<path class="st1" d="M183.5,136.6c8.5,0,15.4-1,15.4-2.3c0-1.2-6.9-2.3-15.4-2.3s-15.4,1-15.4,2.3
	C168.1,135.6,175,136.6,183.5,136.6z"/>
<path class="st2" d="M190.4,121.2c0,0,0,6.3-0.7,7.4c-0.8,1.2-1.4,3,0.8,3.4c2.1,0.5,3.4,2.8,5.9,3c2.5,0.2,2.8-0.9,1.7-1.8
	c-1.1-0.9-3.9-3.3-4.3-4.4c-0.4-1.2,0.3-7.5,0.3-7.5H190.4z"/>
<path class="st4" d="M193.7,124.9c0.1-1.9,0.3-3.7,0.3-3.7h-3.7c0,0,0,1.6-0.1,3.4C191.4,124.7,192.6,124.8,193.7,124.9L193.7,124.9
	z"/>
<path class="st0" d="M196.8,135.4c-0.2,0-0.3,0-0.5,0c-1.5-0.1-2.7-0.9-3.7-1.7c-0.8-0.6-1.5-1.1-2.3-1.3c-0.9-0.2-1.5-0.6-1.7-1.2
	c-0.4-1,0.1-2.1,0.7-2.9c0.4-0.6,0.6-4.5,0.6-7.1c0-0.3,0.2-0.5,0.5-0.5h3.7c0.1,0,0.3,0.1,0.3,0.2c0.1,0.1,0.1,0.2,0.1,0.4
	c-0.3,2.4-0.6,6.5-0.4,7.3c0.3,0.9,2.6,3,4.1,4.2c0.7,0.5,0.9,1.1,0.7,1.7C198.8,134.9,198.3,135.4,196.8,135.4z M190.8,121.6
	c0,1.7-0.1,6.2-0.8,7.2c-0.6,0.9-0.8,1.6-0.6,2.1c0.1,0.3,0.5,0.5,1,0.7c1,0.2,1.9,0.9,2.7,1.5c1,0.7,1.9,1.4,3.1,1.5
	c1.3,0.1,1.8-0.2,1.8-0.3c0-0.1-0.1-0.3-0.4-0.6c-0.2-0.1-3.9-3.1-4.4-4.7c-0.3-1.1,0.1-5.6,0.3-7.2H190.8z"/>
<g>
	<path class="st5" d="M198,133.1c-1-0.8-2-1.7-2.9-2.6c-0.9,0.7-3.5,0-4.2-0.6c-0.9-0.7-0.7-1.1-1.2-1.4l0,0c-0.8,1.2-1.4,3,0.8,3.4
		c2.1,0.5,3.4,2.8,5.9,3C198.8,135.1,199.1,134,198,133.1z"/>
	<path class="st0" d="M196.8,135.4c-0.2,0-0.3,0-0.5,0c-1.5-0.1-2.7-0.9-3.7-1.7c-0.8-0.6-1.5-1.1-2.3-1.3c-0.9-0.2-1.5-0.6-1.7-1.2
		c-0.4-1,0.1-2.1,0.7-2.9l0.3-0.4l0.4,0.3c0.3,0.2,0.4,0.4,0.5,0.6c0.1,0.2,0.2,0.5,0.7,0.8c0.7,0.5,3,1,3.7,0.6l0.3-0.2l0.3,0.3
		c0.9,0.9,1.9,1.8,2.9,2.6c0.7,0.5,0.9,1.1,0.7,1.7C198.8,134.9,198.3,135.4,196.8,135.4z M189.7,129.4c-0.3,0.6-0.4,1.1-0.2,1.5
		c0.1,0.3,0.5,0.5,1,0.7c1,0.2,1.9,0.9,2.7,1.5c1,0.7,1.9,1.4,3.2,1.5c1.3,0.1,1.8-0.2,1.8-0.3c0-0.1-0.1-0.3-0.4-0.6l0,0
		c-1-0.8-1.9-1.6-2.7-2.4c-1.3,0.5-3.6-0.1-4.4-0.8C190.1,129.9,189.8,129.6,189.7,129.4z"/>
</g>
<path class="st2" d="M176.1,118.9c0,0-2.8,5.8-3.8,6.5c-1.3,0.8-2.5,2.2-0.8,3.4c1.7,1.2,1.9,3.8,4.1,4.9c2.2,1.1,3,0.2,2.3-1
	c-0.6-1.2-2.2-4.4-2-5.6c0.2-1.2,3.6-6.9,3.6-6.9L176.1,118.9z"/>
<path class="st4" d="M176.1,118.9c0,0-1,2.1-2,3.9c0.8,0.8,1.8,1.5,2.8,2c1.1-2.1,2.6-4.7,2.6-4.7L176.1,118.9z"/>
<path class="st0" d="M177.3,134.6c-0.5,0-1.1-0.1-1.9-0.5c-1.4-0.7-2.1-1.8-2.6-2.9c-0.5-0.8-0.9-1.6-1.6-2
	c-0.7-0.5-1.1-1.1-1.1-1.7c0-1,1-1.9,1.9-2.5c0.7-0.5,2.6-4.1,3.7-6.3c0.1-0.2,0.4-0.3,0.6-0.2l3.4,1.2c0.1,0,0.2,0.2,0.3,0.3
	c0,0.1,0,0.3,0,0.4c-1.3,2.2-3.4,5.9-3.5,6.7c-0.1,0.9,1.1,3.7,1.9,5.4c0.4,0.7,0.4,1.4,0,1.8C178.1,134.5,177.8,134.6,177.3,134.6z
	 M176.3,119.5c-0.7,1.5-2.8,5.6-3.8,6.3c-0.9,0.6-1.4,1.2-1.4,1.7c0,0.3,0.2,0.6,0.7,0.9c0.9,0.6,1.4,1.5,1.8,2.3
	c0.6,1,1.1,2,2.2,2.5c1.2,0.6,1.7,0.5,1.8,0.3c0.1-0.1,0.1-0.3-0.1-0.7c0,0-2.3-4.3-2-5.9c0.2-1.1,2.5-5.1,3.4-6.6L176.3,119.5z"/>
<g>
	<path class="st5" d="M177.9,132.6c-0.6-1.1-1.1-2.3-1.5-3.5c-1.1,0.3-3.4-1.2-3.6-2.1c-0.5-1.7-0.2-1.3-0.5-1.7l0,0
		c-1.3,0.8-2.5,2.2-0.8,3.4c1.7,1.2,1.9,3.8,4.1,4.9C177.9,134.7,178.6,133.8,177.9,132.6z"/>
	<path class="st0" d="M177.3,134.6c-0.5,0-1.1-0.1-1.9-0.5c-1.4-0.7-2.1-1.8-2.6-2.9c-0.5-0.8-0.9-1.6-1.6-2
		c-0.7-0.5-1.1-1.1-1.1-1.7c0-1,1-1.9,1.9-2.5l0.4-0.3l0.3,0.4c0.1,0.3,0.2,0.3,0.2,0.5c0,0.1,0.1,0.4,0.3,1.3
		c0.2,0.7,2.2,2,3.1,1.7l0.4-0.1l0.1,0.4c0.4,1.2,0.9,2.3,1.5,3.4c0.4,0.7,0.4,1.4,0,1.8C178.1,134.4,177.8,134.6,177.3,134.6z
		 M172,126.1c-0.6,0.5-0.9,1-0.9,1.4c0,0.3,0.2,0.6,0.7,0.9c0.9,0.6,1.4,1.5,1.8,2.3c0.6,1,1.1,2,2.2,2.5c1.2,0.6,1.7,0.5,1.8,0.3
		c0.1-0.1,0.1-0.3-0.1-0.7l0,0c-0.5-1-1-2.1-1.4-3.2c-1.4,0-3.5-1.4-3.8-2.4C172.1,126.7,172.1,126.3,172,126.1z"/>
</g>
<g>
	<path class="st0" d="M190.8,78c0,0,4.3,20.3,4.5,27c0.3,6.6-0.8,18.5-0.8,18.5l-4.7-0.3c0,0,0-3.5-0.5-8.4
		c-0.3-2.9-1.2-6.3-1.1-9.7c0,0-4.5-13.3-4.3-19.1c0.2-5.8,0-7.5,0-7.5L190.8,78z"/>
	<path class="st0" d="M194.5,123.8C194.5,123.8,194.5,123.8,194.5,123.8l-4.8-0.3c-0.2,0-0.4-0.2-0.4-0.5c0,0,0-3.5-0.5-8.3
		c-0.1-1-0.3-2-0.4-3.1c-0.3-2.1-0.7-4.3-0.6-6.5c-0.4-1.2-4.5-13.5-4.3-19.2c0.2-5.7,0-7.4,0-7.4c0-0.1,0-0.3,0.1-0.3
		c0.1-0.1,0.2-0.2,0.3-0.2l6.9-0.5c0.2,0,0.4,0.1,0.5,0.4c0.2,0.8,4.3,20.4,4.6,27c0.3,6.6-0.8,18.4-0.8,18.5
		C195,123.7,194.8,123.8,194.5,123.8z M190.2,122.6l3.8,0.3c0.2-2.2,1-12.1,0.8-17.9c-0.3-6-3.9-23.6-4.5-26.5l-6,0.4
		c0,0.8,0.1,2.9,0,7.1c-0.2,5.7,4.3,18.8,4.3,18.9c0,0.1,0,0.1,0,0.2c-0.1,2.2,0.3,4.3,0.6,6.4c0.2,1.1,0.3,2.2,0.4,3.2
		C190.1,118.5,190.2,121.5,190.2,122.6z"/>
</g>
<g>
	<path class="st0" d="M179.4,78c0,0-4.4,3.6-1.9,11c1,2.9,4.9,16.2,4.9,16.2c-1.1,1.2-2,2.6-2.7,4c-1.8,3.5-3.1,8.9-5.3,12.1
		l3.2,2.2c0,0,10.5-13.1,11.1-17.2c0.7-4.1-2.5-20.7-2.5-20.7l-1-6.7L179.4,78z"/>
	<path class="st0" d="M177.8,123.8c-0.1,0-0.2,0-0.3-0.1l-3.2-2.2c-0.1-0.1-0.2-0.2-0.2-0.3c0-0.1,0-0.3,0.1-0.4
		c1.3-1.8,2.2-4.5,3.2-7c0.7-1.8,1.3-3.5,2-5c0.7-1.4,1.6-2.7,2.6-3.9c-0.5-1.8-3.9-13.3-4.8-15.9c-2.6-7.5,1.8-11.3,2-11.5
		c0.1-0.1,0.2-0.1,0.4-0.1l6,0.7c0.2,0,0.4,0.2,0.4,0.4l1,6.7c0.1,0.7,3.1,16.7,2.5,20.9c-0.7,4.2-10.8,16.9-11.2,17.4
		C178,123.8,177.9,123.8,177.8,123.8z M175.2,121.1l2.5,1.7c1.6-2.1,10.2-13,10.8-16.7c0.6-4-2.4-20.4-2.5-20.6l-1-6.4l-5.4-0.7
		c-0.7,0.7-3.8,4.1-1.6,10.3c1,2.9,4.9,16.1,4.9,16.2c0,0.2,0,0.3-0.1,0.4c-1,1.2-1.9,2.5-2.6,3.9c-0.7,1.4-1.3,3.1-2,4.9
		C177.3,116.7,176.4,119.2,175.2,121.1z"/>
</g>
<g>
	<path class="st2" d="M199,64.2c-0.1-0.7-0.3-1.4-0.7-1.9c0.3-0.4,0.6-0.9,0.8-1.4c0.2-0.6-0.1-1.4-0.7-0.4s-1.4,1.7-1.1,2.8
		c0.1,0.8,0,1.6-0.4,2.2l1.5,1.2l3-2.4L199,64.2z"/>
	<path class="st0" d="M198.4,67.2c-0.1,0-0.2,0-0.3-0.1l-1.5-1.2c-0.2-0.1-0.2-0.4-0.1-0.6c0.3-0.6,0.5-1.3,0.3-1.9
		c-0.3-1.2,0.3-2,0.9-2.8c0.1-0.1,0.2-0.3,0.3-0.4c0.5-0.8,1-0.7,1.2-0.6c0.5,0.2,0.5,0.9,0.3,1.4c-0.2,0.4-0.4,0.8-0.7,1.2
		c0.3,0.5,0.4,1,0.5,1.5l2.1,0.2c0.2,0,0.4,0.1,0.4,0.3s0,0.4-0.2,0.5l-3,2.4C198.6,67.2,198.5,67.2,198.4,67.2z M197.5,65.4
		l0.9,0.7l1.8-1.4l-1.2-0.1c-0.2,0-0.4-0.2-0.4-0.4c-0.1-0.6-0.3-1.2-0.6-1.7c-0.1-0.1-0.1-0.2-0.1-0.3c-0.1,0.3-0.2,0.6-0.1,1
		C197.9,64,197.8,64.8,197.5,65.4z M198.3,61.4c-0.1,0.1-0.2,0.2-0.2,0.3C198.2,61.7,198.3,61.6,198.3,61.4z"/>
</g>
<g>
	<path class="st0" d="M200.4,58.1l-2.5,0.7c-0.2,0.1-0.4,0.3-0.3,0.5l1.4,5.3c0.1,0.2,0.3,0.4,0.5,0.3l2.5-0.7
		c0.2-0.1,0.4-0.3,0.3-0.5l-1.4-5.3C200.9,58.2,200.7,58,200.4,58.1z"/>
	<path class="st0" d="M199.4,65.4c-0.2,0-0.3,0-0.4-0.1c-0.2-0.1-0.4-0.3-0.4-0.5l-1.4-5.3c-0.1-0.5,0.2-1,0.6-1.1l2.5-0.7
		c0.5-0.1,1,0.2,1.1,0.6l1.4,5.3c0.1,0.2,0,0.5-0.1,0.7c-0.1,0.2-0.3,0.4-0.5,0.4l-2.5,0.7C199.6,65.4,199.5,65.4,199.4,65.4z
		 M200.5,58.5l-2.5,0.7l1.5,5.2l2.5-0.7L200.5,58.5z M200.4,58.1L200.4,58.1L200.4,58.1z"/>
</g>
<g>
	<path class="st1" d="M201,58.5l-3.4,0.9l1.4,5.1l3.4-0.9L201,58.5z"/>
	<path class="st0" d="M199,65c-0.2,0-0.4-0.1-0.5-0.3l-1.4-5.1c0-0.1,0-0.2,0-0.4c0.1-0.1,0.2-0.2,0.3-0.2l3.4-0.9
		c0.3-0.1,0.5,0.1,0.6,0.3l1.4,5.1c0,0.1,0,0.2,0,0.4c-0.1,0.1-0.2,0.2-0.3,0.2l-3.4,0.9C199.1,65,199,65,199,65z M198.2,59.7
		l1.2,4.2l2.5-0.7l-1.2-4.2L198.2,59.7z"/>
</g>
<path class="st0" d="M200.3,60.2c0-0.2-0.1-0.3-0.3-0.4c-0.1-0.1-0.3-0.1-0.5-0.1c-0.2,0-0.3,0.1-0.4,0.3c-0.1,0.1-0.1,0.3-0.1,0.5
	c0,0.2,0.2,0.9,0.3,1.1l1.2-0.3C200.5,61.1,200.3,60.4,200.3,60.2z"/>
<path class="st0" d="M200.2,62.2c0.1,0,0.3-0.1,0.4-0.3c0.1-0.1,0.1-0.3,0.1-0.4l-1.2,0.3c0.1,0.1,0.2,0.3,0.3,0.3
	C199.9,62.2,200,62.2,200.2,62.2L200.2,62.2z"/>
<path class="st0" d="M201.3,62.8l-0.8,0.2l-0.2-0.6c0.2-0.1,0.4-0.3,0.5-0.5c0.1-0.2,0.1-0.5,0.1-0.7l-0.1-0.3c0,0,0,0,0,0
	c0,0,0,0,0,0c0,0,0,0,0,0c0,0,0,0,0,0l-0.1,0c0,0,0,0,0,0c0,0,0,0,0,0s0,0,0,0c0,0,0,0,0,0c0,0,0,0,0,0c0,0,0,0,0,0c0,0,0,0,0,0
	c0,0,0,0,0,0l0.1,0l0.1,0.3c0,0.1,0,0.2,0,0.3c0,0.1-0.1,0.2-0.1,0.3c-0.1,0.1-0.1,0.2-0.2,0.3c-0.1,0.1-0.2,0.1-0.3,0.1
	c-0.1,0-0.2,0-0.3,0c-0.1,0-0.2-0.1-0.3-0.1c-0.1-0.1-0.2-0.1-0.3-0.2c-0.1-0.1-0.1-0.2-0.1-0.3l-0.1-0.3l0.1,0c0,0,0,0,0,0
	c0,0,0,0,0,0c0,0,0,0,0,0c0,0,0,0,0,0c0,0,0,0,0,0c0,0,0,0,0,0l-0.1,0c0,0,0,0,0,0c0,0,0,0,0,0c0,0,0,0,0,0c0,0,0,0,0,0l0.1,0.3
	c0.1,0.2,0.2,0.4,0.4,0.6c0.2,0.1,0.4,0.2,0.7,0.1l0.2,0.6l-0.8,0.2c0,0,0,0,0,0c0,0,0,0,0,0c0,0,0,0,0,0c0,0,0,0,0,0l0,0.1l2-0.5
	l0-0.1c0,0,0,0,0,0C201.4,62.9,201.4,62.8,201.3,62.8C201.4,62.8,201.4,62.8,201.3,62.8C201.3,62.8,201.3,62.8,201.3,62.8z"/>
<g>
	<path class="st2" d="M201.6,59.7c-0.3,0-0.6,0.5-0.5,1.2c0.1,0.7,0.7-0.1,0.8-0.3C202,60.4,202.2,59.6,201.6,59.7z"/>
	<path class="st0" d="M201.4,61.6C201.4,61.6,201.3,61.6,201.4,61.6c-0.3,0-0.6-0.2-0.7-0.7c-0.1-0.5,0-1,0.3-1.4
		c0.2-0.2,0.4-0.3,0.6-0.4c0,0,0,0,0,0c0.4,0,0.6,0.1,0.7,0.2c0.3,0.3,0.2,0.9,0.1,1.1C202.3,61,201.9,61.6,201.4,61.6z M201.7,60.1
		C201.7,60.1,201.7,60.1,201.7,60.1l-0.1-0.5L201.7,60.1z"/>
</g>
<g>
	<path class="st2" d="M202.3,60.7c-0.1,0-0.2,0-0.2,0.1c-0.1,0-0.1,0.1-0.2,0.1c-0.1,0.1-0.1,0.1-0.1,0.2c0,0.1,0,0.2,0,0.2
		c0.1,0.7,0.2,0.5,0.2,0.5c0,0.3,0.1,0.5,0.2,0.8c0.2,0.3,0.6-0.2,0.6-0.4S202.6,60.6,202.3,60.7z"/>
	<path class="st0" d="M202.2,63.2c-0.2,0-0.4-0.1-0.6-0.3c-0.1-0.3-0.2-0.5-0.2-0.7c-0.1-0.2-0.2-0.5-0.2-0.7c0-0.1,0-0.2,0-0.4
		c0-0.2,0.1-0.3,0.2-0.4c0.1-0.1,0.2-0.2,0.4-0.3c0.1-0.1,0.3-0.1,0.4-0.1v0c0.1,0,0.3,0,0.4,0.1c0.3,0.2,0.5,0.9,0.5,1.9
		c0,0.4-0.3,0.9-0.7,1C202.4,63.2,202.3,63.2,202.2,63.2z"/>
</g>
<path class="st2" d="M201.9,61.8c0,0,0.5-0.2,0.7-0.5L201.9,61.8z"/>
<path class="st0" d="M201.9,62.3c-0.2,0-0.4-0.1-0.4-0.3c-0.1-0.2,0.1-0.5,0.3-0.6c0.1,0,0.3-0.2,0.4-0.2c0.1-0.2,0.3-0.4,0.6-0.3
	c0.2,0.1,0.4,0.3,0.3,0.6c-0.2,0.6-0.9,0.8-1,0.8C202,62.3,202,62.3,201.9,62.3z"/>
<path class="st2" d="M197.3,64.6c0.1-0.4,0.1-0.9,0-1.3c-0.3-1.2,0.5-1.9,1.1-2.8c0.7-1,1-0.2,0.7,0.4c-0.2,0.5-0.5,0.9-0.8,1.4
	c0.4,0.6,0.7,1.2,0.7,1.9c0,0.2,0,0.9,0,0.9"/>
<path class="st0" d="M199,65.5c-0.3,0-0.5-0.2-0.5-0.5v-0.9c0-0.6-0.2-1.2-0.6-1.6c-0.1-0.1-0.1-0.2-0.1-0.3c-0.1,0.3-0.2,0.6-0.1,1
	c0.1,0.5,0.1,1,0,1.5c-0.1,0.3-0.3,0.4-0.6,0.3c-0.3-0.1-0.4-0.3-0.3-0.6c0.1-0.4,0.1-0.7,0-1.1c-0.3-1.2,0.3-2,0.9-2.8
	c0.1-0.1,0.2-0.3,0.3-0.4c0.5-0.8,1-0.7,1.2-0.6c0.4,0.2,0.5,0.9,0.3,1.4c-0.2,0.4-0.4,0.8-0.7,1.2c0.4,0.6,0.5,1.2,0.6,1.9v0.9
	C199.5,65.3,199.3,65.5,199,65.5z M198.3,61.4c-0.1,0.1-0.2,0.3-0.3,0.4C198.2,61.7,198.3,61.5,198.3,61.4z"/>
<path class="st0" d="M189,57.2c1.1-0.2,1.4-0.5,1.4-0.5c-0.8-3.2,2.1-14.1-7-14.6c-9.1-0.5-4,14.9-4,14.9l1,0.1l-0.5-3.1l1.2,3.2
	c3.5,0.4,5.8,0.3,7.2,0.1c-0.2-1.4-0.2-2.8-0.1-4.2C188.3,54.5,188.6,55.8,189,57.2L189,57.2z"/>
<path class="st0" d="M183.4,42.7c-0.1,0-0.2,0-0.3-0.1c-0.3-0.3-0.6-0.5-1-0.5c-0.4,0-0.8,0-1.1,0.3c-0.2,0.1-0.5,0.1-0.6-0.2
	c-0.1-0.2-0.1-0.5,0.2-0.6c0.5-0.3,1.1-0.5,1.7-0.4c0.6,0.1,1.2,0.3,1.6,0.8c0.2,0.2,0.2,0.5,0,0.7
	C183.6,42.7,183.5,42.7,183.4,42.7z"/>
<g>
	<path class="st2" d="M190.3,59.2L190.3,59.2C190.3,59.1,190.3,59.1,190.3,59.2z"/>
	<path class="st0" d="M190.3,59.6c-0.1,0-0.1,0-0.2-0.1c-0.1-0.1-0.2-0.2-0.2-0.4v0c0-0.1,0-0.2,0-0.3c0.1-0.2,0.3-0.3,0.5-0.3
		c0.2,0,0.4,0.2,0.4,0.5c0,0.2-0.1,0.4-0.2,0.5C190.5,59.6,190.4,59.6,190.3,59.6z"/>
</g>
<path class="st2" d="M196.9,65.6l-4.3,4l0.1-6c0-0.9-0.2-1.8-0.6-2.6c-0.4-0.8-1-1.5-1.8-2l0.2,15.8c4.3,0.3,8-8,8-8
	c-0.2-0.3-0.4-0.5-0.6-0.8C197.6,65.8,197.3,65.6,196.9,65.6L196.9,65.6z"/>
<path class="st4" d="M191.9,72.8c-0.6,0.1-0.8-1.2-0.8-2.4c-0.2,0.4-0.3,0.9-0.4,1.4c-0.1,1.4-0.1,2.7,0,3.9
	c4.8-2.2,4.9-4.1,6.1-6.1C196.1,70.6,193.2,72.7,191.9,72.8z"/>
<path class="st0" d="M190.6,75.3c-0.1,0-0.2,0-0.2,0c-0.2,0-0.4-0.2-0.4-0.5L189.8,59c0-0.2,0.1-0.3,0.2-0.4c0.2-0.1,0.3-0.1,0.5,0
	c0.8,0.5,1.5,1.3,2,2.1c0.5,0.9,0.7,1.8,0.7,2.8l-0.1,4.9l3.5-3.3c0.1-0.1,0.3-0.1,0.4-0.1c0.4,0.1,0.7,0.3,1.1,0.5
	c0.3,0.2,0.6,0.5,0.8,0.9c0.1,0.1,0.1,0.3,0,0.4C198.7,67.3,195,75.3,190.6,75.3z M190.7,60l0.1,14.3c3.4-0.3,6.5-6.3,7.1-7.5
	c-0.1-0.2-0.2-0.3-0.4-0.4c-0.1-0.1-0.3-0.2-0.5-0.3l-4.1,3.8c-0.1,0.1-0.3,0.2-0.5,0.1c-0.2-0.1-0.3-0.2-0.3-0.4l0.1-6
	c0-0.8-0.2-1.6-0.6-2.4C191.4,60.7,191.1,60.3,190.7,60z"/>
<g>
	<path class="st1" d="M196,66.1l0.9-0.9l2.1,1.4l-0.6,1L196,66.1z"/>
	<path class="st0" d="M198.4,68.1c-0.1,0-0.2,0-0.2-0.1l-2.4-1.5c-0.1-0.1-0.2-0.2-0.2-0.3c0-0.1,0-0.3,0.1-0.4l0.9-0.9
		c0.2-0.2,0.4-0.2,0.6,0l2.1,1.4c0.2,0.1,0.3,0.4,0.1,0.6l-0.6,1c-0.1,0.1-0.2,0.2-0.3,0.2C198.5,68.1,198.5,68.1,198.4,68.1z
		 M196.8,66l1.5,1l0.1-0.2l-1.4-1L196.8,66z"/>
</g>
<g>
	<path class="st2" d="M191.9,66.5c-1.7,7.7-0.9,12.8-0.9,12.8s-4.2,3-13.1,0.5c0,0,1.6-4,1.2-7c-0.3-1.9-2-8.6-2-8.6
		s-0.8-2.9-0.5-5.3c0.7-0.5,2.3-1.1,5.1-1.3c0-0.2,0.1-0.3,0.1-0.5c0.1-0.8,0.1-1.6,0.1-2.4c0-0.9-0.1-1.7-0.1-1.7h3.4
		c0,0,0,0.8,0.2,1.8c0.1,0.6,0.1,1.2,0.2,1.8c0.1,0.3,0.1,0.6,0.2,0.8c3.4,0.5,4.6,1.4,4.9,2.1C191.9,63.1,192.3,64.9,191.9,66.5z"
		/>
	<path class="st0" d="M184.7,81.2c-1.9,0-4.1-0.3-6.8-1c-0.1,0-0.2-0.1-0.3-0.2c-0.1-0.1-0.1-0.3,0-0.4c0,0,1.6-3.9,1.1-6.8
		c-0.3-1.8-2-8.5-2-8.5c0-0.1-0.9-3.1-0.5-5.5c0-0.1,0.1-0.2,0.2-0.3c0.6-0.4,2-1,5-1.3c0,0,0-0.1,0-0.1c0.1-0.8,0.1-1.5,0.1-2.3
		c0-0.9-0.1-1.6-0.1-1.6c0-0.1,0-0.3,0.1-0.4c0.1-0.1,0.2-0.2,0.3-0.2h3.4c0.2,0,0.5,0.2,0.5,0.4c0,0,0,0.8,0.1,1.8
		c0,0.5,0.1,1.1,0.2,1.7c0,0.2,0.1,0.3,0.1,0.5c2.9,0.5,4.6,1.3,5,2.4c1.2,3.5,1.6,5.4,1.2,7.1v0c-1.7,7.5-0.9,12.5-0.9,12.6
		c0,0.2,0,0.4-0.2,0.5C191.2,79.8,189.1,81.2,184.7,81.2z M178.6,79.4c7,1.9,11,0.1,11.9-0.4c-0.2-1.2-0.6-5.9,0.9-12.6v0
		c0.3-1.5-0.1-3.3-1.2-6.6c-0.1-0.3-0.7-1.3-4.5-1.8c-0.2,0-0.3-0.2-0.4-0.3c-0.1-0.3-0.2-0.6-0.2-0.9c-0.1-0.7-0.2-1.4-0.3-1.8
		c-0.1-0.6-0.1-1.1-0.1-1.4h-2.4c0,0.3,0.1,0.7,0.1,1.2c0.1,0.8,0,1.6-0.1,2.4c0,0.2-0.1,0.4-0.1,0.6c-0.1,0.2-0.2,0.3-0.4,0.3
		c-2.8,0.2-4.2,0.8-4.7,1.1c-0.3,2.2,0.5,4.9,0.5,4.9c0.1,0.3,1.8,6.8,2,8.7C180,75.2,179,78.2,178.6,79.4z M192,66.5L192,66.5
		L192,66.5z"/>
</g>
<path class="st0" d="M185.4,55.5c-0.3,0.6-0.6,1.1-1.8,1.1c-0.9,0-1.7-0.8-1.8-1.1c0.1-0.7,0-0.9,0-1.7c1.1,0,2.3,0,3.4,0.2
	C185.2,54.5,185.3,55,185.4,55.5L185.4,55.5z"/>
<g>
	<path class="st2" d="M187.7,48.9c0-0.5,0-0.7,0-0.7c-0.3-1.2-1.7-1.3-2.4-1.3c-0.7,0-1.4-0.1-2.1-0.4c0.2,0.5,0.6,1,1,1.3
		c-2.5-0.6-2.7-1.9-2.6-2.6c-0.9,3.1-2.1,3.3-2.1,3.3s0,0.3,0.1,0.7c-0.3,0.1-0.6,0.2-0.8,0.5c-0.2,0.3-0.3,0.6-0.2,0.9
		c0,0.3,0.1,0.7,0.4,0.9c0.2,0.2,0.5,0.4,0.9,0.4c0.1,0,0.1,0,0.2,0c0.5,2.1,1.6,4.3,3.9,4.3c2.3-0.1,3.2-2.4,3.5-4.6
		c0.1,0,0.1,0,0.2,0c0.3,0,0.6-0.2,0.9-0.5c0.2-0.3,0.3-0.6,0.3-0.9c0-0.3-0.1-0.6-0.3-0.8C188.2,49.1,188,48.9,187.7,48.9
		L187.7,48.9z"/>
	<path class="st0" d="M183.7,56.5c-1.4,0-3.1-0.8-4.1-4.2c-0.4,0-0.8-0.2-1.1-0.5c-0.3-0.3-0.5-0.8-0.5-1.2c0-0.4,0.1-0.8,0.3-1.1
		c0.2-0.2,0.4-0.4,0.6-0.5c0-0.3,0-0.4,0-0.4c0-0.2,0.2-0.4,0.4-0.5l0,0c0,0,0.9-0.3,1.7-2.9c0.1-0.2,0.3-0.4,0.5-0.3
		c0.2,0.1,0.4,0.3,0.4,0.5c-0.1,0.6,0.2,1.1,0.7,1.5c0,0,0,0,0-0.1c-0.1-0.2,0-0.4,0.1-0.5c0.1-0.1,0.3-0.2,0.5-0.1
		c0.6,0.2,1.3,0.4,1.9,0.3c0,0,0,0,0,0c2.1,0,2.7,0.9,2.9,1.6l0,0.5c0.3,0.1,0.5,0.3,0.7,0.5c0.3,0.3,0.4,0.7,0.4,1.1
		c0,0.4-0.1,0.9-0.4,1.2c-0.3,0.3-0.6,0.5-1,0.6c-0.6,2.9-1.9,4.5-3.9,4.6C183.8,56.5,183.8,56.5,183.7,56.5z M179.9,51.4
		c0.2,0,0.4,0.1,0.5,0.3c0.7,2.7,1.8,4,3.4,3.9c2-0.1,2.8-2.3,3.1-4.2c0-0.2,0.2-0.4,0.5-0.4c0,0,0.1,0,0.1,0c0.2,0,0.4-0.1,0.5-0.3
		c0.1-0.2,0.2-0.4,0.2-0.6c0-0.2-0.1-0.4-0.2-0.6c-0.1-0.1-0.3-0.2-0.5-0.3c-0.2,0-0.4-0.2-0.4-0.5v-0.7c-0.1-0.5-0.7-0.8-1.9-0.8
		c0,0,0,0,0,0c-0.3,0-0.7,0-1-0.1c0.1,0,0.1,0.1,0.2,0.1c0.2,0.1,0.2,0.4,0.2,0.6c-0.1,0.2-0.3,0.3-0.5,0.3
		c-1.4-0.3-2.2-0.9-2.6-1.5c-0.6,1.3-1.1,1.8-1.5,2c0,0.1,0,0.2,0,0.4c0,0.2-0.1,0.5-0.4,0.5c-0.2,0-0.4,0.2-0.5,0.3
		c-0.1,0.2-0.2,0.4-0.2,0.6c0,0.3,0.1,0.5,0.2,0.6c0.1,0.2,0.3,0.2,0.6,0.3c0,0,0,0,0.1,0C179.9,51.4,179.9,51.4,179.9,51.4z
		 M188.1,48.9L188.1,48.9L188.1,48.9z"/>
</g>
<path class="st0" d="M183.7,53.2c-0.2,0-0.3-0.1-0.4-0.1l-0.4-0.3c-0.2-0.2-0.3-0.4-0.1-0.7c0.2-0.2,0.4-0.3,0.7-0.1l0.3,0.2
	l0.2-0.2c0.2-0.2,0.5-0.1,0.7,0.1c0.2,0.2,0.1,0.5-0.1,0.7l-0.4,0.3C184,53.1,183.8,53.2,183.7,53.2z M183.8,52.3L183.8,52.3
	C183.8,52.3,183.8,52.3,183.8,52.3z"/>
<path class="st0" d="M184.6,51.1c-0.1,0-0.2,0-0.3-0.1c-0.2-0.2-0.2-0.4-0.1-0.6c0.2-0.3,1-0.8,2-0.3c0.2,0.1,0.3,0.4,0.2,0.6
	c-0.1,0.2-0.4,0.3-0.6,0.2c-0.6-0.3-0.8,0-0.9,0.1C184.9,51,184.7,51.1,184.6,51.1z"/>
<path class="st0" d="M182.5,51.1c-0.1,0-0.3-0.1-0.4-0.2c0-0.1-0.3-0.3-0.9-0.1c-0.2,0.1-0.5,0-0.6-0.2c-0.1-0.2,0-0.5,0.2-0.6
	c1-0.5,1.8,0,2,0.3c0.2,0.2,0.1,0.5-0.1,0.7C182.7,51.1,182.6,51.1,182.5,51.1z"/>
<path class="st0" d="M183.6,54.3c-0.4,0-0.8-0.1-1.2-0.3c-0.2-0.1-0.3-0.4-0.1-0.6s0.4-0.3,0.6-0.1c0.2,0.1,0.4,0.2,0.7,0.2
	c0.2,0,0.5-0.1,0.7-0.2c0.2-0.2,0.5-0.1,0.7,0.1c0.2,0.2,0.1,0.5-0.1,0.7C184.6,54.1,184.1,54.3,183.6,54.3
	C183.7,54.3,183.7,54.3,183.6,54.3z"/>
<path class="st2" d="M188.3,108.3c-0.1,0-0.1,0-0.2,0c-0.2-0.1-0.3-0.4-0.2-0.6c0.1-0.3,0.3-0.6,0.4-1c0.1-0.2,0.3-0.4,0.6-0.3
	c0.2,0.1,0.4,0.3,0.3,0.6c-0.1,0.4-0.3,0.7-0.4,1C188.7,108.2,188.5,108.3,188.3,108.3z"/>
<path class="st2" d="M189,105.9C189,105.9,189,105.9,189,105.9c-0.3,0-0.5-0.2-0.5-0.5c0.1-4.5-0.7-8.8-1.4-13.1
	c-0.2-1.3-0.5-2.6-0.7-3.9c-0.2-1.1-0.7-2.1-1.5-2.8l-1-0.9c-0.2-0.2-0.2-0.5,0-0.7c0.2-0.2,0.5-0.2,0.7,0l1,0.9
	c1,0.9,1.6,2.1,1.8,3.4c0.2,1.3,0.4,2.6,0.7,3.9c0.8,4.3,1.5,8.7,1.4,13.2C189.4,105.7,189.2,105.9,189,105.9z"/>
<path class="st2" d="M186.4,87.3c-0.1,0-0.2,0-0.3-0.1c-0.2-0.1-0.3-0.4-0.1-0.6l1.6-2.3c0.1-0.2,0.4-0.3,0.6-0.1
	c0.2,0.1,0.3,0.4,0.1,0.6l-1.4,1.9c0,0,0,0,0,0.1l-0.2,0.3C186.7,87.2,186.6,87.3,186.4,87.3z"/>
<path class="st0" d="M182.2,76.4c-0.1,0-0.2,0-0.3-0.1l-0.5-0.5c-0.2-0.2-0.2-0.5,0-0.7c0.2-0.2,0.5-0.2,0.7,0l0.5,0.5
	c0.2,0.2,0.2,0.5,0,0.7C182.4,76.3,182.3,76.4,182.2,76.4z"/>
<path class="st0" d="M180.9,74.9c-0.1,0-0.3-0.1-0.4-0.2c-1.2-1.7-2.1-3.6-2.6-5.6c-0.1-0.3,0.1-0.5,0.3-0.6
	c0.3-0.1,0.5,0.1,0.6,0.3c0.5,1.9,1.3,3.7,2.4,5.3c0.2,0.2,0.1,0.5-0.1,0.7C181.1,74.9,181,74.9,180.9,74.9z"/>
<g>
	<path class="st2" d="M178.5,48.1l-0.3,0l0,1.2l0.3,0L178.5,48.1z"/>
	<path class="st0" d="M178.2,49.8c-0.2,0-0.5-0.2-0.5-0.4l0-1.2c0-0.3,0.2-0.5,0.4-0.5l0.3,0c0.1,0,0.2,0,0.3,0.1
		c0.1,0.1,0.1,0.2,0.2,0.3l0,1.2c0,0.1,0,0.2-0.1,0.3c-0.1,0.1-0.2,0.1-0.3,0.1L178.2,49.8C178.2,49.8,178.2,49.8,178.2,49.8z"/>
</g>
<g>
	<path class="st2" d="M188.9,47.7l-0.3,0l0,1.2l0.3,0L188.9,47.7z"/>
	<path class="st0" d="M188.6,49.4c-0.1,0-0.2,0-0.3-0.1c-0.1-0.1-0.1-0.2-0.2-0.3l0-1.2c0-0.1,0-0.2,0.1-0.3
		c0.1-0.1,0.2-0.1,0.3-0.1l0.3,0c0.2,0,0.5,0.2,0.5,0.4l0,1.2c0,0.3-0.2,0.5-0.4,0.5L188.6,49.4C188.7,49.4,188.7,49.4,188.6,49.4z"
		/>
</g>
<g>
	<path class="st1" d="M183.3,42.6c-1.5,0.1-2.8,0.7-3.8,1.7c-1,1-1.6,2.4-1.6,3.9c0,0,0,0.1,0,0.1c0,0,0,0,0,0.1c0,0,0,0,0.1,0
		c0,0,0.1,0,0.1,0h0.4c0.1,0,0.1,0,0.1-0.1c0,0,0.1-0.1,0.1-0.1c0-1.2,0.5-2.4,1.4-3.3c0.9-0.9,2.1-1.4,3.3-1.5
		c1.3,0,2.5,0.4,3.4,1.2c0.9,0.8,1.5,2,1.6,3.2c0,0.1,0,0.1,0.1,0.1c0,0,0.1,0.1,0.1,0.1h0.4c0,0,0.1,0,0.1,0c0,0,0,0,0.1,0
		c0,0,0,0,0-0.1c0,0,0-0.1,0-0.1c-0.1-1.5-0.8-2.8-1.9-3.8C186.2,43.1,184.8,42.6,183.3,42.6L183.3,42.6z"/>
	<path class="st0" d="M178.1,48.9c-0.1,0-0.2,0-0.2,0c-0.1,0-0.2-0.1-0.2-0.1c0,0-0.1-0.2-0.2-0.2c0-0.1-0.1-0.2-0.1-0.3
		c0-1.6,0.6-3.1,1.7-4.2c1.1-1.1,2.6-1.8,4.2-1.9l0,0c1.6-0.1,3.1,0.5,4.3,1.5c1.2,1.1,1.9,2.5,2,4.1c0,0.1,0,0.2,0,0.3
		c0,0.1-0.1,0.2-0.1,0.2c0,0-0.2,0.1-0.2,0.2c-0.1,0-0.2,0.1-0.3,0.1h-0.4c-0.2,0-0.3-0.1-0.5-0.2c-0.1-0.1-0.2-0.3-0.2-0.4
		c-0.1-1.1-0.6-2.2-1.5-2.9c-0.9-0.7-1.9-1.1-3.1-1.1c-1.1,0-2.2,0.5-3,1.3c-0.8,0.8-1.2,1.9-1.2,3c0,0.2-0.1,0.3-0.2,0.5
		c-0.1,0.1-0.3,0.2-0.5,0.2L178.1,48.9z M178.2,48.2C178.2,48.2,178.2,48.2,178.2,48.2C178.2,48.2,178.2,48.2,178.2,48.2L178.2,48.2
		z M178.5,48C178.5,48,178.5,48,178.5,48L178.5,48z M188.9,47.8C188.9,47.8,188.9,47.8,188.9,47.8C188.9,47.8,188.9,47.8,188.9,47.8
		z M188.6,47.6C188.6,47.6,188.6,47.6,188.6,47.6L188.6,47.6C188.6,47.6,188.6,47.6,188.6,47.6z"/>
</g>
<g>
	<path class="st1" d="M179.1,48.9L179.1,48.9c-0.3,0-0.5,0.1-0.8,0.2c-0.2,0.1-0.4,0.2-0.6,0.4c-0.3,0.3-0.5,0.8-0.5,1.3
		c0,0.5,0.2,0.9,0.6,1.2c0.3,0.3,0.8,0.5,1.3,0.5h0.1L179.1,48.9z"/>
	<path class="st0" d="M179.1,52.9c-0.6,0-1.1-0.2-1.6-0.6c-0.4-0.4-0.7-1-0.7-1.6c0-0.6,0.2-1.2,0.6-1.6c0.2-0.2,0.4-0.4,0.7-0.5
		c0.3-0.1,0.6-0.2,0.9-0.2c0.2,0,0.6,0.2,0.6,0.4l0.1,3.5c0,0.1,0,0.3-0.1,0.3C179.5,52.9,179.3,52.9,179.1,52.9z M178.7,49.4
		c0,0-0.1,0-0.1,0c-0.2,0.1-0.3,0.2-0.4,0.3c-0.2,0.3-0.4,0.6-0.3,0.9c0,0.3,0.2,0.7,0.4,0.9c0.2,0.1,0.3,0.2,0.6,0.3L178.7,49.4z"
		/>
</g>
<g>
	<path class="st2" d="M179.6,50.6c0.1,1.3,0.1,2.2-0.3,2.2c-0.5,0-0.6-0.8-0.7-2.2c-0.1-1.3,0.1-2.2,0.5-2.2
		C179.6,48.4,179.5,49.3,179.6,50.6z"/>
	<path class="st0" d="M179.3,53.3c-0.2,0-0.4-0.1-0.5-0.2c-0.4-0.3-0.6-1-0.6-2.4c0-0.9-0.1-2.6,1-2.7c0.2,0,0.4,0.1,0.5,0.2
		c0.4,0.3,0.4,1,0.4,2l0,0.8C180.1,52.3,180.2,53.2,179.3,53.3C179.3,53.3,179.3,53.3,179.3,53.3z M179.1,49.4c0,0.3,0,0.6,0,1.2
		c0,0.6,0.1,1,0.1,1.2c0-0.3,0-0.5,0-0.8l0-0.4l0,0l0-0.4C179.1,50,179.1,49.7,179.1,49.4z"/>
</g>
<g>
	<path class="st1" d="M188,48.5L188,48.5c0.3,0,0.5,0,0.8,0.1c0.2,0.1,0.4,0.2,0.6,0.4c0.2,0.2,0.3,0.3,0.4,0.6
		c0.1,0.2,0.2,0.4,0.2,0.7c0,0.2,0,0.5-0.1,0.7c-0.1,0.2-0.2,0.4-0.4,0.6c-0.2,0.2-0.3,0.3-0.6,0.4c-0.2,0.1-0.4,0.2-0.7,0.2h-0.1
		L188,48.5z"/>
	<path class="st0" d="M188.3,52.5c-0.3,0-0.5-0.2-0.5-0.4l-0.1-3.5c0-0.1,0-0.3,0.1-0.3c0.1-0.1,0.2-0.1,0.3-0.1h0.1
		c0.3,0,0.6,0,0.8,0.1s0.5,0.3,0.7,0.5c0.2,0.2,0.4,0.4,0.5,0.7c0.1,0.3,0.2,0.6,0.2,0.8c0,0.3,0,0.6-0.1,0.9
		c-0.1,0.3-0.3,0.5-0.5,0.7c-0.2,0.2-0.4,0.4-0.7,0.5C188.9,52.4,188.6,52.5,188.3,52.5C188.3,52.5,188.3,52.5,188.3,52.5z
		 M188.5,49l0.1,2.5c0,0,0.1,0,0.1,0c0.2-0.1,0.3-0.2,0.4-0.3c0.1-0.1,0.2-0.3,0.3-0.4c0.1-0.2,0.1-0.3,0.1-0.5c0-0.2,0-0.3-0.1-0.5
		c-0.1-0.2-0.2-0.3-0.3-0.4c-0.1-0.1-0.3-0.2-0.4-0.3C188.6,49.1,188.6,49,188.5,49z"/>
</g>
<g>
	<path class="st2" d="M187.7,50.3c0.1,1.3,0,2.2,0.5,2.2c0.5,0,0.6-0.9,0.5-2.2c-0.1-1.3-0.2-2.2-0.7-2.1
		C187.6,48.1,187.6,49,187.7,50.3z"/>
	<path class="st0" d="M188.2,52.9c-0.9,0-0.9-1-0.9-2.2l0-0.7c0-1.1-0.1-1.7,0.3-2.1c0.1-0.1,0.3-0.2,0.5-0.2c1,0,1.1,1.7,1.2,2.6
		c0.1,1.3-0.1,2.1-0.4,2.4C188.6,52.8,188.4,52.9,188.2,52.9z M188.3,52.1L188.3,52.1L188.3,52.1z M188.1,49.1c0,0.3,0,0.6,0,0.8
		l0,0.4v0l0,0.4c0,0.3,0,0.6,0,0.8c0-0.3,0-0.6,0-1.2C188.2,49.7,188.2,49.3,188.1,49.1z"/>
</g>
<path class="st0" d="M180.4,49.9c-0.1,0-0.3-0.1-0.4-0.2c-0.2-0.2-0.1-0.5,0.1-0.7c0.5-0.4,1.8-1,2.9-0.1c0.2,0.2,0.2,0.5,0.1,0.7
	c-0.2,0.2-0.5,0.2-0.7,0.1c-0.8-0.6-1.6,0-1.7,0.1C180.6,49.9,180.5,49.9,180.4,49.9z"/>
<path class="st0" d="M184.6,49.8c-0.1,0-0.3-0.1-0.3-0.2c-0.2-0.2-0.2-0.5,0-0.7c1.1-1,2.3-0.5,2.9-0.1c0.2,0.1,0.3,0.4,0.1,0.6
	c-0.1,0.2-0.4,0.3-0.6,0.1c-0.1-0.1-1-0.6-1.7,0.1C184.8,49.8,184.7,49.8,184.6,49.8z"/>
<g>
	<path class="st1" d="M181.4,57.1c0,0,0.7,1.8,3.3,2.2c0,0-1,2.2-2.5,1.3c-1.7-1-2-3.1-2-3.1L181.4,57.1z"/>
	<path class="st0" d="M182.9,61.3c-0.3,0-0.6-0.1-0.9-0.3c-1.9-1.1-2.2-3.3-2.3-3.4c0-0.2,0.1-0.5,0.3-0.5l1.2-0.4
		c0.2-0.1,0.5,0,0.6,0.3c0,0.1,0.7,1.5,3,1.9c0.1,0,0.3,0.1,0.3,0.2c0.1,0.1,0.1,0.3,0,0.4c-0.1,0.1-0.7,1.4-1.7,1.7
		C183.2,61.2,183.1,61.3,182.9,61.3z M180.8,57.8c0.2,0.6,0.6,1.8,1.7,2.4c0.2,0.1,0.4,0.2,0.6,0.1c0.3-0.1,0.6-0.4,0.8-0.7
		c-1.6-0.4-2.5-1.4-2.8-1.9L180.8,57.8z"/>
</g>
<g>
	<path class="st1" d="M186.2,57.4c0,0.5-0.1,0.9-0.4,1.3c-0.3,0.4-0.7,0.6-1.2,0.7c0,0,1.3,2.1,2.3,0.9c1-1.2,0.2-2.7,0.2-2.7
		L186.2,57.4z"/>
	<path class="st0" d="M186.2,61.1c0,0-0.1,0-0.1,0c-1-0.1-1.8-1.3-1.9-1.5c-0.1-0.1-0.1-0.3,0-0.4s0.2-0.2,0.3-0.3
		c0.4-0.1,0.7-0.3,0.9-0.5c0.2-0.3,0.3-0.6,0.3-1c0-0.1,0.1-0.3,0.2-0.4c0.1-0.1,0.3-0.1,0.4-0.1l0.9,0.2c0.1,0,0.3,0.1,0.3,0.2
		c0,0.1,0.9,1.9-0.3,3.2C186.9,61,186.5,61.1,186.2,61.1z M185.3,59.6c0.2,0.3,0.6,0.6,0.8,0.6c0.1,0,0.2,0,0.4-0.2
		c0.6-0.7,0.4-1.6,0.2-2l-0.2,0c-0.1,0.4-0.2,0.7-0.5,1C185.9,59.2,185.6,59.4,185.3,59.6z"/>
</g>
<g>
	<path class="st1" d="M185.6,63.5c0,0.1,0,0.1-0.1,0.2c0,0.1-0.1,0.1-0.1,0.1c-0.1,0-0.1,0-0.2,0c-0.1,0-0.1,0-0.2-0.1
		c0,0-0.1-0.1-0.1-0.2s0-0.1,0-0.2c0-0.1,0.1-0.1,0.1-0.1c0.1,0,0.1-0.1,0.2-0.1c0.1,0,0.2,0,0.2,0.1
		C185.6,63.3,185.6,63.4,185.6,63.5z"/>
	<path class="st0" d="M185.3,64.2c-0.1,0-0.1,0-0.2,0c-0.1,0-0.3-0.1-0.4-0.2s-0.2-0.2-0.2-0.4c0-0.1,0-0.3,0-0.4
		c0.1-0.1,0.2-0.3,0.3-0.4c0.3-0.2,0.7-0.2,1,0.1c0.1,0.1,0.2,0.3,0.2,0.6c0,0.2,0,0.3-0.1,0.4c-0.1,0.1-0.2,0.2-0.3,0.3
		C185.5,64.2,185.4,64.2,185.3,64.2z M185.1,63.5c0,0,0,0.1,0,0.1c0,0,0.1,0,0.1,0L185.1,63.5z M185.4,63.5L185.4,63.5l0-0.2
		L185.4,63.5z M185.2,63.4l0.1,0L185.2,63.4C185.2,63.3,185.2,63.4,185.2,63.4z"/>
</g>
<g>
	<path class="st1" d="M186,69.5c0,0.1,0,0.1-0.1,0.2c0,0.1-0.1,0.1-0.1,0.1c-0.1,0-0.1,0-0.2,0c-0.1,0-0.1,0-0.2-0.1
		c0,0-0.1-0.1-0.1-0.2c0-0.1,0-0.1,0-0.2c0-0.1,0.1-0.1,0.1-0.1c0.1,0,0.1-0.1,0.2-0.1c0.1,0,0.2,0,0.2,0.1
		C186,69.4,186,69.5,186,69.5z"/>
	<path class="st0" d="M185.7,70.3c-0.1,0-0.1,0-0.2,0c-0.1,0-0.3-0.1-0.4-0.2s-0.2-0.2-0.2-0.4c0-0.1,0-0.3,0-0.4
		c0.1-0.1,0.2-0.3,0.3-0.3c0.3-0.2,0.7-0.2,1,0.1c0.1,0.1,0.2,0.3,0.2,0.5c0,0.2,0,0.3-0.1,0.4c-0.1,0.1-0.2,0.2-0.4,0.3
		C185.9,70.3,185.8,70.3,185.7,70.3z M185.6,69.5c0,0,0,0.1,0,0.1c0,0,0.1,0,0.1,0L185.6,69.5z M185.6,69.5l0.3,0.1l0-0.2
		C185.8,69.4,185.7,69.4,185.6,69.5C185.7,69.4,185.6,69.4,185.6,69.5z"/>
</g>
<g>
	<path class="st1" d="M186.4,75.7c0,0.1,0,0.1-0.1,0.2c0,0.1-0.1,0.1-0.1,0.1c-0.1,0-0.1,0-0.2,0c-0.1,0-0.1,0-0.2-0.1
		c0,0-0.1-0.1-0.1-0.2c0-0.1,0-0.1,0-0.2c0-0.1,0.1-0.1,0.1-0.1c0.1,0,0.1-0.1,0.2-0.1c0.1,0,0.2,0,0.2,0.1
		C186.4,75.6,186.4,75.7,186.4,75.7z"/>
	<path class="st0" d="M186.1,76.5c0,0-0.1,0-0.1,0c-0.2,0-0.3-0.1-0.4-0.2c-0.1-0.1-0.2-0.2-0.2-0.4c0-0.2,0-0.3,0-0.5
		c0.1-0.1,0.2-0.3,0.3-0.3c0.3-0.2,0.7-0.2,1,0.1c0.1,0.2,0.2,0.3,0.2,0.6c0,0.2,0,0.3-0.1,0.4c-0.1,0.1-0.2,0.2-0.3,0.3
		C186.3,76.5,186.2,76.5,186.1,76.5z M186.1,75.9C186.1,75.9,186.1,75.9,186.1,75.9l0.2-0.1L186.1,75.9z M186,75.6l-0.1,0.1
		c0,0,0,0.1,0,0.1l0.2-0.2L186,75.6z"/>
</g>
<path class="st2" d="M213.7,34.4H151c-0.3,0-0.5,0.2-0.5,0.5v1.1c0,0.3,0.2,0.5,0.5,0.5h62.7c0.3,0,0.5-0.2,0.5-0.5V35
	C214.2,34.7,214,34.4,213.7,34.4z"/>
<path class="st0" d="M213.6,37.1h-62.5c-0.3,0-0.5-0.2-0.5-0.5s0.2-0.5,0.5-0.5h62.5c0.3,0,0.5,0.2,0.5,0.5S213.8,37.1,213.6,37.1z"
	/>
<path class="st0" d="M213.6,34.9h-62.5c-0.3,0-0.5-0.2-0.5-0.5s0.2-0.5,0.5-0.5h62.5c0.3,0,0.5,0.2,0.5,0.5S213.8,34.9,213.6,34.9z"
	/>
<g>
	<path class="st2" d="M170.5,49.1c0,0-2.6-0.4-2.7,0.3c-0.1,0.7-0.1,1.8,0.4,2.2c0.8,0.7,0.7,2,0.7,2l2.2-0.2l0.1-1.1
		c0.1-0.4,0.3-0.7,0.6-0.9c0.8-0.7,0.5-1.5,0.3-2.5c-0.1-1-0.8-0.5-0.8,0c0,0.5,0,0.9,0.1,1.3L170.5,49.1z"/>
	<path class="st0" d="M168.9,54c-0.1,0-0.2-0.1-0.3-0.1c-0.1-0.1-0.1-0.2-0.1-0.4c0,0,0.1-1-0.5-1.5c-0.6-0.5-0.7-1.8-0.5-2.6
		c0.2-0.9,1.9-0.9,3.2-0.7c0,0,0.1,0,0.1,0c0.1-0.5,0.5-0.9,0.9-0.9c0.1,0,0.7,0.1,0.8,1c0,0.2,0,0.3,0.1,0.4
		c0.1,0.8,0.3,1.7-0.6,2.5c-0.2,0.2-0.3,0.4-0.4,0.7l-0.1,1c0,0.2-0.2,0.4-0.4,0.4L168.9,54C168.9,54,168.9,54,168.9,54z
		 M169.2,49.4c-0.5,0-0.9,0-1,0.1c-0.1,0.6,0,1.4,0.3,1.6c0.6,0.5,0.8,1.3,0.9,1.8l1.3-0.1l0-0.7c0,0,0-0.1,0-0.1
		c0.1-0.4,0.4-0.8,0.7-1.1c0.2-0.2,0.3-0.4,0.4-0.7c0,0.1-0.1,0.2-0.2,0.2c-0.2,0.1-0.4,0-0.6-0.1l-0.6-0.9
		C169.9,49.5,169.5,49.4,169.2,49.4z"/>
</g>
<path class="st2" d="M171.2,50c0,0-0.6,0.1-1.1,1L171.2,50z"/>
<path class="st0" d="M170,51.5c-0.1,0-0.2,0-0.2-0.1c-0.2-0.1-0.3-0.4-0.2-0.6c0.6-1,1.3-1.2,1.4-1.2c0.3-0.1,0.5,0.1,0.6,0.4
	c0.1,0.2-0.1,0.5-0.4,0.5c0,0-0.4,0.1-0.8,0.8C170.4,51.4,170.2,51.5,170,51.5z"/>
<path class="st0" d="M171.2,50.2H168c-0.2,0-0.4,0-0.6-0.1c-0.2-0.1-0.4-0.2-0.5-0.4c-0.1-0.2-0.2-0.3-0.2-0.5s0.1-0.4,0.2-0.5l0,0
	l1.6-2.3c0.1-0.2,0.3-0.3,0.5-0.4c0.2-0.1,0.4-0.1,0.6-0.1s0.4,0,0.6,0.1c0.2,0.1,0.4,0.2,0.5,0.4l1.6,2.3c0.1,0.2,0.2,0.3,0.2,0.5
	s-0.1,0.4-0.2,0.5c-0.1,0.2-0.3,0.3-0.5,0.4S171.4,50.2,171.2,50.2L171.2,50.2z M167.4,48.9c-0.1,0.1-0.1,0.2-0.1,0.3
	c0,0.1,0,0.2,0.1,0.3c0.1,0.1,0.2,0.2,0.3,0.2c0.1,0,0.2,0.1,0.3,0.1h3.1c0.1,0,0.2,0,0.3-0.1c0.1,0,0.2-0.1,0.3-0.2
	c0.1-0.1,0.1-0.2,0.1-0.3c0-0.1,0-0.2-0.1-0.3l-1.6-2.3c-0.1-0.1-0.2-0.2-0.3-0.2c-0.1,0-0.2-0.1-0.3-0.1c-0.1,0-0.2,0-0.3,0.1
	c-0.1,0-0.2,0.1-0.3,0.2L167.4,48.9L167.4,48.9z"/>
<g>
	<path class="st2" d="M168.7,49.1c0.2,0.8,0.1,1.1-0.3,1.1c-0.4,0-0.7-1-0.2-1.3c0.5-0.2,0.9-0.4,0.9-0.4c0.2-0.1,0.3-0.1,0.5-0.1
		c0.2,0,0.4,0,0.5,0.1c0.7-0.3,0.9,0.3,0.9,0.3s0.5,1.5,0.1,1.6c-0.4,0.1-0.8-1.3-0.8-1.3s0.6,1.5,0,1.5c-0.5,0-0.8-1.4-0.8-1.4
		s0.3,1.3-0.1,1.3C168.9,50.5,168.7,49.1,168.7,49.1z"/>
	<path class="st0" d="M170.3,51c-0.2,0-0.4-0.1-0.6-0.2c-0.1,0.1-0.2,0.1-0.3,0.1c-0.3,0-0.5-0.1-0.7-0.3c-0.1,0-0.3,0.1-0.4,0.1
		c-0.5-0.1-0.8-0.6-0.9-1.1c-0.1-0.5,0.1-0.9,0.5-1.1c0.5-0.2,0.9-0.4,0.9-0.4c0.2-0.1,0.4-0.2,0.7-0.2c0.2,0,0.4,0,0.6,0.1
		c0.3-0.1,0.6-0.1,0.8,0.1c0.3,0.2,0.4,0.5,0.5,0.6c0.2,0.6,0.4,1.5,0.2,1.9c-0.1,0.2-0.3,0.3-0.5,0.3c-0.1,0-0.2,0-0.3,0
		C170.7,50.9,170.5,51,170.3,51C170.3,51,170.3,51,170.3,51z"/>
</g>
<g>
	<path class="st2" d="M169.8,36h-0.5v10.1h0.5V36z"/>
	<path class="st0" d="M169.8,46.6h-0.5c-0.3,0-0.5-0.2-0.5-0.5V36c0-0.3,0.2-0.5,0.5-0.5h0.5c0.3,0,0.5,0.2,0.5,0.5v10.1
		C170.3,46.4,170.1,46.6,169.8,46.6z"/>
</g>
<g>
	<path class="st2" d="M170.1,46l-0.3,0.5c0,0-0.1,0-0.1,0.1c0,0-0.1,0-0.1,0s-0.1,0-0.1,0c0,0-0.1,0-0.1-0.1l-0.3-0.5
		c-0.1-0.1,0-0.3,0.2-0.3h0.7C170.1,45.7,170.2,45.9,170.1,46z"/>
	<path class="st0" d="M169.6,47c-0.1,0-0.2,0-0.3-0.1c-0.1,0-0.2-0.1-0.2-0.2l-0.3-0.5c-0.1-0.2-0.1-0.4,0-0.6
		c0.1-0.2,0.3-0.4,0.6-0.4h0.7c0.3,0,0.5,0.1,0.6,0.4c0.1,0.2,0.1,0.4,0,0.6l-0.3,0.5c-0.1,0.1-0.2,0.2-0.3,0.2
		C169.8,47,169.7,47,169.6,47z M169.8,46.5L169.8,46.5L169.8,46.5z M169.5,45.7L169.5,45.7C169.5,45.7,169.5,45.7,169.5,45.7z"/>
</g>
<g>
	<path class="st2" d="M169.9,42.6h-0.5c-0.1,0-0.3,0.1-0.3,0.3v2.2c0,0.1,0.1,0.3,0.3,0.3h0.5c0.1,0,0.3-0.1,0.3-0.3v-2.2
		C170.1,42.7,170,42.6,169.9,42.6z"/>
	<path class="st0" d="M169.9,45.8h-0.5c-0.4,0-0.7-0.3-0.7-0.7v-2.2c0-0.4,0.3-0.7,0.7-0.7h0.5c0.4,0,0.7,0.3,0.7,0.7v2.2
		C170.6,45.5,170.3,45.8,169.9,45.8z M169.5,44.9h0.1v-1.8h-0.1V44.9z M169.9,43.1L169.9,43.1L169.9,43.1z"/>
</g>
<g>
	<path class="st2" d="M169.9,34.1h-0.5c-0.1,0-0.3,0.1-0.3,0.3v2.2c0,0.1,0.1,0.3,0.3,0.3h0.5c0.1,0,0.3-0.1,0.3-0.3v-2.2
		C170.1,34.2,170,34.1,169.9,34.1z"/>
	<path class="st0" d="M169.9,37.3h-0.5c-0.4,0-0.7-0.3-0.7-0.7v-2.2c0-0.4,0.3-0.7,0.7-0.7h0.5c0.4,0,0.7,0.3,0.7,0.7v2.2
		C170.6,37,170.3,37.3,169.9,37.3z M169.5,36.4h0.1v-1.8h-0.1V36.4z M169.9,34.6L169.9,34.6L169.9,34.6z"/>
</g>
<path class="st0" d="M163.8,50.2h-3.1c-0.2,0-0.4,0-0.6-0.1s-0.4-0.2-0.5-0.4c-0.1-0.2-0.2-0.3-0.2-0.5s0.1-0.4,0.2-0.5l0,0l1.6-2.3
	c0.1-0.2,0.3-0.3,0.5-0.4c0.2-0.1,0.4-0.1,0.6-0.1c0.2,0,0.4,0,0.6,0.1c0.2,0.1,0.4,0.2,0.5,0.4l1.6,2.3c0.1,0.2,0.2,0.3,0.2,0.5
	s-0.1,0.4-0.2,0.5c-0.1,0.2-0.3,0.3-0.5,0.4C164.2,50.2,164,50.2,163.8,50.2L163.8,50.2z M160.1,48.9c-0.1,0.1-0.1,0.2-0.1,0.3
	c0,0.1,0,0.2,0.1,0.3c0.1,0.1,0.2,0.2,0.3,0.2c0.1,0,0.2,0.1,0.3,0.1h3.1c0.1,0,0.2,0,0.3-0.1c0.1,0,0.2-0.1,0.3-0.2
	c0.1-0.1,0.1-0.2,0.1-0.3c0-0.1,0-0.2-0.1-0.3l-1.6-2.3c-0.1-0.1-0.2-0.2-0.3-0.2c-0.1,0-0.2-0.1-0.3-0.1c-0.1,0-0.2,0-0.3,0.1
	c-0.1,0-0.2,0.1-0.3,0.2L160.1,48.9L160.1,48.9z"/>
<g>
	<path class="st2" d="M162.5,36H162v10.1h0.5V36z"/>
	<path class="st0" d="M162.5,46.6H162c-0.3,0-0.5-0.2-0.5-0.5V36c0-0.3,0.2-0.5,0.5-0.5h0.5c0.3,0,0.5,0.2,0.5,0.5v10.1
		C162.9,46.4,162.7,46.6,162.5,46.6z"/>
</g>
<g>
	<path class="st2" d="M162.7,46l-0.3,0.5c0,0,0,0-0.1,0.1c0,0-0.1,0-0.1,0c0,0-0.1,0-0.1,0c0,0-0.1,0-0.1-0.1l-0.3-0.5
		c-0.1-0.1,0-0.3,0.2-0.3h0.7C162.7,45.7,162.8,45.9,162.7,46z"/>
	<path class="st0" d="M162.2,47c-0.1,0-0.2,0-0.3-0.1c-0.1,0-0.2-0.1-0.3-0.2l-0.3-0.5c-0.1-0.2-0.1-0.4,0-0.6
		c0.1-0.2,0.3-0.4,0.6-0.4h0.7c0.3,0,0.5,0.1,0.6,0.4c0.1,0.2,0.1,0.4,0,0.6l-0.3,0.5c-0.1,0.1-0.2,0.2-0.2,0.2
		C162.4,47,162.3,47,162.2,47z M162.4,46.5L162.4,46.5L162.4,46.5z M162.1,45.7L162.1,45.7C162.1,45.7,162.1,45.7,162.1,45.7z
		 M162.4,45.7C162.4,45.7,162.4,45.7,162.4,45.7C162.4,45.7,162.4,45.7,162.4,45.7z"/>
</g>
<g>
	<path class="st2" d="M162.5,42.6H162c-0.1,0-0.3,0.1-0.3,0.3v2.2c0,0.1,0.1,0.3,0.3,0.3h0.5c0.1,0,0.3-0.1,0.3-0.3v-2.2
		C162.8,42.7,162.7,42.6,162.5,42.6z"/>
	<path class="st0" d="M162.5,45.8H162c-0.4,0-0.7-0.3-0.7-0.7v-2.2c0-0.4,0.3-0.7,0.7-0.7h0.5c0.4,0,0.7,0.3,0.7,0.7v2.2
		C163.2,45.5,162.9,45.8,162.5,45.8z M162.2,44.9h0.1v-1.8h-0.1V44.9z M162.5,43.1L162.5,43.1L162.5,43.1z"/>
</g>
<g>
	<path class="st2" d="M162.5,34.1H162c-0.1,0-0.3,0.1-0.3,0.3v2.2c0,0.1,0.1,0.3,0.3,0.3h0.5c0.1,0,0.3-0.1,0.3-0.3v-2.2
		C162.8,34.2,162.7,34.1,162.5,34.1z"/>
	<path class="st0" d="M162.5,37.3H162c-0.4,0-0.7-0.3-0.7-0.7v-2.2c0-0.4,0.3-0.7,0.7-0.7h0.5c0.4,0,0.7,0.3,0.7,0.7v2.2
		C163.2,37,162.9,37.3,162.5,37.3z M162.2,36.4h0.1v-1.8h-0.1V36.4z M162.5,34.6L162.5,34.6L162.5,34.6z"/>
</g>
<path class="st0" d="M195.7,50.2h-3.1c-0.2,0-0.4,0-0.6-0.1c-0.2-0.1-0.4-0.2-0.5-0.4c-0.1-0.2-0.2-0.3-0.2-0.5s0.1-0.4,0.2-0.5l0,0
	l1.6-2.3c0.1-0.2,0.3-0.3,0.5-0.4c0.2-0.1,0.4-0.1,0.6-0.1c0.2,0,0.4,0,0.6,0.1c0.2,0.1,0.4,0.2,0.5,0.4l1.6,2.3
	c0.1,0.2,0.2,0.3,0.2,0.5s-0.1,0.4-0.2,0.5c-0.1,0.2-0.3,0.3-0.5,0.4C196.1,50.2,195.9,50.2,195.7,50.2L195.7,50.2z M192,48.9
	c-0.1,0.1-0.1,0.2-0.1,0.3c0,0.1,0,0.2,0.1,0.3c0.1,0.1,0.2,0.2,0.3,0.2c0.1,0,0.2,0.1,0.3,0.1h3.1c0.1,0,0.2,0,0.3-0.1
	c0.1,0,0.2-0.1,0.3-0.2c0.1-0.1,0.1-0.2,0.1-0.3c0-0.1,0-0.2-0.1-0.3l-1.6-2.3c-0.1-0.1-0.2-0.2-0.3-0.2c-0.1,0-0.2-0.1-0.3-0.1
	s-0.2,0-0.3,0.1c-0.1,0-0.2,0.1-0.3,0.2L192,48.9L192,48.9z"/>
<g>
	<path class="st2" d="M194.4,36h-0.5v10.1h0.5V36z"/>
	<path class="st0" d="M194.4,46.6h-0.5c-0.3,0-0.5-0.2-0.5-0.5V36c0-0.3,0.2-0.5,0.5-0.5h0.5c0.3,0,0.5,0.2,0.5,0.5v10.1
		C194.8,46.4,194.6,46.6,194.4,46.6z"/>
</g>
<g>
	<path class="st2" d="M194.6,46l-0.3,0.5c0,0,0,0-0.1,0.1c0,0-0.1,0-0.1,0c0,0-0.1,0-0.1,0s-0.1,0-0.1-0.1l-0.3-0.5
		c-0.1-0.1,0-0.3,0.2-0.3h0.7C194.6,45.7,194.7,45.9,194.6,46z"/>
	<path class="st0" d="M194.1,47c-0.1,0-0.2,0-0.3-0.1c-0.1,0-0.2-0.1-0.2-0.2l-0.3-0.5c-0.1-0.2-0.1-0.4,0-0.6
		c0.1-0.2,0.3-0.4,0.6-0.4h0.7c0.3,0,0.5,0.1,0.6,0.4c0.1,0.2,0.1,0.4-0.1,0.6l-0.3,0.5c-0.1,0.1-0.2,0.2-0.3,0.2
		C194.3,47,194.2,47,194.1,47z M194,45.7L194,45.7C194,45.7,194,45.7,194,45.7z M194.3,45.7C194.3,45.7,194.3,45.7,194.3,45.7
		C194.3,45.7,194.3,45.7,194.3,45.7z"/>
</g>
<g>
	<path class="st2" d="M194.4,42.6h-0.5c-0.1,0-0.3,0.1-0.3,0.3v2.2c0,0.1,0.1,0.3,0.3,0.3h0.5c0.1,0,0.3-0.1,0.3-0.3v-2.2
		C194.7,42.7,194.5,42.6,194.4,42.6z"/>
	<path class="st0" d="M194.4,45.8h-0.5c-0.4,0-0.7-0.3-0.7-0.7v-2.2c0-0.4,0.3-0.7,0.7-0.7h0.5c0.4,0,0.7,0.3,0.7,0.7v2.2
		C195.1,45.5,194.8,45.8,194.4,45.8z M194,44.9h0.1v-1.8H194V44.9z M194.4,43.1L194.4,43.1L194.4,43.1z"/>
</g>
<g>
	<path class="st2" d="M194.4,34.1h-0.5c-0.1,0-0.3,0.1-0.3,0.3v2.2c0,0.1,0.1,0.3,0.3,0.3h0.5c0.1,0,0.3-0.1,0.3-0.3v-2.2
		C194.7,34.2,194.5,34.1,194.4,34.1z"/>
	<path class="st0" d="M194.4,37.3h-0.5c-0.4,0-0.7-0.3-0.7-0.7v-2.2c0-0.4,0.3-0.7,0.7-0.7h0.5c0.4,0,0.7,0.3,0.7,0.7v2.2
		C195.1,37,194.8,37.3,194.4,37.3z M194,36.4h0.1v-1.8H194V36.4z M194.4,34.6L194.4,34.6L194.4,34.6z"/>
</g>
<path class="st0" d="M202.7,50.2h-3.1c-0.2,0-0.4,0-0.6-0.1s-0.4-0.2-0.5-0.4c-0.1-0.2-0.2-0.3-0.2-0.5s0.1-0.4,0.2-0.5l0,0l1.6-2.3
	c0.1-0.2,0.3-0.3,0.5-0.4c0.2-0.1,0.4-0.1,0.6-0.1c0.2,0,0.4,0,0.6,0.1c0.2,0.1,0.4,0.2,0.5,0.4l1.6,2.3c0.1,0.2,0.2,0.3,0.2,0.5
	s-0.1,0.4-0.2,0.5c-0.1,0.2-0.3,0.3-0.5,0.4C203.1,50.2,202.9,50.2,202.7,50.2L202.7,50.2z M199,48.9c-0.1,0.1-0.1,0.2-0.1,0.3
	c0,0.1,0,0.2,0.1,0.3c0.1,0.1,0.2,0.2,0.3,0.2c0.1,0,0.2,0.1,0.3,0.1h3.1c0.1,0,0.2,0,0.3-0.1c0.1,0,0.2-0.1,0.3-0.2
	c0.1-0.1,0.1-0.2,0.1-0.3c0-0.1,0-0.2-0.1-0.3l-1.6-2.3c-0.1-0.1-0.2-0.2-0.3-0.2c-0.1,0-0.2-0.1-0.3-0.1c-0.1,0-0.2,0-0.3,0.1
	c-0.1,0-0.2,0.1-0.3,0.2L199,48.9L199,48.9z"/>
<g>
	<path class="st2" d="M201.4,36h-0.5v10.1h0.5V36z"/>
	<path class="st0" d="M201.4,46.6h-0.5c-0.3,0-0.5-0.2-0.5-0.5V36c0-0.3,0.2-0.5,0.5-0.5h0.5c0.3,0,0.5,0.2,0.5,0.5v10.1
		C201.8,46.4,201.6,46.6,201.4,46.6z"/>
</g>
<g>
	<path class="st2" d="M201.6,46l-0.3,0.5c0,0,0,0-0.1,0.1c0,0-0.1,0-0.1,0c0,0-0.1,0-0.1,0c0,0-0.1,0-0.1-0.1l-0.3-0.5
		c-0.1-0.1,0-0.3,0.2-0.3h0.7C201.6,45.7,201.7,45.9,201.6,46z"/>
	<path class="st0" d="M201.1,47c-0.1,0-0.2,0-0.3-0.1c-0.1,0-0.2-0.1-0.2-0.2l-0.3-0.5c-0.1-0.2-0.1-0.4,0-0.6
		c0.1-0.2,0.3-0.4,0.6-0.4h0.7c0.3,0,0.5,0.1,0.6,0.4c0.1,0.2,0.1,0.4,0,0.6l-0.3,0.5c-0.1,0.1-0.2,0.2-0.3,0.2
		C201.3,47,201.2,47,201.1,47z M201.3,46.5L201.3,46.5L201.3,46.5z M201,45.7L201,45.7C201,45.7,201,45.7,201,45.7z"/>
</g>
<g>
	<path class="st2" d="M201.4,42.6h-0.5c-0.1,0-0.3,0.1-0.3,0.3v2.2c0,0.1,0.1,0.3,0.3,0.3h0.5c0.1,0,0.3-0.1,0.3-0.3v-2.2
		C201.7,42.7,201.6,42.6,201.4,42.6z"/>
	<path class="st0" d="M201.4,45.8h-0.5c-0.4,0-0.7-0.3-0.7-0.7v-2.2c0-0.4,0.3-0.7,0.7-0.7h0.5c0.4,0,0.7,0.3,0.7,0.7v2.2
		C202.1,45.5,201.8,45.8,201.4,45.8z M201.1,44.9h0.1v-1.8h-0.1V44.9z M201.4,43.1L201.4,43.1L201.4,43.1z"/>
</g>
<g>
	<path class="st2" d="M201.4,34.1h-0.5c-0.1,0-0.3,0.1-0.3,0.3v2.2c0,0.1,0.1,0.3,0.3,0.3h0.5c0.1,0,0.3-0.1,0.3-0.3v-2.2
		C201.7,34.2,201.6,34.1,201.4,34.1z"/>
	<path class="st0" d="M201.4,37.3h-0.5c-0.4,0-0.7-0.3-0.7-0.7v-2.2c0-0.4,0.3-0.7,0.7-0.7h0.5c0.4,0,0.7,0.3,0.7,0.7v2.2
		C202.1,37,201.8,37.3,201.4,37.3z M201.1,36.4h0.1v-1.8h-0.1V36.4z M201.4,34.6L201.4,34.6L201.4,34.6z"/>
</g>
<g>
	<path class="st1" d="M171.4,52.8l0.2,1.3l-3.4,0.2l0.3-1.3L171.4,52.8z"/>
	<path class="st0" d="M168.2,54.8c-0.1,0-0.3-0.1-0.4-0.2c-0.1-0.1-0.1-0.3-0.1-0.4l0.3-1.3c0-0.2,0.2-0.4,0.4-0.4l2.9-0.2
		c0.2,0,0.5,0.2,0.5,0.4l0.2,1.3c0,0.1,0,0.3-0.1,0.4c-0.1,0.1-0.2,0.2-0.3,0.2L168.2,54.8C168.2,54.8,168.2,54.8,168.2,54.8z
		 M168.9,53.4l-0.1,0.4l2.3-0.1l0-0.4L168.9,53.4z"/>
</g>
<g>
	<path class="st2" d="M177.1,63.9c0,0-5.8,5.3-7.2,5.4c-0.3,0-0.6,0.2-0.9,0c-0.6-0.4-1.5-1.3-1.4-4.9c0.1-2,1.3-10.2,1.3-10.2
		l2.2-0.1l0.5,9.2c1.9-1.9,5.1-4.6,5.1-4.6C177.7,62,177.1,63.9,177.1,63.9z"/>
	<path class="st0" d="M169.3,69.9c-0.2,0-0.3,0-0.5-0.2c-0.8-0.5-1.7-1.6-1.6-5.3c0.1-2,1.2-9.9,1.3-10.2c0-0.2,0.2-0.4,0.4-0.4
		l2.2-0.1c0.2,0,0.5,0.2,0.5,0.4l0.5,8.2c1.4-1.3,4.3-4,4.7-4c0.2,0,0.4,0.1,0.4,0.3c1,3.3,0.5,5.2,0.4,5.3c0,0.1-0.1,0.1-0.1,0.2
		c-1,0.9-6,5.5-7.5,5.6c-0.1,0-0.2,0-0.2,0C169.6,69.8,169.4,69.9,169.3,69.9z M169.3,54.7c-0.2,1.6-1.1,8.1-1.2,9.8
		c-0.1,3.6,0.8,4.3,1.2,4.5c0,0,0.1,0,0.2,0c0.1,0,0.3-0.1,0.4-0.1c0.7,0,4-2.7,6.8-5.2c0.1-0.4,0.3-1.8-0.3-4
		c-1,0.8-3.1,2.7-4.5,4.1c-0.1,0.1-0.3,0.2-0.5,0.1c-0.2-0.1-0.3-0.2-0.3-0.4l-0.5-8.8L169.3,54.7z M177.1,63.9L177.1,63.9
		L177.1,63.9z"/>
</g>
<path class="st2" d="M191.8,71.3c0.1-0.6,0.4-1.2,0.8-1.8L191.8,71.3z"/>
<path class="st0" d="M191.8,71.8c0,0-0.1,0-0.1,0c-0.3-0.1-0.4-0.3-0.3-0.6c0.2-0.7,0.5-1.4,0.9-1.9c0.2-0.2,0.4-0.2,0.7-0.1
	c0.2,0.2,0.3,0.4,0.1,0.7c-0.4,0.5-0.6,1-0.7,1.6C192.2,71.6,192.1,71.8,191.8,71.8z"/>
<path class="st0" d="M170.9,66c-0.2,0-0.3-0.1-0.4-0.3c-0.1-0.2,0-0.5,0.2-0.6c0.1-0.1,0.5-0.9,0.4-2.4c0-0.3,0.2-0.5,0.4-0.5
	c0.3,0,0.5,0.2,0.5,0.4c0.1,1.7-0.4,3-0.9,3.3C171.1,66,171,66,170.9,66z"/>
<g>
	<path class="st2" d="M173,43.6v-3.7c0-0.2,0.1-0.3,0.2-0.5c0.1-0.1,0.3-0.2,0.5-0.2h5.8c0.2,0,0.3,0.1,0.5,0.2
		c0.1,0.1,0.2,0.3,0.2,0.5v3.7c0,0.2-0.1,0.3-0.2,0.5c-0.1,0.1-0.3,0.2-0.5,0.2h-2l0.2,1.4h-1V47l-1.2-2.2h1l-0.1-0.6h-2.6
		c-0.1,0-0.2,0-0.3-0.1c-0.1,0-0.2-0.1-0.2-0.1c-0.1-0.1-0.1-0.1-0.1-0.2C173,43.8,173,43.7,173,43.6z"/>
	<path class="st0" d="M176.6,47.5c-0.2,0-0.3-0.1-0.4-0.2l-1.2-2.2c-0.1-0.1-0.1-0.2-0.1-0.3h-1.2c-0.1,0-0.3,0-0.4-0.1
		c-0.1-0.1-0.3-0.1-0.4-0.2c-0.1-0.1-0.2-0.2-0.2-0.4c-0.1-0.1-0.1-0.3-0.1-0.4v-3.7c0-0.3,0.1-0.6,0.3-0.8c0.2-0.2,0.5-0.3,0.8-0.3
		h5.8c0.3,0,0.6,0.1,0.8,0.3c0.2,0.2,0.3,0.5,0.3,0.8v3.7c0,0.3-0.1,0.6-0.3,0.8c-0.2,0.2-0.5,0.3-0.8,0.3H178l0.1,0.9
		c0,0.1,0,0.3-0.1,0.4c-0.1,0.1-0.2,0.2-0.3,0.2H177V47c0,0.2-0.1,0.4-0.3,0.5C176.7,47.5,176.6,47.5,176.6,47.5z M176.1,45.3
		L176.1,45.3c0.1,0.1,0.1,0,0.1,0H176.1z M176.6,45.2h0.5l-0.1-0.9c0-0.1,0-0.3,0.1-0.4c0.1-0.1,0.2-0.2,0.3-0.2h2
		c0.1,0,0.1,0,0.1-0.1c0,0,0.1-0.1,0.1-0.1v-3.7c0-0.1,0-0.1-0.1-0.1c0,0-0.1-0.1-0.2-0.1h-5.8c-0.1,0-0.1,0-0.1,0.1
		c0,0-0.1,0.1-0.1,0.1v3.7c0,0,0,0.1,0,0.1l-0.1,0.5l0.2-0.4l2.7,0c0.2,0,0.4,0.2,0.5,0.4l0.1,0.6C176.8,44.9,176.8,45.1,176.6,45.2
		C176.7,45.2,176.7,45.2,176.6,45.2z"/>
</g>
<path class="st0" d="M178,41h-3.9c-0.3,0-0.5-0.2-0.5-0.5s0.2-0.5,0.5-0.5h3.9c0.3,0,0.5,0.2,0.5,0.5S178.3,41,178,41z"/>
<path class="st0" d="M179,42h-4.9c-0.3,0-0.5-0.2-0.5-0.5s0.2-0.5,0.5-0.5h4.9c0.3,0,0.5,0.2,0.5,0.5S179.3,42,179,42z"/>
<path class="st0" d="M178.3,43.1h-4.2c-0.3,0-0.5-0.2-0.5-0.5s0.2-0.5,0.5-0.5h4.2c0.3,0,0.5,0.2,0.5,0.5S178.5,43.1,178.3,43.1z"/>
<path class="st1" d="M43.9,134.7c8,0,14.4-0.9,14.4-2.1c0-1.2-6.5-2.1-14.4-2.1s-14.4,0.9-14.4,2.1C29.5,133.8,36,134.7,43.9,134.7z
	"/>
<path class="st1" d="M42.7,98.9c13.9,0,25.2-11.2,25.2-25c0-13.8-11.3-25-25.2-25S17.5,60,17.5,73.8C17.5,87.7,28.8,98.9,42.7,98.9z
	"/>
<g>
	<path class="st2" d="M31.1,90.2c0,0,0.6,3.7-1.5,7.9h27c0,0-1.2-1.9-2.5-7.9H31.1z"/>
	<path class="st0" d="M56.6,98.5h-27c-0.2,0-0.3-0.1-0.4-0.2s-0.1-0.3,0-0.4c2.1-4,1.5-7.5,1.5-7.6c0-0.1,0-0.3,0.1-0.4
		c0.1-0.1,0.2-0.2,0.3-0.2h23c0.2,0,0.4,0.1,0.4,0.3c1.3,5.7,2.5,7.7,2.5,7.7c0.1,0.1,0.1,0.3,0,0.4C56.9,98.4,56.7,98.5,56.6,98.5z
		 M30.3,97.6h25.6c-0.5-1-1.3-3.1-2.2-7H31.6C31.7,91.8,31.7,94.5,30.3,97.6z"/>
</g>
<g>
	<path class="st0" d="M37.2,91.1c-1.5,0.1-2.9,0.6-4.1,1.5c-1.2,0.9-2.1,2.1-2.7,3.4c-0.3,0.7-0.6,1.4-0.9,2.1
		c-1.6,3.8-0.1,9.3,4.1,9.3H53c3.8,0,4.9-4.8,3.9-8.4c-0.6-2.3-1.8-4.7-3.8-6.3C50.4,90.4,42.5,90.7,37.2,91.1z"/>
	<path class="st0" d="M53,107.8H33.7c-1.6,0-3.1-0.8-4-2.2c-1.4-2.1-1.6-5.2-0.5-7.7c0.3-0.7,0.6-1.4,0.9-2.1
		c0.6-1.4,1.6-2.7,2.9-3.6c1.3-0.9,2.8-1.5,4.3-1.6l0,0c5.9-0.5,13.4-0.6,16.2,1.7c2.4,1.9,3.5,4.6,3.9,6.5c0.6,2.3,0.5,5.4-1.1,7.4
		C55.5,107.3,54.3,107.8,53,107.8z M37.3,91.5c-1.4,0.1-2.7,0.6-3.9,1.4c-1.1,0.8-2,1.9-2.6,3.2c-0.3,0.7-0.6,1.4-0.9,2.1
		c-1,2.2-0.8,5,0.4,6.9c0.6,0.8,1.6,1.8,3.3,1.8H53c1.1,0,2-0.4,2.6-1.3c1.2-1.5,1.5-4.1,0.9-6.6C56,97.3,55,94.8,52.8,93
		C50.9,91.4,45.3,90.9,37.3,91.5L37.3,91.5z"/>
</g>
<g>
	<path class="st2" d="M18.8,87c0,0-3.5,2.1-3.6,3.2h4.2l1.7-1.2l-0.6,1.2h1.3c0,0,1.4-1.1,1.4-2.2l-0.1-1l-2.5-1.1L18.8,87z"/>
	<path class="st0" d="M21.9,90.7h-1.3c-0.1,0-0.3-0.1-0.4-0.2c0-0.1-0.1-0.1-0.1-0.2l-0.4,0.3c-0.1,0.1-0.2,0.1-0.3,0.1h-4.2
		c-0.1,0-0.2-0.1-0.3-0.1c-0.1-0.1-0.1-0.2-0.1-0.3c0.1-1.3,2.9-3,3.8-3.5c0,0,0,0,0,0l1.9-1.1c0.1-0.1,0.3-0.1,0.4,0l2.5,1.1
		c0.1,0.1,0.2,0.2,0.3,0.3l0.1,1c-0.1,1.4-1.5,2.6-1.6,2.6C22.1,90.6,22,90.7,21.9,90.7z M21.3,89.8h0.4c0.4-0.3,1.1-1.1,1.2-1.8
		l-0.1-0.7l-2.1-0.9l-1.7,1c-1.2,0.7-2.5,1.7-3.1,2.4h3.4l1.6-1.1c0.2-0.1,0.4-0.1,0.5,0c0.2,0.1,0.2,0.3,0.1,0.5L21.3,89.8z"/>
</g>
<path class="st2" d="M59.3,79.4c0,0-0.6-3.6-1.8-8.8c-1.2-5.2-3.6-5.6-3.6-5.6h0c-3.1-1.3-11.1-2-11.1-2h-0.4c0,0-8.1,0.7-11.1,2h0
	c0,0-2.4,0.4-3.6,5.6c-1.2,5.2-1.8,8.8-1.8,8.8s-2.2,0.6-6.1,5.5c-0.6,0.8-1.1,1.6-1.6,2.5l0,0c0,0,3-1,5.2,0.5c0,0,7-2.9,7.3-6
	c0-0.1,0-0.2,0-0.4c0.2,4.7,0.4,8.6,0.4,8.6h23.1c0,0,0.2-3.9,0.4-8.6c0,0.1,0,0.3,0,0.4c0.4,3.1,8.1,6.6,8.1,6.6
	c2.1-3.2,5.2-1.5,5.2-1.5L59.3,79.4z"/>
<path class="st6" d="M30.7,81.9c0-0.1,0-0.2,0-0.3l-0.5-10.9c0,0-1.4,0.3-1,3.6c0.4,3.3,1.2,2.8,0.8,4.1s-2.3-0.2-2.9,0.9
	s3.4,0.9,1.7,3.7c-1.6,2.9-5.5,4.9-5.5,4.9S30.3,85,30.7,81.9z"/>
<g class="st7">
	<path class="st6" d="M54.7,81.9C54.7,81.8,55.6,82,54.7,81.9l0.3-9.3c0,0-0.1,4.5,0.4,5.8c0.5,1.3,2.3-0.2,2.9,0.9
		s-3.4,0.9-1.7,3.7C58.2,85.9,62,88,62,88S55,85,54.7,81.9z"/>
</g>
<path class="st6" d="M54.3,84.1c-0.2,3.5-0.3,6.2-0.3,6.2H33.3C47.2,90.2,54.3,84.1,54.3,84.1L54.3,84.1z"/>
<path class="st0" d="M54.2,90.6H31.1c-0.2,0-0.4-0.2-0.4-0.4c0,0-0.1-2.8-0.3-6.6c-1.9,2.6-6.6,4.6-6.8,4.7c-0.1,0.1-0.3,0-0.4,0
	c-1.9-1.4-4.7-0.5-4.8-0.5c-0.2,0.1-0.3,0-0.5-0.1c-0.1-0.1-0.1-0.3-0.1-0.5c0.4-0.9,1-1.8,1.6-2.6c3.3-4.1,5.4-5.3,6.1-5.6
	c0.1-0.9,0.7-4.2,1.7-8.6c1.3-5.4,3.9-5.9,4-6c3-1.3,10.9-2,11.2-2l0.4,0c0.4,0,8.2,0.7,11.3,2.1l0,0c0.6,0.2,2.8,1.1,3.9,5.9
	c1.1,4.6,1.6,8,1.8,8.7l8.4,7.6c0.2,0.1,0.2,0.4,0.1,0.6c-0.1,0.2-0.4,0.2-0.6,0.1c-0.1-0.1-2.7-1.5-4.6,1.3
	c-0.1,0.2-0.4,0.2-0.5,0.2c-0.7-0.3-5.7-2.6-7.6-5.2c-0.2,3.7-0.3,6.6-0.3,6.6C54.6,90.5,54.4,90.6,54.2,90.6z M31.5,89.8h22.2
	c0-1.1,0.2-4.4,0.4-8.2c0-0.2,0.2-0.4,0.4-0.4c0,0,0,0,0,0c0.2,0,0.4,0.2,0.4,0.4c0,0.1,0,0.1,0,0.2l0,0.1c0.3,2.2,5.2,5,7.5,6.1
	c1.2-1.6,2.6-1.9,3.7-1.8L59,79.7c-0.1-0.1-0.1-0.2-0.1-0.3c0,0-0.6-3.7-1.8-8.8c-1.1-4.8-3.2-5.3-3.2-5.3c-0.1,0-0.1,0-0.1,0
	c-3-1.3-10.9-2-11-2l-0.3,0c0,0-8,0.7-11,2c-0.1,0-0.1,0-0.2,0c0,0-2.1,0.5-3.2,5.3c-1.2,5.1-1.8,8.8-1.8,8.8c0,0.2-0.2,0.3-0.3,0.4
	c0,0-2.2,0.7-5.9,5.4c-0.4,0.5-0.8,1.1-1.1,1.6c1.1-0.2,2.9-0.3,4.4,0.7c2-0.9,6.6-3.4,6.8-5.6c0,0,0-0.1,0-0.2l0-0.1
	c0-0.2,0.2-0.4,0.5-0.4c0.2,0,0.4,0.2,0.4,0.4C31.3,85.3,31.4,88.6,31.5,89.8z"/>
<path class="st0" d="M29.7,80.8c-0.1,0-0.2,0-0.3-0.1c-0.8-0.7-1.7-1-2.7-0.9c-0.3,0-0.4-0.2-0.5-0.4c0-0.2,0.2-0.4,0.4-0.5
	c1.2-0.1,2.4,0.4,3.4,1.2c0.2,0.2,0.2,0.4,0,0.6C29.9,80.8,29.8,80.8,29.7,80.8z"/>
<path class="st0" d="M30.6,78.7c-0.2,0-0.4-0.2-0.4-0.4c-0.3-6.1-1.5-6.8-1.5-6.8c-0.2-0.1-0.4-0.3-0.3-0.5c0.1-0.2,0.3-0.4,0.5-0.3
	c0.2,0,0.5,0.2,0.9,0.9l-0.1-2.3c0-0.2,0.2-0.4,0.4-0.5c0.2,0,0.4,0.2,0.5,0.4l0.4,9.1c0,0,0,0,0,0l0,0C31,78.5,30.8,78.7,30.6,78.7
	C30.6,78.7,30.6,78.7,30.6,78.7z"/>
<path class="st0" d="M30.7,81.1c-0.2,0-0.4-0.2-0.4-0.4l-0.1-1.4c0-0.2,0.2-0.4,0.4-0.5c0.2,0,0.4,0.2,0.5,0.4l0.1,1.4
	C31.1,80.8,30.9,81.1,30.7,81.1C30.7,81.1,30.7,81.1,30.7,81.1z"/>
<path class="st0" d="M55.6,80.8c-0.1,0-0.2-0.1-0.3-0.2c-0.2-0.2-0.1-0.5,0-0.6c0.9-0.8,2.1-1.2,3.4-1.1c0.2,0,0.4,0.2,0.4,0.5
	c0,0.2-0.2,0.4-0.5,0.4c-1-0.1-2,0.3-2.7,0.9C55.8,80.8,55.7,80.8,55.6,80.8z"/>
<path class="st0" d="M55,71.5C55,71.5,55,71.5,55,71.5c-0.3,0-0.4-0.2-0.4-0.5c0-0.6,0.1-1.2,0.1-1.9c0-0.2,0.2-0.4,0.5-0.4
	c0.2,0,0.4,0.2,0.4,0.5c0,0.6-0.1,1.2-0.1,1.8C55.4,71.3,55.2,71.5,55,71.5z"/>
<path class="st2" d="M46.9,63.3c-0.4,1.9-2.2,2.5-4.4,2.5s-4-0.7-4.4-2.5h0.1c0.2,0,0.4-0.1,0.6-0.3c0.2-0.2,0.3-0.4,0.3-0.6
	c0-0.1,0-0.2,0-0.3V60H46v2.2c0,0.1,0,0.3,0.1,0.4c0.1,0.2,0.2,0.4,0.4,0.5C46.6,63.2,46.7,63.3,46.9,63.3L46.9,63.3z"/>
<path class="st0" d="M45.9,61.7c-1.1,1.1-2.3,1.8-3.5,1.8c-1.2,0.1-2.7-1-3.3-1.9c0-0.1,0-0.2,0-0.3v-0.7l6.7,0.1v0.6
	C45.8,61.4,46,61.6,45.9,61.7z"/>
<path class="st0" d="M42.6,66.3c-2.7,0-4.4-1-4.8-2.9c0-0.1,0-0.3,0.1-0.4s0.2-0.2,0.3-0.2c0.2,0,0.3-0.1,0.4-0.2
	c0.1-0.1,0.2-0.2,0.2-0.4c0-0.1,0-0.1,0-0.2V60c0-0.2,0.2-0.4,0.4-0.4H46c0.2,0,0.4,0.2,0.4,0.4v2.2c0,0.1,0,0.2,0,0.2
	c0,0.1,0.1,0.2,0.2,0.3c0.1,0.1,0.2,0.1,0.3,0.1c0.1,0,0.2,0.1,0.3,0.2c0.1,0.1,0.1,0.2,0.1,0.3C47,65.3,45.3,66.3,42.6,66.3z
	 M38.8,63.7c0.6,1.5,2.4,1.8,3.8,1.8c1.5,0,3.3-0.3,3.8-1.8c-0.1-0.1-0.2-0.1-0.3-0.2c-0.2-0.2-0.4-0.4-0.5-0.7
	c-0.1-0.2-0.1-0.4-0.1-0.6v-1.8h-5.8v1.8c0,0.1,0,0.3-0.1,0.4c-0.1,0.3-0.2,0.5-0.5,0.8C39.1,63.5,38.9,63.6,38.8,63.7z"/>
<path class="st0" d="M37.7,55.3c0,0-2.3-2.6-2-6.2c0.3-3.6,3.3-3.6,3.3-3.6s3.6-3.1,7.6-1.2c4,2,3.7,8.8,0.8,10.5L37.7,55.3z"/>
<g>
	<path class="st2" d="M47.9,53.6c0-0.6,0-1,0-1c-0.3-1.6-2.2-1.7-3.1-1.8c-3.8-0.1-4.7-2.4-4.7-2.4c-2.3-0.7-2.9,4.2-2.9,4.2
		s0,0.4,0,1c-0.4,0.1-0.8,0.3-1,0.6c-0.3,0.3-0.4,0.7-0.4,1.1c0,1,0.7,1.8,1.6,1.8c0.1,0,0.2,0,0.3,0l0.4,2.3c0.1,0.5,0.6,1.7,1,2
		c0.9,0.6,2.4,1.5,3.5,1.5c1,0,2.3-0.8,3.3-1.3c0.6-0.3,1.2-1.5,1.2-2.1l0.3-2.3c0.1,0,0.3,0,0.4,0c0.9,0,1.6-0.8,1.6-1.8
		c0-0.4-0.1-0.8-0.4-1.1C48.7,53.9,48.3,53.6,47.9,53.6L47.9,53.6z"/>
	<path class="st0" d="M42.5,63.3c-0.9,0-2.2-0.5-3.7-1.6c-0.6-0.4-1.1-1.8-1.2-2.3l-0.3-1.9c-1.1-0.1-1.9-1-1.9-2.2
		c0-0.5,0.1-1,0.5-1.4c0.2-0.3,0.6-0.5,0.9-0.7c0-0.4,0-0.6,0-0.6c0-0.4,0.5-3.4,2-4.4c0.5-0.3,1-0.4,1.5-0.2c0.1,0,0.2,0.1,0.3,0.2
		c0,0.1,1,2,4.4,2.2c2.6,0.1,3.4,1.2,3.5,2.1c0,0.1,0,0.3,0,0.7c0.4,0.1,0.7,0.4,0.9,0.7c0.3,0.4,0.5,0.9,0.5,1.4
		c0,1.2-0.9,2.2-2,2.2c0,0,0,0,0,0l-0.2,2c-0.1,0.7-0.7,2-1.4,2.4l-0.3,0.2C44.8,62.6,43.5,63.3,42.5,63.3z M37.6,56.6
		c0.1,0,0.2,0,0.2,0.1c0.1,0.1,0.2,0.2,0.2,0.3l0.4,2.3c0.1,0.5,0.5,1.6,0.8,1.7c1.4,0.9,2.5,1.4,3.3,1.4c0.8,0,1.9-0.6,2.8-1.1
		l0.3-0.2c0.4-0.2,0.9-1.3,1-1.8l0.3-2.3c0-0.2,0.2-0.4,0.4-0.4c0.1,0,0.3,0,0.4,0c0.7,0,1.2-0.6,1.2-1.3c0-0.3-0.1-0.6-0.3-0.9
		c-0.2-0.2-0.5-0.4-0.8-0.5c-0.2,0-0.4-0.2-0.4-0.5c0-0.6,0-0.9,0-0.9c-0.1-0.8-1-1.3-2.7-1.3c-3.4-0.1-4.7-1.9-5-2.5
		c-0.2,0-0.4,0-0.6,0.1c-1,0.6-1.5,2.9-1.6,3.7l0,0c0,0,0,0.4,0,0.9c0,0.2-0.1,0.4-0.4,0.5c-0.3,0.1-0.6,0.2-0.8,0.5
		c-0.2,0.2-0.3,0.5-0.3,0.8C36.2,56.1,36.9,56.7,37.6,56.6C37.6,56.6,37.6,56.6,37.6,56.6z"/>
</g>
<g>
	<path class="st2" d="M36.4,52.1H36v1.4h0.4V52.1z"/>
	<path class="st0" d="M36.4,54H36c-0.2,0-0.4-0.2-0.4-0.4v-1.4c0-0.2,0.2-0.4,0.4-0.4h0.4c0.2,0,0.4,0.2,0.4,0.4v1.4
		C36.8,53.8,36.6,54,36.4,54z"/>
</g>
<g>
	<path class="st2" d="M48.9,52.1h-0.4v1.4h0.4V52.1z"/>
	<path class="st0" d="M48.9,54h-0.4c-0.2,0-0.4-0.2-0.4-0.4v-1.4c0-0.2,0.2-0.4,0.4-0.4h0.4c0.2,0,0.4,0.2,0.4,0.4v1.4
		C49.3,53.8,49.1,54,48.9,54z"/>
</g>
<g>
	<path class="st2" d="M42.4,45.8c-1.7,0-3.4,0.7-4.7,1.9c-1.3,1.2-2,2.8-2,4.6c0,0,0,0.1,0,0.1c0,0,0,0.1,0.1,0.1c0,0,0,0,0.1,0.1
		c0,0,0.1,0,0.1,0h0.4c0.1,0,0.1,0,0.2-0.1c0,0,0.1-0.1,0.1-0.2c0.1-1.5,0.7-2.9,1.8-3.9c1.1-1,2.5-1.6,4-1.6s2.9,0.6,4,1.6
		c1.1,1,1.7,2.4,1.8,3.9c0,0.1,0,0.1,0.1,0.2c0,0,0.1,0.1,0.2,0.1h0.4c0,0,0.1,0,0.1,0c0,0,0.1,0,0.1-0.1s0-0.1,0.1-0.1
		c0,0,0-0.1,0-0.1c-0.1-1.7-0.8-3.4-2-4.6C45.8,46.4,44.2,45.8,42.4,45.8z"/>
	<path class="st0" d="M48.9,52.9C48.9,52.9,48.9,52.9,48.9,52.9h-0.4c-0.2,0-0.3-0.1-0.5-0.2c-0.1-0.1-0.2-0.3-0.2-0.5
		c-0.1-1.4-0.7-2.7-1.7-3.6c-1-1-2.3-1.5-3.7-1.5c-1.4,0-2.7,0.5-3.7,1.5c-1,1-1.6,2.2-1.7,3.6c0,0.2-0.1,0.3-0.2,0.5
		c-0.1,0.1-0.3,0.2-0.5,0.2H36c-0.1,0-0.2,0-0.3-0.1c-0.1,0-0.2-0.1-0.2-0.2c0,0-0.1-0.2-0.1-0.2c0-0.1,0-0.2,0-0.3
		c0.1-1.9,0.8-3.6,2.2-4.9c1.3-1.3,3.1-2,5-2c0,0,0,0,0,0c1.9,0,3.6,0.7,5,2c1.3,1.3,2.1,3,2.2,4.9c0,0.1,0,0.2,0,0.3
		c0,0.1-0.1,0.2-0.2,0.2c0,0-0.2,0.1-0.2,0.1C49.1,52.9,49,52.9,48.9,52.9z M36.2,52.2C36.2,52.2,36.2,52.2,36.2,52.2
		C36.2,52.2,36.2,52.2,36.2,52.2z M48.7,52.2C48.7,52.2,48.7,52.2,48.7,52.2C48.7,52.2,48.7,52.2,48.7,52.2z M48.6,52L48.6,52
		c-0.1-1.5-0.7-3-1.9-4.1c-1.2-1.1-2.7-1.7-4.4-1.7c0,0,0,0,0,0l0,0c0,0,0,0,0,0c-1.6,0-3.2,0.6-4.4,1.7C37,49,36.3,50.5,36.2,52h0
		c0.1-1.5,0.8-3,1.9-4c1.2-1.1,2.7-1.7,4.3-1.7c1.6,0,3.1,0.6,4.3,1.7C47.9,49.1,48.5,50.5,48.6,52z"/>
</g>
<g>
	<path class="st0" d="M37.1,53L37.1,53c-0.6,0-1.2,0.3-1.5,0.6c-0.4,0.4-0.6,0.9-0.6,1.5s0.2,1.1,0.6,1.5c0.4,0.4,0.9,0.6,1.4,0.6
		h0.1V53z"/>
	<path class="st0" d="M37.5,57.7l-0.5,0c-0.7,0-1.3-0.3-1.7-0.8c-0.5-0.5-0.7-1.1-0.7-1.8c0-0.7,0.3-1.3,0.7-1.8
		c0.5-0.5,1.1-0.8,1.7-0.8l0.5,0V57.7z M36.7,53.5c-0.3,0.1-0.6,0.2-0.8,0.5c-0.3,0.3-0.5,0.7-0.5,1.2c0,0.4,0.2,0.8,0.5,1.2
		c0.2,0.2,0.5,0.4,0.8,0.5V53.5z"/>
</g>
<g>
	<path class="st2" d="M37.6,55.1c0,1.6,0.1,2.6-0.5,2.6c-0.5,0-0.7-1-0.7-2.6c0-1.6,0.2-2.6,0.7-2.6C37.7,52.6,37.6,53.6,37.6,55.1z
		"/>
	<path class="st0" d="M37.1,58.1c-1,0-1.2-1.5-1.2-3c0-1.5,0.1-3,1.2-3c0.2,0,0.4,0.1,0.5,0.2c0.4,0.4,0.4,1.1,0.4,2.3l0,0.5l0,0.5
		c0,1.2,0,1.9-0.4,2.3C37.5,58.1,37.3,58.1,37.1,58.1z M37.1,53.1c-0.1,0.2-0.3,0.7-0.3,2.1c0,1.4,0.2,1.9,0.3,2.1
		c0.1-0.3,0.1-1,0.1-1.6l0-0.5l0-0.5C37.2,54.1,37.2,53.3,37.1,53.1z"/>
</g>
<g>
	<path class="st0" d="M47.8,53L47.8,53c0.6,0,1.2,0.3,1.5,0.6c0.4,0.4,0.6,0.9,0.6,1.5s-0.2,1.1-0.6,1.5c-0.4,0.4-0.9,0.6-1.4,0.6
		h-0.1V53z"/>
	<path class="st0" d="M47.9,57.7h-0.5v-5.1h0.5c0.7,0,1.3,0.3,1.8,0.8c0.5,0.5,0.7,1.1,0.7,1.8c0,0.7-0.3,1.3-0.7,1.8
		C49.2,57.4,48.5,57.6,47.9,57.7L47.9,57.7z M48.2,53.5v3.2c0.3-0.1,0.6-0.2,0.8-0.5c0.3-0.3,0.5-0.7,0.5-1.2c0-0.4-0.2-0.8-0.5-1.2
		C48.8,53.7,48.5,53.6,48.2,53.5z"/>
</g>
<g>
	<path class="st2" d="M47.3,55.1c0,1.6-0.1,2.6,0.5,2.6c0.5,0,0.7-1,0.7-2.6c0-1.6-0.2-2.6-0.7-2.6C47.2,52.6,47.3,53.6,47.3,55.1z"
		/>
	<path class="st0" d="M47.7,58.1c-0.2,0-0.4-0.1-0.5-0.2c-0.4-0.4-0.4-1.1-0.4-2.3l0-0.5l0-0.5c0-1.2,0-2,0.4-2.3
		c0.1-0.1,0.3-0.2,0.5-0.2c1,0,1.2,1.5,1.2,3C48.9,56.6,48.8,58.1,47.7,58.1z M47.8,57.3L47.8,57.3L47.8,57.3z M47.8,53.1
		c-0.1,0.3-0.1,1-0.1,1.6l0,0.5l0,0.5c0,0.6,0,1.3,0.1,1.6c0.1-0.2,0.3-0.7,0.3-2.1C48,53.7,47.9,53.2,47.8,53.1z"/>
</g>
<path class="st0" d="M40.1,56.5c-0.8,0-1.4-0.4-1.7-0.7c-0.2-0.2-0.1-0.5,0.1-0.6c0.2-0.2,0.5-0.1,0.6,0.1c0.1,0.1,0.7,0.8,2,0.1
	c0.2-0.1,0.5,0,0.6,0.2c0.1,0.2,0,0.5-0.2,0.6C41,56.4,40.5,56.5,40.1,56.5z"/>
<path class="st0" d="M42.6,60.5c-0.5,0-1-0.2-1.5-0.5c-0.2-0.1-0.2-0.4-0.1-0.5s0.4-0.2,0.5-0.1c0.6,0.4,1.5,0.4,2.1,0
	c0.2-0.1,0.4-0.1,0.5,0.1s0.1,0.4-0.1,0.5C43.6,60.3,43.1,60.5,42.6,60.5z"/>
<path class="st0" d="M41.6,54.5c-0.1,0-0.2,0-0.3-0.1c-1.1-1-2.4,0-2.5,0c-0.2,0.1-0.5,0.1-0.6-0.1c-0.1-0.2-0.1-0.5,0.1-0.6
	c0.6-0.5,2.2-1.1,3.6,0c0.2,0.2,0.2,0.4,0,0.6C41.8,54.4,41.7,54.5,41.6,54.5z"/>
<path class="st0" d="M43.4,54.5c-0.1,0-0.2-0.1-0.3-0.2c-0.2-0.2-0.1-0.5,0-0.6c1.3-1.2,2.9-0.5,3.6,0c0.2,0.1,0.2,0.4,0.1,0.6
	c-0.1,0.2-0.4,0.2-0.6,0.1c-0.1,0-1.3-1-2.5,0C43.6,54.5,43.5,54.5,43.4,54.5z"/>
<path class="st0" d="M42.5,59.2c-0.6,0-1.4-0.4-1.4-1.1c0-0.2,0.2-0.4,0.4-0.4c0.2,0,0.4,0.2,0.4,0.4c0,0.3,0.5,0.4,0.7,0.4
	c0.6,0,0.8-0.2,0.8-0.2c0-0.1,0.1-0.1,0.1-0.1c0-0.2,0.1-0.4,0.3-0.4c0.2,0,0.4,0.1,0.4,0.3c0,0,0.1,0.4-0.2,0.7
	C43.6,59,43.2,59.2,42.5,59.2z"/>
<path class="st0" d="M39.2,55.8c0.1,0.3,0.4,0.6,1.1,0.6c0.7,0,0.8-0.2,0.8-0.5c-0.3,0.1-0.6,0.2-1,0.2C39.8,56.1,39.4,56,39.2,55.8
	L39.2,55.8z"/>
<path class="st0" d="M44.9,56.5c-0.4,0-0.9-0.1-1.4-0.4c-0.2-0.1-0.3-0.4-0.2-0.6c0.1-0.2,0.4-0.3,0.6-0.2c1.3,0.7,1.9,0,2-0.1
	c0.2-0.2,0.4-0.2,0.6-0.1c0.2,0.2,0.2,0.4,0.1,0.6C46.3,56.1,45.7,56.5,44.9,56.5z"/>
<path class="st0" d="M45.8,55.8c-0.1,0.3-0.4,0.6-1.1,0.6c-0.7,0-0.8-0.2-0.8-0.5c0.3,0.1,0.6,0.2,1,0.2
	C45.2,56.1,45.6,56,45.8,55.8L45.8,55.8z"/>
<path class="st0" d="M39,46.2c-0.2,0-0.4-0.1-0.4-0.3c-0.1-0.2-0.2-0.4-0.8-0.2c-0.2,0.1-0.5,0-0.6-0.3c-0.1-0.2,0-0.5,0.3-0.6
	c0.4-0.2,0.8-0.2,1.1,0c0.2-0.8,0.8-1.2,0.9-1.2c0.2-0.1,0.5,0,0.6,0.2c0.1,0.2,0,0.5-0.2,0.6c0,0-0.6,0.4-0.5,1.3
	C39.4,46,39.3,46.2,39,46.2C39,46.2,39,46.2,39,46.2z"/>
<g>
	<path class="st0" d="M42.6,66.8c1.1,0,2.1-0.3,3-0.9c0.9-0.6,1.5-1.5,1.9-2.5c-0.3,0-0.6-0.1-0.8-0.1c-0.4,0.7-1,1.3-1.7,1.6
		c-0.7,0.4-1.5,0.6-2.3,0.6c-0.8,0-1.6-0.2-2.3-0.6c-0.7-0.4-1.3-1-1.7-1.6c-0.3,0-0.5,0.1-0.8,0.1c0.4,1,1,1.9,1.9,2.5
		C40.5,66.5,41.5,66.8,42.6,66.8z"/>
	<path class="st0" d="M42.6,67.3C42.6,67.3,42.6,67.3,42.6,67.3c-1.2,0-2.3-0.4-3.2-1s-1.7-1.6-2-2.7c0-0.1,0-0.3,0-0.4
		s0.2-0.2,0.3-0.2c0.2,0,0.5-0.1,0.7-0.1l0.1,0c0.2,0,0.3,0.1,0.4,0.2c0.4,0.6,0.9,1.1,1.6,1.5c1.3,0.7,2.9,0.7,4.2,0
		c0.6-0.4,1.2-0.9,1.6-1.5c0.1-0.1,0.3-0.2,0.4-0.2l0.1,0c0.2,0,0.5,0.1,0.7,0.1c0.1,0,0.2,0.1,0.3,0.2s0.1,0.2,0,0.4
		c-0.4,1.1-1.1,2-2.1,2.7C44.9,66.9,43.8,67.3,42.6,67.3z M38.4,63.8c0.3,0.7,0.9,1.3,1.5,1.7c1.6,1.1,3.8,1.1,5.5,0
		c0.6-0.4,1.1-1,1.5-1.7c-0.4,0.6-1,1.1-1.7,1.5c-1.5,0.9-3.5,0.9-5.1,0C39.4,65,38.8,64.4,38.4,63.8z"/>
</g>
<path class="st0" d="M54.5,82C54.5,82,54.5,82,54.5,82c-0.3,0-0.4-0.2-0.4-0.5l0.4-9c0-0.2,0.2-0.4,0.5-0.4c0.2,0,0.4,0.2,0.4,0.5
	l-0.4,9C55,81.8,54.8,82,54.5,82z"/>
<g>
	<path class="st2" d="M54.6,50.9v-3.3c0-0.2-0.1-0.3-0.2-0.4C54.3,47,54.2,47,54,47h-5.2c-0.2,0-0.3,0.1-0.4,0.2
		c-0.1,0.1-0.2,0.3-0.2,0.4v3.3c0,0.2,0.1,0.3,0.2,0.4c0.1,0.1,0.3,0.2,0.4,0.2h1.8l-0.1,1.3h0.9V54l1.1-1.9h-0.9l0.1-0.5H54
		c0.1,0,0.2,0,0.2,0s0.1-0.1,0.2-0.1c0.1-0.1,0.1-0.1,0.1-0.2C54.6,51,54.6,51,54.6,50.9L54.6,50.9z"/>
	<path class="st0" d="M51.4,54.4c0,0-0.1,0-0.1,0C51.1,54.3,51,54.2,51,54v-0.8h-0.5c-0.1,0-0.2-0.1-0.3-0.1
		C50.1,53,50,52.8,50,52.7l0.1-0.8h-1.3c-0.3,0-0.5-0.1-0.7-0.3c-0.2-0.2-0.3-0.5-0.3-0.7v-3.3c0-0.3,0.1-0.5,0.3-0.7
		c0.2-0.2,0.5-0.3,0.7-0.3H54c0.3,0,0.5,0.1,0.7,0.3c0.2,0.2,0.3,0.5,0.3,0.7v3.3c0,0.1,0,0.3-0.1,0.4c-0.1,0.1-0.1,0.2-0.2,0.3
		c-0.1,0.1-0.2,0.2-0.3,0.2c-0.1,0.1-0.3,0.1-0.4,0.1h-1.1c0,0.1,0,0.2-0.1,0.3l-1.1,1.9C51.7,54.3,51.5,54.4,51.4,54.4z M51.7,52.4
		C51.7,52.5,51.7,52.5,51.7,52.4L51.7,52.4L51.7,52.4z M51,52.3h0.3c0,0,0,0,0,0c-0.1-0.1-0.1-0.2-0.1-0.4l0.1-0.5
		c0-0.2,0.2-0.4,0.4-0.4H54l0.1-0.1l0.1-0.1v-3.3c0,0,0-0.1-0.1-0.1c0,0-0.1-0.1-0.1-0.1h-5.2c0,0-0.1,0-0.1,0.1
		c0,0-0.1,0.1-0.1,0.1v3.3c0,0,0,0.1,0.1,0.1c0,0,0.1,0.1,0.1,0.1h1.8c0.1,0,0.2,0.1,0.3,0.1c0.1,0.1,0.1,0.2,0.1,0.3L51,52.3z"/>
</g>
<path class="st0" d="M52.7,48.5h-3.5c-0.2,0-0.4-0.2-0.4-0.4s0.2-0.4,0.4-0.4h3.5c0.2,0,0.4,0.2,0.4,0.4S53,48.5,52.7,48.5z"/>
<path class="st0" d="M53.6,49.5h-4.4c-0.2,0-0.4-0.2-0.4-0.4s0.2-0.4,0.4-0.4h4.4c0.2,0,0.4,0.2,0.4,0.4S53.9,49.5,53.6,49.5z"/>
<path class="st0" d="M52.9,50.4h-3.8c-0.2,0-0.4-0.2-0.4-0.4s0.2-0.4,0.4-0.4h3.8c0.2,0,0.4,0.2,0.4,0.4S53.2,50.4,52.9,50.4z"/>
<g>
	<path class="st2" d="M70.7,88.6c0,1-1.5,1.6-3.4,1.6c-1.9,0-3.4-0.6-3.4-1.6c0-1,1.5-1.8,3.4-1.8C69.1,86.8,70.7,87.6,70.7,88.6z"
		/>
	<path class="st0" d="M67.2,90.6c-2.3,0-3.9-0.8-3.9-2c0-1.2,1.7-2.2,3.9-2.2s3.9,1,3.9,2.2C71.1,89.8,69.5,90.6,67.2,90.6z
		 M67.2,87.3c-1.7,0-3,0.7-3,1.3c0,0.6,1.2,1.2,3,1.2c1.9,0,3-0.6,3-1.2C70.2,88,68.9,87.3,67.2,87.3z"/>
</g>
<g>
	<path class="st2" d="M65,89.8c0.1,0,0.2-0.5-0.7-0.9c-0.6-0.3-0.6-0.5-0.3-0.9c0.3-0.3,0.9-0.6,1.3-0.5c0.7,0.2,1.2,1.7,1.5,1.4
		c0.5-0.1-0.1-1.5-1-1.9c1.5,0.4,1.6,2.2,2.3,2c0.5-0.1-0.4-1.9-1.2-2.4c0.5,0.2,1,0.6,1.3,1.1c0.5,0.7,0.6,1,0.9,0.9
		c0.5-0.1-0.6-1.8-0.8-2c0.7,0.3,0.8,0.8,1,1.1c0.2,0.2,0.3,0.6,0.6,0.5c0.3-0.2,0-0.7-0.2-1c-0.9-1.5-2.5-1.7-3.9-1.6
		c-1.2,0.1-2.5,0.6-3.2,1.6c-0.2,0.2-0.3,0.5-0.3,0.8c0,0.3,0.1,0.6,0.2,0.8C63,89.3,63.9,90.1,65,89.8z"/>
	<path class="st0" d="M64.6,90.3c-1.1,0-1.9-0.8-2.2-1.4c-0.2-0.3-0.3-0.7-0.2-1c0-0.4,0.2-0.7,0.4-1c0.7-0.9,2-1.5,3.5-1.7
		c2-0.3,3.5,0.3,4.4,1.8c0.3,0.5,0.4,0.9,0.3,1.2c-0.1,0.2-0.2,0.3-0.3,0.4c-0.2,0.1-0.4,0.1-0.5,0c0,0,0,0,0,0
		c-0.1,0.2-0.2,0.3-0.4,0.4c-0.3,0.1-0.4,0.1-0.6,0c-0.1,0.3-0.2,0.4-0.5,0.5c-0.4,0.1-0.7-0.1-0.9-0.4c-0.1,0.1-0.2,0.2-0.3,0.3
		c-0.1,0.1-0.2,0.1-0.4,0.1c-0.3,0-0.5-0.3-0.8-0.7c-0.2-0.3-0.5-0.7-0.7-0.7c-0.2-0.1-0.6,0.1-0.9,0.4c0,0-0.1,0.1-0.1,0.1
		c0,0,0.1,0.1,0.2,0.1c0.8,0.4,1,0.9,1,1.3c0,0.3-0.2,0.4-0.4,0.5c0,0,0,0,0,0C64.9,90.3,64.7,90.3,64.6,90.3z M65,89.8L65,89.8
		L65,89.8z M66.9,85.9c-0.2,0-0.5,0-0.8,0.1c-1.3,0.2-2.4,0.7-2.9,1.4c-0.1,0.2-0.2,0.4-0.2,0.6c0,0.2,0,0.4,0.1,0.6
		c0.1,0.3,0.6,0.8,1.2,0.9c-0.1,0-0.1-0.1-0.2-0.1c-0.2-0.1-0.6-0.3-0.7-0.7c-0.1-0.3,0.1-0.6,0.3-0.8c0.4-0.4,1.1-0.8,1.8-0.6
		c0,0,0,0,0,0c0-0.1,0-0.2,0-0.3c0.1-0.2,0.3-0.3,0.5-0.3c0.2,0.1,0.4,0.1,0.6,0.2c-0.1-0.1-0.1-0.3,0-0.4c0.1-0.2,0.4-0.3,0.6-0.2
		c0.3,0.2,0.6,0.4,0.9,0.6c-0.1-0.1-0.1-0.3,0-0.5c0,0,0.1-0.1,0.1-0.1C67.9,86,67.4,85.9,66.9,85.9z M66.6,88.6L66.6,88.6
		L66.6,88.6z"/>
</g>
<g>
	<path class="st5" d="M71.6,90.2H14.6c-0.2,0-0.3,0.1-0.3,0.3V91c0,0.2,0.1,0.3,0.3,0.3h56.9c0.2,0,0.3-0.1,0.3-0.3v-0.5
		C71.9,90.4,71.7,90.2,71.6,90.2z"/>
	<path class="st0" d="M71.6,91.8H14.6c-0.4,0-0.7-0.3-0.7-0.7v-0.5c0-0.4,0.3-0.7,0.7-0.7h56.9c0.4,0,0.7,0.3,0.7,0.7V91
		C72.3,91.4,72,91.8,71.6,91.8z M14.8,90.9h56.7v-0.2H14.8V90.9z"/>
</g>
<path class="st0" d="M16.3,90.2l-4.2-12.7c0,0,0-0.1,0-0.2c0-0.1,0-0.1,0.1-0.1c0,0,0.1-0.1,0.1-0.1c0,0,0.1,0,0.1,0h13.2l4.7,13.1
	H16.3z"/>
<g>
	<path class="st2" d="M26,77.1l4.3,12.4h11.6v0.4c0,0.1,0,0.2-0.1,0.2s-0.1,0.1-0.2,0.1h-12l-4.2-12.6c0-0.1,0-0.1,0-0.2
		c0-0.1,0-0.1,0.1-0.2c0,0,0.1-0.1,0.1-0.1c0.1,0,0.1,0,0.2,0L26,77.1z"/>
	<path class="st0" d="M41.6,90.7h-12c-0.2,0-0.4-0.1-0.4-0.3L25,77.8c0-0.1-0.1-0.3,0-0.4s0.1-0.2,0.1-0.4c0.1-0.1,0.2-0.2,0.3-0.2
		c0.1-0.1,0.2-0.1,0.4-0.1l0.2,0c0.2,0,0.4,0.1,0.4,0.3L30.7,89h11.3c0.2,0,0.4,0.2,0.4,0.4v0.4c0,0.2-0.1,0.4-0.2,0.5
		C42,90.6,41.8,90.7,41.6,90.7z M29.9,89.8H30c0,0-0.1-0.1-0.1-0.2l-1.6-4.5L29.9,89.8z"/>
</g>
<path class="st2" d="M19.9,83.7c0-0.2-0.1-0.4-0.3-0.6c0.1-0.1,0.1-0.1,0.2-0.2c0.1,0,0.2-0.1,0.3-0.1c0.2,0,0.5,0.1,0.6,0.2
	c0.2,0.1,0.3,0.4,0.4,0.6c0,0.1,0,0.2,0,0.3s-0.1,0.2-0.1,0.3s-0.1,0.1-0.2,0.2c-0.1,0-0.2,0.1-0.3,0.1c-0.2,0-0.5-0.1-0.6-0.2
	C19.9,84.1,19.9,83.9,19.9,83.7L19.9,83.7z"/>
<g>
	<path class="st2" d="M46.7,90.2h4.2c0.6-0.4,1-0.9,1.3-1.6c0.3-0.6,0.5-1.3,0.5-2v-2c0-0.1,0-0.1,0-0.2c0-0.1-0.1-0.1-0.1-0.2
		c-0.1-0.1-0.1-0.1-0.2-0.1c-0.1,0-0.1,0-0.2,0h-6.6c-0.1,0-0.2,0-0.2,0c-0.1,0-0.1,0.1-0.2,0.1c-0.1,0.1-0.1,0.1-0.1,0.2
		c0,0.1,0,0.1,0,0.2v2c0,0.7,0.1,1.4,0.5,2C45.7,89.3,46.1,89.8,46.7,90.2L46.7,90.2z"/>
	<path class="st0" d="M50.9,90.7h-4.2c-0.1,0-0.2,0-0.3-0.1c-0.6-0.5-1.1-1.1-1.5-1.7c-0.3-0.7-0.5-1.4-0.5-2.2v-2
		c0-0.1,0-0.3,0.1-0.4c0-0.1,0.1-0.2,0.2-0.3c0.1-0.1,0.2-0.2,0.3-0.2c0.1-0.1,0.3-0.1,0.4-0.1h6.6c0.1,0,0.3,0,0.4,0.1
		c0.1,0,0.2,0.1,0.3,0.2c0.1,0.1,0.2,0.2,0.2,0.3c0.1,0.1,0.1,0.3,0.1,0.4v2c0,0.8-0.2,1.5-0.5,2.2s-0.8,1.3-1.5,1.7
		C51.1,90.6,51,90.7,50.9,90.7z M46.8,89.8h3.9c0.5-0.4,0.8-0.8,1.1-1.3c0.3-0.6,0.4-1.2,0.4-1.8v-2l0.3-0.4l-0.3,0.3l-0.1,0h-6.6
		l-0.4-0.3l0.3,0.3c0,0,0,0.1,0,0.1v2c0,0.6,0.1,1.3,0.4,1.8C46,89,46.4,89.4,46.8,89.8z"/>
</g>
<g>
	<path class="st2" d="M53.9,84.9c-0.2-0.1-0.4-0.2-0.6-0.2c-0.2,0-0.4,0-0.6,0.1v0.7c0.2,0,0.4,0,0.5,0.1c0.6,0.3,0.5,1.1,0.1,1.8
		c-0.2,0.4-0.5,0.7-0.9,0.9c-0.1,0.3-0.3,0.6-0.5,0.8c0.8,0.2,1.5-0.5,2.1-1.5C54.6,86.6,54.8,85.5,53.9,84.9z"/>
	<path class="st0" d="M52.1,89.7c-0.1,0-0.2,0-0.3,0c-0.1,0-0.3-0.1-0.3-0.3c-0.1-0.1,0-0.3,0-0.4c0.2-0.2,0.3-0.5,0.4-0.8
		c0-0.1,0.1-0.2,0.2-0.2c0.3-0.1,0.6-0.4,0.7-0.7c0.3-0.4,0.4-0.8,0.3-1c0-0.1,0-0.1-0.2-0.2c-0.1,0-0.2-0.1-0.2-0.1
		c-0.1,0-0.3,0-0.4-0.1s-0.2-0.2-0.2-0.3v-0.7c0-0.2,0.1-0.3,0.2-0.4c0.3-0.1,0.5-0.2,0.8-0.2c0.3,0,0.6,0.1,0.8,0.2
		c0.4,0.2,0.7,0.6,0.8,1c0.2,0.6,0,1.5-0.6,2.4C53.6,89.3,52.8,89.7,52.1,89.7z M53.1,85.2c0.1,0,0.2,0.1,0.3,0.1
		c0.3,0.2,0.5,0.4,0.6,0.7c0,0.1,0,0.2,0,0.4c0.1-0.2,0.1-0.4,0-0.6c-0.1-0.2-0.2-0.4-0.4-0.5c0,0,0,0,0,0c-0.1-0.1-0.2-0.1-0.4-0.1
		C53.2,85.2,53.2,85.2,53.1,85.2z"/>
</g>
<path class="st0" d="M48.9,81.4c0,0-0.1,0-0.1,0c-0.2-0.1-0.4-0.3-0.3-0.5c0.1-0.5,0.2-0.9,0.2-1.4c0-1.3-0.6-2-1.2-2.8
	c-0.7-0.9-1.5-1.9-1.5-3.8c0-0.2,0.2-0.4,0.4-0.4s0.4,0.2,0.4,0.4c0,1.5,0.6,2.4,1.3,3.2c0.7,0.9,1.4,1.8,1.4,3.3
	c0,0.6-0.1,1.1-0.2,1.7C49.2,81.3,49.1,81.4,48.9,81.4z"/>
<path class="st0" d="M46.9,84c-0.1,0-0.3-0.1-0.4-0.2c-0.1-0.2-0.1-0.5,0.1-0.6c0.4-0.3,0.8-0.6,1.1-1.1c0.1-0.2,0.4-0.2,0.6-0.1
	c0.2,0.1,0.2,0.4,0.1,0.6c-0.4,0.5-0.8,1-1.4,1.3C47.1,83.9,47,84,46.9,84z"/>
<path class="st0" d="M48.6,76.1c-0.2,0-0.3-0.1-0.4-0.2c-0.2-0.4-0.3-0.8-0.2-1.2c0-0.2,0.2-0.4,0.5-0.4c0.2,0,0.4,0.2,0.4,0.5
	c0,0.2,0,0.5,0.1,0.7c0.1,0.2,0,0.5-0.2,0.6C48.8,76.1,48.7,76.1,48.6,76.1z"/>
<path class="st0" d="M50.8,80.2c-0.2,0-0.4-0.2-0.4-0.4c-0.1-0.8-0.6-1.6-1.1-2.4c-0.1-0.2-0.1-0.5,0.1-0.6c0.2-0.1,0.5-0.1,0.6,0.1
	c0.5,0.8,1.1,1.7,1.2,2.7C51.2,79.9,51.1,80.1,50.8,80.2C50.8,80.2,50.8,80.2,50.8,80.2z"/>
<path class="st0" d="M49.2,84c-0.2,0-0.3-0.1-0.4-0.3c-0.1-0.2,0-0.5,0.2-0.6c0,0,0.7-0.4,1.2-1.8c0.1-0.2,0.3-0.4,0.5-0.3
	c0.2,0.1,0.4,0.3,0.3,0.5c-0.5,1.9-1.5,2.3-1.6,2.4C49.3,84,49.2,84,49.2,84z"/>
<g>
	<path class="st2" d="M54.7,107.4H31.5c-1.7,0-3.1,1.4-3.1,3v15.2c0,1.7,1.4,3.1,3.1,3.1h23.2c1.7,0,3.1-1.4,3.1-3.1v-15.2
		C57.8,108.7,56.4,107.4,54.7,107.4z"/>
	<path class="st0" d="M54.7,129.2H31.5c-1.9,0-3.5-1.6-3.5-3.5v-15.2c0-1.9,1.6-3.5,3.5-3.5h23.2c1.9,0,3.5,1.6,3.5,3.5v15.2
		C58.2,127.6,56.6,129.2,54.7,129.2z M31.5,107.8c-1.4,0-2.6,1.2-2.6,2.6v15.2c0,1.4,1.2,2.6,2.6,2.6h23.2c1.4,0,2.6-1.2,2.6-2.6
		v-15.2c0-1.4-1.2-2.6-2.6-2.6H31.5z"/>
</g>
<g>
	<path class="st2" d="M35.8,122.1l0.3,6.1l0,0.1c0.3,0.4,0.6,0.7,1.1,0.9c0.4,0.2,0.9,0.3,1.3,0.3c0.5,0,0.9-0.1,1.3-0.3
		c0.4-0.2,0.8-0.5,1-0.9l0,0l0.1-6.1H35.8z"/>
	<path class="st0" d="M38.6,129.8c-0.5,0-1-0.1-1.5-0.3c-0.5-0.2-0.9-0.6-1.2-1c-0.1-0.1-0.1-0.2-0.1-0.3l-0.3-6.1
		c0-0.1,0-0.2,0.1-0.3c0.1-0.1,0.2-0.1,0.3-0.1h5.3c0.1,0,0.2,0,0.3,0.1c0.1,0.1,0.1,0.2,0.1,0.3l-0.1,6.1c0,0.1,0,0.2-0.1,0.2
		c-0.3,0.4-0.7,0.8-1.2,1C39.6,129.7,39.1,129.8,38.6,129.8C38.6,129.8,38.6,129.8,38.6,129.8z M36.6,128c0.3,0.3,0.5,0.5,0.9,0.7
		c0.4,0.2,0.8,0.3,1.1,0.3c0.4,0,0.8-0.1,1.1-0.3c0.3-0.2,0.6-0.4,0.8-0.7l0.1-5.5h-4.4L36.6,128z"/>
</g>
<g>
	<path class="st5" d="M42.2,134.1c-2.3,0.4-4.7,0.4-7.1,0l0,0c-0.2-0.2-0.4-0.5-0.6-0.7c-0.2-0.4-0.4-0.9-0.4-1.4
		c0-0.5,0.1-1,0.3-1.4l1.4-2.5l5.6,0.1l1.3,2.3c0.3,0.5,0.4,1.2,0.4,1.8c-0.1,0.6-0.3,1.2-0.7,1.7C42.4,134,42.3,134,42.2,134.1
		L42.2,134.1z"/>
	<path class="st0" d="M38.7,134.8c-1.2,0-2.4-0.1-3.6-0.3l-0.1,0l-0.1-0.1c-0.2-0.2-0.5-0.5-0.6-0.8c-0.3-0.5-0.4-1-0.4-1.6
		c0-0.5,0.1-1.1,0.3-1.6l1.6-2.8l6.1,0.1l1.4,2.5c0.3,0.6,0.5,1.3,0.4,2s-0.3,1.4-0.8,1.9c-0.1,0.1-0.1,0.2-0.2,0.2l-0.1,0.1l-0.1,0
		C41.1,134.7,39.9,134.8,38.7,134.8z M35.4,133.7c2.2,0.4,4.5,0.4,6.7,0c0,0,0,0,0.1-0.1c0.3-0.4,0.5-0.9,0.6-1.4
		c0.1-0.5-0.1-1.1-0.3-1.5l-1.1-2.1l-5.1-0.1l-1.3,2.3c-0.2,0.3-0.2,0.8-0.2,1.2c0,0.4,0.1,0.8,0.3,1.2
		C35.1,133.4,35.2,133.5,35.4,133.7z"/>
</g>
<path class="st5" d="M40.9,130.9c0.3,0.2,0.7,0.3,1,0.6L40.9,130.9z"/>
<path class="st0" d="M41.6,131.9c-0.3-0.2-0.6-0.4-0.9-0.5l0.3-0.8c0.4,0.2,0.7,0.4,1.1,0.6L41.6,131.9z"/>
<path class="st5" d="M35.6,131.5c0.6-0.4,1.3-0.7,2-0.9c0.7-0.1,1.5-0.2,2.2,0"/>
<path class="st0" d="M35.8,131.9l-0.5-0.7c0.7-0.5,1.4-0.8,2.2-0.9c0.8-0.2,1.6-0.2,2.4,0l-0.2,0.9c-0.7-0.1-1.4-0.1-2,0
	C37,131.2,36.4,131.5,35.8,131.9z"/>
<path class="st0" d="M32.8,96.9l2.5,28.2h6.4c0,0,0.6-17.2,1-28.4c0-0.7-0.1-1.3-0.3-1.9s-0.6-1.2-1.1-1.7c-0.5-0.5-1-0.9-1.6-1.1
	c-0.6-0.3-1.3-0.4-1.9-0.4l0,0c-0.7,0-1.4,0.1-2,0.4c-0.6,0.3-1.2,0.7-1.7,1.2c-0.5,0.5-0.8,1.1-1,1.7
	C32.8,95.6,32.7,96.3,32.8,96.9z"/>
<path class="st2" d="M33.7,107.8c-0.2,0-0.4-0.2-0.4-0.4L32.4,97c-0.1-0.7,0-1.5,0.3-2.2c0.2-0.7,0.6-1.3,1.1-1.9
	c0.5-0.5,1.1-1,1.8-1.3c0.7-0.3,1.4-0.4,2.2-0.5c0.5,0,1,0.1,1.5,0.2c0.2,0.1,0.4,0.3,0.3,0.5c-0.1,0.2-0.3,0.4-0.5,0.3
	c-0.4-0.1-0.9-0.2-1.3-0.2c-0.6,0-1.2,0.1-1.8,0.4c-0.6,0.3-1.1,0.6-1.5,1.1c-0.4,0.5-0.7,1-0.9,1.6c-0.2,0.6-0.3,1.2-0.2,1.8
	l0.9,10.4C34.1,107.6,33.9,107.8,33.7,107.8C33.7,107.8,33.7,107.8,33.7,107.8z"/>
<path class="st2" d="M41.8,94.2c-0.1,0-0.3-0.1-0.4-0.2c-0.2-0.3-0.5-0.6-0.8-0.9l0,0c0,0-0.3-0.3-0.5-0.4c-0.2-0.1-0.3-0.4-0.2-0.6
	c0.1-0.2,0.4-0.3,0.6-0.2c0.2,0.1,0.6,0.4,0.6,0.4c0.4,0.3,0.7,0.7,1,1.1c0.1,0.2,0.1,0.5-0.1,0.6C42,94.1,41.9,94.2,41.8,94.2z"/>
<path class="st2" d="M42.3,107.8C42.3,107.8,42.3,107.8,42.3,107.8c-0.3,0-0.4-0.2-0.4-0.5c0.1-1.7,0.1-3.6,0.2-5.5
	c0.1-1.8,0.2-3.6,0.2-5.2c0-0.7-0.1-1.4-0.4-2c-0.1-0.2,0-0.5,0.2-0.6c0.2-0.1,0.5,0,0.6,0.2c0.3,0.8,0.5,1.6,0.5,2.4
	c-0.1,1.5-0.1,3.3-0.2,5.2c-0.1,1.8-0.2,3.7-0.2,5.5C42.7,107.6,42.5,107.8,42.3,107.8z"/>
<g>
	<path class="st2" d="M46.2,122.1l0.3,6.1l0,0.1c0.3,0.4,0.6,0.7,1.1,0.9c0.4,0.2,0.9,0.3,1.3,0.3c0.5,0,0.9-0.1,1.3-0.3
		c0.4-0.2,0.8-0.5,1-0.9l0,0l0.1-6.1H46.2z"/>
	<path class="st0" d="M49,129.8c-0.5,0-1-0.1-1.5-0.3c-0.5-0.2-0.9-0.6-1.2-1c-0.1-0.1-0.1-0.2-0.1-0.3l-0.3-6.1
		c0-0.1,0-0.2,0.1-0.3c0.1-0.1,0.2-0.1,0.3-0.1h5.3c0.1,0,0.2,0,0.3,0.1c0.1,0.1,0.1,0.2,0.1,0.3l-0.1,6.1c0,0.1,0,0.2-0.1,0.2
		c-0.3,0.4-0.7,0.8-1.2,1C50.1,129.7,49.5,129.8,49,129.8C49,129.8,49,129.8,49,129.8z M47,128c0.3,0.3,0.5,0.5,0.9,0.7
		c0.4,0.2,0.7,0.3,1.1,0.3c0.4,0,0.8-0.1,1.1-0.3c0.3-0.2,0.6-0.4,0.8-0.7l0.1-5.5h-4.4L47,128z"/>
</g>
<g>
	<path class="st5" d="M52.6,134.1c-2.3,0.4-4.7,0.4-7.1,0c-0.2-0.2-0.4-0.5-0.6-0.7c-0.2-0.4-0.4-0.9-0.4-1.4c0-0.5,0.1-1,0.3-1.4
		l1.4-2.5l5.6,0.1l1.3,2.3c0.3,0.5,0.4,1.2,0.4,1.8c-0.1,0.6-0.3,1.2-0.7,1.7C52.8,134,52.7,134,52.6,134.1z"/>
	<path class="st0" d="M49.1,134.8c-1.2,0-2.4-0.1-3.6-0.3l-0.1,0l-0.1-0.1c-0.2-0.2-0.5-0.5-0.6-0.8c-0.3-0.5-0.4-1-0.4-1.6
		c0-0.5,0.1-1.1,0.3-1.6l1.6-2.8l6.1,0.1l1.4,2.5c0.3,0.6,0.5,1.3,0.4,2c-0.1,0.7-0.3,1.4-0.8,1.9c-0.1,0.1-0.1,0.2-0.2,0.2
		l-0.1,0.1l-0.1,0C51.5,134.7,50.3,134.8,49.1,134.8z M45.8,133.7c2.2,0.4,4.5,0.4,6.7,0c0,0,0,0,0.1-0.1c0.3-0.4,0.6-0.9,0.6-1.4
		s-0.1-1.1-0.3-1.5l-1.1-2.1l-5.1-0.1l-1.3,2.3c-0.2,0.3-0.2,0.8-0.2,1.2c0,0.4,0.1,0.8,0.3,1.2C45.5,133.4,45.6,133.5,45.8,133.7z"
		/>
</g>
<path class="st5" d="M51.3,130.9c0.3,0.2,0.7,0.3,1,0.6L51.3,130.9z"/>
<path class="st0" d="M52,131.9c-0.3-0.2-0.6-0.4-0.9-0.5l0.3-0.8c0.4,0.2,0.7,0.4,1.1,0.6L52,131.9z"/>
<path class="st5" d="M46,131.5c0.6-0.4,1.3-0.7,2-0.9c0.7-0.2,1.5-0.2,2.2,0"/>
<path class="st0" d="M46.2,131.9l-0.5-0.7c0.7-0.5,1.4-0.8,2.2-0.9c0.8-0.2,1.6-0.2,2.4,0l-0.2,0.9c-0.7-0.1-1.4-0.1-2,0
	C47.4,131.2,46.8,131.5,46.2,131.9z"/>
<path class="st0" d="M43.2,96.9l2.5,28.2h6.4c0,0,0.6-17.2,1-28.4c0-0.7-0.1-1.3-0.3-2c-0.2-0.6-0.6-1.2-1.1-1.7
	c-0.5-0.5-1-0.9-1.6-1.1c-0.6-0.3-1.3-0.4-1.9-0.4c-0.7,0-1.4,0.1-2,0.4c-0.6,0.3-1.2,0.7-1.7,1.2s-0.8,1.1-1,1.7
	C43.2,95.6,43.2,96.3,43.2,96.9L43.2,96.9z"/>
<path class="st2" d="M44.1,107.8c-0.2,0-0.4-0.2-0.4-0.4L42.8,97c-0.1-0.7,0-1.5,0.3-2.2c0.2-0.7,0.6-1.3,1.1-1.9s1.1-1,1.8-1.3
	c0.7-0.3,1.4-0.4,2.2-0.5c0.8,0,1.5,0.2,2.2,0.5c0.2,0.1,0.3,0.4,0.2,0.6s-0.4,0.3-0.6,0.2c-0.6-0.3-1.2-0.4-1.9-0.4
	c-0.6,0-1.2,0.1-1.8,0.4c-0.6,0.3-1.1,0.6-1.5,1.1c-0.4,0.5-0.7,1-0.9,1.6c-0.2,0.6-0.3,1.2-0.2,1.8l0.9,10.4
	C44.6,107.6,44.4,107.8,44.1,107.8C44.2,107.8,44.2,107.8,44.1,107.8z"/>
<path class="st2" d="M52.2,94.2c-0.1,0-0.3-0.1-0.4-0.2c-0.2-0.3-0.5-0.6-0.8-0.9c-0.2-0.2-0.2-0.4-0.1-0.6c0.2-0.2,0.4-0.2,0.6-0.1
	c0.4,0.3,0.7,0.7,1,1.1c0.1,0.2,0.1,0.5-0.1,0.6C52.4,94.1,52.3,94.2,52.2,94.2z"/>
<path class="st2" d="M53,107.8C53,107.8,52.9,107.8,53,107.8c-0.3,0-0.4-0.2-0.4-0.5c0.1-1.8,0.1-3.8,0.1-5.7c0-1.8,0-3.5,0.1-5
	c0-0.6-0.1-1.2-0.3-1.8c-0.1-0.2,0-0.5,0.2-0.6c0.2-0.1,0.5,0,0.6,0.2c0.3,0.7,0.4,1.4,0.4,2.2c-0.1,1.5-0.1,3.2-0.1,5
	c0,1.9,0,3.9-0.1,5.7C53.4,107.6,53.2,107.8,53,107.8z"/>
<g>
	<path class="st2" d="M128.8,48.9V35.7c0-0.6-0.3-1.2-0.7-1.7c-0.5-0.4-1.1-0.7-1.7-0.7h-20.7c-0.6,0-1.3,0.3-1.7,0.7
		c-0.5,0.4-0.7,1.1-0.7,1.7v13.1c0,0.6,0.3,1.2,0.7,1.7c0.5,0.4,1.1,0.7,1.7,0.7h7.2l-0.6,5h3.7V61l4.4-7.7h-3.6l0.4-2h9.2
		c0.6,0,1.2-0.3,1.7-0.7C128.5,50.1,128.8,49.5,128.8,48.9L128.8,48.9z"/>
	<path class="st0" d="M116,61.5c0,0-0.1,0-0.1,0c-0.2-0.1-0.4-0.3-0.4-0.5v-4.2h-3.2c-0.1,0-0.3-0.1-0.4-0.2
		c-0.1-0.1-0.1-0.3-0.1-0.4l0.5-4.4h-6.6c-0.8,0-1.5-0.3-2.1-0.9c-0.6-0.6-0.9-1.3-0.9-2.1V35.7c0-0.8,0.3-1.5,0.9-2.1
		c0.5-0.5,1.3-0.9,2.1-0.9h20.7c0.8,0,1.5,0.3,2.1,0.9c0.6,0.5,0.9,1.3,0.9,2.1v13.1c0,0,0,0,0,0c0,0.8-0.3,1.5-0.9,2.1
		c-0.6,0.5-1.3,0.8-2.1,0.8h-8.8l-0.2,1h3c0.2,0,0.4,0.1,0.4,0.3s0.1,0.4,0,0.5l-4.4,7.7C116.4,61.4,116.2,61.5,116,61.5z
		 M112.9,55.8h3.1c0.3,0,0.5,0.2,0.5,0.5v2.8l3-5.3h-2.7c-0.2,0-0.3-0.1-0.4-0.2c-0.1-0.1-0.1-0.3-0.1-0.4l0.4-2
		c0-0.2,0.3-0.4,0.5-0.4h9.2c0.5,0,1-0.2,1.3-0.6c0.4-0.4,0.6-0.8,0.6-1.3V35.7c0-0.5-0.2-1-0.6-1.3c-0.4-0.4-0.8-0.6-1.3-0.6h-20.7
		c-0.5,0-1,0.2-1.3,0.6c-0.4,0.4-0.6,0.8-0.6,1.3v13.1c0,0.5,0.2,1,0.6,1.3c0.4,0.4,0.8,0.6,1.3,0.6h7.2c0.1,0,0.3,0.1,0.4,0.2
		c0.1,0.1,0.1,0.3,0.1,0.4L112.9,55.8z M128.8,48.9L128.8,48.9L128.8,48.9z"/>
</g>
<path class="st0" d="M121.2,38.3h-14c-0.3,0-0.5-0.2-0.5-0.5s0.2-0.5,0.5-0.5h14c0.3,0,0.5,0.2,0.5,0.5S121.5,38.3,121.2,38.3z"/>
<path class="st0" d="M124.8,42.1h-17.6c-0.3,0-0.5-0.2-0.5-0.5s0.2-0.5,0.5-0.5h17.6c0.3,0,0.5,0.2,0.5,0.5S125.1,42.1,124.8,42.1z"
	/>
<path class="st0" d="M122.1,45.8h-14.9c-0.3,0-0.5-0.2-0.5-0.5s0.2-0.5,0.5-0.5h14.9c0.3,0,0.5,0.2,0.5,0.5S122.4,45.8,122.1,45.8z"
	/>
<g>
	<path class="st1" d="M144.6,105.1l12.5,4.2l-3.1,3.1l5.8,5.8l-12.5-4.2l3.1-3.1L144.6,105.1z"/>
	<path class="st0" d="M159.8,118.7c-0.1,0-0.1,0-0.2,0l-12.5-4.2c-0.2-0.1-0.3-0.2-0.3-0.4c0-0.2,0-0.4,0.1-0.5l2.7-2.7l-5.4-5.4
		c-0.2-0.2-0.2-0.4-0.1-0.6c0.1-0.2,0.4-0.3,0.6-0.2l12.5,4.2c0.2,0.1,0.3,0.2,0.3,0.4c0,0.2,0,0.4-0.1,0.5l-2.7,2.7l5.4,5.4
		c0.2,0.2,0.2,0.4,0.1,0.6C160.1,118.6,159.9,118.7,159.8,118.7z M148.2,113.8l9.7,3.2l-4.2-4.2c-0.1-0.1-0.2-0.2-0.2-0.4
		s0.1-0.3,0.2-0.4l2.5-2.5l-9.7-3.2l4.2,4.2c0.1,0.1,0.2,0.2,0.2,0.4s-0.1,0.3-0.2,0.4L148.2,113.8z"/>
</g>
<g>
	<path class="st1" d="M87.4,105.1l-12.5,4.2l3.1,3.1l-5.8,5.8l12.5-4.2l-3.1-3.1L87.4,105.1z"/>
	<path class="st0" d="M72.2,118.7c-0.2,0-0.3-0.1-0.4-0.2c-0.1-0.2-0.1-0.5,0.1-0.6l5.4-5.4l-2.7-2.7c-0.1-0.1-0.2-0.3-0.1-0.5
		c0-0.2,0.2-0.3,0.3-0.4l12.5-4.2c0.2-0.1,0.5,0,0.6,0.2c0.1,0.2,0.1,0.5-0.1,0.6l-5.4,5.4l2.7,2.7c0.1,0.1,0.2,0.3,0.1,0.5
		c0,0.2-0.2,0.3-0.3,0.4l-12.5,4.2C72.3,118.7,72.3,118.7,72.2,118.7z M75.9,109.5l2.5,2.5c0.1,0.1,0.2,0.2,0.2,0.4
		s-0.1,0.3-0.2,0.4l-4.2,4.2l9.7-3.2l-2.5-2.5c-0.1-0.1-0.2-0.2-0.2-0.4c0-0.1,0.1-0.3,0.2-0.4l4.2-4.2L75.9,109.5z"/>
</g>
<g>
	<path class="st1" d="M115.7,9.9l-5.9,11.7h4.4v8.2l5.9-11.7h-4.4V9.9z"/>
	<path class="st0" d="M114.1,30.3c0,0-0.1,0-0.1,0c-0.2-0.1-0.4-0.3-0.4-0.5v-7.6h-3.9c-0.2,0-0.3-0.1-0.4-0.2
		c-0.1-0.2-0.1-0.3,0-0.5l5.9-11.7c0.1-0.2,0.3-0.3,0.6-0.3c0.2,0.1,0.4,0.3,0.4,0.5v7.6h3.9c0.2,0,0.3,0.1,0.4,0.2
		c0.1,0.2,0.1,0.3,0,0.5L114.6,30C114.5,30.2,114.3,30.3,114.1,30.3z M110.6,21.1h3.6c0.3,0,0.5,0.2,0.5,0.5v6l4.6-9.1h-3.6
		c-0.3,0-0.5-0.2-0.5-0.5v-6L110.6,21.1z"/>
</g>
</svg>
