<?xml version="1.0" encoding="utf-8"?>
<!-- Generator: Adobe Illustrator 24.0.2, SVG Export Plug-In . SVG Version: 6.00 Build 0)  -->
<svg version="1.1" id="Слой_1" xmlns="http://www.w3.org/2000/svg" xmlns:xlink="http://www.w3.org/1999/xlink" x="0px" y="0px"
	 viewBox="0 0 248 248" style="enable-background:new 0 0 248 248;" xml:space="preserve">
<style type="text/css">
	.st0{fill:#C8C8C8;}
	.st1{opacity:0.7;fill:#FFFFFF;enable-background:new    ;}
	.st2{opacity:0.3;}
	.st3{opacity:0.3;enable-background:new    ;}
	.st4{fill:#263238;}
	.st5{fill:#FFFFFF;}
	.st6{fill:#DBDBDB;}
	.st7{fill:#949494;}
	.st8{fill:#9E9E9E;}
	.st9{opacity:0.2;}
	.st10{opacity:0.2;enable-background:new    ;}
	.st11{opacity:0.2;fill:#263238;enable-background:new    ;}
</style>
<path class="st0" d="M199.2,215.4c7.9-5.6,14.4-13,19-21.6c28.4-53.1,21.9-131.4-32.7-165C160.3,13.2,124,3.4,96.7,19.4
	C74.6,32.3,61,56.6,49.8,78.8c-7,14-12.9,28.9-21.5,42C17,137.7,4.6,160.2,17.1,179.9c17.1,26.8,49.3,39,78.5,47
	c31.7,8.7,67.4,10,96.7-7.1C194.7,218.5,197,217,199.2,215.4z"/>
<path class="st1" d="M199.2,215.4c7.9-5.6,14.4-13,19-21.6c28.4-53.1,21.9-131.4-32.7-165C160.3,13.2,124,3.4,96.7,19.4
	C74.6,32.3,61,56.6,49.8,78.8c-7,14-12.9,28.9-21.5,42C17,137.7,4.6,160.2,17.1,179.9c17.1,26.8,49.3,39,78.5,47
	c31.7,8.7,67.4,10,96.7-7.1C194.7,218.5,197,217,199.2,215.4z"/>
<g class="st2">
	<path class="st3" d="M224.7,107.5h-52.1V39.4h52.1V107.5z M173.6,106.5h50.1V40.4h-50.1V106.5z"/>
	<path class="st3" d="M215.3,95.2H182V51.7h33.3V95.2z M183,94.2h31.3V52.7H183V94.2z"/>
</g>
<g>
	<path class="st4" d="M161.1,32.4H25.9v120.4h135.3V32.4z"/>
	<path class="st4" d="M161.6,153.3H25.4V31.9h136.3V153.3z M26.4,152.3h134.3V32.9H26.4V152.3z"/>
</g>
<g>
	<path class="st5" d="M158.6,29.5H23.3v120.4h135.3V29.5z"/>
	<path class="st4" d="M158.6,150.4H23.3c-0.3,0-0.5-0.2-0.5-0.5V29.5c0-0.3,0.2-0.5,0.5-0.5h135.3c0.3,0,0.5,0.2,0.5,0.5v120.4
		C159.1,150.1,158.8,150.4,158.6,150.4z M23.8,149.4h134.3V30H23.8V149.4z"/>
</g>
<g>
	<path class="st5" d="M132.2,78.1h6.7v-6.7h-6.7V78.1z"/>
	<path class="st4" d="M139,78.6h-6.7c-0.3,0-0.5-0.2-0.5-0.5v-6.7c0-0.3,0.2-0.5,0.5-0.5h6.7c0.3,0,0.5,0.2,0.5,0.5v6.7
		C139.5,78.3,139.2,78.6,139,78.6z M132.7,77.6h5.7v-5.7h-5.7V77.6z"/>
</g>
<g>
	<path class="st5" d="M141,78.1h6.7v-6.7H141V78.1z"/>
	<path class="st4" d="M147.8,78.6H141c-0.3,0-0.5-0.2-0.5-0.5v-6.7c0-0.3,0.2-0.5,0.5-0.5h6.7c0.3,0,0.5,0.2,0.5,0.5v6.7
		C148.3,78.3,148,78.6,147.8,78.6z M141.5,77.6h5.7v-5.7h-5.7V77.6z"/>
</g>
<path class="st4" d="M129.5,75.6H95.4c-0.3,0-0.5-0.2-0.5-0.5s0.2-0.5,0.5-0.5h34.2c0.3,0,0.5,0.2,0.5,0.5S129.8,75.6,129.5,75.6z"
	/>
<g>
	<path class="st5" d="M132.2,93.9h6.7v-6.7h-6.7V93.9z"/>
	<path class="st4" d="M139,94.4h-6.7c-0.3,0-0.5-0.2-0.5-0.5v-6.7c0-0.3,0.2-0.5,0.5-0.5h6.7c0.3,0,0.5,0.2,0.5,0.5v6.7
		C139.5,94.2,139.2,94.4,139,94.4z M132.7,93.4h5.7v-5.7h-5.7V93.4z"/>
</g>
<g>
	<path class="st5" d="M141,93.9h6.7v-6.7H141V93.9z"/>
	<path class="st4" d="M147.8,94.4H141c-0.3,0-0.5-0.2-0.5-0.5v-6.7c0-0.3,0.2-0.5,0.5-0.5h6.7c0.3,0,0.5,0.2,0.5,0.5v6.7
		C148.3,94.2,148,94.4,147.8,94.4z M141.5,93.4h5.7v-5.7h-5.7V93.4z"/>
</g>
<path class="st4" d="M129.5,91.5H95.4c-0.3,0-0.5-0.2-0.5-0.5s0.2-0.5,0.5-0.5h34.2c0.3,0,0.5,0.2,0.5,0.5S129.8,91.5,129.5,91.5z"
	/>
<g>
	<path class="st5" d="M132.2,109.8h6.7v-6.7h-6.7V109.8z"/>
	<path class="st4" d="M139,110.3h-6.7c-0.3,0-0.5-0.2-0.5-0.5v-6.7c0-0.3,0.2-0.5,0.5-0.5h6.7c0.3,0,0.5,0.2,0.5,0.5v6.7
		C139.5,110.1,139.2,110.3,139,110.3z M132.7,109.3h5.7v-5.7h-5.7V109.3z"/>
</g>
<g>
	<path class="st5" d="M141,109.8h6.7v-6.7H141V109.8z"/>
	<path class="st4" d="M147.8,110.3H141c-0.3,0-0.5-0.2-0.5-0.5v-6.7c0-0.3,0.2-0.5,0.5-0.5h6.7c0.3,0,0.5,0.2,0.5,0.5v6.7
		C148.3,110.1,148,110.3,147.8,110.3z M141.5,109.3h5.7v-5.7h-5.7V109.3z"/>
</g>
<path class="st4" d="M129.5,107.3H95.4c-0.3,0-0.5-0.2-0.5-0.5s0.2-0.5,0.5-0.5h34.2c0.3,0,0.5,0.2,0.5,0.5S129.8,107.3,129.5,107.3
	z"/>
<g>
	<path class="st5" d="M67.9,78.1h6.7v-6.7h-6.7V78.1z"/>
	<path class="st4" d="M74.7,78.6h-6.7c-0.3,0-0.5-0.2-0.5-0.5v-6.7c0-0.3,0.2-0.5,0.5-0.5h6.7c0.3,0,0.5,0.2,0.5,0.5v6.7
		C75.2,78.3,74.9,78.6,74.7,78.6z M68.4,77.6h5.7v-5.7h-5.7V77.6z"/>
</g>
<g>
	<path class="st5" d="M76.7,78.1h6.7v-6.7h-6.7V78.1z"/>
	<path class="st4" d="M83.5,78.6h-6.7c-0.3,0-0.5-0.2-0.5-0.5v-6.7c0-0.3,0.2-0.5,0.5-0.5h6.7c0.3,0,0.5,0.2,0.5,0.5v6.7
		C84,78.3,83.7,78.6,83.5,78.6z M77.2,77.6H83v-5.7h-5.7V77.6z"/>
</g>
<path class="st4" d="M65.2,75.6H31.1c-0.3,0-0.5-0.2-0.5-0.5s0.2-0.5,0.5-0.5h34.2c0.3,0,0.5,0.2,0.5,0.5S65.5,75.6,65.2,75.6z"/>
<g>
	<path class="st5" d="M67.9,93.9h6.7v-6.7h-6.7V93.9z"/>
	<path class="st4" d="M74.7,94.4h-6.7c-0.3,0-0.5-0.2-0.5-0.5v-6.7c0-0.3,0.2-0.5,0.5-0.5h6.7c0.3,0,0.5,0.2,0.5,0.5v6.7
		C75.2,94.2,74.9,94.4,74.7,94.4z M68.4,93.4h5.7v-5.7h-5.7V93.4z"/>
</g>
<g>
	<path class="st5" d="M76.7,93.9h6.7v-6.7h-6.7V93.9z"/>
	<path class="st4" d="M83.5,94.4h-6.7c-0.3,0-0.5-0.2-0.5-0.5v-6.7c0-0.3,0.2-0.5,0.5-0.5h6.7c0.3,0,0.5,0.2,0.5,0.5v6.7
		C84,94.2,83.7,94.4,83.5,94.4z M77.2,93.4H83v-5.7h-5.7V93.4z"/>
</g>
<path class="st4" d="M65.2,91.5H31.1c-0.3,0-0.5-0.2-0.5-0.5s0.2-0.5,0.5-0.5h34.2c0.3,0,0.5,0.2,0.5,0.5S65.5,91.5,65.2,91.5z"/>
<g>
	<path class="st5" d="M67.9,109.8h6.7v-6.7h-6.7V109.8z"/>
	<path class="st4" d="M74.7,110.3h-6.7c-0.3,0-0.5-0.2-0.5-0.5v-6.7c0-0.3,0.2-0.5,0.5-0.5h6.7c0.3,0,0.5,0.2,0.5,0.5v6.7
		C75.2,110.1,74.9,110.3,74.7,110.3z M68.4,109.3h5.7v-5.7h-5.7V109.3z"/>
</g>
<g>
	<path class="st5" d="M76.7,109.8h6.7v-6.7h-6.7V109.8z"/>
	<path class="st4" d="M83.5,110.3h-6.7c-0.3,0-0.5-0.2-0.5-0.5v-6.7c0-0.3,0.2-0.5,0.5-0.5h6.7c0.3,0,0.5,0.2,0.5,0.5v6.7
		C84,110.1,83.7,110.3,83.5,110.3z M77.2,109.3H83v-5.7h-5.7V109.3z"/>
</g>
<path class="st4" d="M65.2,107.3H31.1c-0.3,0-0.5-0.2-0.5-0.5s0.2-0.5,0.5-0.5h34.2c0.3,0,0.5,0.2,0.5,0.5S65.5,107.3,65.2,107.3z"
	/>
<g>
	<path class="st5" d="M40.6,132.9h-7.4v7.4h7.4V132.9z"/>
	<path class="st4" d="M40.6,140.8h-7.4c-0.3,0-0.5-0.2-0.5-0.5v-7.4c0-0.3,0.2-0.5,0.5-0.5h7.4c0.3,0,0.5,0.2,0.5,0.5v7.4
		C41.1,140.6,40.9,140.8,40.6,140.8z M33.7,139.8h6.4v-6.4h-6.4V139.8z"/>
</g>
<g>
	<path class="st5" d="M70.8,132.9h-7.4v7.4h7.4V132.9z"/>
	<path class="st4" d="M70.8,140.8h-7.4c-0.3,0-0.5-0.2-0.5-0.5v-7.4c0-0.3,0.2-0.5,0.5-0.5h7.4c0.3,0,0.5,0.2,0.5,0.5v7.4
		C71.3,140.6,71.1,140.8,70.8,140.8z M63.9,139.8h6.4v-6.4h-6.4V139.8z"/>
</g>
<g>
	<path class="st5" d="M102.3,132.9h-7.4v7.4h7.4V132.9z"/>
	<path class="st4" d="M102.3,140.8h-7.4c-0.3,0-0.5-0.2-0.5-0.5v-7.4c0-0.3,0.2-0.5,0.5-0.5h7.4c0.3,0,0.5,0.2,0.5,0.5v7.4
		C102.8,140.6,102.6,140.8,102.3,140.8z M95.4,139.8h6.4v-6.4h-6.4V139.8z"/>
</g>
<path class="st4" d="M80.1,76.9c-0.1,0-0.1,0-0.2,0c-0.3-0.1-0.6-0.3-0.7-0.5L78.1,74c-0.2-0.5,0-1.1,0.5-1.3c0.5-0.2,1.1,0,1.3,0.5
	l0.5,1.1l4.6-4.4c0.4-0.4,1-0.4,1.4,0c0.4,0.4,0.4,1,0,1.4l-5.6,5.4C80.6,76.8,80.3,76.9,80.1,76.9z"/>
<path class="st4" d="M80.1,92.6c-0.1,0-0.1,0-0.2,0c-0.3-0.1-0.6-0.3-0.7-0.5l-1.1-2.3c-0.2-0.5,0-1.1,0.4-1.3
	c0.5-0.2,1.1,0,1.3,0.4l0.5,1.1l4.6-4.4c0.4-0.4,1-0.4,1.4,0c0.4,0.4,0.4,1,0,1.4l-5.6,5.4C80.6,92.5,80.3,92.6,80.1,92.6z"/>
<path class="st4" d="M70.5,109c-0.1,0-0.1,0-0.2,0c-0.3-0.1-0.6-0.3-0.7-0.5l-1.2-2.3c-0.2-0.5,0-1.1,0.4-1.3c0.5-0.2,1.1,0,1.3,0.4
	l0.5,1.1l4.6-4.4c0.4-0.4,1-0.4,1.4,0c0.4,0.4,0.4,1,0,1.4l-5.6,5.4C71,108.9,70.8,109,70.5,109z"/>
<path class="st4" d="M144,76.7c-0.1,0-0.1,0-0.2,0c-0.3-0.1-0.6-0.3-0.7-0.5l-1.1-2.3c-0.2-0.5,0-1.1,0.4-1.3c0.5-0.2,1.1,0,1.3,0.4
	l0.5,1.1l4.6-4.4c0.4-0.4,1-0.4,1.4,0c0.4,0.4,0.4,1,0,1.4l-5.5,5.4C144.5,76.6,144.3,76.7,144,76.7z"/>
<path class="st4" d="M134.8,92.8c-0.1,0-0.1,0-0.2,0c-0.3-0.1-0.6-0.3-0.7-0.5l-1.1-2.3c-0.2-0.5,0-1.1,0.4-1.3
	c0.5-0.2,1.1,0,1.3,0.4l0.5,1.1l4.6-4.4c0.4-0.4,1-0.4,1.4,0c0.4,0.4,0.4,1,0,1.4l-5.5,5.4C135.3,92.7,135,92.8,134.8,92.8z"/>
<path class="st4" d="M134.8,108.9c-0.1,0-0.1,0-0.2,0c-0.3-0.1-0.6-0.3-0.7-0.5l-1.1-2.3c-0.2-0.5,0-1.1,0.4-1.3
	c0.5-0.2,1.1,0,1.3,0.4l0.5,1.1l4.6-4.4c0.4-0.4,1-0.4,1.4,0c0.4,0.4,0.4,1,0,1.4l-5.5,5.4C135.3,108.8,135,108.9,134.8,108.9z"/>
<g>
	<path class="st5" d="M158.6,29.5H23.3v18.8h135.3V29.5z"/>
	<path class="st4" d="M158.6,48.8H23.3c-0.3,0-0.5-0.2-0.5-0.5V29.5c0-0.3,0.2-0.5,0.5-0.5h135.3c0.3,0,0.5,0.2,0.5,0.5v18.8
		C159.1,48.5,158.8,48.8,158.6,48.8z M23.8,47.8h134.3V30H23.8V47.8z"/>
</g>
<g>
	<path class="st6" d="M158.6,29.5h-5.1v120.4h5.1V29.5z"/>
	<path class="st4" d="M158.6,150.4h-5.1c-0.3,0-0.5-0.2-0.5-0.5V29.5c0-0.3,0.2-0.5,0.5-0.5h5.1c0.3,0,0.5,0.2,0.5,0.5v120.4
		C159.1,150.1,158.8,150.4,158.6,150.4z M154,149.4h4.1V30H154V149.4z"/>
</g>
<g>
	<path class="st7" d="M158.6,47.6h-5.1v23.2h5.1V47.6z"/>
	<path class="st4" d="M158.6,71.3h-5.1c-0.3,0-0.5-0.2-0.5-0.5V47.6c0-0.3,0.2-0.5,0.5-0.5h5.1c0.3,0,0.5,0.2,0.5,0.5v23.2
		C159.1,71.1,158.8,71.3,158.6,71.3z M154,70.3h4.1V48.1H154V70.3z"/>
</g>
<g>
	<path class="st6" d="M158.6,29.5H23.3v9.1h135.3V29.5z"/>
	<path class="st4" d="M158.6,39.1H23.3c-0.3,0-0.5-0.2-0.5-0.5v-9.1c0-0.3,0.2-0.5,0.5-0.5h135.3c0.3,0,0.5,0.2,0.5,0.5v9.1
		C159.1,38.9,158.8,39.1,158.6,39.1z M23.8,38.1h134.3V30H23.8V38.1z"/>
</g>
<g>
	<path class="st5" d="M83.5,32.1H30.2v3.8h53.3V32.1z"/>
	<path class="st4" d="M83.5,36.4H30.2c-0.3,0-0.5-0.2-0.5-0.5v-3.8c0-0.3,0.2-0.5,0.5-0.5h53.3c0.3,0,0.5,0.2,0.5,0.5v3.8
		C84,36.2,83.8,36.4,83.5,36.4z M30.7,35.4H83v-2.8H30.7V35.4z"/>
</g>
<path class="st4" d="M155.3,32.8h-4.7c-0.3,0-0.5-0.2-0.5-0.5s0.2-0.5,0.5-0.5h4.7c0.3,0,0.5,0.2,0.5,0.5S155.5,32.8,155.3,32.8z"/>
<path class="st4" d="M155.3,34.8h-4.7c-0.3,0-0.5-0.2-0.5-0.5s0.2-0.5,0.5-0.5h4.7c0.3,0,0.5,0.2,0.5,0.5S155.5,34.8,155.3,34.8z"/>
<path class="st4" d="M155.3,36.8h-4.7c-0.3,0-0.5-0.2-0.5-0.5s0.2-0.5,0.5-0.5h4.7c0.3,0,0.5,0.2,0.5,0.5S155.5,36.8,155.3,36.8z"/>
<path class="st4" d="M70.6,55.9c0-1.2,0.6-1.8,1.8-1.8c1.1,0,1.7,0.7,1.7,1.8v3.8c0,1.2-0.6,1.8-1.7,1.8c-1.1,0-1.8-0.7-1.8-1.8
	V55.9z M71.7,59.8c0,0.5,0.2,0.7,0.6,0.7c0.4,0,0.6-0.2,0.6-0.7v-4c0-0.5-0.2-0.7-0.6-0.7c-0.4,0-0.6,0.2-0.6,0.7V59.8z"/>
<path class="st4" d="M75.8,56.1v5.3h-1v-7.3h1.4l1.2,4.4v-4.4h1v7.3h-1.2L75.8,56.1z"/>
<path class="st4" d="M79.3,54.1h1.2v6.3h1.9v1h-3.1L79.3,54.1z"/>
<path class="st4" d="M82.8,54.1H84v7.3h-1.2V54.1z"/>
<path class="st4" d="M85.8,56.1v5.3h-1v-7.3h1.4l1.2,4.4v-4.4h1v7.3h-1.2L85.8,56.1z"/>
<path class="st4" d="M90.4,57.2H92v1h-1.6v2.1h2v1h-3.1v-7.3h3.1v1h-2L90.4,57.2z"/>
<path class="st4" d="M94.4,54.1H98v1h-1.2v6.3h-1.2v-6.3h-1.2V54.1z"/>
<path class="st4" d="M99.6,57.2h1.6v1h-1.6v2.1h2v1h-3.1v-7.3h3.1v1h-2V57.2z"/>
<path class="st4" d="M103.9,54c1.1,0,1.7,0.7,1.7,1.8v0.2h-1.1v-0.3c0-0.5-0.2-0.7-0.6-0.7c-0.4,0-0.6,0.2-0.6,0.7
	c0,1.5,2.2,1.8,2.2,3.9c0,1.2-0.6,1.8-1.7,1.8c-1.1,0-1.7-0.7-1.7-1.8v-0.5h1.1v0.5c0,0.5,0.2,0.7,0.6,0.7c0.4,0,0.6-0.2,0.6-0.7
	c0-1.5-2.2-1.8-2.2-3.9C102.2,54.7,102.8,54,103.9,54z"/>
<path class="st4" d="M105.9,54.1h3.6v1h-1.2v6.3h-1.1v-6.3h-1.2L105.9,54.1z"/>
<path class="st4" d="M39,131.1h-1.2l-0.2-1.3h-1.4l-0.2,1.3h-1.1l1.2-7.3h1.7L39,131.1z M36.3,128.8h1.1l-0.6-3.7L36.3,128.8z"/>
<path class="st4" d="M68.7,125.5v0.3c0,0.8-0.2,1.2-0.7,1.5c0.6,0.2,0.9,0.8,0.9,1.6v0.6c0,1.1-0.6,1.7-1.7,1.7h-1.8v-7.3H67
	C68.2,123.8,68.7,124.4,68.7,125.5z M66.4,124.8v1.9h0.5c0.4,0,0.7-0.2,0.7-0.8v-0.4c0-0.5-0.2-0.8-0.6-0.8H66.4z M66.4,127.8v2.3
	h0.7c0.4,0,0.6-0.2,0.6-0.7v-0.6c0-0.7-0.2-0.9-0.7-0.9H66.4z"/>
<path class="st4" d="M100.5,128.4v1c0,1.2-0.6,1.8-1.7,1.8s-1.7-0.7-1.7-1.8v-3.8c0-1.2,0.6-1.8,1.7-1.8s1.7,0.7,1.7,1.8v0.7h-1.1
	v-0.8c0-0.5-0.2-0.7-0.6-0.7c-0.4,0-0.6,0.2-0.6,0.7v4c0,0.5,0.2,0.7,0.6,0.7c0.4,0,0.6-0.2,0.6-0.7v-1H100.5z"/>
<path class="st4" d="M119.5,120.4H31.6c-0.3,0-0.5-0.2-0.5-0.5s0.2-0.5,0.5-0.5h87.9c0.3,0,0.5,0.2,0.5,0.5S119.8,120.4,119.5,120.4
	z"/>
<path class="st3" d="M185.7,30.6H176c-0.3,0-0.5-0.2-0.5-0.5v-9.7c0-0.3,0.2-0.5,0.5-0.5h9.7c0.3,0,0.5,0.2,0.5,0.5v9.7
	C186.2,30.3,186,30.6,185.7,30.6z M176.5,29.6h8.7v-8.7h-8.7V29.6z"/>
<path class="st3" d="M198.4,30.6h-9.7c-0.3,0-0.5-0.2-0.5-0.5v-9.7c0-0.3,0.2-0.5,0.5-0.5h9.7c0.3,0,0.5,0.2,0.5,0.5v9.7
	C198.9,30.3,198.7,30.6,198.4,30.6z M189.2,29.6h8.7v-8.7h-8.7V29.6z"/>
<path class="st3" d="M179.7,28.5c0,0-0.1,0-0.1,0c-0.3,0-0.6-0.2-0.8-0.5l-1.7-3.3c-0.2-0.5,0-1.1,0.4-1.3c0.5-0.2,1.1,0,1.3,0.4
	l1,2l3.9-4.3c0.4-0.4,1-0.4,1.4-0.1c0.4,0.4,0.4,1,0.1,1.4l-4.9,5.4C180.3,28.4,180,28.5,179.7,28.5z"/>
<path class="st3" d="M38.8,173h-9.7c-0.3,0-0.5-0.2-0.5-0.5v-9.7c0-0.3,0.2-0.5,0.5-0.5h9.7c0.3,0,0.5,0.2,0.5,0.5v9.7
	C39.3,172.7,39,173,38.8,173z M29.6,172h8.7v-8.7h-8.7V172z"/>
<path class="st3" d="M51.5,173h-9.7c-0.3,0-0.5-0.2-0.5-0.5v-9.7c0-0.3,0.2-0.5,0.5-0.5h9.7c0.3,0,0.5,0.2,0.5,0.5v9.7
	C52,172.7,51.7,173,51.5,173z M42.3,172H51v-8.7h-8.7V172z"/>
<path class="st3" d="M32.8,170.9c0,0-0.1,0-0.1,0c-0.3,0-0.6-0.2-0.8-0.5l-1.7-3.3c-0.2-0.5,0-1.1,0.4-1.3c0.5-0.2,1.1,0,1.3,0.4
	l1,2l3.9-4.3c0.4-0.4,1-0.4,1.4-0.1s0.4,1,0.1,1.4l-4.9,5.4C33.3,170.8,33.1,170.9,32.8,170.9z"/>
<path class="st3" d="M84.7,173H75c-0.3,0-0.5-0.2-0.5-0.5v-9.7c0-0.3,0.2-0.5,0.5-0.5h9.7c0.3,0,0.5,0.2,0.5,0.5v9.7
	C85.2,172.7,85,173,84.7,173z M75.5,172h8.7v-8.7h-8.7V172z"/>
<path class="st3" d="M97.5,173h-9.7c-0.3,0-0.5-0.2-0.5-0.5v-9.7c0-0.3,0.2-0.5,0.5-0.5h9.7c0.3,0,0.5,0.2,0.5,0.5v9.7
	C98,172.7,97.7,173,97.5,173z M88.3,172H97v-8.7h-8.7V172z"/>
<path class="st3" d="M78.8,170.9c0,0-0.1,0-0.1,0c-0.3,0-0.6-0.2-0.8-0.5l-1.7-3.3c-0.2-0.5,0-1.1,0.4-1.3c0.5-0.2,1.1,0,1.3,0.4
	l1,2l3.9-4.3c0.4-0.4,1-0.4,1.4-0.1s0.4,1,0.1,1.4l-4.9,5.4C79.3,170.8,79.1,170.9,78.8,170.9z"/>
<g class="st2">
	<path class="st3" d="M89.1,25.8c-3.2,0-6.1-2.4-6.6-5.7c-0.6-3.7,1.9-7.1,5.6-7.7c1.8-0.3,3.6,0.1,5,1.2c1.5,1.1,2.4,2.6,2.7,4.4
		c0.6,3.7-1.9,7.1-5.6,7.7C89.8,25.8,89.5,25.8,89.1,25.8z M89.1,13.3c-0.3,0-0.6,0-0.9,0.1c-3.1,0.5-5.2,3.5-4.7,6.6
		c0.5,3.1,3.5,5.2,6.6,4.7c1.5-0.2,2.8-1.1,3.7-2.3c0.9-1.2,1.3-2.8,1-4.3c-0.2-1.5-1.1-2.8-2.3-3.7C91.5,13.7,90.3,13.3,89.1,13.3z
		"/>
	<path class="st3" d="M90.8,21.8c-0.1,0-0.3-0.1-0.4-0.2l-1.7-2.3c-0.1-0.1-0.1-0.2-0.1-0.3v-3.5c0-0.3,0.2-0.5,0.5-0.5
		s0.5,0.2,0.5,0.5v3.4l1.6,2.1c0.2,0.2,0.1,0.5-0.1,0.7C91.1,21.8,90.9,21.8,90.8,21.8z"/>
</g>
<g class="st2">
	<path class="st3" d="M205.4,138.5h-0.9l-0.2-1.1h-1.1l-0.2,1.1h-0.8l0.9-5.8h1.3L205.4,138.5z M203.3,136.7h0.9l-0.4-2.9
		L203.3,136.7z"/>
	<path class="st3" d="M218.4,134.1v0.2c0,0.2,0,0.5-0.1,0.7c-0.1,0.2-0.3,0.4-0.5,0.5c0.2,0.1,0.4,0.3,0.5,0.5
		c0.1,0.2,0.2,0.5,0.1,0.7v0.5c0,0.2,0,0.4-0.1,0.6c-0.1,0.2-0.2,0.3-0.3,0.5c-0.1,0.1-0.3,0.2-0.5,0.3s-0.4,0.1-0.6,0.1h-1.4v-5.8
		h1.4C218,132.7,218.4,133.2,218.4,134.1z M216.6,133.6v1.5h0.4c0.3,0,0.5-0.1,0.5-0.6v-0.3c0-0.4-0.1-0.6-0.5-0.6H216.6z
		 M216.6,135.9v1.8h0.5c0.3,0,0.5-0.1,0.5-0.6v-0.5c0-0.5-0.2-0.7-0.6-0.7L216.6,135.9z"/>
	<path class="st3" d="M231.5,136.4v0.8c0,0.9-0.5,1.5-1.4,1.5c-0.9,0-1.4-0.5-1.4-1.5v-3c0-0.9,0.5-1.5,1.4-1.5
		c0.9,0,1.4,0.5,1.4,1.5v0.6h-0.9v-0.6c0-0.4-0.2-0.6-0.5-0.6c-0.3,0-0.5,0.2-0.5,0.6v3.1c0,0.4,0.2,0.6,0.5,0.6
		c0.3,0,0.5-0.1,0.5-0.6v-0.8H231.5z"/>
	<path class="st3" d="M207.7,149.3h-8.1v-8.1h8.1V149.3z M200.6,148.3h6.1v-6.1h-6.1V148.3z"/>
	<path class="st3" d="M220.8,149.3h-8.1v-8.1h8.1V149.3z M213.8,148.3h6.1v-6.1h-6.1V148.3z"/>
	<path class="st3" d="M234,149.3h-8.1v-8.1h8.1V149.3z M226.9,148.3h6.1v-6.1h-6.1V148.3z"/>
</g>
<rect x="25" y="223" class="st4" width="14.9" height="1"/>
<rect x="44.8" y="223" class="st4" width="190" height="1"/>
<g>
	<path class="st8" d="M177.4,223.3l3.2-48.5l2.4-23.1l-6.4-7.2l-3.2-2.4c0,0-4.6,4-7.8,4.8c-3.2,0.9-6.3,1.8-6.3,1.8
		s-11,20.7-11.9,30.1s-2.4,44.2-2.4,44.2l1.2,0.2H177.4z"/>
	<path class="st4" d="M177.9,223.8h-31.8l-1.7-0.2l0-0.5c0-0.3,1.5-34.9,2.4-44.2c0.9-9.4,11.5-29.5,12-30.3l0.1-0.2l0.2-0.1
		c0,0,3.1-0.9,6.3-1.8c3.1-0.8,7.5-4.7,7.6-4.7l0.3-0.3l3.6,2.7l6.6,7.4l-2.4,23.3L177.9,223.8z M145.4,222.7l0.8,0.1l30.7,0l3.2-48
		l2.3-22.9l-6.3-7l-2.9-2.1c-1.1,0.9-4.8,3.9-7.7,4.7c-2.7,0.7-5.4,1.5-6.1,1.7c-1.1,2.1-10.9,21-11.7,29.7
		C146.9,187.7,145.6,218.6,145.4,222.7z"/>
</g>
<path class="st4" d="M162,183.8c-0.6-0.3-0.5-1.6,0.3-3.7l0.9,0.4c-0.8,2.1-0.6,2.6-0.6,2.6c0,0-0.1-0.1-0.2-0.1L162,183.8z"/>
<g>
	<path class="st4" d="M161,148.3c0.5,3.9,0.9,7.9,0.9,11.8c0,0,3.3-1.3,6-6c1.5-2.5,2.7-5.1,3.8-7.8L161,148.3z"/>
	<path class="st4" d="M161.4,160.9l0-0.7c-0.1-3.9-0.4-7.9-0.9-11.8l-0.1-0.5l12-2.1l-0.3,0.8c-1,2.7-2.3,5.3-3.8,7.8
		c-2.7,4.7-6.1,6.1-6.2,6.2L161.4,160.9z M161.5,148.7c0.5,3.5,0.8,7.1,0.8,10.6c1.1-0.6,3.2-2.2,5-5.4c1.3-2.2,2.4-4.5,3.4-6.9
		L161.5,148.7z"/>
</g>
<g>
	<path class="st5" d="M177.4,223.3l2.9-43.6c-2.8,1.4-8.4,3.8-14.5,3.9c-7.4,0.1-16.5-5.6-16.5-5.6l-2,0.8c0,0,0,0.1,0,0.1
		c-0.9,9.4-2.4,44.2-2.4,44.2l1.2,0.2H177.4z"/>
	<path class="st4" d="M177.9,223.8h-31.7l-1.7-0.2l0-0.5c0-0.3,1.5-34.9,2.4-44.2l0-0.3l0.3-0.2l2.3-0.9l0.2,0.1
		c0.1,0.1,8.9,5.5,16,5.5c0.1,0,0.2,0,0.2,0c6.1-0.1,11.6-2.5,14.3-3.9l0.8-0.4L177.9,223.8z M145.4,222.7l0.8,0.1l30.7,0l2.8-42.3
		c-3,1.4-8.2,3.5-13.9,3.6c-0.1,0-0.2,0-0.2,0c-6.8,0-14.8-4.7-16.3-5.5l-1.5,0.6C146.9,188.2,145.6,218.6,145.4,222.7z"/>
</g>
<path class="st5" d="M172.6,198.9c0,11.2,0.4,22,0.5,24.4h21.7c0.3-3.5,2.2-25.3,3.1-33.1c1-8.5,7.9-21.2,7.9-25.8
	c0-4.5,1.4-3.8-4.9-7.1c-6.3-3.3-20.1-10.5-22-11.3c-1.9-0.9-4-3-4-3s0.7,4.4,0.5,16.2C175.2,171,172.6,186.2,172.6,198.9z"/>
<g class="st9">
	<path class="st10" d="M174.9,143c0.3,2.1,0.4,4.1,0.4,6.2v-5.8C175.1,143.2,174.9,143,174.9,143z"/>
	<path class="st10" d="M203.4,171.4v1.5c0.2-0.5,0.3-0.9,0.5-1.3v-0.2h0.1c0.1-0.2,0.1-0.3,0.2-0.5h-0.2v-6.2h1.9c0-0.1,0-0.2,0-0.2
		c0-0.1,0-0.2,0-0.3h-1.9v-5.3c-0.2-0.1-0.3-0.2-0.5-0.3v5.6h-5.2V158h4l-0.9-0.5h-3.1v-1.6l-0.5-0.3v1.9h-5.2v-4.6l-0.5-0.3v4.8
		h-5.2v-6.2h2.6l-1-0.5h-1.6v-0.8l-0.5-0.3v1.1H181V147c-0.2-0.1-0.3-0.2-0.5-0.2v4h-5.2c0,0.2,0,0.3,0,0.5h5.2v6.2h-5.1
		c0,0.2,0,0.3,0,0.5h5.1v6.2h-5.2v-2.4c-0.1,2.4-0.3,5-0.5,7.5v1.5h-0.1l0,0.5h0.2v6.2h-0.7l0,0.5h0.8v6.2h-1.4l0,0.5h1.5v6.2h-1.9
		l0,0.5h2v6.2h-2.2c0,0.2,0,0.3,0,0.5h2.2v6.2h-2.2c0,0.2,0,0.3,0,0.5h2.2v6.2h-2.1c0,0.2,0,0.3,0,0.5h2.1v11.8h0.5v-11.8h5.2v11.8
		h0.5v-11.8h5.2v11.8h0.5v-11.8h5.2v11.8h0.5v-11.8h3.3c0-0.2,0-0.3,0-0.5h-3.4v-6.2h4c0-0.2,0-0.3,0.1-0.5h-4v-6.2h4.6
		c0-0.2,0-0.3,0.1-0.5h-4.6v-6.2h5.2v0.7l0.2-1.9c0.1-0.6,0.2-1.1,0.3-1.7v-3.7h0.9l0.1-0.5h-1.1v-6.2h3.2c0.1-0.2,0.1-0.3,0.2-0.5
		h-3.4v-6.2L203.4,171.4z M198.2,164.7h5.2v6.2h-5.2V164.7z M180.5,211h-5.2v-6.2h5.2V211z M180.5,204.3h-5.2v-6.2h5.2V204.3z
		 M180.5,197.6h-5.2v-6.2h5.2V197.6z M180.5,190.9h-5.2v-6.2h5.2V190.9z M180.5,184.2h-5.2v-6.2h5.2V184.2z M180.5,177.6h-5.2v-6.2
		h5.2V177.6z M180.5,170.9h-5.2v-6.2h5.2V170.9z M186.2,211H181v-6.2h5.2V211z M186.2,204.3H181v-6.2h5.2V204.3z M186.2,197.6H181
		v-6.2h5.2V197.6z M186.2,190.9H181v-6.2h5.2V190.9z M186.2,184.2H181v-6.2h5.2V184.2z M186.2,177.6H181v-6.2h5.2V177.6z
		 M186.2,170.9H181v-6.2h5.2V170.9z M186.2,164.2H181V158h5.2V164.2z M186.2,157.5H181v-6.2h5.2V157.5z M192,211h-5.2v-6.2h5.2V211z
		 M192,204.3h-5.2v-6.2h5.2V204.3z M192,197.6h-5.2v-6.2h5.2V197.6z M192,190.9h-5.2v-6.2h5.2V190.9z M192,184.2h-5.2v-6.2h5.2
		V184.2z M192,177.6h-5.2v-6.2h5.2V177.6z M192,170.9h-5.2v-6.2h5.2V170.9z M192,164.2h-5.2V158h5.2V164.2z M197.7,190.9h-5.2v-6.2
		h5.2V190.9z M197.7,184.2h-5.2v-6.2h5.2V184.2z M197.7,177.6h-5.2v-6.2h5.2V177.6z M197.7,170.9h-5.2v-6.2h5.2V170.9z M197.7,164.2
		h-5.2V158h5.2V164.2z"/>
</g>
<path class="st4" d="M195.2,223.8h-22.6l0-0.5c-0.1-2.3-0.5-13.1-0.5-24.4c0-6.8,0.7-14.3,1.4-21.6c0.6-6.5,1.2-12.7,1.3-18.2
	c0.2-11.6-0.5-16.1-0.5-16.1l-0.2-1.5l1.1,1.1c0,0,2.1,2,3.9,2.9c1.9,0.9,15.8,8,22,11.3c5.1,2.7,5.4,2.9,5.2,5.6
	c0,0.5-0.1,1.2-0.1,2c0,2.2-1.5,6.2-3.3,10.7c-1.9,5-4.1,10.7-4.7,15.2c-1,8-2.9,30.5-3.1,33.1L195.2,223.8z M173.6,222.8h20.7
	c0.3-4.1,2.1-25,3.1-32.7c0.6-4.6,2.8-10.3,4.7-15.4c1.6-4.3,3.2-8.3,3.2-10.3c0-0.8,0-1.5,0.1-2c0.1-2.1,0.1-2.1-4.7-4.6
	c-6.2-3.3-20.1-10.4-22-11.3c-1.2-0.5-2.3-1.5-3.2-2.2c0.2,2.1,0.5,6.7,0.3,14.9c-0.1,5.6-0.7,11.7-1.3,18.3
	c-0.7,7.2-1.4,14.7-1.4,21.5C173.1,209.5,173.5,219.8,173.6,222.8z"/>
<g>
	<path class="st4" d="M174.9,143c0,0,0.7,4.4,0.5,16.2c0,3-0.2,6.2-0.5,9.5c0.6-0.8,2.5-3.4,3-3.6c0.5-0.2,3.3,2.4,5.6,2.8
		c2.3,0.3,3.1,0.3,0.7-2.3c-2.4-2.6-3.5-10.3-4.4-16c-0.2-1.2-0.4-2.4-0.8-3.6h-0.1C177,145.1,174.9,143,174.9,143z"/>
	<path class="st4" d="M174.3,170.4l0.1-1.8c0.2-2.9,0.5-6.3,0.5-9.5c0.2-11.6-0.5-16.1-0.5-16.1l-0.2-1.5l1.1,1.1c0,0,2,2,3.8,2.8
		h0.3l0.2,0.4c0.4,1.2,0.7,2.5,0.8,3.7l0.2,1c0.8,5.5,1.9,12.4,4.1,14.7c1.4,1.5,1.8,2.2,1.5,2.8c-0.3,0.6-1.2,0.5-2.6,0.3
		c-1.5-0.2-3.1-1.3-4.2-2.1c-0.4-0.3-0.9-0.6-1.2-0.7c-0.2,0.2-1,1.1-2.7,3.4L174.3,170.4z M177.9,164.6c0.4,0,0.9,0.3,1.8,0.9
		c1.1,0.7,2.6,1.7,3.8,1.9c0.3,0.1,1.1,0.2,1.5,0.2c-0.1-0.2-0.4-0.7-1.3-1.6c-2.4-2.6-3.5-9.6-4.3-15.2l-0.2-1
		c-0.2-1.1-0.4-2.2-0.7-3.3c-1.1-0.5-2.2-1.4-3-2.1c0.2,2.1,0.5,6.7,0.3,14.9c0,2.6-0.2,5.3-0.4,7.8c1.7-2.2,2-2.3,2.2-2.4
		C177.8,164.6,177.9,164.6,177.9,164.6z"/>
</g>
<path class="st4" d="M173.3,205.3l0-0.7l0.1-4.4l1,0l-0.1,3.8c0.7-0.1,2-0.2,4.7-0.4c4.2-0.3,11.4-3.2,13-3.9l-0.5-3.5
	c-0.5,0.3-1.3,0.6-2.2,1.1l-0.4-0.9c1.6-0.7,2.8-1.3,2.8-1.4l0.6-0.3l0.7,5.6l-0.3,0.2c-0.4,0.2-8.8,3.9-13.7,4.2
	c-4.5,0.3-5.2,0.4-5.2,0.4L173.3,205.3z"/>
<path class="st4" d="M185,199.1l-0.3-0.9c0.8-0.3,1.8-0.6,2.9-1.1l0.4,0.9C186.8,198.5,185.8,198.9,185,199.1z"/>
<path class="st4" d="M175.6,200.3l0-1c2.5-0.1,5-0.3,7.5-0.7l0.2,1C180.7,200,178.1,200.2,175.6,200.3z"/>
<rect x="192.3" y="200.1" transform="matrix(0.9966 -8.254284e-02 8.254284e-02 0.9966 -16.0018 16.6011)" class="st4" width="1" height="3.5"/>
<path class="st5" d="M126.2,223.3h24.4c0.1-1.9,0.8-26.2,1.2-38.6c0.5-12.9,9.2-32.5,9.2-32.5s1.2-2.8-0.1-4c-1.2-1.2-4.2-0.7-6.4,1
	c-2.2,1.7-22.8,10.7-24.1,11.9c-1.2,1.2-1,5.5-1.5,10.4c-0.5,5-8.7,39.2-8.7,39.2s-2.2,0.5-3,1c-0.7,0.5-0.7,2-0.7,2s1,0.2,4,1.7
	C123.3,216.9,125.8,222.4,126.2,223.3z"/>
<path class="st10" d="M157.7,158v2.5c0.2-0.5,0.3-0.9,0.5-1.3V158h0.5l0.2-0.5h-0.7v-6.2h3.1c0-0.2,0.1-0.3,0.1-0.5h-3.2v-3.1
	c-0.2,0-0.3,0-0.5,0.1v3h-5.2v-0.3l-0.5,0.3v0.1h-0.2l-1,0.5h1.2v6.2h-5.2v-4.3l-0.5,0.2v4h-5.2v-1.6l-0.5,0.2v1.3h-2.9l-1.1,0.5
	h3.9v6.2h-5.2v-5.6l-0.5,0.2v5.4h-5.2v-1.3c-0.3,1.8-0.4,3.6-0.5,5.5v2.5H129l0,0.5h0.2v6.2h-1.3l-0.1,0.5h1.4v6.2h-2.8
	c0,0.2-0.1,0.3-0.1,0.5h2.9v6.2h-4.3c0,0.2-0.1,0.3-0.1,0.5h4.4v6.2H124v-2.7l-0.5,2.1v0.6h-0.1l-0.1,0.5h0.2v6.2h-1.7l-0.1,0.5h1.8
	v6.2h-4.2c-0.5,0.1-1,0.3-1.5,0.5v2.7c0.1,0.1,0.3,0.1,0.5,0.2v-2.9h5.2v6.9c0.2,0.2,0.3,0.5,0.5,0.7v-7.7h5.2v11.8h0.5v-11.8h5.2
	v11.8h0.5v-11.8h5.2v11.8h0.5v-11.8h5.2v11.8h0.5v-11.8h4.1V211h-4.1v-6.2h4.3v-0.5h-4.3v-6.2h4.5v-0.5h-4.5v-6.2h4.7
	c0-0.2,0-0.3,0-0.5h-4.7v-6.2h5c0-0.2,0-0.3,0-0.5h-5v-6.2h5.2v3.7c0.1-1.1,0.3-2.1,0.5-3.2v-0.4h0.1c0-0.2,0.1-0.3,0.1-0.5h-0.2
	v-6.2h1.7c0-0.2,0.1-0.3,0.1-0.5h-1.8v-6.2h3.7c0.1-0.2,0.1-0.3,0.2-0.5h-3.9V158L157.7,158z M152.5,151.3h5.2v6.2h-5.2V151.3z
	 M129.2,211H124v-6.2h5.2V211z M129.2,204.4H124v-6.2h5.2V204.4z M134.9,211h-5.2v-6.2h5.2V211z M134.9,204.4h-5.2v-6.2h5.2V204.4z
	 M134.9,197.7h-5.2v-6.2h5.2V197.7z M134.9,191h-5.2v-6.2h5.2V191z M134.9,184.3h-5.2v-6.2h5.2V184.3z M134.9,177.6h-5.2v-6.2h5.2
	V177.6z M134.9,170.9h-5.2v-6.2h5.2V170.9z M140.6,211h-5.2v-6.2h5.2V211z M140.6,204.4h-5.2v-6.2h5.2V204.4z M140.6,197.7h-5.2
	v-6.2h5.2V197.7z M140.6,191h-5.2v-6.2h5.2V191z M140.6,184.3h-5.2v-6.2h5.2V184.3z M140.6,177.6h-5.2v-6.2h5.2V177.6z M140.6,170.9
	h-5.2v-6.2h5.2V170.9z M146.3,211h-5.2v-6.2h5.2V211z M146.3,204.4h-5.2v-6.2h5.2V204.4z M146.3,197.7h-5.2v-6.2h5.2V197.7z
	 M146.3,191h-5.2v-6.2h5.2V191z M146.3,184.3h-5.2v-6.2h5.2V184.3z M146.3,177.6h-5.2v-6.2h5.2V177.6z M146.3,170.9h-5.2v-6.2h5.2
	V170.9z M146.3,164.2h-5.2V158h5.2V164.2z M152,177.6h-5.2v-6.2h5.2V177.6z M152,170.9h-5.2v-6.2h5.2V170.9z M152,164.2h-5.2V158
	h5.2V164.2z"/>
<path class="st4" d="M151,223.8h-25.2l-0.1-0.3c-1-2.3-3.3-6.5-5.4-7.6c-2.9-1.4-3.9-1.7-3.9-1.7l-0.4-0.1l0-0.4c0-0.2,0-1.8,1-2.4
	c0.6-0.4,2.2-0.8,2.8-1c0.8-3.4,8.1-34.2,8.6-38.8c0.1-1.5,0.2-2.9,0.3-4.1c0.2-3.2,0.3-5.6,1.3-6.6c0.6-0.6,4.8-2.6,11.6-5.8
	c5.4-2.5,11.4-5.3,12.5-6.2c2.5-1.9,5.7-2.4,7.1-1c1.5,1.5,0.2,4.4,0.2,4.5c-0.1,0.2-8.7,19.6-9.2,32.3c-0.5,12.9-1.2,38.3-1.2,38.6
	L151,223.8z M126.5,222.8h23.6c0.1-3.6,0.8-26.2,1.2-38.1c0.5-12.8,9.2-32.4,9.3-32.6c0.3-0.7,0.9-2.6,0-3.4c-1-1-3.7-0.6-5.8,1
	c-1.2,0.9-6.8,3.5-12.7,6.3c-5,2.4-10.8,5-11.3,5.6c-0.7,0.7-0.9,3.1-1,5.9c-0.1,1.3-0.2,2.7-0.3,4.2c-0.5,4.9-8.4,37.9-8.7,39.3
	l-0.1,0.3l-0.3,0.1c-0.6,0.1-2.3,0.6-2.8,0.9c-0.3,0.2-0.4,0.8-0.5,1.2c0.5,0.2,1.7,0.6,3.7,1.6
	C123.4,216.4,125.8,221.2,126.5,222.8z"/>
<g>
	<path class="st4" d="M116.6,213.8c0,0,1,0.2,4,1.7c3,1.5,5.7,7.9,5.7,7.9h4.8c0.3-0.9,1-4.2-2.3-8.2c-4-4.7-8.4-4.5-8.4-4.5
		s-2.2,0.5-3,1C116.6,212.3,116.6,213.8,116.6,213.8z"/>
	<path class="st4" d="M131.4,223.9h-5.5l-0.1-0.3c0-0.1-2.7-6.3-5.5-7.7c-2.9-1.4-3.9-1.7-3.9-1.7l-0.4-0.1l0-0.4c0-0.2,0-1.8,1-2.4
		c0.8-0.5,2.9-1,3.1-1.1c0.3,0,4.8-0.2,8.9,4.6c3.5,4.2,2.7,7.7,2.4,8.7L131.4,223.9z M126.6,222.9h4.1c0.3-1.2,0.5-4-2.3-7.4
		c-3.7-4.4-8-4.3-8-4.3c-0.5,0.1-2.2,0.5-2.7,0.9c-0.3,0.2-0.4,0.8-0.5,1.2c0.5,0.2,1.7,0.6,3.7,1.6
		C123.5,216.4,126,221.6,126.6,222.9z"/>
</g>
<g>
	<path class="st4" d="M158,147.7c-1.1,2.8-3.6,9.2-5.7,12.2c-2.7,4-7.7,7.2-6,8.7c1.7,1.5,6.7-3.2,6.7-3.2s1.2,3.5,1.5,4.5
		c0,0,0,0.1,0.1,0.1c1.8-6,3.9-11.9,6.4-17.7c0,0,1.2-2.8-0.1-4C160.3,147.6,159.2,147.5,158,147.7z"/>
	<path class="st4" d="M154.8,171l-0.6-0.7c-0.1-0.1-0.1-0.2-0.2-0.3c-0.2-0.7-0.9-2.7-1.2-3.7c-1.5,1.4-5.1,4.2-6.8,2.7
		c-0.3-0.3-0.5-0.6-0.5-1c-0.1-1.2,1.3-2.6,3-4.3c1.1-1.2,2.5-2.5,3.4-4c2.1-3,4.6-9.5,5.6-12.1l0.1-0.3l0.3,0
		c1.5-0.3,2.7,0,3.4,0.7c1.5,1.5,0.2,4.4,0.2,4.5c-2.5,5.7-4.6,11.7-6.4,17.6L154.8,171z M158.3,148.1c-1.1,2.8-3.6,9.1-5.6,12.1
		c-1,1.5-2.4,2.9-3.5,4.1c-1.3,1.4-2.7,2.8-2.7,3.6c0,0.1,0,0.2,0.2,0.3c1,0.8,4.1-1.4,6-3.2l0.6-0.5l0.3,0.7c0,0.1,0.6,1.8,1.1,3.1
		c1.7-5.5,3.7-11,6-16.2c0.3-0.7,0.9-2.6,0-3.4C160.1,148.2,159.3,148,158.3,148.1z"/>
</g>
<path class="st4" d="M140.3,171.7l-1-0.2c0.1-0.9,0.2-1.8,0.3-2.7l1,0C140.6,169.8,140.5,170.8,140.3,171.7z"/>
<path class="st4" d="M136.4,224l-1,0c0-0.2,0.7-16,0.7-25c0-5.9,1.4-15.3,2.5-22.2l0.4-2.4l1,0.1l-0.4,2.4c-1,6.8-2.4,16.2-2.4,22.1
	C137.1,208,136.4,223.8,136.4,224z"/>
<path class="st4" d="M149,204.1l-0.7-0.4l0,0c0,0-0.5-0.2-4.7-1.6c-4.4-1.5-7.2-2.7-7.2-2.7l0.4-0.9c0,0,2.8,1.2,7.1,2.7
	c1.9,0.6,3.4,1.1,4.2,1.4l0.4-4.5l-5.5-0.7c-2-0.3-5.9-1.5-6-1.5l0.3-1c0,0,3.9,1.2,5.9,1.5l6.4,0.8L149,204.1z"/>
<path class="st4" d="M146.5,217.1c-1.2,0-2.4-0.3-2.8-0.3l0.2-1c1.2,0.3,3.3,0.5,3.8,0.1c0,0,0.1-0.1,0.1-0.1
	c0-1.5,0.3-12.1,0.3-12.5l1,0c0,0.1-0.3,11-0.3,12.5c0,0.4-0.1,0.7-0.4,0.9C148,217,147.2,217.1,146.5,217.1z"/>
<g>
	<path class="st8" d="M152.2,142.5c0,0,4.7,6.7,8.9,9.8c4.2,3.1,7.8-1.2,10.6-5.9c2.8-4.7,4.7-8.1,6-12.1c1.4-4,0-10.7-5.6-16
		c-5.6-5.3-18.6-13-21.9-9c-3.3,4-6.4,12.9-4.2,20.5C147.3,134.4,149.4,138.6,152.2,142.5z"/>
	<path class="st4" d="M163.9,153.8c-1.1,0-2.1-0.4-3.1-1.1c-4.2-3.1-8.7-9.6-9-9.9c-2.8-3.9-4.9-8.2-6.3-12.8
		c-2.3-7.9,1.1-17,4.3-20.9c0.6-0.8,1.6-1.2,2.8-1.3c5.2-0.3,15,5.7,19.8,10.2c5.9,5.6,7.1,12.5,5.7,16.5c-1.4,4.1-3.2,7.4-6.1,12.2
		c-1.8,3-4.2,6.5-7.2,7.1C164.5,153.8,164.2,153.8,163.9,153.8z M153,108.7c-0.1,0-0.3,0-0.4,0c-0.9,0.1-1.6,0.4-2.1,0.9
		c-3,3.7-6.3,12.4-4.1,20c1.3,4.5,3.3,8.7,6.1,12.5l0,0c0,0.1,4.7,6.7,8.8,9.7c1.1,0.8,2.2,1.1,3.2,0.9c2.7-0.5,5-4,6.6-6.6
		c2.8-4.7,4.6-8,6-12c1.3-3.7,0.1-10.2-5.5-15.4C167.3,114.5,158,108.7,153,108.7z"/>
</g>
<path class="st4" d="M155.6,129c-0.1,0-0.2,0-0.3,0c-1.6-0.5-3.3-0.5-4.8,0c-0.5,0.2-1.1-0.1-1.2-0.7s0.1-1.1,0.7-1.2
	c2-0.6,4-0.6,6,0c0.5,0.2,0.8,0.7,0.7,1.2C156.4,128.7,156,129,155.6,129z"/>
<path class="st4" d="M154.2,132.1c0.1,0.8,0,1.5-0.4,1.6c-0.4,0.1-0.8-0.5-1-1.3c-0.1-0.8,0-1.5,0.4-1.6
	C153.6,130.7,154,131.3,154.2,132.1z"/>
<path class="st4" d="M168,132.4c0.1,0.8,0,1.5-0.4,1.6c-0.4,0.1-0.8-0.5-1-1.3c-0.1-0.8,0-1.5,0.4-1.6
	C167.4,131,167.8,131.5,168,132.4z"/>
<path class="st4" d="M162.5,144.6c-1.7,0-3.3-0.3-4.9-0.8l0.3-0.9c1.7,0.6,3.6,0.8,5.4,0.7c3.1-0.1,5.7-2.3,5.8-2.4l0.6,0.8
	c-0.1,0.1-3,2.4-6.3,2.6C163.1,144.6,162.8,144.6,162.5,144.6z"/>
<g>
	<path class="st4" d="M150.6,112.8c0,0,6.9,15.7,7.8,16.1c0.9,0.4,2.6-4.7,2.6-4.7s2.4,4.3,5.2,5.6c2.8,1.3,3.7-0.9,3.7-0.9
		c1.4,0.8,2.8,1.7,4.1,2.6l1.1,0.9l1.1,3.9c0,0-3.2,10.6-2.2,11.8c1.1,1.3,7.1-0.4,7.1-0.4s-1.5,2.2,0.4,2.2c1.9,0,5.4,0.4,10.3-6.2
		c4.9-6.7,5.4-17.4,5.4-17.4s2.4,2.6,2.6-0.6c0.2-3.2-2.8-8.6-2.8-8.6s4.7,4.7,4.3-0.2c-0.4-4.9-3.2-10.5-4.3-11.8s-7.5-5-7.5-5
		s2.6-0.4,0.7-3.4c-1.9-3-9-3.9-11.6-3.9c-2.6,0-8,0.9-8,0.9s3.4-6.7-0.2-7.1c-3.7-0.4-10.1,6.7-10.1,6.7s-6.4-5.2-8.4-4.1
		c-1.9,1.1-0.6,2.6-0.6,2.6s-8.4,0.6-10.8,4.3s0.4,5.8,0.4,5.8s-15.1,10.3-12.7,14.2c2.4,3.9,6.7,0.2,6.7,0.2s-6,15.5-5.2,16.6
		c0.9,1.1,5-0.4,5-0.4s-0.2,12.5,3,13.8c3.2,1.3,3.9-1.1,3.9-1.1s1.7,1.7,5.6,1.9c3.9,0.2,5.2-4.3,5.2-4.3s-4.3-10.1-4.1-18.5
		C148.3,115.5,150.6,112.8,150.6,112.8z"/>
	<path class="st4" d="M182.2,150.3c-0.1,0-0.3,0-0.4,0l-0.3,0c-0.8,0-1.2-0.4-1.3-0.6c-0.2-0.4-0.1-0.8,0-1.2c-2,0.5-5.6,1.2-6.6,0
		c-1.1-1.4,1.2-9.5,2-12.2l-1-3.6l-0.9-0.8c-1.1-0.8-2.4-1.6-3.6-2.3c-0.2,0.3-0.6,0.7-1.1,0.9c-0.8,0.3-1.8,0.2-2.9-0.3
		c-2.1-1-4-3.5-4.8-4.9c-0.6,1.5-1.5,3.7-2.3,4c-0.2,0.1-0.4,0.1-0.6,0c-0.8-0.4-4.5-8.5-7.6-15.5c-0.7,1.3-1.8,4.4-2,10.1
		c-0.2,8.2,4,18.2,4,18.3l0.1,0.2l0,0.2c0,0-1.5,4.9-5.7,4.7c-2.8-0.2-4.6-1.1-5.4-1.7c-0.2,0.3-0.5,0.7-1,0.9
		c-0.9,0.4-1.9,0.4-3.2-0.1c-3.1-1.2-3.3-10.7-3.3-13.5c-1.4,0.5-4,1.1-4.8,0c-0.8-1,1.9-8.7,4.5-15.6c-0.9,0.5-2.1,0.9-3.4,0.7
		c-1.1-0.2-2-0.8-2.7-2c-2.4-3.9,9.4-12.5,12.4-14.5c-0.8-0.9-2-3-0.1-6c2.1-3.2,8.2-4.2,10.4-4.5c-0.1-0.3-0.2-0.6-0.1-1
		c0.1-0.6,0.6-1.2,1.3-1.6c2-1.1,6.9,2.6,8.6,3.9c1.4-1.5,6.8-6.9,10.2-6.5c1.1,0.1,1.6,0.7,1.8,1.1c0.8,1.6-0.2,4.4-0.8,5.8
		c1.7-0.2,5.1-0.7,7.1-0.7c2,0,9.9,0.7,12,4.1c0.8,1.2,1,2.2,0.6,3c-0.1,0.3-0.4,0.6-0.6,0.8c1.8,1.1,5.9,3.5,6.8,4.6
		c1.1,1.3,4,7.1,4.4,12.1c0,0.5,0.2,2.2-0.9,2.7c-0.7,0.3-1.6,0-2.4-0.6c0.9,1.9,1.9,4.7,1.8,6.8c0,0.4-0.1,1.7-1,2
		c-0.6,0.2-1.1-0.1-1.6-0.4c-0.2,2.9-1.3,11.1-5.4,16.7C187.7,149.9,184.3,150.3,182.2,150.3z M182.2,146.8l-0.8,1.1
		c-0.3,0.4-0.5,1.1-0.4,1.3c0,0.1,0.2,0.1,0.5,0.1l0.3,0c1.9,0,5.1,0.1,9.6-6c4.8-6.5,5.3-17.1,5.3-17.2l0-1.2l0.8,0.9
		c0.4,0.5,1.1,0.9,1.3,0.8c0.1,0,0.3-0.4,0.4-1.1c0.2-3-2.7-8.3-2.7-8.3l-1.8-3.2l2.6,2.6c1,1,2.6,2.1,3.1,1.9
		c0.1,0,0.4-0.3,0.3-1.7c-0.4-4.8-3.1-10.3-4.2-11.6c-0.8-1-5.6-3.8-7.4-4.8l-1.2-0.7l1.4-0.2c0,0,0.7-0.1,0.9-0.6
		c0.2-0.5,0-1.2-0.6-2.1c-1.7-2.7-8.4-3.6-11.2-3.6c-2.5,0-7.8,0.8-7.9,0.9l-1,0.2l0.5-0.9c0.6-1.1,1.9-4.4,1.2-5.8
		c-0.2-0.4-0.5-0.6-1-0.6c-2.8-0.3-7.9,4.6-9.7,6.5l-0.3,0.3l-0.4-0.3c-2.6-2.1-6.7-4.7-7.8-4c-0.5,0.3-0.7,0.6-0.8,0.9
		c-0.1,0.5,0.3,0.9,0.3,0.9l0.6,0.7l-1,0.1c-0.1,0-8.2,0.7-10.4,4.1c-2.1,3.2,0.2,5.1,0.3,5.1l0.5,0.4L141,102
		c-5.7,3.9-14.1,11-12.6,13.5c0.5,0.9,1.2,1.4,2,1.5c1.9,0.3,3.9-1.4,3.9-1.4l1.5-1.3l-0.7,1.8c-2.8,7.2-5.5,15.2-5.2,16.1
		c0.3,0.4,2.6,0,4.4-0.7l0.7-0.3l0,0.7c-0.1,4.7,0.6,12.5,2.7,13.3c1,0.4,1.8,0.5,2.4,0.2c0.6-0.3,0.8-0.9,0.8-0.9l0.2-0.8l0.6,0.6
		c0,0,1.7,1.6,5.3,1.8c3.1,0.2,4.3-3,4.6-3.8c-0.6-1.4-4.3-10.6-4.1-18.5c0.2-8.5,2.6-11.4,2.7-11.5l0.5-0.6l0.3,0.7
		c2.4,5.5,6.4,14.4,7.4,15.8c0.4-0.5,1.3-2.3,2-4.3l0.4-1.1l0.6,1c0,0,2.3,4.2,4.9,5.4c0.8,0.4,1.5,0.5,2.1,0.3
		c0.6-0.3,0.9-0.8,0.9-0.8l0.2-0.5l0.5,0.3c1.4,0.8,2.8,1.7,4.1,2.6l1.2,1l1.2,4.2l0,0.1c-1.5,4.9-2.8,10.7-2.2,11.4
		c0.5,0.6,3.8,0.2,6.6-0.6L182.2,146.8z"/>
</g>
<path class="st8" d="M159.3,130.9c0,0-1.6,8.1-0.3,9.8c1.2,1.7,5.6,0,5.9-0.9"/>
<path class="st4" d="M160.8,141.9c-1,0-1.8-0.3-2.2-0.9c-1.3-1.8,0.1-9.3,0.2-10.2l1,0.2c-0.6,3-1.2,8.3-0.4,9.4
	c0.4,0.6,1.3,0.6,1.9,0.5c1.6-0.2,3-1,3.1-1.3l0.9,0.3c-0.3,0.8-2.2,1.7-3.7,1.9C161.4,141.9,161.1,141.9,160.8,141.9z"/>
<path class="st4" d="M152.9,136.3c-3.7,0-6.6-2.2-6.6-5s3-5,6.6-5s6.6,2.2,6.6,5S156.5,136.3,152.9,136.3z M152.9,127.4
	c-3.1,0-5.6,1.8-5.6,4s2.5,4,5.6,4c3.1,0,5.6-1.8,5.6-4S156,127.4,152.9,127.4z"/>
<path class="st4" d="M167.6,136c-3.7,0-6.6-2.2-6.6-5s3-5,6.6-5s6.6,2.2,6.6,5S171.3,136,167.6,136z M167.6,127
	c-3.1,0-5.6,1.8-5.6,4s2.5,4,5.6,4c3.1,0,5.6-1.8,5.6-4S170.7,127,167.6,127z"/>
<path class="st4" d="M161.1,131.4c-0.6-0.7-1.3-0.2-1.5-0.1l-0.6-0.8c0.6-0.4,1.9-0.9,2.8,0.2L161.1,131.4z"/>
<g>
	<path class="st8" d="M108.3,216.7c0,0,7.8-2.2,10.2-2.6c2.4-0.4,7.2,4,8,6.4c0.8,2.4-0.2,2.9-0.2,2.9l-16-0.5L108.3,216.7z"/>
	<path class="st4" d="M126.3,223.9l-0.1,0l-16.3-0.5l-2.3-7l0.5-0.1c0.3-0.1,7.8-2.2,10.2-2.6c2.7-0.5,7.7,4.2,8.5,6.7
		c0.9,2.7-0.3,3.5-0.5,3.5L126.3,223.9z M110.6,222.4l15.4,0.5c0.1-0.2,0.4-0.8-0.1-2.3c-0.8-2.3-5.4-6.4-7.4-6.1
		c-2,0.3-7.9,2-9.6,2.4L110.6,222.4z"/>
</g>
<g>
	<path class="st8" d="M111.1,215.9c0,0,5.9,2.2,7.3,3.1c1.5,0.9,1,2.6,0.1,3.5c-1.1,0.9-2.3,1.5-3.7,1.8c-1.4,0.1-2.7,0.1-4.1,0
		c-1.8-0.1-3.4,0.1-4.8,0.1c-1.5,0-5.9-0.4-5.9-0.4l-1.3-0.9c0,0-2.5,0.7-4.4,1.5s-1.3-0.9,0.1-2.1c1.5-1.2,5.1-4.1,5.7-4.4
		c0.6-0.3,8.1-2.5,8.1-2.5L111.1,215.9z"/>
	<path class="st4" d="M93.6,225.3c-0.4,0-0.6-0.1-0.8-0.4c-0.4-0.7,0.4-1.9,1.4-2.7c3.6-2.9,5.4-4.2,5.8-4.5
		c0.6-0.3,6.9-2.1,8.2-2.5l0.1,0l3,0.3c0.2,0.1,5.9,2.2,7.4,3.1c0.7,0.4,1.1,1,1.2,1.8c0.1,0.9-0.3,1.9-0.9,2.5
		c-1.2,1-2.5,1.6-3.9,1.9c-1.5,0.1-2.9,0.1-4.2,0c-1.1-0.1-2.1,0-3,0.1c-0.6,0-1.2,0.1-1.8,0.1c-1.5,0-5.7-0.4-5.9-0.4l-0.1,0
		l-1.2-0.8c-0.6,0.2-2.6,0.8-4.1,1.4C94.2,225.2,93.8,225.3,93.6,225.3z M108.4,216.2c-2.9,0.8-7.5,2.2-7.9,2.4
		c-0.2,0.1-1.2,0.8-5.6,4.3c-0.7,0.5-1,1.1-1.1,1.4c0.1,0,0.3-0.1,0.5-0.1c1.9-0.8,4.4-1.5,4.4-1.5l0.2-0.1l1.4,0.9
		c0.7,0.1,4.4,0.4,5.7,0.4c0.6,0,1.1,0,1.7-0.1c1-0.1,2-0.2,3.2-0.1c1.3,0.1,2.7,0.1,4,0c1.2-0.2,2.4-0.8,3.4-1.7
		c0.4-0.4,0.7-1.1,0.6-1.7c-0.1-0.4-0.3-0.8-0.7-1c-1.3-0.8-6.6-2.8-7.2-3L108.4,216.2z"/>
</g>
<path class="st8" d="M113.3,216.5c0,0-3.8-1.8-4.9-1.8s-8.4,2.5-9.4,3.2c-1,0.7-2.1,7.8-1.3,8.2c0.7,0.4,1.3-0.9,1.5-1.8
	c0.2-0.9,2.2-5.6,2.2-5.6l-1.5,7.5c0,0,0.6,1.2,1.2,0.1c0.6-1,4.3-8.1,4.6-8.5c0.4-0.4,0.8-0.8,1.3-1c0,0-0.7,3.2-1.3,6.3
	c-0.6,3.1-0.1,4,0.7,4.1c0.9,0.1,1.3-1.9,1.8-2.9c0.4-1,2.4-6.9,2.4-6.9"/>
<path class="st4" d="M106.5,227.9c-0.1,0-0.1,0-0.2,0c-0.4-0.1-0.8-0.3-1-0.6c-0.5-0.7-0.5-2-0.1-4.1c0.4-1.9,0.8-3.8,1-5
	c-0.1,0.1-0.1,0.1-0.2,0.2c-0.1,0.2-1.3,2.5-2.3,4.4c-1,1.8-1.9,3.6-2.2,4c-0.3,0.6-0.7,0.7-1,0.7c-0.6,0-1-0.7-1.1-0.8l-0.1-0.2
	l0.5-2.6c-0.1,0.3-0.2,0.6-0.2,0.7c-0.1,0.6-0.5,1.8-1.3,2.2c-0.3,0.1-0.7,0.1-1-0.1c-0.3-0.2-0.4-0.6-0.5-1.3
	c-0.1-1.8,0.6-6.9,1.8-7.7c0.4-0.3,1.7-0.8,3.3-1.4l0.8-1.8l-0.3,1.6c2.4-0.9,5.2-1.7,5.9-1.7c1.1,0,4.4,1.5,5.1,1.8l-0.4,0.9
	c-1.4-0.7-4-1.7-4.6-1.7c-0.5,0-3.7,1-6.2,1.9l-1.8,9.1c0,0.1,0.1,0.1,0.1,0.1c0,0,0-0.1,0.1-0.1c0.3-0.5,1.2-2.3,2.1-4
	c1.4-2.7,2.3-4.3,2.4-4.5c0.5-0.5,1-0.9,1.5-1.2l1-0.5l-0.2,1.1c0,0-0.7,3.3-1.3,6.3c-0.4,2.2-0.3,3,0,3.3c0.1,0.1,0.2,0.2,0.4,0.2
	c0.2,0,0.5-0.6,0.9-1.8c0.1-0.3,0.2-0.6,0.3-0.9c0.4-1,2.3-6.8,2.3-6.9l1,0.3c-0.1,0.2-1.9,5.9-2.4,7c-0.1,0.2-0.2,0.5-0.3,0.8
	C107.9,226.6,107.5,227.9,106.5,227.9z M98.1,225.9L98.1,225.9L98.1,225.9z M101.5,217.4c-1,0.4-1.9,0.8-2.2,1
	c-0.7,0.5-1.7,6.2-1.3,7.4c0.2-0.1,0.6-0.7,0.7-1.4c0.2-0.9,2-5.2,2.2-5.7L101.5,217.4z"/>
<g>
	<path class="st8" d="M117.6,219.5c0,0-4.4,4.6-5,5.6c-0.6,1-0.6,1.2,1,1.2c1.6,0,6.6-3.2,7-3.7c0.4-0.4,0.3-1.8-0.7-2.6
		c-0.3-0.3-0.7-0.4-1.1-0.5C118.4,219.3,118,219.3,117.6,219.5z"/>
	<path class="st4" d="M113.6,226.7c-0.9,0-1.5,0-1.8-0.5c-0.3-0.4,0-0.9,0.3-1.4c0.6-1.1,4.6-5.2,5.1-5.7l0.1-0.1l0.1,0
		c0.5-0.1,1-0.2,1.5-0.1c0.5,0.1,1,0.3,1.3,0.6c0.7,0.6,1.1,1.4,1.2,2.2c0,0.5-0.1,0.9-0.4,1.2C120.5,223.4,115.4,226.7,113.6,226.7
		z M112.8,225.7c0.2,0,0.4,0,0.8,0c1.4,0,6.3-3.1,6.7-3.5c0,0,0.1-0.2,0.1-0.4c0-0.4-0.2-1-0.8-1.5c-0.2-0.2-0.6-0.3-0.9-0.4
		c-0.3-0.1-0.6,0-0.9,0c-1.3,1.3-4.4,4.6-4.8,5.4C112.9,225.4,112.8,225.5,112.8,225.7z"/>
</g>
<g>
	<path class="st8" d="M145.1,219c0,0-5.9,1.9-7.3,3c-1.4,1.1-3.5,2.3-3.1,2.6c0.5,0.4,1.9,0,2.4-0.4c0.5-0.4,2.5-0.7,2.5-0.7
		s2.4-1.4,4.3-2.6C145.8,219.7,147.2,218.4,145.1,219z"/>
	<path class="st4" d="M135.3,225.2c-0.4,0-0.7-0.1-0.9-0.3c-0.2-0.1-0.3-0.3-0.3-0.5c0-0.6,0.7-1,2.1-2c0.4-0.3,0.8-0.6,1.2-0.8
		c1.5-1.1,7.2-3,7.5-3l0,0c0.5-0.1,1.4-0.4,1.7,0.3c0.1,0.3,0.3,0.8-2.4,2.5c-1.9,1.2-4.3,2.6-4.3,2.6l-0.2,0.1
		c-0.9,0.2-2.1,0.5-2.3,0.6C137,224.9,136.1,225.2,135.3,225.2z M145,219.5c-1.8,0.6-5.9,2-6.9,2.8c-0.4,0.3-0.8,0.6-1.2,0.9
		c-0.4,0.3-1,0.7-1.4,1c0.4,0,1.1-0.2,1.3-0.4c0.5-0.4,2.1-0.7,2.7-0.8c0.4-0.3,2.6-1.5,4.3-2.6C144.2,220.1,144.6,219.8,145,219.5z
		"/>
</g>
<g>
	<path class="st8" d="M177.5,209c0,0-16.4,3-22.3,5.1c-5.9,2.1-8.3,3.5-11.2,5.6c-3,2.1-9,6-8.1,6.7c0.9,0.7,4-1.7,4.5-2.3
		c0.5-0.5,4.3-2.1,4.3-2.1l2.6-1.3c0,0-3.9,4.7-5.2,6c-1.4,1.2-0.5,2,0.6,1.6c1-0.3,3-2.4,3-2.4l6.4-4.2c0,0-2.6,3.7-3.8,4.7
		c-1.2,1,1.4,1.9,1.9,1s3.1-3.1,3.1-3.1s4.4-2.3,5.4-3.1c1-0.9,3.7-3.3,3.7-3.3l19.5,1.6c0,0,1.2-0.7,0.5-4.7
		C181.7,210.7,177.5,209,177.5,209z"/>
	<path class="st4" d="M142.2,228.9c-0.5,0-0.9-0.2-1.2-0.6c-0.2-0.3-0.4-1,0.7-2c0.8-0.7,2.4-2.6,3.6-4l-0.4,0.2
		c-1.8,0.8-3.9,1.7-4.2,2c0,0-3.8,3.4-5.2,2.3c-0.2-0.1-0.3-0.4-0.3-0.6c0-1,2.2-2.6,7-6c0.5-0.4,1-0.7,1.4-1
		c2.9-2,5.2-3.5,11.4-5.7c5.9-2.1,21.7-5,22.4-5.1l0.1,0l0.1,0.1c0.2,0.1,4.4,1.9,5.2,6.1c0.7,4.1-0.5,5.1-0.8,5.2L182,220
		l-19.4-1.6c-0.6,0.5-2.6,2.4-3.5,3.2c-1,0.9-4.9,2.9-5.4,3.2c-0.7,0.6-2.6,2.3-3,3c-0.3,0.5-0.9,0.7-1.6,0.6
		c-0.6-0.1-1.4-0.4-1.6-1c-0.1-0.2-0.1-0.7,0.5-1.2c0.5-0.4,1.3-1.4,2-2.3l-3.9,2.6c-0.3,0.4-2.1,2.2-3.2,2.5
		C142.6,228.9,142.4,228.9,142.2,228.9z M149.2,219.2l-1.5,1.8c-0.2,0.2-3.9,4.8-5.3,6c-0.5,0.4-0.5,0.7-0.5,0.7c0,0,0.3,0.1,0.6,0
		c0.7-0.2,2.1-1.5,2.8-2.3l0.1-0.1l8.6-5.7l-1.6,2.2c-0.1,0.2-2.7,3.7-3.9,4.8c-0.1,0.1-0.1,0.2-0.1,0.2c0,0.1,0.3,0.3,0.7,0.3
		c0.3,0,0.5,0,0.6-0.1c0.6-0.9,3-3,3.2-3.3l0.1-0.1c0,0,4.3-2.2,5.3-3.1c1-0.9,3.6-3.3,3.6-3.3l0.2-0.2l19.5,1.6
		c0.2-0.3,0.7-1.3,0.2-4.1c-0.6-3.3-3.8-5-4.4-5.3c-1.7,0.3-16.5,3.1-22.1,5c-6,2.1-8.3,3.6-11.1,5.6c-0.4,0.3-0.9,0.6-1.4,1
		c-1.9,1.3-5.7,4-6.4,5c0.7-0.1,2.8-1.4,3.7-2.3c0.6-0.5,3.6-1.8,4.5-2.2L149.2,219.2z"/>
</g>
<path class="st5" d="M190.7,178.2l9.6,23.7l-15.5,5.4l4.4,12.7c0,0,11.1,0,19.8-0.5c8.7-0.5,14.8-5.8,13.4-12
	c-1.4-6.3-6.6-15.3-10.8-26.1c-4.2-10.8-2.9-17.2-4.8-20.5c-1.9-3.3-7.3-4.2-7.3-4.2l-3-0.5"/>
<path class="st11" d="M221,214v-2.5h1.3c0.1-0.2,0.1-0.3,0.1-0.5H221v-6.2h0.7c-0.1-0.2-0.1-0.3-0.2-0.5H221v-1.5
	c-0.2-0.4-0.3-0.8-0.5-1.3v2.8h-5.2v-6.2h3.7c-0.1-0.2-0.1-0.3-0.2-0.5h-3.5v-6.2h0.7c-0.1-0.2-0.2-0.3-0.2-0.5h-0.5v-1
	c-0.2-0.4-0.3-0.7-0.5-1.1v2.1h-5.2v-6.2h3.5c-0.1-0.2-0.1-0.3-0.2-0.5h-3.3v-6.2h0.9c-0.1-0.2-0.1-0.3-0.2-0.5h-0.8v-2.8
	c-0.2-0.8-0.4-1.5-0.5-2.3v5.1h-5.2v-6.2h5l-0.1-0.5h-4.9v-6.2h4.1l-0.1-0.5h-4v-6.1c-0.4-0.2-0.9-0.4-1.3-0.6h-4.4v-1.1l-0.5-0.1
	v1.2h-1.5l-0.1,0.5h1.6v6.2h-3.2l-0.1,0.5h3.4v6.2h-5l-0.1,0.5h5.1v6.2h-5.2v-5.9l-0.5,1.9v4h-1.1l-0.1,0.5h1.2v3.1l0.5,1.2v-4.3
	h5.2v6.2h-4.5l0.2,0.5h4.3v6.2h-1.7l0.2,0.5h1.6v3.9l0.5,1.2v-5.1h5.2v6.2h-4.8l0.2,0.5h4.6v6.2h-5.2v-1.7l-0.5,0.2v1.5h-4.4
	l-1.4,0.5h0.2v6.2h-5.2v-4.5l-0.5,0.2v4.3h-0.1l0.6,1.9v-1.4h5.2v8.4h0.5v-8.4h5.2v8.4h0.5v-8.4h5.2v8.2h0.5v-8.2h5.2v7.9l0.5,0
	v-7.9h5.2v6.8l0.5-0.2v-6.6h5.2v3.1C220.6,214.4,220.8,214.2,221,214z M197.7,211.1h-5.2v-6.2h5.2V211.1z M203.4,211.1h-5.2v-6.2
	h5.2V211.1z M203.4,191h-5.2v-6.2h5.2V191z M203.4,184.3h-5.2v-6.2h5.2V184.3z M203.4,177.6h-5.2v-6.2h5.2V177.6z M203.4,170.9h-5.2
	v-6.2h5.2V170.9z M203.4,164.2h-5.2V158h5.2V164.2z M209.1,211.1h-5.2v-6.2h5.2V211.1z M209.1,204.4h-5.2v-6.2h5.2V204.4z
	 M209.1,197.7h-5.2v-6.2h5.2V197.7z M209.1,191h-5.2v-6.2h5.2V191z M209.1,184.3h-5.2v-6.2h5.2V184.3z M214.8,211.1h-5.2v-6.2h5.2
	V211.1z M214.8,204.4h-5.2v-6.2h5.2V204.4z M214.8,197.7h-5.2v-6.2h5.2V197.7z M215.3,211.1v-6.2h5.2v6.2L215.3,211.1z"/>
<path class="st4" d="M189.4,220.5c-0.2,0-0.3,0-0.3,0l-0.4,0l-4.6-13.5l15.5-5.4l-9.4-23.2l0.9-0.4l9.8,24.2l-15.5,5.4l4.1,11.9
	c2,0,11.7,0,19.5-0.5c5-0.3,9.3-2.3,11.6-5.2c1.4-1.9,1.9-4,1.4-6.2c-0.8-3.6-2.9-8.2-5.3-13.4c-1.7-3.8-3.7-8.1-5.5-12.6
	c-2.4-6.3-3-11.2-3.5-14.7c-0.3-2.6-0.5-4.4-1.3-5.7c-1.8-3.1-6.9-3.9-7-3.9l-3-0.5l0.2-1l3,0.5c0.2,0,5.7,1,7.7,4.4
	c0.9,1.5,1.1,3.4,1.4,6.1c0.4,3.5,1,8.3,3.4,14.5c1.7,4.5,3.7,8.8,5.4,12.6c2.4,5.3,4.6,9.9,5.4,13.6c0.6,2.5,0,4.9-1.6,7
	c-2.4,3.2-7,5.3-12.3,5.6C201.2,220.5,191.2,220.5,189.4,220.5z"/>
<path class="st4" d="M196.8,203.6l3.2-2.1c0.3-0.2,6.8-4.4,10.5-4.8l0.1,1c-1.8,0.2-4.4,1.4-6.5,2.5c1.8-0.5,3.6-0.9,5.5-1.2l0.2,1
	c-3.1,0.6-6.2,1.4-9.3,2.4L196.8,203.6z"/>
<path class="st4" d="M214,199.7c-0.7-0.1-1.3-0.1-2-0.1l-0.1-1c0.7-0.1,1.5,0,2.2,0.1L214,199.7z"/>
<g>
	<path class="st4" d="M189.3,205.3c0,0,3.5,3.4,4.6,6c1,2.6,0.7,9.7,0,10.4c-0.7,0.7-13.7,0.6-15.8-2.1c-0.6-0.7,3.2-2.3,1.3-6.1
		c-1.9-3.8-2.8-4.2-2.8-4.2s-1.6-0.9,1.4-2.8C181,204.6,187.8,203.3,189.3,205.3z"/>
	<path class="st4" d="M190.2,222.6c-1.4,0-2.7-0.1-2.8-0.1c-3-0.2-8.3-0.7-9.7-2.5c-0.4-0.5,0-1.1,0.5-1.6c0.8-1,1.9-2.3,0.8-4.6
		c-1.7-3.4-2.5-3.9-2.6-4c-0.1,0-0.7-0.4-0.7-1.1c0-0.8,0.6-1.6,2-2.5c2.9-1.9,10.1-3.5,12-1.1c0.4,0.3,3.6,3.5,4.7,6.1
		c1.1,2.7,0.8,10-0.1,10.9C193.8,222.5,191.9,222.6,190.2,222.6z M178.6,219.5c2.1,2.2,13.8,2.5,15,1.9c0.4-0.6,0.9-7.2-0.1-9.8
		c-1-2.5-4.4-5.8-4.4-5.8l-0.1-0.1c-1.3-1.7-7.6-0.6-10.6,1.3c-1.5,1-1.6,1.5-1.6,1.7c0,0.2,0.2,0.3,0.2,0.3c0.2,0.1,1.1,0.7,3,4.4
		c1.4,2.9-0.1,4.7-0.9,5.7C178.8,219.1,178.7,219.3,178.6,219.5z"/>
</g>
<g>
	<path class="st4" d="M220.2,232.2h-12.9l-1.6-25.4h16.1L220.2,232.2z"/>
	<path class="st4" d="M220.2,232.7h-12.9c-0.3,0-0.5-0.2-0.5-0.5l-1.6-25.4c0-0.1,0-0.3,0.1-0.4c0.1-0.1,0.2-0.2,0.4-0.2h16.1
		c0.1,0,0.3,0.1,0.4,0.2c0.1,0.1,0.1,0.2,0.1,0.4l-1.6,25.4C220.7,232.5,220.5,232.7,220.2,232.7z M207.8,231.7h11.9l1.5-24.4h-15
		L207.8,231.7z"/>
</g>
<g>
	<path class="st5" d="M222.5,206.8H205v3.7h17.5V206.8z"/>
	<path class="st4" d="M222.5,211H205c-0.3,0-0.5-0.2-0.5-0.5v-3.7c0-0.3,0.2-0.5,0.5-0.5h17.5c0.3,0,0.5,0.2,0.5,0.5v3.7
		C223,210.8,222.8,211,222.5,211z M205.5,210H222v-2.7h-16.5V210z"/>
</g>
<g>
	<path class="st5" d="M222.5,207H205l1.7-2.2h14L222.5,207z"/>
	<path class="st4" d="M222.5,207.5H205c-0.2,0-0.4-0.1-0.5-0.3c-0.1-0.2-0.1-0.4,0.1-0.5l1.7-2.2c0.1-0.1,0.2-0.2,0.4-0.2h14
		c0.2,0,0.3,0.1,0.4,0.2l1.8,2.2c0.1,0.2,0.1,0.4,0.1,0.5C222.9,207.4,222.7,207.5,222.5,207.5z M206.1,206.5h15.4l-1-1.2H207
		L206.1,206.5z"/>
</g>
<g>
	<path class="st5" d="M220.7,224.7l0.6-10.1h-15.1l0.6,10.1H220.7z"/>
	<path class="st4" d="M220.7,225.2h-13.8c-0.3,0-0.5-0.2-0.5-0.5l-0.6-10.1c0-0.1,0-0.3,0.1-0.4c0.1-0.1,0.2-0.2,0.4-0.2h15.1
		c0.1,0,0.3,0.1,0.4,0.2c0.1,0.1,0.1,0.2,0.1,0.4l-0.6,10.1C221.2,225,221,225.2,220.7,225.2z M207.4,224.2h12.9l0.6-9.1h-14
		L207.4,224.2z"/>
</g>
<g>
	<path class="st4" d="M146.1,233.9l15.8-4.2v2.1l-15.8,4.4V233.9z"/>
	<path class="st4" d="M146.1,236.8c-0.1,0-0.2,0-0.3-0.1c-0.1-0.1-0.2-0.2-0.2-0.4v-2.4c0-0.2,0.2-0.4,0.4-0.5l15.8-4.2
		c0.1,0,0.3,0,0.4,0.1c0.1,0.1,0.2,0.2,0.2,0.4v2.1c0,0.2-0.1,0.4-0.4,0.5l-15.8,4.4C146.2,236.8,146.2,236.8,146.1,236.8z
		 M146.6,234.3v1.4l14.8-4.2v-1.1L146.6,234.3z"/>
</g>
<g>
	<path class="st5" d="M162,229.7H79.1l-16,4.2h83L162,229.7z"/>
	<path class="st4" d="M146.1,234.4h-83c-0.3,0-0.5-0.2-0.5-0.4c0-0.2,0.1-0.5,0.4-0.5l16-4.2c0,0,0.1,0,0.1,0H162
		c0.3,0,0.5,0.2,0.5,0.4s-0.1,0.5-0.4,0.5l-15.8,4.2C146.2,234.4,146.2,234.4,146.1,234.4z M67,233.4h79l12.1-3.2H79.2L67,233.4z"/>
</g>
<g>
	<path class="st5" d="M146.1,186h-83v50.3h83V186z"/>
	<path class="st4" d="M146.1,236.8h-83c-0.3,0-0.5-0.2-0.5-0.5V186c0-0.3,0.2-0.5,0.5-0.5h83c0.3,0,0.5,0.2,0.5,0.5v50.3
		C146.6,236.6,146.4,236.8,146.1,236.8z M63.6,235.8h82v-49.3h-82V235.8z"/>
</g>
<g>
	<path class="st4" d="M146.1,193.3c-18.1,0.9-28.8,17.5-44.8,28.6c-14.6,10.2-32.5,11.9-38.2,12.2v2.2h83V193.3z"/>
	<path class="st4" d="M146.1,236.8h-83c-0.3,0-0.5-0.2-0.5-0.5v-2.2c0-0.3,0.2-0.5,0.5-0.5c5.2-0.3,23.3-1.9,37.9-12.1
		c5-3.5,9.5-7.5,13.8-11.4c9.6-8.6,18.7-16.7,31.2-17.3c0.1,0,0.3,0,0.4,0.1c0.1,0.1,0.2,0.2,0.2,0.4v43
		C146.6,236.6,146.4,236.8,146.1,236.8z M63.7,235.8h82v-42c-12,0.8-20.8,8.7-30.1,17.1c-4.4,3.9-8.9,8-13.9,11.5
		c-14.4,10.1-32.2,11.9-38,12.2V235.8z"/>
</g>
<g>
	<path class="st5" d="M146.1,233.9h-83v2.4h83V233.9z"/>
	<path class="st4" d="M146.6,236.8h-84v-3.4h84V236.8z M63.6,235.8h82v-1.4h-82V235.8z"/>
</g>
<g>
	<path class="st5" d="M38.6,217.3c0,0-6.9-11.1-1.4-17.3c5.6-6.2,14.5-3.2,16.4,2.5c1.8,5.8-2.1,15.4-2.1,15.4L38.6,217.3z"/>
	<path class="st4" d="M51.5,218.5C51.5,218.5,51.5,218.5,51.5,218.5l-13-0.7c-0.2,0-0.3-0.1-0.4-0.2c-0.3-0.5-7-11.5-1.3-17.9
		c2.6-2.9,6.3-4.2,10-3.4c3.4,0.7,6.3,3.1,7.2,6.1c1.9,5.9-1.9,15.4-2.1,15.8C51.9,218.4,51.7,218.5,51.5,218.5z M38.9,216.8
		l12.3,0.7c0.7-1.7,3.5-9.8,1.9-14.8c-0.9-2.6-3.4-4.8-6.5-5.4c-3.4-0.7-6.7,0.4-9,3.1C32.8,205.8,37.9,215.3,38.9,216.8z"/>
</g>
<path class="st5" d="M38.8,204.6c-1.2,0-5.5-1.6-6.9-3.7c-1.4-2.1-1.6-6.7,2.3-6.7c3.9,0,5.3,6.9,5.3,6.9l0.2,2.5"/>
<path class="st4" d="M38.8,205.1c-1.4,0-5.9-1.7-7.3-3.9c-1-1.5-1.4-4-0.5-5.7c0.4-0.8,1.3-1.8,3.2-1.8c4.3,0,5.7,7,5.8,7.3l0.2,2.6
	c0,0.3-0.2,0.5-0.5,0.5c-0.3,0-0.5-0.2-0.5-0.5l-0.2-2.5c0,0-1.3-6.5-4.8-6.5c-1.1,0-1.9,0.4-2.3,1.2c-0.7,1.3-0.3,3.5,0.5,4.7
	c1.3,1.9,5.5,3.5,6.5,3.5c0.3,0,0.5,0.2,0.5,0.5S39.1,205.1,38.8,205.1z"/>
<path class="st5" d="M42.3,200.3c-1-0.5-4.2-3.9-4.5-6.4c-0.3-2.5,1.5-6.7,5-5c3.5,1.7,1.7,8.6,1.7,8.6l-0.9,2.4"/>
<path class="st4" d="M42.3,200.8c-0.1,0-0.1,0-0.2,0c-1.2-0.6-4.5-4.1-4.8-6.8c-0.2-1.7,0.5-4.2,2.1-5.3c0.7-0.5,2-1,3.7-0.1
	c3.8,1.9,2,8.8,1.9,9.1l-0.9,2.4c-0.1,0.3-0.4,0.4-0.6,0.3c-0.3-0.1-0.4-0.4-0.3-0.6l0.9-2.4c0,0,1.7-6.4-1.4-7.9
	c-1-0.5-1.9-0.5-2.6,0.1c-1.2,0.9-1.9,3-1.7,4.4c0.3,2.3,3.4,5.6,4.3,6c0.2,0.1,0.4,0.4,0.2,0.7C42.7,200.7,42.5,200.8,42.3,200.8z"
	/>
<path class="st5" d="M46.5,201.5c-0.6-1-1.3-5.6-0.2-7.8c1.1-2.2,5-4.7,6.9-1.3c1.9,3.4-3.4,8-3.4,8l-2.1,1.5"/>
<path class="st4" d="M47.8,202.3c-0.2,0-0.3-0.1-0.4-0.2c-0.2-0.2-0.1-0.5,0.1-0.7l2.1-1.5c0,0,4.9-4.4,3.2-7.4
	c-0.6-1-1.3-1.4-2.2-1.4c-1.5,0-3.2,1.4-3.8,2.7c-1,2.1-0.3,6.5,0.2,7.4c0.1,0.2,0.1,0.5-0.2,0.7c-0.2,0.1-0.5,0.1-0.7-0.2
	c-0.7-1.1-1.4-6-0.3-8.3c0.8-1.6,2.7-3.2,4.7-3.3c0.9,0,2.2,0.3,3.1,1.9c2.1,3.7-3.2,8.5-3.5,8.7l-2.1,1.5
	C48,202.3,47.9,202.3,47.8,202.3z"/>
<path class="st5" d="M47.9,209.7c-0.2-1.1,0.7-5.7,2.5-7.4c1.8-1.7,6.3-2.7,7,1.2c0.6,3.9-6,6.4-6,6.4l-2.5,0.6"/>
<path class="st4" d="M48.9,211c-0.2,0-0.4-0.1-0.5-0.4c-0.1-0.3,0.1-0.5,0.4-0.6l2.5-0.6c0,0,6.2-2.4,5.6-5.8
	c-0.2-1.1-0.7-1.8-1.6-2.1c-1.4-0.5-3.5,0.2-4.5,1.2c-1.7,1.6-2.5,6-2.3,7c0,0.3-0.1,0.5-0.4,0.6c-0.3,0-0.5-0.1-0.6-0.4
	c-0.2-1.3,0.7-6.1,2.6-7.9c1.3-1.2,3.7-2.1,5.5-1.4c0.9,0.3,2,1,2.3,2.9c0.7,4.2-6,6.8-6.3,6.9L49,211C49,211,49,211,48.9,211z"/>
<path class="st5" d="M33.2,199.9c-0.2,0-0.3-0.1-0.4-0.2l-0.8-1.2c-0.1-0.2-0.1-0.5,0.2-0.7c0.2-0.1,0.5-0.1,0.7,0.2l0.8,1.2
	c0.1,0.2,0.1,0.5-0.2,0.7C33.3,199.9,33.3,199.9,33.2,199.9z"/>
<path class="st5" d="M35.8,202.7c-0.1,0-0.2,0-0.3-0.1l-1.2-1c-0.2-0.2-0.2-0.5-0.1-0.7c0.2-0.2,0.5-0.2,0.7-0.1l1.2,1
	c0.2,0.2,0.2,0.5,0.1,0.7C36.1,202.6,36,202.7,35.8,202.7z"/>
<path class="st5" d="M34.5,198.1c-0.2,0-0.3-0.1-0.4-0.2l-1.2-1.8c-0.2-0.2-0.1-0.5,0.1-0.7c0.2-0.2,0.5-0.1,0.7,0.1l1.2,1.8
	c0.2,0.2,0.1,0.5-0.1,0.7C34.7,198.1,34.6,198.1,34.5,198.1z"/>
<path class="st5" d="M37.5,202c-0.2,0-0.3-0.1-0.4-0.3l-1.3-2.4c-0.1-0.2,0-0.5,0.2-0.7c0.2-0.1,0.5,0,0.7,0.2l1.3,2.4
	c0.1,0.2,0,0.5-0.2,0.7C37.7,202,37.6,202,37.5,202z"/>
<path class="st5" d="M39.7,195c-0.2,0-0.4-0.1-0.5-0.3l-0.4-1.3c-0.1-0.3,0.1-0.5,0.3-0.6c0.3-0.1,0.5,0.1,0.6,0.3l0.4,1.3
	c0.1,0.3-0.1,0.5-0.3,0.6C39.8,195,39.8,195,39.7,195z"/>
<path class="st5" d="M41.6,198.6c-0.2,0-0.3-0.1-0.4-0.2l-0.8-1.1c-0.2-0.2-0.1-0.5,0.1-0.7c0.2-0.2,0.5-0.1,0.7,0.1l0.8,1.1
	c0.2,0.2,0.1,0.5-0.1,0.7C41.8,198.5,41.7,198.6,41.6,198.6z"/>
<path class="st5" d="M41.5,193.2c-0.2,0-0.4-0.1-0.5-0.3l-1-2.2c-0.1-0.3,0-0.5,0.3-0.7c0.3-0.1,0.5,0,0.7,0.3l1,2.2
	c0.1,0.3,0,0.5-0.3,0.7C41.6,193.2,41.6,193.2,41.5,193.2z"/>
<path class="st5" d="M36.9,208.7c-0.2,0-0.5-0.2-0.5-0.4l-0.3-2c0-0.3,0.1-0.5,0.4-0.6c0.3,0,0.5,0.1,0.6,0.4l0.3,2
	C37.5,208.4,37.3,208.6,36.9,208.7C37,208.7,37,208.7,36.9,208.7z"/>
<path class="st5" d="M38.1,212.2c-0.2,0-0.4-0.1-0.5-0.4l-0.4-1.7c-0.1-0.3,0.1-0.5,0.4-0.6c0.3-0.1,0.5,0.1,0.6,0.4l0.4,1.7
	c0.1,0.3-0.1,0.5-0.4,0.6C38.1,212.2,38.1,212.2,38.1,212.2z"/>
<path class="st5" d="M39.2,209c-0.2,0-0.4-0.2-0.5-0.4l-0.4-2.2c-0.1-0.3,0.1-0.5,0.4-0.6c0.3-0.1,0.5,0.1,0.6,0.4l0.4,2.2
	C39.7,208.7,39.5,208.9,39.2,209C39.2,209,39.2,209,39.2,209z"/>
<path class="st5" d="M40.5,212.2c-0.2,0-0.4-0.2-0.5-0.4l-0.3-1.7c-0.1-0.3,0.1-0.5,0.4-0.6c0.3-0.1,0.5,0.1,0.6,0.4l0.3,1.7
	C41,211.9,40.9,212.2,40.5,212.2C40.6,212.2,40.5,212.2,40.5,212.2z"/>
<path class="st5" d="M41.6,207c-0.2,0-0.4-0.2-0.5-0.4l-0.7-3.1c-0.1-0.3,0.1-0.5,0.4-0.6c0.3-0.1,0.5,0.1,0.6,0.4l0.7,3.1
	c0.1,0.3-0.1,0.5-0.4,0.6C41.7,207,41.6,207,41.6,207z"/>
<path class="st5" d="M42.6,211.5c-0.3,0-0.5-0.2-0.5-0.5l-0.1-1.4c0-0.3,0.2-0.5,0.5-0.5c0.3,0,0.5,0.2,0.5,0.5l0.1,1.4
	C43.1,211.2,42.9,211.4,42.6,211.5C42.6,211.5,42.6,211.5,42.6,211.5z"/>
<path class="st5" d="M44.3,205.8c-0.2,0-0.4-0.2-0.5-0.4l-0.6-2.9c-0.1-0.3,0.1-0.5,0.4-0.6c0.3,0,0.5,0.1,0.6,0.4l0.6,2.9
	C44.8,205.5,44.6,205.7,44.3,205.8C44.3,205.8,44.3,205.8,44.3,205.8z"/>
<path class="st5" d="M44.5,211.8c-0.3,0-0.5-0.2-0.5-0.5l-0.2-3c0-0.3,0.2-0.5,0.5-0.5c0.3,0,0.5,0.2,0.5,0.5l0.2,3
	C45,211.5,44.8,211.8,44.5,211.8C44.5,211.8,44.5,211.8,44.5,211.8z"/>
<path class="st5" d="M47,206.4c-0.3,0-0.5-0.2-0.5-0.5v-2.5c0-0.3,0.2-0.5,0.5-0.5s0.5,0.2,0.5,0.5v2.5
	C47.5,206.2,47.2,206.4,47,206.4z"/>
<path class="st5" d="M46.7,211.5c-0.3,0-0.5-0.2-0.5-0.5l-0.1-1.9c0-0.3,0.2-0.5,0.5-0.5c0.3,0,0.5,0.2,0.5,0.5l0.1,1.9
	C47.3,211.2,47,211.4,46.7,211.5C46.8,211.5,46.7,211.5,46.7,211.5z"/>
<path class="st5" d="M49.2,193.8c-0.1,0-0.1,0-0.2,0c-0.3-0.1-0.4-0.4-0.3-0.7l0.6-1.3c0.1-0.3,0.4-0.4,0.7-0.3
	c0.3,0.1,0.4,0.4,0.3,0.7l-0.6,1.3C49.6,193.7,49.4,193.8,49.2,193.8z"/>
<path class="st5" d="M48.4,197.2c0,0-0.1,0-0.1,0c-0.3-0.1-0.4-0.4-0.3-0.6l0.6-1.9c0.1-0.3,0.4-0.4,0.6-0.3
	c0.3,0.1,0.4,0.4,0.3,0.6l-0.6,1.9C48.8,197.1,48.6,197.2,48.4,197.2z"/>
<path class="st5" d="M51.3,196.8c-0.1,0-0.2,0-0.2-0.1c-0.2-0.1-0.3-0.4-0.2-0.7l0.9-1.8c0.1-0.2,0.4-0.3,0.7-0.2s0.3,0.4,0.2,0.7
	l-0.9,1.8C51.7,196.7,51.5,196.8,51.3,196.8z"/>
<path class="st5" d="M48.4,199.9c-0.1,0-0.2,0-0.3-0.1c-0.2-0.2-0.2-0.5,0-0.7l1-1.1c0.2-0.2,0.5-0.2,0.7,0c0.2,0.2,0.2,0.5,0,0.7
	l-1,1.1C48.7,199.8,48.5,199.9,48.4,199.9z"/>
<path class="st5" d="M47,196.3c0,0-0.1,0-0.1,0c-0.3-0.1-0.4-0.3-0.4-0.6l0.3-1.4c0.1-0.3,0.3-0.4,0.6-0.4c0.3,0.1,0.4,0.3,0.4,0.6
	l-0.3,1.4C47.4,196.2,47.2,196.3,47,196.3z"/>
<path class="st5" d="M51,204.9c-0.1,0-0.2,0-0.3-0.1c-0.2-0.1-0.3-0.5-0.2-0.7l1.2-2c0.1-0.2,0.4-0.3,0.7-0.2
	c0.2,0.1,0.3,0.5,0.2,0.7l-1.2,2C51.3,204.8,51.1,204.9,51,204.9z"/>
<path class="st5" d="M49.5,207.9c-0.1,0-0.1,0-0.2,0c-0.3-0.1-0.4-0.4-0.3-0.6l0.7-1.8c0.1-0.3,0.4-0.4,0.6-0.3
	c0.3,0.1,0.4,0.4,0.3,0.6l-0.7,1.8C49.9,207.8,49.7,207.9,49.5,207.9z"/>
<path class="st5" d="M51.2,208.8c-0.2,0-0.3-0.1-0.4-0.3c-0.1-0.2,0-0.5,0.2-0.7l2-1.1c0.2-0.1,0.5,0,0.7,0.2c0.1,0.2,0,0.5-0.2,0.7
	l-2,1.1C51.4,208.8,51.3,208.8,51.2,208.8z"/>
<path class="st5" d="M53.4,204.6c-0.1,0-0.2,0-0.3-0.1c-0.2-0.1-0.3-0.4-0.2-0.7l1-1.7c0.1-0.2,0.4-0.3,0.7-0.2
	c0.2,0.1,0.3,0.4,0.2,0.7l-1,1.7C53.7,204.5,53.6,204.6,53.4,204.6z"/>
<path class="st5" d="M54.1,205.8c-0.2,0-0.3-0.1-0.4-0.2c-0.2-0.2-0.1-0.5,0.1-0.7l1.3-1c0.2-0.2,0.5-0.1,0.7,0.1
	c0.2,0.2,0.1,0.5-0.1,0.7l-1.3,1C54.3,205.7,54.2,205.8,54.1,205.8z"/>
<g>
	<path class="st4" d="M54,213.4H35.1v18.9H54V213.4z"/>
	<path class="st4" d="M54,232.9H35.1c-0.3,0-0.5-0.2-0.5-0.5v-18.9c0-0.3,0.2-0.5,0.5-0.5H54c0.3,0,0.5,0.2,0.5,0.5v18.9
		C54.5,232.6,54.2,232.9,54,232.9z M35.6,231.9h17.9v-17.9H35.6V231.9z"/>
</g>
</svg>
