<?xml version="1.0" encoding="utf-8"?>
<!-- Generator: Adobe Illustrator 24.0.2, SVG Export Plug-In . SVG Version: 6.00 Build 0)  -->
<svg version="1.1" id="Слой_1" xmlns="http://www.w3.org/2000/svg" xmlns:xlink="http://www.w3.org/1999/xlink" x="0px" y="0px"
	 viewBox="0 0 213 213" style="enable-background:new 0 0 213 213;" xml:space="preserve">
<style type="text/css">
	.st0{fill:#263238;}
	.st1{fill:#FFFFFF;}
	.st2{opacity:0.2;enable-background:new    ;}
	.st3{opacity:0.9;fill:#FFFFFF;enable-background:new    ;}
	.st4{opacity:0.1;enable-background:new    ;}
	.st5{opacity:0.2;fill:#263238;enable-background:new    ;}
	.st6{opacity:0.8;fill:#FFFFFF;enable-background:new    ;}
	.st7{opacity:0.5;fill:#FFFFFF;enable-background:new    ;}
	.st8{fill:#858585;}
	.st9{opacity:0.5;enable-background:new    ;}
	.st10{opacity:0.7;fill:#FFFFFF;enable-background:new    ;}
	.st11{opacity:0.7;enable-background:new    ;}
	.st12{fill:#7F7F7F;}
</style>
<path class="st0" d="M186.7,158h-38c-0.2,0-0.4-0.2-0.4-0.4V71.3c0-0.2,0.2-0.4,0.4-0.4h38c0.2,0,0.4,0.2,0.4,0.4v86.3
	C187.1,157.8,186.9,158,186.7,158z M149.1,157.2h37.3V71.7h-37.3V157.2z"/>
<path class="st0" d="M183.4,154.6H152c-0.2,0-0.4-0.2-0.4-0.4V74.6c0-0.2,0.2-0.4,0.4-0.4h31.4c0.2,0,0.4,0.2,0.4,0.4v79.6
	C183.8,154.5,183.6,154.6,183.4,154.6z M152.4,153.9H183V75h-30.6V153.9z"/>
<path class="st0" d="M154.7,111.7c-0.1,0-0.1,0-0.2,0c-0.2-0.1-0.2-0.3-0.1-0.5l0.9-1.5c0.1-0.2,0.3-0.2,0.5-0.1
	c0.2,0.1,0.2,0.3,0.1,0.5l-0.9,1.5C155,111.6,154.9,111.7,154.7,111.7z"/>
<path class="st0" d="M156.6,108.5c-0.1,0-0.1,0-0.2,0c-0.2-0.1-0.2-0.3-0.1-0.5l8-13.9c0.1-0.2,0.3-0.2,0.5-0.1
	c0.2,0.1,0.2,0.3,0.1,0.5l-8,13.9C156.8,108.4,156.7,108.5,156.6,108.5z"/>
<path class="st0" d="M165.9,92.4c-0.1,0-0.1,0-0.2-0.1c-0.2-0.1-0.2-0.3-0.1-0.5l6.1-10.5c0.1-0.2,0.3-0.2,0.5-0.1
	c0.2,0.1,0.2,0.3,0.1,0.5l-6.1,10.5C166.1,92.3,166,92.4,165.9,92.4z"/>
<path class="st0" d="M172.6,80.7c-0.1,0-0.1,0-0.2-0.1c-0.2-0.1-0.2-0.3-0.1-0.5l0.6-1.1c0.1-0.2,0.3-0.2,0.5-0.1
	c0.2,0.1,0.2,0.3,0.1,0.5l-0.6,1.1C172.8,80.7,172.7,80.7,172.6,80.7z"/>
<path class="st0" d="M157.4,149.3c-0.1,0-0.1,0-0.2,0c-0.2-0.1-0.2-0.3-0.1-0.5l0.7-1.3c0.1-0.2,0.3-0.2,0.5-0.1
	c0.2,0.1,0.2,0.3,0.1,0.5l-0.7,1.3C157.7,149.2,157.5,149.3,157.4,149.3z"/>
<path class="st0" d="M159.1,146.4c-0.1,0-0.1,0-0.2,0c-0.2-0.1-0.2-0.3-0.1-0.5l0.8-1.3c0.1-0.2,0.3-0.2,0.5-0.1
	c0.2,0.1,0.2,0.3,0.1,0.5l-0.8,1.3C159.3,146.4,159.2,146.4,159.1,146.4z"/>
<path class="st0" d="M161.5,142.2c-0.1,0-0.1,0-0.2,0c-0.2-0.1-0.2-0.3-0.1-0.5l8.6-15c0.1-0.2,0.3-0.2,0.5-0.1
	c0.2,0.1,0.2,0.3,0.1,0.5l-8.6,15C161.7,142.2,161.6,142.2,161.5,142.2z"/>
<path class="st0" d="M171,125.7c-0.1,0-0.1,0-0.2,0c-0.2-0.1-0.2-0.3-0.1-0.5l6.8-11.7c0.1-0.2,0.3-0.2,0.5-0.1
	c0.2,0.1,0.2,0.3,0.1,0.5l-6.8,11.7C171.3,125.7,171.1,125.7,171,125.7z"/>
<path class="st0" d="M178.8,112.3c-0.1,0-0.1,0-0.2,0c-0.2-0.1-0.2-0.3-0.1-0.5l0.7-1.2c0.1-0.2,0.3-0.2,0.5-0.1
	c0.2,0.1,0.2,0.3,0.1,0.5l-0.7,1.2C179,112.2,178.9,112.3,178.8,112.3z"/>
<path class="st0" d="M161.5,149.3c-0.1,0-0.1,0-0.2,0c-0.2-0.1-0.2-0.3-0.1-0.5l6.2-10.8c0.1-0.2,0.3-0.2,0.5-0.1
	c0.2,0.1,0.2,0.3,0.1,0.5l-6.2,10.8C161.7,149.2,161.6,149.3,161.5,149.3z"/>
<path class="st0" d="M168.6,136.9c-0.1,0-0.1,0-0.2,0c-0.2-0.1-0.2-0.3-0.1-0.5l7.1-12.2c0.1-0.2,0.3-0.2,0.5-0.1
	c0.2,0.1,0.2,0.3,0.1,0.5l-7.1,12.2C168.9,136.8,168.7,136.9,168.6,136.9z"/>
<path class="st0" d="M176.5,123.3c-0.1,0-0.1,0-0.2-0.1c-0.2-0.1-0.2-0.3-0.1-0.5l0.8-1.4c0.1-0.2,0.3-0.2,0.5-0.1
	c0.2,0.1,0.2,0.3,0.1,0.5l-0.8,1.4C176.7,123.2,176.6,123.3,176.5,123.3z"/>
<path class="st0" d="M153.8,123c-0.1,0-0.1,0-0.2,0c-0.2-0.1-0.2-0.3-0.1-0.5l0.9-1.6c0.1-0.2,0.3-0.2,0.5-0.1s0.2,0.3,0.1,0.5
	l-0.9,1.6C154,122.9,153.9,123,153.8,123z"/>
<path class="st0" d="M155.5,120c-0.1,0-0.1,0-0.2,0c-0.2-0.1-0.2-0.3-0.1-0.5l7.5-13c0.1-0.2,0.3-0.2,0.5-0.1
	c0.2,0.1,0.2,0.3,0.1,0.5l-7.5,13C155.7,120,155.6,120,155.5,120z"/>
<path class="st0" d="M163.9,105.5c-0.1,0-0.1,0-0.2-0.1c-0.2-0.1-0.2-0.3-0.1-0.5l9.4-16.4c0.1-0.2,0.3-0.2,0.5-0.1
	c0.2,0.1,0.2,0.3,0.1,0.5l-9.4,16.4C164.1,105.4,164,105.5,163.9,105.5z"/>
<path class="st0" d="M174.1,87.8c-0.1,0-0.1,0-0.2-0.1c-0.2-0.1-0.2-0.3-0.1-0.5l5.5-9.5c0.1-0.2,0.3-0.2,0.5-0.1
	c0.2,0.1,0.2,0.3,0.1,0.5l-5.5,9.5C174.3,87.8,174.2,87.8,174.1,87.8z"/>
<path class="st0" d="M64.3,158H26.3c-0.2,0-0.4-0.2-0.4-0.4V71.3c0-0.2,0.2-0.4,0.4-0.4h38.1c0.2,0,0.4,0.2,0.4,0.4v86.3
	C64.7,157.8,64.5,158,64.3,158z M26.6,157.2h37.3V71.7H26.6V157.2z"/>
<path class="st0" d="M61,154.6H29.6c-0.2,0-0.4-0.2-0.4-0.4V74.6c0-0.2,0.2-0.4,0.4-0.4H61c0.2,0,0.4,0.2,0.4,0.4v79.6
	C61.4,154.5,61.2,154.6,61,154.6z M30,153.9h30.6V75H30V153.9z"/>
<path class="st0" d="M32.3,111.7c-0.1,0-0.1,0-0.2,0c-0.2-0.1-0.2-0.3-0.1-0.5l0.9-1.5c0.1-0.2,0.3-0.2,0.5-0.1
	c0.2,0.1,0.2,0.3,0.1,0.5l-0.9,1.5C32.6,111.6,32.5,111.7,32.3,111.7z"/>
<path class="st0" d="M34.2,108.5c-0.1,0-0.1,0-0.2,0c-0.2-0.1-0.2-0.3-0.1-0.5l8-13.9c0.1-0.2,0.3-0.2,0.5-0.1
	c0.2,0.1,0.2,0.3,0.1,0.5l-8,13.9C34.4,108.4,34.3,108.5,34.2,108.5z"/>
<path class="st0" d="M43.5,92.4c-0.1,0-0.1,0-0.2-0.1c-0.2-0.1-0.2-0.3-0.1-0.5l6.1-10.5c0.1-0.2,0.3-0.2,0.5-0.1
	c0.2,0.1,0.2,0.3,0.1,0.5l-6.1,10.5C43.7,92.3,43.6,92.4,43.5,92.4z"/>
<path class="st0" d="M50.2,80.7c-0.1,0-0.1,0-0.2-0.1c-0.2-0.1-0.2-0.3-0.1-0.5l0.6-1.1c0.1-0.2,0.3-0.2,0.5-0.1
	c0.2,0.1,0.2,0.3,0.1,0.5l-0.6,1.1C50.4,80.7,50.3,80.7,50.2,80.7z"/>
<path class="st0" d="M35,149.3c-0.1,0-0.1,0-0.2,0c-0.2-0.1-0.2-0.3-0.1-0.5l0.7-1.3c0.1-0.2,0.3-0.2,0.5-0.1
	c0.2,0.1,0.2,0.3,0.1,0.5l-0.7,1.3C35.3,149.2,35.1,149.3,35,149.3z"/>
<path class="st0" d="M36.6,146.4c-0.1,0-0.1,0-0.2,0c-0.2-0.1-0.2-0.3-0.1-0.5l0.8-1.3c0.1-0.2,0.3-0.2,0.5-0.1
	c0.2,0.1,0.2,0.3,0.1,0.5l-0.8,1.3C36.9,146.4,36.8,146.4,36.6,146.4z"/>
<path class="st0" d="M39.1,142.2c-0.1,0-0.1,0-0.2,0c-0.2-0.1-0.2-0.3-0.1-0.5l8.6-15c0.1-0.2,0.3-0.2,0.5-0.1
	c0.2,0.1,0.2,0.3,0.1,0.5l-8.6,15C39.3,142.2,39.2,142.2,39.1,142.2z"/>
<path class="st0" d="M48.6,125.7c-0.1,0-0.1,0-0.2,0c-0.2-0.1-0.2-0.3-0.1-0.5l6.8-11.7c0.1-0.2,0.3-0.2,0.5-0.1
	c0.2,0.1,0.2,0.3,0.1,0.5l-6.8,11.7C48.8,125.7,48.7,125.7,48.6,125.7z"/>
<path class="st0" d="M56.4,112.3c-0.1,0-0.1,0-0.2-0.1c-0.2-0.1-0.2-0.3-0.1-0.5l0.7-1.2c0.1-0.2,0.3-0.2,0.5-0.1
	c0.2,0.1,0.2,0.3,0.1,0.5l-0.7,1.2C56.6,112.2,56.5,112.3,56.4,112.3z"/>
<path class="st0" d="M39.1,149.3c-0.1,0-0.1,0-0.2,0c-0.2-0.1-0.2-0.3-0.1-0.5l6.2-10.8c0.1-0.2,0.3-0.2,0.5-0.1
	c0.2,0.1,0.2,0.3,0.1,0.5l-6.2,10.8C39.3,149.2,39.2,149.3,39.1,149.3z"/>
<path class="st0" d="M46.2,136.9c-0.1,0-0.1,0-0.2,0c-0.2-0.1-0.2-0.3-0.1-0.5l7.1-12.2c0.1-0.2,0.3-0.2,0.5-0.1
	c0.2,0.1,0.2,0.3,0.1,0.5l-7.1,12.2C46.5,136.8,46.3,136.9,46.2,136.9z"/>
<path class="st0" d="M54.1,123.3c-0.1,0-0.1,0-0.2,0c-0.2-0.1-0.2-0.3-0.1-0.5l0.8-1.4c0.1-0.2,0.3-0.2,0.5-0.1
	c0.2,0.1,0.2,0.3,0.1,0.5l-0.8,1.4C54.3,123.2,54.2,123.3,54.1,123.3z"/>
<path class="st0" d="M31.4,123c-0.1,0-0.1,0-0.2-0.1c-0.2-0.1-0.2-0.3-0.1-0.5l1-1.6c0.1-0.2,0.3-0.2,0.5-0.1
	c0.2,0.1,0.2,0.3,0.1,0.5l-1,1.6C31.6,122.9,31.5,123,31.4,123z"/>
<path class="st0" d="M33.1,120c-0.1,0-0.1,0-0.2,0c-0.2-0.1-0.2-0.3-0.1-0.5l7.5-13c0.1-0.2,0.3-0.2,0.5-0.1
	c0.2,0.1,0.2,0.3,0.1,0.5l-7.5,13C33.3,120,33.2,120,33.1,120z"/>
<path class="st0" d="M41.5,105.5c-0.1,0-0.1,0-0.2-0.1c-0.2-0.1-0.2-0.3-0.1-0.5l9.4-16.4c0.1-0.2,0.3-0.2,0.5-0.1
	c0.2,0.1,0.2,0.3,0.1,0.5l-9.4,16.4C41.7,105.4,41.6,105.5,41.5,105.5z"/>
<path class="st0" d="M51.7,87.8c-0.1,0-0.1,0-0.2-0.1c-0.2-0.1-0.2-0.3-0.1-0.5l5.5-9.5c0.1-0.2,0.3-0.2,0.5-0.1
	c0.2,0.1,0.2,0.3,0.1,0.5L52,87.7C51.9,87.8,51.8,87.8,51.7,87.8z"/>
<path class="st0" d="M200.4,194.1H12.6c-0.3,0-0.5-0.2-0.5-0.5s0.2-0.5,0.5-0.5h187.9c0.3,0,0.5,0.2,0.5,0.5
	S200.7,194.1,200.4,194.1z"/>
<path class="st1" d="M77.8,159.8h-3.3v11.1h3.3V159.8z"/>
<path class="st2" d="M77.8,159.8h-3.3v11.1h3.3V159.8z"/>
<path class="st1" d="M81.1,161.1h-3.3v9.9h3.3V161.1z"/>
<path class="st1" d="M85.2,161.1h-2.3v9.9h2.3V161.1z"/>
<path class="st3" d="M85.2,161.1h-2.3v9.9h2.3V161.1z"/>
<path class="st1" d="M82.9,160h-2.1v10.9h2.1V160z"/>
<path class="st4" d="M82.9,160h-2.1v10.9h2.1V160z"/>
<path class="st1" d="M88.4,159.8h-3.3v11.1h3.3V159.8z"/>
<path class="st1" d="M91.7,161.1h-3.3v9.9h3.3V161.1z"/>
<path class="st5" d="M91.7,161.1h-3.3v9.9h3.3V161.1z"/>
<path class="st1" d="M95.8,161.1h-2.3v9.9h2.3V161.1z"/>
<path class="st6" d="M95.8,161.1h-2.3v9.9h2.3V161.1z"/>
<path class="st1" d="M93.5,160h-2.1v10.9h2.1V160z"/>
<path class="st4" d="M93.5,160h-2.1v10.9h2.1V160z"/>
<path class="st1" d="M111.3,170.9h3.3v-11.1h-3.3V170.9z"/>
<path class="st2" d="M111.3,170.9h3.3v-11.1h-3.3V170.9z"/>
<path class="st1" d="M108,170.9h3.3v-9.9H108V170.9z"/>
<path class="st1" d="M104,170.9h2.3v-9.9H104V170.9z"/>
<path class="st3" d="M104,170.9h2.3v-9.9H104V170.9z"/>
<path class="st1" d="M106.3,170.9h2.1V160h-2.1V170.9z"/>
<path class="st4" d="M106.3,170.9h2.1V160h-2.1V170.9z"/>
<path class="st1" d="M100.7,170.9h3.3v-11.1h-3.3V170.9z"/>
<path class="st1" d="M97.4,170.9h3.3v-9.9h-3.3V170.9z"/>
<path class="st5" d="M97.4,170.9h3.3v-9.9h-3.3V170.9z"/>
<path class="st1" d="M95.7,170.9h2.1V160h-2.1V170.9z"/>
<path class="st4" d="M95.7,170.9h2.1V160h-2.1V170.9z"/>
<path class="st1" d="M130.1,170.9h3.3v-11.1h-3.3V170.9z"/>
<path class="st2" d="M130.1,170.9h3.3v-11.1h-3.3V170.9z"/>
<path class="st1" d="M126.8,170.9h3.3v-9.9h-3.3V170.9z"/>
<path class="st1" d="M122.8,170.9h2.3v-9.9h-2.3V170.9z"/>
<path class="st3" d="M122.8,170.9h2.3v-9.9h-2.3V170.9z"/>
<path class="st1" d="M125.1,170.9h2.1V160h-2.1V170.9z"/>
<path class="st4" d="M125.1,170.9h2.1V160h-2.1V170.9z"/>
<path class="st1" d="M119.5,170.9h3.3v-11.1h-3.3V170.9z"/>
<path class="st1" d="M135.5,170.5l2.1-0.6l-2.9-10.7l-2.1,0.6L135.5,170.5z"/>
<path class="st1" d="M116.2,170.9h3.3v-9.9h-3.3V170.9z"/>
<path class="st5" d="M116.2,170.9h3.3v-9.9h-3.3V170.9z"/>
<path class="st1" d="M114.5,170.9h2.1V160h-2.1V170.9z"/>
<path class="st4" d="M114.5,170.9h2.1V160h-2.1V170.9z"/>
<path class="st1" d="M136.6,185.3l2.2-0.6l-2.9-10.7l-2.2,0.6L136.6,185.3z"/>
<path class="st2" d="M136.6,185.3l2.2-0.6l-2.9-10.7l-2.2,0.6L136.6,185.3z"/>
<path class="st1" d="M130.9,185.2h3.3v-9.9h-3.3V185.2z"/>
<path class="st1" d="M126.9,185.2h2.3v-9.9h-2.3V185.2z"/>
<path class="st3" d="M126.9,185.2h2.3v-9.9h-2.3V185.2z"/>
<path class="st1" d="M129.2,185.2h2.1v-10.9h-2.1V185.2z"/>
<path class="st4" d="M129.2,185.2h2.1v-10.9h-2.1V185.2z"/>
<path class="st1" d="M123.6,185.2h3.3v-11.1h-3.3V185.2z"/>
<path class="st1" d="M120.3,185.2h3.3v-9.9h-3.3V185.2z"/>
<path class="st5" d="M120.3,185.2h3.3v-9.9h-3.3V185.2z"/>
<path class="st1" d="M116.3,185.2h2.3v-9.9h-2.3V185.2z"/>
<path class="st6" d="M116.3,185.2h2.3v-9.9h-2.3V185.2z"/>
<path class="st1" d="M118.6,185.2h2.1v-10.9h-2.1V185.2z"/>
<path class="st4" d="M118.6,185.2h2.1v-10.9h-2.1V185.2z"/>
<path class="st1" d="M100.7,174.1h-3.3v11.1h3.3V174.1z"/>
<path class="st2" d="M100.7,174.1h-3.3v11.1h3.3V174.1z"/>
<path class="st1" d="M104,175.4h-3.3v9.9h3.3V175.4z"/>
<path class="st1" d="M108.1,175.4h-2.3v9.9h2.3V175.4z"/>
<path class="st3" d="M108.1,175.4h-2.3v9.9h2.3V175.4z"/>
<path class="st1" d="M105.8,174.3h-2.1v10.9h2.1V174.3z"/>
<path class="st4" d="M105.8,174.3h-2.1v10.9h2.1V174.3z"/>
<path class="st1" d="M111.3,174.1h-3.3v11.1h3.3V174.1z"/>
<path class="st1" d="M114.6,175.4h-3.3v9.9h3.3V175.4z"/>
<path class="st5" d="M114.6,175.4h-3.3v9.9h3.3V175.4z"/>
<path class="st1" d="M116.3,174.3h-2.1v10.9h2.1V174.3z"/>
<path class="st4" d="M116.3,174.3h-2.1v10.9h2.1V174.3z"/>
<path class="st1" d="M81.9,174.1h-3.3v11.1h3.3V174.1z"/>
<path class="st2" d="M81.9,174.1h-3.3v11.1h3.3V174.1z"/>
<path class="st1" d="M85.2,175.4h-3.3v9.9h3.3V175.4z"/>
<path class="st1" d="M89.3,175.4H87v9.9h2.3V175.4z"/>
<path class="st3" d="M89.3,175.4H87v9.9h2.3V175.4z"/>
<path class="st1" d="M87,174.3h-2.1v10.9H87V174.3z"/>
<path class="st4" d="M87,174.3h-2.1v10.9H87V174.3z"/>
<path class="st1" d="M92.5,174.1h-3.3v11.1h3.3V174.1z"/>
<path class="st1" d="M78.7,174.6l-2.1-0.6l-2.9,10.7l2.1,0.6L78.7,174.6z"/>
<path class="st1" d="M95.8,175.4h-3.3v9.9h3.3V175.4z"/>
<path class="st5" d="M95.8,175.4h-3.3v9.9h3.3V175.4z"/>
<path class="st1" d="M97.6,174.3h-2.1v10.9h2.1V174.3z"/>
<path class="st4" d="M97.6,174.3h-2.1v10.9h2.1V174.3z"/>
<path class="st0" d="M77.1,193.6h-3.3l-0.4-6.3h4.2L77.1,193.6z"/>
<path class="st0" d="M139.2,193.6h-3.3l-0.4-6.3h4.2L139.2,193.6z"/>
<g>
	<path class="st1" d="M142.8,155.7H70.2c-0.4,0-0.8,0.2-1.1,0.5c-0.3,0.3-0.5,0.7-0.5,1.1v29.6c0,0.4,0.2,0.8,0.5,1.1
		c0.3,0.3,0.7,0.5,1.1,0.5h72.6c0.4,0,0.8-0.2,1.1-0.5c0.3-0.3,0.5-0.7,0.5-1.1v-29.6c0-0.4-0.2-0.8-0.5-1.1
		C143.6,155.8,143.2,155.7,142.8,155.7z M141.2,158.8v12.1H71.8v-12.1H141.2z M71.8,185.3v-12.1h69.4v12.1H71.8z"/>
	<path class="st0" d="M142.8,188.8H70.2c-0.5,0-1-0.2-1.4-0.6c-0.4-0.4-0.6-0.9-0.6-1.4v-29.6c0-0.5,0.2-1,0.6-1.4
		c0.4-0.4,0.9-0.6,1.4-0.6h72.6c0.5,0,1,0.2,1.4,0.6c0.4,0.4,0.6,0.9,0.6,1.4v29.6c0,0.5-0.2,1-0.6,1.4
		C143.8,188.6,143.3,188.8,142.8,188.8z M70.2,156c-0.3,0-0.6,0.1-0.8,0.3c-0.2,0.2-0.3,0.5-0.3,0.8v29.6c0,0.3,0.1,0.6,0.3,0.8
		c0.2,0.2,0.5,0.3,0.8,0.3h72.6c0.3,0,0.6-0.1,0.8-0.3c0.2-0.2,0.3-0.5,0.3-0.8v-29.6c0-0.3-0.1-0.6-0.3-0.8
		c-0.2-0.2-0.5-0.3-0.8-0.3H70.2z M141.2,185.7H71.8c-0.2,0-0.4-0.2-0.4-0.4v-12.1c0-0.2,0.2-0.4,0.4-0.4h69.4
		c0.2,0,0.4,0.2,0.4,0.4v12.1C141.6,185.5,141.4,185.7,141.2,185.7z M72.2,184.9h68.7v-11.4H72.2V184.9z M141.2,171.3H71.8
		c-0.2,0-0.4-0.2-0.4-0.4v-12.1c0-0.2,0.2-0.4,0.4-0.4h69.4c0.2,0,0.4,0.2,0.4,0.4v12.1C141.6,171.1,141.4,171.3,141.2,171.3z
		 M72.1,170.5h68.7v-11.4H72.1V170.5z"/>
</g>
<g>
	<path class="st0" d="M132.1,93.4H81.8c-1.6,0-2.9,1.3-2.9,2.9v10.8c0,1.6,1.3,2.9,2.9,2.9h50.2c1.6,0,2.9-1.3,2.9-2.9V96.3
		C135,94.7,133.7,93.4,132.1,93.4z"/>
	<path class="st0" d="M132.1,110.5H81.8c-1.9,0-3.4-1.5-3.4-3.4V96.3c0-1.9,1.5-3.4,3.4-3.4h50.2c1.9,0,3.4,1.5,3.4,3.4v10.8
		C135.5,109,133.9,110.5,132.1,110.5z M81.8,93.9c-1.3,0-2.4,1.1-2.4,2.4v10.8c0,1.3,1.1,2.4,2.4,2.4h50.2c1.3,0,2.4-1.1,2.4-2.4
		V96.3c0-1.3-1.1-2.4-2.4-2.4H81.8z"/>
</g>
<g>
	<path class="st1" d="M131.2,92.5H81c-1.6,0-2.9,1.3-2.9,2.9v10.8c0,1.6,1.3,2.9,2.9,2.9h50.2c1.6,0,2.9-1.3,2.9-2.9V95.4
		C134.1,93.8,132.8,92.5,131.2,92.5z"/>
	<path class="st0" d="M131.2,109.6H81c-1.9,0-3.4-1.5-3.4-3.4V95.4c0-1.9,1.5-3.4,3.4-3.4h50.2c1.9,0,3.4,1.5,3.4,3.4v10.8
		C134.6,108.1,133,109.6,131.2,109.6z M81,93c-1.3,0-2.4,1.1-2.4,2.4v10.8c0,1.3,1.1,2.4,2.4,2.4h50.2c1.3,0,2.4-1.1,2.4-2.4V95.4
		c0-1.3-1.1-2.4-2.4-2.4H81z"/>
</g>
<path class="st0" d="M131.2,109.6H81c-1.9,0-3.4-1.5-3.4-3.4V95.4c0-1.9,1.5-3.4,3.4-3.4h50.2c1.9,0,3.4,1.5,3.4,3.4v10.8
	C134.6,108.1,133,109.6,131.2,109.6z M81,93c-1.3,0-2.4,1.1-2.4,2.4v10.8c0,1.3,1.1,2.4,2.4,2.4h50.2c1.3,0,2.4-1.1,2.4-2.4V95.4
	c0-1.3-1.1-2.4-2.4-2.4H81z"/>
<path class="st1" d="M90.4,105.7h-7.4v-9.3H88l2.5,2.5V105.7z"/>
<path class="st7" d="M90.4,105.7h-7.4v-9.3H88l2.5,2.5V105.7z"/>
<path class="st0" d="M90.4,106.2h-7.4c-0.3,0-0.5-0.2-0.5-0.5v-9.3c0-0.3,0.2-0.5,0.5-0.5H88c0.1,0,0.3,0.1,0.4,0.1l2.5,2.5
	c0.1,0.1,0.1,0.2,0.1,0.4v6.9C90.9,106,90.7,106.2,90.4,106.2z M83.6,105.2h6.4v-6.2l-2.2-2.2h-4.2V105.2z"/>
<g>
	<path class="st1" d="M88,98.8h2.5L88,96.4V98.8z"/>
	<path class="st0" d="M90.4,99.3H88c-0.3,0-0.5-0.2-0.5-0.5v-2.5c0-0.2,0.1-0.4,0.3-0.5c0.2-0.1,0.4,0,0.5,0.1l2.5,2.5
		c0.1,0.1,0.2,0.4,0.1,0.5C90.8,99.2,90.6,99.3,90.4,99.3z M88.5,98.3h0.8l-0.8-0.8V98.3z"/>
</g>
<g>
	<path class="st8" d="M84.7,101.3c-0.1,0-0.2-0.1-0.3-0.2c-0.1-0.1-0.1-0.2-0.1-0.3c0-0.1,0-0.2,0.1-0.3c0.1-0.1,0.2-0.1,0.3-0.2
		h4.1c0.1,0,0.2,0.1,0.3,0.2c0.1,0.1,0.1,0.2,0.1,0.3c0,0.1,0,0.2-0.1,0.3c-0.1,0.1-0.2,0.1-0.3,0.2H84.7z"/>
	<path class="st0" d="M84.7,101.7C84.7,101.7,84.7,101.7,84.7,101.7c-0.2,0-0.4-0.1-0.6-0.3c-0.1-0.2-0.2-0.4-0.2-0.6
		c0-0.2,0.1-0.4,0.2-0.6c0.1-0.2,0.3-0.3,0.5-0.3l4.1,0c0.2,0,0.4,0.1,0.6,0.3c0.1,0.2,0.2,0.4,0.2,0.6c0,0.2-0.1,0.4-0.2,0.6
		c-0.1,0.2-0.3,0.3-0.5,0.3L84.7,101.7z M84.7,100.8L84.7,100.8v0.6V101h4.1l0-0.1l0-0.5v0.4H84.7z"/>
</g>
<g>
	<path class="st8" d="M84.7,103.3c-0.1,0-0.2-0.1-0.3-0.2c-0.1-0.1-0.1-0.2-0.1-0.3c0-0.1,0-0.2,0.1-0.3c0.1-0.1,0.2-0.1,0.3-0.2
		h3.2c0.1,0,0.2,0.1,0.3,0.2c0.1,0.1,0.1,0.2,0.1,0.3c0,0.1,0,0.2-0.1,0.3c-0.1,0.1-0.2,0.1-0.3,0.2H84.7z"/>
	<path class="st0" d="M84.7,103.7C84.7,103.7,84.7,103.7,84.7,103.7c-0.2,0-0.4-0.1-0.6-0.3c-0.1-0.2-0.2-0.4-0.2-0.6
		c0-0.2,0.1-0.4,0.2-0.6c0.1-0.2,0.3-0.3,0.5-0.3l3.2,0c0.2,0,0.4,0.1,0.6,0.3c0.1,0.2,0.2,0.4,0.2,0.6c0,0.2-0.1,0.4-0.2,0.6
		c-0.1,0.2-0.3,0.3-0.5,0.3L84.7,103.7z M84.7,102.7L84.7,102.7v0.6v-0.4h3.2l0-0.1l0-0.5v0.4H84.7z"/>
</g>
<path class="st1" d="M109.1,101.9H95.4c-0.2,0-0.5,0.1-0.6,0.3c-0.2,0.2-0.3,0.4-0.3,0.7c0,0.2,0.1,0.5,0.3,0.7
	c0.2,0.2,0.4,0.3,0.6,0.3h13.7V101.9z"/>
<path class="st0" d="M128.1,104.3C128.1,104.3,128.1,104.3,128.1,104.3l-32.8,0c0,0,0,0,0,0c-0.4,0-0.7-0.2-1-0.5
	c-0.3-0.3-0.4-0.6-0.4-1c0-0.4,0.1-0.7,0.4-1c0.3-0.3,0.6-0.4,1-0.5l32.8,0c0.2,0,0.4,0,0.6,0.1c0.2,0.1,0.4,0.2,0.5,0.3
	c0.1,0.1,0.3,0.3,0.3,0.5c0.1,0.2,0.1,0.4,0.1,0.6c0,0.2,0,0.4-0.1,0.6c-0.1,0.2-0.2,0.4-0.3,0.5c-0.1,0.1-0.3,0.2-0.5,0.3
	C128.5,104.3,128.3,104.3,128.1,104.3z M95.4,103.3h32.7c0.1,0,0.2,0,0.2,0c0.1,0,0.1-0.1,0.2-0.1c0,0,0.1-0.1,0.1-0.2
	c0-0.1,0-0.1,0-0.2s0-0.1,0-0.2c0-0.1-0.1-0.1-0.1-0.2c0,0-0.1-0.1-0.2-0.1c-0.1,0-0.1,0-0.2,0l-32.8,0c-0.1,0-0.2,0.1-0.3,0.1
	c-0.1,0.1-0.1,0.2-0.1,0.3c0,0.1,0,0.2,0.1,0.3C95.2,103.2,95.3,103.3,95.4,103.3z"/>
<path class="st0" d="M109.4,99.3h-1v-0.5l1-2.3h0.6v2.3h0.3v0.5H110v0.6h-0.5V99.3z M109.4,98.8v-1.3l-0.5,1.3L109.4,98.8z"/>
<path class="st0" d="M110.5,99.1v-0.3h0.5v0.3c0,0.2,0.1,0.3,0.3,0.3c0.2,0,0.3-0.1,0.3-0.3v-0.8c0-0.2-0.1-0.3-0.3-0.3
	c-0.2,0-0.3,0.1-0.3,0.3v0h-0.5l0.1-1.9h1.4v0.5H111l0,0.8c0-0.1,0.1-0.1,0.2-0.2c0.1,0,0.2-0.1,0.3-0.1c0.4,0,0.6,0.3,0.6,0.8v0.8
	c0,0.6-0.3,0.9-0.8,0.9C110.7,99.9,110.5,99.6,110.5,99.1z"/>
<path class="st0" d="M112.4,97.8V97c0-0.1,0-0.1,0-0.2c0-0.1,0.1-0.1,0.1-0.2c0-0.1,0.1-0.1,0.2-0.1c0.1,0,0.1,0,0.2,0
	c0.1,0,0.1,0,0.2,0c0.1,0,0.1,0.1,0.2,0.1c0,0.1,0.1,0.1,0.1,0.2c0,0.1,0,0.1,0,0.2v0.9c0,0.1,0,0.1,0,0.2c0,0.1-0.1,0.1-0.1,0.2
	c0,0.1-0.1,0.1-0.2,0.1c-0.1,0-0.1,0-0.2,0c-0.1,0-0.1,0-0.2,0c-0.1,0-0.1-0.1-0.2-0.1c0-0.1-0.1-0.1-0.1-0.2
	C112.4,98,112.4,97.9,112.4,97.8z M113.1,97.8v-0.9c0-0.1-0.1-0.2-0.2-0.2c-0.1,0-0.2,0.1-0.2,0.2v0.9c0,0.2,0.1,0.2,0.2,0.2
	C113.1,98,113.1,98,113.1,97.8z M114.2,96.4h0.3l-1.3,3.4h-0.3L114.2,96.4z M113.9,99.4v-0.9c0-0.1,0-0.1,0-0.2
	c0-0.1,0.1-0.1,0.1-0.2c0-0.1,0.1-0.1,0.2-0.1c0.1,0,0.1,0,0.2,0c0.1,0,0.1,0,0.2,0c0.1,0,0.1,0.1,0.2,0.1c0,0.1,0.1,0.1,0.1,0.2
	s0,0.1,0,0.2v0.9c0,0.1,0,0.1,0,0.2s-0.1,0.1-0.1,0.2c0,0.1-0.1,0.1-0.2,0.1c-0.1,0-0.1,0-0.2,0c-0.1,0-0.1,0-0.2,0
	c-0.1,0-0.1-0.1-0.2-0.1c0-0.1-0.1-0.1-0.1-0.2C113.9,99.5,113.9,99.5,113.9,99.4z M114.6,99.4v-0.9c0-0.2-0.1-0.2-0.2-0.2
	c-0.1,0-0.2,0.1-0.2,0.2v0.9c0,0.2,0.1,0.2,0.2,0.2C114.6,99.6,114.6,99.6,114.6,99.4z"/>
<g>
	<path class="st0" d="M132.1,112.7H81.8c-1.6,0-2.9,1.3-2.9,2.9v10.8c0,1.6,1.3,2.9,2.9,2.9h50.2c1.6,0,2.9-1.3,2.9-2.9v-10.8
		C135,114,133.7,112.7,132.1,112.7z"/>
	<path class="st0" d="M132.1,129.8H81.8c-1.9,0-3.4-1.5-3.4-3.4v-10.8c0-1.9,1.5-3.4,3.4-3.4h50.2c1.9,0,3.4,1.5,3.4,3.4v10.8
		C135.5,128.3,133.9,129.8,132.1,129.8z M81.8,113.2c-1.3,0-2.4,1.1-2.4,2.4v10.8c0,1.3,1.1,2.4,2.4,2.4h50.2c1.3,0,2.4-1.1,2.4-2.4
		v-10.8c0-1.3-1.1-2.4-2.4-2.4H81.8z"/>
</g>
<g>
	<path class="st1" d="M131.2,111.8H81c-1.6,0-2.9,1.3-2.9,2.9v10.8c0,1.6,1.3,2.9,2.9,2.9h50.2c1.6,0,2.9-1.3,2.9-2.9v-10.8
		C134.1,113.1,132.8,111.8,131.2,111.8z"/>
	<path class="st0" d="M131.2,128.9H81c-1.9,0-3.4-1.5-3.4-3.4v-10.8c0-1.9,1.5-3.4,3.4-3.4h50.2c1.9,0,3.4,1.5,3.4,3.4v10.8
		C134.6,127.4,133,128.9,131.2,128.9z M81,112.3c-1.3,0-2.4,1.1-2.4,2.4v10.8c0,1.3,1.1,2.4,2.4,2.4h50.2c1.3,0,2.4-1.1,2.4-2.4
		v-10.8c0-1.3-1.1-2.4-2.4-2.4H81z"/>
</g>
<path class="st1" d="M119.9,121H95.4c-0.2,0-0.5,0.1-0.6,0.3c-0.2,0.2-0.3,0.4-0.3,0.7c0,0.2,0.1,0.5,0.3,0.7
	c0.2,0.2,0.4,0.3,0.6,0.3h24.6V121z"/>
<path class="st0" d="M128.2,123.5c0,0-0.1,0-0.1,0l-32.7,0c0,0,0,0,0,0c-0.4,0-0.7-0.2-1-0.5c-0.3-0.3-0.4-0.6-0.4-1
	c0-0.4,0.1-0.7,0.4-1c0.3-0.3,0.6-0.4,1-0.5l32.7,0c0.2,0,0.4,0,0.6,0.1c0.2,0.1,0.4,0.2,0.5,0.3c0.1,0.1,0.3,0.3,0.3,0.5
	c0.1,0.2,0.1,0.4,0.1,0.6c0,0.2,0,0.4-0.1,0.6c-0.1,0.2-0.2,0.4-0.3,0.5c-0.1,0.1-0.3,0.2-0.5,0.3
	C128.5,123.4,128.3,123.5,128.2,123.5z M95.4,122.5h32.7c0.1,0,0.2,0,0.2,0c0.1,0,0.1-0.1,0.2-0.1c0,0,0.1-0.1,0.1-0.2
	c0-0.1,0-0.1,0-0.2c0-0.1,0-0.1,0-0.2c0-0.1-0.1-0.1-0.1-0.2c0,0-0.1-0.1-0.2-0.1c-0.1,0-0.1,0-0.2,0l-32.8,0
	c-0.1,0-0.2,0.1-0.3,0.1c-0.1,0.1-0.1,0.2-0.1,0.3s0,0.2,0.1,0.3C95.2,122.4,95.3,122.5,95.4,122.5z"/>
<path class="st0" d="M108.4,118.3V118c0-0.1,0-0.3,0.1-0.4c0.1-0.1,0.2-0.2,0.3-0.3c-0.1-0.1-0.2-0.2-0.3-0.3
	c-0.1-0.1-0.1-0.3-0.1-0.4v-0.1c0-0.2,0.1-0.4,0.2-0.6s0.4-0.2,0.6-0.2s0.4,0.1,0.6,0.2s0.2,0.4,0.2,0.6v0.1c0,0.1,0,0.3-0.1,0.4
	c-0.1,0.1-0.2,0.2-0.3,0.3c0.1,0.1,0.2,0.2,0.3,0.3c0.1,0.1,0.1,0.3,0.1,0.4v0.3c0,0.2-0.1,0.4-0.3,0.6c-0.2,0.2-0.4,0.3-0.6,0.3
	c-0.2,0-0.4-0.1-0.6-0.3C108.5,118.7,108.4,118.5,108.4,118.3L108.4,118.3z M109.6,118.2v-0.3c0-0.3-0.1-0.4-0.3-0.4
	c-0.2,0-0.3,0.1-0.3,0.4v0.3c0,0.3,0.1,0.4,0.3,0.4C109.5,118.6,109.6,118.5,109.6,118.2z M109.6,116.7v-0.3c0-0.2-0.1-0.3-0.3-0.3
	c-0.2,0-0.3,0.1-0.3,0.3v0.3c0,0.2,0.1,0.3,0.3,0.3C109.5,117,109.6,116.9,109.6,116.7L109.6,116.7z"/>
<path class="st0" d="M110.5,118.2V118h0.5v0.3c0,0.2,0.1,0.3,0.3,0.3c0.2,0,0.3-0.1,0.3-0.3v-0.8c0-0.2-0.1-0.3-0.3-0.3
	c-0.2,0-0.3,0.1-0.3,0.3v0h-0.5l0.1-1.9h1.4v0.5H111l0,0.8c0-0.1,0.1-0.1,0.2-0.2c0.1,0,0.2-0.1,0.3-0.1c0.4,0,0.6,0.3,0.6,0.8v0.8
	c0,0.1,0,0.2,0,0.3c0,0.1-0.1,0.2-0.2,0.3c-0.1,0.1-0.2,0.1-0.3,0.2c-0.1,0-0.2,0.1-0.3,0.1c-0.1,0-0.2,0-0.3-0.1
	c-0.1,0-0.2-0.1-0.3-0.2c-0.1-0.1-0.1-0.2-0.2-0.3C110.5,118.5,110.4,118.4,110.5,118.2L110.5,118.2z"/>
<path class="st0" d="M112.4,117v-0.9c0-0.1,0-0.1,0-0.2c0-0.1,0.1-0.1,0.1-0.2c0-0.1,0.1-0.1,0.2-0.1c0.1,0,0.1,0,0.2,0
	c0.1,0,0.1,0,0.2,0c0.1,0,0.1,0.1,0.2,0.1c0,0.1,0.1,0.1,0.1,0.2c0,0.1,0,0.1,0,0.2v0.9c0,0.1,0,0.1,0,0.2c0,0.1-0.1,0.1-0.1,0.2
	c0,0.1-0.1,0.1-0.2,0.1c-0.1,0-0.1,0-0.2,0c-0.1,0-0.1,0-0.2,0c-0.1,0-0.1-0.1-0.2-0.1c0-0.1-0.1-0.1-0.1-0.2
	C112.4,117.1,112.4,117,112.4,117z M113.1,117v-0.9c0-0.1-0.1-0.2-0.2-0.2c-0.1,0-0.2,0.1-0.2,0.2v0.9c0,0.2,0.1,0.2,0.2,0.2
	C113.1,117.2,113.1,117.2,113.1,117z M114.2,115.6h0.3l-1.3,3.4h-0.3L114.2,115.6z M113.9,118.6v-0.9c0-0.1,0-0.1,0-0.2
	c0-0.1,0.1-0.1,0.1-0.2c0-0.1,0.1-0.1,0.2-0.1c0.1,0,0.1,0,0.2,0c0.1,0,0.1,0,0.2,0c0.1,0,0.1,0.1,0.2,0.1c0,0.1,0.1,0.1,0.1,0.2
	s0,0.1,0,0.2v0.9c0,0.1,0,0.1,0,0.2s-0.1,0.1-0.1,0.2c0,0.1-0.1,0.1-0.2,0.1c-0.1,0-0.1,0-0.2,0c-0.1,0-0.1,0-0.2,0
	c-0.1,0-0.1-0.1-0.2-0.1c0-0.1-0.1-0.1-0.1-0.2C113.9,118.7,113.9,118.6,113.9,118.6z M114.6,118.6v-0.9c0-0.2-0.1-0.2-0.2-0.2
	c-0.1,0-0.2,0.1-0.2,0.2v0.9c0,0.2,0.1,0.2,0.2,0.2C114.6,118.8,114.6,118.7,114.6,118.6z"/>
<path class="st1" d="M90.4,124.9h-7.4v-9.3H88l2.5,2.5V124.9z"/>
<g class="st9">
	<path class="st1" d="M90.4,124.9h-7.4v-9.3H88l2.5,2.5V124.9z"/>
	<path class="st0" d="M90.4,125.4h-7.4c-0.3,0-0.5-0.2-0.5-0.5v-9.3c0-0.3,0.2-0.5,0.5-0.5H88c0.1,0,0.3,0.1,0.4,0.1l2.5,2.5
		c0.1,0.1,0.1,0.2,0.1,0.4v6.9C90.9,125.2,90.7,125.4,90.4,125.4z M83.6,124.4h6.4v-6.2l-2.2-2.2h-4.2V124.4z"/>
</g>
<path class="st0" d="M90.4,125.4h-7.4c-0.3,0-0.5-0.2-0.5-0.5v-9.3c0-0.3,0.2-0.5,0.5-0.5H88c0.1,0,0.3,0.1,0.4,0.1l2.5,2.5
	c0.1,0.1,0.1,0.2,0.1,0.4v6.9C90.9,125.2,90.7,125.4,90.4,125.4z M83.6,124.4h6.4v-6.2l-2.2-2.2h-4.2V124.4z"/>
<g>
	<path class="st8" d="M84.7,120.5c-0.1,0-0.2-0.1-0.3-0.2c-0.1-0.1-0.1-0.2-0.1-0.3c0-0.1,0-0.2,0.1-0.3c0.1-0.1,0.2-0.1,0.3-0.2
		h4.1c0.1,0,0.2,0.1,0.3,0.2c0.1,0.1,0.1,0.2,0.1,0.3c0,0.1,0,0.2-0.1,0.3c-0.1,0.1-0.2,0.1-0.3,0.2H84.7z"/>
	<path class="st0" d="M84.7,120.9C84.7,120.9,84.7,120.9,84.7,120.9c-0.2,0-0.4-0.1-0.6-0.3c-0.1-0.2-0.2-0.4-0.2-0.6
		c0-0.2,0.1-0.4,0.2-0.6c0.1-0.2,0.3-0.3,0.5-0.3l4.1,0c0.2,0,0.4,0.1,0.6,0.3c0.1,0.2,0.2,0.4,0.2,0.6c0,0.2-0.1,0.4-0.2,0.6
		c-0.1,0.2-0.3,0.3-0.5,0.3L84.7,120.9z M84.7,119.9L84.7,119.9v0.6v-0.4h4.1l0-0.1l0-0.5v0.4H84.7z"/>
</g>
<g>
	<path class="st8" d="M84.7,122.5c-0.1,0-0.2-0.1-0.3-0.2c-0.1-0.1-0.1-0.2-0.1-0.3c0-0.1,0-0.2,0.1-0.3c0.1-0.1,0.2-0.1,0.3-0.2
		h3.2c0.1,0,0.2,0.1,0.3,0.2c0.1,0.1,0.1,0.2,0.1,0.3c0,0.1,0,0.2-0.1,0.3c-0.1,0.1-0.2,0.1-0.3,0.2H84.7z"/>
	<path class="st0" d="M84.7,122.8C84.7,122.8,84.7,122.8,84.7,122.8c-0.2,0-0.4-0.1-0.6-0.3c-0.1-0.2-0.2-0.4-0.2-0.6
		c0-0.2,0.1-0.4,0.2-0.6c0.1-0.2,0.3-0.3,0.5-0.3l3.2,0c0.2,0,0.4,0.1,0.6,0.3c0.1,0.2,0.2,0.4,0.2,0.6s-0.1,0.4-0.2,0.6
		c-0.1,0.2-0.3,0.3-0.5,0.3L84.7,122.8z M84.7,121.9L84.7,121.9v0.6v-0.4h3.2l0-0.1l0-0.5v0.4H84.7z"/>
</g>
<g>
	<path class="st1" d="M88,118h2.5l-2.5-2.5V118z"/>
	<path class="st0" d="M90.4,118.5H88c-0.3,0-0.5-0.2-0.5-0.5v-2.5c0-0.2,0.1-0.4,0.3-0.5c0.2-0.1,0.4,0,0.5,0.1l2.5,2.5
		c0.1,0.1,0.2,0.4,0.1,0.5C90.8,118.4,90.6,118.5,90.4,118.5z M88.5,117.5h0.8l-0.8-0.8V117.5z"/>
</g>
<g>
	<path class="st0" d="M138.9,67.6H75c-1.6,0-2.9,1.3-2.9,2.9v14.9c0,1.6,1.3,2.9,2.9,2.9h63.9c1.6,0,2.9-1.3,2.9-2.9V70.6
		C141.8,68.9,140.5,67.6,138.9,67.6z"/>
	<path class="st0" d="M138.9,88.8H75c-1.9,0-3.4-1.5-3.4-3.4V70.6c0-1.9,1.5-3.4,3.4-3.4h63.9c1.9,0,3.4,1.5,3.4,3.4v14.9
		C142.3,87.3,140.8,88.8,138.9,88.8z M75,68.1c-1.3,0-2.4,1.1-2.4,2.4v14.9c0,1.3,1.1,2.4,2.4,2.4h63.9c1.3,0,2.4-1.1,2.4-2.4V70.6
		c0-1.3-1.1-2.4-2.4-2.4H75z"/>
</g>
<g>
	<path class="st1" d="M138,66.7H74.1c-1.6,0-2.9,1.3-2.9,2.9v14.9c0,1.6,1.3,2.9,2.9,2.9H138c1.6,0,2.9-1.3,2.9-2.9V69.7
		C140.9,68.1,139.6,66.7,138,66.7z"/>
	<path class="st0" d="M138,87.9H74.1c-1.9,0-3.4-1.5-3.4-3.4V69.7c0-1.9,1.5-3.4,3.4-3.4H138c1.9,0,3.4,1.5,3.4,3.4v14.9
		C141.4,86.4,139.9,87.9,138,87.9z M74.1,67.2c-1.3,0-2.4,1.1-2.4,2.4v14.9c0,1.3,1.1,2.4,2.4,2.4H138c1.3,0,2.4-1.1,2.4-2.4V69.7
		c0-1.3-1.1-2.4-2.4-2.4H74.1z"/>
</g>
<path class="st1" d="M95.5,85.7H81.8V68.4H91l4.6,4.6V85.7z"/>
<path class="st10" d="M95.5,85.7H81.8V68.4H91l4.6,4.6V85.7z"/>
<path class="st0" d="M95.5,86.2H81.8c-0.3,0-0.5-0.2-0.5-0.5V68.4c0-0.3,0.2-0.5,0.5-0.5H91c0.1,0,0.3,0.1,0.4,0.1l4.6,4.6
	C96,72.7,96,72.9,96,73v12.7C96,86,95.8,86.2,95.5,86.2z M82.3,85.2H95v-12l-4.3-4.3h-8.4V85.2z"/>
<g>
	<path class="st1" d="M91,73h4.6L91,68.4V73z"/>
	<path class="st0" d="M95.5,73.5H91c-0.3,0-0.5-0.2-0.5-0.5v-4.6c0-0.2,0.1-0.4,0.3-0.5c0.2-0.1,0.4,0,0.5,0.1l4.6,4.6
		c0.1,0.1,0.2,0.4,0.1,0.5C95.9,73.4,95.7,73.5,95.5,73.5z M91.5,72.5h2.9l-2.9-2.8V72.5z"/>
</g>
<path class="st1" d="M85.9,78.2h-2.7c-0.2,0-0.4-0.2-0.4-0.4v-2.7c0-0.2,0.2-0.4,0.4-0.4h2.7c0.2,0,0.4,0.2,0.4,0.4v2.7
	C86.3,78,86.1,78.2,85.9,78.2z M83.6,77.4h1.9v-1.9h-1.9V77.4z"/>
<path class="st1" d="M88.6,78.2H86c-0.2,0-0.4-0.2-0.4-0.4v-2.7c0-0.2,0.2-0.4,0.4-0.4h2.7c0.2,0,0.4,0.2,0.4,0.4v2.7
	C89,78,88.8,78.2,88.6,78.2z M86.3,77.4h1.9v-1.9h-1.9V77.4z"/>
<path class="st1" d="M91.4,78.2h-2.7c-0.2,0-0.4-0.2-0.4-0.4v-2.7c0-0.2,0.2-0.4,0.4-0.4h2.7c0.2,0,0.4,0.2,0.4,0.4v2.7
	C91.8,78,91.6,78.2,91.4,78.2z M89.1,77.4H91v-1.9h-1.9V77.4z"/>
<path class="st1" d="M94.2,78.2h-2.7c-0.2,0-0.4-0.2-0.4-0.4v-2.7c0-0.2,0.2-0.4,0.4-0.4h2.7c0.2,0,0.4,0.2,0.4,0.4v2.7
	C94.5,78,94.4,78.2,94.2,78.2z M91.9,77.4h1.9v-1.9h-1.9V77.4z"/>
<path class="st1" d="M85.9,80.9h-2.7c-0.2,0-0.4-0.2-0.4-0.4v-2.7c0-0.2,0.2-0.4,0.4-0.4h2.7c0.2,0,0.4,0.2,0.4,0.4v2.7
	C86.3,80.7,86.1,80.9,85.9,80.9z M83.6,80.1h1.9v-1.9h-1.9V80.1z"/>
<path class="st1" d="M88.6,80.9H86c-0.2,0-0.4-0.2-0.4-0.4v-2.7c0-0.2,0.2-0.4,0.4-0.4h2.7c0.2,0,0.4,0.2,0.4,0.4v2.7
	C89,80.7,88.8,80.9,88.6,80.9z M86.3,80.1h1.9v-1.9h-1.9V80.1z"/>
<path class="st1" d="M91.4,80.9h-2.7c-0.2,0-0.4-0.2-0.4-0.4v-2.7c0-0.2,0.2-0.4,0.4-0.4h2.7c0.2,0,0.4,0.2,0.4,0.4v2.7
	C91.8,80.7,91.6,80.9,91.4,80.9z M89.1,80.1H91v-1.9h-1.9V80.1z"/>
<path class="st1" d="M94.2,80.9h-2.7c-0.2,0-0.4-0.2-0.4-0.4v-2.7c0-0.2,0.2-0.4,0.4-0.4h2.7c0.2,0,0.4,0.2,0.4,0.4v2.7
	C94.5,80.7,94.4,80.9,94.2,80.9z M91.9,80.1h1.9v-1.9h-1.9V80.1z"/>
<path class="st1" d="M85.9,83.6h-2.7c-0.2,0-0.4-0.2-0.4-0.4v-2.7c0-0.2,0.2-0.4,0.4-0.4h2.7c0.2,0,0.4,0.2,0.4,0.4v2.7
	C86.3,83.4,86.1,83.6,85.9,83.6z M83.6,82.8h1.9v-1.9h-1.9V82.8z"/>
<path class="st1" d="M88.6,83.6H86c-0.2,0-0.4-0.2-0.4-0.4v-2.7c0-0.2,0.2-0.4,0.4-0.4h2.7c0.2,0,0.4,0.2,0.4,0.4v2.7
	C89,83.4,88.8,83.6,88.6,83.6z M86.3,82.8h1.9v-1.9h-1.9V82.8z"/>
<path class="st1" d="M91.4,83.6h-2.7c-0.2,0-0.4-0.2-0.4-0.4v-2.7c0-0.2,0.2-0.4,0.4-0.4h2.7c0.2,0,0.4,0.2,0.4,0.4v2.7
	C91.8,83.4,91.6,83.6,91.4,83.6z M89.1,82.8H91v-1.9h-1.9V82.8z"/>
<path class="st1" d="M94.2,83.6h-2.7c-0.2,0-0.4-0.2-0.4-0.4v-2.7c0-0.2,0.2-0.4,0.4-0.4h2.7c0.2,0,0.4,0.2,0.4,0.4v2.7
	C94.5,83.4,94.4,83.6,94.2,83.6z M91.9,82.8h1.9v-1.9h-1.9V82.8z"/>
<path class="st1" d="M83.2,83.9c-0.3,0-0.5-0.1-0.7-0.3c-0.4-0.4-0.3-1,0.1-1.4l2.7-2.5c0.2-0.2,0.5-0.3,0.7-0.3l0.7,0l1.2-2.1
	c0.2-0.3,0.4-0.5,0.7-0.5c0.3,0,0.6,0.1,0.8,0.3l0.6,0.6l0.7-0.7l1.2-2.4c0.3-0.5,0.9-0.7,1.3-0.4c0.5,0.3,0.7,0.9,0.4,1.3l-1.3,2.5
	c0,0.1-0.1,0.2-0.2,0.2l-1.5,1.5c-0.2,0.2-0.4,0.3-0.7,0.3c-0.3,0-0.5-0.1-0.7-0.3L89,79.5L88.2,81c-0.2,0.3-0.5,0.5-0.9,0.5l-0.9,0
	l-2.4,2.2C83.7,83.8,83.5,83.9,83.2,83.9z"/>
<path class="st1" d="M93.1,77.8c-0.5,0-0.9-0.3-1-0.8l-0.1-0.4l-0.3,0.2c-0.5,0.3-1.1,0.1-1.3-0.4c-0.2-0.5-0.1-1.1,0.4-1.3l1.5-0.8
	c0.3-0.1,0.6-0.1,0.9,0c0.3,0.1,0.5,0.4,0.5,0.7l0.3,1.7c0.1,0.5-0.3,1.1-0.8,1.2C93.3,77.8,93.2,77.8,93.1,77.8z"/>
<path class="st0" d="M100.9,76.5h-0.8V76c0.6,0,0.9-0.1,1-0.6h0.5v4.7h-0.7L100.9,76.5z"/>
<path class="st0" d="M102.5,79v-2.5c0-0.3,0.1-0.6,0.3-0.8c0.2-0.2,0.5-0.3,0.8-0.3c0.3,0,0.6,0.1,0.8,0.3c0.2,0.2,0.3,0.5,0.3,0.8
	V79c0,0.3-0.1,0.6-0.3,0.8c-0.2,0.2-0.5,0.3-0.8,0.3c-0.3,0-0.6-0.1-0.8-0.3C102.6,79.6,102.5,79.3,102.5,79z M104,79.1v-2.6
	c0-0.3-0.1-0.5-0.4-0.5c-0.2,0-0.4,0.1-0.4,0.5v2.6c0,0.3,0.1,0.5,0.4,0.5C103.8,79.5,104,79.4,104,79.1z"/>
<path class="st0" d="M105.2,79v-2.5c0-0.3,0.1-0.6,0.3-0.8c0.2-0.2,0.5-0.3,0.8-0.3c0.3,0,0.6,0.1,0.8,0.3c0.2,0.2,0.3,0.5,0.3,0.8
	V79c0,0.3-0.1,0.6-0.3,0.8c-0.2,0.2-0.5,0.3-0.8,0.3c-0.3,0-0.6-0.1-0.8-0.3C105.3,79.6,105.2,79.3,105.2,79z M106.7,79.1v-2.6
	c0-0.3-0.2-0.5-0.4-0.5s-0.4,0.1-0.4,0.5v2.6c0,0.3,0.1,0.5,0.4,0.5S106.7,79.4,106.7,79.1z"/>
<path class="st0" d="M107.9,77.3v-1.2c0-0.2,0.1-0.4,0.2-0.5c0.1-0.1,0.3-0.2,0.5-0.2c0.2,0,0.4,0.1,0.5,0.2
	c0.1,0.1,0.2,0.3,0.2,0.5v1.2c0,0.2-0.1,0.4-0.2,0.5c-0.1,0.1-0.3,0.2-0.5,0.2c-0.2,0-0.4-0.1-0.5-0.2
	C107.9,77.7,107.9,77.5,107.9,77.3z M108.8,77.3v-1.2c0-0.2-0.1-0.3-0.2-0.3c-0.1,0-0.2,0.1-0.2,0.3v1.2c0,0.2,0.1,0.3,0.2,0.3
	C108.7,77.6,108.8,77.5,108.8,77.3z M110.3,75.4h0.5l-1.8,4.7h-0.5L110.3,75.4z M109.9,79.4v-1.2c0-0.1,0-0.2,0.1-0.3
	c0-0.1,0.1-0.2,0.2-0.2c0.1-0.1,0.1-0.1,0.2-0.2c0.1,0,0.2-0.1,0.3-0.1s0.2,0,0.3,0.1c0.1,0,0.2,0.1,0.2,0.2
	c0.1,0.1,0.1,0.1,0.2,0.2c0,0.1,0.1,0.2,0.1,0.3v1.2c0,0.1,0,0.2-0.1,0.3c0,0.1-0.1,0.2-0.2,0.2c-0.1,0.1-0.1,0.1-0.2,0.2
	c-0.1,0-0.2,0.1-0.3,0.1s-0.2,0-0.3-0.1c-0.1,0-0.2-0.1-0.2-0.2c-0.1-0.1-0.1-0.1-0.2-0.2C109.9,79.6,109.9,79.5,109.9,79.4z
	 M110.9,79.5v-1.2c0-0.2-0.1-0.3-0.2-0.3s-0.2,0.1-0.2,0.3v1.2c0,0.2,0.1,0.3,0.2,0.3S110.9,79.7,110.9,79.5z"/>
<path class="st0" d="M112.5,78.7v-1.9c0-0.2,0.1-0.4,0.2-0.6c0.2-0.1,0.4-0.2,0.6-0.2c0.2,0,0.4,0.1,0.6,0.2
	c0.1,0.1,0.2,0.4,0.2,0.6v0.4h-0.5v-0.4c0-0.2-0.1-0.3-0.3-0.3c-0.2,0-0.3,0.1-0.3,0.3v1.9c0,0.2,0.1,0.3,0.3,0.3
	c0.2,0,0.3-0.1,0.3-0.3v-0.5h0.5v0.5c0,0.2-0.1,0.4-0.2,0.6c-0.2,0.1-0.4,0.2-0.6,0.2c-0.2,0-0.4-0.1-0.6-0.2
	C112.6,79.1,112.5,78.9,112.5,78.7z"/>
<path class="st0" d="M114.4,78.6v-1.8c0-0.2,0.1-0.4,0.2-0.6c0.2-0.2,0.4-0.2,0.6-0.2c0.2,0,0.4,0.1,0.6,0.2
	c0.2,0.2,0.2,0.4,0.2,0.6v1.8c0,0.2-0.1,0.4-0.2,0.6s-0.4,0.2-0.6,0.2c-0.2,0-0.4-0.1-0.6-0.2C114.5,79.1,114.4,78.9,114.4,78.6z
	 M115.5,78.7v-1.9c0-0.2-0.1-0.3-0.3-0.3c-0.2,0-0.3,0.1-0.3,0.3v1.9c0,0.2,0.1,0.3,0.3,0.3C115.4,79,115.5,78.9,115.5,78.7z"/>
<path class="st0" d="M116.4,76h0.8l0.3,2.5l0.3-2.5h0.8v3.4h-0.5v-2.6l-0.4,2.6h-0.5l-0.4-2.6v2.6h-0.5L116.4,76z"/>
<path class="st0" d="M119.1,76h0.8c0.5,0,0.8,0.3,0.8,0.9v0.3c0,0.5-0.3,0.9-0.8,0.9h-0.3v1.4h-0.5V76z M119.9,77.6
	c0.2,0,0.3-0.1,0.3-0.3v-0.4c0-0.2-0.1-0.3-0.3-0.3h-0.3v1.1L119.9,77.6z"/>
<path class="st0" d="M121,76h0.5v3h0.9v0.5H121V76z"/>
<path class="st0" d="M122.7,76h1.5v0.5h-0.9v0.9h0.7v0.5h-0.7V79h0.9v0.5h-1.5V76z"/>
<path class="st0" d="M124.9,76.5h-0.6V76h1.7v0.5h-0.6v3h-0.5V76.5z"/>
<path class="st0" d="M126.3,76h1.5v0.5h-0.9v0.9h0.7v0.5h-0.7V79h0.9v0.5h-1.5V76z"/>
<path class="st0" d="M128,76h0.8c0.5,0,0.8,0.3,0.8,0.9v1.7c0,0.5-0.3,0.9-0.8,0.9H128V76z M128.9,79c0.2,0,0.3-0.1,0.3-0.3v-1.8
	c0-0.2-0.1-0.3-0.3-0.3h-0.3V79H128.9z"/>
<g>
	<path class="st0" d="M132.1,132H81.8c-1.6,0-2.9,1.3-2.9,2.9v10.8c0,1.6,1.3,2.9,2.9,2.9h50.2c1.6,0,2.9-1.3,2.9-2.9v-10.8
		C135,133.3,133.7,132,132.1,132z"/>
	<path class="st0" d="M132.1,149.1H81.8c-1.9,0-3.4-1.5-3.4-3.4v-10.8c0-1.9,1.5-3.4,3.4-3.4h50.2c1.9,0,3.4,1.5,3.4,3.4v10.8
		C135.5,147.6,133.9,149.1,132.1,149.1z M81.8,132.5c-1.3,0-2.4,1.1-2.4,2.4v10.8c0,1.3,1.1,2.4,2.4,2.4h50.2c1.3,0,2.4-1.1,2.4-2.4
		v-10.8c0-1.3-1.1-2.4-2.4-2.4H81.8z"/>
</g>
<g>
	<path class="st1" d="M131.2,131.1H81c-1.6,0-2.9,1.3-2.9,2.9v10.8c0,1.6,1.3,2.9,2.9,2.9h50.2c1.6,0,2.9-1.3,2.9-2.9V134
		C134.1,132.4,132.8,131.1,131.2,131.1z"/>
	<path class="st0" d="M131.2,148.2H81c-1.9,0-3.4-1.5-3.4-3.4V134c0-1.9,1.5-3.4,3.4-3.4h50.2c1.9,0,3.4,1.5,3.4,3.4v10.8
		C134.6,146.7,133,148.2,131.2,148.2z M81,131.6c-1.3,0-2.4,1.1-2.4,2.4v10.8c0,1.3,1.1,2.4,2.4,2.4h50.2c1.3,0,2.4-1.1,2.4-2.4V134
		c0-1.3-1.1-2.4-2.4-2.4H81z"/>
</g>
<path class="st1" d="M118.2,140.2H95.4c-0.3,0-0.5,0.1-0.7,0.3c-0.2,0.2-0.3,0.4-0.3,0.7c0,0.3,0.1,0.5,0.3,0.7
	c0.2,0.2,0.4,0.3,0.7,0.3h22.8V140.2z"/>
<path class="st0" d="M128.1,142.6H95.4c-0.4,0-0.8-0.2-1-0.4c-0.3-0.3-0.4-0.6-0.4-1c0-0.4,0.2-0.8,0.4-1c0.3-0.3,0.6-0.4,1-0.4
	h32.7c0.2,0,0.4,0,0.6,0.1c0.2,0.1,0.3,0.2,0.5,0.3c0.1,0.1,0.2,0.3,0.3,0.5c0.1,0.2,0.1,0.4,0.1,0.6c0,0.2,0,0.4-0.1,0.6
	c-0.1,0.2-0.2,0.3-0.3,0.5c-0.1,0.1-0.3,0.2-0.5,0.3C128.5,142.6,128.3,142.6,128.1,142.6z M95.4,140.7c-0.1,0-0.2,0-0.3,0.1
	c-0.1,0.1-0.1,0.2-0.1,0.3s0,0.2,0.1,0.3c0.1,0.1,0.2,0.1,0.3,0.1h32.7c0.1,0,0.1,0,0.2,0c0.1,0,0.1-0.1,0.1-0.1
	c0,0,0.1-0.1,0.1-0.1c0-0.1,0-0.1,0-0.2c0-0.1,0-0.1,0-0.2c0-0.1-0.1-0.1-0.1-0.2c0,0-0.1-0.1-0.2-0.1c-0.1,0-0.1,0-0.2,0H95.4z"/>
<path class="st1" d="M90.4,144.1h-7.4v-9.3H88l2.5,2.5V144.1z"/>
<path class="st7" d="M90.4,144.1h-7.4v-9.3H88l2.5,2.5V144.1z"/>
<path class="st0" d="M90.4,144.6h-7.4c-0.3,0-0.5-0.2-0.5-0.5v-9.3c0-0.3,0.2-0.5,0.5-0.5H88c0.1,0,0.3,0.1,0.4,0.1l2.5,2.5
	c0.1,0.1,0.1,0.2,0.1,0.4v6.9C90.9,144.3,90.7,144.6,90.4,144.6z M83.6,143.6h6.4v-6.2l-2.2-2.2h-4.2V143.6z"/>
<g>
	<path class="st8" d="M84.7,139.7c-0.1,0-0.2-0.1-0.3-0.2s-0.1-0.2-0.1-0.3c0-0.1,0-0.2,0.1-0.3c0.1-0.1,0.2-0.1,0.3-0.2h4.1
		c0.1,0,0.2,0.1,0.3,0.2c0.1,0.1,0.1,0.2,0.1,0.3c0,0.1,0,0.2-0.1,0.3s-0.2,0.1-0.3,0.2H84.7z"/>
	<path class="st0" d="M84.7,140.1C84.7,140.1,84.7,140.1,84.7,140.1c-0.2,0-0.4-0.1-0.6-0.3c-0.1-0.2-0.2-0.4-0.2-0.6
		s0.1-0.4,0.2-0.6c0.1-0.2,0.3-0.3,0.5-0.3l4.1,0c0.2,0,0.4,0.1,0.6,0.3c0.1,0.2,0.2,0.4,0.2,0.6c0,0.2-0.1,0.4-0.2,0.6
		c-0.1,0.2-0.3,0.3-0.5,0.3L84.7,140.1z M84.7,139.1L84.7,139.1v0.6v-0.4h4.1l0-0.1l0-0.5v0.4H84.7z"/>
</g>
<g>
	<path class="st8" d="M84.7,141.6c-0.1,0-0.2,0-0.3-0.1c-0.1-0.1-0.1-0.2-0.1-0.3c0-0.1,0-0.2,0.1-0.3c0.1-0.1,0.2-0.1,0.3-0.1h3.2
		c0.1,0,0.2,0,0.3,0.1c0.1,0.1,0.1,0.2,0.1,0.3c0,0.1,0,0.2-0.1,0.3c-0.1,0.1-0.2,0.1-0.3,0.1H84.7z"/>
	<path class="st0" d="M87.9,142h-3.2c-0.2,0-0.4-0.1-0.6-0.2c-0.2-0.2-0.2-0.4-0.2-0.6c0-0.2,0.1-0.4,0.2-0.6
		c0.2-0.2,0.4-0.2,0.6-0.2h3.2c0.2,0,0.4,0.1,0.6,0.2c0.2,0.2,0.2,0.4,0.2,0.6c0,0.2-0.1,0.4-0.2,0.6C88.3,141.9,88.1,142,87.9,142z
		 M84.7,141.1L84.7,141.1v0.2h3.2l0.1-0.1l-0.1-0.1H84.7z"/>
</g>
<g>
	<path class="st1" d="M88,137.2h2.5l-2.5-2.5V137.2z"/>
	<path class="st0" d="M90.4,137.7H88c-0.3,0-0.5-0.2-0.5-0.5v-2.5c0-0.2,0.1-0.4,0.3-0.5c0.2-0.1,0.4,0,0.5,0.1l2.5,2.5
		c0.1,0.1,0.2,0.4,0.1,0.5C90.8,137.6,90.6,137.7,90.4,137.7z M88.5,136.7h0.8l-0.8-0.8V136.7z"/>
</g>
<path class="st0" d="M109.6,135.3h-1.1v-0.5h1.6v0.5l-0.9,3h-0.6L109.6,135.3z"/>
<path class="st0" d="M110.4,137.4v-1.8c0-0.2,0.1-0.4,0.2-0.6c0.2-0.2,0.4-0.2,0.6-0.2c0.2,0,0.4,0.1,0.6,0.2
	c0.2,0.2,0.2,0.4,0.2,0.6v1.8c0,0.2-0.1,0.4-0.2,0.6c-0.2,0.2-0.4,0.2-0.6,0.2c-0.2,0-0.4-0.1-0.6-0.2
	C110.5,137.8,110.4,137.6,110.4,137.4z M111.5,137.4v-1.9c0-0.2-0.1-0.3-0.3-0.3c-0.2,0-0.3,0.1-0.3,0.3v1.9c0,0.2,0.1,0.3,0.3,0.3
	C111.4,137.8,111.5,137.7,111.5,137.4z"/>
<path class="st0" d="M112.4,136.1v-0.9c0-0.1,0-0.1,0-0.2c0-0.1,0.1-0.1,0.1-0.2c0-0.1,0.1-0.1,0.2-0.1c0.1,0,0.1,0,0.2,0
	c0.1,0,0.1,0,0.2,0c0.1,0,0.1,0.1,0.2,0.1c0,0.1,0.1,0.1,0.1,0.2c0,0.1,0,0.1,0,0.2v0.9c0,0.1,0,0.1,0,0.2c0,0.1-0.1,0.1-0.1,0.2
	c0,0.1-0.1,0.1-0.2,0.1c-0.1,0-0.1,0-0.2,0c-0.1,0-0.1,0-0.2,0c-0.1,0-0.1-0.1-0.2-0.1c0-0.1-0.1-0.1-0.1-0.2
	C112.4,136.3,112.4,136.2,112.4,136.1z M113.1,136.2v-0.9c0-0.2-0.1-0.2-0.2-0.2c-0.1,0-0.2,0.1-0.2,0.2v0.9c0,0.1,0.1,0.2,0.2,0.2
	C113.1,136.4,113.1,136.3,113.1,136.2z M114.2,134.8h0.3l-1.3,3.4h-0.3L114.2,134.8z M113.9,137.7v-0.9c0-0.1,0-0.1,0-0.2
	c0-0.1,0.1-0.1,0.1-0.2c0-0.1,0.1-0.1,0.2-0.1c0.1,0,0.1,0,0.2,0c0.1,0,0.1,0,0.2,0c0.1,0,0.1,0.1,0.2,0.1c0,0.1,0.1,0.1,0.1,0.2
	c0,0.1,0,0.1,0,0.2v0.9c0,0.1,0,0.1,0,0.2c0,0.1-0.1,0.1-0.1,0.2c0,0.1-0.1,0.1-0.2,0.1c-0.1,0-0.1,0-0.2,0c-0.1,0-0.1,0-0.2,0
	c-0.1,0-0.1-0.1-0.2-0.1c0-0.1-0.1-0.1-0.1-0.2C113.9,137.9,113.9,137.8,113.9,137.7z M114.6,137.8v-0.9c0-0.2-0.1-0.2-0.2-0.2
	s-0.2,0.1-0.2,0.2v0.9c0,0.2,0.1,0.2,0.2,0.2S114.6,137.9,114.6,137.8L114.6,137.8z"/>
<g>
	<path class="st0" d="M50.5,46.9l11.2-8.7l11.2,8.7H50.5z"/>
	<path class="st0" d="M72.9,47.4H50.5c-0.2,0-0.4-0.1-0.5-0.3c-0.1-0.2,0-0.4,0.2-0.6l11.2-8.7c0.2-0.1,0.4-0.1,0.6,0l11.2,8.7
		c0.2,0.1,0.2,0.4,0.2,0.6C73.3,47.3,73.2,47.4,72.9,47.4z M51.9,46.4h19.6l-9.8-7.6L51.9,46.4z"/>
</g>
<g>
	<path class="st0" d="M64.6,37.6h-5.9v5h5.9V37.6z"/>
	<path class="st0" d="M64.6,43.1h-5.9c-0.3,0-0.5-0.2-0.5-0.5v-5c0-0.3,0.2-0.5,0.5-0.5h5.9c0.3,0,0.5,0.2,0.5,0.5v5
		C65.1,42.9,64.9,43.1,64.6,43.1z M59.3,42.1h4.9v-4h-4.9V42.1z"/>
</g>
<path class="st0" d="M61.7,43c-0.2,0-0.4-0.2-0.4-0.4V25.1c0-0.2,0.2-0.4,0.4-0.4s0.4,0.2,0.4,0.4v17.5C62.1,42.8,61.9,43,61.7,43z"
	/>
<g>
	<path class="st0" d="M140.1,46.9l11.2-8.7l11.2,8.7H140.1z"/>
	<path class="st0" d="M162.5,47.4h-22.5c-0.2,0-0.4-0.1-0.5-0.3c-0.1-0.2,0-0.4,0.2-0.6l11.2-8.7c0.2-0.1,0.4-0.1,0.6,0l11.2,8.7
		c0.2,0.1,0.2,0.4,0.2,0.6C162.9,47.3,162.8,47.4,162.5,47.4z M141.5,46.4h19.6l-9.8-7.6L141.5,46.4z"/>
</g>
<g>
	<path class="st0" d="M154.2,37.6h-5.9v5h5.9V37.6z"/>
	<path class="st0" d="M154.2,43.1h-5.9c-0.3,0-0.5-0.2-0.5-0.5v-5c0-0.3,0.2-0.5,0.5-0.5h5.9c0.3,0,0.5,0.2,0.5,0.5v5
		C154.7,42.9,154.5,43.1,154.2,43.1z M148.9,42.1h4.9v-4h-4.9V42.1z"/>
</g>
<path class="st0" d="M151.3,43c-0.2,0-0.4-0.2-0.4-0.4V24.2c0-0.2,0.2-0.4,0.4-0.4s0.4,0.2,0.4,0.4v18.4
	C151.7,42.8,151.5,43,151.3,43z"/>
<g>
	<path class="st1" d="M155.7,182.6l-0.2,7l3.6,0.2l1.3-7.2H155.7z"/>
	<path class="st0" d="M159.1,190.3C159.1,190.3,159.1,190.3,159.1,190.3l-3.7-0.2c-0.3,0-0.5-0.2-0.5-0.5l0.2-7
		c0-0.3,0.2-0.5,0.5-0.5h4.7c0.1,0,0.3,0.1,0.4,0.2c0.1,0.1,0.1,0.3,0.1,0.4l-1.3,7.2C159.5,190.1,159.3,190.3,159.1,190.3z
		 M156,189.1l2.7,0.1l1.1-6.2h-3.6L156,189.1z"/>
</g>
<g>
	<path class="st1" d="M148.6,191.8c1.2-0.4,3.3-1.2,4.1-1.6c0.6-0.4,1.5-1.7,2.2-2.1c0.1-0.1,0.3-0.1,0.4-0.1c0.2,0,0.3,0,0.4,0.1
		c0.1,0.1,0.2,0.3,0.2,0.4c0,0.1,0.1,0.1,0.1,0.2c0.1,0,0.1,0.1,0.2,0.1c0.1,0,0.1,0,0.2,0c0.1,0,0.1-0.1,0.2-0.1
		c0.1-0.2,0.2-0.4,0.4-0.5c0.6-0.3,2.1-0.4,2.6,0c0.8,0.7,1.1,3,1.3,4.1c0,0.2,0,1.5,0,1.5h-13.3V193c0-0.3,0.1-0.6,0.3-0.8
		C148.1,192,148.3,191.9,148.6,191.8z"/>
	<path class="st0" d="M160.9,194.1h-13.3c-0.3,0-0.5-0.2-0.5-0.5V193c0-0.4,0.1-0.8,0.3-1.1c0.2-0.3,0.5-0.5,0.9-0.7l0.2-0.1
		c1.2-0.4,3.1-1.1,3.8-1.5c0.2-0.2,0.6-0.5,0.9-0.9c0.4-0.5,0.9-0.9,1.3-1.2c0.5-0.2,0.9-0.2,1.3,0c0.1,0,0.1,0.1,0.2,0.1
		c0.1,0.1,0.2,0.2,0.2,0.3c0.1-0.1,0.2-0.3,0.4-0.4c0.7-0.4,2.5-0.6,3.2,0c0.9,0.7,1.2,2.6,1.4,4.2l0,0.2c0,0.2,0,1.2,0,1.6
		C161.4,193.9,161.2,194.1,160.9,194.1z M148.2,193.6L148.2,193.6L148.2,193.6z M148.2,193.1h12.3c0-0.4,0-0.8,0-0.9l0-0.2
		c-0.1-0.9-0.4-3.1-1.1-3.6c-0.3-0.2-1.6-0.2-2,0c-0.1,0.1-0.2,0.2-0.2,0.3c-0.1,0.2-0.2,0.3-0.4,0.4c-0.2,0.1-0.3,0.1-0.5,0.1
		c-0.2,0-0.3-0.1-0.5-0.2c-0.1-0.1-0.2-0.3-0.3-0.4c0-0.1,0-0.1,0-0.1c-0.1,0-0.3,0-0.4,0c-0.2,0.1-0.6,0.6-1,1
		c-0.4,0.4-0.8,0.9-1.1,1.1c-0.8,0.5-2.8,1.2-4.1,1.6l-0.2,0.1c0,0,0,0,0,0c-0.2,0.1-0.3,0.2-0.4,0.3
		C148.2,192.7,148.2,192.9,148.2,193.1L148.2,193.1z M148.6,191.8L148.6,191.8L148.6,191.8z"/>
</g>
<g>
	<path class="st8" d="M160.9,193.6h-13.3V193c0-0.1,0-0.3,0.1-0.4H161C161,193.1,160.9,193.6,160.9,193.6z"/>
	<path class="st0" d="M160.9,194.1h-13.3c-0.3,0-0.5-0.2-0.5-0.5V193c0-0.2,0-0.4,0.1-0.6c0.1-0.2,0.3-0.3,0.5-0.3H161
		c0.3,0,0.5,0.2,0.5,0.5c0,0.5,0,1,0,1C161.4,193.9,161.2,194.1,160.9,194.1z M148.2,193.1h12.3c0,0,0,0,0,0L148.2,193.1z"/>
</g>
<g>
	<path class="st0" d="M158,128.1l-2.8,57.2l5.1,0.9c0,0,3.2-16.5,3.6-22c0.1-1.3,0-5.1,0-5.1l3.6-17.8c0,0,2.4-2.2,2.7-12.7
		L158,128.1z"/>
	<path class="st0" d="M160.3,186.6C160.3,186.6,160.3,186.6,160.3,186.6l-5.2-0.9c-0.3,0-0.4-0.3-0.4-0.5l2.8-57.2
		c0-0.3,0.2-0.5,0.5-0.5l12.2,0.5c0.3,0,0.5,0.2,0.5,0.5c-0.2,9.3-2.2,12.3-2.7,12.9l-3.6,17.6c0,0.5,0.1,3.9,0,5.1
		c-0.4,5.4-3.5,21.3-3.6,22C160.8,186.4,160.5,186.6,160.3,186.6z M155.7,184.8l4.2,0.7c0.5-2.8,3.2-16.6,3.5-21.4
		c0.1-1.2,0-5,0-5.1c0,0,0-0.1,0-0.1l3.6-17.8c0-0.1,0.1-0.2,0.2-0.3c0,0,2.2-2.2,2.5-11.8l-11.2-0.4L155.7,184.8z"/>
</g>
<path class="st11" d="M165.6,150.2c0.2-0.8,0.4-1.6,0.7-2.5c0-0.1,0.1-0.2,0.1-0.3c0.1-1.2,0.3-2.4,0.6-3.6c0.1-0.4,0.3-0.8,0.7-1.1
	c0.1-0.2,0.2-0.4,0.4-0.6c0.2-0.2,0.4-0.3,0.6-0.3c-0.2-1.1-0.4-2.2-0.7-3.3c-0.3-1.1-0.9-2.2-1-3.3c0-0.3-0.2-0.6-0.2-0.6
	c-0.4-0.1-0.7-0.3-1.1-0.5l-0.1-0.1C165.4,139.4,165.3,144.8,165.6,150.2z"/>
<path class="st12" d="M157.7,161.2c-0.2,0-0.3-0.1-0.4-0.3c0-0.2,0.1-0.4,0.3-0.4c0.8-0.2,1.6-0.6,2.2-1.2c0.1-0.1,0.4-0.1,0.5,0
	c0.1,0.1,0.1,0.4,0,0.5C159.7,160.4,158.8,160.9,157.7,161.2C157.8,161.2,157.8,161.2,157.7,161.2z"/>
<g>
	<path class="st1" d="M154.5,186.3l6.2,0.5l0.5-2l-6.6-0.5V186.3z"/>
	<path class="st0" d="M160.7,187.3C160.7,187.3,160.7,187.3,160.7,187.3l-6.2-0.5c-0.3,0-0.5-0.2-0.5-0.5v-2c0-0.1,0.1-0.3,0.2-0.4
		c0.1-0.1,0.2-0.1,0.4-0.1l6.6,0.5c0.1,0,0.3,0.1,0.4,0.2c0.1,0.1,0.1,0.3,0.1,0.4l-0.5,2C161.1,187.2,160.9,187.3,160.7,187.3z
		 M155,185.9l5.3,0.4l0.2-1l-5.5-0.4V185.9z"/>
</g>
<g>
	<path class="st1" d="M172.4,181.7l1.3,8.2l3.4-0.3l-0.1-8.4L172.4,181.7z"/>
	<path class="st0" d="M173.7,190.4c-0.2,0-0.5-0.2-0.5-0.4l-1.3-8.2c0-0.1,0-0.3,0.1-0.4s0.2-0.2,0.3-0.2l4.6-0.5
		c0.1,0,0.3,0,0.4,0.1c0.1,0.1,0.2,0.2,0.2,0.4l0.1,8.4c0,0.3-0.2,0.5-0.5,0.5L173.7,190.4C173.7,190.4,173.7,190.4,173.7,190.4z
		 M173,182.2l1.2,7.2l2.4-0.2l-0.1-7.4L173,182.2z"/>
</g>
<g>
	<path class="st1" d="M166.7,191.8c1.2-0.4,3.4-1.2,4.1-1.6c0.6-0.4,1.5-1.7,2.2-2.1c0.1-0.1,0.3-0.1,0.4-0.1c0.2,0,0.3,0,0.4,0.1
		c0.1,0.1,0.1,0.2,0.2,0.3c0,0.1,0.1,0.2,0.1,0.2c0.1,0.1,0.1,0.1,0.2,0.1c0.1,0,0.2,0,0.2,0c0.1,0,0.1-0.1,0.2-0.2
		c0.1-0.1,0.2-0.3,0.3-0.4c0.6-0.3,2.1-0.4,2.6,0c0.8,0.7,1.1,3,1.3,4.1c0,0.2,0,1.5,0,1.5h-13.3V193c0-0.3,0.1-0.6,0.3-0.8
		C166.2,192,166.5,191.9,166.7,191.8z"/>
	<path class="st0" d="M179.1,194.1h-13.3c-0.3,0-0.5-0.2-0.5-0.5V193c0-0.4,0.1-0.8,0.3-1.1c0.2-0.3,0.5-0.5,0.9-0.7l0.2-0.1
		c1.2-0.4,3.2-1.1,3.9-1.5c0.3-0.2,0.6-0.5,0.9-0.9c0.4-0.5,0.9-0.9,1.3-1.2c0.5-0.2,0.9-0.2,1.3,0c0.1,0,0.1,0.1,0.2,0.1
		c0.1,0.1,0.2,0.2,0.2,0.4c0.1-0.2,0.2-0.3,0.4-0.4c0.7-0.4,2.5-0.6,3.2,0c0.9,0.7,1.2,2.6,1.4,4.2l0,0.2c0,0.2,0,1.2,0,1.6
		C179.6,193.9,179.4,194.1,179.1,194.1z M166.3,193.1h12.3c0-0.4,0-0.8,0-0.9l0-0.2c-0.1-0.9-0.4-3.1-1.1-3.6c-0.3-0.2-1.6-0.2-2,0
		c0,0-0.1,0.1-0.2,0.2c-0.1,0.1-0.2,0.3-0.4,0.4c-0.2,0.1-0.4,0.1-0.5,0.1c-0.2,0-0.4-0.1-0.5-0.2c-0.1-0.1-0.2-0.3-0.3-0.5
		c-0.1,0-0.2,0-0.4,0c-0.2,0.1-0.6,0.6-1,1c-0.4,0.4-0.8,0.9-1.1,1.1c-0.8,0.5-2.8,1.2-4.1,1.6l-0.2,0.1c0,0,0,0,0,0
		c-0.2,0.1-0.3,0.2-0.4,0.3C166.4,192.7,166.3,192.9,166.3,193.1L166.3,193.1z M166.7,191.8L166.7,191.8L166.7,191.8z M174.6,188.2
		L174.6,188.2L174.6,188.2z"/>
</g>
<g>
	<path class="st8" d="M179.1,193.6h-13.3V193c0-0.1,0-0.3,0.1-0.4h13.2C179.1,193.1,179.1,193.6,179.1,193.6z"/>
	<path class="st0" d="M179.1,194.1h-13.3c-0.3,0-0.5-0.2-0.5-0.5V193c0-0.2,0-0.4,0.1-0.6c0.1-0.2,0.3-0.3,0.5-0.3h13.2
		c0.3,0,0.5,0.2,0.5,0.5c0,0.5,0,1,0,1C179.6,193.9,179.4,194.1,179.1,194.1z M166.3,193.1h12.3c0,0,0,0,0,0L166.3,193.1z"/>
</g>
<g>
	<path class="st0" d="M165.1,129.8c0,0,1.3,7.4,2.5,13.6c0.8,4.2,0.9,16.6,0.9,16.6l4.1,25.7l5-0.7c0,0,0.1-15.8-0.5-20.9
		c-0.1-1.1-0.3-4.5-0.3-4.5s0.2-13.4,1.2-17.9c0.7-3.2,2.2-6.6,0.4-13.1L165.1,129.8z"/>
	<path class="st0" d="M172.5,186.2c-0.2,0-0.5-0.2-0.5-0.4l-4.1-25.7c0-0.2-0.1-12.5-0.8-16.6c-1.2-6.1-2.4-13.5-2.5-13.6
		c0-0.1,0-0.3,0.1-0.4c0.1-0.1,0.2-0.2,0.4-0.2l13.2-1.1c0.2,0,0.5,0.1,0.5,0.4c1.6,5.7,0.7,9-0.1,12c-0.1,0.5-0.2,0.9-0.4,1.4
		c-1,4.4-1.2,17.7-1.2,17.8l0,0c0,0,0.2,3.3,0.3,4.4c0.6,5,0.5,20.3,0.5,20.9c0,0.3-0.2,0.5-0.4,0.5L172.5,186.2
		C172.5,186.2,172.5,186.2,172.5,186.2z M165.7,130.3c0.3,1.8,1.4,7.9,2.4,13.1c0.8,4.2,0.9,16.2,0.9,16.7l4,25.1l4.1-0.6
		c0-2.6,0-15.9-0.5-20.4c-0.1-1.1-0.3-4.4-0.3-4.5c0-0.6,0.2-13.6,1.2-18c0.1-0.5,0.2-0.9,0.4-1.4c0.7-2.7,1.5-5.8,0.2-11
		L165.7,130.3z"/>
</g>
<path class="st12" d="M171.6,162.5C171.6,162.5,171.6,162.5,171.6,162.5c-1-0.2-1.9-0.7-2.4-1.5c-0.1-0.2-0.1-0.4,0.1-0.5
	c0.2-0.1,0.4-0.1,0.5,0.1c0.5,0.6,1.1,1.1,1.9,1.2c0.2,0,0.3,0.2,0.3,0.4C172,162.4,171.8,162.5,171.6,162.5z"/>
<g>
	<path class="st1" d="M171.6,184.6l0.3,1.9l6.2-0.7l0-2L171.6,184.6z"/>
	<path class="st0" d="M171.9,187c-0.2,0-0.5-0.2-0.5-0.4l-0.3-1.9c0-0.1,0-0.3,0.1-0.4c0.1-0.1,0.2-0.2,0.3-0.2l6.5-0.8
		c0.1,0,0.3,0,0.4,0.1c0.1,0.1,0.2,0.2,0.2,0.4l0,2c0,0.3-0.2,0.5-0.4,0.5L171.9,187C172,187,172,187,171.9,187z M172.2,185l0.1,0.9
		l5.3-0.6l0-1L172.2,185z"/>
</g>
<g>
	<path class="st8" d="M141.4,95.6l-1.4-2.3c0,0-0.3-3.8-1.1-4.5c-0.8-0.7-2.5-2.9-2.7-2.5c-0.4,0.7,1,1.9,1,1.9l0.3,1.4
		c0,0-2.3-1.7-2.9-1.7c0,0-1.8-2.2-2.5-2.2c-0.6,0,0.3,1.5,0.3,1.5s-0.6-0.5-0.7-0.2c-0.1,0.3,0.8,1.3,0.8,1.3s-0.4,0.4,0.2,1.2
		c-0.1,0.3-0.1,0.5,0,0.8c0.1,0.3,0.2,0.5,0.4,0.7c0.7,0.6,4.5,2.7,4.5,2.7l1.3,3L141.4,95.6z"/>
	<path class="st0" d="M138.8,97.3c-0.1,0-0.1,0-0.2,0c-0.1,0-0.2-0.1-0.3-0.3l-1.2-2.9c-0.7-0.4-3.8-2.2-4.4-2.7
		c-0.3-0.3-0.5-0.6-0.6-0.9c-0.1-0.3-0.1-0.6-0.1-0.9c-0.3-0.5-0.3-0.9-0.2-1.2c-0.9-1.1-0.7-1.4-0.7-1.6c0.1-0.1,0.2-0.3,0.3-0.3
		c-0.1-0.4-0.1-0.7,0-0.9c0.1-0.2,0.4-0.4,0.6-0.3c0.7,0,1.9,1.2,2.7,2.2c0.5,0.1,1.3,0.6,2,1l0-0.1c-0.5-0.5-1.5-1.5-1-2.4
		c0.1-0.1,0.3-0.3,0.5-0.3c0.5-0.1,1,0.5,2.2,1.8c0.3,0.3,0.6,0.7,0.8,0.9c0.8,0.8,1.2,3.9,1.2,4.7l1.3,2.2c0.1,0.1,0.1,0.3,0,0.4
		c0,0.1-0.1,0.2-0.3,0.3l-2.6,1.2C138.9,97.3,138.8,97.3,138.8,97.3z M132.5,87.7c0.1,0.1,0.2,0.2,0.3,0.3c0.2,0.2,0.2,0.5,0,0.7
		c0,0,0,0.2,0.2,0.6c0.1,0.1,0.1,0.3,0.1,0.4c0,0.2,0,0.4,0,0.5c0,0.2,0.1,0.3,0.3,0.5c0.5,0.4,3.4,2.1,4.4,2.6
		c0.1,0.1,0.2,0.1,0.2,0.2l1.1,2.5l1.6-0.8l-1.1-1.8c0-0.1-0.1-0.1-0.1-0.2c-0.2-1.7-0.6-3.8-0.9-4.2c-0.2-0.2-0.5-0.5-0.8-0.9
		l0.2,1.2c0,0.2-0.1,0.4-0.2,0.5c-0.2,0.1-0.4,0.1-0.6,0c-1-0.7-2.3-1.5-2.7-1.6c-0.1,0-0.3-0.1-0.4-0.2c-0.6-0.7-1.2-1.3-1.6-1.7
		c0.1,0.1,0.1,0.3,0.2,0.4c0.1,0.2,0.1,0.5-0.1,0.6C132.6,87.7,132.5,87.7,132.5,87.7z"/>
</g>
<path class="st0" d="M137.7,92.4c-0.1,0-0.2-0.1-0.3-0.2c-0.4-0.7-1.7-0.9-2.6-1c-0.9-0.2-1.6-0.3-1.7-0.8c0-0.3-0.1-0.6-0.3-0.8
	c-0.1-0.1-0.1-0.2-0.1-0.3c0.1-0.4,0-0.5-0.1-0.5c-0.2-0.1-0.3-0.3-0.2-0.5c0.1-0.2,0.3-0.3,0.5-0.2c0.3,0.1,0.7,0.5,0.6,1.2
	c0.2,0.3,0.3,0.6,0.3,0.9c0.2,0.1,0.7,0.2,1,0.2c1.1,0.2,2.5,0.4,3.1,1.4c0.1,0.2,0.1,0.4-0.1,0.5C137.8,92.4,137.8,92.4,137.7,92.4
	z"/>
<path class="st0" d="M134.2,89.4c-0.1,0-0.2,0-0.3-0.1l-1.3-1.4c-0.1-0.2-0.1-0.4,0-0.5c0.2-0.1,0.4-0.1,0.5,0l1.3,1.4
	c0.1,0.2,0.1,0.4,0,0.5C134.4,89.4,134.3,89.4,134.2,89.4z"/>
<g>
	<path class="st1" d="M155.6,95l-8.8,6.8l-6-8.2l-3.1,1.5c0,0,4.8,13.3,8.5,13.3c3.9,0,11.2-6.2,11.2-6.2S157.9,101.1,155.6,95z"/>
	<path class="st0" d="M146.2,109c-3.9,0-8.4-12.2-8.9-13.6c-0.1-0.2,0-0.5,0.2-0.6l3.1-1.5c0.2-0.1,0.5,0,0.6,0.2l5.7,7.8l8.4-6.5
		c0.1-0.1,0.3-0.1,0.4-0.1c0.2,0,0.3,0.2,0.3,0.3c2.3,5.9,1.9,7.4,1.8,7.6c0,0.1-0.1,0.1-0.1,0.2C157.4,102.9,150.2,109,146.2,109z
		 M138.3,95.4c1.9,5,5.5,12.6,7.8,12.6c3.4,0,9.8-5.2,10.8-6c0-0.4,0-1.9-1.6-6.2l-8.2,6.4c-0.1,0.1-0.2,0.1-0.4,0.1
		c-0.1,0-0.3-0.1-0.3-0.2l-5.8-7.9L138.3,95.4z"/>
</g>
<path class="st0" d="M147.6,104.2c-0.2,0-0.3-0.1-0.4-0.3c-0.1-0.4-0.2-0.9-0.4-1.3c-0.1-0.2,0-0.4,0.2-0.5c0.2-0.1,0.4,0,0.5,0.2
	c0.2,0.5,0.4,0.9,0.5,1.5C148,104,147.8,104.2,147.6,104.2C147.6,104.2,147.6,104.2,147.6,104.2z"/>
<g>
	<path class="st1" d="M155.6,95l1.9,24.8V130c0,0,10.8,1.3,21.4-0.3l-0.4-10.6l1.1-23.6c0,0-4.9-3.6-12.5-3.6S155.6,95,155.6,95z"/>
	<path class="st0" d="M167.3,131c-5.7,0-9.9-0.5-10-0.5c-0.3,0-0.4-0.2-0.4-0.5v-10.3L155.1,95c0-0.2,0.1-0.3,0.2-0.4
		c0.2-0.1,4.1-3.1,11.8-3.1c7.6,0,12.6,3.5,12.8,3.7c0.1,0.1,0.2,0.3,0.2,0.4l-1.1,23.6l0.4,10.5c0,0.3-0.2,0.5-0.4,0.5
		C174.9,130.8,170.8,131,167.3,131z M157.9,129.6c2.1,0.2,11.3,1,20.4-0.3l-0.4-10.1l1.1-23.4c-1-0.7-5.6-3.3-12-3.3
		c-6.3,0-10.1,2.1-11,2.7l1.8,24.5L157.9,129.6z"/>
</g>
<path class="st2" d="M178.8,129.8l-0.3-9.5c-0.2,4.6-5.2,2.9-6.4,2.6c-1.2-0.2-2.6,3.8-2.6,3.8s-4.7,0.8-8.4,0.5
	c-3.7-0.3-3.7-3.6-3.7-3.6v6.4C157.4,130,168.2,131.3,178.8,129.8z"/>
<path class="st1" d="M162.5,119.5c4.5-0.5,8.9-2,12.6-4.6L162.5,119.5z"/>
<path class="st0" d="M162.5,119.9c-0.2,0-0.4-0.1-0.4-0.3c0-0.2,0.1-0.4,0.3-0.4c4.4-0.5,8.8-2,12.5-4.5c0.2-0.1,0.4-0.1,0.5,0.1
	c0.1,0.2,0.1,0.4-0.1,0.5C171.5,117.8,167.1,119.4,162.5,119.9C162.5,119.9,162.5,119.9,162.5,119.9z"/>
<path class="st1" d="M160.6,119.6c0,0,0.4,0,1,0L160.6,119.6z"/>
<path class="st0" d="M160.6,120L160.6,120c-0.2,0-0.4-0.2-0.4-0.4s0.2-0.4,0.4-0.4c0,0,0.4,0,1,0c0.2,0,0.4,0.1,0.4,0.3
	s-0.1,0.4-0.3,0.4C161,120,160.6,120,160.6,120z"/>
<path class="st1" d="M164.2,96.2l-1.9-0.7l-1.8,1.7l1.3-5.3l1.6-1.2l0.8,0.5l3.6-0.1l2.8,0.2l1.3-0.4l1.4,1.4l-3.1,6l-1.3-2.3
	l-2.9,0.4L164.2,96.2z"/>
<path class="st7" d="M164.2,96.2l-1.9-0.7l-1.8,1.7l1.3-5.3l1.6-1.2l0.8,0.5l3.6-0.1l2.8,0.2l1.3-0.4l1.4,1.4l-3.1,6l-1.3-2.3
	l-2.9,0.4L164.2,96.2z"/>
<path class="st0" d="M170.2,98.8c-0.2,0-0.3-0.1-0.4-0.2l-1.2-2l-2.6,0.3c0,0-0.1,0-0.1,0l-1.7-0.2c0,0-0.1,0-0.1,0l-1.6-0.6
	l-1.6,1.5c-0.2,0.2-0.4,0.2-0.6,0.1c-0.2-0.1-0.3-0.3-0.2-0.6l1.3-5.3c0-0.1,0.1-0.2,0.2-0.3l1.6-1.2c0.2-0.1,0.4-0.1,0.6,0l0.7,0.4
	l3.4-0.1l2.7,0.2l1.2-0.4c0.2-0.1,0.4,0,0.5,0.1l1.4,1.4c0.2,0.2,0.2,0.4,0.1,0.6l-3.1,6C170.6,98.7,170.4,98.8,170.2,98.8
	C170.2,98.8,170.2,98.8,170.2,98.8z M168.9,95.5c0.2,0,0.3,0.1,0.4,0.2l0.9,1.5l2.6-4.9l-0.9-0.9l-1,0.3c-0.1,0-0.1,0-0.2,0
	l-2.8-0.2l-3.5,0.1c-0.1,0-0.2,0-0.3-0.1l-0.5-0.3l-1.2,0.9l-0.9,3.5l0.5-0.5c0.1-0.1,0.3-0.2,0.5-0.1l1.8,0.7l1.6,0.2L168.9,95.5
	C168.9,95.5,168.9,95.5,168.9,95.5z"/>
<path class="st8" d="M170.4,92.3l-0.4-6.5l-4.1,0.7l-0.9,3.1l-0.9,2.6l-0.4,0l1.1,6.1l5.9-6L170.4,92.3z"/>
<g>
	<path class="st0" d="M160.3,86.2c0,1.7,0.3,5.4,2.5,5.8c2.4,0.4,5-2.2,6-3.3c0.2-0.3,0.4-0.6,0.6-0.9l0.5-1.4c0.3,0,0.7,0,1-0.2
		H160.3z"/>
	<path class="st0" d="M163.4,92.3c-0.2,0-0.4,0-0.6-0.1c-2.5-0.5-2.7-4.4-2.7-6c0-0.1,0.1-0.3,0.3-0.3h10.6c0.1,0,0.2,0.1,0.2,0.2
		c0,0.1,0,0.2-0.1,0.3c-0.3,0.2-0.6,0.2-0.9,0.2l-0.5,1.2c-0.1,0.4-0.3,0.7-0.6,1C168.1,89.9,165.7,92.3,163.4,92.3z M160.6,86.5
		c0,1.6,0.3,4.9,2.3,5.3c2.3,0.4,5-2.4,5.8-3.2c0.2-0.2,0.4-0.5,0.5-0.8l0.5-1.2H160.6z"/>
</g>
<path class="st0" d="M164.9,98.8c0,0-0.1,0-0.1,0c-0.2-0.1-0.3-0.2-0.3-0.4l-1.1-6.1c0-0.1,0-0.3,0.1-0.4c0.1-0.1,0.2-0.2,0.3-0.2
	l0.1,0l0.8-2.3l0.8-3c0.1-0.2,0.2-0.3,0.4-0.4l4.1-0.7c0.1,0,0.3,0,0.4,0.1s0.2,0.2,0.2,0.4l0.4,6.1c0.2,0,0.3,0.2,0.4,0.3
	s0,0.4-0.1,0.5l-5.9,6C165.2,98.8,165,98.8,164.9,98.8z M164.4,92.7l0.9,4.6l4.8-4.8c0-0.1-0.1-0.1-0.1-0.2l-0.4-6l-3.3,0.6
	l-0.8,2.8l-0.9,2.7C164.6,92.5,164.5,92.6,164.4,92.7z"/>
<g>
	<path class="st0" d="M163.1,77.8c0,0-1.9-1.5-1-2.6c0.5-0.6,1.1,0.2,1.1,0.2s-0.3-1.9,1-2.1c1.3-0.2,1.2,1.2,1.2,1.2s0.7-1.3,1.8-1
		c0.9,0.2,0.6,1.5,0.6,1.5s1.2-1.5,2.5-0.9c1.1,0.6,0.2,2,0.2,2s1.3-0.5,2,0.3c0.7,0.7,0,1.7,0,1.7s1.4,0,1.5,1.1
		c0.1,1.1-1.1,1.3-1.1,1.3s1.7,0.5,1.7,1.8s-1.1,0.9-1.1,0.9s0.7,1.2,0.1,1.9c-0.1,0.1-0.1,0.2-0.2,0.2c-0.1,0-0.2,0.1-0.3,0.1
		c-0.1,0-0.2,0-0.3-0.1c-0.1,0-0.2-0.1-0.2-0.2c0,0,0.7,1.5-0.2,2c-0.7,0.3-1-0.5-1-0.5s-0.5,1.3-1.2,0.5c-0.7-0.8-4-7.1-4-7.1
		L163.1,77.8z"/>
	<path class="st0" d="M170.6,87.8c-0.2,0-0.5-0.1-0.7-0.4c-0.6-0.8-3.6-6.3-4-7.1l-3-2.1c0,0,0,0,0,0c-0.1-0.1-1.3-1-1.4-2.1
		c0-0.4,0.1-0.8,0.3-1.1c0.2-0.3,0.5-0.4,0.7-0.4c0.1,0,0.2,0,0.3,0.1c0.1-0.7,0.4-1.6,1.4-1.8c0.6-0.1,1,0.1,1.2,0.3
		c0.2,0.1,0.3,0.3,0.3,0.5c0.4-0.4,1-0.7,1.7-0.5c0.3,0.1,0.6,0.3,0.7,0.5c0.1,0.1,0.1,0.3,0.2,0.5c0.6-0.4,1.4-0.8,2.3-0.3
		c0.4,0.2,0.6,0.5,0.7,0.8c0.1,0.3,0,0.7,0,0.9c0.5,0,1.2,0,1.7,0.5c0.5,0.5,0.5,1.2,0.3,1.7c0.6,0.1,1.2,0.5,1.3,1.4
		c0,0.6-0.3,1-0.6,1.3c0.5,0.3,1.2,0.9,1.2,1.8c0,0.5-0.2,0.9-0.5,1.1c-0.1,0.1-0.3,0.1-0.4,0.2c0.2,0.5,0.3,1.2-0.2,1.7
		c-0.1,0.1-0.2,0.2-0.4,0.3c-0.1,0.1-0.3,0.1-0.4,0.1c0.1,0.6,0,1.3-0.6,1.7c-0.4,0.2-0.8,0.1-1.1-0.1c-0.2,0.2-0.4,0.4-0.7,0.5
		C170.6,87.8,170.6,87.8,170.6,87.8z M163.3,77.5l3.1,2.2c0,0,0.1,0.1,0.1,0.1c0.9,1.7,3.4,6.4,3.9,7.1c0.1,0.1,0.1,0.1,0.2,0.1
		c0,0,0,0,0,0c0.1,0,0.3-0.3,0.4-0.6c0.1-0.1,0.2-0.2,0.3-0.2c0.1,0,0.3,0.1,0.3,0.2c0,0.1,0.2,0.4,0.5,0.3c0.6-0.3,0-1.5,0-1.5
		c-0.1-0.2,0-0.4,0.1-0.5c0.2-0.1,0.4-0.1,0.5,0.1c0,0,0.1,0.1,0.1,0.1c0.1,0,0.2,0,0.3,0c0,0,0.1-0.1,0.1-0.1
		c0.3-0.4,0-1.2-0.1-1.5c-0.1-0.1-0.1-0.3,0-0.4c0.1-0.1,0.3-0.2,0.4-0.1c0.1,0,0.3,0.1,0.4,0c0.1-0.1,0.2-0.3,0.1-0.5
		c0-1-1.4-1.5-1.4-1.5c-0.2-0.1-0.3-0.2-0.3-0.4s0.1-0.3,0.3-0.3c0.1,0,0.8-0.2,0.8-0.9c0-0.7-1.1-0.7-1.1-0.7
		c-0.1,0-0.3-0.1-0.3-0.2c-0.1-0.1,0-0.3,0-0.4c0.1-0.1,0.5-0.7,0-1.2c-0.6-0.6-1.6-0.2-1.6-0.2c-0.2,0.1-0.3,0-0.4-0.1
		c-0.1-0.1-0.1-0.3,0-0.4c0.1-0.2,0.4-0.7,0.3-1.1c0-0.2-0.1-0.3-0.3-0.4c-1-0.5-2,0.7-2,0.8c-0.1,0.1-0.3,0.2-0.5,0.1
		c-0.2-0.1-0.2-0.3-0.2-0.4c0-0.1,0.1-0.6,0-0.9c-0.1-0.1-0.1-0.1-0.3-0.2c-0.9-0.2-1.4,0.7-1.4,0.8c-0.1,0.2-0.3,0.2-0.4,0.2
		c-0.2,0-0.3-0.2-0.3-0.4c0-0.1,0-0.6-0.3-0.8c0,0-0.2-0.2-0.5-0.1c-1,0.2-0.8,1.6-0.7,1.7c0,0.2-0.1,0.3-0.2,0.4
		c-0.2,0.1-0.3,0-0.4-0.1c-0.1-0.1-0.3-0.3-0.4-0.3l0,0c0,0-0.1,0-0.1,0.1c-0.1,0.2-0.2,0.4-0.2,0.6C162.3,76.6,163,77.3,163.3,77.5
		z"/>
</g>
<g>
	<path class="st1" d="M162.5,77.9l-1.2,2.6c-0.1,0.3-0.2,0.6-0.2,0.9v0.8l-0.7,1.7c0,0.1-0.1,0.2-0.1,0.3c-0.2,0.9-1.3,5.8,1.3,6.8
		c2.2,0.9,5.4-1.2,6.5-2.1c0.3-0.2,0.5-0.5,0.7-0.8l0.8-1.2c0.3,0.1,0.7,0.1,1,0c0.3-0.1,0.6-0.3,0.8-0.6c0.7-1,1.5-1.5,0.5-2.4
		c-0.9-0.9-1.8,0.5-1.8,0.5l0.1-2.5l-1.1-1.9l-0.1-1.2c0,0-3.6-0.4-6-1.7L162.5,77.9z"/>
	<path class="st0" d="M162.8,91.4c-0.5,0-0.9-0.1-1.3-0.2c-2.8-1.1-1.7-6.2-1.5-7.2c0-0.1,0.1-0.2,0.1-0.3l0.7-1.6v-0.7
		c0-0.3,0.1-0.7,0.2-1l1.2-2.6c0,0,0,0,0,0l0.6-1c0.1-0.2,0.3-0.2,0.5-0.1c2.3,1.3,5.8,1.7,5.8,1.7c0.2,0,0.3,0.2,0.3,0.4l0,1.1
		l1,1.8c0,0.1,0.1,0.1,0,0.2l-0.1,1.5c0.2-0.1,0.4-0.2,0.6-0.2c0.3,0,0.7,0,1.1,0.4c1,1,0.4,1.7-0.1,2.4c-0.1,0.2-0.2,0.3-0.4,0.5
		c-0.2,0.3-0.6,0.6-1,0.7c-0.3,0.1-0.6,0.1-0.9,0.1l-0.6,1c-0.2,0.3-0.5,0.6-0.8,0.9C167.3,89.8,164.9,91.4,162.8,91.4z M162.8,78.1
		l-1.2,2.5c-0.1,0.2-0.2,0.5-0.2,0.7v0.8c0,0,0,0.1,0,0.1l-0.7,1.7c0,0.1-0.1,0.1-0.1,0.2c-0.1,0.6-1.2,5.4,1,6.3
		c2.1,0.8,5.3-1.4,6.2-2.1c0.3-0.2,0.5-0.4,0.6-0.7l0.8-1.2c0.1-0.1,0.3-0.2,0.4-0.2c0.3,0.1,0.5,0.1,0.8,0c0.2-0.1,0.5-0.2,0.6-0.5
		c0.1-0.2,0.3-0.4,0.4-0.5c0.6-0.7,0.7-0.9,0.2-1.4c-0.2-0.2-0.4-0.2-0.4-0.2c-0.3,0-0.7,0.5-0.8,0.6c-0.1,0.1-0.3,0.2-0.4,0.2
		c-0.2-0.1-0.3-0.2-0.3-0.4l0.1-2.4l-1-1.8c0-0.1,0-0.1,0-0.2l0-0.9c-0.9-0.1-3.5-0.5-5.5-1.5L162.8,78.1z M161.1,82.1L161.1,82.1
		L161.1,82.1z"/>
</g>
<g>
	<path class="st8" d="M162.5,77.9l-1.2,2.6c-0.1,0.3-0.2,0.6-0.2,0.9v0.8l-0.7,1.7c0,0.1-0.1,0.2-0.1,0.3c-0.2,0.9-1.3,5.8,1.3,6.8
		c2.2,0.9,5.4-1.2,6.5-2.1c0.3-0.2,0.5-0.5,0.7-0.8l0.8-1.2c0.3,0.1,0.7,0.1,1,0c0.3-0.1,0.6-0.3,0.8-0.6c0.7-1,1.5-1.5,0.5-2.4
		c-0.9-0.9-1.8,0.5-1.8,0.5l0.1-2.5l-1.1-1.9l-0.1-1.2c0,0-3.6-0.4-6-1.7L162.5,77.9z"/>
	<path class="st0" d="M162.8,91.6c-0.5,0-0.9-0.1-1.3-0.2c-2.8-1.1-1.9-5.9-1.6-7.4c0-0.1,0.1-0.2,0.1-0.3l0.6-1.6v-0.7
		c0-0.4,0.1-0.7,0.2-1.1l1.2-2.6c0,0,0,0,0-0.1l0.6-1c0.1-0.2,0.4-0.3,0.7-0.2c2.3,1.2,5.7,1.6,5.8,1.6c0.2,0,0.4,0.2,0.4,0.5l0,1.1
		l1,1.8c0,0.1,0.1,0.2,0.1,0.3l-0.1,1.3c0.1-0.1,0.3-0.1,0.4-0.1c0.3,0,0.7,0,1.2,0.4c1.1,1,0.4,1.9-0.1,2.6
		c-0.1,0.1-0.2,0.3-0.4,0.5c-0.3,0.4-0.6,0.6-1,0.8c-0.3,0.1-0.6,0.1-0.9,0.1l-0.6,0.9c-0.2,0.4-0.5,0.7-0.8,0.9
		C167.4,90,165,91.6,162.8,91.6z M162.9,78.1l-1.2,2.5c-0.1,0.2-0.1,0.4-0.1,0.6v0.8c0,0.1,0,0.1,0,0.2l-0.7,1.7
		c0,0.1,0,0.1-0.1,0.2c-0.1,0.5-1.2,5.3,1,6.2c2,0.8,5.1-1.4,6-2c0.2-0.2,0.4-0.4,0.6-0.7l0.8-1.3c0.1-0.2,0.4-0.3,0.6-0.2
		c0.2,0.1,0.5,0.1,0.7,0c0.2-0.1,0.4-0.2,0.5-0.4c0.1-0.2,0.3-0.4,0.4-0.5c0.6-0.8,0.6-0.8,0.2-1.2c-0.2-0.2-0.3-0.2-0.3-0.2
		c-0.3,0-0.6,0.4-0.7,0.6c-0.1,0.2-0.4,0.3-0.6,0.2c-0.2-0.1-0.4-0.3-0.3-0.5l0.1-2.4l-1-1.8c0-0.1-0.1-0.1-0.1-0.2l0-0.8
		c-1-0.1-3.4-0.6-5.3-1.5L162.9,78.1z M161.1,82.1L161.1,82.1L161.1,82.1z"/>
</g>
<path class="st0" d="M163.3,88c-0.3,0-0.7-0.1-1-0.3c-0.2-0.1-0.2-0.3-0.1-0.5c0.1-0.2,0.3-0.2,0.5-0.1c0.3,0.2,0.6,0.3,0.9,0.2
	c0.3-0.1,0.6-0.4,0.8-0.8c0.1-0.2,0.3-0.3,0.5-0.2c0.2,0.1,0.3,0.3,0.2,0.5c-0.3,0.6-0.7,1-1.2,1.2C163.6,88,163.5,88,163.3,88z"/>
<path class="st0" d="M164.7,83.6c-0.1,0.3-0.3,0.5-0.4,0.5c-0.1,0-0.2-0.3-0.1-0.6c0.1-0.3,0.3-0.5,0.4-0.5
	C164.7,83,164.8,83.3,164.7,83.6z"/>
<path class="st0" d="M161.9,82.7c-0.1,0.3-0.3,0.5-0.4,0.5c-0.1,0-0.2-0.3-0.1-0.6c0.1-0.3,0.3-0.5,0.4-0.5
	C161.9,82.1,161.9,82.4,161.9,82.7z"/>
<path class="st0" d="M162.7,81.8c-0.2,0-0.3-0.1-0.4-0.3c0-0.1,0-0.1-0.1-0.2c0-0.1-0.1-0.1-0.1-0.1c-0.1,0-0.1-0.1-0.2-0.1
	c-0.1,0-0.1,0-0.2,0c-0.2,0.1-0.4-0.1-0.5-0.3c-0.1-0.2,0.1-0.4,0.3-0.5c0.2,0,0.3-0.1,0.5,0c0.2,0,0.3,0.1,0.5,0.2
	c0.1,0.1,0.3,0.2,0.4,0.3c0.1,0.1,0.2,0.3,0.2,0.5C163.1,81.5,163,81.7,162.7,81.8C162.8,81.8,162.7,81.8,162.7,81.8z"/>
<path class="st0" d="M165.8,82.4c-0.1,0-0.3-0.1-0.3-0.2c-0.1-0.2-0.3-0.3-0.4-0.3c-0.3,0-0.6,0.2-0.7,0.3c-0.1,0.1-0.4,0.2-0.5,0
	c-0.1-0.1-0.2-0.4,0-0.5c0.1-0.1,0.6-0.6,1.3-0.6c0.3,0,0.6,0.2,1,0.7c0.1,0.2,0,0.4-0.1,0.5C165.9,82.3,165.8,82.4,165.8,82.4z"/>
<path class="st0" d="M161.9,86.4c-0.1,0-0.2-0.1-0.3-0.2l-0.8-1.2c-0.1-0.1-0.1-0.2,0-0.3c0-0.1,0.1-0.2,0.2-0.2
	c0.3-0.1,0.6-0.3,0.9-0.6c0.2-0.3,0.4-0.6,0.5-0.9c0-0.2,0.2-0.3,0.4-0.3c0.2,0,0.3,0.2,0.3,0.4c-0.1,0.5-0.3,0.9-0.6,1.3
	c-0.2,0.2-0.5,0.4-0.8,0.6l0.5,0.9c0.1,0.2,0.1,0.4-0.1,0.5C162.1,86.4,162,86.4,161.9,86.4z"/>
<g>
	<path class="st1" d="M167.7,131.8l-0.2,1.3c0,0.2,0,0.4,0.1,0.6c0.1,0.2,0.3,0.3,0.5,0.3l13.7,2.2c0.2,0,0.4,0,0.6-0.2
		c0.2-0.1,0.3-0.3,0.3-0.5l0.2-1.3L167.7,131.8z"/>
	<path class="st0" d="M181.9,136.7c-0.1,0-0.1,0-0.2,0l-13.7-2.2c-0.3-0.1-0.6-0.2-0.8-0.5c-0.2-0.3-0.3-0.6-0.2-0.9l0.2-1.3
		c0-0.2,0.2-0.3,0.4-0.3L183,134c0.2,0,0.3,0.2,0.3,0.4l-0.2,1.3c-0.1,0.3-0.2,0.6-0.5,0.8C182.4,136.7,182.2,136.7,181.9,136.7z
		 M168,132.3l-0.2,0.9c0,0.1,0,0.2,0.1,0.3c0.1,0.1,0.2,0.2,0.3,0.2l13.7,2.2c0.1,0,0.2,0,0.3-0.1c0.1-0.1,0.2-0.2,0.2-0.3l0.2-0.9
		L168,132.3z"/>
</g>
<path class="st1" d="M183.6,126l-13.8-2.3c-0.4-0.1-0.8,0.2-0.9,0.6l-1.4,8.3c-0.1,0.4,0.2,0.8,0.6,0.9l13.8,2.3
	c0.4,0.1,0.8-0.2,0.9-0.6l1.4-8.3C184.3,126.5,184,126.1,183.6,126z"/>
<path class="st7" d="M183.6,126l-13.8-2.3c-0.4-0.1-0.8,0.2-0.9,0.6l-1.4,8.3c-0.1,0.4,0.2,0.8,0.6,0.9l13.8,2.3
	c0.4,0.1,0.8-0.2,0.9-0.6l1.4-8.3C184.3,126.5,184,126.1,183.6,126z"/>
<path class="st0" d="M182.1,136.4c-0.1,0-0.1,0-0.2,0l-13.8-2.3c-0.3-0.1-0.6-0.2-0.8-0.5c-0.2-0.3-0.3-0.6-0.2-0.9l1.4-8.3
	c0.1-0.3,0.2-0.6,0.5-0.8s0.6-0.3,0.9-0.2l13.8,2.3c0.3,0.1,0.6,0.2,0.8,0.5s0.3,0.6,0.2,0.9l-1.4,8.3c-0.1,0.3-0.2,0.6-0.5,0.8
	C182.6,136.3,182.4,136.4,182.1,136.4z M169.7,124.3c-0.1,0-0.1,0-0.1,0c-0.1,0-0.1,0.1-0.1,0.2l-1.4,8.3c0,0.1,0,0.2,0,0.2
	c0,0.1,0.1,0.1,0.2,0.1l13.8,2.3c0.1,0,0.2,0,0.2,0c0,0,0.1-0.1,0.1-0.2l1.4-8.3c0-0.1,0-0.2,0-0.2c0-0.1-0.1-0.1-0.2-0.1l0,0
	L169.7,124.3C169.7,124.3,169.7,124.3,169.7,124.3z"/>
<g>
	<path class="st8" d="M178.3,127.6l-0.8,2.6l-2.6,1.8c-0.4,1.1-0.8,2.2-1.3,3.3c0,0.1,0,0.1,0,0.2c0,0.1,0,0.1,0.1,0.2
		c0,0.1,0.1,0.1,0.1,0.1c0.1,0,0.1,0.1,0.2,0.1c0.4,0,0.8-0.2,1-0.9c0,0,0.1,1.3,0.9,0.5c0,0,0.5,1.3,1.3,0.3c0,0,1.8,0.3,2.1-1.1
		c0.3-1.3,0.7-3.7,0.7-3.7l1.2-2.7L178.3,127.6z"/>
	<path class="st0" d="M176.6,136.7c0,0-0.1,0-0.1,0c-0.3,0-0.6-0.2-0.7-0.5c-0.2,0.1-0.4,0.1-0.6,0c-0.1,0-0.2-0.1-0.3-0.2
		c-0.3,0.2-0.7,0.3-0.9,0.3c-0.2,0-0.3-0.1-0.5-0.1c-0.1-0.1-0.2-0.2-0.3-0.3c-0.1-0.1-0.1-0.3-0.1-0.4c0-0.2,0-0.3,0.1-0.4
		c0.5-1,0.9-2.1,1.2-3.2c0-0.1,0.1-0.2,0.2-0.3l2.4-1.7l0.7-2.4c0.1-0.3,0.3-0.4,0.6-0.3l3,0.8c0.1,0,0.3,0.1,0.3,0.3s0.1,0.3,0,0.4
		l-1.1,2.7c-0.1,0.4-0.5,2.4-0.7,3.6c-0.3,1.3-1.6,1.5-2.4,1.5C177.1,136.6,176.9,136.7,176.6,136.7z M175.9,135c0,0,0.1,0,0.1,0
		c0.2,0,0.3,0.2,0.4,0.3c0.1,0.1,0.2,0.3,0.2,0.4c0,0,0.1,0,0.2-0.2c0.1-0.1,0.3-0.2,0.5-0.2c0,0,1.4,0.2,1.6-0.7
		c0.3-1.3,0.7-3.6,0.7-3.6c0,0,0-0.1,0-0.1l0.9-2.2l-2-0.5l-0.6,2.1c0,0.1-0.1,0.2-0.2,0.3l-2.4,1.7c-0.3,1-0.7,2.1-1.2,3
		c0.1,0,0.2-0.2,0.3-0.5c0.1-0.2,0.3-0.4,0.5-0.3c0.2,0,0.4,0.2,0.4,0.5c0,0.1,0,0.2,0,0.2c0,0,0,0,0,0
		C175.7,135.1,175.8,135,175.9,135z M177.5,130.2L177.5,130.2L177.5,130.2z"/>
</g>
<path class="st0" d="M175,134.9C175,134.9,174.9,134.9,175,134.9c-0.3,0-0.4-0.2-0.4-0.4l0.3-2c0-0.2,0.2-0.3,0.4-0.3
	c0.2,0,0.3,0.2,0.3,0.4l-0.3,2C175.3,134.7,175.2,134.9,175,134.9z"/>
<path class="st0" d="M177.3,135.6c-0.3,0-0.5,0-0.7-0.1c-0.1,0-0.3-0.1-0.4,0c-0.5,0.1-0.9-0.3-1.1-0.8c-0.1-0.2,0-0.4,0.2-0.5
	c0.2-0.1,0.4,0,0.5,0.2c0,0.1,0.1,0.3,0.2,0.3c0.2,0,0.4,0,0.7,0c0.4,0.1,0.9,0.2,1.8-0.2c0.2-0.1,0.4,0,0.5,0.2
	c0.1,0.2,0,0.4-0.2,0.5C178.1,135.6,177.7,135.6,177.3,135.6z"/>
<g>
	<path class="st1" d="M179.5,95.6c0,0,6.4,17.8,6.3,20.4c-0.1,2.6-4.7,13.9-4.7,13.9l-3.5-1.1l2.3-13.2l-2.1-9.2
		C177.9,106.3,177.4,99.5,179.5,95.6z"/>
	<path class="st0" d="M181.2,130.3c0,0-0.1,0-0.2,0l-3.5-1.1c-0.2-0.1-0.4-0.3-0.3-0.6l2.3-13.1l-2.1-9.1c0-0.4-0.5-7,1.7-11
		c0.1-0.2,0.3-0.3,0.5-0.3c0.2,0,0.4,0.1,0.4,0.3c0.7,1.8,6.4,17.9,6.3,20.5c-0.1,2.6-4.5,13.6-4.7,14
		C181.5,130.2,181.4,130.3,181.2,130.3z M178.2,128.4l2.7,0.8c1.6-4,4.4-11.4,4.5-13.3c0.1-1.9-3.9-13.4-5.8-19
		c-1.5,3.8-1.1,9.3-1.1,9.3l2.1,9.1c0,0.1,0,0.1,0,0.2L178.2,128.4z"/>
</g>
<path class="st0" d="M180.8,115.5c-0.1,0-0.2-0.1-0.3-0.1c-0.1-0.2-0.1-0.4,0.1-0.5c0.3-0.2,0.6-0.4,1-0.4c0.3-0.1,0.7-0.1,1,0
	c0.2,0,0.3,0.3,0.3,0.5c0,0.2-0.2,0.3-0.5,0.3c-0.2-0.1-0.5-0.1-0.7,0c-0.2,0-0.5,0.2-0.6,0.3C180.9,115.5,180.9,115.5,180.8,115.5z
	"/>
<path class="st1" d="M176.6,129c-0.1-0.2-0.2-0.4-0.3-0.6c-0.2,0-0.5,0.1-0.7,0.2s-0.3,0.4-0.3,0.6c0,0.2,0,0.5,0.2,0.7
	c0.2,0.2,0.4,0.3,0.6,0.4c0.3,0,0.5,0,0.7-0.2c0.2-0.1,0.4-0.4,0.4-0.6C177,129.4,176.8,129.2,176.6,129z"/>
<path class="st1" d="M51.9,91.5l0.8,3.8l-8.6,0.4l1.5-10.6l5.8,0.7L51.9,91.5z"/>
<g>
	<path class="st0" d="M55.8,85.7l-7.2,2.1c0.1,0.8,0.3,1.6,0.5,2.4c0.4,1.2,3,3.4,4.7,3.4c1.7,0,1.9-5.3,1.9-5.3l1-0.6
		c0.1,0,0.1-0.1,0.1-0.1c0-0.1,0.1-0.1,0.1-0.2c0-0.1,0-0.1,0-0.2c0-0.1,0-0.1-0.1-0.2L55.8,85.7z"/>
	<path class="st0" d="M53.8,94c-1.9,0-4.6-2.3-5-3.6c-0.3-0.8-0.4-1.7-0.5-2.5c0-0.2,0.1-0.3,0.3-0.4l7.2-2.1c0.2,0,0.3,0,0.4,0.1
		l1,1.4c0.1,0.1,0.1,0.2,0.1,0.3c0,0.1,0,0.2,0,0.4c0,0.1-0.1,0.2-0.1,0.3c-0.1,0.1-0.2,0.2-0.3,0.2L56,88.5
		C56,89.8,55.6,94,53.8,94C53.8,94,53.8,94,53.8,94z M49,88.1c0.1,0.7,0.2,1.4,0.5,2.1c0.4,1.1,2.8,3.1,4.3,3.1c0,0,0,0,0,0
		c0.9,0,1.4-3,1.5-5c0-0.1,0.1-0.3,0.2-0.3l1.4-0.7l-0.4,0.1l-0.9-1.2L49,88.1z"/>
</g>
<path class="st0" d="M44.1,96.2c-0.1,0-0.3-0.1-0.4-0.2c-0.1-0.1-0.1-0.3-0.1-0.4L45.1,85c0-0.3,0.3-0.5,0.6-0.4l5.8,0.7
	c0.2,0,0.4,0.2,0.4,0.4l0.5,5.7l0.8,3.8c0,0.1,0,0.3-0.1,0.4s-0.2,0.2-0.4,0.2L44.1,96.2C44.1,96.2,44.1,96.2,44.1,96.2z M46,85.6
	l-1.3,9.5l7.4-0.3l-0.7-3.2c0,0,0,0,0-0.1l-0.5-5.3L46,85.6z"/>
<g>
	<path class="st0" d="M52.3,78c0,0,2.1,0.4,1.9-1.8c-0.2-2.3-4.1-0.9-6.1-0.6c-2,0.3-8.6,2.7-6.3,6.6c0,0-1.4,2.2,3.6,5.8
		c0,0,2.3-1.1,3.6,0.5l1-2l2.6-4.5L52.3,78z"/>
	<path class="st0" d="M49,89c-0.2,0-0.3-0.1-0.4-0.2c-1-1.3-3-0.4-3-0.4c-0.2,0.1-0.4,0.1-0.5-0.1c-4.3-3.2-4.1-5.4-3.8-6.2
		c-0.5-1-0.6-2.1-0.1-3c1.2-2.6,5.5-3.9,6.9-4.1c0.4-0.1,0.9-0.1,1.4-0.3c1.7-0.3,3.6-0.7,4.6,0c0.4,0.3,0.6,0.7,0.7,1.3
		c0.1,0.9-0.1,1.5-0.6,1.9c-0.4,0.4-0.9,0.5-1.3,0.5L53,82c0,0.1,0,0.2-0.1,0.3l-2.6,4.5l-1,1.9C49.4,88.9,49.2,89,49,89
		C49,89,49,89,49,89z M47.1,87.1c0.6,0,1.2,0.1,1.8,0.6l0.7-1.4l2.5-4.4l-0.2-3.9c0-0.2,0.1-0.3,0.2-0.4c0.1-0.1,0.3-0.1,0.4-0.1
		c0.2,0,0.7,0.1,1-0.2c0.2-0.2,0.3-0.6,0.3-1.1c0-0.4-0.2-0.5-0.3-0.6c-0.7-0.5-2.5-0.1-3.8,0.1c-0.5,0.1-1.1,0.2-1.5,0.3
		c-1.3,0.2-5.1,1.5-6.1,3.5c-0.4,0.7-0.3,1.5,0.2,2.3c0.1,0.2,0.1,0.4,0,0.5c0,0-0.9,1.8,3.2,5C45.8,87.3,46.4,87.1,47.1,87.1z"/>
</g>
<g>
	<path class="st0" d="M52.2,77.7c0,0,2,1.1,3.2-0.3C55.3,77.4,55.5,80.4,52.2,77.7z"/>
	<path class="st0" d="M54.4,79.3c-0.7,0-1.5-0.4-2.5-1.2c-0.2-0.2-0.2-0.5-0.1-0.7c0.1-0.2,0.4-0.3,0.7-0.2c0.1,0,1.7,0.9,2.5-0.2
		c0.1-0.2,0.3-0.2,0.5-0.2s0.3,0.2,0.3,0.5c0,0.1,0,1.4-0.9,1.8C54.8,79.3,54.6,79.3,54.4,79.3z"/>
</g>
<g>
	<path class="st1" d="M52.4,77.4c0,0,3,3.1,2.9,5.3v2l1.6,1.8c0,0,0.1,0.1,0.1,0.2c0,0.1,0,0.1,0,0.2c0,0.1,0,0.1-0.1,0.2
		c0,0.1-0.1,0.1-0.1,0.1l-0.9,0.6c0,0,0.3,5-1.3,5.2c-1.6,0.2-4.2-1.7-4.7-2.8c-0.4-1-0.7-2.1-0.9-3.1c-0.5-0.1-0.9-0.4-1.2-0.7
		c-0.3-0.4-0.5-0.8-0.6-1.3c-0.2-1.7,1.5-1.6,1.9-0.5l0.3,0.9l1.1,0c0,0-0.6-1.6-0.3-2c0.4-0.5,1.8-1.6,1.1-2.6
		C50.8,79.5,51,77.7,52.4,77.4z"/>
	<path class="st0" d="M54.3,93.4c-1.8,0-4.4-1.9-5-3.1c-0.4-1-0.7-2-0.8-3c-0.4-0.2-0.8-0.4-1.1-0.8c-0.4-0.4-0.6-1-0.7-1.5
		c-0.1-1.1,0.4-1.7,1-1.8c0.7-0.2,1.6,0.3,1.9,1l0.2,0.6l0.1,0c-0.2-0.6-0.3-1.4,0-1.9c0.1-0.1,0.2-0.2,0.3-0.3
		c0.6-0.6,1.1-1.2,0.8-1.7c-0.5-0.8-0.6-1.9-0.2-2.7c0.3-0.7,0.8-1.1,1.5-1.3c0.2,0,0.4,0,0.5,0.1c0.1,0.1,3.1,3.3,3,5.7l0,1.7
		l1.4,1.6c0.1,0.1,0.2,0.2,0.2,0.3c0,0.1,0.1,0.3,0,0.4c0,0.1-0.1,0.3-0.1,0.4c-0.1,0.1-0.2,0.2-0.3,0.3L56.4,88
		c0.1,1.5,0,5.2-1.8,5.4C54.5,93.4,54.4,93.4,54.3,93.4z M48.1,84.1C48,84.1,48,84.1,48.1,84.1c-0.4,0.1-0.4,0.5-0.3,0.7
		c0,0.4,0.2,0.7,0.4,1c0.2,0.3,0.6,0.5,0.9,0.6c0.2,0.1,0.3,0.2,0.4,0.4c0.2,1,0.4,2.1,0.8,3c0.4,0.9,2.9,2.6,4.2,2.5
		c0.6-0.1,1-2.5,0.9-4.7c0-0.2,0.1-0.3,0.2-0.4l0.9-0.6L54.9,85c-0.1-0.1-0.1-0.2-0.1-0.3v-2c0.1-1.5-1.6-3.7-2.5-4.7
		c-0.2,0.1-0.4,0.3-0.5,0.6c-0.2,0.5-0.2,1.3,0.1,1.8c0.7,1.2-0.4,2.4-0.9,3c-0.1,0.1-0.2,0.2-0.2,0.3c-0.1,0.2,0.1,0.9,0.3,1.5
		c0.1,0.2,0,0.3,0,0.5c-0.1,0.1-0.2,0.2-0.4,0.2l-1.1,0c-0.2,0-0.4-0.1-0.5-0.3l-0.3-0.9C48.6,84.3,48.3,84.1,48.1,84.1z"/>
</g>
<path class="st0" d="M55.1,89.7c-0.2,0-0.5,0-0.7-0.1c-0.3-0.1-0.5-0.4-0.7-0.7c-0.1-0.2,0-0.4,0.1-0.5c0.2-0.1,0.4,0,0.5,0.1
	c0.1,0.2,0.2,0.3,0.4,0.3c0.2,0.1,0.3,0.1,0.5,0.1c0.2,0,0.4,0.1,0.4,0.3c0,0.2-0.1,0.4-0.3,0.4C55.4,89.7,55.2,89.7,55.1,89.7z"/>
<path class="st0" d="M53.3,83.2c-0.1,0-0.2,0-0.3-0.1c-0.2-0.2-0.3-0.5-0.1-0.7c0-0.1,0.5-0.6,1.1-0.7c0.3,0,0.7,0.1,1,0.6
	c0.2,0.2,0.1,0.5-0.1,0.7c-0.2,0.2-0.5,0.1-0.7-0.1c-0.1-0.1-0.2-0.2-0.2-0.2h0c-0.1,0-0.3,0.2-0.3,0.2
	C53.6,83.1,53.5,83.2,53.3,83.2z"/>
<path class="st0" d="M54.4,84.7c0,0.3-0.1,0.5-0.3,0.5c-0.2,0-0.3-0.2-0.3-0.5c0-0.3,0.1-0.5,0.3-0.5C54.2,84.1,54.4,84.3,54.4,84.7
	z"/>
<g>
	<path class="st1" d="M40.7,179l-1.2,10.7l3.7,0.6l2-10.6L40.7,179z"/>
	<path class="st0" d="M43.2,190.8C43.2,190.8,43.1,190.8,43.2,190.8l-3.8-0.6c-0.3,0-0.5-0.3-0.4-0.6l1.2-10.7
		c0-0.1,0.1-0.3,0.2-0.3c0.1-0.1,0.2-0.1,0.4-0.1l4.5,0.7c0.1,0,0.3,0.1,0.3,0.2s0.1,0.2,0.1,0.4l-2,10.6
		C43.6,190.6,43.4,190.8,43.2,190.8z M40,189.3l2.8,0.4l1.9-9.6l-3.5-0.5L40,189.3z"/>
</g>
<g>
	<path class="st1" d="M39,131.7c0,0,0.1,6.2,2.3,10.6l0.5,16.5l-2.5,26.5l5.6,0.5l5.1-27.7l1.7-25.1L39,131.7z"/>
	<path class="st0" d="M44.9,186.3C44.9,186.3,44.9,186.3,44.9,186.3l-5.7-0.5c-0.3,0-0.5-0.3-0.5-0.5l2.5-26.5l-0.5-16.3
		c-2.2-4.4-2.3-10.4-2.3-10.7c0-0.1,0.1-0.3,0.2-0.4c0.1-0.1,0.2-0.1,0.4-0.1l12.7,1.2c0.3,0,0.5,0.3,0.5,0.5l-1.7,25.1l-5.1,27.8
		C45.4,186.1,45.2,186.3,44.9,186.3z M39.8,184.8l4.7,0.4l5-27.3l1.7-24.6l-11.7-1.1c0.1,1.6,0.5,6.3,2.3,9.8c0,0.1,0.1,0.1,0.1,0.2
		l0.5,16.5L39.8,184.8z"/>
</g>
<path class="st2" d="M50.9,145l-0.5-3l-2.1-9.3l-0.4-0.2l-8.9-0.9c0,0,0,1,0.2,2.5l4.4,2.5c0.1,1.6,0.5,3.1,1.1,4.6
	c0.1,0.1,0.1,0.3,0.1,0.4c0,0.1-0.1,0.3-0.1,0.4c-0.1,0.1-0.2,0.2-0.3,0.3c-0.1,0.1-0.3,0.1-0.4,0.1c-0.5,0-0.9,0-0.9,0.3
	c0,0.7,3.3,2.9,3.3,2.9s3.4,10.9,3.2,14.9l0.5-2.5L50.9,145z"/>
<g>
	<path class="st1" d="M52,179.7l0.4,10.8h3.7l0.4-10.8H52z"/>
	<path class="st0" d="M56.2,191h-3.7c-0.3,0-0.5-0.2-0.5-0.5l-0.4-10.8c0-0.1,0-0.3,0.1-0.4s0.2-0.2,0.4-0.2h4.5
		c0.1,0,0.3,0.1,0.4,0.2s0.1,0.2,0.1,0.4l-0.4,10.8C56.7,190.8,56.4,191,56.2,191z M52.9,190h2.8l0.4-9.8h-3.5L52.9,190z"/>
</g>
<g>
	<path class="st0" d="M62.1,192c-1.2-0.4-2.4-0.9-3.6-1.4c-0.6-0.3-1.3-1.5-1.9-1.8c-0.1-0.1-0.2-0.1-0.4-0.1c-0.1,0-0.3,0-0.4,0.1
		c-0.3,0.2-0.3,1.4-0.3,1.4s-0.5-1.2-0.8-1.4c-0.5-0.3-1.8-0.4-2.2,0c-0.7,0.6-1,2.6-1.1,3.5c0,0.2,0,1.3,0,1.3h11.5v-0.5
		c0-0.2-0.1-0.5-0.2-0.7C62.6,192.2,62.4,192.1,62.1,192z"/>
	<path class="st0" d="M62.9,194.1H51.4c-0.3,0-0.5-0.2-0.5-0.5c0-0.4,0-1.2,0-1.4l0-0.2c0.2-1.4,0.5-3,1.3-3.6
		c0.6-0.5,2.2-0.4,2.8,0c0.1,0.1,0.2,0.2,0.3,0.3c0.1-0.1,0.1-0.2,0.2-0.3c0,0,0.1-0.1,0.1-0.1c0.4-0.2,0.8-0.2,1.1,0
		c0.4,0.2,0.8,0.6,1.2,1.1c0.3,0.3,0.6,0.6,0.8,0.8c1.1,0.5,2.3,1,3.5,1.4c0,0,0,0,0,0c0.3,0.1,0.6,0.3,0.8,0.6
		c0.2,0.3,0.3,0.6,0.3,1v0.5C63.4,193.9,63.2,194.1,62.9,194.1z M51.9,193.1l10.5,0c0-0.1,0-0.3-0.1-0.4c-0.1-0.1-0.2-0.2-0.3-0.2
		c-1.3-0.4-2.5-0.9-3.7-1.5c-0.4-0.2-0.7-0.6-1.1-1c-0.3-0.3-0.6-0.7-0.9-0.8c0,0-0.1,0-0.2,0c0,0.1-0.1,0.6-0.1,1
		c0,0.2-0.2,0.4-0.4,0.5c-0.2,0-0.5-0.1-0.6-0.3c-0.2-0.5-0.5-1-0.6-1.1c-0.4-0.2-1.4-0.2-1.7,0c-0.5,0.4-0.8,2.2-0.9,3l0,0.2
		C51.9,192.5,51.9,192.8,51.9,193.1z"/>
</g>
<g>
	<path class="st1" d="M59.9,132.2l-0.9,24.9l-1.5,28.4h-5.9c0,0-1.2-21.8-0.9-28.1l-3.1-14.6c0,0-3.2-4.3-2.5-9.5L59.9,132.2z"/>
	<path class="st0" d="M57.4,186h-5.9c-0.3,0-0.5-0.2-0.5-0.5c0-0.2-1.2-21.8-0.9-28.1l-3-14.4c-0.5-0.7-3.2-4.8-2.5-9.8
		c0-0.2,0.2-0.4,0.5-0.4l14.8-1.1c0.1,0,0.3,0,0.4,0.1c0.1,0.1,0.2,0.2,0.2,0.4l-0.9,24.9l-1.5,28.4C57.9,185.8,57.7,186,57.4,186z
		 M52,185h4.9l1.5-27.9l0.9-24.3l-13.8,1c-0.5,4.8,2.4,8.7,2.4,8.8c0,0.1,0.1,0.1,0.1,0.2l3.1,14.6c0,0,0,0.1,0,0.1
		C50.8,163.1,51.8,181.8,52,185z"/>
</g>
<g>
	<path class="st1" d="M51,183.4l0.2,3.4h6.4l0.5-3.4H51z"/>
	<path class="st0" d="M57.6,187.3h-6.4c-0.3,0-0.5-0.2-0.5-0.5l-0.2-3.4c0-0.1,0-0.3,0.1-0.4c0.1-0.1,0.2-0.2,0.4-0.2h7.1
		c0.1,0,0.3,0.1,0.4,0.2c0.1,0.1,0.1,0.3,0.1,0.4l-0.5,3.4C58.1,187.1,57.9,187.3,57.6,187.3z M51.7,186.3h5.5l0.4-2.4h-6
		L51.7,186.3z"/>
</g>
<g>
	<path class="st1" d="M38.8,183.1l-0.1,3.4l6.4,0.6l0.8-3.4L38.8,183.1z"/>
	<path class="st0" d="M45.1,187.6C45.1,187.6,45,187.6,45.1,187.6l-6.4-0.6c-0.3,0-0.5-0.3-0.5-0.5l0.1-3.4c0-0.1,0.1-0.3,0.2-0.4
		c0.1-0.1,0.2-0.1,0.4-0.1l7.1,0.7c0.1,0,0.3,0.1,0.4,0.2c0.1,0.1,0.1,0.3,0.1,0.4l-0.8,3.4C45.5,187.5,45.3,187.6,45.1,187.6z
		 M39.2,186.1l5.5,0.5l0.6-2.4l-6-0.6L39.2,186.1z"/>
</g>
<g>
	<path class="st1" d="M69.6,115.9l-8.9-5.6l9.3-9.3l8.9,5.6L69.6,115.9z"/>
	<path class="st0" d="M69.6,116.4c-0.1,0-0.2,0-0.3-0.1l-8.9-5.6c-0.1-0.1-0.2-0.2-0.2-0.4s0-0.3,0.1-0.4l9.3-9.3
		c0.2-0.2,0.4-0.2,0.6-0.1l8.9,5.6c0.1,0.1,0.2,0.2,0.2,0.4s0,0.3-0.1,0.4l-9.3,9.3C69.8,116.3,69.7,116.4,69.6,116.4z M61.5,110.1
		l8,5.1l8.6-8.6l-8-5.1L61.5,110.1z"/>
</g>
<g>
	<path class="st1" d="M70.1,113.9l-7.1-4.5l7.5-7.5l7.1,4.5L70.1,113.9z"/>
	<path class="st0" d="M70.1,114.3c-0.1,0-0.1,0-0.2-0.1l-7.1-4.5c-0.1-0.1-0.2-0.2-0.2-0.3c0-0.1,0-0.2,0.1-0.3l7.5-7.5
		c0.1-0.1,0.3-0.1,0.5-0.1l7.1,4.5c0.1,0.1,0.2,0.2,0.2,0.3c0,0.1,0,0.2-0.1,0.3l-7.5,7.5C70.3,114.3,70.2,114.3,70.1,114.3z
		 M63.5,109.3l6.5,4.1l7-7l-6.5-4.1L63.5,109.3z"/>
</g>
<path class="st0" d="M70.6,106.5c-0.1,0-0.1,0-0.2-0.1l-1.6-1c-0.1-0.1-0.2-0.2-0.2-0.3c0-0.1,0-0.2,0.1-0.3l1.2-1.2
	c0.1-0.1,0.3-0.1,0.5-0.1l1.6,1c0.1,0.1,0.2,0.2,0.2,0.3c0,0.1,0,0.2-0.1,0.3l-1.2,1.2C70.8,106.5,70.7,106.5,70.6,106.5z
	 M69.6,105.1l0.9,0.6l0.7-0.7l-0.9-0.6L69.6,105.1z"/>
<path class="st0" d="M68.7,108.5c-0.1,0-0.1,0-0.2-0.1l-1.6-1c-0.1-0.1-0.2-0.2-0.2-0.3c0-0.1,0-0.2,0.1-0.3l1.2-1.2
	c0.1-0.1,0.3-0.1,0.5-0.1l1.6,1c0.1,0.1,0.2,0.2,0.2,0.3c0,0.1,0,0.2-0.1,0.3l-1.2,1.2C68.9,108.4,68.8,108.5,68.7,108.5z M67.7,107
	l1,0.6l0.7-0.7l-1-0.6L67.7,107z"/>
<path class="st0" d="M66.7,110.5c-0.1,0-0.1,0-0.2-0.1l-1.6-1c-0.1-0.1-0.2-0.2-0.2-0.3c0-0.1,0-0.2,0.1-0.3l1.2-1.2
	c0.1-0.1,0.3-0.1,0.5-0.1l1.6,1c0.1,0.1,0.2,0.2,0.2,0.3c0,0.1,0,0.2-0.1,0.3l-1.2,1.2C66.9,110.4,66.8,110.5,66.7,110.5z M65.7,109
	l1,0.6l0.7-0.7l-1-0.6L65.7,109z"/>
<g>
	<path class="st8" d="M73.6,102.3l-1.2,1.2c-0.1,0.1-0.1,0.1-0.1,0.2c0,0.1,0,0.2,0,0.2c0,0.1,0,0.2,0.1,0.2c0,0.1,0.1,0.1,0.2,0.2
		l1.7,1.1c0.2,0.1,0.4,0.2,0.6,0.1c0.2,0,0.4-0.1,0.6-0.3l1.1-1.1L73.6,102.3z"/>
	<path class="st0" d="M74.8,106.1c-0.3,0-0.6-0.1-0.8-0.2l-1.7-1.1c-0.1-0.1-0.2-0.2-0.3-0.3c-0.1-0.1-0.1-0.3-0.1-0.4
		c0-0.2,0-0.3,0.1-0.5c0.1-0.1,0.1-0.3,0.2-0.4l1.2-1.2c0.2-0.2,0.4-0.2,0.6-0.1l2.9,1.9c0.1,0.1,0.2,0.2,0.2,0.4s0,0.3-0.1,0.4
		l-1.1,1.1c-0.2,0.2-0.6,0.4-0.9,0.4C74.9,106.1,74.8,106.1,74.8,106.1z M73.7,103l-0.9,0.9l1.7,1.1c0.1,0.1,0.2,0.1,0.3,0.1
		c0.1,0,0.2-0.1,0.3-0.1l0.6-0.6L73.7,103z"/>
</g>
<g>
	<path class="st8" d="M42.1,95.1l1.5-3.4c0,0,8.9-1,11.3,6.4L42.1,95.1z"/>
	<path class="st0" d="M54.9,98.6c0,0-0.1,0-0.1,0L42,95.6c-0.1,0-0.3-0.1-0.3-0.3c-0.1-0.1-0.1-0.3,0-0.4l1.5-3.4
		c0.1-0.2,0.2-0.3,0.4-0.3c0.1,0,9.3-1,11.8,6.8c0.1,0.2,0,0.4-0.1,0.5C55.2,98.6,55.1,98.6,54.9,98.6z M42.8,94.7l11.3,2.7
		c-2.3-5.5-8.7-5.4-10.2-5.3L42.8,94.7z"/>
</g>
<g>
	<path class="st8" d="M37.1,97.9c0,0-2.2,16.8-1.6,22.8c0.5,4.7,3.6,8.7,3.6,8.7l4.6-1.8l-2.3-6.9c0,0,0.7-12.4,1.4-15.3L37.1,97.9z
		"/>
	<path class="st0" d="M39,130c-0.2,0-0.3-0.1-0.4-0.2c-0.1-0.2-3.2-4.2-3.7-9c-0.6-6,1.5-22.2,1.6-22.9c0-0.2,0.2-0.4,0.4-0.4
		c0.2-0.1,0.4,0,0.5,0.2l5.6,7.5c0.1,0.1,0.1,0.3,0.1,0.4c-0.6,2.7-1.3,14-1.4,15.2l2.3,6.8c0.1,0.3,0,0.5-0.3,0.6l-4.6,1.8
		C39.1,130,39.1,130,39,130z M37.4,99.2c-0.5,4-1.9,16.6-1.5,21.5c0.4,3.8,2.5,7.2,3.2,8.2l3.8-1.5l-2.2-6.5c0-0.1,0-0.1,0-0.2
		c0-0.5,0.7-11.9,1.4-15.2L37.4,99.2z"/>
</g>
<g>
	<path class="st8" d="M37.7,128.6l1.3,1.6l5.3-2.1l-0.7-2.1L37.7,128.6z"/>
	<path class="st0" d="M39,130.7c-0.1,0-0.3-0.1-0.4-0.2l-1.3-1.6c-0.1-0.1-0.1-0.3-0.1-0.4c0-0.2,0.1-0.3,0.3-0.3l5.9-2.6
		c0.1-0.1,0.3-0.1,0.4,0s0.2,0.2,0.3,0.3l0.7,2.1c0.1,0.3,0,0.5-0.3,0.6l-5.3,2.1C39.1,130.7,39,130.7,39,130.7z M38.5,128.8
		l0.6,0.8l4.5-1.8l-0.4-1.1L38.5,128.8z"/>
</g>
<g>
	<path class="st8" d="M37.1,97.9c0,0-0.7,9.7,1.3,16.5c2,6.8,0,18,0,18s9.1,5.9,23,1.4c0,0-1.7-33.1-4-34.9C55,97,42,90,37.1,97.9z"
		/>
	<path class="st0" d="M50.9,136c-7.8,0-12.6-3-12.9-3.2c-0.2-0.1-0.3-0.3-0.2-0.5c0-0.1,1.9-11.1,0-17.7c-2-6.8-1.3-16.3-1.3-16.6
		c0-0.1,0-0.2,0.1-0.2c1.3-2.1,3.2-3.4,5.7-3.8c5.9-1,13.4,3.1,15.3,4.6c2.4,1.9,3.9,29.7,4.2,35.3c0,0.2-0.1,0.4-0.3,0.5
		C57.6,135.5,54,136,50.9,136z M38.9,132.1c1.6,0.9,9.9,5,21.9,1.3c-0.8-15.8-2.5-33.1-3.8-34.1c-1.6-1.2-8.9-5.3-14.5-4.4
		c-2.2,0.4-3.8,1.5-5,3.2c-0.1,1.1-0.5,10,1.3,16.2C40.6,120.5,39.2,130.2,38.9,132.1z"/>
</g>
<path class="st2" d="M61.3,133.8c0,0-0.6-11.3-1.5-21.1c-2-4.9-5.3-11.4-5.5-2.3c-0.3,13.2,7.9,12.4,1.4,14.8
	c-1.4,0.5-3,0.8-4.5,0.6c-1.5-0.1-3-0.6-4.4-1.3c-0.1-0.1-0.2-0.1-0.3,0c-0.1,0-0.2,0.1-0.3,0.2c-0.1,0.1-0.1,0.2-0.1,0.3
	c0,0.1,0,0.2,0.1,0.3c1.6,2.1,4.1,3.3,6,4.1c0.2,0.1,0.3,0.2,0.4,0.3c0.1,0.2,0.1,0.3,0.1,0.5c0,0.2-0.1,0.4-0.2,0.5
	c-0.1,0.1-0.3,0.2-0.5,0.2c-6.1,0.9-10.8-2.3-13-4.2c-0.3,3.3-0.7,5.7-0.7,5.7S47.4,138.3,61.3,133.8z"/>
<path class="st8" d="M57.3,98.9c0.8,0.4,1.6,1,2.1,1.7c0.5,0.7,0.9,1.6,1,2.5c0.5,3.2,3.4,12.9,3.4,12.9l1-0.6
	c0.8,0.4,1.5,1,1.9,1.8c0.4,0.8,0.6,1.7,0.4,2.6c0,0-2.4,4.7-5,3.8c-2.7-0.9-4.2-3.1-5.5-6.7c-0.7-1.9-2.8-7.7-2.8-7.7"/>
<path class="st0" d="M62.8,124.1c-0.3,0-0.5,0-0.8-0.1c-2.6-0.9-4.3-2.9-5.8-7c-0.7-1.9-2.8-7.7-2.8-7.7l0.9-0.3
	c0,0,2.1,5.8,2.8,7.7c1.4,3.8,2.9,5.6,5.2,6.4c1.8,0.6,3.7-2.2,4.4-3.5c0.1-0.7,0-1.5-0.4-2.2c-0.3-0.6-0.8-1.1-1.4-1.4l-0.7,0.5
	c-0.1,0.1-0.3,0.1-0.4,0c-0.1-0.1-0.3-0.2-0.3-0.3c-0.1-0.4-3-9.8-3.4-13c-0.1-0.8-0.4-1.6-0.9-2.3c-0.5-0.7-1.1-1.2-1.9-1.5
	c-0.3-0.1-0.4-0.4-0.2-0.7s0.4-0.4,0.7-0.2c0.9,0.4,1.7,1.1,2.3,1.9c0.6,0.8,1,1.7,1.1,2.7c0.4,2.6,2.5,10,3.2,12.2l0.4-0.3
	c0.1-0.1,0.3-0.1,0.5,0c0.9,0.4,1.7,1.1,2.2,2c0.5,0.9,0.6,1.9,0.5,2.9c0,0.1,0,0.1,0,0.1C67.5,120.1,65.4,124.1,62.8,124.1z"/>
<path class="st0" d="M65,119.9C65,119.9,64.9,119.9,65,119.9c-0.3,0-0.4-0.2-0.4-0.4c0-0.2,0-0.4,0-0.7c0-0.2,0.1-0.4,0.4-0.4
	c0.2,0,0.4,0.1,0.4,0.4c0,0.3,0,0.6,0,0.8C65.3,119.8,65.2,119.9,65,119.9z"/>
<path class="st0" d="M63.3,121.1c-0.1,0-0.1,0-0.2-0.1c-0.2-0.1-0.2-0.3-0.1-0.5c0,0,0.7-1.2,0.6-3.8c0-0.1,0.1-0.3,0.2-0.3
	c0.1-0.1,0.3-0.1,0.4,0c0.4,0.3,0.8,0.8,1,1.3c0.1,0.2,0,0.4-0.2,0.5c-0.2,0.1-0.4,0-0.5-0.2c0-0.1-0.1-0.2-0.1-0.3
	c-0.1,2.1-0.7,3.2-0.8,3.2C63.5,121.1,63.4,121.1,63.3,121.1z"/>
<g>
	<path class="st1" d="M65.5,115.1l3.1-2.2c0.2-0.7,0.5-1.3,1-1.8c0.5-0.5,1.1-0.9,1.8-1.1c0,0,1.4-2.3,2.2-2.1
		c0.8,0.3-1,1.2-1.1,2.5l0.7,0.9c0,0,2.1-0.4,2.6-1.1c0,0-0.1,1.5-1,1.7c0,0,0,1.1-0.6,1.1l-4.2,1.2l-2.5,4.6L65.5,115.1z"/>
	<path class="st0" d="M67.5,119.3c-0.2,0-0.4-0.1-0.4-0.3l-2-3.7c-0.1-0.2-0.1-0.5,0.1-0.6l2.9-2.1c0.2-0.7,0.5-1.3,1-1.9
		c0.5-0.5,1.1-0.9,1.8-1.1c0.5-0.9,1.7-2.5,2.7-2.1c0.4,0.1,0.5,0.3,0.5,0.5c0.1,0.4-0.2,0.8-0.5,1.2c-0.3,0.3-0.6,0.7-0.7,1.1
		l0.3,0.4c0.8-0.2,1.8-0.5,2-0.8c0.1-0.2,0.4-0.2,0.6-0.2c0.2,0.1,0.3,0.3,0.3,0.5c0,0.2-0.1,1.5-1,2c0,0.3-0.1,0.7-0.4,1
		c-0.2,0.1-0.4,0.2-0.6,0.2l-4,1.1l-2.4,4.4C67.8,119.2,67.6,119.3,67.5,119.3C67.5,119.3,67.5,119.3,67.5,119.3z M66.1,115.2
		l1.3,2.5l2-3.8c0.1-0.1,0.2-0.2,0.3-0.2l4.2-1.2c0.1,0,0.1,0,0.2,0c0,0,0-0.3,0-0.6c0-0.2,0.1-0.4,0.4-0.5c0.1,0,0.1-0.1,0.2-0.1
		c-0.7,0.3-1.4,0.4-1.6,0.4c-0.2,0-0.4,0-0.5-0.2l-0.7-0.9c-0.1-0.1-0.1-0.2-0.1-0.4c0-0.2,0.1-0.4,0.2-0.6
		c-0.1,0.2-0.3,0.4-0.4,0.6c-0.1,0.1-0.2,0.2-0.3,0.2c-0.6,0.2-1.1,0.5-1.5,0.9c-0.4,0.4-0.7,1-0.8,1.6c0,0.1-0.1,0.2-0.2,0.3
		L66.1,115.2z"/>
</g>
<path class="st0" d="M52.9,126.1c-0.2,0-0.4-0.1-0.4-0.3c0-0.2,0.1-0.4,0.3-0.4c0.5,0,0.9-0.1,1.4-0.2c0.2-0.1,0.4,0.1,0.5,0.3
	c0.1,0.2-0.1,0.4-0.3,0.5C53.9,126,53.4,126,52.9,126.1C52.9,126.1,52.9,126.1,52.9,126.1z"/>
<path class="st0" d="M51.9,126.1C51.9,126.1,51.9,126.1,51.9,126.1c-6.7-0.1-11.2-6.9-11.4-7.2c-0.1-0.2-0.1-0.4,0.1-0.5
	c0.2-0.1,0.4-0.1,0.5,0.1c0,0.1,4.5,6.8,10.8,6.8c0.2,0,0.4,0.2,0.4,0.4C52.3,126,52.1,126.1,51.9,126.1z"/>
<g>
	<path class="st8" d="M64.1,115.1c0,0,3.2,2.4,2.9,5.3l1.2-2.2c0,0,0-1.9-2.7-3.8L64.1,115.1z"/>
	<path class="st0" d="M67,121c0,0-0.1,0-0.1,0c-0.2-0.1-0.4-0.3-0.4-0.5c0.3-2.6-2.7-4.9-2.7-4.9c-0.1-0.1-0.2-0.3-0.2-0.4
		s0.1-0.3,0.3-0.4l1.4-0.7c0.2-0.1,0.4-0.1,0.5,0c2.8,2.1,2.9,4.1,2.9,4.2c0,0.1,0,0.2-0.1,0.2l-1.2,2.2C67.4,120.9,67.2,121,67,121
		z M65,115.3c0.7,0.7,1.9,1.9,2.3,3.5l0.3-0.6c-0.1-0.4-0.4-1.7-2.2-3.1L65,115.3z"/>
</g>
<g>
	<path class="st1" d="M51.4,193.6h11.5v-0.5c0-0.1,0-0.2-0.1-0.4H51.4C51.4,193.1,51.4,193.6,51.4,193.6z"/>
	<path class="st0" d="M62.9,194H51.4c-0.2,0-0.4-0.2-0.4-0.4c0,0,0-0.5,0-0.9c0-0.2,0.2-0.4,0.4-0.4h11.5c0.2,0,0.3,0.1,0.4,0.3
		c0.1,0.2,0.1,0.3,0.1,0.5v0.5C63.3,193.8,63.1,194,62.9,194z M51.8,193.2h10.8v-0.1H51.8C51.8,193.2,51.8,193.2,51.8,193.2z"/>
</g>
<g>
	<path class="st0" d="M49,192c-1.2-0.4-2.4-0.9-3.6-1.4c-0.6-0.3-1.3-1.5-1.9-1.8c-0.1-0.1-0.3-0.1-0.4-0.1s-0.3,0-0.4,0.1
		c-0.3,0.2-0.3,1.4-0.3,1.4s-0.5-1.2-0.8-1.4c-0.5-0.3-1.8-0.4-2.2,0c-0.7,0.6-1,2.6-1.1,3.5c0,0.2,0,1.3,0,1.3h11.5v-0.5
		c0-0.2-0.1-0.5-0.2-0.7C49.4,192.2,49.2,192.1,49,192z"/>
	<path class="st0" d="M49.8,194.1H38.3c-0.3,0-0.5-0.2-0.5-0.5c0-0.4,0-1.2,0-1.4l0-0.2c0.2-1.4,0.5-3,1.3-3.6
		c0.6-0.5,2.2-0.4,2.8,0c0.1,0.1,0.2,0.2,0.3,0.3c0.1-0.1,0.1-0.2,0.2-0.3c0,0,0.1-0.1,0.1-0.1c0.4-0.2,0.8-0.2,1.2,0
		c0.4,0.2,0.8,0.6,1.2,1c0.3,0.3,0.6,0.7,0.8,0.8c1.1,0.5,2.3,1,3.5,1.4c0,0,0,0,0,0c0.3,0.1,0.6,0.3,0.8,0.6c0.2,0.3,0.3,0.6,0.3,1
		v0.5C50.3,193.9,50,194.1,49.8,194.1z M38.8,193.1l10.5,0c0-0.1,0-0.3-0.1-0.4c-0.1-0.1-0.2-0.2-0.3-0.2c-1.3-0.4-2.5-0.9-3.7-1.5
		c-0.4-0.2-0.7-0.6-1.1-1c-0.3-0.3-0.6-0.7-0.9-0.8l0,0c0,0-0.1,0-0.2,0c0,0.1-0.1,0.6-0.1,1c0,0.2-0.2,0.4-0.4,0.5
		c-0.2,0-0.5-0.1-0.6-0.3c-0.2-0.5-0.5-1-0.6-1.1c-0.4-0.2-1.4-0.2-1.7,0c-0.5,0.4-0.8,2.2-0.9,3l0,0.2
		C38.8,192.5,38.8,192.8,38.8,193.1z"/>
</g>
<g>
	<path class="st1" d="M38.3,193.6h11.5v-0.5c0-0.1,0-0.2-0.1-0.4H38.2C38.2,193.1,38.3,193.6,38.3,193.6z"/>
	<path class="st0" d="M49.8,194H38.3c-0.2,0-0.4-0.2-0.4-0.4c0,0,0-0.5,0-0.9c0-0.2,0.2-0.4,0.4-0.4h11.5c0.2,0,0.3,0.1,0.4,0.3
		c0.1,0.2,0.1,0.3,0.1,0.5v0.5C50.1,193.8,50,194,49.8,194z M38.6,193.2h10.8v-0.1H38.6C38.6,193.2,38.6,193.2,38.6,193.2z"/>
</g>
<path class="st0" d="M52.9,159.4c-0.3,0-0.7-0.1-1-0.2c-0.2-0.1-0.3-0.3-0.2-0.5c0.1-0.2,0.3-0.3,0.5-0.2c1.7,0.7,2.7-1.1,2.7-1.1
	c0.1-0.2,0.3-0.2,0.5-0.1c0.2,0.1,0.2,0.3,0.1,0.5C55.2,158.4,54.2,159.4,52.9,159.4z"/>
<path class="st0" d="M44.1,159.7c-0.5,0-1.1-0.1-1.7-0.5c-0.2-0.1-0.2-0.4-0.1-0.5s0.4-0.2,0.5-0.1c1.6,1.1,3.5-0.5,3.5-0.5
	c0.2-0.1,0.4-0.1,0.5,0s0.1,0.4,0,0.5C46.9,158.7,45.6,159.7,44.1,159.7z"/>
<path class="st1" d="M69.6,103.7l0.3,1.5h2.7l-2.2-0.5l0.1-1L69.6,103.7z"/>
</svg>
