<?xml version="1.0" encoding="utf-8"?>
<!-- Generator: Adobe Illustrator 24.0.2, SVG Export Plug-In . SVG Version: 6.00 Build 0)  -->
<svg version="1.1" id="Слой_1" xmlns="http://www.w3.org/2000/svg" xmlns:xlink="http://www.w3.org/1999/xlink" x="0px" y="0px"
	 viewBox="0 0 204 204" style="enable-background:new 0 0 204 204;" xml:space="preserve">
<style type="text/css">
	.st0{fill:#263238;}
	.st1{fill:#FFFFFF;}
	.st2{opacity:0.2;enable-background:new    ;}
	.st3{opacity:0.4;}
	.st4{opacity:0.4;fill:#FFFFFF;enable-background:new    ;}
	.st5{fill:#999999;}
	.st6{fill:#757575;}
	.st7{opacity:0.2;fill:#FFFFFF;enable-background:new    ;}
	.st8{opacity:0.7;}
	.st9{opacity:0.7;fill:#263238;enable-background:new    ;}
</style>
<path class="st0" d="M173.9,135.4c-0.1,0-0.1,0-0.2,0c-0.2-0.1-0.3-0.3-0.3-0.5l0.3-2.9c0-0.3,0.3-0.5,0.6-0.4
	c0.3,0,0.5,0.3,0.4,0.6l-0.1,1.2l4.5-5.3c0.1-0.1,0.3-0.2,0.4-0.2c0.6,0.1,1.3,0.1,1.9,0.1c0.3,0,0.5,0.2,0.5,0.5
	c0,0.3-0.2,0.5-0.5,0.5c0,0,0,0,0,0c-0.6,0-1.2,0-1.8-0.1l-5.4,6.3C174.2,135.4,174,135.4,173.9,135.4z"/>
<path class="st0" d="M174.4,130.4C174.4,130.4,174.4,130.4,174.4,130.4c-0.3,0-0.5-0.3-0.5-0.6l0.2-2.2c-5.8-2.3-9.3-6.9-8.8-11.7
	c0.2-1.4,0.6-2.7,1.4-3.9c0.2-0.2,0.5-0.3,0.7-0.1c0.2,0.2,0.3,0.5,0.1,0.7c-0.7,1-1.1,2.2-1.3,3.5c-0.5,4.4,2.9,8.7,8.5,10.8
	c0.2,0.1,0.3,0.3,0.3,0.5l-0.3,2.5C174.9,130.2,174.7,130.4,174.4,130.4z"/>
<path class="st0" d="M168.4,111.5c-0.1,0-0.3,0-0.3-0.1c-0.2-0.2-0.2-0.5,0-0.7c0.3-0.3,0.7-0.7,1.1-1c0.2-0.2,0.5-0.1,0.7,0.1
	s0.1,0.5-0.1,0.7c-0.3,0.3-0.7,0.6-1,0.9C168.6,111.4,168.5,111.5,168.4,111.5z"/>
<path class="st0" d="M190.2,110.5c-0.1,0-0.2,0-0.3-0.1c-2.5-1.7-5.3-2.7-8.3-3c-3.2-0.4-6.3,0.1-9.2,1.4c-0.3,0.1-0.5,0-0.7-0.3
	c-0.1-0.3,0-0.5,0.3-0.7c3.1-1.3,6.4-1.8,9.8-1.4c3.1,0.3,6.1,1.4,8.7,3.2c0.2,0.2,0.3,0.5,0.1,0.7
	C190.5,110.4,190.4,110.5,190.2,110.5z"/>
<path class="st0" d="M185.3,128.7c-0.2,0-0.4-0.2-0.5-0.4c-0.1-0.3,0.1-0.5,0.4-0.6c5.3-1.1,9-4.4,9.4-8.4c0.3-2.8-0.9-5.6-3.5-7.9
	c-0.2-0.2-0.2-0.5,0-0.7c0.2-0.2,0.5-0.2,0.7,0c2.8,2.5,4.2,5.6,3.8,8.8c-0.5,4.5-4.5,8.1-10.2,9.3
	C185.4,128.7,185.3,128.7,185.3,128.7z"/>
<path class="st0" d="M190.6,116.6C190.6,116.6,190.6,116.6,190.6,116.6c-2.7-0.4-5.7-0.8-8.5-1.7c-0.4-0.1-0.7-0.2-1.1-0.3
	c-0.4,0-0.8,0.1-1.2,0.2c-0.2,0.1-0.4,0.1-0.6,0.2c-0.9,0.2-1.7,0.1-2.2-0.4c0,0,0,0,0,0c-0.2,0.1-0.5,0-0.6-0.1c0,0,0-0.1-0.1-0.1
	l-1.5-1.2c-0.3,0.2-0.7,0.3-1.1,0.4c-0.5,0.1-1,0.1-1.6,0c-0.3-0.1-0.5-0.3-0.4-0.6c0.1-0.3,0.3-0.4,0.6-0.4c0.4,0.1,0.8,0.1,1.2,0
	c0.4-0.1,0.7-0.2,1.1-0.5c0.2-0.1,0.4-0.1,0.6,0l1.5,1.2c0,0,0.1,0,0.1,0c0.3,0,0.6,0.2,0.7,0.4c0.4,0.4,1.2,0.3,1.5,0.3
	c0.2,0,0.4-0.1,0.6-0.1c0.5-0.1,1-0.3,1.5-0.3c0.5,0,0.9,0.2,1.3,0.3c2.7,0.8,5.5,1.3,8.3,1.7c0.3,0,0.5,0.3,0.4,0.6
	C191.1,116.4,190.9,116.6,190.6,116.6z"/>
<path class="st0" d="M191.2,120.3C191.1,120.3,191.1,120.3,191.2,120.3c-3.3-0.5-6.5-1-9.7-1.7c-0.7-0.1-1.3-0.5-1.5-0.9
	c0,0-0.1,0.1-0.1,0.1c-0.1,0.2-0.3,0.2-0.5,0.2l-3.3-0.3c-0.3,0-0.5-0.2-0.5-0.5c0-0.2,0-0.4-0.1-0.6c-0.1,0-0.1,0.2-0.2,0.3
	c-0.1,0.3-0.4,0.9-1,0.8c-0.2,0-0.3-0.2-0.4-0.4l-0.1-0.4c-0.1,0.1-0.3,0.2-0.4,0.1s-0.3-0.1-0.4-0.2l-0.3-0.6
	c-0.4,0.1-1.1,0.1-2.3,0.2c-0.2,0-0.3,0-0.4,0c-0.3,0-0.5-0.2-0.5-0.5c0-0.3,0.2-0.5,0.5-0.5c0.1,0,0.3,0,0.5,0c0.5,0,2,0,2.3-0.2
	c0.1-0.1,0.2-0.1,0.4-0.1c0.1,0,0.3,0.1,0.3,0.3l0.2,0.4l0.2-0.1c0.1-0.1,0.3-0.2,0.5-0.1c0.2,0,0.3,0.2,0.3,0.4l0.1,0.2
	c0.1-0.1,0.2-0.2,0.3-0.3c0.3-0.1,0.6-0.2,0.8-0.1c0.3,0.1,0.5,0.2,0.6,0.5c0.1,0.2,0.2,0.4,0.2,0.6l2.6,0.2
	c0.2-0.3,0.5-0.5,0.9-0.6c0.2-0.1,0.3,0,0.5,0.1c0.1,0.1,0.2,0.3,0.2,0.5c0,0.2,0.4,0.5,1,0.6c3.1,0.6,6.3,1.2,9.5,1.7
	c0.3,0,0.5,0.3,0.4,0.6C191.6,120.1,191.4,120.3,191.2,120.3z"/>
<path class="st0" d="M185.3,123C185.3,123,185.2,123,185.3,123l-10.8-1.5c-0.5-0.1-0.8-0.2-1-0.4c-0.3,0.1-0.6,0.1-0.9-0.1
	c-0.1,0-0.2-0.1-0.2-0.1c-0.1-0.1-0.2-0.2-0.3-0.1c0,0-0.1,0-0.2,0.1c-0.2,0.1-0.6,0.3-1,0c-0.2-0.2-0.3-0.5-0.1-0.7
	c0.1-0.2,0.4-0.3,0.6-0.2c0,0,0.1,0,0.1-0.1c0.1-0.1,0.3-0.1,0.5-0.2c0.4,0,0.7,0.1,1,0.3c0.1,0,0.1,0.1,0.2,0.1c0,0,0,0,0.1,0
	c0.1-0.2,0.2-0.3,0.4-0.3c0.3,0,0.5,0.2,0.5,0.4c0,0,0.1,0.1,0.6,0.2l10.7,1.5c0.3,0,0.5,0.3,0.4,0.6
	C185.8,122.8,185.5,123,185.3,123z"/>
<path class="st0" d="M32,112.8c-0.2,0-0.3-0.1-0.4-0.2l-4.3-5.8c-0.2-0.2-0.1-0.5,0.1-0.7c0.2-0.2,0.5-0.1,0.7,0.1l3.2,4.3l-0.7-5.7
	c0-0.2,0.1-0.4,0.3-0.5c1-0.5,2-1.1,2.9-1.7c4.1-3,5.9-7.9,4.4-11.8c-1-2.6-3.4-4.5-6.8-5.3c-0.3-0.1-0.4-0.3-0.4-0.6
	s0.3-0.4,0.6-0.4c3.7,0.9,6.3,3,7.5,6c1.7,4.4-0.2,9.8-4.7,13c-0.8,0.6-1.8,1.2-2.7,1.6l0.8,7.2c0,0.2-0.1,0.4-0.3,0.5
	C32.2,112.8,32.1,112.8,32,112.8z"/>
<path class="st0" d="M22.1,107.9c-5.3,0-9.7-2.4-11.2-6.4c-0.5-1.3-0.7-2.7-0.6-4.1c0-0.3,0.3-0.5,0.5-0.4c0.3,0,0.5,0.3,0.4,0.5
	c-0.1,1.2,0,2.5,0.5,3.6c1.6,4.1,6.6,6.4,12.5,5.6c0.3,0,0.5,0.2,0.6,0.4c0,0.3-0.2,0.5-0.4,0.6C23.6,107.8,22.8,107.9,22.1,107.9z"
	/>
<path class="st0" d="M11.1,96.2c0,0-0.1,0-0.1,0c-0.3-0.1-0.4-0.4-0.3-0.6c0.1-0.5,0.3-0.9,0.5-1.4c0.1-0.3,0.4-0.4,0.7-0.3
	c0.3,0.1,0.4,0.4,0.3,0.7c-0.2,0.4-0.3,0.8-0.4,1.3C11.6,96,11.4,96.2,11.1,96.2z"/>
<path class="st0" d="M13.3,92c-0.1,0-0.2,0-0.3-0.1c-0.2-0.2-0.3-0.5-0.1-0.7c2.1-2.6,4.8-4.6,8-5.8c2.9-1.2,6.1-1.6,9.2-1.2
	c0.3,0,0.5,0.3,0.4,0.6c0,0.3-0.3,0.5-0.6,0.4c-3-0.4-6,0-8.8,1.2c-3,1.1-5.6,3-7.5,5.5C13.6,91.9,13.4,92,13.3,92z"/>
<path class="st0" d="M15.6,96.3c-0.2,0-0.4-0.1-0.5-0.4c-0.1-0.3,0.1-0.5,0.3-0.6c0.8-0.2,1.4-0.8,1.7-1.5c0.1-0.2,0.3-0.3,0.5-0.3
	l1.9,0.3c0,0,0.1-0.1,0.1-0.1c0.3-0.2,0.6-0.1,0.8,0c0.6,0.2,1.2-0.3,1.4-0.5c0.1-0.1,0.3-0.3,0.4-0.4c0.4-0.3,0.8-0.7,1.3-0.9
	c0.4-0.2,0.9-0.3,1.3-0.4c2.7-0.5,5.5-1.5,8.1-2.4l0.3,0.9c-2.7,0.9-5.4,1.9-8.3,2.4c-0.4,0.1-0.7,0.1-1.1,0.3
	c-0.3,0.2-0.6,0.4-1,0.8c-0.2,0.1-0.3,0.3-0.5,0.4c-0.7,0.6-1.5,0.8-2.1,0.7c0,0,0,0,0,0c-0.1,0.1-0.4,0.2-0.6,0.1c0,0-0.1,0-0.1,0
	l-1.9-0.3c-0.5,0.8-1.3,1.3-2.1,1.6C15.7,96.3,15.6,96.3,15.6,96.3z"/>
<path class="st0" d="M14.8,100c-0.2,0-0.3-0.1-0.4-0.2c-0.1-0.2-0.1-0.5,0.2-0.7c0.1,0,0.2-0.1,0.4-0.2c0.4-0.2,1.8-1,2-1.2
	c0.1-0.1,0.2-0.2,0.3-0.3c0.1,0,0.3,0,0.4,0.1l0.4,0.3c0-0.1,0-0.1,0.1-0.2c0.1-0.2,0.2-0.3,0.4-0.3c0.2,0,0.4,0,0.5,0.2l0.1,0.1
	c0-0.1,0-0.3,0.1-0.4c0.2-0.3,0.4-0.4,0.7-0.5c0.3-0.1,0.5,0,0.8,0.1c0.2,0.1,0.3,0.3,0.5,0.4l2.4-1c0.1-0.3,0.2-0.7,0.5-0.9
	c0.1-0.1,0.3-0.2,0.5-0.2c0.2,0,0.3,0.2,0.4,0.3c0.1,0.2,0.6,0.2,1.1,0.1c3.1-0.9,6.2-1.9,9.2-3c0.3-0.1,0.5,0,0.6,0.3
	s0,0.5-0.3,0.6c-3,1.1-6.2,2.1-9.3,3c-0.7,0.2-1.3,0.2-1.8,0c0,0,0,0.1,0,0.1c0,0.2-0.1,0.3-0.3,0.4l-3.1,1.3
	c-0.2,0.1-0.5,0-0.6-0.2c-0.1-0.2-0.2-0.3-0.4-0.4c0,0,0,0.2,0,0.3c0,0.3,0.1,1-0.6,1.2c-0.2,0-0.4,0-0.5-0.1l-0.3-0.3c0,0,0,0,0,0
	c0,0.1-0.2,0.3-0.3,0.3c-0.1,0.1-0.3,0-0.4,0l-0.6-0.4c-0.3,0.3-1,0.6-2,1.2c-0.2,0.1-0.3,0.2-0.4,0.2C15,100,14.9,100,14.8,100z"/>
<path class="st0" d="M18,103.3c0,0-0.1,0-0.1,0c-0.3,0-0.5-0.3-0.4-0.6c0-0.2,0.2-0.4,0.5-0.4c0,0,0.1-0.1,0.1-0.1
	c0.1-0.1,0.2-0.3,0.4-0.4c0.3-0.2,0.7-0.2,1-0.2c0.1,0,0.1,0,0.2,0c0,0,0,0,0.1,0c0-0.2,0.1-0.4,0.2-0.5c0.2-0.1,0.5-0.1,0.7,0.1
	c0,0,0.2,0.1,0.6-0.1l10.2-3.7c0.3-0.1,0.5,0,0.6,0.3c0.1,0.3,0,0.5-0.3,0.6l-10.2,3.7c-0.4,0.2-0.8,0.2-1.1,0.1
	c-0.2,0.2-0.5,0.3-0.8,0.3c-0.1,0-0.2,0-0.3,0c-0.1,0-0.3,0-0.3,0c0,0-0.1,0.1-0.1,0.2C18.7,103,18.5,103.3,18,103.3z M18.1,102.3
	C18.1,102.3,18.1,102.3,18.1,102.3C18.1,102.3,18.1,102.3,18.1,102.3z"/>
<path class="st1" d="M152.2,36.6H50.4c-2,0-3.6,1.6-3.6,3.6v91.6c0,2,1.6,3.6,3.6,3.6h101.7c2,0,3.6-1.6,3.6-3.6V40.2
	C155.7,38.2,154.1,36.6,152.2,36.6z"/>
<path class="st2" d="M155.7,90.7v41.2c0,0.9-0.4,1.8-1,2.5c-0.7,0.7-1.5,1-2.5,1H50.3c-0.9,0-1.8-0.4-2.5-1c-0.7-0.7-1-1.5-1-2.5
	v-8.2h0.2v5.5c0,0.5,0.1,1,0.3,1.5c0.2,0.5,0.5,0.9,0.9,1.3c0.4,0.4,0.8,0.7,1.3,0.9c0.5,0.2,1,0.3,1.5,0.3h98.5
	c0.5,0,1-0.1,1.5-0.3c0.5-0.2,0.9-0.5,1.3-0.9c0.4-0.4,0.7-0.8,0.9-1.3s0.3-1,0.3-1.5V96.8c0-0.7-0.3-1.4-0.8-2
	c-0.5-0.5-1.2-0.8-2-0.8H46.8v-3.3H155.7z"/>
<path class="st0" d="M152.2,135.9H50.4c-2.3,0-4.1-1.8-4.1-4.1V40.2c0-2.3,1.8-4.1,4.1-4.1h101.7c2.3,0,4.1,1.8,4.1,4.1v91.6
	C156.2,134,154.4,135.9,152.2,135.9z M50.4,37.1c-1.7,0-3.1,1.4-3.1,3.1v91.6c0,1.7,1.4,3.1,3.1,3.1h101.7c1.7,0,3.1-1.4,3.1-3.1
	V40.2c0-1.7-1.4-3.1-3.1-3.1H50.4z"/>
<path class="st0" d="M146.3,102.4v-4.7c0-0.2,0-0.5-0.1-0.7c-0.1-0.2-0.2-0.4-0.4-0.6c-0.2-0.2-0.4-0.3-0.6-0.4s-0.4-0.1-0.7-0.1
	H58.1c-0.5,0-0.9,0.2-1.2,0.5c-0.3,0.3-0.5,0.8-0.5,1.2v4.7c0,0.5-0.2,0.9-0.5,1.2c-0.3,0.3-0.8,0.5-1.2,0.5c-0.5,0-0.9,0.2-1.2,0.5
	c-0.3,0.3-0.5,0.8-0.5,1.2v9.3c0,2.1,0.9,4.2,2.4,5.7c1.5,1.5,3.6,2.4,5.7,2.4c0.3,0,0.7,0.1,0.9,0.4c0.2,0.2,0.4,0.6,0.4,0.9v2.8
	c0,1,0.4,2,1.1,2.7c0.7,0.7,1.7,1.1,2.7,1.1h70.4c1,0,2-0.4,2.7-1.1c0.7-0.7,1.1-1.7,1.1-2.7v-2.8c0-0.3,0.1-0.7,0.4-0.9
	c0.2-0.2,0.6-0.4,0.9-0.4c1.1,0,2.1-0.2,3.1-0.6c1-0.4,1.9-1,2.6-1.8c0.8-0.8,1.3-1.6,1.8-2.6c0.4-1,0.6-2,0.6-3.1v-9.3
	c0-0.5-0.2-0.9-0.5-1.2c-0.3-0.3-0.8-0.5-1.2-0.5c-0.5,0-0.9-0.2-1.2-0.5C146.4,103.3,146.3,102.9,146.3,102.4z"/>
<g>
	<path class="st1" d="M62.9,98.6h-3c-0.4,0-0.7,0.1-1,0.4c-0.3,0.3-0.4,0.6-0.4,1v0.8c0,1.6,1.3,3.6,2.9,3.6c1.6,0,2.9-2,2.9-3.6
		V100c0-0.4-0.1-0.7-0.4-1C63.7,98.8,63.3,98.6,62.9,98.6z"/>
	<path class="st0" d="M61.4,105c-1.9,0-3.4-2.3-3.4-4.1V100c0-0.5,0.2-1,0.6-1.3c0.4-0.4,0.8-0.6,1.3-0.6h3c0.5,0,1,0.2,1.3,0.6
		c0.4,0.4,0.6,0.8,0.6,1.3v0.8C64.8,102.7,63.3,105,61.4,105z M59.9,99.1c-0.2,0-0.5,0.1-0.6,0.3c-0.2,0.2-0.3,0.4-0.3,0.6v0.8
		c0,1.4,1.1,3.1,2.4,3.1c1.3,0,2.4-1.8,2.4-3.1V100c0-0.2-0.1-0.5-0.3-0.6c-0.2-0.2-0.4-0.3-0.6-0.3H59.9z"/>
</g>
<g>
	<path class="st1" d="M70.2,98.6h-3c-0.4,0-0.7,0.1-1,0.4c-0.3,0.3-0.4,0.6-0.4,1v0.8c0,1.6,1.3,3.6,2.9,3.6c1.6,0,2.9-2,2.9-3.6
		V100c0-0.4-0.1-0.7-0.4-1C70.9,98.8,70.5,98.6,70.2,98.6z"/>
	<path class="st0" d="M68.7,105c-1.9,0-3.4-2.3-3.4-4.1V100c0-0.5,0.2-1,0.6-1.3c0.4-0.4,0.8-0.6,1.3-0.6h3c0.5,0,1,0.2,1.3,0.6
		c0.4,0.4,0.6,0.8,0.6,1.3v0.8C72.1,102.7,70.6,105,68.7,105z M67.2,99.1c-0.2,0-0.5,0.1-0.6,0.3c-0.2,0.2-0.3,0.4-0.3,0.6v0.8
		c0,1.4,1.1,3.1,2.4,3.1c1.3,0,2.4-1.8,2.4-3.1V100c0-0.2-0.1-0.5-0.3-0.6c-0.2-0.2-0.4-0.3-0.6-0.3H67.2z"/>
</g>
<g>
	<path class="st1" d="M77.4,98.6h-3c-0.4,0-0.7,0.1-1,0.4c-0.3,0.3-0.4,0.6-0.4,1v0.8c0,1.6,1.3,3.6,2.9,3.6c1.6,0,2.9-2,2.9-3.6
		V100c0-0.4-0.1-0.7-0.4-1C78.2,98.8,77.8,98.6,77.4,98.6z"/>
	<path class="st0" d="M75.9,105c-1.9,0-3.4-2.3-3.4-4.1V100c0-0.5,0.2-1,0.6-1.3c0.4-0.4,0.8-0.6,1.3-0.6h3c0.5,0,1,0.2,1.3,0.6
		c0.4,0.4,0.6,0.8,0.6,1.3v0.8C79.3,102.7,77.8,105,75.9,105z M74.4,99.1c-0.2,0-0.5,0.1-0.6,0.3c-0.2,0.2-0.3,0.4-0.3,0.6v0.8
		c0,1.4,1.1,3.1,2.4,3.1c1.3,0,2.4-1.8,2.4-3.1V100c0-0.2-0.1-0.5-0.3-0.6c-0.2-0.2-0.4-0.3-0.6-0.3H74.4z"/>
</g>
<g>
	<path class="st1" d="M84.7,98.6h-3c-0.4,0-0.7,0.1-1,0.4c-0.3,0.3-0.4,0.6-0.4,1v0.8c0,1.6,1.3,3.6,2.9,3.6c1.6,0,2.9-2,2.9-3.6
		V100c0-0.2,0-0.4-0.1-0.5c-0.1-0.2-0.2-0.3-0.3-0.5s-0.3-0.2-0.5-0.3C85,98.7,84.9,98.6,84.7,98.6z"/>
	<path class="st0" d="M83.2,105c-1.9,0-3.4-2.3-3.4-4.1V100c0-0.5,0.2-1,0.6-1.3c0.4-0.4,0.8-0.6,1.3-0.6h3c0.3,0,0.5,0,0.7,0.1
		c0.2,0.1,0.4,0.2,0.6,0.4s0.3,0.4,0.4,0.6c0.1,0.2,0.1,0.5,0.1,0.7v0.8C86.6,102.7,85.1,105,83.2,105z M81.7,99.1
		c-0.2,0-0.5,0.1-0.6,0.3c-0.2,0.2-0.3,0.4-0.3,0.6v0.8c0,1.4,1.1,3.1,2.4,3.1c1.3,0,2.4-1.8,2.4-3.1V100c0-0.1,0-0.2-0.1-0.3
		c0-0.1-0.1-0.2-0.2-0.3c-0.1-0.1-0.2-0.1-0.3-0.2c-0.1,0-0.2-0.1-0.3-0.1H81.7z"/>
</g>
<g>
	<path class="st1" d="M91.9,98.6h-3c-0.4,0-0.7,0.1-1,0.4c-0.3,0.3-0.4,0.6-0.4,1v0.8c0,1.6,1.3,3.6,2.9,3.6c1.6,0,2.9-2,2.9-3.6
		V100c0-0.4-0.1-0.7-0.4-1C92.7,98.8,92.3,98.6,91.9,98.6z"/>
	<path class="st0" d="M90.4,105c-1.9,0-3.4-2.3-3.4-4.1V100c0-0.5,0.2-1,0.6-1.3c0.4-0.4,0.8-0.6,1.3-0.6h3c0.5,0,1,0.2,1.3,0.6
		c0.4,0.4,0.6,0.8,0.6,1.3v0.8C93.8,102.7,92.3,105,90.4,105z M88.9,99.1c-0.2,0-0.5,0.1-0.6,0.3c-0.2,0.2-0.3,0.4-0.3,0.6v0.8
		c0,1.4,1.1,3.1,2.4,3.1c1.3,0,2.4-1.8,2.4-3.1V100c0-0.2-0.1-0.5-0.3-0.6c-0.2-0.2-0.4-0.3-0.6-0.3H88.9z"/>
</g>
<g>
	<path class="st1" d="M99.2,98.6h-3c-0.4,0-0.7,0.1-1,0.4c-0.3,0.3-0.4,0.6-0.4,1v0.8c0,1.6,1.3,3.6,2.9,3.6c1.6,0,2.9-2,2.9-3.6
		V100c0-0.4-0.1-0.7-0.4-1C99.9,98.8,99.6,98.6,99.2,98.6z"/>
	<path class="st0" d="M97.7,105c-1.9,0-3.4-2.3-3.4-4.1V100c0-0.5,0.2-1,0.6-1.3c0.4-0.4,0.8-0.6,1.3-0.6h3c0.5,0,1,0.2,1.3,0.6
		c0.4,0.4,0.6,0.8,0.6,1.3v0.8C101.1,102.7,99.6,105,97.7,105z M96.2,99.1c-0.2,0-0.5,0.1-0.6,0.3c-0.2,0.2-0.3,0.4-0.3,0.6v0.8
		c0,1.4,1.1,3.1,2.4,3.1s2.4-1.8,2.4-3.1V100c0-0.2-0.1-0.5-0.3-0.6c-0.2-0.2-0.4-0.3-0.6-0.3H96.2z"/>
</g>
<g>
	<path class="st1" d="M106.4,98.6h-3c-0.4,0-0.7,0.1-1,0.4c-0.3,0.3-0.4,0.6-0.4,1v0.8c0,1.6,1.3,3.6,2.9,3.6c1.6,0,2.9-2,2.9-3.6
		V100c0-0.4-0.1-0.7-0.4-1C107.2,98.8,106.8,98.6,106.4,98.6z"/>
	<path class="st0" d="M104.9,105c-1.9,0-3.4-2.3-3.4-4.1V100c0-0.5,0.2-1,0.6-1.3c0.4-0.4,0.8-0.6,1.3-0.6h3c0.5,0,1,0.2,1.3,0.6
		c0.4,0.4,0.6,0.8,0.6,1.3v0.8C108.3,102.7,106.8,105,104.9,105z M103.4,99.1c-0.2,0-0.5,0.1-0.6,0.3c-0.2,0.2-0.3,0.4-0.3,0.6v0.8
		c0,1.4,1.1,3.1,2.4,3.1c1.3,0,2.4-1.8,2.4-3.1V100c0-0.2-0.1-0.5-0.3-0.6c-0.2-0.2-0.4-0.3-0.6-0.3H103.4z"/>
</g>
<g>
	<path class="st1" d="M113.7,98.6h-3c-0.4,0-0.7,0.1-1,0.4c-0.3,0.3-0.4,0.6-0.4,1v0.8c0,1.6,1.3,3.6,2.9,3.6c1.6,0,2.9-2,2.9-3.6
		V100c0-0.4-0.1-0.7-0.4-1C114.4,98.8,114,98.6,113.7,98.6z"/>
	<path class="st0" d="M112.2,105c-1.9,0-3.4-2.3-3.4-4.1V100c0-0.5,0.2-1,0.6-1.3c0.4-0.4,0.8-0.6,1.3-0.6h3c0.5,0,1,0.2,1.3,0.6
		c0.4,0.4,0.6,0.8,0.6,1.3v0.8C115.6,102.7,114.1,105,112.2,105z M110.7,99.1c-0.2,0-0.5,0.1-0.6,0.3c-0.2,0.2-0.3,0.4-0.3,0.6v0.8
		c0,1.4,1.1,3.1,2.4,3.1c1.3,0,2.4-1.8,2.4-3.1V100c0-0.2-0.1-0.5-0.3-0.6c-0.2-0.2-0.4-0.3-0.6-0.3H110.7z"/>
</g>
<g>
	<path class="st1" d="M120.9,98.6h-3c-0.2,0-0.4,0-0.5,0.1c-0.2,0.1-0.3,0.2-0.5,0.3c-0.1,0.1-0.2,0.3-0.3,0.5
		c-0.1,0.2-0.1,0.4-0.1,0.5v0.8c0,1.6,1.3,3.6,2.9,3.6c1.6,0,2.9-2,2.9-3.6V100c0-0.2,0-0.4-0.1-0.5c-0.1-0.2-0.2-0.3-0.3-0.5
		c-0.1-0.1-0.3-0.2-0.5-0.3C121.3,98.7,121.1,98.6,120.9,98.6z"/>
	<path class="st0" d="M119.4,105c-1.9,0-3.4-2.3-3.4-4.1V100c0-0.3,0-0.5,0.1-0.7c0.1-0.2,0.2-0.4,0.4-0.6c0.2-0.2,0.4-0.3,0.6-0.4
		c0.2-0.1,0.5-0.1,0.7-0.1h3c0.2,0,0.5,0,0.7,0.1c0.2,0.1,0.4,0.2,0.6,0.4c0.2,0.2,0.3,0.4,0.4,0.6c0.1,0.2,0.1,0.5,0.1,0.7v0.8
		C122.8,102.7,121.3,105,119.4,105z M117.9,99.1c-0.1,0-0.2,0-0.3,0.1c-0.1,0-0.2,0.1-0.3,0.2c-0.1,0.1-0.1,0.2-0.2,0.3
		c0,0.1-0.1,0.2-0.1,0.3v0.8c0,1.4,1.1,3.1,2.4,3.1s2.4-1.8,2.4-3.1V100c0-0.1,0-0.2-0.1-0.3c0-0.1-0.1-0.2-0.2-0.3
		c-0.1-0.1-0.2-0.1-0.3-0.2c-0.1,0-0.2-0.1-0.3-0.1c0,0,0,0,0,0H117.9z"/>
</g>
<g>
	<path class="st1" d="M128.2,98.6h-3c-0.4,0-0.7,0.1-1,0.4c-0.3,0.3-0.4,0.6-0.4,1v0.8c0,1.6,1.3,3.6,2.9,3.6c1.6,0,2.9-2,2.9-3.6
		V100c0-0.4-0.1-0.7-0.4-1C128.9,98.8,128.5,98.6,128.2,98.6z"/>
	<path class="st0" d="M126.7,105c-1.9,0-3.4-2.3-3.4-4.1V100c0-0.5,0.2-1,0.6-1.3c0.4-0.4,0.8-0.6,1.3-0.6h3c0.5,0,1,0.2,1.3,0.6
		c0.4,0.4,0.6,0.8,0.6,1.3v0.8C130.1,102.7,128.5,105,126.7,105z M125.1,99.1c-0.2,0-0.5,0.1-0.6,0.3c-0.2,0.2-0.3,0.4-0.3,0.6v0.8
		c0,1.4,1.1,3.1,2.4,3.1s2.4-1.8,2.4-3.1V100c0-0.2-0.1-0.5-0.3-0.6c-0.2-0.2-0.4-0.3-0.6-0.3H125.1z"/>
</g>
<g>
	<path class="st1" d="M135.4,98.6h-3c-0.4,0-0.7,0.1-1,0.4c-0.3,0.3-0.4,0.6-0.4,1v0.8c0,1.6,1.3,3.6,2.9,3.6c1.6,0,2.9-2,2.9-3.6
		V100c0-0.4-0.1-0.7-0.4-1C136.1,98.8,135.8,98.6,135.4,98.6z"/>
	<path class="st0" d="M133.9,105c-1.9,0-3.4-2.3-3.4-4.1V100c0-0.5,0.2-1,0.6-1.3c0.4-0.4,0.8-0.6,1.3-0.6h3c0.5,0,1,0.2,1.3,0.6
		c0.4,0.4,0.6,0.8,0.6,1.3v0.8C137.3,102.7,135.8,105,133.9,105z M132.4,99.1c-0.2,0-0.5,0.1-0.6,0.3c-0.2,0.2-0.3,0.4-0.3,0.6v0.8
		c0,1.4,1.1,3.1,2.4,3.1c1.3,0,2.4-1.8,2.4-3.1V100c0-0.2-0.1-0.5-0.3-0.6s-0.4-0.3-0.6-0.3H132.4z"/>
</g>
<g>
	<path class="st1" d="M142.7,98.6h-3c-0.4,0-0.7,0.1-1,0.4c-0.3,0.3-0.4,0.6-0.4,1v0.8c0,1.6,1.3,3.6,2.9,3.6c1.6,0,2.9-2,2.9-3.6
		V100c0-0.2,0-0.4-0.1-0.5c-0.1-0.2-0.2-0.3-0.3-0.5c-0.1-0.1-0.3-0.2-0.5-0.3C143,98.7,142.8,98.6,142.7,98.6z"/>
	<path class="st0" d="M141.2,104.9c-1.9,0-3.4-2.3-3.4-4.1V100c0-0.5,0.2-1,0.6-1.3c0.4-0.4,0.8-0.6,1.3-0.6h3c0.3,0,0.5,0,0.7,0.1
		c0.2,0.1,0.4,0.2,0.6,0.4c0.2,0.2,0.3,0.4,0.4,0.6c0.1,0.2,0.1,0.5,0.1,0.7v0.8C144.6,102.7,143.1,104.9,141.2,104.9z M139.6,99.1
		c-0.2,0-0.5,0.1-0.6,0.3c-0.2,0.2-0.3,0.4-0.3,0.6v0.8c0,1.4,1.1,3.1,2.4,3.1c1.3,0,2.4-1.7,2.4-3.1V100c0-0.1,0-0.2-0.1-0.3
		c0-0.1-0.1-0.2-0.2-0.3c-0.1-0.1-0.2-0.1-0.3-0.2c-0.1,0-0.2-0.1-0.3-0.1c0,0,0,0,0,0H139.6z"/>
</g>
<g>
	<path class="st1" d="M62.9,114h-3c-0.4,0-0.7,0.1-1,0.4c-0.3,0.3-0.4,0.6-0.4,1v0.8c0,1.6,1.3,3.6,2.9,3.6c1.6,0,2.9-2,2.9-3.6
		v-0.8c0-0.4-0.1-0.7-0.4-1C63.7,114.1,63.3,114,62.9,114z"/>
	<path class="st0" d="M61.4,120.3c-1.9,0-3.4-2.3-3.4-4.1v-0.8c0-0.5,0.2-1,0.6-1.3c0.4-0.4,0.8-0.6,1.3-0.6h3c0.5,0,1,0.2,1.3,0.6
		c0.4,0.4,0.6,0.8,0.6,1.3v0.8C64.8,118,63.3,120.3,61.4,120.3z M59.9,114.5c-0.2,0-0.5,0.1-0.6,0.3c-0.2,0.2-0.3,0.4-0.3,0.6v0.8
		c0,1.4,1.1,3.1,2.4,3.1c1.3,0,2.4-1.8,2.4-3.1v-0.8c0-0.2-0.1-0.5-0.3-0.6c-0.2-0.2-0.4-0.3-0.6-0.3H59.9z"/>
</g>
<g>
	<path class="st1" d="M70.2,114h-3c-0.4,0-0.7,0.1-1,0.4c-0.3,0.3-0.4,0.6-0.4,1v0.8c0,1.6,1.3,3.6,2.9,3.6c1.6,0,2.9-2,2.9-3.6
		v-0.8c0-0.4-0.1-0.7-0.4-1C70.9,114.1,70.5,114,70.2,114z"/>
	<path class="st0" d="M68.7,120.3c-1.9,0-3.4-2.3-3.4-4.1v-0.8c0-0.5,0.2-1,0.6-1.3c0.4-0.4,0.8-0.6,1.3-0.6h3c0.5,0,1,0.2,1.3,0.6
		c0.4,0.4,0.6,0.8,0.6,1.3v0.8C72.1,118,70.6,120.3,68.7,120.3z M67.2,114.5c-0.2,0-0.5,0.1-0.6,0.3c-0.2,0.2-0.3,0.4-0.3,0.6v0.8
		c0,1.4,1.1,3.1,2.4,3.1c1.3,0,2.4-1.8,2.4-3.1v-0.8c0-0.2-0.1-0.5-0.3-0.6c-0.2-0.2-0.4-0.3-0.6-0.3H67.2z"/>
</g>
<g>
	<path class="st1" d="M77.4,114h-3c-0.4,0-0.7,0.1-1,0.4c-0.3,0.3-0.4,0.6-0.4,1v0.8c0,1.6,1.3,3.6,2.9,3.6c1.6,0,2.9-2,2.9-3.6
		v-0.8c0-0.4-0.1-0.7-0.4-1C78.2,114.1,77.8,114,77.4,114z"/>
	<path class="st0" d="M75.9,120.3c-1.9,0-3.4-2.3-3.4-4.1v-0.8c0-0.5,0.2-1,0.6-1.3c0.4-0.4,0.8-0.6,1.3-0.6h3c0.5,0,1,0.2,1.3,0.6
		c0.4,0.4,0.6,0.8,0.6,1.3v0.8C79.3,118,77.8,120.3,75.9,120.3z M74.4,114.5c-0.2,0-0.5,0.1-0.6,0.3c-0.2,0.2-0.3,0.4-0.3,0.6v0.8
		c0,1.4,1.1,3.1,2.4,3.1c1.3,0,2.4-1.8,2.4-3.1v-0.8c0-0.2-0.1-0.5-0.3-0.6c-0.2-0.2-0.4-0.3-0.6-0.3H74.4z"/>
</g>
<g>
	<path class="st1" d="M84.7,114h-3c-0.4,0-0.7,0.1-1,0.4c-0.3,0.3-0.4,0.6-0.4,1v0.8c0,1.6,1.3,3.6,2.9,3.6c1.6,0,2.9-2,2.9-3.6
		v-0.8c0-0.2,0-0.4-0.1-0.5c-0.1-0.2-0.2-0.3-0.3-0.5c-0.1-0.1-0.3-0.2-0.5-0.3C85,114,84.9,114,84.7,114z"/>
	<path class="st0" d="M83.2,120.3c-1.9,0-3.4-2.3-3.4-4.1v-0.8c0-0.5,0.2-1,0.6-1.3c0.4-0.4,0.8-0.6,1.3-0.6h3c0.2,0,0.5,0,0.7,0.1
		c0.2,0.1,0.4,0.2,0.6,0.4c0.2,0.2,0.3,0.4,0.4,0.6c0.1,0.2,0.1,0.5,0.1,0.7v0.8C86.6,118,85.1,120.3,83.2,120.3z M81.7,114.5
		c-0.2,0-0.5,0.1-0.6,0.3c-0.2,0.2-0.3,0.4-0.3,0.6v0.8c0,1.4,1.1,3.1,2.4,3.1c1.3,0,2.4-1.8,2.4-3.1v-0.8c0-0.1,0-0.2-0.1-0.3
		c0-0.1-0.1-0.2-0.2-0.3c-0.1-0.1-0.2-0.2-0.3-0.2c-0.1,0-0.2-0.1-0.3-0.1H81.7z"/>
</g>
<g>
	<path class="st1" d="M91.9,114h-3c-0.4,0-0.7,0.1-1,0.4c-0.3,0.3-0.4,0.6-0.4,1v0.8c0,1.6,1.3,3.6,2.9,3.6c1.6,0,2.9-2,2.9-3.6
		v-0.8c0-0.4-0.1-0.7-0.4-1C92.7,114.1,92.3,114,91.9,114z"/>
	<path class="st0" d="M90.4,120.3c-1.9,0-3.4-2.3-3.4-4.1v-0.8c0-0.5,0.2-1,0.6-1.3c0.4-0.4,0.8-0.6,1.3-0.6h3c0.5,0,1,0.2,1.3,0.6
		c0.4,0.4,0.6,0.8,0.6,1.3v0.8C93.8,118,92.3,120.3,90.4,120.3z M88.9,114.5c-0.2,0-0.5,0.1-0.6,0.3c-0.2,0.2-0.3,0.4-0.3,0.6v0.8
		c0,1.4,1.1,3.1,2.4,3.1c1.3,0,2.4-1.8,2.4-3.1v-0.8c0-0.2-0.1-0.5-0.3-0.6c-0.2-0.2-0.4-0.3-0.6-0.3H88.9z"/>
</g>
<g>
	<path class="st1" d="M99.2,114h-3c-0.4,0-0.7,0.1-1,0.4c-0.3,0.3-0.4,0.6-0.4,1v0.8c0,1.6,1.3,3.6,2.9,3.6c1.6,0,2.9-2,2.9-3.6
		v-0.8c0-0.4-0.1-0.7-0.4-1C99.9,114.1,99.6,114,99.2,114z"/>
	<path class="st0" d="M97.7,120.3c-1.9,0-3.4-2.3-3.4-4.1v-0.8c0-0.5,0.2-1,0.6-1.3c0.4-0.4,0.8-0.6,1.3-0.6h3c0.5,0,1,0.2,1.3,0.6
		c0.4,0.4,0.6,0.8,0.6,1.3v0.8C101.1,118,99.6,120.3,97.7,120.3z M96.2,114.5c-0.2,0-0.5,0.1-0.6,0.3c-0.2,0.2-0.3,0.4-0.3,0.6v0.8
		c0,1.4,1.1,3.1,2.4,3.1s2.4-1.8,2.4-3.1v-0.8c0-0.2-0.1-0.5-0.3-0.6c-0.2-0.2-0.4-0.3-0.6-0.3H96.2z"/>
</g>
<g>
	<path class="st1" d="M106.4,114h-3c-0.4,0-0.7,0.1-1,0.4c-0.3,0.3-0.4,0.6-0.4,1v0.8c0,1.6,1.3,3.6,2.9,3.6c1.6,0,2.9-2,2.9-3.6
		v-0.8c0-0.4-0.1-0.7-0.4-1C107.2,114.1,106.8,114,106.4,114z"/>
	<path class="st0" d="M104.9,120.3c-1.9,0-3.4-2.3-3.4-4.1v-0.8c0-0.5,0.2-1,0.6-1.3c0.4-0.4,0.8-0.6,1.3-0.6h3c0.5,0,1,0.2,1.3,0.6
		c0.4,0.4,0.6,0.8,0.6,1.3v0.8C108.3,118,106.8,120.3,104.9,120.3z M103.4,114.5c-0.2,0-0.5,0.1-0.6,0.3c-0.2,0.2-0.3,0.4-0.3,0.6
		v0.8c0,1.4,1.1,3.1,2.4,3.1c1.3,0,2.4-1.8,2.4-3.1v-0.8c0-0.2-0.1-0.5-0.3-0.6c-0.2-0.2-0.4-0.3-0.6-0.3H103.4z"/>
</g>
<g>
	<path class="st1" d="M113.7,114h-3c-0.4,0-0.7,0.1-1,0.4c-0.3,0.3-0.4,0.6-0.4,1v0.8c0,1.6,1.3,3.6,2.9,3.6c1.6,0,2.9-2,2.9-3.6
		v-0.8c0-0.4-0.1-0.7-0.4-1C114.4,114.1,114,114,113.7,114z"/>
	<path class="st0" d="M112.2,120.3c-1.9,0-3.4-2.3-3.4-4.1v-0.8c0-0.5,0.2-1,0.6-1.3c0.3-0.4,0.8-0.6,1.3-0.6h3c0.5,0,1,0.2,1.3,0.6
		c0.4,0.4,0.6,0.8,0.6,1.3v0.8C115.6,118,114.1,120.3,112.2,120.3z M110.7,114.5c-0.2,0-0.5,0.1-0.6,0.3c-0.2,0.2-0.3,0.4-0.3,0.6
		v0.8c0,1.4,1.1,3.1,2.4,3.1c1.3,0,2.4-1.8,2.4-3.1v-0.8c0-0.2-0.1-0.5-0.3-0.6c-0.2-0.2-0.4-0.3-0.6-0.3H110.7z"/>
</g>
<g>
	<path class="st1" d="M120.9,114h-3c-0.2,0-0.4,0-0.5,0.1c-0.2,0.1-0.3,0.2-0.5,0.3c-0.1,0.1-0.2,0.3-0.3,0.5
		c-0.1,0.2-0.1,0.4-0.1,0.5v0.8c0,1.6,1.3,3.6,2.9,3.6c1.6,0,2.9-2,2.9-3.6v-0.8c0-0.2,0-0.4-0.1-0.5c-0.1-0.2-0.2-0.3-0.3-0.5
		c-0.1-0.1-0.3-0.2-0.5-0.3C121.3,114,121.1,114,120.9,114z"/>
	<path class="st0" d="M119.4,120.3c-1.9,0-3.4-2.3-3.4-4.1v-0.8c0-0.3,0-0.5,0.1-0.7s0.2-0.4,0.4-0.6c0.2-0.2,0.4-0.3,0.6-0.4
		c0.2-0.1,0.5-0.1,0.7-0.1h3c0.3,0,0.5,0,0.7,0.1c0.2,0.1,0.4,0.2,0.6,0.4c0.2,0.2,0.3,0.4,0.4,0.6c0.1,0.2,0.1,0.5,0.1,0.7v0.8
		C122.8,118,121.3,120.3,119.4,120.3z M117.9,114.5c-0.1,0-0.2,0-0.3,0.1c-0.1,0-0.2,0.1-0.3,0.2c-0.1,0.1-0.1,0.2-0.2,0.3
		s-0.1,0.2-0.1,0.3v0.8c0,1.4,1.1,3.1,2.4,3.1s2.4-1.8,2.4-3.1v-0.8c0-0.1,0-0.2-0.1-0.3c0-0.1-0.1-0.2-0.2-0.3
		c-0.1-0.1-0.2-0.1-0.3-0.2c-0.1,0-0.2-0.1-0.3-0.1c0,0,0,0,0,0H117.9z"/>
</g>
<g>
	<path class="st1" d="M128.2,114h-3c-0.4,0-0.7,0.1-1,0.4c-0.3,0.3-0.4,0.6-0.4,1v0.8c0,1.6,1.3,3.6,2.9,3.6c1.6,0,2.9-2,2.9-3.6
		v-0.8c0-0.4-0.1-0.7-0.4-1C128.9,114.1,128.5,114,128.2,114z"/>
	<path class="st0" d="M126.7,120.3c-1.9,0-3.4-2.3-3.4-4.1v-0.8c0-0.5,0.2-1,0.6-1.3c0.4-0.4,0.8-0.6,1.3-0.6h3c0.5,0,1,0.2,1.3,0.6
		c0.4,0.4,0.6,0.8,0.6,1.3v0.8C130.1,118,128.5,120.3,126.7,120.3z M125.1,114.5c-0.2,0-0.5,0.1-0.6,0.3c-0.2,0.2-0.3,0.4-0.3,0.6
		v0.8c0,1.4,1.1,3.1,2.4,3.1s2.4-1.8,2.4-3.1v-0.8c0-0.2-0.1-0.5-0.3-0.6s-0.4-0.3-0.6-0.3H125.1z"/>
</g>
<g>
	<path class="st1" d="M135.4,114h-3c-0.4,0-0.7,0.1-1,0.4c-0.3,0.3-0.4,0.6-0.4,1v0.8c0,1.6,1.3,3.6,2.9,3.6c1.6,0,2.9-2,2.9-3.6
		v-0.8c0-0.4-0.1-0.7-0.4-1C136.1,114.1,135.8,114,135.4,114z"/>
	<path class="st0" d="M133.9,120.3c-1.9,0-3.4-2.3-3.4-4.1v-0.8c0-0.5,0.2-1,0.6-1.3c0.3-0.4,0.8-0.6,1.3-0.6h3c0.5,0,1,0.2,1.3,0.6
		c0.4,0.4,0.6,0.8,0.6,1.3v0.8C137.3,118,135.8,120.3,133.9,120.3z M132.4,114.5c-0.2,0-0.5,0.1-0.6,0.3c-0.2,0.2-0.3,0.4-0.3,0.6
		v0.8c0,1.4,1.1,3.1,2.4,3.1c1.3,0,2.4-1.8,2.4-3.1v-0.8c0-0.2-0.1-0.5-0.3-0.6c-0.2-0.2-0.4-0.3-0.6-0.3H132.4z"/>
</g>
<g>
	<path class="st1" d="M142.7,114h-3c-0.4,0-0.7,0.1-1,0.4c-0.3,0.3-0.4,0.6-0.4,1v0.8c0,1.6,1.3,3.6,2.9,3.6c1.6,0,2.9-2,2.9-3.6
		v-0.8c0-0.4-0.1-0.7-0.4-1C143.4,114.1,143,114,142.7,114z"/>
	<path class="st0" d="M141.2,120.3c-1.9,0-3.4-2.3-3.4-4.1v-0.8c0-0.5,0.2-1,0.6-1.3c0.4-0.4,0.8-0.6,1.3-0.6h3c0.5,0,1,0.2,1.3,0.6
		c0.4,0.4,0.6,0.8,0.6,1.3v0.8C144.6,118,143,120.3,141.2,120.3z M139.6,114.5c-0.2,0-0.5,0.1-0.6,0.3c-0.2,0.2-0.3,0.4-0.3,0.6v0.8
		c0,1.4,1.1,3.1,2.4,3.1c1.3,0,2.4-1.8,2.4-3.1v-0.8c0-0.2-0.1-0.5-0.3-0.6c-0.2-0.2-0.4-0.3-0.6-0.3H139.6z"/>
</g>
<g>
	<path class="st1" d="M59.3,106.6h-3c-0.4,0-0.7,0.1-1,0.4c-0.3,0.3-0.4,0.6-0.4,1v0.8c0,1.6,1.3,3.6,2.9,3.6c1.6,0,2.9-2,2.9-3.6
		V108c0-0.2,0-0.4-0.1-0.5c-0.1-0.2-0.2-0.3-0.3-0.5c-0.1-0.1-0.3-0.2-0.5-0.3C59.7,106.6,59.5,106.6,59.3,106.6z"/>
	<path class="st0" d="M57.8,112.9c-1.9,0-3.4-2.3-3.4-4.1V108c0-0.5,0.2-1,0.6-1.3c0.4-0.4,0.8-0.6,1.3-0.6h3c0.3,0,0.5,0,0.7,0.1
		c0.2,0.1,0.4,0.2,0.6,0.4c0.2,0.2,0.3,0.4,0.4,0.6c0.1,0.2,0.1,0.5,0.1,0.7v0.8C61.2,110.6,59.7,112.9,57.8,112.9z M56.3,107.1
		c-0.2,0-0.5,0.1-0.6,0.3c-0.2,0.2-0.3,0.4-0.3,0.6v0.8c0,1.4,1.1,3.1,2.4,3.1c1.3,0,2.4-1.8,2.4-3.1V108c0-0.1,0-0.2-0.1-0.3
		c0-0.1-0.1-0.2-0.2-0.3c-0.1-0.1-0.2-0.1-0.3-0.2c-0.1,0-0.2-0.1-0.3-0.1c0,0,0,0,0,0H56.3z"/>
</g>
<g>
	<path class="st1" d="M66.6,106.6h-3c-0.4,0-0.7,0.1-1,0.4c-0.3,0.3-0.4,0.6-0.4,1v0.8c0,1.6,1.3,3.6,2.9,3.6c1.6,0,2.9-2,2.9-3.6
		V108c0-0.4-0.1-0.7-0.4-1C67.3,106.7,66.9,106.6,66.6,106.6z"/>
	<path class="st0" d="M65.1,112.9c-1.9,0-3.4-2.3-3.4-4.1V108c0-0.5,0.2-1,0.6-1.3c0.4-0.4,0.8-0.6,1.3-0.6h3c0.5,0,1,0.2,1.3,0.6
		c0.4,0.4,0.6,0.8,0.6,1.3v0.8C68.5,110.6,66.9,112.9,65.1,112.9z M63.5,107.1c-0.2,0-0.5,0.1-0.6,0.3c-0.2,0.2-0.3,0.4-0.3,0.6v0.8
		c0,1.4,1.1,3.1,2.4,3.1c1.3,0,2.4-1.8,2.4-3.1V108c0-0.2-0.1-0.5-0.3-0.6c-0.2-0.2-0.4-0.3-0.6-0.3H63.5z"/>
</g>
<g>
	<path class="st1" d="M73.8,106.6h-3c-0.4,0-0.7,0.1-1,0.4c-0.3,0.3-0.4,0.6-0.4,1v0.8c0,1.6,1.3,3.6,2.9,3.6c1.6,0,2.9-2,2.9-3.6
		V108c0-0.4-0.1-0.7-0.4-1C74.5,106.7,74.2,106.6,73.8,106.6z"/>
	<path class="st0" d="M72.3,112.9c-1.9,0-3.4-2.3-3.4-4.1V108c0-0.5,0.2-1,0.6-1.3c0.4-0.4,0.8-0.6,1.3-0.6h3c0.5,0,1,0.2,1.3,0.6
		c0.4,0.4,0.6,0.8,0.6,1.3v0.8C75.7,110.6,74.2,112.9,72.3,112.9z M70.8,107.1c-0.2,0-0.5,0.1-0.6,0.3c-0.2,0.2-0.3,0.4-0.3,0.6v0.8
		c0,1.4,1.1,3.1,2.4,3.1c1.3,0,2.4-1.8,2.4-3.1V108c0-0.2-0.1-0.5-0.3-0.6c-0.2-0.2-0.4-0.3-0.6-0.3H70.8z"/>
</g>
<g>
	<path class="st1" d="M81.1,106.6h-3c-0.4,0-0.7,0.1-1,0.4c-0.3,0.3-0.4,0.6-0.4,1v0.8c0,1.6,1.3,3.6,2.9,3.6c1.6,0,2.9-2,2.9-3.6
		V108c0-0.2,0-0.4-0.1-0.5c-0.1-0.2-0.2-0.3-0.3-0.5c-0.1-0.1-0.3-0.2-0.5-0.3C81.4,106.6,81.2,106.6,81.1,106.6z"/>
	<path class="st0" d="M79.5,112.9c-1.9,0-3.4-2.3-3.4-4.1V108c0-0.5,0.2-1,0.6-1.3c0.4-0.4,0.8-0.6,1.3-0.6h3c0.3,0,0.5,0,0.7,0.1
		c0.2,0.1,0.4,0.2,0.6,0.4c0.2,0.2,0.3,0.4,0.4,0.6c0.1,0.2,0.1,0.5,0.1,0.7v0.8C83,110.6,81.4,112.9,79.5,112.9z M78,107.1
		c-0.2,0-0.5,0.1-0.6,0.3c-0.2,0.2-0.3,0.4-0.3,0.6v0.8c0,1.4,1.1,3.1,2.4,3.1c1.3,0,2.4-1.8,2.4-3.1V108c0-0.1,0-0.2-0.1-0.3
		c0-0.1-0.1-0.2-0.2-0.3c-0.1-0.1-0.2-0.1-0.3-0.2c-0.1,0-0.2-0.1-0.3-0.1H78z"/>
</g>
<g>
	<path class="st1" d="M88.3,106.6h-3c-0.4,0-0.7,0.1-1,0.4c-0.3,0.3-0.4,0.6-0.4,1v0.8c0,1.6,1.3,3.6,2.9,3.6c1.6,0,2.9-2,2.9-3.6
		V108c0-0.4-0.1-0.7-0.4-1C89,106.7,88.7,106.6,88.3,106.6z"/>
	<path class="st0" d="M86.8,112.9c-1.9,0-3.4-2.3-3.4-4.1V108c0-0.5,0.2-1,0.6-1.3c0.4-0.4,0.8-0.6,1.3-0.6h3c0,0,0,0,0,0
		c0.5,0,1,0.2,1.3,0.6c0.4,0.4,0.5,0.8,0.5,1.3v0.8C90.2,110.6,88.7,112.9,86.8,112.9z M85.3,107.1c-0.2,0-0.5,0.1-0.6,0.3
		c-0.2,0.2-0.3,0.4-0.3,0.6v0.8c0,1.4,1.1,3.1,2.4,3.1c1.3,0,2.4-1.8,2.4-3.1V108c0-0.2-0.1-0.5-0.3-0.6c-0.2-0.2-0.4-0.3-0.6-0.3
		H85.3z"/>
</g>
<g>
	<path class="st1" d="M95.6,106.6h-3c-0.4,0-0.7,0.1-1,0.4c-0.3,0.3-0.4,0.6-0.4,1v0.8c0,1.6,1.3,3.6,2.9,3.6s2.9-2,2.9-3.6V108
		c0-0.4-0.1-0.7-0.4-1C96.3,106.7,95.9,106.6,95.6,106.6z"/>
	<path class="st0" d="M94,112.9c-1.9,0-3.4-2.3-3.4-4.1V108c0-0.5,0.2-1,0.6-1.3c0.4-0.4,0.8-0.6,1.3-0.6h3c0.5,0,1,0.2,1.3,0.6
		c0.4,0.4,0.6,0.8,0.6,1.3v0.8C97.5,110.6,95.9,112.9,94,112.9z M92.5,107.1c-0.2,0-0.5,0.1-0.6,0.3c-0.2,0.2-0.3,0.4-0.3,0.6v0.8
		c0,1.4,1.1,3.1,2.4,3.1s2.4-1.8,2.4-3.1V108c0-0.2-0.1-0.5-0.3-0.6c-0.2-0.2-0.4-0.3-0.6-0.3H92.5z"/>
</g>
<g>
	<path class="st1" d="M102.8,106.6h-3c-0.4,0-0.7,0.1-1,0.4c-0.3,0.3-0.4,0.6-0.4,1v0.8c0,1.6,1.3,3.6,2.9,3.6c1.6,0,2.9-2,2.9-3.6
		V108c0-0.4-0.1-0.7-0.4-1S103.2,106.6,102.8,106.6z"/>
	<path class="st0" d="M101.3,112.9c-1.9,0-3.4-2.3-3.4-4.1V108c0-0.5,0.2-1,0.6-1.3c0.4-0.4,0.8-0.6,1.3-0.6h3c0.5,0,1,0.2,1.3,0.6
		c0.4,0.4,0.6,0.8,0.6,1.3v0.8C104.7,110.6,103.2,112.9,101.3,112.9z M99.8,107.1c-0.2,0-0.5,0.1-0.6,0.3c-0.2,0.2-0.3,0.4-0.3,0.6
		v0.8c0,1.4,1.1,3.1,2.4,3.1s2.4-1.8,2.4-3.1V108c0-0.2-0.1-0.5-0.3-0.6c-0.2-0.2-0.4-0.3-0.6-0.3H99.8z"/>
</g>
<g>
	<path class="st1" d="M110.1,106.6h-3c-0.4,0-0.7,0.1-1,0.4c-0.3,0.3-0.4,0.6-0.4,1v0.8c0,1.6,1.3,3.6,2.9,3.6c1.6,0,2.9-2,2.9-3.6
		V108c0-0.4-0.1-0.7-0.4-1S110.4,106.6,110.1,106.6z"/>
	<path class="st0" d="M108.5,112.9c-1.9,0-3.4-2.3-3.4-4.1V108c0-0.5,0.2-1,0.6-1.3c0.4-0.4,0.8-0.6,1.3-0.6h3c0.5,0,1,0.2,1.3,0.6
		c0.4,0.4,0.6,0.8,0.6,1.3v0.8C111.9,110.6,110.4,112.9,108.5,112.9z M107,107.1c-0.2,0-0.5,0.1-0.6,0.3c-0.2,0.2-0.3,0.4-0.3,0.6
		v0.8c0,1.4,1.1,3.1,2.4,3.1c1.3,0,2.4-1.8,2.4-3.1V108c0-0.2-0.1-0.5-0.3-0.6c-0.2-0.2-0.4-0.3-0.6-0.3H107z"/>
</g>
<g>
	<path class="st1" d="M117.3,106.6h-3c-0.4,0-0.7,0.1-1,0.4c-0.3,0.3-0.4,0.6-0.4,1v0.8c0,1.6,1.3,3.6,2.9,3.6c1.6,0,2.9-2,2.9-3.6
		V108c0-0.4-0.1-0.7-0.4-1C118,106.7,117.7,106.6,117.3,106.6z"/>
	<path class="st0" d="M115.8,112.9c-1.9,0-3.4-2.3-3.4-4.1V108c0-0.5,0.2-1,0.6-1.3c0.4-0.4,0.8-0.6,1.3-0.6h3c0.5,0,1,0.2,1.3,0.6
		c0.4,0.4,0.6,0.8,0.6,1.3v0.8C119.2,110.6,117.7,112.9,115.8,112.9z M114.3,107.1c-0.2,0-0.5,0.1-0.6,0.3c-0.2,0.2-0.3,0.4-0.3,0.6
		v0.8c0,1.4,1.1,3.1,2.4,3.1c1.3,0,2.4-1.8,2.4-3.1V108c0-0.2-0.1-0.5-0.3-0.6c-0.2-0.2-0.4-0.3-0.6-0.3H114.3z"/>
</g>
<g>
	<path class="st1" d="M124.5,106.6h-3c-0.4,0-0.7,0.1-1,0.4c-0.3,0.3-0.4,0.6-0.4,1v0.8c0,1.6,1.3,3.6,2.9,3.6c1.6,0,2.9-2,2.9-3.6
		V108c0-0.4-0.1-0.7-0.4-1C125.3,106.7,124.9,106.6,124.5,106.6z"/>
	<path class="st0" d="M123,112.9c-1.9,0-3.4-2.3-3.4-4.1V108c0-0.5,0.2-1,0.6-1.3c0.4-0.4,0.8-0.6,1.3-0.6h3c0.5,0,1,0.2,1.3,0.6
		c0.4,0.4,0.6,0.8,0.6,1.3v0.8C126.4,110.6,124.9,112.9,123,112.9z M121.5,107.1c-0.2,0-0.5,0.1-0.6,0.3c-0.2,0.2-0.3,0.4-0.3,0.6
		v0.8c0,1.4,1.1,3.1,2.4,3.1s2.4-1.8,2.4-3.1V108c0-0.2-0.1-0.5-0.3-0.6c-0.2-0.2-0.4-0.3-0.6-0.3H121.5z"/>
</g>
<g>
	<path class="st1" d="M131.8,106.6h-3c-0.4,0-0.7,0.1-1,0.4c-0.3,0.3-0.4,0.6-0.4,1v0.8c0,1.6,1.3,3.6,2.9,3.6c1.6,0,2.9-2,2.9-3.6
		V108c0-0.4-0.1-0.7-0.4-1C132.5,106.7,132.2,106.6,131.8,106.6z"/>
	<path class="st0" d="M130.3,112.9c-1.9,0-3.4-2.3-3.4-4.1V108c0-0.5,0.2-1,0.6-1.3c0.4-0.4,0.8-0.6,1.3-0.6h3c0.5,0,1,0.2,1.3,0.6
		c0.4,0.4,0.6,0.8,0.6,1.3v0.8C133.7,110.6,132.2,112.9,130.3,112.9z M128.8,107.1c-0.2,0-0.5,0.1-0.6,0.3c-0.2,0.2-0.3,0.4-0.3,0.6
		v0.8c0,1.4,1.1,3.1,2.4,3.1s2.4-1.8,2.4-3.1V108c0-0.2-0.1-0.5-0.3-0.6c-0.2-0.2-0.4-0.3-0.6-0.3H128.8z"/>
</g>
<g>
	<path class="st1" d="M139,106.6h-3c-0.4,0-0.7,0.2-1,0.4c-0.3,0.3-0.4,0.6-0.4,1v0.8c0,1.6,1.3,3.6,2.9,3.6c1.6,0,2.9-2,2.9-3.6
		V108c0-0.2,0-0.4-0.1-0.5c-0.1-0.2-0.2-0.3-0.3-0.5c-0.1-0.1-0.3-0.2-0.5-0.3S139.2,106.6,139,106.6z"/>
	<path class="st0" d="M137.5,112.9c-1.9,0-3.4-2.3-3.4-4.1V108c0-0.5,0.2-1,0.5-1.3c0.3-0.4,0.8-0.6,1.3-0.6h3c0.2,0,0.5,0,0.7,0.1
		s0.4,0.2,0.6,0.4c0.2,0.2,0.3,0.4,0.4,0.6c0.1,0.2,0.1,0.5,0.1,0.7v0.8C141,110.6,139.4,112.9,137.5,112.9z M136,107.1
		c-0.2,0-0.5,0.1-0.6,0.3c-0.2,0.2-0.3,0.4-0.3,0.6v0.8c0,1.4,1.1,3.1,2.4,3.1c1.3,0,2.4-1.8,2.4-3.1V108c0-0.1,0-0.2-0.1-0.3
		c0-0.1-0.1-0.2-0.2-0.3c-0.1-0.1-0.2-0.1-0.3-0.2c-0.1,0-0.2-0.1-0.3-0.1c0,0,0,0,0,0H136z"/>
</g>
<g>
	<path class="st1" d="M146.3,106.6h-3c-0.4,0-0.7,0.1-1,0.4c-0.3,0.3-0.4,0.6-0.4,1v0.8c0,1.6,1.3,3.6,2.9,3.6c1.6,0,2.9-2,2.9-3.6
		V108c0-0.4-0.1-0.7-0.4-1C147,106.7,146.7,106.6,146.3,106.6z"/>
	<path class="st0" d="M144.8,112.9c-1.9,0-3.4-2.3-3.4-4.1V108c0-0.5,0.2-1,0.6-1.3s0.8-0.6,1.3-0.6h3c0.5,0,1,0.2,1.3,0.6
		c0.4,0.4,0.6,0.8,0.6,1.3v0.8C148.2,110.6,146.7,112.9,144.8,112.9z M143.3,107.1c-0.2,0-0.5,0.1-0.6,0.3c-0.2,0.2-0.3,0.4-0.3,0.6
		v0.8c0,1.4,1.1,3.1,2.4,3.1c1.3,0,2.4-1.8,2.4-3.1V108c0-0.2-0.1-0.5-0.3-0.6c-0.2-0.2-0.4-0.3-0.6-0.3H143.3z"/>
</g>
<g>
	<path class="st1" d="M129,121.7H73.6c-0.7,0-1.3,0.6-1.3,1.3v4c0,0.7,0.6,1.3,1.3,1.3H129c0.7,0,1.3-0.6,1.3-1.3v-4
		C130.3,122.3,129.7,121.7,129,121.7z"/>
	<path class="st0" d="M129,128.8H73.6c-1,0-1.8-0.8-1.8-1.8v-4c0-1,0.8-1.8,1.8-1.8H129c1,0,1.8,0.8,1.8,1.8v4
		C130.8,128,130,128.8,129,128.8z M73.6,122.2c-0.4,0-0.8,0.4-0.8,0.8v4c0,0.4,0.4,0.8,0.8,0.8H129c0.4,0,0.8-0.4,0.8-0.8v-4
		c0-0.4-0.4-0.8-0.8-0.8H73.6z"/>
</g>
<g>
	<path class="st1" d="M136.4,122.1h-3c-0.4,0-0.7,0.1-1,0.4c-0.3,0.3-0.4,0.6-0.4,1v0.8c0,1.6,1.3,3.6,2.9,3.6c1.6,0,2.9-2,2.9-3.6
		v-0.8c0-0.4-0.1-0.7-0.4-1C137.1,122.3,136.8,122.1,136.4,122.1z"/>
	<path class="st0" d="M134.9,128.4c-1.9,0-3.4-2.3-3.4-4.1v-0.8c0-0.5,0.2-1,0.6-1.3c0.3-0.4,0.8-0.6,1.3-0.6h3c0.5,0,1,0.2,1.3,0.6
		c0.4,0.4,0.6,0.8,0.6,1.3v0.8C138.3,126.2,136.8,128.4,134.9,128.4z M133.4,122.6c-0.2,0-0.5,0.1-0.6,0.3c-0.2,0.2-0.3,0.4-0.3,0.6
		v0.8c0,1.4,1.1,3.1,2.4,3.1c1.3,0,2.4-1.8,2.4-3.1v-0.8c0-0.2-0.1-0.5-0.3-0.6c-0.2-0.2-0.4-0.3-0.6-0.3H133.4z"/>
</g>
<g>
	<path class="st1" d="M69.2,122.1h-3c-0.4,0-0.7,0.1-1,0.4c-0.3,0.3-0.4,0.6-0.4,1v0.8c0,1.6,1.3,3.6,2.9,3.6s2.9-2,2.9-3.6v-0.8
		c0-0.4-0.1-0.7-0.4-1C69.9,122.3,69.6,122.1,69.2,122.1z"/>
	<path class="st0" d="M67.7,128.4c-1.9,0-3.4-2.3-3.4-4.1v-0.8c0-0.5,0.2-1,0.6-1.3c0.4-0.4,0.8-0.6,1.3-0.6h3c0.5,0,1,0.2,1.3,0.6
		c0.4,0.4,0.6,0.8,0.6,1.3v0.8C71.1,126.2,69.6,128.4,67.7,128.4z M66.2,122.6c-0.2,0-0.5,0.1-0.6,0.3c-0.2,0.2-0.3,0.4-0.3,0.6v0.8
		c0,1.4,1.1,3.1,2.4,3.1c1.3,0,2.4-1.8,2.4-3.1v-0.8c0-0.2-0.1-0.5-0.3-0.6c-0.2-0.2-0.4-0.3-0.6-0.3H66.2z"/>
</g>
<path class="st2" d="M63.1,100.8c0.1,0,0.3,0,0.4,0c0,0,0-0.1,0-0.1V100c0-0.2-0.1-0.3-0.2-0.4c-0.1-0.1-0.3-0.2-0.4-0.2h-3
	c-0.2,0-0.3,0.1-0.4,0.2c-0.1,0.1-0.2,0.3-0.2,0.4v0.8c0,1.1,0.8,2.5,1.8,2.8C60.8,102.4,61.5,100.8,63.1,100.8z"/>
<path class="st2" d="M70.5,100.6c0.1,0,0.2,0,0.3,0V100c0-0.2-0.1-0.3-0.2-0.4c-0.1-0.1-0.3-0.2-0.4-0.2h-3c-0.2,0-0.3,0.1-0.4,0.2
	s-0.2,0.3-0.2,0.4v0.8c0,1.2,1,2.8,2,2.9C68.1,102.4,68.8,100.6,70.5,100.6z"/>
<path class="st2" d="M78,100.5L78,100.5L78,100c0-0.2-0.1-0.3-0.2-0.4c-0.1-0.1-0.3-0.2-0.4-0.2h-3c-0.2,0-0.3,0.1-0.4,0.2
	s-0.2,0.3-0.2,0.4v0.8c0,1.2,1,2.9,2.1,2.9c0.1,0,0.1,0,0.2,0C75.5,102.4,76.2,100.5,78,100.5z"/>
<path class="st2" d="M84.8,100.3c0.2,0,0.3,0,0.5,0V100c0-0.2-0.1-0.3-0.2-0.4c-0.1-0.1-0.3-0.2-0.4-0.2h-3c-0.2,0-0.3,0.1-0.4,0.2
	c-0.1,0.1-0.2,0.3-0.2,0.4v0.8c0,1.2,0.9,2.7,1.9,2.9C82.3,102.4,82.9,100.3,84.8,100.3z"/>
<path class="st2" d="M92.4,100.3h0.2V100c0-0.2-0.1-0.3-0.2-0.4c-0.1-0.1-0.3-0.2-0.4-0.2h-3c-0.2,0-0.3,0.1-0.4,0.2
	c-0.1,0.1-0.2,0.3-0.2,0.4v0.8c0,1.2,1,2.9,2.1,2.9c0.1,0,0.1,0,0.2,0C89.9,102.4,90.5,100.3,92.4,100.3z"/>
<path class="st2" d="M99.7,100.4L99.7,100.4l0.1-0.4c0-0.2-0.1-0.3-0.2-0.4c-0.1-0.1-0.3-0.2-0.4-0.2h-3c-0.2,0-0.3,0.1-0.4,0.2
	s-0.2,0.3-0.2,0.4v0.8c0,1.2,1,2.9,2.1,2.9c0.1,0,0.1,0,0.2,0C97.2,102.4,97.8,100.4,99.7,100.4z"/>
<path class="st2" d="M106.7,100.3c0.1,0,0.2,0,0.3,0V100c0-0.2-0.1-0.3-0.2-0.4c-0.1-0.1-0.3-0.2-0.4-0.2h-3c-0.2,0-0.3,0.1-0.4,0.2
	c-0.1,0.1-0.2,0.3-0.2,0.4v0.8c0,1.2,1,2.8,2.1,2.9C104.2,102.4,104.8,100.3,106.7,100.3z"/>
<path class="st2" d="M114.3,100.4V100c0-0.2-0.1-0.3-0.2-0.4c-0.1-0.1-0.3-0.2-0.4-0.2h-3c-0.2,0-0.3,0.1-0.4,0.2
	c-0.1,0.1-0.2,0.3-0.2,0.4v0.8c0,1.2,1,2.9,2.1,2.9c0.1,0,0.2,0,0.3-0.1C111.9,102.3,112.5,100.5,114.3,100.4z"/>
<path class="st2" d="M120.9,100.3c0.2,0,0.4,0,0.6,0.1V100c0-0.2-0.1-0.3-0.2-0.4c-0.1-0.1-0.3-0.2-0.4-0.2h-3
	c-0.2,0-0.3,0.1-0.4,0.2s-0.2,0.3-0.2,0.4v0.8c0,1.2,0.9,2.6,1.9,2.8C118.4,102.4,119,100.3,120.9,100.3z"/>
<path class="st2" d="M128.3,100.3c0.1,0,0.3,0,0.4,0V100c0-0.2-0.1-0.3-0.2-0.4c-0.1-0.1-0.3-0.2-0.4-0.2h-3c-0.2,0-0.3,0.1-0.4,0.2
	c-0.1,0.1-0.2,0.3-0.2,0.4v0.8c0,1.2,1,2.8,2,2.9C125.8,102.4,126.4,100.3,128.3,100.3z"/>
<path class="st2" d="M135.7,100.5c0.1,0,0.2,0,0.3,0V100c0-0.2-0.1-0.3-0.2-0.4c-0.1-0.1-0.3-0.2-0.4-0.2h-3c-0.1,0-0.2,0-0.2,0
	c-0.1,0-0.1,0.1-0.2,0.1s-0.1,0.1-0.1,0.2c0,0.1,0,0.2,0,0.2v0.8c0,1.2,1,2.8,2,2.9C133.2,102.4,133.9,100.5,135.7,100.5z"/>
<path class="st2" d="M143.3,100.4V100c0-0.2-0.1-0.3-0.2-0.4c-0.1-0.1-0.3-0.2-0.4-0.2h-3c-0.2,0-0.3,0.1-0.4,0.2
	c-0.1,0.1-0.2,0.3-0.2,0.4v0.8c0,1.2,1,2.9,2.1,2.9c0.2,0,0.3,0,0.5-0.1C141,102.3,141.6,100.5,143.3,100.4z"/>
<path class="st2" d="M63.3,115.5c0.1,0,0.2,0,0.2,0v-0.1c0-0.2-0.1-0.3-0.2-0.4c-0.1-0.1-0.3-0.2-0.4-0.2h-3c-0.2,0-0.3,0.1-0.4,0.2
	c-0.1,0.1-0.2,0.3-0.2,0.4v0.8c0,1.2,1,2.9,2.1,2.9c0.1,0,0.2,0,0.2,0C60.7,117.7,61.3,115.5,63.3,115.5z"/>
<path class="st2" d="M70.4,115.5c0.1,0,0.3,0,0.4,0v-0.1c0-0.2-0.1-0.3-0.2-0.4c-0.1-0.1-0.3-0.2-0.4-0.2h-3c-0.2,0-0.3,0.1-0.4,0.2
	s-0.2,0.3-0.2,0.4v0.8c0,1.2,1,2.9,2.1,2.9h0.1C67.8,117.8,68.4,115.5,70.4,115.5z"/>
<path class="st2" d="M77.6,115.6c0.1,0,0.3,0,0.4,0v-0.2c0-0.1,0-0.2,0-0.2c0-0.1-0.1-0.1-0.1-0.2c-0.1-0.1-0.1-0.1-0.2-0.1
	c-0.1,0-0.2,0-0.2,0h-3c-0.2,0-0.3,0.1-0.4,0.2c-0.1,0.1-0.2,0.3-0.2,0.4v0.8c0,1.2,1,2.8,2.1,2.9C75.1,117.7,75.6,115.6,77.6,115.6
	z"/>
<path class="st2" d="M85,115.6c0.1,0,0.2,0,0.3,0v-0.3c0-0.1,0-0.2,0-0.2c0-0.1-0.1-0.1-0.1-0.2c-0.1-0.1-0.1-0.1-0.2-0.1
	c-0.1,0-0.2,0-0.2,0h-3c-0.1,0-0.2,0-0.2,0c-0.1,0-0.1,0.1-0.2,0.1c-0.1,0.1-0.1,0.1-0.1,0.2c0,0.1,0,0.2,0,0.2v0.8
	c0,1.2,1,2.9,2.1,2.9h0C82.4,117.7,83,115.6,85,115.6z"/>
<path class="st2" d="M92.1,115.5c0.2,0,0.3,0,0.5,0v-0.1c0-0.2-0.1-0.3-0.2-0.4s-0.3-0.2-0.4-0.2h-3c-0.2,0-0.3,0.1-0.4,0.2
	c-0.1,0.1-0.2,0.3-0.2,0.4v0.8c0,1.2,1,2.9,2.1,2.9C89.5,117.8,90,115.5,92.1,115.5z"/>
<path class="st2" d="M99.4,115.5c0.1,0,0.2,0,0.4,0v-0.2c0-0.2-0.1-0.3-0.2-0.4c-0.1-0.1-0.3-0.2-0.4-0.2h-3c-0.2,0-0.3,0.1-0.4,0.2
	s-0.2,0.3-0.2,0.4v0.8c0,1.2,1,2.9,2.1,2.9h0.1C96.9,117.8,97.4,115.5,99.4,115.5z"/>
<path class="st2" d="M106.9,115.7L106.9,115.7l0.1-0.3c0-0.2-0.1-0.3-0.2-0.4c-0.1-0.1-0.3-0.2-0.4-0.2h-3c-0.2,0-0.3,0.1-0.4,0.2
	c-0.1,0.1-0.2,0.3-0.2,0.4v0.8c0,1.2,1,2.9,2.1,2.9c0.1,0,0.2,0,0.2,0C104.4,117.7,105,115.7,106.9,115.7z"/>
<path class="st2" d="M114.2,115.5L114.2,115.5l0-0.1c0-0.1,0-0.2,0-0.2c0-0.1-0.1-0.1-0.1-0.2c-0.1-0.1-0.1-0.1-0.2-0.1
	c-0.1,0-0.2,0-0.2,0h-3c-0.1,0-0.2,0-0.2,0c-0.1,0-0.1,0.1-0.2,0.1c-0.1,0.1-0.1,0.1-0.1,0.2c0,0.1,0,0.2,0,0.2v0.8
	c0,1.2,1,2.9,2.1,2.9c0.1,0,0.3,0,0.4-0.1C111.7,117.7,112.3,115.5,114.2,115.5z"/>
<path class="st2" d="M121.3,115.4h0.2c0-0.2-0.1-0.3-0.2-0.4c-0.1-0.1-0.3-0.2-0.4-0.2h-3c-0.2,0-0.3,0.1-0.4,0.2
	c-0.1,0.1-0.2,0.3-0.2,0.4v0.8c0,1.2,1,2.9,2.1,2.9c0.1,0,0.2,0,0.3,0C118.7,117.7,119.2,115.4,121.3,115.4z"/>
<path class="st2" d="M128.8,115.5L128.8,115.5c0-0.2-0.1-0.4-0.2-0.5c-0.1-0.1-0.3-0.2-0.4-0.2h-3c-0.2,0-0.3,0.1-0.4,0.2
	s-0.2,0.3-0.2,0.4v0.8c0,1.2,1,2.9,2.1,2.9c0.1,0,0.3,0,0.4-0.1C126.2,117.7,126.8,115.5,128.8,115.5z"/>
<path class="st2" d="M135.9,115.5h0.2v-0.1c0-0.1,0-0.2,0-0.2c0-0.1-0.1-0.1-0.1-0.2s-0.1-0.1-0.2-0.1c-0.1,0-0.2,0-0.2,0h-3
	c-0.2,0-0.3,0.1-0.4,0.2c-0.1,0.1-0.2,0.3-0.2,0.4v0.8c0,1.2,1,2.9,2.1,2.9c0.1,0,0.2,0,0.3,0C133.3,117.7,133.8,115.5,135.9,115.5z
	"/>
<path class="st2" d="M143,115.8c0.1,0,0.2,0,0.3,0v-0.4c0-0.2-0.1-0.3-0.2-0.4c-0.1-0.1-0.3-0.2-0.4-0.2h-3c-0.2,0-0.3,0.1-0.4,0.2
	c-0.1,0.1-0.2,0.3-0.2,0.4v0.8c0,1.2,1,2.9,2.1,2.9C140.5,117.7,141.1,115.8,143,115.8z"/>
<path class="st2" d="M59.9,108.2L59.9,108.2l0.1-0.2c0-0.2-0.1-0.3-0.2-0.4c-0.1-0.1-0.3-0.2-0.4-0.2h-3c-0.2,0-0.3,0.1-0.4,0.2
	c-0.1,0.1-0.2,0.3-0.2,0.4v0.8c0,1.2,1,2.9,2.1,2.9c0.1,0,0.2,0,0.3,0C57.3,110.3,57.9,108.2,59.9,108.2z"/>
<path class="st2" d="M67,108.2h0.2v-0.2c0-0.2-0.1-0.3-0.2-0.4c-0.1-0.1-0.3-0.2-0.4-0.2h-3c-0.2,0-0.3,0.1-0.4,0.2
	s-0.2,0.3-0.2,0.4v0.8c0,1.2,1,2.9,2.1,2.9c0.1,0,0.1,0,0.2,0C64.4,110.3,65,108.2,67,108.2z"/>
<path class="st2" d="M74.4,108.2L74.4,108.2l0-0.2c0-0.2-0.1-0.3-0.2-0.4c-0.1-0.1-0.3-0.2-0.4-0.2h-3c-0.1,0-0.2,0-0.2,0
	c-0.1,0-0.1,0.1-0.2,0.1c-0.1,0.1-0.1,0.1-0.1,0.2c0,0.1,0,0.2,0,0.2v0.8c0,1.2,1,2.9,2.1,2.9c0.1,0,0.2,0,0.3-0.1
	C71.9,110.3,72.4,108.2,74.4,108.2z"/>
<path class="st2" d="M81.5,108.1h0.2V108c0-0.2-0.1-0.3-0.2-0.4c-0.1-0.1-0.3-0.2-0.4-0.2h-3c-0.2,0-0.3,0.1-0.4,0.2
	c-0.1,0.1-0.2,0.3-0.2,0.4v0.8c0,1.2,1,2.9,2.1,2.9c0.1,0,0.1,0,0.2,0C78.9,110.3,79.5,108.1,81.5,108.1z"/>
<path class="st2" d="M88.5,108.2c0.1,0,0.3,0,0.4,0V108c0-0.2-0.1-0.3-0.2-0.4c-0.1-0.1-0.3-0.2-0.4-0.2h-3c-0.2,0-0.3,0.1-0.4,0.2
	c-0.1,0.1-0.2,0.3-0.2,0.4v0.8c0,1.2,1,2.9,2.1,2.9C86,110.3,86.6,108.2,88.5,108.2z"/>
<path class="st2" d="M95.8,107.9c0.1,0,0.2,0,0.3,0c0-0.2-0.1-0.3-0.2-0.4c-0.1-0.1-0.3-0.2-0.4-0.2h-3c-0.2,0-0.3,0.1-0.4,0.2
	s-0.2,0.3-0.2,0.4v0.8c0,1.2,1,2.9,2.1,2.9c0.1,0,0.2,0,0.2,0C93.2,110.3,93.7,107.9,95.8,107.9z"/>
<path class="st2" d="M103.1,108.2c0.1,0,0.2,0,0.3,0v-0.3c0-0.2-0.1-0.3-0.2-0.4c-0.1-0.1-0.3-0.2-0.4-0.2h-3
	c-0.2,0-0.3,0.1-0.4,0.2c-0.1,0.1-0.2,0.3-0.2,0.4v0.8c0,1.2,1,2.9,2.1,2.9h0.1C100.6,110.3,101.2,108.2,103.1,108.2z"/>
<path class="st2" d="M110.7,108c0-0.2-0.1-0.3-0.2-0.4s-0.3-0.2-0.4-0.2h-3c-0.1,0-0.2,0-0.2,0c-0.1,0-0.1,0.1-0.2,0.1
	s-0.1,0.1-0.1,0.2c0,0.1,0,0.2,0,0.2v0.8c0,1.2,1,2.9,2.1,2.9c0.2,0,0.4-0.1,0.6-0.2C108.3,110.2,108.8,108.1,110.7,108z"/>
<path class="st2" d="M117.9,108.1V108c0-0.2-0.1-0.3-0.2-0.4c-0.1-0.1-0.3-0.2-0.4-0.2h-3c-0.2,0-0.3,0.1-0.4,0.2
	c-0.1,0.1-0.2,0.3-0.2,0.4v0.8c0,1.2,1,2.9,2.1,2.9c0.2,0,0.3,0,0.5-0.1C115.6,110.2,116.1,108.2,117.9,108.1z"/>
<path class="st2" d="M124.9,108c0.1,0,0.2,0,0.3,0v-0.1c0-0.2-0.1-0.3-0.2-0.4s-0.3-0.2-0.4-0.2h-3c-0.2,0-0.3,0.1-0.4,0.2
	c-0.1,0.1-0.2,0.3-0.2,0.4v0.8c0,1.2,1,2.9,2.1,2.9c0.1,0,0.2,0,0.2,0C122.3,110.3,122.9,108,124.9,108z"/>
<path class="st2" d="M132.4,108.3V108c0-0.2-0.1-0.3-0.2-0.4c-0.1-0.1-0.3-0.2-0.4-0.2h-3c-0.2,0-0.3,0.1-0.4,0.2
	c-0.1,0.1-0.2,0.3-0.2,0.4v0.8c0,1.2,1,2.9,2.1,2.9c0.1,0,0.2,0,0.4-0.1C130,110.3,130.6,108.3,132.4,108.3z"/>
<path class="st2" d="M139.3,108.1c0.1,0,0.2,0,0.3,0V108c0-0.2-0.1-0.3-0.2-0.4c-0.1-0.1-0.3-0.2-0.4-0.2h-3c-0.1,0-0.2,0-0.2,0
	s-0.1,0.1-0.2,0.1s-0.1,0.1-0.1,0.2c0,0.1,0,0.2,0,0.2v0.8c0,1.2,1,2.9,2.1,2.9c0,0,0.1,0,0.1,0
	C136.7,110.3,137.3,108.1,139.3,108.1z"/>
<path class="st2" d="M146.6,108.4c0.1,0,0.2,0,0.3,0V108c0-0.2-0.1-0.3-0.2-0.4c-0.1-0.1-0.3-0.2-0.4-0.2h-3c-0.2,0-0.3,0.1-0.4,0.2
	c-0.1,0.1-0.2,0.3-0.2,0.4v0.8c0,1.2,1,2.9,2.1,2.9C144.1,110.3,144.7,108.4,146.6,108.4z"/>
<path class="st2" d="M129.5,127v-4c0-0.3-0.2-0.5-0.5-0.5H73.6c-0.3,0-0.5,0.2-0.5,0.5v4c0,0.3,0.2,0.5,0.5,0.5H129
	C129.3,127.5,129.5,127.3,129.5,127z"/>
<path class="st2" d="M137,123.9v-0.4c0-0.1,0-0.2,0-0.2c0-0.1-0.1-0.1-0.1-0.2s-0.1-0.1-0.2-0.1c-0.1,0-0.2,0-0.2,0h-3
	c-0.1,0-0.2,0-0.2,0c-0.1,0-0.1,0.1-0.2,0.1s-0.1,0.1-0.1,0.2c0,0.1,0,0.2,0,0.2v0.8c0,1.2,1,2.9,2.1,2.9c0.1,0,0.2,0,0.3,0
	C134.5,125.8,135.2,123.9,137,123.9z"/>
<path class="st2" d="M69.5,123.7c0.1,0,0.2,0,0.4,0v-0.2c0-0.2-0.1-0.3-0.2-0.4c-0.1-0.1-0.3-0.2-0.4-0.2h-3c-0.2,0-0.3,0.1-0.4,0.2
	c-0.1,0.1-0.2,0.3-0.2,0.4v0.8c0,1.2,1,2.9,2.1,2.9h0.1C66.9,125.9,67.5,123.7,69.5,123.7z"/>
<path class="st2" d="M51.3,38.6h100c0.7,0,1.3,0.3,1.8,0.8c0.5,0.5,0.8,1.1,0.8,1.8V64H48.7V41.1c0-0.7,0.3-1.3,0.8-1.8
	C49.9,38.8,50.6,38.6,51.3,38.6z"/>
<path class="st1" d="M143.1,42.9H59.5c-0.7-5.8-1.9-11.5-3.7-17.1h91C145,31.4,143.8,37.1,143.1,42.9z"/>
<path class="st2" d="M143.9,37.4c-0.6,3.3-0.8,5.5-0.8,5.5H59.5c0,0-0.2-2.1-0.8-5.5H143.9z"/>
<path class="st0" d="M143.1,43.4H59.5c-0.3,0-0.5-0.2-0.5-0.4c-0.7-5.7-1.9-11.5-3.7-17c0-0.2,0-0.3,0.1-0.4
	c0.1-0.1,0.2-0.2,0.4-0.2h91c0.2,0,0.3,0.1,0.4,0.2c0.1,0.1,0.1,0.3,0.1,0.4c-1.8,5.5-3,11.2-3.7,17
	C143.6,43.2,143.4,43.4,143.1,43.4z M59.9,42.4h82.8c0.7-5.4,1.8-10.8,3.4-16.1H56.5C58.1,31.5,59.2,36.9,59.9,42.4z"/>
<path class="st0" d="M142,57.2H59.9V91H142V57.2z"/>
<g class="st3">
	<path class="st4" d="M98.9,88l0.4,0c0.5-8.4,1.1-16.9,1.6-25.3C100.3,71.2,99.6,79.6,98.9,88z"/>
	<path class="st4" d="M97.5,87.9l0.4,0c0.9-8.4,1.9-16.8,2.8-25.2C99.7,71.2,98.6,79.6,97.5,87.9z"/>
	<path class="st4" d="M96.2,87.8c0.1,0,0.3,0,0.4,0c1.3-8.3,2.7-16.6,4-25.1C99.1,71.2,97.6,79.5,96.2,87.8z"/>
	<path class="st4" d="M94.8,87.5l0.4,0.1c1.7-8.2,3.5-16.5,5.2-24.9C98.6,71.2,96.7,79.4,94.8,87.5z"/>
	<path class="st4" d="M93.4,87.3l0.4,0.1c2.1-8,4.3-16.2,6.5-24.6C98,71.2,95.7,79.3,93.4,87.3z"/>
	<path class="st4" d="M92,87l0.4,0.1c2.5-7.8,5.1-15.9,7.7-24.4C97.4,71.1,94.7,79.2,92,87z"/>
	<path class="st4" d="M90.7,86.6l0.4,0.1c2.9-7.6,5.8-15.6,8.8-24C96.8,71.1,93.7,79.1,90.7,86.6z"/>
	<path class="st4" d="M89.4,86.2l0.4,0.1c3.2-7.3,6.6-15.2,10-23.6C96.2,71.1,92.7,78.9,89.4,86.2z"/>
	<path class="st4" d="M88,85.7l0.4,0.2c3.6-7.1,7.4-14.8,11.2-23.2C95.7,71.1,91.7,78.7,88,85.7z"/>
	<path class="st4" d="M86.7,85.2l0.4,0.2c3.9-6.7,8.1-14.3,12.4-22.7C95.1,71.1,90.7,78.6,86.7,85.2z"/>
	<path class="st4" d="M85.4,84.6l0.4,0.2C90,78.4,94.6,71,99.3,62.7C94.5,71,89.7,78.3,85.4,84.6z"/>
	<path class="st4" d="M84.1,83.9l0.4,0.2c4.5-6,9.5-13.1,14.6-21.5C94.5,70,89.5,77.1,84.1,83.9z"/>
	<path class="st4" d="M82.8,83.2c0.1,0.1,0.3,0.2,0.5,0.3c5.7-6.6,10.9-13.5,15.7-20.8C94.1,69.9,88.7,76.7,82.8,83.2z"/>
	<path class="st4" d="M81.6,82.4l0.4,0.3c6.1-6.2,11.7-12.9,16.8-20C93.6,69.7,87.9,76.3,81.6,82.4z"/>
	<path class="st4" d="M98.7,62.6c-6.6,8.2-13,14.5-18.3,18.8l0.4,0.3C87.4,76,93.3,69.6,98.7,62.6z"/>
	<path class="st4" d="M98.5,62.6c-7,8.2-13.8,14.1-19.3,17.9l0.4,0.4C85,76.9,91.7,70.8,98.5,62.6z"/>
	<path class="st4" d="M98.3,62.6c-7.4,8.1-14.6,13.7-20.2,16.8c0.1,0.1,0.3,0.3,0.4,0.4C84,76.5,91.1,70.7,98.3,62.6z"/>
	<path class="st4" d="M98.2,62.6c-7.8,8-15.4,13.3-21.1,15.7l0.4,0.4C83.1,76,90.5,70.6,98.2,62.6z"/>
	<path class="st4" d="M76.1,77.2c0.1,0.2,0.2,0.3,0.4,0.5C82.2,75.5,90,70.5,98,62.6C89.8,70.5,81.9,75.3,76.1,77.2z"/>
	<path class="st4" d="M75.3,75.9c0.1,0.2,0.2,0.3,0.3,0.5c5.7-1.4,13.8-6.1,22.2-13.9C89.3,70.3,81,74.8,75.3,75.9z"/>
	<path class="st4" d="M74.6,74.7c0.1,0.2,0.2,0.4,0.3,0.5c5.7-0.8,14.1-5,22.8-12.6C88.8,70.1,80.3,74.2,74.6,74.7z"/>
	<path class="st4" d="M74,73.4c0.1,0.2,0.2,0.4,0.2,0.5c5.7-0.1,14.3-3.9,23.3-11.4C88.4,69.9,79.7,73.5,74,73.4z"/>
	<path class="st4" d="M100.3,88.1h0.4c0.1-8.4,0.3-16.9,0.4-25.3C100.8,71.2,100.6,79.6,100.3,88.1z"/>
	<path class="st4" d="M101.7,88.1h0.4c-0.3-8.4-0.5-16.9-0.8-25.3L101.7,88.1z"/>
	<path class="st4" d="M103,88h0.4c-0.7-8.4-1.4-16.8-2-25.3C102,71.2,102.5,79.6,103,88z"/>
	<path class="st4" d="M104.4,88l0.4,0c-1.1-8.3-2.2-16.7-3.3-25.2C102.6,71.2,103.5,79.6,104.4,88z"/>
	<path class="st4" d="M105.8,87.8l0.4-0.1c-1.5-8.2-3-16.6-4.5-25C103.1,71.2,104.5,79.5,105.8,87.8z"/>
	<path class="st4" d="M107.2,87.6l0.4-0.1c-1.9-8.1-3.8-16.4-5.7-24.8C103.7,71.2,105.4,79.5,107.2,87.6z"/>
	<path class="st4" d="M108.6,87.4l0.4-0.1c-2.3-8-4.6-16.2-6.9-24.6C104.3,71.2,106.4,79.4,108.6,87.4z"/>
	<path class="st4" d="M109.9,87.1l0.4-0.1c-2.6-7.8-5.4-15.9-8.1-24.3C104.8,71.2,107.4,79.3,109.9,87.1z"/>
	<path class="st4" d="M111.3,86.8l0.4-0.1c-3-7.5-6.1-15.5-9.3-23.9C105.4,71.2,108.4,79.2,111.3,86.8z"/>
	<path class="st4" d="M112.6,86.4l0.4-0.1c-3.4-7.3-6.9-15.1-10.5-23.5C106,71.1,109.4,79,112.6,86.4z"/>
	<path class="st4" d="M114,85.9l0.4-0.2c-3.7-7-7.7-14.7-11.7-23.1C106.6,71.1,110.4,78.9,114,85.9z"/>
	<path class="st4" d="M115.3,85.4c0.2-0.1,0.3-0.1,0.5-0.2c-4-6.6-8.4-14.1-12.8-22.5C107.2,71.1,111.4,78.7,115.3,85.4z"/>
	<path class="st4" d="M116.6,84.9l0.5-0.2c-4.3-6.3-9.1-13.6-14-22C107.8,71.1,112.4,78.5,116.6,84.9z"/>
	<path class="st4" d="M117.9,84.2c0.2-0.1,0.3-0.2,0.4-0.2c-5.4-6.8-10.5-13.9-15.1-21.3C108.3,71,113.4,78.2,117.9,84.2z"/>
	<path class="st4" d="M119.2,83.5l0.5-0.3c-5.9-6.5-11.3-13.4-16.3-20.6C108.2,69.9,113.5,76.9,119.2,83.5z"/>
	<path class="st4" d="M103.6,62.7c5.1,7.1,10.7,13.8,16.9,20.1l0.5-0.3C114.6,76.3,108.8,69.7,103.6,62.7z"/>
	<path class="st4" d="M103.7,62.6c5.4,7,11.4,13.4,18,19.2c0.2-0.1,0.3-0.2,0.4-0.3C116.8,77.2,110.3,70.9,103.7,62.6z"/>
	<path class="st4" d="M103.9,62.6c6.9,8.2,13.6,14.3,19,18.3c0.1-0.1,0.3-0.2,0.4-0.4C117.8,76.8,110.9,70.9,103.9,62.6z"/>
	<path class="st4" d="M104,62.6c7.3,8.2,14.4,13.9,19.9,17.3c0.1-0.1,0.3-0.3,0.4-0.4C118.8,76.4,111.5,70.8,104,62.6z"/>
	<path class="st4" d="M104.2,62.6c7.7,8.1,15.2,13.5,20.8,16.3l0.4-0.4C119.8,76,112.1,70.7,104.2,62.6z"/>
	<path class="st4" d="M126,77.7c0.1-0.2,0.2-0.3,0.4-0.5c-5.7-1.8-13.7-6.6-22-14.6C112.5,70.6,120.3,75.6,126,77.7z"/>
	<path class="st4" d="M126.9,76.5l0.3-0.5c-5.7-1.1-14.1-5.5-22.7-13.4C113,70.5,121.2,75.1,126.9,76.5z"/>
	<path class="st4" d="M127.7,75.2c0.1-0.2,0.2-0.4,0.3-0.5c-5.7-0.4-14.3-4.4-23.3-12.1C113.5,70.3,122,74.5,127.7,75.2z"/>
	<path class="st4" d="M104.9,62.5c9.1,7.5,17.8,11.3,23.5,11.4c0.1-0.2,0.2-0.4,0.2-0.6C122.9,73.6,114.1,70,104.9,62.5z"/>
</g>
<path class="st2" d="M89.4,63.4c-1.5,4,0.1,15.5,11.3,15.5c11.2,0,15.2-8.1,14.8-13.1l14.9-2.4c0,0,4.6,12.6-5.1,21.4
	c-9.7,8.8-43.3,8.3-50.4,1.5s-3.2-20-3.2-20L89.4,63.4z"/>
<g>
	<path class="st5" d="M154.7,46.2v-2.8c0-0.1,0-0.2,0.1-0.3c0.1-0.1,0.1-0.1,0.2-0.2l2-0.6v-2.8c0-0.3,0.1-0.7,0.4-0.9
		c0.2-0.2,0.6-0.4,0.9-0.4h2.4c0.1,0,0.2,0,0.3,0.1c0.1,0.1,0.1,0.2,0.1,0.3v0.9c0,0.1,0,0.2-0.1,0.3c-0.1,0.1-0.2,0.1-0.3,0.1h-3.1
		v2.7c0,0.1,0,0.2-0.1,0.2c0,0.1-0.1,0.1-0.2,0.2l-1.7,1.1v1.9L154.7,46.2z"/>
	<path class="st0" d="M155.7,46.7C155.7,46.7,155.7,46.7,155.7,46.7l-1,0c-0.3,0-0.5-0.2-0.5-0.5v-2.8c0-0.2,0.1-0.4,0.2-0.6
		c0.1-0.2,0.3-0.3,0.5-0.4l1.7-0.5v-2.4c0-0.5,0.2-0.9,0.5-1.2c0.3-0.3,0.8-0.5,1.2-0.5h2.4c0.2,0,0.5,0.1,0.7,0.3
		c0.2,0.2,0.3,0.4,0.3,0.7l0,0.9c0,0.3-0.1,0.5-0.3,0.7c-0.2,0.2-0.4,0.3-0.7,0.3h-2.6v2.2c0,0.2,0,0.3-0.1,0.5
		c-0.1,0.1-0.2,0.3-0.3,0.4l-1.5,0.9v1.7c0,0.1-0.1,0.3-0.1,0.4C156,46.7,155.9,46.7,155.7,46.7z M155.2,46.2L155.2,46.2L155.2,46.2
		z M155.2,45.7L155.2,45.7l0-1.4c0-0.2,0.1-0.3,0.2-0.4l1.7-1l-1.9,0.6L155.2,45.7z M160.8,38.8l-2.4,0.1c-0.2,0-0.4,0.1-0.5,0.2
		c-0.1,0.1-0.2,0.3-0.2,0.5v0.1c0,0,0.1,0,0.1,0h3.1L160.8,38.8z"/>
</g>
<path class="st0" d="M157.4,46.2h-2.7v8h2.7V46.2z"/>
<path class="st6" d="M160.8,45.6h-3.4v9.4h3.4V45.6z"/>
<path class="st2" d="M160.8,51.3h-3.4v3.7h3.4V51.3z"/>
<path class="st0" d="M160.8,55.4h-3.4c-0.3,0-0.5-0.2-0.5-0.5v-9.4c0-0.3,0.2-0.5,0.5-0.5h3.4c0.3,0,0.5,0.2,0.5,0.5v9.4
	C161.3,55.2,161,55.4,160.8,55.4z M157.9,54.4h2.4v-8.4h-2.4V54.4z"/>
<path class="st0" d="M45.2,54.3h2.7v-8h-2.7V54.3z"/>
<path class="st6" d="M41.8,54.9h3.4v-9.4h-3.4V54.9z"/>
<path class="st2" d="M45.2,51.3h-3.4v3.6h3.4V51.3z"/>
<path class="st0" d="M45.2,55.4h-3.4c-0.3,0-0.5-0.2-0.5-0.5v-9.4c0-0.3,0.2-0.5,0.5-0.5h3.4c0.3,0,0.5,0.2,0.5,0.5v9.4
	C45.7,55.2,45.4,55.4,45.2,55.4z M42.3,54.4h2.4v-8.4h-2.4V54.4z"/>
<g>
	<path class="st1" d="M47.4,50.7c0.2-0.6,0.3-1.3,0.1-2c-0.2-0.7-0.5-1.2-1.1-1.7l-2-1.6c-0.1-0.1-0.3-0.2-0.4-0.2
		c-0.2,0-0.3-0.1-0.5,0c-0.2,0-0.3,0.1-0.5,0.2c-0.1,0.1-0.3,0.2-0.4,0.3l-7.8,10.8c-0.1,0.2-0.2,0.4-0.2,0.7v11.6
		c0,0.2,0,0.3,0.1,0.5c0.1,0.1,0.1,0.3,0.3,0.4c0.1,0.1,0.2,0.2,0.4,0.3c0.1,0.1,0.3,0.1,0.5,0.1c0.3,0,0.6-0.1,0.8-0.3
		c0.2-0.2,0.3-0.5,0.3-0.8v-9.4c0-0.2,0.1-0.5,0.2-0.6l5.9-8.2c0.1-0.1,0.1-0.1,0.2-0.2c0.1,0,0.2-0.1,0.2-0.1c0.1,0,0.2,0,0.3,0
		c0.1,0,0.2,0.1,0.2,0.1l1.1,0.9c0.3,0.2,0.6,0.4,1,0.4c0.3,0,0.6-0.1,0.8-0.3C47.2,51.2,47.3,51,47.4,50.7z"/>
	<path class="st0" d="M35.9,70.4c-0.2,0-0.4,0-0.6-0.1c-0.2-0.1-0.4-0.2-0.6-0.4c-0.2-0.2-0.3-0.3-0.4-0.5c-0.1-0.2-0.1-0.4-0.1-0.6
		V57.1c0-0.4,0.1-0.7,0.3-1l7.8-10.8c0.1-0.2,0.3-0.3,0.5-0.5c0.2-0.1,0.4-0.2,0.7-0.2c0.2,0,0.5,0,0.7,0.1c0.2,0.1,0.4,0.2,0.6,0.3
		l2,1.6c0.6,0.5,1,1.2,1.2,1.9s0.2,1.6-0.1,2.3c0,0,0,0,0,0c-0.1,0.4-0.4,0.7-0.7,0.9c-0.3,0.2-0.7,0.3-1.1,0.3
		c-0.5,0-0.9-0.2-1.3-0.5l-1.1-0.9l-0.2-0.5l0.1,0.5c0,0-0.1,0.1-0.1,0.1L37.7,59c-0.1,0.1-0.1,0.2-0.1,0.4v9.4
		c0,0.4-0.2,0.9-0.5,1.2C36.8,70.2,36.4,70.4,35.9,70.4z M43.7,45.6C43.7,45.6,43.7,45.6,43.7,45.6c-0.2,0-0.3,0-0.4,0.1
		c-0.1,0-0.2,0.1-0.2,0.2l-7.8,10.8c-0.1,0.1-0.1,0.3-0.1,0.4v11.6c0,0.1,0,0.2,0.1,0.3c0,0.1,0.1,0.2,0.1,0.2
		c0.1,0.1,0.1,0.1,0.2,0.1c0.1,0,0.2,0,0.3,0c0.2,0,0.4-0.1,0.5-0.2s0.2-0.3,0.2-0.5v-9.4c0-0.3,0.1-0.7,0.3-0.9l5.9-8.2
		c0.1-0.1,0.2-0.2,0.3-0.3c0.1-0.1,0.3-0.1,0.4-0.1c0.2,0,0.3,0,0.5,0c0.2,0,0.3,0.1,0.4,0.2l1.1,0.9c0.3,0.3,0.8,0.3,1.2,0.1
		c0.2-0.1,0.3-0.3,0.3-0.4c0.2-0.5,0.2-1.1,0.1-1.7c-0.1-0.6-0.5-1.1-0.9-1.4l-2-1.6c-0.1-0.1-0.2-0.1-0.3-0.1
		C43.9,45.7,43.8,45.6,43.7,45.6z M47.4,50.7L47.4,50.7L47.4,50.7z"/>
</g>
<g>
	<path class="st5" d="M45.8,49.7c0.3,0,0.6-0.3,0.6-0.6c0-0.3-0.3-0.6-0.6-0.6c-0.3,0-0.6,0.3-0.6,0.6
		C45.3,49.4,45.5,49.7,45.8,49.7z"/>
	<path class="st0" d="M45.8,50.2c-0.6,0-1.1-0.5-1.1-1.1c0-0.6,0.5-1.1,1.1-1.1c0.6,0,1.1,0.5,1.1,1.1
		C46.9,49.7,46.4,50.2,45.8,50.2z M45.8,49.1L45.8,49.1c0.1,0.1,0.1,0,0.1,0H45.8z"/>
</g>
<path class="st0" d="M152.2,42.4H50.3v15.8h101.9V42.4z"/>
<path class="st7" d="M150.8,43.5h-99c-0.3,0-0.6,0.3-0.6,0.6v2.6c0,0.3,0.3,0.6,0.6,0.6h99c0.3,0,0.6-0.3,0.6-0.6v-2.6
	C151.3,43.8,151.1,43.5,150.8,43.5z"/>
<path class="st1" d="M143.1,61.3H59.5c-2.4-5.4-3.6-11.2-3.7-17.1h91C146.8,52.1,143.1,61.3,143.1,61.3z"/>
<g class="st8">
	<path class="st9" d="M115.1,60.6c-0.4,0-0.8-0.1-1.2-0.1c-0.6-0.1-1.3-0.2-2.1-0.1c-1,0.1-2.3,0-3.3-0.1c-0.4,0-0.8-0.1-1-0.1
		c-0.4,0-1.3-0.1-2-0.1c-0.6-0.1-1.3-0.1-1.5-0.1c-0.1,0-0.4,0.1-0.6,0.1c-0.7,0.2-1.6,0.4-2.6,0.2c-0.8-0.2-1.6-0.2-2.3,0
		c-0.5,0.2-1.1,0.2-1.6,0c-0.3,0-0.6-0.1-0.9-0.1c-0.4,0.1-1.6,0.3-2.1,0c-0.2-0.1-0.4-0.1-0.7-0.1c-0.3,0-0.5,0-0.8,0
		c-0.5-0.1-0.9-0.4-1.3-0.7c-1.4,0.3-1.4,0.4-1.5,0.4c0,0-0.1,0-0.3,0.1c-1.1,0.2-1.5,0.3-1.7,0.3c-0.2,0-1-0.2-1.7-0.4h-0.6
		c0,0,0,0,0,0c-0.1,0.2-0.3,0.3-0.6,0.2c-0.4-0.1-0.9-0.2-1.3-0.2c-0.3,0-0.3,0-0.3,0c-0.1,0.1-0.3,0.2-0.5,0.3
		c-0.7,0.3-1.2-0.3-1.5-0.6c-0.1-0.1-0.2-0.2-0.3-0.2c-0.2,0-1,0.1-1.8,0.2l-3.6,0.6c-0.2,0-0.3,0.1-0.4,0c0,0-0.1,0-0.5,0
		c-0.5,0-0.8-0.1-1-0.4c-0.2,0-0.8,0.1-1.3,0.2c-0.6,0.1-1.2,0.3-1.6,0.2c-0.4-0.1-0.7-0.4-0.8-0.6c0-0.1-0.1-0.2-0.2-0.2
		c0,0-0.1,0-0.2,0.1c-1.1,0.7-3,0.8-3.1,0.8c-0.3,0-0.5-0.2-0.5-0.5s0.2-0.5,0.5-0.5c0,0,1.7-0.1,2.6-0.6c1-0.6,1.5,0.1,1.7,0.4
		c0,0.1,0.1,0.2,0.2,0.2c0.2,0,0.8-0.1,1.2-0.2c0.5-0.1,1-0.2,1.4-0.2c0.4,0,0.7,0.1,0.9,0.4c0,0,0.1,0,0.1,0c0.5,0,0.6,0,0.6,0
		l0.1,0l3.6-0.6c1.3-0.2,2.1-0.3,2.5-0.1c0.2,0.1,0.4,0.3,0.5,0.4c0.1,0.1,0.3,0.3,0.4,0.4c0.1,0,0.1-0.1,0.2-0.1
		c0.2-0.2,0.4-0.3,1-0.3c0.4,0,0.9,0.1,1.3,0.2c0.1-0.1,0.3-0.2,0.6-0.2h0.7c0,0,0.1,0,0.1,0c0.6,0.2,1.4,0.3,1.5,0.4
		c0.1,0,1.1-0.2,1.4-0.3c0.2-0.1,0.4-0.1,0.4-0.1c0.1,0,1.5-0.4,1.5-0.4c0.2,0,0.4,0,0.5,0.1c0.3,0.3,0.6,0.5,1,0.6
		c0.1,0,0.4,0,0.6,0c0.4,0,0.8,0,1.2,0.1c0.2,0.1,1,0,1.6-0.1c0.5,0,0.8,0,1.2,0.1c0.4,0.1,0.8,0.1,1.2,0c0.9-0.2,1.9-0.3,2.8,0
		c0.8,0.1,1.5-0.1,2.1-0.2c0.4-0.1,0.6-0.2,0.9-0.2c0.3,0,0.9,0.1,1.6,0.1c0.7,0.1,1.6,0.1,2,0.1c0.3,0,0.6,0,1.1,0.1
		c0.9,0.1,2.2,0.2,3.1,0.1c1-0.1,1.7,0,2.3,0.1c0.4,0.1,0.7,0.1,1,0.1c0.6,0,1.3,0,1.8,0c0.2,0,0.4,0,0.5,0c0,0,0,0,0.1-0.1
		c0.5-0.2,1.5-0.6,2.7-0.5c0.2,0,0.3,0,0.4,0c0.2-0.2,0.5-0.1,0.8,0c0.3,0.1,0.6,0.1,0.9,0.2c0.5,0.1,0.9,0.2,1.2,0.2
		c0.3,0,0.5,0,0.8,0l1.7-0.1l8.2,0c0.3,0,0.5,0.2,0.5,0.5s-0.2,0.5-0.5,0.5h-8.1l-1.6,0.1c-0.3,0-0.7,0.1-1,0
		c-0.3,0-0.8-0.1-1.3-0.3c-0.3-0.1-0.5-0.1-0.8-0.2c0,0,0,0,0,0c-0.2,0.1-0.6,0.1-1,0c-1-0.1-1.8,0.2-2.2,0.4
		c-0.2,0.1-0.4,0.1-0.5,0.1c-0.1,0-0.2,0-0.4,0C116.4,60.6,115.7,60.6,115.1,60.6z M73.5,60.1L73.5,60.1L73.5,60.1z M74.1,59.4
		L74.1,59.4L74.1,59.4z"/>
	<path class="st9" d="M101.7,57.8c-0.8,0-1.6-0.4-1.9-0.6l-1-0.1l-1,0.5c-0.1,0.1-0.3,0.1-0.5,0c-0.4-0.2-0.8-0.4-1.3-0.5
		c-0.2,0-0.5,0.1-0.9,0.4L95,57.7c-0.6,0.4-1.2-0.1-1.4-0.3l0,0c-0.2,0-0.9-0.1-2.4-0.3c-0.4,0-3,0.2-4.2,0.2
		c-1.1,0-4.2,0.4-4.2,0.4c-0.1,0-0.3,0-0.4-0.1c-0.2-0.2-0.4-0.3-0.5-0.4c-0.2,0.3-0.9,0.6-2.7,0.5c-0.6-0.1-1.2-0.2-1.7-0.5
		c0,0-0.1,0-0.1-0.1l0,0c-0.1,0-0.2-0.1-0.5-0.1c-0.3-0.1-0.4-0.2-0.5-0.3c0,0-0.1,0-0.3,0c-0.1,0-0.2,0-0.2,0
		c-0.1,0-0.1,0.1-0.1,0.1c-0.1,0.2-0.3,0.3-0.5,0.3c-0.9-0.2-2.5-0.5-2.8-0.5c-0.1,0-0.3,0.1-0.5,0.2c-0.3,0.1-0.8,0.3-1.3,0.4
		c-0.9,0.1-5.8,0.1-6,0.1c-0.3,0-0.5-0.2-0.5-0.5s0.2-0.5,0.5-0.5c0.1,0,5,0,5.9-0.1c0.4,0,0.7-0.2,1-0.3c0.3-0.1,0.6-0.2,0.9-0.2
		c0.4,0,2,0.3,2.7,0.4c0.1-0.1,0.2-0.2,0.3-0.2c0.2-0.1,0.5-0.2,0.8-0.2c0.4,0,0.6,0,0.8,0.2c0,0,0.1,0.1,0.3,0.2
		c0.2,0.1,0.3,0.1,0.3,0.1c0.2,0,0.3,0.1,0.4,0.2c0.4,0.2,0.9,0.3,1.3,0.4c0.7,0,1.6,0,1.8-0.2c0.1-0.2,0.2-0.3,0.4-0.4
		c0.4-0.1,0.8,0.1,1.4,0.5c0.7-0.1,3.1-0.4,4.1-0.4c1.2,0,4.1-0.2,4.1-0.2c0,0,0.1,0,0.1,0c0.9,0.1,2.4,0.3,2.5,0.3
		c0.2,0,0.3,0.1,0.5,0.2c0.1,0,0.2,0.2,0.2,0.2l0.1-0.1c0.4-0.3,0.9-0.6,1.6-0.5c0.5,0.1,0.9,0.3,1.3,0.5l0.9-0.5
		c0.1,0,0.2-0.1,0.3-0.1l1.3,0.1c0.1,0,0.2,0,0.2,0.1c0.3,0.2,1.3,0.7,1.8,0.5c0.7-0.3,1.4-0.6,2.1-1c0.2-0.1,0.4-0.1,0.6,0.1l1,0.9
		h0.6l2.2-0.4c0.2,0,0.4,0,0.5,0.2c0.1,0.1,0.3,0.2,0.4,0.3c0.2,0.1,0.3,0,0.5,0c0.7-0.2,4.6-0.2,9.5-0.1c1.4,0,2.5,0,3.2,0
		c2,0,2.5-0.4,2.5-0.5c0.1-0.2,0.3-0.2,0.5-0.1l1.7,0.6h8.9c0.3,0,0.5,0.2,0.5,0.5s-0.2,0.5-0.5,0.5h-9c-0.1,0-0.1,0-0.2,0l-1.6-0.5
		c-0.4,0.2-1.2,0.5-2.9,0.5c-0.6,0-1.8,0-3.2,0c-3-0.1-8.6-0.2-9.2,0c-0.3,0.1-0.7,0.1-1.1,0c-0.3-0.1-0.5-0.2-0.7-0.4l-2,0.4
		l-0.9,0c-0.1,0-0.2,0-0.3-0.1l-0.9-0.8c-0.6,0.3-1.2,0.6-1.9,0.9C102.2,57.8,102,57.8,101.7,57.8z M81.1,56.7
		C81.1,56.7,81.1,56.7,81.1,56.7C81.1,56.7,81.1,56.7,81.1,56.7z"/>
</g>
<path class="st2" d="M144,59c-0.5,1.5-0.9,2.4-0.9,2.4H59.5c0,0-0.4-0.9-1-2.4H144z"/>
<path class="st2" d="M145.7,52.8c-0.3,1.2-0.6,2.4-0.9,3.5H57.6c-0.3-1-0.6-2.2-0.9-3.5H145.7z"/>
<path class="st0" d="M143.1,61.8H59.5c-0.2,0-0.4-0.1-0.5-0.3c-2.4-5.5-3.6-11.3-3.7-17.3c0-0.1,0.1-0.3,0.1-0.4s0.2-0.1,0.4-0.1h91
	c0.3,0,0.5,0.2,0.5,0.5c0,7.9-3.6,16.9-3.7,17.3C143.5,61.7,143.3,61.8,143.1,61.8z M59.8,60.8h83c0.6-1.6,3.4-9.3,3.5-16.1h-90
	C56.4,50.3,57.6,55.7,59.8,60.8z"/>
<path class="st6" d="M50.3,41.5h-2.5V59h2.5V41.5z"/>
<path class="st2" d="M50.3,53.8h-2.4V59h2.4V53.8z"/>
<path class="st0" d="M50.3,59.5h-2.5c-0.3,0-0.5-0.2-0.5-0.5V41.5c0-0.3,0.2-0.5,0.5-0.5h2.5c0.3,0,0.5,0.2,0.5,0.5V59
	C50.8,59.2,50.6,59.5,50.3,59.5z M48.3,58.5h1.5V42h-1.5V58.5z"/>
<path class="st6" d="M154.8,41.5h-2.5V59h2.5V41.5z"/>
<path class="st2" d="M154.8,53.8h-2.5V59h2.5V53.8z"/>
<path class="st0" d="M154.8,59.5h-2.5c-0.3,0-0.5-0.2-0.5-0.5V41.5c0-0.3,0.2-0.5,0.5-0.5h2.5c0.3,0,0.5,0.2,0.5,0.5V59
	C155.3,59.2,155,59.5,154.8,59.5z M152.8,58.5h1.5V42h-1.5V58.5z"/>
<g>
	<path class="st5" d="M152.3,40.8v12.7h-102V40.8h-1v13.6h103.9V40.8H152.3z"/>
	<path class="st0" d="M153.3,54.9H49.3c-0.3,0-0.5-0.2-0.5-0.5V40.8c0-0.3,0.2-0.5,0.5-0.5h1c0.3,0,0.5,0.2,0.5,0.5V53h101V40.8
		c0-0.3,0.2-0.5,0.5-0.5h1c0.3,0,0.5,0.2,0.5,0.5v13.6C153.8,54.6,153.5,54.9,153.3,54.9z M152.6,53.9h0.1v-0.2
		C152.7,53.7,152.7,53.8,152.6,53.9z M49.8,53.9h0.1c-0.1-0.1-0.1-0.1-0.1-0.2V53.9z"/>
</g>
<g>
	<path class="st1" d="M158.3,62.2v28.5c0,0.5-0.2,0.9-0.5,1.3c-0.3,0.3-0.8,0.5-1.3,0.5H46.1c-0.5,0-0.9-0.2-1.3-0.5
		c-0.3-0.3-0.5-0.8-0.5-1.3V62.2c0-0.5,0.2-0.9,0.5-1.3c0.3-0.3,0.8-0.5,1.3-0.5H97v1.8c0,0-8.7,7.5-23.7,10.3
		c2.1,9.7,13.9,17.1,28,17.1c14.2,0,25.9-7.4,28-17.1c-15-2.8-23.7-10.3-23.7-10.3v-1.8h50.9c0.2,0,0.5,0.1,0.7,0.1
		c0.2,0.1,0.4,0.2,0.6,0.4c0.2,0.2,0.3,0.4,0.4,0.6C158.3,61.7,158.3,62,158.3,62.2z"/>
	<path class="st0" d="M156.5,93H46.1c-0.6,0-1.2-0.2-1.6-0.7c-0.4-0.4-0.7-1-0.7-1.6V62.2c0-0.6,0.2-1.2,0.7-1.6
		c0.4-0.4,1-0.7,1.6-0.7H97c0.3,0,0.5,0.2,0.5,0.5v1.8c0,0.1-0.1,0.3-0.2,0.4c-0.1,0.1-8.8,7.5-23.4,10.3
		c2.4,9.4,13.8,16.2,27.4,16.2c13.3,0,25-6.9,27.4-16.2c-14.6-2.8-23.3-10.3-23.4-10.3c-0.1-0.1-0.2-0.2-0.2-0.4v-1.8
		c0-0.3,0.2-0.5,0.5-0.5h50.9c0.3,0,0.6,0.1,0.9,0.2c0.3,0.1,0.5,0.3,0.7,0.5c0.2,0.2,0.4,0.5,0.5,0.8c0.1,0.3,0.2,0.6,0.2,0.9v28.5
		c0,0.6-0.2,1.2-0.7,1.6C157.7,92.8,157.1,93,156.5,93z M46.1,60.9c-0.3,0-0.7,0.1-0.9,0.4c-0.2,0.2-0.4,0.6-0.4,0.9v28.5
		c0,0.3,0.1,0.7,0.4,0.9c0.2,0.2,0.6,0.4,0.9,0.4h110.4c0.3,0,0.7-0.1,0.9-0.4c0.2-0.2,0.4-0.6,0.4-0.9V62.2c0,0,0,0,0,0
		c0-0.2,0-0.3-0.1-0.5c-0.1-0.2-0.2-0.3-0.3-0.4s-0.3-0.2-0.4-0.3c-0.2-0.1-0.3-0.1-0.5-0.1h-50.3V62c1.3,1,9.7,7.5,23.3,10.1
		c0.1,0,0.3,0.1,0.3,0.2c0.1,0.1,0.1,0.3,0.1,0.4c-2.3,10.2-14.2,17.5-28.5,17.5C87,90.2,75,82.8,72.8,72.6c0-0.1,0-0.3,0.1-0.4
		c0.1-0.1,0.2-0.2,0.3-0.2c13.5-2.5,22-9,23.3-10.1v-1.1H46.1z"/>
</g>
<path class="st1" d="M158.3,62.2v28.5c0,0.2,0,0.5-0.1,0.7c-0.1,0.2-0.2,0.4-0.4,0.6c-0.2,0.2-0.4,0.3-0.6,0.4
	c-0.2,0.1-0.5,0.1-0.7,0.1H46.1c-0.2,0-0.5,0-0.7-0.1c-0.2-0.1-0.4-0.2-0.6-0.4c-0.2-0.2-0.3-0.4-0.4-0.6c-0.1-0.2-0.1-0.5-0.1-0.7
	V62.2c0-0.5,0.2-0.9,0.5-1.3c0.3-0.3,0.8-0.5,1.3-0.5H97v1.8c0,0-8.7,7.5-23.7,10.3c2.1,9.7,13.9,17.1,28,17.1
	c14.2,0,25.9-7.4,28-17.1c-15-2.8-23.7-10.3-23.7-10.3v-1.8h50.9c0.5,0,0.9,0.2,1.3,0.5C158.1,61.3,158.3,61.7,158.3,62.2z"/>
<path class="st7" d="M155.9,62.6v26.3c0,0.2,0,0.3-0.1,0.5c-0.1,0.2-0.2,0.3-0.3,0.4c-0.1,0.1-0.3,0.2-0.4,0.3
	c-0.2,0.1-0.3,0.1-0.5,0.1H47.2c-0.2,0-0.3,0-0.5-0.1c-0.2-0.1-0.3-0.2-0.4-0.3c-0.1-0.1-0.2-0.3-0.3-0.4c-0.1-0.2-0.1-0.3-0.1-0.5
	V62.6c0-0.2,0-0.3,0.1-0.5c0.1-0.2,0.2-0.3,0.3-0.4c0.1-0.1,0.3-0.2,0.4-0.3c0.2-0.1,0.3-0.1,0.5-0.1h49.8v0.9
	c0,0-8.7,7.5-23.7,10.3c2.1,9.7,13.9,17.1,28,17.1c14.2,0,25.9-7.4,28-17.1c-15-2.8-23.7-10.3-23.7-10.3v-0.9h48.9
	c0.4,0,0.7,0.1,0.9,0.4C155.7,62,155.9,62.3,155.9,62.6z"/>
<path class="st0" d="M156.5,93C156.5,93,156.5,93,156.5,93H46.1c0,0,0,0,0,0c-0.3,0-0.6-0.1-0.9-0.2c-0.3-0.1-0.5-0.3-0.8-0.5
	c-0.2-0.2-0.4-0.5-0.5-0.8c-0.1-0.3-0.2-0.6-0.2-0.9V62.2c0-0.6,0.2-1.2,0.7-1.6c0.4-0.4,1-0.7,1.6-0.7H97c0.3,0,0.5,0.2,0.5,0.5
	v1.8c0,0.1-0.1,0.3-0.2,0.4c-0.1,0.1-8.8,7.5-23.4,10.3c2.4,9.4,13.8,16.2,27.4,16.2c13.3,0,25-6.9,27.4-16.2
	c-14.6-2.9-23.3-10.3-23.4-10.3c-0.1-0.1-0.2-0.2-0.2-0.4v-1.8c0-0.3,0.2-0.5,0.5-0.5h50.9c0.6,0,1.2,0.3,1.6,0.7
	c0.4,0.4,0.7,1,0.7,1.6v28.5c0,0.3-0.1,0.6-0.2,0.9c-0.1,0.3-0.3,0.5-0.5,0.8c-0.2,0.2-0.5,0.4-0.8,0.5S156.8,93,156.5,93z M46.1,92
	h110.4c0,0,0,0,0,0c0.2,0,0.3,0,0.5-0.1c0.2-0.1,0.3-0.2,0.4-0.3c0.1-0.1,0.2-0.3,0.3-0.4c0.1-0.2,0.1-0.3,0.1-0.5V62.2c0,0,0,0,0,0
	c0-0.4-0.1-0.7-0.4-0.9c-0.2-0.2-0.6-0.4-0.9-0.4h-50.3V62c1.3,1,9.7,7.5,23.3,10.1c0.1,0,0.3,0.1,0.3,0.2c0.1,0.1,0.1,0.3,0.1,0.4
	c-2.3,10.2-14.2,17.5-28.5,17.5C87,90.2,75,82.8,72.8,72.6c0-0.1,0-0.3,0.1-0.4c0.1-0.1,0.2-0.2,0.3-0.2c13.5-2.5,22-9,23.3-10.1
	v-1.1H46.1c-0.3,0-0.7,0.1-0.9,0.4c-0.2,0.2-0.4,0.6-0.4,0.9v28.5c0,0.2,0,0.3,0.1,0.5c0.1,0.2,0.2,0.3,0.3,0.4
	c0.1,0.1,0.3,0.2,0.4,0.3C45.7,92,45.9,92,46.1,92z"/>
<g class="st2">
	<path class="st8" d="M121.8,100.9l5.4,15.1c0,0,2.3-16.6,3.7-16.6c1.4,0,4.4,9.1,4.4,9.1s1.9-4.7,3.6-4.9
		c1.8-0.2,3.4,11.7,3.4,11.7l0.3,26.3l-2.2,39.7c0,0-14.2-15.6-18.3-19.7c-4.1-4-8.1-12.9-9.2-14.7c-1.1-1.8-1.4-11.2-1.4-11.2
		c1.4-1.9,2.2-4.1,2.1-6.5c0,0,3.3-5.6,3.1-9.7C116.5,115.4,116,99.4,121.8,100.9z"/>
</g>
<path class="st1" d="M164.5,174.2L143,185.5c0-0.1-2.8-4.7-6.2-9.9c-1.5-2.3-3.2-4.8-4.8-7c-2.6-3.6-5.9-6.8-6.2-7.5
	c-0.8-2-7.1-9.7-8.5-12.6c-1.4-3-1.7-12.2-2.4-14.4c-0.6-2.2,1.2-4.3,2.6-5.3c1.4-1,2.9-3.7,2.9-3.7s-1.6-6.2-1.6-9.3
	c0-3.1-1.1-14.1,0.2-15.1c1.3-1,2.4-0.6,2.7,0.1c1,2.3,2,8.1,2.8,10.8c0.8,2.7,2.3,10.5,3.1,11c0.7,0.6,2.1-1.5,2.1-1.5
	s0.1-6.5,0.4-9.2l-0.4-8.6c0,0-0.8-5.1,1-5.6c2.4-0.7,3.3,0.9,3.6,1.5c0.3,0.6,1.4,4.4,1.4,4.4l0.1,0.3c0,0,0,0,0,0.1v0
	c0,0.1,0,0.1,0.1,0.2c0,0.2,0.1,0.4,0.2,0.6c0.5,2.1,1.6,6.4,1.5,7.4c-0.1,1.4-0.6,9.3,0.1,10.9l1.1-10.8c0,0-1.8-8.3-1.2-9.6
	c0.5-1.2,2.9,0.1,3.2,0.6c0.3,0.5,2.6,3.3,3,4.4l0.4,1.1c0,0,0.6-2.6,1.9-1.9c1.4,0.7,1.5,4,1.6,5.4s1.1,10.7,1.2,10.7
	c0.2,0,1.7,4.8,1.5,8c-0.4,6.8,0.7,11.8,0.8,14.4c0,2.6-1.9,8.6-1.9,8.6c0.1,0.1,1.4,2.3,1.7,4.2c0.3,1.4,4.8,6.5,8.6,10.5
	C162.2,171.7,164.4,174,164.5,174.2z"/>
<path class="st4" d="M136.8,175.7c-1.5-2.3-3.2-4.8-4.8-7c-2.6-3.6-5.9-6.8-6.2-7.5c-0.8-2-7.1-9.7-8.5-12.6
	c-1.4-3-1.7-12.2-2.3-14.4c-0.6-2.2,1.2-4.3,2.6-5.3c1.4-1,2.9-3.7,2.9-3.7s-1.6-6.2-1.6-9.3c0-3.1-1.1-14.1,0.2-15.1
	c1.3-1,2.4-0.6,2.7,0.1c1,2.3,2,8.1,2.8,10.8c0.8,2.7,2.3,10.5,3.1,11c0.7,0.6,2.1-1.5,2.1-1.5s0.1-6.5,0.4-9.2l-0.4-8.6
	c0,0-0.8-5.1,1-5.6c2.4-0.7,3.3,0.9,3.6,1.5c0.3,0.6,1.4,4.4,1.4,4.4l0.1,0.3c0,0,0,0,0,0.1v0c0,0.1,0,0.1,0.1,0.2
	c0,0.2,0.1,0.4,0.2,0.6c-0.6-1-1.5-1.9-2.7-2.1c-3.3-0.6-2.6,3-2.2,5.2c0.2,1.4,0.1,2.9-0.1,4.3l0.8-0.5c-0.6,1-1.4,9.8-1.4,11.7
	c0,1.9-1.5,2.6-2.9,2c-1.4-0.6-1.9-9.5-2.9-11.1s-3.9,1.5-4.1,4.2c-0.1,2.8,2.5,11.1,1.9,13.1c-0.6,2-0.6,9.4-0.6,9.4l-0.8-1.9
	c0,0.3,0,1.1-1.6,3.7c-0.6,0.9-1,2-1.1,3.1c-0.1,1.1-0.1,2.2,0.3,3.3c1,2.1,5.8,7.7,6.6,8.3c0,0,0.6-2.4,2.4-1.8
	c-0.6,1-1.1,2.1-1.4,3.3c-0.4,1.8,3.5,2.9,4.7,4.6C131.8,164.8,132.3,167.9,136.8,175.7z"/>
<path class="st4" d="M159.6,168.9c-3.8-3.8-10.5-7.5-10.1-8.5c0.5-1.3-0.1-4-1.3-6.3s0.4-5.8,0.4-5.8l0.7,2.1
	c0.6-2.4,0.6-4.9,0.2-7.4c-0.7-4.2-1.3-2.7-1.3-2.7s0.2-3.8,0.8-5.8c0.7-2,1.2-7,0.3-10c-0.9-2.9-2.9-2.4-3.4-1.4
	c-0.5,1,0,5,0.5,6.2c0.4,1.3-1.4,3.5-1.4,1.9c0-1.6-0.7-6.1-0.7-6.1l1.4-9l-1.4-7.2c0,0,0.6-2.6,1.9-1.9c1.4,0.7,1.5,4,1.6,5.4
	c0.1,1.4,1.1,10.7,1.2,10.7c0.2,0,1.7,4.8,1.5,8c-0.4,6.8,0.7,11.8,0.8,14.4c0,2.6-1.9,8.6-1.9,8.6c0.1,0.1,1.3,2.3,1.7,4.2
	C151.3,159.8,155.9,164.9,159.6,168.9L159.6,168.9z"/>
<path class="st4" d="M143.8,107.9c0.1,0.2,0.1,0.4,0.2,0.5c-1.3-3-3.5-2.1-3.9-1.2c-0.4,0.9,0.9,6.2,1.2,7c0.3,0.8-1.2,7.4-1.4,9.6
	c-0.2,2.2-0.8,2.6-0.8,2.6c-1.5,0.1-1.6-3.9-1.6-4.5c0,0.5,0.1,0.9,0.3,1.4l1.1-10.8c0,0-1.8-8.4-1.3-9.6c0.5-1.2,2.9,0.1,3.2,0.6
	S143.4,106.8,143.8,107.9z"/>
<path class="st0" d="M143,186c-0.2,0-0.4-0.1-0.5-0.3c-0.4-0.7-6.1-9.9-11-16.8c-1.5-2.1-3.2-4.1-4.5-5.5c-1.1-1.2-1.6-1.8-1.7-2.1
	c-0.4-0.9-2.1-3.3-3.8-5.6c-1.9-2.7-4-5.4-4.7-7c-0.9-1.9-1.4-6.3-1.8-9.8c-0.2-2.1-0.4-3.9-0.6-4.6c-0.7-2.3,1.1-4.6,2.8-5.8
	c1.1-0.8,2.3-2.8,2.7-3.3c-0.3-1.1-1.5-6.3-1.6-9.2c0-0.8-0.1-2.1-0.2-3.6c-0.4-7.4-0.4-11.1,0.5-11.9c0.7-0.6,1.6-0.8,2.3-0.7
	c0.5,0.1,1,0.5,1.2,1c0.7,1.5,1.3,4.2,1.8,6.8c0.3,1.6,0.7,3.1,1,4.1c0.3,0.9,0.6,2.5,1,4.1c0.6,2.5,1.5,6.2,1.9,6.7
	c0.2,0,0.8-0.6,1.2-1.3c0-1,0.2-6.6,0.4-9.1l-0.4-8.5c-0.1-0.9-0.7-5.6,1.4-6.1c2.9-0.8,4,1.2,4.2,1.8c0.3,0.7,1.4,4.3,1.4,4.4
	c0.2,0.8,1.9,7.4,1.9,8.8l0,0.7c-0.1,1.2-0.1,2.3-0.1,3.3l0.4-3.9c-0.4-2.1-1.8-8.5-1.2-9.8c0.2-0.5,0.6-0.8,1.2-0.8
	c1.1-0.1,2.6,0.8,2.9,1.3c0.1,0.1,0.3,0.5,0.7,0.9c1,1.4,2,2.7,2.4,3.5c0.2-0.4,0.5-0.8,0.9-1c0.4-0.2,0.8-0.2,1.2,0
	c1.6,0.8,1.8,4,1.9,5.7l0,0.1c0.1,1.5,1,9.9,1.2,10.5l0,0c0.9,1.3,1.7,6.3,1.6,8.2c-0.3,4.6,0.1,8.4,0.5,11.2
	c0.2,1.3,0.3,2.4,0.3,3.2c0,2.4-1.5,7.5-1.9,8.6c0.3,0.6,1.3,2.5,1.7,4.2c0.3,1.5,7.2,8.9,10.5,12.4c2.3,2.5,2.9,3.1,3,3.3
	c0.1,0.3,0,0.5-0.3,0.7c-0.2,0.1-0.5,0-0.6-0.2c-0.2-0.3-1.4-1.6-2.8-3.1c-5.5-5.8-10.4-11.2-10.7-12.9c-0.3-1.9-1.6-4-1.6-4.1
	c-0.1-0.1-0.1-0.3,0-0.4c0-0.1,1.9-6,1.9-8.5c0-0.8-0.1-1.9-0.3-3.1c-0.3-2.8-0.8-6.7-0.5-11.3c0.2-2.7-1-6.8-1.3-7.6
	c-0.2-0.3-0.3-1.2-0.8-5.1c-0.3-2.5-0.5-5.2-0.6-5.9l0-0.1c-0.1-1.2-0.3-4.3-1.3-4.9c-0.2-0.1-0.3-0.1-0.4,0
	c-0.4,0.2-0.7,1.1-0.9,1.6c0,0.2-0.2,0.4-0.5,0.4c-0.2,0-0.4-0.1-0.5-0.3l-0.4-1.1c-0.3-0.7-1.5-2.4-2.3-3.4c-0.4-0.5-0.6-0.8-0.7-1
	c-0.2-0.2-1.3-0.9-2-0.8c-0.2,0-0.3,0.1-0.3,0.2c-0.3,0.7,0.4,5.2,1.3,9.2c0,0.1,0,0.1,0,0.2l-1.1,10.8c0,0.2-0.2,0.4-0.4,0.4
	c-0.2,0-0.4-0.1-0.5-0.3c-0.6-1.4-0.4-6.3-0.2-10.5l0-0.6c0-1.1-1.3-6.5-1.8-8.5c-0.4-1.3-1.2-3.8-1.4-4.3c-0.3-0.7-1-1.8-3-1.2
	c-0.9,0.3-0.9,3.2-0.7,5.1l0.4,8.6c-0.3,2.7-0.4,9.2-0.4,9.3c0,0.1,0,0.2-0.1,0.3c-0.2,0.3-1.1,1.7-2,1.8c-0.3,0.1-0.6,0-0.8-0.2
	c-0.5-0.4-1-2.2-2.2-7.2c-0.4-1.6-0.7-3.2-1-4.1c-0.3-1.1-0.6-2.6-1-4.2c-0.5-2.4-1.1-5.2-1.8-6.6c-0.1-0.2-0.3-0.3-0.5-0.4
	c-0.4-0.1-0.9,0.1-1.4,0.5c-0.7,0.7-0.4,7.7-0.2,11c0.1,1.5,0.2,2.8,0.2,3.6c0,3,1.6,9.1,1.6,9.2c0,0.1,0,0.3,0,0.4
	s-1.6,2.8-3.1,3.8c-1.4,1-2.9,2.9-2.4,4.7c0.2,0.9,0.4,2.7,0.7,4.8c0.4,3.4,0.8,7.7,1.7,9.5c0.7,1.5,2.8,4.3,4.6,6.8
	c1.9,2.6,3.5,4.8,3.9,5.8c0.1,0.2,0.8,1,1.5,1.8c1.3,1.4,3,3.4,4.6,5.6c3.9,5.6,11.1,16.6,11.1,17.2C143.5,185.8,143.3,186,143,186z
	"/>
<path class="st0" d="M118.2,145.3c-0.2,0-0.4-0.2-0.5-0.4c-0.3-1.5,0.4-3.9,0.7-4.7c0.5-1,1-2,1.6-2.9c0-2.5,0.9-6.2,0.9-6.3
	c0-0.5-0.6-3.7-1-5.6c-0.1-0.3,0.1-0.5,0.4-0.6c0.3-0.1,0.5,0.1,0.6,0.4c0.1,0.5,1,5.1,1,6c0,0.1-0.9,3.9-0.9,6.4
	c0,0.1,0,0.2-0.1,0.3c-0.6,0.9-1.2,1.9-1.6,2.9c-0.4,1-0.9,3-0.7,4.1c0.1,0.3-0.1,0.5-0.4,0.6C118.3,145.2,118.2,145.3,118.2,145.3z
	 M120.6,137.4L120.6,137.4L120.6,137.4z"/>
<path class="st0" d="M121,134.2C121,134.2,120.9,134.2,121,134.2c-0.3,0-0.5-0.3-0.5-0.6c-0.2-0.3-1.2-0.5-1.8-0.5
	c-0.3,0-0.5-0.2-0.5-0.5c0-0.3,0.2-0.5,0.5-0.5c0,0,0,0,0,0c0.3,0,1.9,0.1,2.6,0.8c0.2,0.2,0.3,0.5,0.2,0.9
	C121.4,134,121.2,134.2,121,134.2z"/>
<path class="st0" d="M118.4,138.2c-0.1,0-0.2,0-0.3-0.1c-0.2-0.1-0.3-0.5-0.2-0.7c0.6-1,2-0.8,2.8-0.4c0.3,0.1,0.4,0.4,0.3,0.7
	c-0.1,0.3-0.4,0.4-0.7,0.3c0,0-1.2-0.5-1.5,0C118.8,138.1,118.6,138.2,118.4,138.2z"/>
<path class="st0" d="M128.7,125.3c-0.1,0-0.2,0-0.3,0c-0.3-0.1-0.4-0.4-0.3-0.6c0.1-0.2,0.3-0.4,0.5-0.3c0.3-0.3,0.5-1.7,0.6-3.1
	c0-0.3,0.2-0.5,0.5-0.5c0.3,0,0.5,0.2,0.5,0.5c0,1-0.2,3.3-1,3.9C129.1,125.2,128.9,125.3,128.7,125.3z"/>
<path class="st0" d="M138.3,126.5c-0.1,0-0.2,0-0.3-0.1c-1-0.8-0.7-2.8-0.7-3.2c0-0.3,0.3-0.5,0.6-0.4c0.3,0,0.5,0.3,0.4,0.6
	c-0.1,0.7-0.1,2,0.3,2.3c0.2,0.2,0.2,0.5,0.1,0.7C138.6,126.4,138.4,126.5,138.3,126.5z"/>
<path class="st0" d="M145,130.5C145,130.5,145,130.5,145,130.5c-0.3,0-0.5-0.3-0.5-0.5c0-0.5-0.1-1.4-0.3-2.3
	c-0.2-1-0.3-1.9-0.4-2.8c0-0.8,0.3-2.5,0.6-4.3c0.3-1.9,0.8-4.3,0.6-4.9c-0.3-1.3-1.4-6.6-1.4-6.6l1-0.2c0,0,1.1,5.3,1.4,6.6
	c0.1,0.7-0.1,2.5-0.6,5.3c-0.3,1.7-0.6,3.5-0.6,4.2c0,0.8,0.2,1.7,0.3,2.6c0.2,1,0.3,1.9,0.3,2.6C145.5,130.3,145.3,130.5,145,130.5
	z"/>
<path class="st0" d="M149.4,154.7c-0.2,0-0.3-0.1-0.4-0.2c-1.2-1.6-0.8-5.1-0.8-5.3c0-0.3,0.3-0.5,0.5-0.4c0.3,0,0.5,0.3,0.4,0.5
	c-0.1,0.9-0.2,3.5,0.6,4.6c0.2,0.2,0.1,0.5-0.1,0.7C149.6,154.7,149.5,154.7,149.4,154.7z"/>
<path class="st0" d="M125.7,161.4c-0.2,0-0.4-0.1-0.5-0.3c-1-2.9,1.5-5.3,1.6-5.3c0.2-0.2,0.5-0.2,0.7,0c0.2,0.2,0.2,0.5,0,0.7
	c0,0-2.1,2-1.4,4.3c0.1,0.3-0.1,0.5-0.3,0.6C125.8,161.4,125.8,161.4,125.7,161.4z"/>
<path class="st0" d="M141.9,135C141.9,135,141.9,135,141.9,135c-0.3,0-0.5-0.2-0.5-0.5c0-1.1,0.3-2.1,0.5-3.1
	c0.2-0.8,0.4-1.6,0.4-2.3c0-0.3,0.2-0.5,0.5-0.5c0.3,0,0.5,0.2,0.5,0.5c0,0.8-0.2,1.7-0.4,2.6c-0.2,0.9-0.5,1.8-0.5,2.9
	C142.4,134.8,142.2,135,141.9,135z"/>
<path class="st0" d="M134.8,135.6c-0.2,0-0.4-0.1-0.5-0.4c-0.3-0.8-0.4-1.7-0.3-2.6c0.1-0.3,0.2-0.8,0.3-1.3
	c0.3-1.1,0.8-2.8,0.5-3.5c-0.1-0.3,0-0.5,0.3-0.7c0.3-0.1,0.5,0,0.7,0.3c0.4,1.1-0.1,2.8-0.4,4.2c-0.1,0.5-0.2,0.9-0.3,1.1
	c-0.1,0.7,0,1.4,0.2,2.1c0.1,0.3-0.1,0.5-0.3,0.6C134.9,135.6,134.8,135.6,134.8,135.6z"/>
<path class="st0" d="M148.2,138.9C148.2,138.9,148.2,138.9,148.2,138.9c-0.3,0-0.5-0.2-0.5-0.5c0.1-2.9,0.6-4.2,1-5.2
	c0.2-0.4,0.3-0.8,0.3-1.2c0-0.3,0.3-0.5,0.6-0.4c0.3,0,0.5,0.3,0.4,0.6c-0.1,0.5-0.2,0.9-0.4,1.3c-0.3,0.9-0.8,2.2-0.9,5
	C148.7,138.7,148.5,138.9,148.2,138.9z"/>
<path class="st0" d="M126.7,132.8c-0.2,0-0.4-0.1-0.5-0.3c-0.1-0.3-0.1-0.7-0.1-1.6c0-0.9,0.1-2.8-0.2-3.1c-0.2-0.2-0.2-0.5,0-0.7
	c0.2-0.2,0.5-0.2,0.7,0c0.5,0.6,0.6,2,0.5,3.8c0,0.5,0,1.1,0,1.3c0.1,0.3-0.1,0.5-0.3,0.6C126.8,132.8,126.8,132.8,126.7,132.8z"/>
<path class="st0" d="M143.5,107.6c-0.1,0-0.3,0-0.4-0.1c-1.7-1.7-3.6-0.3-3.7-0.3c-0.2,0.2-0.5,0.1-0.7-0.1s-0.1-0.5,0.1-0.7
	c0.9-0.7,3.2-1.5,5,0.4c0.2,0.2,0.2,0.5,0,0.7C143.7,107.6,143.6,107.6,143.5,107.6z"/>
<path class="st0" d="M135.8,104.2c-0.2,0-0.4-0.1-0.5-0.3c0,0-0.3-0.8-1.9-0.9c-1.5-0.1-1.9,0.3-1.9,0.3c-0.1,0.2-0.4,0.3-0.7,0.2
	c-0.2-0.1-0.3-0.5-0.2-0.7c0.1-0.2,0.7-0.9,2.8-0.8c2.3,0.2,2.7,1.6,2.8,1.6c0.1,0.3-0.1,0.5-0.3,0.6
	C135.9,104.2,135.8,104.2,135.8,104.2z"/>
<path class="st1" d="M125.3,114.6c0,0-0.7-1-2.4-0.7c-1.7,0.3-2.5,2.8-2.5,2.8"/>
<path class="st0" d="M120.4,117.2c0,0-0.1,0-0.2,0c-0.3-0.1-0.4-0.4-0.3-0.6c0-0.1,0.9-2.8,2.9-3.1c2-0.4,2.9,0.8,2.9,0.9
	c0.2,0.2,0.1,0.5-0.1,0.7c-0.2,0.2-0.5,0.1-0.7-0.1c0,0-0.6-0.7-1.9-0.4c-1.4,0.3-2.1,2.4-2.1,2.4
	C120.8,117.1,120.6,117.2,120.4,117.2z"/>
<path class="st0" d="M149,123.6c-0.2,0-0.3-0.1-0.4-0.2c0-0.1-1.2-1.7-2.6-1c-0.2,0.1-0.5,0-0.7-0.2s0-0.5,0.2-0.7
	c1.7-0.9,3.3,0.5,3.8,1.4c0.2,0.2,0.1,0.5-0.1,0.7C149.2,123.6,149.1,123.6,149,123.6z"/>
<g class="st2">
	<path class="st8" d="M87.1,107.7c2.4,1.9,0.4,13.5,0.4,13.5l0.2,3.8l4.2-1.8l1.9,8.1c0,0,0,3,1.5,4.1c0,0,0.4,6.7,0,11.5
		c-0.4,4.9-8.2,10.6-10.8,15.7c-2.7,5.1-20.2,20.1-20.2,20.1l-14.8-7l10.7-43.2l9.6-12.3l5.7-14.2c0,0,1,9.3,0.4,15.5L87.1,107.7z"
		/>
</g>
<path class="st1" d="M91.2,133.6c-0.4,1.8,0.5,11.6,0.4,12.9c-0.2,1.3-7.9,10.2-8.3,10.9c-0.4,0.7-5.6,3.7-6.8,5.1
	c-5.7,6.6-8.8,12.7-11.2,18.8c-0.5,1.2-0.9,2.4-1.4,3.5l-22.5-13.1c1.9-2.3,3.7-4.4,5.3-6.3c3.3-3.8,5.9-6.9,7.1-9.8
	c0.4-0.7,0.8-1.4,1.3-2.1c0.5-0.7,1-1.3,1-1.3s-1.6-4.6-1.3-6c0.4-1.4-0.5-13.3-0.5-13.3s-1.1-8.1-2.2-10.1
	c-0.3-0.5-0.4-1.1-0.4-1.7c0.1-1.9,1.1-4.2,1.7-6.9c0.7-3.7,0.4-5.5,2.6-4.2c2.2,1.3,1.2,9,1.2,9l3.4,7.5c0.9-1.8,0-7.1,0-8.3
	c0-0.2,0-0.5,0-1c-0.1-2.1-0.2-6.6,0-8.4c0-0.1,0-0.2,0-0.3c0.3-1.8,1.2-7.6,1.9-8.3c0.9-1,2.4-1.8,3.8,0.4
	c0.8,1.2,0.4,10.9,0.4,10.9s3.2-3.9,4.2-4.8c1-0.9,3.9-2.7,4.7-0.7c0.8,2-2.1,8.2-2.1,8.2c0.6,1.4,0.7,5.4,0.7,5.4s1.4,4.9,2.2,4.9
	h0c0.2-0.1,0.5-1,0.8-2.2c0.7-3.1,1.4-8.4,2-8.8l0.4-0.3c0,0,0,0,0.1-0.1l0.2-0.1c1.4-1.3,4.5-4.1,4.5-4.1s0.2-1.4,2.9-0.9
	c2.7,0.4-1.2,8.3-1.2,8.3c-0.5,2.5-1.4,8.9-1.4,8.9c-0.2,2.7-0.1,9.9-0.1,9.9s1.3-4.2,1.2-5.7c-0.1-1.5,2.5-5.3,3.3-6.2
	c0.8-1,4.1-0.6,3.2,1.2C91.2,125.9,91.6,131.8,91.2,133.6z"/>
<path class="st4" d="M53.8,155.6c0.4-0.7,0.8-1.4,1.3-2.1c0,0-1.3,3.7-1.5,5.6c-0.1,1.3-3.5,3.5-7,6.3
	C49.9,161.6,52.5,158.5,53.8,155.6z"/>
<path class="st4" d="M55.1,153.5c0.5-0.7,1-1.3,1-1.3s-1.6-4.6-1.3-6c0.4-1.4-0.5-13.3-0.5-13.3s-1.1-8.1-2.2-10.1l2.5,4.4
	c0,0-0.2,3.5,0.5,5.4c0.7,1.9,1.6,7.8,1.6,7.8s-1.1,4.9-0.7,6.7c0.4,1.8,2,1.1,2,1.1S58.9,151.4,55.1,153.5z"/>
<path class="st4" d="M61.1,120.1c1.8,10.2-1.3,7.4-2.4,5.2c-1.1-2.2-3.6-6.4-5.6-5.5c-0.5,0.3-1,0.7-1.3,1.2
	c0.1-1.9,1.1-4.2,1.7-6.9c0.7-3.7,0.4-5.5,2.6-4.2c2.2,1.3,1.2,9,1.2,9l3.4,7.5c0.9-1.8,0-7.1,0-8.3c0-0.2,0-0.5,0-1
	C60.7,117.9,60.9,119,61.1,120.1z"/>
<path class="st4" d="M65.3,110c0,0-1.9-2.5-3.5-2.3c-0.3,0-0.6,0.1-0.8,0.3c-0.2,0.2-0.4,0.4-0.5,0.7c0-0.1,0-0.2,0-0.3
	c0.3-1.8,1.2-7.6,1.9-8.3c0.9-1,2.4-1.8,3.8,0.4c0.8,1.2,0.4,10.9,0.4,10.9s3.2-3.9,4.2-4.8c1-0.9,3.9-2.7,4.7-0.7
	c0.8,2-2.1,8.2-2.1,8.2c0.6,1.4,0.7,5.4,0.7,5.4s1.4,4.9,2.2,4.9c-1.9,3.5-3.1-4.2-3.1-4.2c0.3-1.6-0.7-5.1-0.6-6
	c0.1-0.9-1.7-4.1-4.8-3.3c-3.1,0.9-0.8,12.9-0.8,12.9c-0.6,1-1,2.1-1,3.2c-0.9-1.2,0-4.5,0-4.5C65.1,119.3,65.3,110,65.3,110z"/>
<path class="st4" d="M79.6,113c-1.3,1.4-1.1,4.8-2.4,9.2c0.7-3.1,1.4-8.4,2-8.8L79.6,113z"/>
<path class="st4" d="M91.2,133.6c-0.4,1.8,0.5,11.6,0.4,12.9c-0.2,1.3-7.9,10.2-8.3,10.9c-0.4,0.7-5.6,3.7-6.8,5.1
	c-5.7,6.6-8.8,12.7-11.2,18.8c0.9-3.2,2.1-6.3,3.4-9.3c2.7-6,3.8-7.1,5.4-8.8c1.6-1.7,1.4-5.4,1.4-5.4c1.2-0.3,2.4-0.4,3.6-0.4
	c2,0,8.1-8.6,10.2-10.1c2.1-1.5,2.4-1.5,0-4.8c-2.4-3.3-1.8,0.5-2.5,0.4c-0.7-0.1-1.1,1.5-1.1,1.5c-0.3-3.4-2.4-7.3-2.9-8.3
	c-0.5-1,1.1-6.8,0.8-8.4c-0.3-1.6,1.4-11.4,1.4-11.4s-0.2-3.8-3.6-3.8c-0.5,0-1,0.1-1.5,0.4c1.4-1.3,4.5-4.1,4.5-4.1
	s0.2-1.4,2.9-0.9c2.7,0.4-1.2,8.3-1.2,8.3c-0.5,2.5-1.4,8.9-1.4,8.9c-0.2,2.7-0.1,9.9-0.1,9.9s1.3-4.2,1.2-5.7
	c-0.1-1.5,2.5-5.3,3.3-6.2c0.8-1,4.1-0.6,3.2,1.2C91.2,125.9,91.6,131.8,91.2,133.6z"/>
<path class="st0" d="M63.8,185.3c-0.1,0-0.1,0-0.2,0c-0.3-0.1-0.4-0.4-0.3-0.6c2.6-6.9,5.8-14.4,12.7-22.5c0.7-0.8,2.5-2.1,4.2-3.2
	c1.1-0.7,2.4-1.6,2.6-1.9c0.1-0.2,0.8-1,2-2.5c2-2.4,6.1-7.3,6.2-8.1c0.1-0.5-0.1-2.5-0.2-4.7c-0.2-3.4-0.4-7.2-0.2-8.3
	c0.1-0.6,0.2-1.9,0.2-3.3c0-2.4,0.1-5.1,0.7-6.4c0.2-0.4,0.1-0.6-0.1-0.7c-0.6-0.4-1.9-0.3-2.2,0.1c-1,1.2-3.2,4.7-3.2,5.9
	c0.1,1.6-1.1,5.7-1.2,5.9c-0.1,0.2-0.3,0.4-0.5,0.4c-0.2,0-0.4-0.2-0.4-0.5c0-0.3-0.1-7.3,0.1-9.9c0-0.3,0.8-6.5,1.4-9
	c0,0,0-0.1,0-0.1c1.1-2.2,2.5-6.1,1.9-7.3c-0.1-0.2-0.2-0.2-0.4-0.3c-1.7-0.3-2.2,0.2-2.3,0.5c0,0.1-0.1,0.2-0.1,0.3
	c-0.2,0.2-4.3,4-5.1,4.7c-0.3,0.4-0.8,3.1-1.2,5.2c-0.9,4.9-1.2,5.8-1.8,6c-0.4,0.1-1.3,0.3-2.8-5.2c0,0,0-0.1,0-0.1
	c0-1.1-0.2-4.1-0.6-5.2c-0.1-0.1-0.1-0.3,0-0.4c1.1-2.3,2.6-6.4,2.1-7.8c-0.1-0.3-0.3-0.5-0.6-0.6c-0.9-0.2-2.5,0.7-3.3,1.4
	c-0.9,0.9-4.1,4.7-4.1,4.8c-0.1,0.2-0.4,0.2-0.6,0.1c-0.2-0.1-0.3-0.3-0.3-0.5c0.2-4.7,0.1-10-0.4-10.6c-0.5-0.7-0.9-1.1-1.4-1.1
	c-0.6-0.1-1.2,0.4-1.6,0.8c-0.4,0.5-1.2,4.5-1.7,8c-0.2,1.5-0.1,6.5,0,8.6l0,0.9c0,0.3,0.1,0.8,0.1,1.4c0.2,2.2,0.6,5.6-0.1,7.1
	c-0.1,0.2-0.2,0.3-0.5,0.3c-0.2,0-0.4-0.1-0.4-0.3l-3.4-7.5c0-0.1-0.1-0.2,0-0.3c0.4-2.9,0.5-7.7-0.9-8.5c-0.7-0.4-0.9-0.3-1-0.3
	c-0.3,0.1-0.4,1.2-0.6,2.2c-0.1,0.6-0.2,1.3-0.3,2c-0.2,1.2-0.6,2.3-0.9,3.4c-0.6,2-1.1,3.8-0.5,5c1.1,2.1,2.2,10,2.2,10.3
	c0.1,1.3,0.8,12,0.5,13.5c-0.2,0.9,0.6,4,1.3,5.8c0.1,0.2,0,0.3-0.1,0.5c-0.5,0.7-1.9,2.6-2.2,3.3c-1.4,3.1-4.1,6.3-7.6,10.4
	c-1.5,1.7-3.2,3.7-4.9,5.9c-0.2,0.2-0.5,0.3-0.7,0.1c-0.2-0.2-0.2-0.5-0.1-0.7c1.7-2.2,3.4-4.1,4.9-5.9c3.4-4,6.1-7.2,7.4-10.1
	c0.4-0.8,1.7-2.7,2.2-3.3c-0.4-1.1-1.5-4.7-1.2-6.1c0.3-1-0.1-8.4-0.5-13.2c0,0-1.1-8-2.1-9.9c-0.8-1.6-0.3-3.5,0.4-5.7
	c0.3-1,0.6-2.1,0.9-3.3c0.1-0.7,0.2-1.4,0.3-2c0.2-1.6,0.4-2.6,1.1-2.9c0.6-0.3,1.3,0,1.9,0.3c2.3,1.3,1.6,8,1.5,9.3l2.7,6
	c0.1-1.6-0.1-3.8-0.3-5.2c-0.1-0.7-0.1-1.2-0.1-1.5l0-0.9c-0.1-2.3-0.2-7.2,0-8.8c0.2-1.3,1.2-7.7,2-8.5c0.8-0.8,1.6-1.2,2.4-1.1
	c0.8,0.1,1.5,0.6,2.2,1.6c0.7,1.1,0.6,6.8,0.6,9.8c1-1.2,2.6-3.1,3.3-3.7c0.7-0.7,2.7-2,4.2-1.7c0.6,0.1,1.1,0.6,1.3,1.2
	c0.8,2-1.5,7.2-2,8.4c0.5,1.5,0.6,4.8,0.6,5.3c0.5,1.7,1.2,3.6,1.6,4.3c0.3-0.8,0.8-3.2,1.1-5c0.7-3.8,1-5.4,1.6-5.8
	c0.7-0.6,4.3-3.9,5-4.5c0.2-0.5,0.9-1.6,3.4-1.2c0.5,0.1,0.9,0.4,1.1,0.8c1,2-1.5,7.3-1.9,8.2c-0.5,2.5-1.3,8.8-1.3,8.8
	c-0.1,1.3-0.1,3.8-0.1,5.9c0.1-0.7,0.2-1.4,0.2-1.8c-0.1-1.8,2.8-5.9,3.4-6.6c0.7-0.9,2.6-0.9,3.5-0.3c0.7,0.5,0.9,1.2,0.5,2
	c-0.5,1-0.6,3.8-0.6,5.9c0,1.5-0.1,2.7-0.2,3.4c-0.2,1,0,4.9,0.2,8c0.2,2.6,0.2,4.3,0.2,4.8c-0.1,0.9-2.3,3.6-6.4,8.7
	c-0.9,1.1-1.8,2.2-2,2.4c-0.2,0.4-1,0.9-2.9,2.2c-1.5,1-3.4,2.3-4,3c-6.8,8-9.9,15.3-12.5,22.2C64.2,185.2,64,185.3,63.8,185.3z"/>
<path class="st0" d="M66.2,126C66.2,126,66.2,126,66.2,126c-0.3,0-0.5-0.2-0.5-0.5c0-0.7,0.5-1.4,0.8-1.8c-0.2-1.3-1-8.4-1-9.9
	c0-0.9,0.2-1.9,0.8-2.7c0.2-0.2,0.5-0.3,0.7-0.1c0.2,0.2,0.3,0.5,0.1,0.7c-0.4,0.6-0.6,1.3-0.6,2.1c0,1.5,1,9.9,1,10
	c0,0.1,0,0.3-0.1,0.4c-0.2,0.2-0.6,0.9-0.7,1.3C66.7,125.7,66.5,126,66.2,126z"/>
<path class="st0" d="M85.5,146.4C85.5,146.4,85.5,146.4,85.5,146.4c-0.3,0-0.5-0.2-0.5-0.5c0-1,0.1-2.1,0.4-3.1
	c0.3-1.1,0.6-2-0.3-3.7c-0.6-1.4-1-2.8-1.1-4.3c0-0.3,0.2-0.5,0.5-0.5c0.3,0,0.5,0.2,0.5,0.5c0.1,1.4,0.5,2.7,1,4
	c1,2,0.7,3.2,0.3,4.4c-0.2,0.9-0.3,1.9-0.3,2.9C86,146.2,85.8,146.4,85.5,146.4z"/>
<path class="st0" d="M60.4,128.4c-0.1,0-0.3-0.1-0.4-0.2c-0.2-0.2-0.1-0.5,0.1-0.7c1-0.8,0.5-2.8,0.4-2.8c-0.1-0.3,0.1-0.5,0.3-0.6
	c0.3-0.1,0.5,0.1,0.6,0.3c0,0.1,0.8,2.6-0.8,3.9C60.6,128.4,60.5,128.4,60.4,128.4z"/>
<path class="st0" d="M75.2,125.8c-0.3,0-0.5-0.2-0.5-0.5c0-0.3,0.2-0.5,0.5-0.5c0.3,0,0.5-0.1,0.6-0.2c0.1-0.1,0.1-0.2,0.1-0.2
	c0-0.3,0.2-0.5,0.4-0.6c0.3,0,0.5,0.1,0.6,0.4c0,0.1,0.1,0.5-0.3,1C76.3,125.6,75.8,125.8,75.2,125.8
	C75.2,125.8,75.2,125.8,75.2,125.8z"/>
<path class="st0" d="M84.7,114.6c-0.1,0-0.3-0.1-0.4-0.2c0,0-1.5-1.6-3.1-1.6c0,0,0,0,0,0c-0.6,0-1.2,0.3-1.7,0.8
	c-0.2,0.2-0.5,0.2-0.7,0c-0.2-0.2-0.2-0.5,0-0.7c0.7-0.7,1.5-1.1,2.4-1.1c0,0,0,0,0,0c2,0,3.8,1.9,3.8,2c0.2,0.2,0.2,0.5,0,0.7
	C85,114.6,84.9,114.6,84.7,114.6z"/>
<path class="st0" d="M66.2,112.9C66.1,112.9,66.1,112.9,66.2,112.9c-0.4-0.1-0.5-0.3-0.5-0.6c0.3-1.4,2.3-2.2,3.6-2.3
	c1.5-0.2,3,1.7,3.1,1.9c0.2,0.2,0.1,0.5-0.1,0.7c-0.2,0.2-0.5,0.1-0.7-0.1c-0.3-0.4-1.5-1.6-2.3-1.5c-1.2,0.1-2.6,0.8-2.7,1.5
	C66.6,112.7,66.4,112.9,66.2,112.9z"/>
<path class="st0" d="M87.3,144.7c-0.2,0-0.4-0.2-0.5-0.4c-0.2-0.8-0.5-1.6-1-2.2c-0.2-0.2-0.1-0.5,0.1-0.7c0.2-0.2,0.5-0.1,0.7,0.1
	c0.5,0.8,0.9,1.6,1.2,2.6c0.1,0.3-0.1,0.5-0.4,0.6C87.3,144.7,87.3,144.7,87.3,144.7z"/>
<path class="st0" d="M77.1,134.2c-0.1,0-0.1,0-0.2,0c-0.3-0.1-0.4-0.4-0.3-0.7c0.1-0.2,0.1-0.9,0.1-1.5c0-1.3,0.1-3,0.8-4.2
	c0.1-0.2,0.4-0.3,0.7-0.2c0.2,0.1,0.3,0.4,0.2,0.7c-0.6,1-0.6,2.6-0.6,3.8c0,0.8,0,1.5-0.2,1.9C77.5,134.1,77.3,134.2,77.1,134.2z"
	/>
<path class="st0" d="M67.8,134.4C67.8,134.4,67.8,134.4,67.8,134.4c-0.3,0-0.5-0.3-0.5-0.6c0.1-0.9-0.1-1.8-0.4-2.7
	c-0.2-0.8-0.4-1.5-0.3-2.2c0-0.5,0.2-1.1,0.3-1.7c0.2-0.8,0.4-1.6,0.3-2.2c-0.1-0.3,0.1-0.5,0.4-0.6c0.3-0.1,0.5,0.1,0.6,0.4
	c0.2,0.8-0.1,1.7-0.3,2.6c-0.1,0.6-0.3,1.1-0.3,1.5c0,0.5,0.1,1.2,0.3,1.9c0.2,1,0.5,2,0.4,3.1C68.3,134.2,68.1,134.4,67.8,134.4z"
	/>
<path class="st0" d="M60.7,137.1c-0.2,0-0.5-0.2-0.5-0.4c0-0.1-0.5-2.9-0.5-4.2c0-1.4,0.8-3.4,0.9-3.5c0.1-0.3,0.4-0.4,0.7-0.3
	c0.3,0.1,0.4,0.4,0.3,0.7c0,0-0.8,1.9-0.8,3.1c0,1.2,0.5,4,0.5,4.1C61.3,136.8,61.1,137,60.7,137.1
	C60.8,137.1,60.8,137.1,60.7,137.1z"/>
<path class="st0" d="M56.6,137.6c-0.2,0-0.4-0.2-0.5-0.4c0,0-0.7-3-1.4-4.4c-0.8-1.6-0.5-3.7-0.5-3.8c0-0.3,0.3-0.5,0.6-0.4
	c0.3,0,0.5,0.3,0.4,0.6c0,0-0.3,1.9,0.4,3.2c0.7,1.5,1.4,4.5,1.5,4.6c0.1,0.3-0.1,0.5-0.4,0.6C56.7,137.6,56.6,137.6,56.6,137.6z"/>
<path class="st0" d="M56.1,152.7c-0.2,0-0.4-0.1-0.5-0.4c-0.1-0.3,0.1-0.5,0.3-0.6c0.3-0.1,0.5-0.2,0.7-0.5c0.2-0.2,0.3-0.5,0.3-0.8
	c0-0.3,0.3-0.5,0.6-0.4c0.3,0,0.5,0.3,0.4,0.5c-0.1,0.5-0.2,0.9-0.6,1.3s-0.7,0.6-1.2,0.8C56.2,152.7,56.1,152.7,56.1,152.7z"/>
<path class="st0" d="M75.9,163.6c-0.1,0-0.2,0-0.3-0.1c-0.2-0.2-0.2-0.5-0.1-0.7c1.3-1.6,0.6-4.3,0.6-4.3c-0.1-0.3,0.1-0.5,0.4-0.6
	c0.3-0.1,0.5,0.1,0.6,0.4c0,0.1,0.8,3.2-0.8,5.2C76.2,163.6,76,163.6,75.9,163.6z"/>
<path class="st0" d="M51.8,121.1c-0.1,0-0.3-0.1-0.4-0.2c-0.2-0.2-0.2-0.5,0-0.7c0.1-0.1,1.3-1.2,2.7-1.2c0.7,0,1.3,0.3,1.8,0.9
	c0.2,0.2,0.2,0.5,0,0.7s-0.5,0.2-0.7,0c-0.3-0.4-0.7-0.5-1.1-0.6c-1-0.1-2,0.9-2,0.9C52.1,121.1,52,121.1,51.8,121.1z"/>
<path class="st0" d="M64.1,108.9c-0.1,0-0.2,0-0.3-0.1c-1.5-1.4-2.7-0.3-2.8-0.1c-0.2,0.2-0.5,0.2-0.7,0c-0.2-0.2-0.2-0.5,0-0.7
	c0,0,0.8-0.9,2-0.9c0.8,0,1.5,0.3,2.2,1c0.2,0.2,0.2,0.5,0,0.7C64.4,108.9,64.2,108.9,64.1,108.9z"/>
</svg>
